<svg xmlns="http://www.w3.org/2000/svg" xmlns:xlink="http://www.w3.org/1999/xlink" viewBox="0 0 27.13 28.63"><defs><style>.cls-1{isolation:isolate;}.cls-2{mask:url(#mask);}.cls-3,.cls-9{mix-blend-mode:multiply;}.cls-4{fill:#e6e6e6;}.cls-15,.cls-5{fill:#4d4d4d;}.cls-6{mask:url(#mask-2);}.cls-7{fill:#428209;}.cls-8{mask:url(#mask-3);}.cls-29,.cls-9{fill:#999;}.cls-10,.cls-11,.cls-66{mix-blend-mode:screen;}.cls-10{fill:url(#Nepojmenovan_p_echod_13);}.cls-12{fill:#3d3d3d;}.cls-12,.cls-44{opacity:0;}.cls-13{fill:#434343;opacity:0.03;}.cls-14{fill:#484848;opacity:0.06;}.cls-15{opacity:0.1;}.cls-16{fill:#535353;opacity:0.13;}.cls-17{fill:#585858;opacity:0.16;}.cls-18{fill:#5e5e5e;opacity:0.19;}.cls-19{fill:#636363;opacity:0.23;}.cls-20{fill:#696969;opacity:0.26;}.cls-21{fill:#6e6e6e;opacity:0.29;}.cls-22{fill:#737373;opacity:0.32;}.cls-23{fill:#797979;opacity:0.35;}.cls-24{fill:#7e7e7e;opacity:0.39;}.cls-25{fill:#848484;opacity:0.42;}.cls-26{fill:#898989;opacity:0.45;}.cls-27{fill:#8f8f8f;opacity:0.48;}.cls-28{fill:#949494;opacity:0.52;}.cls-29{opacity:0.55;}.cls-30{fill:#9f9f9f;opacity:0.58;}.cls-31{fill:#a4a4a4;opacity:0.61;}.cls-32{fill:#aaa;opacity:0.65;}.cls-33{fill:#afafaf;opacity:0.68;}.cls-34{fill:#b5b5b5;opacity:0.71;}.cls-35{fill:#bababa;opacity:0.74;}.cls-36{fill:#bfbfbf;opacity:0.77;}.cls-37{fill:#c5c5c5;opacity:0.81;}.cls-38{fill:#cacaca;opacity:0.84;}.cls-39{fill:#d0d0d0;opacity:0.87;}.cls-40{fill:#d5d5d5;opacity:0.9;}.cls-41{fill:#dbdbdb;opacity:0.94;}.cls-42{fill:#e0e0e0;opacity:0.97;}.cls-43{opacity:0.5;}.cls-44,.cls-45,.cls-46,.cls-47,.cls-48,.cls-49,.cls-50,.cls-51,.cls-52,.cls-53,.cls-54,.cls-55,.cls-56,.cls-57,.cls-58,.cls-59,.cls-60,.cls-61,.cls-62,.cls-63,.cls-64,.cls-65{fill:#fff;}.cls-45{opacity:0.05;}.cls-46{opacity:0.1;}.cls-47{opacity:0.14;}.cls-48{opacity:0.19;}.cls-49{opacity:0.24;}.cls-50{opacity:0.29;}.cls-51{opacity:0.33;}.cls-52{opacity:0.38;}.cls-53{opacity:0.43;}.cls-54{opacity:0.48;}.cls-55{opacity:0.52;}.cls-56{opacity:0.57;}.cls-57{opacity:0.62;}.cls-58{opacity:0.67;}.cls-59{opacity:0.71;}.cls-60{opacity:0.76;}.cls-61{opacity:0.81;}.cls-62{opacity:0.86;}.cls-63{opacity:0.9;}.cls-64{opacity:0.95;}.cls-66{fill:url(#linear-gradient);}.cls-67{filter:url(#luminosity-noclip-3);}.cls-68{filter:url(#luminosity-noclip-2);}.cls-69{filter:url(#luminosity-noclip);}</style><filter id="luminosity-noclip" x="6.47" y="11" width="26.86" height="26.86" filterUnits="userSpaceOnUse" color-interpolation-filters="sRGB"><feFlood flood-color="#fff" result="bg"/><feBlend in="SourceGraphic" in2="bg"/></filter><mask id="mask" x="0.11" y="1.23" width="26.86" height="26.86" maskUnits="userSpaceOnUse"><g class="cls-69"><g transform="translate(-6.36 -9.77)"><path d="M33.33,24.43A13.43,13.43,0,1,1,19.9,11,13.43,13.43,0,0,1,33.33,24.43Z"/></g></g></mask><filter id="luminosity-noclip-2" x="9.61" y="11.99" width="21.24" height="24.63" filterUnits="userSpaceOnUse" color-interpolation-filters="sRGB"><feFlood flood-color="#fff" result="bg"/><feBlend in="SourceGraphic" in2="bg"/></filter><mask id="mask-2" x="3.25" y="2.22" width="21.24" height="24.63" maskUnits="userSpaceOnUse"><g class="cls-68"><g transform="translate(-6.36 -9.77)"><rect x="19.46" y="11.95" width="1.94" height="24.72" transform="translate(-4.3 4.4) rotate(-11.12)"/><rect x="19.46" y="11.95" width="1.94" height="24.72" transform="translate(-11.29 25.82) rotate(-52.67)"/><rect x="18.59" y="11.95" width="3.7" height="24.72" transform="translate(19.11 56.04) rotate(-137.56)"/></g></g></mask><filter id="luminosity-noclip-3" x="9.17" y="15.28" width="22.36" height="18.72" filterUnits="userSpaceOnUse" color-interpolation-filters="sRGB"><feFlood flood-color="#fff" result="bg"/><feBlend in="SourceGraphic" in2="bg"/></filter><mask id="mask-3" x="2.81" y="5.51" width="22.36" height="18.72" maskUnits="userSpaceOnUse"><g class="cls-67"><g transform="translate(-6.36 -9.77)"><rect x="20.09" y="13.46" width="0.52" height="22.36" transform="translate(32.81 -4.79) rotate(62.5)"/><rect x="20.09" y="13.46" width="0.52" height="22.36" transform="translate(39.31 -1.09) rotate(75.94)"/><rect x="20.09" y="13.46" width="0.52" height="22.36" transform="translate(44.99 4.29) rotate(90)"/><rect x="18.63" y="13.46" width="3.44" height="22.36" transform="translate(52.03 28.81) rotate(137.06)"/></g></g></mask><linearGradient id="Nepojmenovan_p_echod_13" x1="19.9" y1="37.92" x2="19.9" y2="10.94" gradientUnits="userSpaceOnUse"><stop offset="0" stop-color="#edebe8"/><stop offset="0" stop-color="#e7e3e0"/><stop offset="0.03" stop-color="#d8d4d2"/><stop offset="0.08" stop-color="#b1aeac"/><stop offset="0.15" stop-color="#72706e"/><stop offset="0.24" stop-color="#1c1b1b"/><stop offset="0.26"/><stop offset="0.3" stop-color="#4d4d4d"/><stop offset="0.34" stop-color="#909090"/><stop offset="0.37" stop-color="silver"/><stop offset="0.39" stop-color="#dedede"/><stop offset="0.41" stop-color="#e9e9e9"/><stop offset="0.45" stop-color="#dfdfdf"/><stop offset="0.51" stop-color="#c5c5c5"/><stop offset="0.6" stop-color="#9a9a9a"/><stop offset="0.71" stop-color="#5f5f5f"/><stop offset="0.82" stop-color="#141414"/><stop offset="0.85"/><stop offset="1" stop-color="#d9dadb"/><stop offset="1" stop-color="#b1b3b4"/></linearGradient><linearGradient id="linear-gradient" x1="2.93" y1="35.97" x2="-2.57" y2="61.65" gradientTransform="translate(20.19 -26.01) rotate(7.23)" gradientUnits="userSpaceOnUse"><stop offset="0" stop-color="#262626"/><stop offset="0.09" stop-color="#1f1f1f"/><stop offset="0.36" stop-color="#0e0e0e"/><stop offset="0.65" stop-color="#030303"/><stop offset="1"/></linearGradient></defs><g class="cls-1"><g id="glass_buttons" data-name="glass buttons"><g class="cls-2"><g class="cls-3"><path class="cls-4" d="M32.78,25.6A12.26,12.26,0,1,1,20.52,13.34,12.25,12.25,0,0,1,32.78,25.6Z" transform="translate(-6.36 -9.77)"/></g></g><circle cx="13.54" cy="14.66" r="11.53"/><path class="cls-5" d="M19.9,35.13A10.72,10.72,0,1,1,27.46,32,10.64,10.64,0,0,1,19.9,35.13Zm0-21.37a10.69,10.69,0,1,0,7.54,3.13A10.57,10.57,0,0,0,19.9,13.76Z" transform="translate(-6.36 -9.77)"/><g class="cls-6"><path class="cls-7" d="M19.9,34.72A10.29,10.29,0,1,1,30.19,24.43,10.31,10.31,0,0,1,19.9,34.72Zm0-20a9.67,9.67,0,1,0,9.66,9.67A9.68,9.68,0,0,0,19.9,14.76Z" transform="translate(-6.36 -9.77)"/></g><g class="cls-8"><path class="cls-7" d="M19.89,33.54a9.12,9.12,0,0,1-1.22-18.15A9.11,9.11,0,0,1,28.93,23.2a9.11,9.11,0,0,1-9,10.34Zm0-18a8.24,8.24,0,0,0-1.22.08,9,9,0,1,0,1.22-.08Z" transform="translate(-6.36 -9.77)"/></g><path class="cls-9" d="M19.93,38a13.55,13.55,0,1,1,9.59-4A13.5,13.5,0,0,1,19.93,38Zm0-26.8A13.24,13.24,0,1,0,33.16,24.45,13.25,13.25,0,0,0,19.93,11.22Z" transform="translate(-6.36 -9.77)"/><path class="cls-10" d="M19.9,37.92a13.49,13.49,0,1,1,9.54-4A13.39,13.39,0,0,1,19.9,37.92Zm0-26.86A13.38,13.38,0,1,0,29.35,15,13.29,13.29,0,0,0,19.9,11.06Z" transform="translate(-6.36 -9.77)"/><g class="cls-11"><path class="cls-12" d="M19.21,9.77a4.48,4.48,0,0,1,3.68,2.06c0,.29-1.27-.11-3.3-.15a10.16,10.16,0,0,0-4.27.76,26.2,26.2,0,0,0-2.55,1.4,8.44,8.44,0,0,1,2.33-2.42A7.74,7.74,0,0,1,19.21,9.77Z" transform="translate(-6.36 -9.77)"/><path class="cls-13" d="M19.21,9.81a4.39,4.39,0,0,1,3.59,2c.05.28-1.24-.09-3.22-.13a10.28,10.28,0,0,0-4.14.72,28,28,0,0,0-2.5,1.3,8.34,8.34,0,0,1,2.28-2.3A7.6,7.6,0,0,1,19.21,9.81Z" transform="translate(-6.36 -9.77)"/><path class="cls-14" d="M19.22,9.84a4.28,4.28,0,0,1,3.49,1.89c.05.27-1.21-.07-3.13-.1a10.4,10.4,0,0,0-4,.66c-1.39.49-2.43,1.34-2.44,1.22a7.8,7.8,0,0,1,2.23-2.18A7.57,7.57,0,0,1,19.22,9.84Z" transform="translate(-6.36 -9.77)"/><path class="cls-15" d="M19.23,9.88a4.19,4.19,0,0,1,3.4,1.81c0,.26-1.19-.06-3.06-.09a10.49,10.49,0,0,0-3.9.62c-1.34.46-2.36,1.25-2.37,1.13a7.56,7.56,0,0,1,2.17-2.07A7.32,7.32,0,0,1,19.23,9.88Z" transform="translate(-6.36 -9.77)"/><path class="cls-16" d="M19.23,9.91a4.14,4.14,0,0,1,3.31,1.73c0,.25-1.16,0-3-.06a10.49,10.49,0,0,0-3.78.57c-1.31.42-2.3,1.16-2.31,1a7.36,7.36,0,0,1,2.11-1.95A7.34,7.34,0,0,1,19.23,9.91Z" transform="translate(-6.36 -9.77)"/><path class="cls-17" d="M19.24,10a4,4,0,0,1,3.21,1.65c0,.24-1.13,0-2.89,0a10.59,10.59,0,0,0-3.65.53c-1.27.39-2.24,1.08-2.25,1a7.26,7.26,0,0,1,2.06-1.84A7.22,7.22,0,0,1,19.24,10Z" transform="translate(-6.36 -9.77)"/><path class="cls-18" d="M19.25,10a3.87,3.87,0,0,1,3.11,1.58c0,.23-1.1,0-2.8,0A10.48,10.48,0,0,0,16,12c-1.23.36-2.17,1-2.19.88a6.88,6.88,0,0,1,2-1.73A7.06,7.06,0,0,1,19.25,10Z" transform="translate(-6.36 -9.77)"/><path class="cls-19" d="M19.26,10a3.81,3.81,0,0,1,3,1.5c0,.22-1.08,0-2.73,0a10.73,10.73,0,0,0-3.41.45c-1.18.33-2.1.91-2.11.81A6.62,6.62,0,0,1,16,11.13,6.92,6.92,0,0,1,19.26,10Z" transform="translate(-6.36 -9.77)"/><path class="cls-20" d="M19.26,10.05a3.7,3.7,0,0,1,2.93,1.43c0,.21-1.06,0-2.64,0a10.64,10.64,0,0,0-3.29.41c-1.14.3-2,.83-2,.73a6.47,6.47,0,0,1,1.87-1.52A7,7,0,0,1,19.26,10.05Z" transform="translate(-6.36 -9.77)"/><path class="cls-21" d="M19.27,10.09a3.6,3.6,0,0,1,2.83,1.35c0,.2-1,0-2.56,0a10.63,10.63,0,0,0-3.16.38c-1.09.27-2,.76-2,.66a6.06,6.06,0,0,1,1.81-1.42A6.61,6.61,0,0,1,19.27,10.09Z" transform="translate(-6.36 -9.77)"/><path class="cls-22" d="M19.28,10.12A3.56,3.56,0,0,1,22,11.4c0,.2-1,0-2.47,0a10.64,10.64,0,0,0-3,.34c-1.05.25-1.89.69-1.9.6A5.8,5.8,0,0,1,16.34,11,6.67,6.67,0,0,1,19.28,10.12Z" transform="translate(-6.36 -9.77)"/><path class="cls-23" d="M19.28,10.16a3.4,3.4,0,0,1,2.63,1.2c0,.19-1,.06-2.38,0a11.1,11.1,0,0,0-2.91.31c-1,.22-1.81.63-1.82.54A5.56,5.56,0,0,1,16.47,11,6.48,6.48,0,0,1,19.28,10.16Z" transform="translate(-6.36 -9.77)"/><path class="cls-24" d="M19.29,10.19a3.29,3.29,0,0,1,2.53,1.14c0,.18-.93.06-2.29.05a11.27,11.27,0,0,0-2.79.27c-1,.21-1.74.57-1.75.48A5.37,5.37,0,0,1,16.6,11,6.33,6.33,0,0,1,19.29,10.19Z" transform="translate(-6.36 -9.77)"/><path class="cls-25" d="M19.3,10.23a3.16,3.16,0,0,1,2.43,1.07c0,.16-.9.07-2.21,0a11.14,11.14,0,0,0-2.66.25c-.92.18-1.66.5-1.67.42A5.12,5.12,0,0,1,16.72,11,6.28,6.28,0,0,1,19.3,10.23Z" transform="translate(-6.36 -9.77)"/><path class="cls-26" d="M19.3,10.26a3.1,3.1,0,0,1,2.34,1c0,.16-.87.08-2.12.07a11.44,11.44,0,0,0-2.54.21c-.88.17-1.58.45-1.6.38a5.14,5.14,0,0,1,1.47-1A6.2,6.2,0,0,1,19.3,10.26Z" transform="translate(-6.36 -9.77)"/><path class="cls-27" d="M19.31,10.3a3,3,0,0,1,2.24.93c0,.15-.84.08-2,.07a12.09,12.09,0,0,0-2.41.19c-.84.15-1.51.4-1.52.33A6.78,6.78,0,0,1,19.31,10.3Z" transform="translate(-6.36 -9.77)"/><path class="cls-28" d="M19.32,10.33a2.92,2.92,0,0,1,2.13.87c0,.14-.8.09-1.94.08a17.07,17.07,0,0,0-3.73.44A6.63,6.63,0,0,1,19.32,10.33Z" transform="translate(-6.36 -9.77)"/><path class="cls-29" d="M19.33,10.37a2.79,2.79,0,0,1,2,.8c0,.14-.77.09-1.86.08a17.65,17.65,0,0,0-3.52.38A6.43,6.43,0,0,1,19.33,10.37Z" transform="translate(-6.36 -9.77)"/><path class="cls-30" d="M19.33,10.4a2.65,2.65,0,0,1,1.93.75c0,.12-.73.09-1.76.08a18.55,18.55,0,0,0-3.31.32A6,6,0,0,1,19.33,10.4Z" transform="translate(-6.36 -9.77)"/><path class="cls-31" d="M19.34,10.43a2.63,2.63,0,0,1,1.83.69c0,.11-.7.09-1.68.08a19.88,19.88,0,0,0-3.1.27A5.85,5.85,0,0,1,19.34,10.43Z" transform="translate(-6.36 -9.77)"/><path class="cls-32" d="M19.35,10.47a2.46,2.46,0,0,1,1.72.63c0,.1-.66.08-1.58.08a22.91,22.91,0,0,0-2.9.21A5.59,5.59,0,0,1,19.35,10.47Z" transform="translate(-6.36 -9.77)"/><path class="cls-33" d="M19.35,10.5a2.42,2.42,0,0,1,1.63.57c0,.1-.63.09-1.5.08s-2.67.21-2.69.17A5.37,5.37,0,0,1,19.35,10.5Z" transform="translate(-6.36 -9.77)"/><path class="cls-34" d="M19.36,10.54a2.23,2.23,0,0,1,1.52.51c0,.09-.59.08-1.4.08S17,11.3,17,11.26A5,5,0,0,1,19.36,10.54Z" transform="translate(-6.36 -9.77)"/><path class="cls-35" d="M19.37,10.57a2.23,2.23,0,0,1,1.42.46,3.66,3.66,0,0,1-1.32.07c-.76,0-2.25.14-2.27.1A4.81,4.81,0,0,1,19.37,10.57Z" transform="translate(-6.36 -9.77)"/><path class="cls-36" d="M19.37,10.61a2.05,2.05,0,0,1,1.32.4,3.69,3.69,0,0,1-1.22.07c-.71-.05-2,.1-2.06.06A4.45,4.45,0,0,1,19.37,10.61Z" transform="translate(-6.36 -9.77)"/><path class="cls-37" d="M19.38,10.64a2,2,0,0,1,1.21.35,3.63,3.63,0,0,1-1.13.06c-.65,0-1.84.08-1.85,0A4.22,4.22,0,0,1,19.38,10.64Z" transform="translate(-6.36 -9.77)"/><path class="cls-38" d="M19.39,10.68A2,2,0,0,1,20.5,11a3.52,3.52,0,0,1-1,.06c-.6,0-1.63.06-1.64,0A3.74,3.74,0,0,1,19.39,10.68Z" transform="translate(-6.36 -9.77)"/><path class="cls-39" d="M19.4,10.71a1.91,1.91,0,0,1,1,.24,3.14,3.14,0,0,1-.95.05C18.91,11,18,11,18,11A3.48,3.48,0,0,1,19.4,10.71Z" transform="translate(-6.36 -9.77)"/><path class="cls-40" d="M19.4,10.75a1.75,1.75,0,0,1,.9.19,3.14,3.14,0,0,1-.85,0c-.49,0-1.21,0-1.22,0A3.11,3.11,0,0,1,19.4,10.75Z" transform="translate(-6.36 -9.77)"/><path class="cls-41" d="M19.41,10.78a1.94,1.94,0,0,1,.79.14,3.33,3.33,0,0,1-.76,0c-.43,0-1,0-1,0A3,3,0,0,1,19.41,10.78Z" transform="translate(-6.36 -9.77)"/><path class="cls-42" d="M19.42,10.82a2.09,2.09,0,0,1,.69.09,4,4,0,0,1-.67,0c-.38,0-.8,0-.8,0A2.59,2.59,0,0,1,19.42,10.82Z" transform="translate(-6.36 -9.77)"/><path class="cls-4" d="M19.42,10.86a3,3,0,0,1,.59,0H18.84A2.24,2.24,0,0,1,19.42,10.86Z" transform="translate(-6.36 -9.77)"/></g><g class="cls-43"><path class="cls-44" d="M16.33,37.29c-.13-.36,2.84,1.08,7.46-.45s7.79-5.44,7.8-5.23a15,15,0,0,1-7.46,6.08C19.5,39.38,16.33,37.55,16.33,37.29Z" transform="translate(-6.36 -9.77)"/><path class="cls-45" d="M16.6,37.4c-.12-.35,2.79.94,7.25-.57s7.55-5.19,7.56-5a14.8,14.8,0,0,1-7.23,5.82C19.72,39.31,16.61,37.65,16.6,37.4Z" transform="translate(-6.36 -9.77)"/><path class="cls-46" d="M16.87,37.5c-.11-.33,2.75.8,7-.67s7.3-4.95,7.31-4.76a14.46,14.46,0,0,1-7,5.55C19.93,39.23,16.89,37.74,16.87,37.5Z" transform="translate(-6.36 -9.77)"/><path class="cls-47" d="M17.16,37.59c-.11-.31,2.68.67,6.81-.77S31,32.1,31,32.29a14.42,14.42,0,0,1-6.77,5.3C20.14,39.15,17.18,37.82,17.16,37.59Z" transform="translate(-6.36 -9.77)"/><path class="cls-48" d="M17.44,37.67c-.1-.3,2.63.55,6.59-.85s6.79-4.49,6.82-4.31a14.1,14.1,0,0,1-6.53,5C20.36,39.07,17.47,37.89,17.44,37.67Z" transform="translate(-6.36 -9.77)"/><path class="cls-49" d="M17.73,37.74c-.1-.28,2.56.44,6.36-.92s6.54-4.27,6.57-4.09a14,14,0,0,1-6.29,4.79C20.57,39,17.76,38,17.73,37.74Z" transform="translate(-6.36 -9.77)"/><path class="cls-50" d="M18,37.8c-.1-.26,2.48.34,6.12-1s6.28-4,6.31-3.88a13.51,13.51,0,0,1-6,4.55C20.78,38.91,18.06,38,18,37.8Z" transform="translate(-6.36 -9.77)"/><path class="cls-51" d="M18.33,37.86c-.09-.25,2.4.23,5.88-1.06s6-3.82,6.06-3.66a13.38,13.38,0,0,1-5.8,4.31C21,38.82,18.36,38.05,18.33,37.86Z" transform="translate(-6.36 -9.77)"/><path class="cls-52" d="M18.63,37.9c-.09-.24,2.32.14,5.64-1.1a24.5,24.5,0,0,0,5.8-3.46,13.07,13.07,0,0,1-5.55,4.07C21.2,38.74,18.66,38.08,18.63,37.9Z" transform="translate(-6.36 -9.77)"/><path class="cls-53" d="M18.93,37.93c-.07-.22,2.24.06,5.4-1.14a25.58,25.58,0,0,0,5.54-3.25,12.83,12.83,0,0,1-5.31,3.84C21.41,38.65,19,38.11,18.93,37.93Z" transform="translate(-6.36 -9.77)"/><path class="cls-54" d="M19.24,38c-.07-.21,2.15,0,5.15-1.17a26.75,26.75,0,0,0,5.28-3.06,12.45,12.45,0,0,1-5.06,3.61C21.62,38.56,19.28,38.12,19.24,38Z" transform="translate(-6.36 -9.77)"/><path class="cls-55" d="M19.55,38c-.06-.19,2.06-.08,4.9-1.19a27.49,27.49,0,0,0,5-2.86,12.18,12.18,0,0,1-4.81,3.38C21.83,38.47,19.59,38.13,19.55,38Z" transform="translate(-6.36 -9.77)"/><path class="cls-56" d="M19.87,38c-.06-.18,2-.15,4.64-1.21a28,28,0,0,0,4.75-2.67,11.7,11.7,0,0,1-4.55,3.17C22,38.38,19.91,38.13,19.87,38Z" transform="translate(-6.36 -9.77)"/><path class="cls-57" d="M20.19,38c-.06-.17,1.86-.2,4.38-1.21a32,32,0,0,0,4.49-2.49,11.58,11.58,0,0,1-4.3,2.95C22.24,38.29,20.23,38.11,20.19,38Z" transform="translate(-6.36 -9.77)"/><path class="cls-58" d="M20.51,38c-.06-.15,1.76-.24,4.12-1.2a34.52,34.52,0,0,0,4.22-2.3,11.06,11.06,0,0,1-4,2.73C22.45,38.2,20.54,38.09,20.51,38Z" transform="translate(-6.36 -9.77)"/><path class="cls-59" d="M20.83,37.94c0-.14,1.65-.28,3.86-1.19a35.8,35.8,0,0,0,3.95-2.12,10.73,10.73,0,0,1-3.79,2.53A7.45,7.45,0,0,1,20.83,37.94Z" transform="translate(-6.36 -9.77)"/><path class="cls-60" d="M21.15,37.91c0-.13,1.55-.31,3.6-1.17s3.64-2,3.68-1.94a10.49,10.49,0,0,1-3.53,2.32A7.25,7.25,0,0,1,21.15,37.91Z" transform="translate(-6.36 -9.77)"/><path class="cls-61" d="M21.48,37.87c0-.12,1.44-.34,3.33-1.14s3.37-1.86,3.41-1.77A10.12,10.12,0,0,1,25,37.08,7.13,7.13,0,0,1,21.48,37.87Z" transform="translate(-6.36 -9.77)"/><path class="cls-62" d="M21.81,37.82c0-.11,1.32-.35,3.06-1.09S28,35,28,35.12a9.61,9.61,0,0,1-3,1.93A7,7,0,0,1,21.81,37.82Z" transform="translate(-6.36 -9.77)"/><path class="cls-63" d="M22.14,37.76c0-.09,1.21-.36,2.79-1s2.83-1.52,2.86-1.45A8.84,8.84,0,0,1,25.05,37,6.81,6.81,0,0,1,22.14,37.76Z" transform="translate(-6.36 -9.77)"/><path class="cls-64" d="M22.47,37.69c0-.08,1.09-.36,2.52-1s2.56-1.36,2.58-1.29A8.39,8.39,0,0,1,25.1,37,6.38,6.38,0,0,1,22.47,37.69Z" transform="translate(-6.36 -9.77)"/><path class="cls-65" d="M22.8,37.61c0-.07,1-.35,2.25-.91s2.28-1.19,2.31-1.13a8.33,8.33,0,0,1-2.22,1.36A5.92,5.92,0,0,1,22.8,37.61Z" transform="translate(-6.36 -9.77)"/></g><path class="cls-66" d="M21.72,11.13a13.43,13.43,0,0,0-5,26.33,102.69,102.69,0,0,1,3.8-13.82C22.89,17.26,24.24,14,24.24,14l-.07-.2.6-1.9A13.35,13.35,0,0,0,21.72,11.13Z" transform="translate(-6.36 -9.77)"/></g></g></svg>