<svg xmlns="http://www.w3.org/2000/svg" xmlns:xlink="http://www.w3.org/1999/xlink" version="1.1" id="Layer_1" x="0px" y="0px" viewBox="0 0 746.66 754.56" style="enable-background:new 0 0 746.66 754.56;" xml:space="preserve">
<style type="text/css">
	.st0{fill:#AE8C45;}
</style>
<g>
	<path class="st0" d="M283.51,496.54l-32.65,48.96c0.77,0.15,1.55,0.29,2.33,0.43l30.32-45.47V496.54z"/>
	<path class="st0" d="M238.39,486.91c-0.76-0.3-1.52-0.6-2.28-0.91l-43.06,37.28c0.65,0.39,1.31,0.78,1.97,1.17L238.39,486.91z"/>
	<path class="st0" d="M253.93,491.79c-0.82-0.2-1.64-0.41-2.45-0.62l-41.04,41.33c0.7,0.32,1.41,0.64,2.11,0.96L253.93,491.79z"/>
	<path class="st0" d="M229.7,577.24l-1.76,2.63c-1.59-0.5-3.38,0.08-4.35,1.54c-1.18,1.77-0.7,4.16,1.07,5.34   c1.77,1.18,4.16,0.7,5.34-1.07c0.97-1.46,0.82-3.33-0.25-4.61l2.18-3.26C231.18,577.62,230.44,577.43,229.7,577.24z"/>
	<path class="st0" d="M263.17,493.67c-0.87-0.14-1.75-0.29-2.61-0.46l-42.34,42.64c0.73,0.3,1.47,0.58,2.2,0.87L263.17,493.67z"/>
	<path class="st0" d="M279.18,246.01l-37.02-48.35c-0.77,0.19-1.53,0.39-2.29,0.59l36.66,47.88   C277.41,246.08,278.29,246.04,279.18,246.01z"/>
	<path class="st0" d="M275.36,495.06l-37.45,47.44c0.79,0.21,1.58,0.42,2.37,0.62l37.82-47.91   C277.18,495.16,276.27,495.11,275.36,495.06z"/>
	<path class="st0" d="M142.49,451.46l36.57-12.73c-0.41-0.62-0.81-1.25-1.21-1.88l-36.55,12.72   C141.78,450.14,142.18,450.78,142.49,451.46z"/>
	<path class="st0" d="M193.01,128.51c-0.06-0.95-0.39-1.89-1.01-2.7c-0.42-0.54-0.92-0.98-1.48-1.29c-0.84-0.48-1.79-0.69-2.74-0.64   c-0.95,0.06-1.89,0.39-2.71,1.01c-0.54,0.41-0.97,0.92-1.29,1.47c-0.48,0.84-0.69,1.79-0.64,2.74c0.06,0.95,0.39,1.9,1.01,2.71   c0.41,0.54,0.92,0.97,1.47,1.29c0.84,0.48,1.79,0.69,2.74,0.64c0.6-0.03,1.2-0.18,1.77-0.44l26.51,34.63   c0.73-0.24,1.46-0.48,2.19-0.71l-26.98-35.24c0.18-0.23,0.36-0.47,0.5-0.72C192.85,130.42,193.06,129.46,193.01,128.51z    M190.7,129.69c-0.17,0.5-0.48,0.97-0.94,1.32c-0.3,0.23-0.64,0.39-0.98,0.48c-0.52,0.13-1.07,0.11-1.58-0.05   c-0.51-0.17-0.97-0.48-1.32-0.94c-0.23-0.31-0.39-0.64-0.48-0.99c-0.13-0.52-0.11-1.07,0.05-1.58c0.17-0.51,0.49-0.96,0.94-1.31   c0.31-0.23,0.64-0.39,0.99-0.48c0.52-0.14,1.07-0.12,1.58,0.05c0.5,0.17,0.96,0.49,1.31,0.94c0.23,0.3,0.39,0.64,0.48,0.98   C190.89,128.63,190.87,129.18,190.7,129.69z"/>
	<path class="st0" d="M196.09,459.53l-37.41,19.6c0.06,0.79,0.1,1.59,0.11,2.4l38.94-20.4C197.19,460.6,196.64,460.07,196.09,459.53   z"/>
	<path class="st0" d="M223.68,480.06L179.18,514c0.61,0.45,1.23,0.89,1.84,1.33l44.77-34.15   C225.09,480.81,224.38,480.44,223.68,480.06z"/>
	<path class="st0" d="M675.18,292.03c0.59,0.76,1.4,1.32,2.29,1.63c0.9,0.3,1.9,0.36,2.88,0.09c0.66-0.18,1.25-0.48,1.76-0.88   c0.76-0.59,1.32-1.4,1.63-2.3c0.31-0.9,0.36-1.9,0.09-2.89c-0.18-0.65-0.48-1.25-0.87-1.75c-0.59-0.76-1.4-1.32-2.3-1.63   c-0.9-0.3-1.9-0.36-2.89-0.09c-0.66,0.17-1.25,0.48-1.75,0.87c-0.76,0.59-1.32,1.4-1.63,2.3c-0.2,0.57-0.28,1.18-0.26,1.81   l-84.15,22.75l-4.47,3.46l89.19-24.11C674.84,291.55,674.99,291.8,675.18,292.03z M676.32,288.61c0.07-0.53,0.3-1.04,0.65-1.44   c0.35-0.4,0.81-0.71,1.37-0.86c0.37-0.1,0.74-0.12,1.1-0.07c0.53,0.07,1.04,0.3,1.44,0.65c0.4,0.35,0.7,0.81,0.85,1.37   c0.1,0.37,0.12,0.74,0.07,1.1c-0.07,0.53-0.3,1.03-0.65,1.44c-0.35,0.4-0.81,0.7-1.37,0.85c-0.37,0.1-0.74,0.12-1.09,0.07   c-0.53-0.07-1.03-0.3-1.44-0.65c-0.4-0.35-0.71-0.81-0.86-1.37C676.29,289.34,676.28,288.96,676.32,288.61z"/>
	<path class="st0" d="M174.33,553.74l-20.36,18.81c-0.24-0.16-0.5-0.31-0.76-0.43c-0.88-0.4-1.85-0.52-2.79-0.38   c-0.94,0.15-1.85,0.56-2.6,1.25c-0.5,0.46-0.89,1.01-1.15,1.59c-0.4,0.88-0.52,1.85-0.38,2.79c0.15,0.94,0.56,1.85,1.26,2.6   c0.46,0.5,1,0.88,1.58,1.15c0.88,0.4,1.85,0.52,2.79,0.38c0.94-0.15,1.85-0.56,2.6-1.26c0.5-0.45,0.88-1,1.15-1.59   c0.4-0.88,0.52-1.85,0.38-2.79c-0.09-0.59-0.29-1.18-0.6-1.72l20.85-19.25C175.64,554.51,174.98,554.13,174.33,553.74z    M153.86,577.26c-0.13,0.52-0.39,1.01-0.81,1.4c-0.28,0.26-0.6,0.45-0.94,0.57c-0.51,0.18-1.06,0.21-1.58,0.09   c-0.52-0.13-1-0.39-1.39-0.82c-0.26-0.28-0.45-0.6-0.57-0.94c-0.19-0.5-0.22-1.05-0.09-1.58c0.12-0.52,0.39-1,0.82-1.39   c0.28-0.26,0.6-0.45,0.93-0.57c0.5-0.19,1.05-0.22,1.58-0.09c0.52,0.12,1.01,0.39,1.4,0.81c0.26,0.28,0.45,0.6,0.57,0.93   C153.95,576.18,153.98,576.74,153.86,577.26z"/>
	<path class="st0" d="M710.68,431.43c1.34,0.26,2.63-0.62,2.89-1.95c0.26-1.34-0.62-2.62-1.96-2.88s-2.63,0.61-2.89,1.95   C708.47,429.88,709.34,431.17,710.68,431.43z"/>
	<path class="st0" d="M629.57,379.6l-43.34-0.52c-0.02,0.73-0.04,1.45-0.07,2.17l45.56,0.55l15.42,15.79l46.84,0.56   c0.45,1.61,1.91,2.79,3.66,2.81c2.13,0.03,3.88-1.68,3.9-3.81c0.03-2.13-1.68-3.87-3.81-3.9c-1.75-0.02-3.24,1.13-3.73,2.72   l-45.95-0.55l-13.27-13.59l20.2,0.24c0.07,0.52,0.22,1.03,0.41,1.5c0.49,1.2,1.32,2.22,2.37,2.95c1.05,0.72,2.32,1.16,3.69,1.18   c0.92,0.01,1.79-0.16,2.59-0.49c1.19-0.49,2.22-1.32,2.94-2.36c0.73-1.05,1.17-2.33,1.18-3.7c0.02-0.91-0.16-1.79-0.49-2.59   c-0.49-1.2-1.32-2.22-2.36-2.95c-1.05-0.72-2.32-1.16-3.7-1.18c-0.91-0.01-1.78,0.17-2.59,0.49c-1.2,0.49-2.22,1.32-2.94,2.37   c-0.53,0.77-0.91,1.65-1.08,2.61l-22.37-0.27l-7.85-8.04l-38.45-0.46c0,0.73-0.01,1.45-0.02,2.18l37.55,0.45L629.57,379.6z    M657.46,379.28c0.35-0.8,0.92-1.47,1.64-1.95c0.72-0.47,1.57-0.74,2.5-0.73c0.62,0.01,1.21,0.14,1.74,0.37   c0.79,0.34,1.47,0.92,1.94,1.64c0.47,0.72,0.75,1.57,0.74,2.5c-0.01,0.62-0.14,1.2-0.37,1.73c-0.35,0.8-0.93,1.47-1.64,1.95   c-0.72,0.47-1.57,0.74-2.5,0.73c-0.62-0.01-1.2-0.14-1.73-0.37c-0.8-0.35-1.47-0.93-1.94-1.64c-0.47-0.72-0.75-1.57-0.74-2.5   C657.09,380.39,657.22,379.81,657.46,379.28z"/>
	<path class="st0" d="M662.74,440.6c-1.7-0.43-3.42,0.34-4.26,1.77L582.1,423.2l4.27,3.31l71.57,17.96c0.06,1.66,1.21,3.16,2.9,3.59   c2.06,0.52,4.16-0.72,4.68-2.79S664.8,441.13,662.74,440.6z"/>
	<path class="st0" d="M661.51,383.53c1.36,0.02,2.48-1.08,2.5-2.44c0.02-1.36-1.08-2.48-2.44-2.5c-1.36-0.02-2.47,1.08-2.49,2.44   C659.06,382.4,660.16,383.51,661.51,383.53z"/>
	<path class="st0" d="M712.1,317.2c-0.91,0.11-1.75,0.4-2.5,0.82c-1.12,0.65-2.03,1.6-2.62,2.73c-0.43,0.83-0.69,1.76-0.73,2.73   l-49.32,5.85l4.79-6.08l14.1-1.67c0.09,0.28,0.21,0.55,0.36,0.8c0.48,0.84,1.19,1.51,2.03,1.95c0.84,0.43,1.83,0.63,2.85,0.51   c0.67-0.08,1.3-0.29,1.86-0.61c0.84-0.48,1.51-1.19,1.95-2.03c0.44-0.84,0.64-1.83,0.52-2.85c-0.08-0.67-0.3-1.3-0.62-1.87   c-0.47-0.84-1.18-1.51-2.03-1.94c-0.84-0.44-1.83-0.64-2.84-0.52c-0.68,0.08-1.31,0.3-1.86,0.62c-0.84,0.47-1.51,1.18-1.95,2.03   c-0.28,0.53-0.45,1.13-0.52,1.75l-14.99,1.78l-6.7,8.5l-69.23,8.21c0.08,0.72,0.14,1.44,0.21,2.17l67.12-7.96l-4.99,6.34   l-61.61,7.31c0.06,0.72,0.11,1.45,0.16,2.17l62.6-7.43l6.9-8.76l51.48-6.11c0.15,0.51,0.35,0.99,0.61,1.44   c0.64,1.12,1.59,2.03,2.73,2.61c1.13,0.59,2.46,0.85,3.82,0.69c0.91-0.11,1.76-0.39,2.5-0.82c1.13-0.64,2.03-1.59,2.62-2.73   c0.58-1.13,0.85-2.46,0.69-3.82c-0.11-0.9-0.4-1.75-0.82-2.5c-0.65-1.12-1.59-2.03-2.73-2.61   C714.78,317.3,713.46,317.04,712.1,317.2z M677.82,319.16c0.14-0.52,0.44-0.97,0.85-1.32c0.4-0.35,0.91-0.59,1.48-0.65   c0.38-0.04,0.75-0.01,1.09,0.09c0.52,0.15,0.98,0.45,1.33,0.85c0.35,0.41,0.58,0.91,0.65,1.48c0.05,0.38,0.01,0.75-0.09,1.1   c-0.15,0.52-0.45,0.98-0.85,1.33c-0.41,0.35-0.91,0.58-1.48,0.65c-0.38,0.05-0.75,0.01-1.1-0.09c-0.52-0.15-0.98-0.45-1.33-0.85   c-0.35-0.4-0.58-0.91-0.65-1.48C677.69,319.87,677.72,319.5,677.82,319.16z M717.31,323.26c0.07,0.62,0.02,1.21-0.14,1.77   c-0.24,0.83-0.72,1.57-1.37,2.14c-0.66,0.56-1.46,0.94-2.39,1.05c-0.61,0.07-1.21,0.01-1.76-0.15c-0.83-0.24-1.58-0.73-2.14-1.38   s-0.94-1.47-1.05-2.39c-0.07-0.61-0.02-1.21,0.14-1.76c0.24-0.83,0.73-1.57,1.38-2.14s1.46-0.95,2.39-1.05   c0.61-0.07,1.21-0.01,1.76,0.15c0.83,0.24,1.58,0.72,2.14,1.38C716.82,321.53,717.2,322.35,717.31,323.26z"/>
	<path class="st0" d="M712.59,321.34c-1.35,0.16-2.32,1.38-2.16,2.73c0.16,1.35,1.39,2.32,2.74,2.16c1.35-0.16,2.32-1.39,2.16-2.74   C715.17,322.14,713.94,321.18,712.59,321.34z"/>
	<path class="st0" d="M717.64,427.63c-0.27-1.27-0.9-2.42-1.81-3.32c-0.9-0.91-2.08-1.56-3.42-1.82c-0.9-0.17-1.79-0.15-2.63,0.02   c-1.27,0.27-2.42,0.91-3.32,1.81c-0.66,0.66-1.19,1.47-1.52,2.38l-48.76-9.42l6.42-4.34l13.94,2.69c0.01,0.29,0.04,0.59,0.1,0.87   c0.2,0.94,0.67,1.8,1.34,2.48c0.67,0.67,1.55,1.16,2.56,1.35c0.67,0.13,1.33,0.12,1.96-0.02c0.94-0.2,1.8-0.67,2.48-1.34   c0.67-0.67,1.16-1.55,1.36-2.55c0.13-0.67,0.11-1.33-0.02-1.96c-0.2-0.94-0.67-1.8-1.35-2.47c-0.67-0.67-1.55-1.16-2.55-1.35   c-0.67-0.13-1.34-0.11-1.96,0.02c-0.94,0.2-1.8,0.67-2.48,1.34c-0.43,0.42-0.77,0.93-1.02,1.51l-14.82-2.86l-8.97,6.06   l-68.51-13.23c-0.08,0.72-0.17,1.44-0.25,2.17l66.22,12.79l-6.69,4.52l-60.23-11.63c-0.1,0.72-0.2,1.44-0.3,2.16l61,11.78   l9.23-6.24l50.9,9.83c-0.01,0.53,0.03,1.05,0.14,1.55c0.27,1.26,0.9,2.42,1.8,3.32c0.9,0.91,2.09,1.56,3.43,1.82   c0.9,0.17,1.79,0.16,2.63-0.02c1.27-0.27,2.42-0.9,3.32-1.8c0.9-0.9,1.55-2.08,1.82-3.43   C717.84,429.37,717.82,428.47,717.64,427.63z M678.74,414.96c0.07-0.38,0.21-0.72,0.42-1.02c0.29-0.45,0.72-0.79,1.21-1   c0.49-0.21,1.04-0.28,1.61-0.17c0.37,0.07,0.72,0.22,1.01,0.42c0.45,0.3,0.8,0.73,1.01,1.22c0.21,0.5,0.28,1.04,0.17,1.61   c-0.07,0.38-0.22,0.72-0.42,1.02c-0.3,0.45-0.73,0.8-1.22,1.01c-0.5,0.21-1.04,0.28-1.61,0.17c-0.38-0.07-0.72-0.21-1.02-0.42   c-0.45-0.3-0.8-0.73-1.01-1.22C678.7,416.07,678.63,415.52,678.74,414.96z M715.53,429.85c-0.12,0.61-0.35,1.16-0.68,1.64   c-0.48,0.72-1.17,1.28-1.96,1.62c-0.8,0.34-1.68,0.46-2.59,0.28c-0.61-0.12-1.16-0.36-1.64-0.67c-0.72-0.48-1.29-1.17-1.62-1.96   c-0.34-0.79-0.45-1.68-0.27-2.59c0.12-0.61,0.35-1.15,0.67-1.64c0.48-0.72,1.17-1.28,1.96-1.62c0.79-0.34,1.68-0.46,2.59-0.28   c0.61,0.12,1.15,0.35,1.64,0.67c0.72,0.48,1.29,1.17,1.62,1.96C715.59,428.06,715.7,428.95,715.53,429.85z"/>
	<path class="st0" d="M618.9,399.43c2.12,0.2,4-1.36,4.19-3.48c0.2-2.12-1.36-4-3.48-4.19c-1.74-0.16-3.32,0.86-3.94,2.41   l-30.01-2.78c-0.05,0.72-0.11,1.45-0.16,2.17l29.97,2.78C615.8,397.97,617.16,399.27,618.9,399.43z"/>
	<path class="st0" d="M283.51,526.28l-11.85,21.97c0.79,0.06,1.58,0.12,2.38,0.17l9.47-17.55V526.28z"/>
	<path class="st0" d="M263.57,650.23c-0.74,2,0.29,4.21,2.28,4.95c2,0.74,4.21-0.29,4.95-2.28c0.61-1.64,0.02-3.43-1.32-4.42   l14.02-38.36v-6.33l-16.06,43.94C265.78,647.61,264.17,648.59,263.57,650.23z"/>
	<path class="st0" d="M634.47,559.93c-0.43,1.61,0.22,3.37,1.71,4.28c1.82,1.11,4.19,0.53,5.3-1.28s0.53-4.19-1.29-5.3   c-1.49-0.91-3.36-0.69-4.59,0.44l-5.75-3.51l-1.09,1.88L634.47,559.93z"/>
	<path class="st0" d="M181.18,299.38l-32.67-12.41c-0.2,0.7-0.42,1.39-0.66,2.07l32.07,12.18   C180.33,300.6,180.75,299.99,181.18,299.38z"/>
	<path class="st0" d="M283.51,196.15v-3.63c-0.59,0-1.17,0.03-1.75,0.04L283.51,196.15z"/>
	<path class="st0" d="M213.37,473.73l-46.22,30.56c0.56,0.5,1.13,1,1.7,1.48l46.48-30.73C214.67,474.61,214.02,474.17,213.37,473.73   z"/>
	<path class="st0" d="M174.54,230.81l45.42,32.52c0.7-0.42,1.41-0.83,2.13-1.24l-45.71-32.72   C175.75,229.84,175.15,230.33,174.54,230.81z"/>
	<path class="st0" d="M283.51,216.46v-4.39l-10.91-19.14c-0.8,0.05-1.6,0.12-2.4,0.19L283.51,216.46z"/>
	<path class="st0" d="M262.68,247.66c0.83-0.14,1.67-0.27,2.51-0.39l-38.14-45.17c-0.73,0.25-1.47,0.51-2.2,0.77L262.68,247.66z"/>
	<path class="st0" d="M204.99,467.49l-47.71,27.42c0.54,0.55,1.08,1.1,1.63,1.65l47.97-27.57   C206.25,468.49,205.62,467.99,204.99,467.49z"/>
	<path class="st0" d="M283.51,233.69v-4.17l-22.62-35.41c-0.82,0.11-1.63,0.22-2.45,0.34L283.51,233.69z"/>
	<path class="st0" d="M211.26,268.99l-46.81-29.59c-0.55,0.51-1.1,1.02-1.65,1.53l46.56,29.43   C210,269.9,210.63,269.44,211.26,268.99z"/>
	<path class="st0" d="M189.7,452.76l-33.45,15.94c0.27,0.67,0.52,1.36,0.75,2.05l34.21-16.3C190.7,453.89,190.2,453.33,189.7,452.76   z"/>
	<path class="st0" d="M145.41,259.8c0.37,0.67,0.72,1.36,1.05,2.05l47.01,22.51c0.53-0.55,1.07-1.1,1.61-1.64l-49.17-23.54   C145.75,259.39,145.57,259.59,145.41,259.8z"/>
	<path class="st0" d="M189.46,288.77l-40.41-19.35c0.19,0.87,0.36,1.75,0.49,2.64l38.46,18.42   C188.47,289.9,188.96,289.33,189.46,288.77z"/>
	<path class="st0" d="M665.46,264.05c0.99,1.34,2.78,1.93,4.42,1.33c2-0.73,3.03-2.94,2.3-4.94c-0.73-2-2.94-3.03-4.94-2.3   c-1.64,0.6-2.63,2.2-2.52,3.87l-19.59,7.23l-5.71,4.43L665.46,264.05z"/>
	<path class="st0" d="M128.14,181.98c-1.1-0.88-2.71-0.7-3.59,0.4c-0.88,1.1-0.7,2.71,0.4,3.59c1.1,0.88,2.71,0.7,3.59-0.4   C129.42,184.46,129.24,182.86,128.14,181.98z"/>
	<path class="st0" d="M153.67,463.52l32.21-15.34c-0.46-0.58-0.92-1.17-1.37-1.76l-32.04,15.26   C152.89,462.29,153.29,462.9,153.67,463.52z"/>
	<path class="st0" d="M108.27,225.92c-1.88-1-4.21-0.28-5.21,1.59c-1,1.88-0.28,4.21,1.59,5.21c1.55,0.82,3.4,0.48,4.56-0.71   l8.87,4.68c0.46-0.58,0.95-1.14,1.42-1.71l-9.27-4.89C110.57,228.47,109.82,226.74,108.27,225.92z"/>
	<path class="st0" d="M252.81,249.74c0.81-0.2,1.62-0.4,2.43-0.59l-40.05-42.5c-0.71,0.3-1.41,0.62-2.12,0.93L252.81,249.74z"/>
	<path class="st0" d="M230.78,257.6c0.76-0.35,1.52-0.7,2.29-1.04l-44.65-35.7c-0.66,0.43-1.31,0.87-1.96,1.3L230.78,257.6z"/>
	<path class="st0" d="M278.31,708.76c-1.35-0.42-2.78,0.33-3.2,1.68c-0.42,1.35,0.33,2.78,1.68,3.2s2.78-0.33,3.19-1.68   C280.4,710.61,279.65,709.18,278.31,708.76z"/>
	<path class="st0" d="M94,318.08c-2.1-0.36-4.09,1.05-4.45,3.15c-0.36,2.1,1.05,4.09,3.15,4.45c1.72,0.3,3.38-0.6,4.11-2.1   l67.17,11.53c0.21-0.7,0.42-1.4,0.64-2.1l-67.44-11.58C96.98,319.78,95.72,318.38,94,318.08z"/>
	<path class="st0" d="M173.69,311.55l-33.79-9.72c-0.58,0.6-1.18,1.19-1.8,1.75l34.55,9.94   C172.99,312.85,173.34,312.2,173.69,311.55z"/>
	<path class="st0" d="M169.31,320.51l-41.93-10.28c-1.3,0.52-2.64,0.96-4.02,1.33l45.06,11.04   C168.71,321.9,169.01,321.2,169.31,320.51z"/>
	<path class="st0" d="M34.68,328.17c-1.35-0.19-2.6,0.76-2.78,2.1c-0.19,1.35,0.76,2.59,2.11,2.78c1.35,0.19,2.59-0.75,2.78-2.1   C36.98,329.6,36.03,328.35,34.68,328.17z"/>
	<path class="st0" d="M149.78,536.44l-15.41,11.76c-1.34-0.99-3.22-1.03-4.62,0.03c-1.7,1.29-2.03,3.7-0.74,5.4   c1.29,1.7,3.7,2.03,5.4,0.74c1.39-1.06,1.87-2.88,1.27-4.44l15.84-12.08C150.93,537.38,150.35,536.91,149.78,536.44z"/>
	<path class="st0" d="M72.53,397.89c1.74-0.14,3.12-1.42,3.46-3.05l76.92-6.4h-1.03c0.32-0.72,0.61-1.44,0.89-2.17l-76.94,6.4   c-0.6-1.56-2.16-2.6-3.91-2.46c-2.12,0.17-3.7,2.03-3.53,4.15S70.41,398.06,72.53,397.89z"/>
	<path class="st0" d="M41.41,379.37c-0.55-1.17-1.43-2.15-2.51-2.83c-1.08-0.68-2.38-1.05-3.75-1.01c-0.91,0.03-1.78,0.25-2.56,0.61   c-1.17,0.55-2.16,1.43-2.83,2.51c-0.68,1.08-1.05,2.38-1,3.75c0.03,0.91,0.25,1.78,0.61,2.57c0.54,1.17,1.42,2.15,2.5,2.83   c1.08,0.68,2.38,1.05,3.75,1c0.91-0.03,1.78-0.25,2.56-0.61c1.17-0.54,2.15-1.42,2.83-2.5c0.49-0.79,0.83-1.7,0.95-2.66   l112.87-4.04c0.14-0.73,0.27-1.46,0.38-2.19l-113.33,4.05C41.79,380.34,41.62,379.84,41.41,379.37z M39.56,383.77   c-0.31,0.8-0.85,1.51-1.54,2.02c-0.7,0.51-1.54,0.82-2.47,0.85c-0.62,0.02-1.21-0.09-1.75-0.29c-0.81-0.31-1.52-0.85-2.02-1.55   c-0.51-0.69-0.81-1.54-0.85-2.47c-0.02-0.62,0.08-1.2,0.28-1.75c0.31-0.81,0.85-1.51,1.55-2.02c0.69-0.51,1.54-0.82,2.47-0.85   c0.62-0.02,1.2,0.09,1.75,0.29c0.81,0.31,1.52,0.85,2.02,1.55c0.51,0.69,0.81,1.54,0.85,2.46   C39.87,382.63,39.76,383.22,39.56,383.77z"/>
	<path class="st0" d="M198.69,279.24c0.56-0.52,1.13-1.04,1.71-1.56l-48.48-25.59c-0.5,0.56-0.98,1.12-1.47,1.68L198.69,279.24z"/>
	<path class="st0" d="M238.73,254.21c0.75-0.29,1.51-0.57,2.27-0.85l-41.5-39.09c-0.67,0.37-1.34,0.73-2,1.1L238.73,254.21z"/>
	<path class="st0" d="M283.51,688.28l-5.02,16.12c-0.54-0.07-1.08-0.09-1.61-0.03c-1.33,0.13-2.59,0.65-3.62,1.47   c-1.03,0.82-1.85,1.97-2.27,3.32c-0.28,0.9-0.36,1.83-0.28,2.71c0.14,1.33,0.66,2.59,1.48,3.62c0.83,1.03,1.96,1.84,3.31,2.26   c0.9,0.28,1.83,0.36,2.71,0.28c1.33-0.14,2.59-0.65,3.62-1.48c0.67-0.53,1.23-1.21,1.66-1.98v-6.78c-0.18-0.31-0.37-0.61-0.6-0.89   c-0.6-0.75-1.37-1.39-2.27-1.84l2.87-9.21V688.28z M281.97,709.87c0.26,0.85,0.27,1.78-0.02,2.7c-0.19,0.61-0.49,1.15-0.87,1.61   c-0.58,0.69-1.35,1.19-2.2,1.44s-1.78,0.27-2.7-0.02c-0.61-0.19-1.15-0.49-1.61-0.88c-0.69-0.57-1.19-1.35-1.45-2.2   c-0.25-0.86-0.27-1.78,0.02-2.7c0.19-0.61,0.5-1.15,0.88-1.61c0.58-0.69,1.35-1.19,2.2-1.45c0.86-0.25,1.78-0.27,2.7,0.02   c0.62,0.19,1.15,0.49,1.61,0.87C281.21,708.25,281.71,709.02,281.97,709.87z"/>
	<path class="st0" d="M247.15,251.31c0.8-0.24,1.61-0.48,2.42-0.71l-42.65-40.17c-0.7,0.34-1.39,0.68-2.08,1.03L247.15,251.31z"/>
	<path class="st0" d="M244.37,489.05l-42.47,39.22c0.68,0.36,1.37,0.71,2.06,1.06l42.79-39.52   C245.95,489.57,245.16,489.32,244.37,489.05z"/>
	<path class="st0" d="M133.1,181.93c-0.39-1.26-1.16-2.43-2.27-3.32c-0.74-0.59-1.57-1-2.42-1.25c-1.29-0.36-2.65-0.33-3.91,0.06   c-1.26,0.39-2.43,1.16-3.31,2.26c-0.59,0.74-1,1.57-1.25,2.42c-0.36,1.29-0.34,2.65,0.06,3.91c0.39,1.26,1.16,2.43,2.26,3.31   c0.74,0.59,1.56,1.01,2.42,1.25c1.29,0.37,2.65,0.34,3.91-0.05c0.92-0.29,1.79-0.77,2.54-1.44l19.42,15.13   c0.6-0.49,1.2-0.98,1.8-1.46l-19.81-15.43c0.27-0.48,0.47-0.98,0.62-1.49C133.52,184.54,133.49,183.19,133.1,181.93z    M131.15,184.34c-0.08,0.89-0.4,1.76-1,2.51c-0.4,0.5-0.88,0.9-1.4,1.18c-0.79,0.43-1.69,0.61-2.58,0.54   c-0.89-0.07-1.76-0.4-2.51-1c-0.5-0.4-0.89-0.87-1.18-1.4c-0.43-0.79-0.61-1.69-0.54-2.58c0.07-0.89,0.4-1.76,1-2.51   c0.4-0.5,0.87-0.89,1.41-1.17c0.79-0.43,1.69-0.62,2.57-0.55c0.89,0.08,1.76,0.4,2.51,1c0.5,0.4,0.89,0.88,1.17,1.41   C131.03,182.56,131.22,183.46,131.15,184.34z"/>
	<path class="st0" d="M69.64,342.13c-0.02-0.29-0.07-0.58-0.15-0.86c-0.25-0.93-0.77-1.76-1.47-2.4c-0.71-0.63-1.61-1.07-2.62-1.21   c-0.67-0.09-1.33-0.05-1.95,0.12c-0.93,0.25-1.76,0.77-2.4,1.47c-0.64,0.71-1.08,1.61-1.22,2.62c-0.09,0.67-0.04,1.34,0.12,1.96   c0.25,0.93,0.76,1.76,1.47,2.39c0.71,0.64,1.61,1.08,2.62,1.22c0.68,0.09,1.34,0.04,1.96-0.13c0.93-0.25,1.76-0.76,2.4-1.47   c0.4-0.44,0.72-0.97,0.94-1.56l14.95,2.07l8.64-6.53l67.74,9.39c0.12-0.72,0.25-1.43,0.39-2.14l-65.68-9.1l6.44-4.87l60.44,8.38   c0.17-0.71,0.35-1.42,0.53-2.12l-61.57-8.53l-8.89,6.73l-51.35-7.12c-0.02-0.53-0.09-1.05-0.22-1.54   c-0.33-1.24-1.03-2.37-1.98-3.22c-0.95-0.86-2.17-1.45-3.52-1.63c-0.91-0.13-1.8-0.06-2.63,0.16c-1.25,0.33-2.37,1.03-3.22,1.98   c-0.85,0.95-1.44,2.16-1.63,3.52c-0.12,0.9-0.06,1.8,0.16,2.63c0.34,1.25,1.03,2.37,1.98,3.22c0.95,0.86,2.16,1.45,3.52,1.64   c0.91,0.13,1.8,0.06,2.63-0.16c1.25-0.34,2.37-1.03,3.22-1.98c0.62-0.69,1.11-1.53,1.39-2.45l49.19,6.82l-6.18,4.67L69.64,342.13z    M67.45,342.93c-0.05,0.38-0.18,0.73-0.36,1.04c-0.27,0.46-0.68,0.83-1.16,1.06c-0.48,0.23-1.02,0.34-1.6,0.26   c-0.38-0.05-0.73-0.18-1.03-0.36c-0.46-0.28-0.84-0.68-1.07-1.16c-0.23-0.48-0.34-1.03-0.26-1.6c0.05-0.38,0.18-0.73,0.36-1.04   c0.28-0.46,0.68-0.84,1.16-1.07c0.48-0.23,1.02-0.33,1.59-0.25c0.38,0.05,0.73,0.18,1.04,0.36c0.46,0.28,0.84,0.68,1.07,1.16   C67.44,341.81,67.53,342.35,67.45,342.93z M38.76,331.22c-0.08,0.61-0.29,1.17-0.58,1.67c-0.45,0.75-1.1,1.34-1.87,1.72   c-0.77,0.38-1.66,0.54-2.58,0.42c-0.61-0.08-1.17-0.29-1.67-0.59c-0.75-0.45-1.35-1.1-1.72-1.87c-0.38-0.77-0.54-1.65-0.41-2.57   c0.09-0.62,0.29-1.18,0.59-1.68c0.44-0.74,1.1-1.34,1.87-1.72c0.78-0.38,1.66-0.54,2.58-0.42c0.61,0.08,1.18,0.29,1.67,0.59   c0.75,0.45,1.35,1.1,1.72,1.87C38.73,329.42,38.89,330.3,38.76,331.22z"/>
	<path class="st0" d="M283.51,509.53l-20.43,37.88c0.77,0.09,1.55,0.19,2.32,0.28l18.11-33.58V509.53z"/>
	<path class="st0" d="M217.91,602.86l18.2-5.45l-9.59,17.78c-0.49-0.17-1.01-0.28-1.52-0.33c-1.29-0.12-2.58,0.14-3.71,0.73   c-1.13,0.59-2.11,1.52-2.76,2.73c-0.43,0.81-0.69,1.66-0.77,2.53c-0.12,1.28,0.14,2.58,0.73,3.7c0.59,1.13,1.52,2.12,2.73,2.76   c0.8,0.44,1.66,0.69,2.52,0.77c1.29,0.12,2.58-0.14,3.71-0.72c1.13-0.59,2.11-1.52,2.76-2.73c0.43-0.8,0.68-1.66,0.77-2.52   c0.12-1.29-0.14-2.58-0.73-3.71c-0.43-0.83-1.04-1.57-1.81-2.16l10.62-19.69l10.77-3.22l5.87-10.89c-0.77-0.1-1.53-0.22-2.29-0.34   l-5.07,9.4l-7.82,2.34l6.86-12.71c-0.75-0.13-1.51-0.26-2.26-0.4l-7.55,13.99l-21.15,6.33l-22.24,41.23   c-1.63-0.35-3.36,0.4-4.19,1.94c-1.01,1.87-0.31,4.21,1.56,5.22c1.87,1.01,4.21,0.31,5.22-1.57c0.83-1.54,0.51-3.39-0.68-4.56   L217.91,602.86z M228.81,621.03c0.09,0.85-0.08,1.74-0.51,2.55c-0.3,0.55-0.68,1-1.14,1.37c-0.67,0.54-1.49,0.87-2.35,0.96   c-0.86,0.08-1.74-0.07-2.56-0.51c-0.54-0.29-1-0.69-1.36-1.13c-0.54-0.68-0.88-1.5-0.96-2.36c-0.09-0.85,0.07-1.74,0.52-2.56   c0.29-0.54,0.68-1,1.13-1.36c0.68-0.54,1.5-0.87,2.36-0.96c0.85-0.09,1.74,0.07,2.56,0.51c0.54,0.29,0.99,0.68,1.36,1.13   C228.39,619.35,228.73,620.17,228.81,621.03z"/>
	<path class="st0" d="M225.39,676.18c-1.21-0.62-2.7-0.14-3.32,1.07c-0.62,1.21-0.14,2.7,1.07,3.32c1.21,0.62,2.69,0.14,3.31-1.07   C227.08,678.29,226.6,676.8,225.39,676.18z"/>
	<path class="st0" d="M225.54,619.3c-1.2-0.65-2.7-0.2-3.34,0.99c-0.65,1.2-0.2,2.7,1,3.34c1.2,0.65,2.7,0.2,3.34-1   C227.19,621.44,226.74,619.95,225.54,619.3z"/>
	<path class="st0" d="M163.41,652.16c-1.11-0.87-2.71-0.68-3.58,0.42c-0.87,1.11-0.68,2.71,0.42,3.58c1.11,0.87,2.71,0.68,3.58-0.42   C164.71,654.64,164.52,653.03,163.41,652.16z"/>
	<path class="st0" d="M252.25,626.1l21.5-42.01c-0.79-0.04-1.59-0.08-2.38-0.13l-20.07,39.2l-2.48-7.68l16.38-32   c-0.78-0.07-1.55-0.15-2.33-0.23l-16.4,32.03l3.43,10.61l-23.62,46.15c-0.5-0.16-1.02-0.26-1.53-0.3   c-1.28-0.09-2.57,0.19-3.69,0.81c-1.12,0.61-2.08,1.57-2.7,2.79c-0.42,0.81-0.65,1.68-0.71,2.54c-0.1,1.29,0.19,2.57,0.8,3.69   c0.62,1.12,1.57,2.07,2.79,2.7c0.81,0.41,1.68,0.65,2.54,0.71c1.29,0.09,2.57-0.19,3.69-0.81c1.12-0.61,2.08-1.56,2.7-2.78   c0.42-0.81,0.65-1.68,0.71-2.54c0.09-1.29-0.2-2.58-0.81-3.7c-0.45-0.82-1.08-1.55-1.86-2.12l22.63-44.21l2.38,7.37l-6.47,12.64   c-0.28-0.08-0.57-0.13-0.86-0.14c-0.96-0.07-1.92,0.15-2.75,0.6c-0.83,0.46-1.54,1.17-2.01,2.08c-0.31,0.6-0.48,1.24-0.53,1.88   c-0.07,0.96,0.15,1.92,0.6,2.75c0.46,0.83,1.16,1.55,2.08,2.01c0.6,0.31,1.25,0.48,1.89,0.53c0.96,0.07,1.91-0.14,2.75-0.6   c0.83-0.46,1.55-1.16,2.01-2.07c0.31-0.61,0.48-1.25,0.53-1.89c0.07-0.96-0.14-1.91-0.6-2.75c-0.29-0.53-0.68-1-1.16-1.4   l6.88-13.44L252.25,626.1z M228.69,677.84c0.1,0.85-0.03,1.74-0.46,2.57c-0.28,0.55-0.66,1.01-1.1,1.38   c-0.67,0.56-1.48,0.91-2.34,1.01c-0.85,0.1-1.74-0.04-2.56-0.46c-0.56-0.28-1.02-0.66-1.39-1.11c-0.55-0.66-0.9-1.48-1.01-2.33   c-0.1-0.86,0.03-1.74,0.45-2.57c0.28-0.55,0.66-1.02,1.1-1.38c0.67-0.56,1.48-0.91,2.34-1.01c0.85-0.1,1.74,0.04,2.57,0.46   c0.55,0.28,1.01,0.66,1.39,1.1C228.24,676.17,228.59,676.99,228.69,677.84z M247.99,654.89c-0.17,0.34-0.41,0.63-0.68,0.85   c-0.41,0.34-0.92,0.56-1.45,0.63c-0.53,0.06-1.08-0.02-1.59-0.28c-0.34-0.18-0.63-0.41-0.86-0.68c-0.34-0.41-0.56-0.92-0.63-1.45   c-0.06-0.53,0.03-1.08,0.29-1.59c0.18-0.34,0.41-0.63,0.68-0.86c0.41-0.34,0.92-0.56,1.45-0.63c0.53-0.06,1.08,0.03,1.59,0.29   c0.34,0.18,0.63,0.41,0.86,0.68c0.35,0.41,0.56,0.91,0.62,1.45C248.34,653.83,248.25,654.38,247.99,654.89z"/>
	<path class="st0" d="M166.92,649.55l48.05-60.87l-1.38-11.74l2.9-3.67c-0.75-0.25-1.5-0.51-2.25-0.77l-2.99,3.78l1.38,11.73   l-47.47,60.14c-0.48-0.26-0.98-0.47-1.49-0.61c-1.29-0.36-2.65-0.32-3.9,0.08c-1.26,0.4-2.43,1.17-3.31,2.29   c-0.59,0.74-0.99,1.57-1.23,2.43c-0.35,1.29-0.32,2.65,0.08,3.91c0.4,1.26,1.17,2.42,2.28,3.3c0.74,0.59,1.57,0.99,2.43,1.23   c1.29,0.35,2.65,0.32,3.91-0.08c1.26-0.4,2.42-1.17,3.3-2.28c0.59-0.74,1-1.57,1.23-2.43c0.36-1.29,0.32-2.65-0.08-3.91   C168.08,651.16,167.59,650.29,166.92,649.55z M166.44,654.51c-0.07,0.89-0.39,1.76-0.98,2.51c-0.4,0.5-0.87,0.9-1.39,1.19   c-0.79,0.43-1.69,0.62-2.58,0.56c-0.89-0.07-1.76-0.39-2.51-0.98c-0.5-0.4-0.9-0.87-1.18-1.4c-0.44-0.78-0.63-1.68-0.56-2.57   c0.07-0.89,0.39-1.76,0.98-2.51c0.4-0.5,0.88-0.9,1.4-1.18c0.79-0.43,1.68-0.63,2.57-0.56c0.89,0.07,1.76,0.39,2.51,0.98   c0.51,0.4,0.9,0.87,1.19,1.39C166.31,652.72,166.5,653.62,166.44,654.51z"/>
	<path class="st0" d="M430.42,710.74c1.35-0.2,2.28-1.45,2.08-2.8c-0.2-1.35-1.44-2.28-2.79-2.09c-1.35,0.2-2.28,1.45-2.09,2.8   C427.82,710,429.07,710.93,430.42,710.74z"/>
	<path class="st0" d="M396.64,704.56c-0.57-1.16-1.47-2.12-2.57-2.77c-0.8-0.48-1.72-0.79-2.68-0.89l-2.72-46.2   c-0.48,0.18-0.96,0.37-1.45,0.55l-0.49,3.58l2.48,42.2c-0.52,0.11-1.01,0.29-1.47,0.51c-1.16,0.58-2.12,1.48-2.77,2.57   c-0.65,1.1-1,2.4-0.92,3.77c0.05,0.91,0.29,1.77,0.67,2.55c0.58,1.16,1.48,2.13,2.57,2.77c1.1,0.66,2.4,0.99,3.77,0.91   c0.91-0.05,1.78-0.29,2.55-0.67c1.15-0.57,2.12-1.47,2.77-2.57c0.65-1.1,1-2.4,0.91-3.77C397.27,706.2,397.03,705.33,396.64,704.56   z M394.9,708.98c-0.29,0.82-0.82,1.53-1.5,2.06s-1.52,0.85-2.45,0.9c-0.62,0.04-1.2-0.05-1.75-0.24c-0.82-0.29-1.53-0.82-2.05-1.5   c-0.52-0.68-0.86-1.52-0.91-2.44c-0.04-0.62,0.06-1.21,0.25-1.75c0.29-0.82,0.81-1.53,1.5-2.06c0.68-0.52,1.52-0.85,2.44-0.9   c0.62-0.04,1.21,0.06,1.76,0.25c0.81,0.29,1.53,0.81,2.05,1.5c0.52,0.69,0.86,1.52,0.91,2.44   C395.19,707.85,395.09,708.44,394.9,708.98z"/>
	<path class="st0" d="M136.12,616.56c-0.96,0.97-0.95,2.53,0.01,3.49s2.52,0.95,3.48-0.02c0.96-0.97,0.96-2.52-0.01-3.48   S137.08,615.59,136.12,616.56z"/>
	<path class="st0" d="M143.25,614.41l35-35.24l0.03,7.74l-10.01,10.07c-0.24-0.16-0.51-0.3-0.78-0.4c-0.9-0.36-1.87-0.44-2.8-0.26   c-0.93,0.19-1.82,0.64-2.54,1.37c-0.48,0.48-0.84,1.04-1.08,1.63c-0.36,0.9-0.44,1.87-0.26,2.8c0.18,0.93,0.64,1.83,1.37,2.55   c0.48,0.48,1.04,0.84,1.64,1.08c0.89,0.36,1.87,0.45,2.8,0.26c0.93-0.18,1.83-0.64,2.54-1.36c0.48-0.49,0.84-1.05,1.08-1.64   c0.36-0.89,0.45-1.87,0.26-2.8c-0.11-0.59-0.34-1.16-0.68-1.69l10.64-10.71l-0.03-10.83l12.94-13.03c-0.69-0.33-1.38-0.67-2.07-1   l-10.89,10.96l-0.03-8.07l5.56-5.59c-0.67-0.35-1.35-0.7-2.02-1.05l-5.72,5.75l0.04,11.15l-36.53,36.78   c-0.43-0.31-0.89-0.56-1.37-0.75c-1.2-0.48-2.51-0.6-3.76-0.35c-1.25,0.24-2.46,0.86-3.42,1.84c-0.64,0.65-1.13,1.4-1.45,2.2   c-0.48,1.2-0.6,2.51-0.36,3.76c0.25,1.25,0.86,2.45,1.84,3.42c0.64,0.64,1.4,1.13,2.2,1.45c1.2,0.48,2.51,0.6,3.76,0.35   c1.25-0.24,2.46-0.86,3.42-1.83c0.64-0.65,1.13-1.4,1.45-2.2c0.48-1.2,0.6-2.51,0.35-3.77C144.2,616.09,143.82,615.2,143.25,614.41   z M168.36,601.7c-0.1,0.52-0.35,1.02-0.75,1.43c-0.27,0.27-0.58,0.47-0.91,0.61c-0.5,0.2-1.05,0.26-1.57,0.16   c-0.53-0.1-1.02-0.35-1.43-0.75c-0.27-0.27-0.47-0.58-0.61-0.91c-0.2-0.5-0.26-1.05-0.16-1.57c0.1-0.53,0.35-1.02,0.76-1.43   c0.27-0.27,0.58-0.48,0.91-0.61c0.5-0.2,1.05-0.26,1.57-0.16c0.52,0.1,1.02,0.35,1.43,0.76c0.27,0.27,0.48,0.58,0.61,0.91   C168.42,600.63,168.47,601.17,168.36,601.7z M142.25,619.13c-0.16,0.84-0.56,1.65-1.21,2.31c-0.43,0.44-0.94,0.76-1.47,0.98   c-0.8,0.33-1.69,0.42-2.53,0.25c-0.84-0.16-1.65-0.56-2.3-1.21c-0.44-0.44-0.77-0.94-0.99-1.48c-0.33-0.79-0.41-1.68-0.25-2.52   c0.16-0.85,0.56-1.65,1.21-2.31c0.43-0.44,0.94-0.77,1.47-0.98c0.8-0.33,1.69-0.41,2.53-0.25c0.84,0.16,1.65,0.56,2.3,1.22   c0.44,0.43,0.77,0.93,0.99,1.47C142.33,617.4,142.41,618.28,142.25,619.13z"/>
	<path class="st0" d="M171.58,425.62l-68.89,16.64l4.21-6.89l62.24-15.04c-0.29-0.67-0.58-1.35-0.86-2.03l-62.76,15.16l-5.81,9.51   l-50.39,12.17c-0.21-0.49-0.46-0.94-0.77-1.35c-0.77-1.04-1.82-1.83-3.02-2.27c-1.2-0.45-2.55-0.56-3.88-0.23   c-0.89,0.21-1.7,0.6-2.39,1.11c-1.04,0.77-1.83,1.82-2.28,3.02c-0.44,1.19-0.55,2.54-0.23,3.88c0.21,0.88,0.6,1.69,1.11,2.39   c0.77,1.04,1.82,1.83,3.02,2.27c1.2,0.45,2.54,0.56,3.87,0.24c0.89-0.21,1.69-0.6,2.39-1.11c1.04-0.77,1.82-1.83,2.27-3.02   c0.33-0.87,0.47-1.83,0.4-2.79l48.28-11.66l-4.04,6.61l-13.8,3.33c-0.13-0.26-0.28-0.52-0.45-0.75c-0.58-0.77-1.36-1.36-2.25-1.69   c-0.89-0.33-1.89-0.41-2.89-0.17c-0.66,0.16-1.26,0.44-1.77,0.83c-0.77,0.58-1.36,1.36-1.69,2.25c-0.34,0.89-0.41,1.89-0.17,2.89   c0.16,0.66,0.45,1.26,0.83,1.78c0.57,0.78,1.35,1.36,2.25,1.69c0.89,0.34,1.89,0.41,2.88,0.18c0.67-0.16,1.26-0.45,1.78-0.83   c0.78-0.57,1.36-1.35,1.69-2.25c0.21-0.56,0.32-1.17,0.31-1.8l14.67-3.54l5.65-9.24l71.51-17.27   C172.25,426.95,171.91,426.28,171.58,425.62z M47.61,458.47c-0.14,0.86-0.54,1.65-1.11,2.28c-0.58,0.63-1.34,1.11-2.24,1.33   c-0.6,0.14-1.2,0.16-1.77,0.06c-0.86-0.14-1.65-0.53-2.29-1.11c-0.63-0.58-1.11-1.34-1.32-2.24c-0.15-0.61-0.16-1.2-0.07-1.78   c0.14-0.85,0.53-1.65,1.11-2.28c0.59-0.64,1.34-1.11,2.24-1.33c0.6-0.14,1.2-0.16,1.77-0.06c0.86,0.14,1.66,0.53,2.29,1.11   c0.63,0.58,1.11,1.34,1.32,2.25C47.68,457.3,47.7,457.9,47.61,458.47z M78.56,458.19c-0.08,0.53-0.33,1.02-0.69,1.41   c-0.36,0.39-0.83,0.69-1.39,0.82c-0.37,0.09-0.74,0.1-1.09,0.04c-0.53-0.09-1.03-0.33-1.42-0.69c-0.4-0.36-0.69-0.83-0.82-1.39   c-0.09-0.38-0.1-0.74-0.04-1.1c0.09-0.53,0.33-1.03,0.69-1.42c0.36-0.39,0.83-0.68,1.39-0.82c0.38-0.09,0.74-0.1,1.1-0.04   c0.53,0.09,1.03,0.33,1.42,0.69c0.39,0.36,0.68,0.83,0.82,1.39C78.61,457.47,78.62,457.83,78.56,458.19z"/>
	<path class="st0" d="M87.83,477.6c0.11-0.88,0.24-1.75,0.41-2.61l-21.4,10.2c-1.11-1.24-2.95-1.66-4.52-0.91   c-1.92,0.92-2.74,3.22-1.82,5.14c0.92,1.92,3.22,2.73,5.14,1.82c1.58-0.75,2.41-2.44,2.15-4.09L87.83,477.6z"/>
	<path class="st0" d="M115.38,409.4l47.61-6.74c-0.19-0.73-0.38-1.46-0.55-2.19l-48.29,6.84l-7.1,9.44l-75.86,10.74   c-0.17-0.52-0.38-1.01-0.66-1.47c-0.69-1.15-1.69-2.06-2.88-2.64c-1.19-0.58-2.57-0.83-3.97-0.63c-0.94,0.13-1.8,0.45-2.57,0.91   c-1.15,0.69-2.06,1.7-2.64,2.89c-0.58,1.19-0.82,2.56-0.62,3.96c0.13,0.94,0.45,1.81,0.91,2.57c0.69,1.15,1.69,2.06,2.89,2.64   c1.19,0.58,2.56,0.82,3.96,0.62c0.94-0.13,1.81-0.45,2.57-0.91c1.15-0.69,2.06-1.69,2.64-2.88c0.42-0.87,0.67-1.84,0.69-2.84   l76.78-10.87L115.38,409.4z M29.09,430.73c-0.23,0.87-0.72,1.65-1.37,2.25c-0.66,0.6-1.49,1-2.44,1.14   c-0.63,0.09-1.25,0.05-1.83-0.1c-0.87-0.23-1.65-0.72-2.25-1.37s-1-1.49-1.14-2.44c-0.09-0.63-0.05-1.25,0.11-1.83   c0.22-0.87,0.71-1.65,1.37-2.25c0.67-0.6,1.49-1,2.44-1.14c0.63-0.09,1.25-0.04,1.83,0.11c0.87,0.23,1.65,0.71,2.25,1.37   c0.6,0.67,1,1.49,1.14,2.44C29.28,429.54,29.24,430.15,29.09,430.73z"/>
	<path class="st0" d="M42.62,455.35c-1.32,0.32-2.14,1.65-1.82,2.98c0.32,1.32,1.65,2.13,2.98,1.81c1.32-0.32,2.14-1.65,1.82-2.97   C45.28,455.85,43.94,455.03,42.62,455.35z"/>
	<path class="st0" d="M70.3,552.87c-1.22,0.7-1.64,2.26-0.94,3.48s2.26,1.64,3.48,0.94c1.22-0.7,1.64-2.26,0.94-3.48   C73.08,552.59,71.52,552.17,70.3,552.87z"/>
	<path class="st0" d="M122.34,587.39l44.42-38.46c-0.63-0.42-1.26-0.83-1.88-1.25l-43.96,38.06c-0.4-0.34-0.84-0.62-1.3-0.85   c-1.17-0.57-2.46-0.78-3.73-0.63c-1.27,0.15-2.51,0.67-3.55,1.57c-0.69,0.6-1.23,1.31-1.61,2.08c-0.57,1.17-0.79,2.47-0.63,3.73   c0.15,1.27,0.67,2.51,1.57,3.54c0.6,0.69,1.31,1.23,2.09,1.62c1.16,0.57,2.46,0.79,3.72,0.63c1.27-0.15,2.51-0.67,3.55-1.58   c0.69-0.59,1.23-1.31,1.61-2.08c0.57-1.16,0.79-2.46,0.63-3.72C123.15,589.13,122.84,588.22,122.34,587.39z M120.98,592.02   c-0.23,0.83-0.68,1.6-1.38,2.21c-0.47,0.41-1,0.69-1.54,0.87c-0.83,0.27-1.72,0.28-2.55,0.06s-1.6-0.69-2.21-1.39   c-0.4-0.47-0.69-0.99-0.87-1.54c-0.27-0.83-0.28-1.71-0.06-2.54c0.22-0.83,0.68-1.6,1.38-2.21c0.47-0.4,0.99-0.69,1.54-0.87   c0.83-0.27,1.71-0.29,2.55-0.06c0.83,0.22,1.6,0.69,2.2,1.38c0.41,0.47,0.69,1,0.87,1.55C121.18,590.3,121.21,591.19,120.98,592.02   z"/>
	<path class="st0" d="M437.29,673.25c-0.5-0.82-1.22-1.48-2.08-1.89c-0.54-0.26-1.14-0.42-1.76-0.47l-2.18-14.94l-8.68-6.48   l-1.33-9.12c-0.68,0.35-1.36,0.7-2.05,1.04l0.91,6.24l-5.4-4.03c-0.74,0.36-1.47,0.72-2.21,1.06l8.06,6.01l7.47,51.3   c-0.5,0.16-0.98,0.38-1.42,0.65c-1.1,0.67-1.99,1.65-2.54,2.79c-0.56,1.15-0.79,2.48-0.58,3.84c0.13,0.91,0.44,1.74,0.89,2.48   c0.67,1.11,1.65,1.99,2.8,2.54c1.15,0.55,2.48,0.78,3.84,0.58c0.9-0.13,1.74-0.45,2.48-0.89c1.11-0.67,1.99-1.65,2.54-2.8   c0.56-1.15,0.79-2.48,0.59-3.83c-0.13-0.91-0.45-1.74-0.89-2.48c-0.68-1.11-1.65-1.99-2.8-2.54c-0.84-0.41-1.78-0.64-2.75-0.65   l-7.16-49.15l6.21,4.63l2.05,14.05c-0.27,0.1-0.54,0.23-0.79,0.38c-0.82,0.5-1.48,1.23-1.89,2.08c-0.41,0.85-0.58,1.84-0.43,2.86   c0.1,0.67,0.33,1.29,0.66,1.84c0.5,0.82,1.23,1.48,2.08,1.9c0.85,0.42,1.85,0.59,2.86,0.44c0.67-0.1,1.29-0.33,1.85-0.67   c0.83-0.5,1.48-1.22,1.89-2.08c0.42-0.86,0.59-1.85,0.44-2.85C437.86,674.42,437.62,673.79,437.29,673.25z M431.19,703.98   c0.84,0.22,1.59,0.69,2.17,1.32c0.58,0.63,0.98,1.44,1.12,2.36c0.09,0.61,0.04,1.21-0.1,1.77c-0.22,0.84-0.68,1.6-1.32,2.18   c-0.64,0.58-1.44,0.98-2.35,1.11c-0.62,0.09-1.21,0.05-1.77-0.1c-0.83-0.21-1.59-0.68-2.17-1.31c-0.58-0.64-0.98-1.44-1.12-2.36   c-0.09-0.61-0.05-1.21,0.1-1.77c0.22-0.84,0.69-1.6,1.32-2.18c0.63-0.58,1.44-0.98,2.36-1.11   C430.03,703.8,430.63,703.83,431.19,703.98z M435.74,676.5c-0.14,0.52-0.42,0.99-0.82,1.35c-0.4,0.36-0.89,0.61-1.46,0.69   c-0.38,0.06-0.75,0.03-1.1-0.06c-0.52-0.14-0.99-0.42-1.35-0.82c-0.36-0.4-0.6-0.89-0.69-1.46c-0.06-0.38-0.03-0.75,0.06-1.1   c0.14-0.52,0.42-0.99,0.82-1.35c0.39-0.36,0.89-0.6,1.46-0.69c0.38-0.06,0.75-0.03,1.1,0.06c0.52,0.13,0.99,0.42,1.35,0.82   c0.36,0.39,0.61,0.89,0.69,1.46C435.86,675.78,435.83,676.16,435.74,676.5z"/>
	<path class="st0" d="M132.89,521.15c-0.55-0.55-1.08-1.11-1.62-1.67l-54.39,31.26c-0.35-0.42-0.73-0.8-1.16-1.12   c-1.06-0.81-2.34-1.28-3.65-1.38c-1.32-0.1-2.69,0.19-3.92,0.89c-0.82,0.47-1.51,1.09-2.05,1.8c-0.81,1.07-1.28,2.35-1.38,3.66   c-0.09,1.32,0.19,2.68,0.9,3.91c0.47,0.82,1.09,1.51,1.8,2.05c1.07,0.81,2.34,1.28,3.66,1.38c1.32,0.1,2.68-0.19,3.91-0.9   c0.82-0.47,1.51-1.09,2.05-1.8c0.81-1.06,1.28-2.34,1.38-3.66c0.07-0.96-0.06-1.95-0.42-2.89L132.89,521.15z M75.72,557.12   c-0.39,0.8-1.01,1.49-1.85,1.97c-0.55,0.32-1.14,0.51-1.73,0.58c-0.89,0.11-1.8-0.05-2.6-0.44c-0.8-0.39-1.49-1.01-1.97-1.85   c-0.32-0.55-0.51-1.14-0.58-1.74c-0.11-0.89,0.04-1.8,0.43-2.59c0.4-0.8,1.01-1.49,1.85-1.97c0.55-0.32,1.15-0.51,1.74-0.58   c0.89-0.11,1.8,0.04,2.59,0.43c0.8,0.4,1.49,1.01,1.97,1.85c0.32,0.56,0.51,1.14,0.58,1.73C76.27,555.41,76.11,556.32,75.72,557.12   z"/>
	<path class="st0" d="M619.96,608.91c-0.63-0.66-1.37-1.16-2.16-1.51c-1.19-0.51-2.5-0.66-3.76-0.45c-0.92,0.16-1.82,0.51-2.62,1.06   l-7.75-8.12l-1.13,1.96l7.31,7.66c-0.32,0.42-0.58,0.87-0.78,1.35c-0.51,1.18-0.67,2.49-0.45,3.75c0.21,1.26,0.8,2.48,1.75,3.47   c0.63,0.66,1.37,1.17,2.16,1.51c1.19,0.52,2.49,0.67,3.75,0.46c1.26-0.22,2.47-0.8,3.47-1.75c0.66-0.63,1.16-1.37,1.51-2.16   c0.51-1.19,0.67-2.49,0.45-3.75C621.49,611.12,620.91,609.9,619.96,608.91z M619.52,614.45c-0.18,0.84-0.61,1.63-1.27,2.27   c-0.45,0.43-0.96,0.74-1.5,0.95c-0.8,0.31-1.69,0.37-2.53,0.19c-0.84-0.19-1.64-0.6-2.28-1.27c-0.43-0.45-0.74-0.96-0.94-1.5   c-0.31-0.81-0.37-1.7-0.19-2.54c0.18-0.84,0.61-1.63,1.28-2.27c0.45-0.43,0.95-0.74,1.49-0.95c0.81-0.31,1.7-0.36,2.54-0.18   c0.84,0.18,1.63,0.6,2.28,1.28c0.43,0.45,0.74,0.96,0.94,1.5C619.64,612.72,619.71,613.61,619.52,614.45z"/>
	<path class="st0" d="M680.7,522.9c-0.8-0.44-1.66-0.69-2.52-0.78c-1.29-0.13-2.58,0.13-3.72,0.71c-0.83,0.43-1.58,1.04-2.17,1.8   l-19.13-10.44l-1.09,1.88l19.18,10.47c-0.17,0.5-0.29,1.01-0.34,1.52c-0.13,1.28,0.12,2.58,0.71,3.71   c0.58,1.14,1.51,2.12,2.72,2.77c0.8,0.44,1.66,0.7,2.52,0.78c1.29,0.13,2.58-0.12,3.71-0.71c1.13-0.59,2.11-1.51,2.77-2.72   c0.44-0.8,0.69-1.66,0.78-2.52c0.13-1.29-0.12-2.58-0.72-3.71C682.82,524.54,681.9,523.55,680.7,522.9z M681.43,530.86   c-0.3,0.55-0.69,1-1.14,1.36c-0.67,0.54-1.5,0.87-2.35,0.95c-0.86,0.08-1.74-0.08-2.56-0.52c-0.54-0.3-1-0.69-1.35-1.14   c-0.54-0.68-0.87-1.51-0.95-2.36c-0.08-0.86,0.08-1.74,0.53-2.55c0.3-0.54,0.68-0.99,1.13-1.36c0.68-0.54,1.5-0.86,2.36-0.94   c0.85-0.08,1.74,0.08,2.56,0.52c0.54,0.3,0.99,0.69,1.35,1.14c0.54,0.68,0.87,1.5,0.95,2.36   C682.04,529.17,681.87,530.05,681.43,530.86z"/>
	<path class="st0" d="M645.03,593.74c-0.92,1.06-0.81,2.68,0.25,3.6c1.06,0.92,2.68,0.81,3.6-0.25s0.81-2.68-0.25-3.6   C647.57,592.57,645.96,592.68,645.03,593.74z"/>
	<path class="st0" d="M678.7,526.56c-1.2-0.65-2.69-0.22-3.34,0.98c-0.65,1.2-0.21,2.69,0.98,3.35c1.2,0.65,2.69,0.21,3.35-0.98   C680.33,528.71,679.89,527.21,678.7,526.56z"/>
	<path class="st0" d="M651.46,590.23c-0.71-0.62-1.52-1.07-2.37-1.34c-1.27-0.42-2.63-0.45-3.91-0.11c-0.93,0.25-1.82,0.7-2.59,1.34   l-22.16-19.24l-1.15,1.99l21.83,18.96c-0.28,0.47-0.51,0.96-0.68,1.46c-0.42,1.27-0.45,2.63-0.1,3.9c0.34,1.28,1.06,2.48,2.13,3.41   c0.71,0.62,1.53,1.07,2.37,1.34c1.28,0.41,2.64,0.44,3.91,0.1c1.27-0.34,2.47-1.06,3.4-2.13c0.62-0.71,1.07-1.53,1.34-2.37   c0.41-1.28,0.45-2.63,0.1-3.91C653.25,592.35,652.53,591.16,651.46,590.23z M651.54,595.98c-0.11,0.88-0.47,1.74-1.1,2.46   c-0.42,0.48-0.91,0.85-1.45,1.12c-0.8,0.4-1.71,0.55-2.59,0.44c-0.89-0.11-1.74-0.47-2.46-1.1c-0.48-0.42-0.85-0.92-1.12-1.45   c-0.4-0.81-0.55-1.71-0.44-2.59c0.11-0.89,0.47-1.74,1.1-2.46c0.42-0.49,0.91-0.86,1.45-1.12c0.81-0.39,1.72-0.54,2.6-0.44   c0.88,0.11,1.74,0.47,2.46,1.1c0.48,0.42,0.85,0.91,1.12,1.45C651.5,594.19,651.65,595.1,651.54,595.98z"/>
	<path class="st0" d="M692.18,487.17c-0.74-1.05-1.79-1.89-3.08-2.37c-0.85-0.33-1.74-0.46-2.6-0.42c-1.29,0.05-2.53,0.48-3.57,1.22   c-0.76,0.54-1.42,1.25-1.9,2.09l-30.8-11.61l5.82,4.52l24.21,9.12c-0.11,0.52-0.15,1.04-0.13,1.55c0.06,1.3,0.49,2.54,1.22,3.58   c0.74,1.05,1.79,1.89,3.07,2.37c0.86,0.32,1.74,0.45,2.6,0.42c1.3-0.05,2.54-0.48,3.58-1.22c1.04-0.74,1.88-1.79,2.37-3.07   c0.32-0.86,0.46-1.74,0.42-2.61C693.34,489.46,692.91,488.21,692.18,487.17z M690.93,492.59c-0.22,0.58-0.54,1.08-0.94,1.5   c-0.6,0.63-1.37,1.06-2.21,1.26c-0.84,0.2-1.74,0.16-2.6-0.16c-0.58-0.22-1.08-0.54-1.5-0.94c-0.63-0.6-1.07-1.37-1.27-2.21   c-0.2-0.84-0.16-1.73,0.17-2.6c0.22-0.58,0.55-1.08,0.94-1.51c0.6-0.62,1.36-1.06,2.2-1.26c0.84-0.2,1.73-0.16,2.6,0.16   c0.58,0.22,1.08,0.55,1.5,0.94c0.63,0.6,1.07,1.37,1.27,2.21S691.26,491.72,690.93,492.59z"/>
	<path class="st0" d="M451.88,655.28l-7.88-27.84c-0.64,0.4-1.28,0.8-1.92,1.2l7.71,27.22c-1.41,0.88-2.14,2.62-1.67,4.31   c0.57,2.05,2.7,3.24,4.75,2.67c2.05-0.57,3.24-2.7,2.67-4.75C455.06,656.4,453.54,655.3,451.88,655.28z"/>
	<path class="st0" d="M732.78,341.58c-0.58-1.21-1.49-2.21-2.63-2.9c-1.13-0.69-2.47-1.06-3.89-0.99c-0.95,0.04-1.84,0.28-2.64,0.66   c-1.21,0.58-2.21,1.49-2.9,2.62c-0.5,0.82-0.84,1.77-0.95,2.76l-77.47,3.63l-7.96,8.74l-48.23,2.26c0.03,0.75,0.04,1.5,0.07,2.24   l49.2-2.31l7.96-8.73l76.53-3.59c0.12,0.53,0.29,1.05,0.52,1.53c0.58,1.21,1.49,2.21,2.62,2.9c1.13,0.69,2.48,1.06,3.89,1   c0.95-0.04,1.84-0.28,2.64-0.66c1.21-0.58,2.21-1.5,2.9-2.63c0.68-1.13,1.06-2.47,0.99-3.89   C733.4,343.28,733.16,342.38,732.78,341.58z M730.92,346.14c-0.3,0.84-0.86,1.58-1.57,2.11c-0.72,0.53-1.58,0.86-2.54,0.91   c-0.64,0.03-1.25-0.07-1.81-0.28c-0.84-0.31-1.58-0.86-2.11-1.57c-0.53-0.72-0.86-1.58-0.91-2.54c-0.03-0.64,0.07-1.25,0.27-1.81   c0.31-0.84,0.87-1.58,1.58-2.11c0.71-0.53,1.58-0.86,2.54-0.91c0.64-0.03,1.25,0.07,1.81,0.27c0.84,0.31,1.58,0.87,2.11,1.58   s0.86,1.58,0.91,2.54C731.23,344.96,731.13,345.57,730.92,346.14z"/>
	<path class="st0" d="M716.45,473.54c-0.79-1.06-1.9-1.9-3.24-2.36c-0.89-0.31-1.81-0.43-2.7-0.37c-1.34,0.09-2.61,0.56-3.67,1.35   c-0.77,0.58-1.43,1.33-1.91,2.21l-73.26-25.43l-10.1,4.9l1.98,1.54l8.27-4l72.38,25.13c-0.09,0.54-0.12,1.08-0.08,1.61   c0.09,1.34,0.56,2.61,1.36,3.66c0.79,1.06,1.91,1.91,3.24,2.37c0.89,0.31,1.81,0.42,2.7,0.37c1.34-0.09,2.61-0.57,3.67-1.36   c1.05-0.79,1.9-1.9,2.36-3.24c0.31-0.89,0.42-1.81,0.37-2.7C717.72,475.87,717.25,474.6,716.45,473.54z M715.32,479.17   c-0.21,0.6-0.53,1.13-0.93,1.58c-0.6,0.67-1.38,1.14-2.24,1.37c-0.87,0.23-1.79,0.21-2.69-0.1c-0.6-0.21-1.14-0.54-1.58-0.93   c-0.67-0.6-1.14-1.38-1.37-2.24c-0.23-0.87-0.21-1.79,0.1-2.69c0.21-0.61,0.53-1.14,0.93-1.58c0.6-0.67,1.39-1.14,2.25-1.37   c0.86-0.23,1.79-0.21,2.7,0.1c0.6,0.21,1.13,0.53,1.58,0.93c0.67,0.6,1.14,1.39,1.37,2.25   C715.65,477.33,715.64,478.26,715.32,479.17z"/>
	<path class="st0" d="M711.8,475.25c-1.33-0.46-2.79,0.24-3.25,1.57c-0.46,1.33,0.24,2.79,1.57,3.25c1.33,0.46,2.79-0.24,3.25-1.57   C713.84,477.16,713.13,475.71,711.8,475.25z"/>
	<path class="st0" d="M726.47,341.99c-1.41,0.07-2.5,1.26-2.43,2.67c0.07,1.41,1.26,2.5,2.67,2.43c1.41-0.07,2.5-1.26,2.43-2.67   C729.07,343.02,727.88,341.93,726.47,341.99z"/>
	<path class="st0" d="M499.39,698.8c-0.88-1.01-2.04-1.72-3.31-2.08c-0.93-0.26-1.93-0.33-2.92-0.17l-24.47-73.59l-10.27-5.15   c-0.69,0.49-1.38,0.98-2.08,1.47l10.51,5.27l24.17,72.7c-0.48,0.26-0.93,0.56-1.33,0.91c-1.01,0.88-1.72,2.04-2.08,3.31   c-0.36,1.27-0.35,2.67,0.09,4.02c0.3,0.9,0.77,1.69,1.35,2.36c0.89,1.01,2.04,1.72,3.32,2.08c1.27,0.35,2.66,0.35,4.01-0.1   c0.9-0.3,1.69-0.77,2.36-1.35c1-0.89,1.72-2.04,2.08-3.32c0.36-1.27,0.35-2.66-0.1-4.01C500.44,700.27,499.98,699.47,499.39,698.8z    M497.89,706.15c-0.54,0.7-1.29,1.26-2.2,1.56c-0.6,0.2-1.22,0.27-1.82,0.22c-0.89-0.07-1.75-0.4-2.46-0.94   c-0.71-0.55-1.26-1.29-1.56-2.2c-0.2-0.61-0.27-1.23-0.22-1.82c0.07-0.9,0.4-1.75,0.94-2.46c0.55-0.71,1.29-1.26,2.2-1.56   c0.61-0.2,1.22-0.27,1.82-0.23c0.9,0.07,1.75,0.41,2.46,0.95c0.7,0.54,1.26,1.29,1.56,2.2c0.2,0.61,0.27,1.22,0.23,1.82   C498.76,704.59,498.43,705.44,497.89,706.15z"/>
	<path class="st0" d="M508.6,674.92c-0.93-0.9-2.1-1.49-3.36-1.73c-0.92-0.17-1.88-0.16-2.82,0.08l-28.82-66.96   c-0.58,0.47-1.17,0.94-1.76,1.41l28.58,66.41c-0.45,0.28-0.85,0.62-1.21,0.98c-0.89,0.94-1.49,2.11-1.73,3.36   c-0.24,1.26-0.12,2.6,0.42,3.86c0.36,0.84,0.88,1.57,1.5,2.17c0.94,0.89,2.11,1.5,3.36,1.73c1.26,0.24,2.6,0.12,3.85-0.43   c0.84-0.36,1.57-0.88,2.17-1.5c0.89-0.93,1.49-2.1,1.73-3.36c0.24-1.26,0.12-2.6-0.43-3.86   C509.75,676.25,509.22,675.52,508.6,674.92z M507.76,682.13c-0.46,0.72-1.14,1.32-1.99,1.68c-0.57,0.24-1.15,0.36-1.73,0.37   c-0.87,0-1.72-0.25-2.44-0.71c-0.72-0.46-1.32-1.14-1.69-1.99c-0.24-0.57-0.36-1.15-0.36-1.73c0-0.87,0.24-1.72,0.71-2.45   c0.46-0.72,1.14-1.32,1.98-1.68c0.57-0.25,1.16-0.36,1.74-0.36c0.86,0,1.71,0.24,2.44,0.71c0.73,0.47,1.32,1.14,1.69,1.99   c0.25,0.57,0.36,1.16,0.36,1.73C508.48,680.55,508.22,681.4,507.76,682.13z"/>
	<path class="st0" d="M24.27,427.02c-1.4,0.2-2.37,1.49-2.17,2.88s1.49,2.37,2.88,2.17c1.4-0.2,2.37-1.49,2.17-2.88   C26.95,427.79,25.66,426.82,24.27,427.02z"/>
	<path class="st0" d="M493.42,700.91c-1.34,0.44-2.06,1.89-1.62,3.23c0.44,1.34,1.89,2.06,3.23,1.62c1.34-0.44,2.06-1.89,1.62-3.23   C496.21,701.19,494.76,700.46,493.42,700.91z"/>
	<path class="st0" d="M528.91,673.08c-1.22,0.6-1.73,2.07-1.14,3.3c0.6,1.22,2.07,1.73,3.3,1.14s1.73-2.07,1.13-3.3   C531.61,673,530.14,672.49,528.91,673.08z"/>
	<path class="st0" d="M613.46,611.71c-0.99,0.94-1.02,2.5-0.08,3.49c0.94,0.99,2.5,1.02,3.49,0.08c0.99-0.94,1.02-2.5,0.08-3.48   C616,610.81,614.45,610.77,613.46,611.71z"/>
	<path class="st0" d="M534.36,670.3c-0.98-0.85-2.18-1.39-3.44-1.57c-0.92-0.13-1.89-0.07-2.82,0.21l-21.76-44.65l7.32,2.52   l6.22,12.76c-0.23,0.18-0.45,0.38-0.63,0.6c-0.63,0.73-1.03,1.62-1.17,2.56c-0.13,0.94,0.01,1.93,0.46,2.85   c0.3,0.61,0.7,1.13,1.19,1.55c0.73,0.63,1.62,1.04,2.56,1.17c0.94,0.14,1.94,0,2.86-0.45c0.61-0.3,1.13-0.71,1.56-1.2   c0.63-0.72,1.04-1.61,1.17-2.56c0.14-0.94,0-1.94-0.45-2.85c-0.3-0.62-0.71-1.14-1.2-1.56c-0.72-0.63-1.61-1.04-2.56-1.17   c-0.59-0.09-1.21-0.06-1.82,0.09l-6.61-13.57L505,621.53l-4.75-9.74l-3.02-1.23l4.86,9.97l-7.63-2.63l-5.16-10.58l-3.02-1.23   l6.62,13.58l10.54,3.63l22.71,46.6c-0.43,0.31-0.82,0.66-1.16,1.05c-0.85,0.97-1.39,2.17-1.57,3.43c-0.18,1.27,0,2.61,0.61,3.83   c0.4,0.82,0.95,1.53,1.6,2.09c0.97,0.85,2.17,1.39,3.44,1.57c1.26,0.18,2.6-0.01,3.83-0.61c0.82-0.4,1.53-0.95,2.09-1.6   c0.85-0.98,1.39-2.17,1.57-3.44c0.18-1.27,0-2.6-0.6-3.83C535.56,671.57,535,670.87,534.36,670.3z M520.58,642.05   c0.27-0.46,0.67-0.84,1.18-1.1c0.35-0.17,0.7-0.26,1.06-0.28c0.53-0.03,1.07,0.1,1.53,0.37c0.46,0.27,0.85,0.66,1.1,1.18   c0.17,0.34,0.25,0.71,0.27,1.06c0.03,0.54-0.1,1.08-0.37,1.54c-0.27,0.46-0.66,0.85-1.18,1.1c-0.35,0.17-0.71,0.25-1.06,0.28   c-0.54,0.03-1.08-0.1-1.54-0.37c-0.46-0.27-0.85-0.67-1.1-1.18c-0.17-0.35-0.26-0.7-0.28-1.06   C520.19,643.05,520.32,642.51,520.58,642.05z M533.85,677.54c-0.43,0.74-1.07,1.37-1.9,1.77c-0.56,0.27-1.14,0.42-1.72,0.45   c-0.86,0.05-1.72-0.16-2.47-0.59c-0.75-0.43-1.37-1.07-1.78-1.91c-0.27-0.55-0.41-1.14-0.44-1.71c-0.05-0.87,0.17-1.73,0.59-2.48   c0.43-0.74,1.07-1.37,1.91-1.77c0.55-0.27,1.13-0.42,1.71-0.45c0.87-0.05,1.73,0.17,2.47,0.6c0.74,0.43,1.37,1.07,1.78,1.91   c0.27,0.55,0.41,1.13,0.44,1.71C534.49,675.93,534.29,676.79,533.85,677.54z"/>
	<path class="st0" d="M596.47,622.35c-0.59-0.69-1.31-1.23-2.08-1.61c-0.75-0.37-1.56-0.58-2.38-0.64l-1.27,2.2   c0.62-0.1,1.27-0.07,1.88,0.09c0.83,0.23,1.6,0.68,2.21,1.39c0.41,0.47,0.69,1,0.87,1.54c0.27,0.83,0.28,1.72,0.06,2.55   c-0.22,0.83-0.69,1.6-1.39,2.21c-0.47,0.4-0.99,0.69-1.54,0.87c-0.83,0.27-1.71,0.28-2.54,0.06c-0.83-0.22-1.6-0.68-2.21-1.39   c-0.35-0.41-0.6-0.87-0.78-1.35l-1.28,2.21c0.13,0.19,0.26,0.38,0.41,0.56c0.6,0.69,1.31,1.23,2.08,1.61   c1.16,0.57,2.47,0.79,3.73,0.64c1.27-0.15,2.51-0.67,3.54-1.57c0.69-0.6,1.23-1.31,1.62-2.09c0.57-1.16,0.79-2.46,0.64-3.72   C597.9,624.63,597.38,623.39,596.47,622.35z"/>
	<path class="st0" d="M558.99,648.26c-1.07-0.72-2.33-1.11-3.6-1.13c-0.93-0.01-1.88,0.17-2.77,0.56l-12.92-19.78l-3.54-1.45   l14.65,22.42c-0.39,0.35-0.73,0.75-1.02,1.18c-0.72,1.08-1.11,2.33-1.12,3.61c-0.02,1.28,0.33,2.58,1.07,3.73   c0.5,0.77,1.14,1.39,1.85,1.88c1.08,0.72,2.34,1.11,3.61,1.13c1.28,0.02,2.58-0.33,3.72-1.08c0.77-0.5,1.4-1.13,1.88-1.85   c0.72-1.07,1.11-2.33,1.13-3.6c0.02-1.28-0.33-2.58-1.08-3.73C560.35,649.37,559.71,648.74,558.99,648.26z M559.4,655.5   c-0.33,0.79-0.9,1.49-1.67,2c-0.52,0.34-1.07,0.55-1.64,0.66c-0.85,0.15-1.73,0.05-2.53-0.28c-0.79-0.33-1.5-0.89-2.01-1.67   c-0.34-0.52-0.55-1.07-0.65-1.65c-0.15-0.85-0.06-1.74,0.28-2.53c0.33-0.79,0.9-1.49,1.67-2c0.52-0.34,1.08-0.55,1.65-0.66   c0.85-0.15,1.73-0.05,2.52,0.28c0.8,0.34,1.5,0.89,2.01,1.67c0.34,0.52,0.55,1.08,0.65,1.65   C559.84,653.82,559.73,654.71,559.4,655.5z"/>
	<path class="st0" d="M22.17,376.65c1.25-0.48,2.32-1.32,3.09-2.4c0.56-0.78,0.97-1.7,1.15-2.68l77.52,2.15l8.59-8.12l43.07,1.19   c-0.05-0.75-0.13-1.5-0.22-2.25l-43.72-1.21l-8.59,8.12l-76.59-2.12c-0.08-0.54-0.21-1.06-0.41-1.56c-0.48-1.25-1.32-2.32-2.4-3.08   c-1.07-0.77-2.39-1.24-3.81-1.28c-0.95-0.03-1.86,0.14-2.69,0.47c-1.25,0.49-2.32,1.33-3.09,2.4c-0.77,1.07-1.24,2.39-1.28,3.8   c-0.03,0.95,0.15,1.86,0.47,2.69c0.49,1.25,1.32,2.32,2.4,3.09c1.07,0.77,2.39,1.24,3.8,1.28   C20.44,377.14,21.34,376.98,22.17,376.65z M15.78,372.73c-0.48-0.75-0.74-1.64-0.71-2.6c0.02-0.64,0.16-1.24,0.41-1.78   c0.37-0.82,0.97-1.51,1.72-1.99c0.76-0.48,1.64-0.74,2.6-0.71c0.64,0.02,1.24,0.17,1.78,0.41c0.82,0.37,1.51,0.97,1.99,1.72   c0.48,0.76,0.74,1.64,0.71,2.6c-0.02,0.64-0.16,1.24-0.41,1.78c-0.37,0.82-0.98,1.51-1.73,1.99c-0.75,0.48-1.64,0.74-2.6,0.71   c-0.64-0.02-1.24-0.16-1.78-0.41C16.95,374.09,16.26,373.48,15.78,372.73z"/>
	<path class="st0" d="M504.3,80.63c0.23,0.11,0.47,0.16,0.71,0.19c0.08,0.01,0.16,0.03,0.24,0.03c0.96,0.02,1.89-0.52,2.31-1.45   c0.28-0.62,0.28-1.29,0.06-1.88s-0.67-1.1-1.29-1.38c-0.31-0.14-0.63-0.21-0.96-0.22c-0.96-0.02-1.89,0.52-2.31,1.44   C502.51,78.61,503.06,80.07,504.3,80.63z"/>
	<path class="st0" d="M514.02,98.87l-7.58,13.05l2.77,10.47l-2.65,4.56l3.3-1.35l0.14-0.23l0.04,0.16l2.03-0.83l-0.53-1.99   l26.03-44.83c0.5,0.19,1,0.31,1.51,0.38c1.28,0.16,2.58-0.05,3.73-0.61c1.15-0.55,2.16-1.46,2.84-2.64   c0.46-0.79,0.74-1.64,0.85-2.49c0.17-1.28-0.05-2.58-0.61-3.73c-0.56-1.15-1.45-2.15-2.64-2.84c-0.79-0.46-1.64-0.73-2.5-0.85   c-1.29-0.16-2.58,0.05-3.73,0.62c-1.15,0.55-2.16,1.45-2.85,2.63c-0.46,0.79-0.73,1.64-0.85,2.5c-0.16,1.29,0.06,2.58,0.61,3.73   c0.41,0.84,1,1.61,1.74,2.22l-24.94,42.95l-1.99-7.49l7.13-12.28c0.28,0.09,0.57,0.16,0.85,0.19c0.96,0.12,1.92-0.04,2.78-0.45   c0.85-0.41,1.6-1.08,2.12-1.97c0.34-0.59,0.55-1.22,0.63-1.85c0.12-0.96-0.04-1.92-0.45-2.78c-0.41-0.86-1.08-1.61-1.97-2.12   c-0.59-0.34-1.22-0.54-1.86-0.63c-0.96-0.12-1.92,0.04-2.77,0.46c-0.86,0.41-1.61,1.08-2.12,1.96c-0.34,0.59-0.55,1.23-0.63,1.86   c-0.12,0.96,0.04,1.92,0.46,2.78C513.2,97.95,513.57,98.45,514.02,98.87z M535.48,71.96c-0.06-0.86,0.12-1.74,0.59-2.54   c0.31-0.53,0.71-0.97,1.18-1.32c0.69-0.52,1.52-0.83,2.39-0.89c0.86-0.06,1.73,0.13,2.53,0.59c0.54,0.31,0.98,0.71,1.33,1.18   c0.52,0.69,0.82,1.52,0.88,2.38c0.06,0.86-0.12,1.74-0.59,2.54c-0.31,0.53-0.72,0.98-1.18,1.32c-0.69,0.52-1.53,0.83-2.39,0.89   c-0.86,0.06-1.73-0.13-2.54-0.6c-0.53-0.31-0.98-0.71-1.33-1.17C535.84,73.65,535.54,72.82,535.48,71.96z M514.99,93.86   c0.19-0.33,0.44-0.6,0.73-0.82c0.43-0.32,0.95-0.51,1.48-0.55c0.54-0.03,1.08,0.08,1.57,0.37c0.33,0.19,0.6,0.44,0.82,0.73   c0.32,0.43,0.51,0.95,0.55,1.48c0.03,0.54-0.08,1.07-0.37,1.57c-0.19,0.33-0.44,0.61-0.73,0.82c-0.43,0.32-0.95,0.51-1.48,0.55   c-0.53,0.04-1.07-0.08-1.57-0.37c-0.33-0.19-0.61-0.44-0.82-0.73c-0.33-0.42-0.51-0.94-0.55-1.48   C514.59,94.9,514.7,94.36,514.99,93.86z"/>
	<path class="st0" d="M538.69,73.8c1.18,0.68,2.69,0.28,3.37-0.89c0.68-1.18,0.28-2.69-0.89-3.37c-1.18-0.68-2.68-0.28-3.37,0.9   C537.12,71.61,537.51,73.11,538.69,73.8z"/>
	<path class="st0" d="M499.27,75.65c-0.38,0.83-0.57,1.71-0.59,2.57c-0.03,1.29,0.31,2.56,0.98,3.64c0.49,0.79,1.15,1.5,1.96,2.03   l-24.38,53.89c0.31,0.26,0.62,0.5,0.92,0.76l1.37-0.56l24.06-53.19c0.51,0.14,1.03,0.21,1.54,0.23c1.3,0.03,2.56-0.32,3.65-0.99   c1.08-0.67,1.99-1.66,2.56-2.92c0.37-0.83,0.56-1.7,0.59-2.57c0.03-1.3-0.31-2.56-0.99-3.65c-0.67-1.09-1.66-2-2.91-2.57   c-0.83-0.38-1.71-0.56-2.57-0.59c-1.3-0.03-2.56,0.32-3.65,0.99C500.75,73.41,499.84,74.4,499.27,75.65z M504.57,73.99   c0.85-0.15,1.74-0.05,2.59,0.33c0.56,0.25,1.04,0.61,1.44,1.04c0.59,0.64,0.98,1.43,1.12,2.29c0.15,0.85,0.05,1.74-0.33,2.58   c-0.26,0.57-0.61,1.05-1.04,1.44c-0.63,0.59-1.43,0.97-2.28,1.12c-0.85,0.14-1.74,0.05-2.59-0.33c-0.56-0.25-1.05-0.61-1.44-1.04   c-0.59-0.64-0.98-1.43-1.12-2.29c-0.15-0.85-0.05-1.74,0.34-2.59c0.25-0.56,0.61-1.04,1.03-1.44   C502.92,74.52,503.72,74.14,504.57,73.99z"/>
	<path class="st0" d="M443.55,35.93c0.29-1.33-0.55-2.65-1.88-2.94c-1.33-0.29-2.64,0.55-2.93,1.88c-0.29,1.33,0.54,2.65,1.87,2.94   C441.94,38.1,443.26,37.26,443.55,35.93z"/>
	<path class="st0" d="M712.25,357.56c-1.08-0.69-2.37-1.07-3.74-1.03c-0.91,0.02-1.78,0.23-2.57,0.59c-1.18,0.53-2.17,1.4-2.85,2.48   c-0.5,0.79-0.84,1.69-0.97,2.65L586.3,365.4c0.01,0.73,0.01,1.45,0.02,2.18l115.86-3.15c0.1,0.52,0.26,1.02,0.47,1.49   c0.54,1.18,1.41,2.17,2.48,2.85c1.08,0.69,2.37,1.07,3.74,1.04c0.91-0.02,1.78-0.24,2.57-0.59c1.18-0.54,2.17-1.41,2.85-2.48   c0.69-1.08,1.07-2.37,1.03-3.74c-0.02-0.91-0.23-1.78-0.59-2.57C714.19,359.24,713.33,358.24,712.25,357.56z M712.85,364.79   c-0.32,0.81-0.87,1.5-1.57,2s-1.54,0.81-2.47,0.83c-0.62,0.02-1.2-0.1-1.74-0.31c-0.81-0.32-1.51-0.86-2.01-1.57   c-0.5-0.7-0.8-1.54-0.83-2.47c-0.02-0.62,0.1-1.21,0.31-1.75c0.32-0.8,0.86-1.5,1.56-2c0.71-0.5,1.54-0.81,2.47-0.83   c0.62-0.02,1.21,0.1,1.74,0.31c0.81,0.32,1.51,0.87,2.01,1.57s0.8,1.54,0.83,2.47C713.16,363.66,713.06,364.24,712.85,364.79z"/>
	<path class="st0" d="M456.08,82.95c0.38,0.47,0.85,0.86,1.4,1.17l-9.56,32.07c0.64,0.41,1.27,0.83,1.9,1.24l9.74-32.69   c0.29,0.02,0.59,0.01,0.88-0.02c0.96-0.1,1.86-0.49,2.6-1.09c0.73-0.6,1.3-1.43,1.59-2.4c0.2-0.66,0.25-1.32,0.18-1.95   c-0.1-0.96-0.49-1.86-1.09-2.6c-0.6-0.73-1.43-1.3-2.41-1.6c-0.65-0.19-1.31-0.25-1.95-0.18c-0.96,0.1-1.86,0.49-2.6,1.09   c-0.73,0.6-1.31,1.43-1.6,2.41c-0.2,0.65-0.25,1.31-0.18,1.95C455.09,81.31,455.48,82.21,456.08,82.95z M457.25,79.03   c0.11-0.37,0.29-0.69,0.52-0.97c0.34-0.41,0.8-0.72,1.31-0.88c0.51-0.16,1.06-0.17,1.61-0.01c0.37,0.11,0.69,0.28,0.97,0.52   c0.42,0.34,0.72,0.8,0.88,1.31c0.16,0.51,0.17,1.06,0.01,1.61c-0.11,0.36-0.28,0.69-0.51,0.96c-0.34,0.42-0.8,0.72-1.31,0.88   c-0.51,0.16-1.06,0.18-1.62,0.01c-0.36-0.11-0.69-0.29-0.96-0.51c-0.41-0.34-0.72-0.8-0.88-1.31   C457.1,80.13,457.08,79.58,457.25,79.03z"/>
	<path class="st0" d="M617.71,106.6c-0.28-1.29-0.94-2.52-1.97-3.49c-0.69-0.65-1.47-1.14-2.31-1.45c-1.26-0.47-2.61-0.57-3.9-0.29   c-1.29,0.28-2.52,0.94-3.49,1.97c-0.65,0.68-1.14,1.47-1.45,2.31c-0.48,1.25-0.57,2.61-0.29,3.9c0.21,0.94,0.61,1.86,1.22,2.65   l-11.56,12.02l1.17,2.03l12.01-12.5c0.45,0.31,0.93,0.56,1.43,0.74c1.25,0.48,2.61,0.57,3.89,0.29c1.29-0.28,2.53-0.94,3.5-1.97   c0.65-0.68,1.14-1.47,1.45-2.31C617.9,109.25,617.99,107.89,617.71,106.6z M615.56,108.85c-0.15,0.88-0.55,1.71-1.21,2.41   c-0.44,0.46-0.96,0.81-1.5,1.05c-0.82,0.36-1.73,0.47-2.61,0.32c-0.88-0.15-1.71-0.55-2.41-1.21c-0.47-0.45-0.82-0.95-1.05-1.5   c-0.36-0.82-0.46-1.74-0.31-2.62c0.15-0.88,0.55-1.71,1.21-2.41c0.44-0.46,0.95-0.81,1.5-1.05c0.82-0.36,1.74-0.46,2.62-0.31   c0.88,0.15,1.71,0.55,2.41,1.21c0.46,0.44,0.81,0.95,1.05,1.5C615.6,107.05,615.71,107.97,615.56,108.85z"/>
	<path class="st0" d="M492.81,44.49l-28.84,71.99l4.65,10.87l-1.08,2.68c0.62,0.47,1.23,0.96,1.84,1.44l1.66-4.15l-4.64-10.86   l28.49-71.12c0.54,0.12,1.07,0.17,1.61,0.16c1.34-0.02,2.63-0.44,3.72-1.18c1.1-0.74,2-1.81,2.52-3.13   c0.35-0.88,0.51-1.79,0.49-2.68c-0.03-1.34-0.45-2.63-1.19-3.73c-0.74-1.09-1.81-1.99-3.12-2.51c-0.88-0.35-1.79-0.51-2.68-0.49   c-1.34,0.03-2.63,0.44-3.73,1.19c-1.1,0.74-1.99,1.81-2.51,3.12c-0.35,0.88-0.51,1.79-0.49,2.68c0.02,1.34,0.44,2.63,1.18,3.73   C491.23,43.28,491.95,43.97,492.81,44.49z M492.09,36.9c0.24-0.59,0.58-1.11,1-1.53c0.63-0.64,1.44-1.08,2.31-1.26   s1.8-0.13,2.69,0.23c0.59,0.24,1.1,0.58,1.53,1.01c0.64,0.63,1.08,1.44,1.27,2.3c0.19,0.88,0.13,1.8-0.23,2.69   c-0.24,0.59-0.59,1.11-1.01,1.53c-0.63,0.64-1.44,1.08-2.31,1.27c-0.88,0.19-1.8,0.13-2.69-0.23c-0.6-0.24-1.11-0.58-1.53-1   c-0.64-0.63-1.08-1.44-1.26-2.31C491.68,38.72,491.74,37.8,492.09,36.9z"/>
	<path class="st0" d="M690.21,222.03c1.24-0.56,1.79-2.03,1.22-3.27c-0.56-1.24-2.02-1.78-3.26-1.22c-1.24,0.56-1.79,2.02-1.23,3.26   C687.5,222.05,688.97,222.59,690.21,222.03z"/>
	<path class="st0" d="M427.3,93.06l-2.15,9.76c0.67,0.35,1.33,0.71,1.99,1.07l1.82-8.23l4.34,6.8l-0.95,4.31   c0.66,0.37,1.32,0.74,1.98,1.12l1.29-5.84l-6-9.4l11.17-50.62c0.53,0.03,1.05,0,1.56-0.1c1.27-0.23,2.44-0.84,3.36-1.71   c0.93-0.88,1.62-2.04,1.91-3.38c0.2-0.89,0.21-1.79,0.05-2.63c-0.23-1.27-0.84-2.44-1.71-3.37c-0.88-0.92-2.04-1.61-3.38-1.91   c-0.89-0.2-1.79-0.2-2.63-0.05c-1.27,0.24-2.44,0.84-3.36,1.72c-0.93,0.88-1.62,2.04-1.91,3.37c-0.2,0.89-0.2,1.79-0.05,2.63   c0.24,1.27,0.84,2.44,1.72,3.37c0.64,0.68,1.44,1.23,2.34,1.58l-10.71,48.5l-4.17-6.53l3.06-13.86c0.29,0,0.59-0.02,0.87-0.08   c0.95-0.18,1.82-0.63,2.51-1.28c0.69-0.65,1.2-1.52,1.42-2.52c0.15-0.66,0.15-1.33,0.04-1.96c-0.18-0.95-0.63-1.82-1.28-2.51   c-0.65-0.69-1.52-1.2-2.52-1.42c-0.66-0.15-1.33-0.15-1.96-0.03c-0.95,0.17-1.82,0.62-2.5,1.28c-0.69,0.65-1.2,1.52-1.42,2.51   c-0.15,0.67-0.15,1.33-0.03,1.96c0.17,0.95,0.62,1.82,1.28,2.51c0.41,0.44,0.91,0.8,1.48,1.06l-3.25,14.74L427.3,93.06z    M438.56,39.04c-0.71-0.5-1.25-1.21-1.56-2c-0.32-0.8-0.41-1.69-0.21-2.6c0.13-0.6,0.38-1.14,0.72-1.62   c0.5-0.71,1.2-1.26,2.01-1.57c0.8-0.32,1.69-0.4,2.59-0.2c0.61,0.13,1.15,0.38,1.62,0.72c0.7,0.5,1.25,1.2,1.56,2   c0.31,0.81,0.41,1.69,0.21,2.6c-0.13,0.6-0.39,1.15-0.72,1.62c-0.5,0.71-1.21,1.25-2.01,1.57c-0.8,0.32-1.69,0.4-2.6,0.2   C439.58,39.62,439.03,39.38,438.56,39.04z M424.26,65.74c-0.2-0.49-0.25-1.05-0.13-1.61c0.08-0.37,0.24-0.71,0.44-1   c0.31-0.44,0.75-0.78,1.24-0.98c0.5-0.19,1.05-0.25,1.61-0.13c0.38,0.08,0.71,0.24,1.01,0.44c0.44,0.31,0.78,0.75,0.97,1.24   c0.19,0.5,0.25,1.05,0.12,1.61c-0.08,0.38-0.23,0.71-0.44,1.01c-0.31,0.44-0.75,0.78-1.24,0.98c-0.49,0.2-1.05,0.25-1.61,0.12   c-0.38-0.08-0.71-0.23-1.01-0.44C424.79,66.67,424.46,66.24,424.26,65.74z"/>
	<path class="st0" d="M695.22,217.04c-0.38-0.83-0.91-1.55-1.54-2.13c-0.96-0.88-2.13-1.45-3.4-1.66c-1.26-0.22-2.6-0.07-3.85,0.5   c-0.83,0.38-1.55,0.91-2.13,1.54c-0.88,0.96-1.45,2.14-1.66,3.4c-0.16,0.92-0.12,1.89,0.14,2.82l-25.8,11.85l1.09,1.89l25.61-11.76   c0.3,0.44,0.63,0.84,1.02,1.18c0.95,0.87,2.13,1.45,3.39,1.66c1.26,0.22,2.61,0.07,3.85-0.51c0.83-0.38,1.55-0.91,2.13-1.54   c0.88-0.95,1.45-2.13,1.67-3.39C695.94,219.63,695.79,218.29,695.22,217.04z M692.99,222.12c-0.45,0.74-1.11,1.35-1.95,1.73   c-0.56,0.26-1.15,0.38-1.73,0.4c-0.87,0.02-1.73-0.21-2.46-0.66c-0.73-0.45-1.34-1.11-1.72-1.96c-0.26-0.56-0.39-1.14-0.4-1.72   c-0.02-0.87,0.21-1.72,0.66-2.45c0.45-0.73,1.11-1.35,1.95-1.73c0.56-0.26,1.15-0.38,1.73-0.4c0.87-0.02,1.72,0.21,2.46,0.66   c0.73,0.45,1.34,1.11,1.72,1.95c0.26,0.57,0.39,1.15,0.4,1.73C693.67,220.53,693.44,221.39,692.99,222.12z"/>
	<path class="st0" d="M690.47,261.53c-0.87,0.28-1.64,0.73-2.29,1.3c-0.98,0.85-1.68,1.96-2.03,3.18c-0.26,0.9-0.33,1.86-0.18,2.82   l-69.66,22.72l-5.1,3.95l75.43-24.6c0.24,0.47,0.54,0.9,0.87,1.29c0.85,0.98,1.97,1.68,3.19,2.02c1.23,0.36,2.58,0.36,3.88-0.07   c0.87-0.28,1.64-0.74,2.29-1.3c0.98-0.85,1.68-1.97,2.03-3.19c0.35-1.23,0.35-2.57-0.07-3.88c-0.28-0.87-0.73-1.64-1.3-2.3   c-0.84-0.97-1.96-1.68-3.18-2.03C693.12,261.1,691.77,261.1,690.47,261.53z M696.76,266.46c0.19,0.59,0.26,1.18,0.21,1.76   c-0.07,0.87-0.41,1.69-0.93,2.36c-0.53,0.68-1.25,1.21-2.13,1.5c-0.59,0.19-1.18,0.25-1.76,0.2c-0.87-0.07-1.69-0.4-2.37-0.93   c-0.68-0.53-1.21-1.25-1.49-2.13c-0.19-0.59-0.25-1.19-0.21-1.77c0.08-0.86,0.4-1.68,0.93-2.36c0.53-0.68,1.25-1.21,2.13-1.5   c0.59-0.19,1.19-0.25,1.76-0.2c0.87,0.07,1.69,0.4,2.37,0.93S696.47,265.58,696.76,266.46z"/>
	<path class="st0" d="M582.9,324.43c0.11,0.72,0.2,1.44,0.31,2.16l121.05-26.86c0.19,0.49,0.45,0.95,0.74,1.37   c0.75,1.05,1.79,1.86,2.98,2.32c1.19,0.47,2.53,0.61,3.87,0.31c0.89-0.2,1.71-0.57,2.41-1.07c1.05-0.75,1.87-1.79,2.33-2.98   c0.47-1.19,0.6-2.53,0.3-3.86c-0.2-0.89-0.57-1.71-1.07-2.41c-0.75-1.05-1.79-1.86-2.97-2.33c-1.19-0.47-2.53-0.61-3.87-0.3   c-0.89,0.19-1.71,0.57-2.41,1.07c-1.06,0.75-1.86,1.79-2.33,2.97c-0.34,0.87-0.51,1.82-0.45,2.79L582.9,324.43z M706.03,296.44   c0.16-0.85,0.56-1.64,1.15-2.26c0.6-0.63,1.36-1.09,2.27-1.29c0.61-0.13,1.21-0.14,1.77-0.03c0.85,0.16,1.65,0.57,2.27,1.16   c0.62,0.59,1.08,1.36,1.28,2.27c0.13,0.6,0.14,1.2,0.04,1.77c-0.16,0.85-0.57,1.64-1.16,2.26c-0.59,0.62-1.36,1.09-2.27,1.29   c-0.6,0.13-1.2,0.13-1.77,0.03c-0.85-0.16-1.64-0.56-2.27-1.16c-0.62-0.59-1.08-1.36-1.28-2.26   C705.92,297.61,705.92,297.02,706.03,296.44z"/>
	<path class="st0" d="M612.86,109.83c0.97-1.02,0.94-2.64-0.08-3.61c-1.02-0.97-2.64-0.93-3.61,0.08c-0.97,1.02-0.94,2.64,0.08,3.61   S611.88,110.85,612.86,109.83z"/>
	<path class="st0" d="M616.45,137.19c0.13,0.92,0.46,1.83,0.99,2.64l-9.5,8.6l1.11,1.93l9.84-8.91c0.42,0.33,0.86,0.6,1.33,0.82   c1.17,0.54,2.47,0.73,3.73,0.55c1.27-0.18,2.5-0.73,3.51-1.65c0.68-0.61,1.2-1.34,1.56-2.12c0.55-1.17,0.73-2.47,0.56-3.74   c-0.18-1.26-0.73-2.49-1.65-3.51c-0.61-0.67-1.34-1.2-2.12-1.56c-1.18-0.54-2.47-0.73-3.74-0.55c-1.27,0.18-2.5,0.73-3.51,1.64   c-0.68,0.61-1.2,1.34-1.56,2.12C616.46,134.62,616.27,135.92,616.45,137.19z M618.69,135.18c0.2-0.83,0.65-1.62,1.33-2.24   c0.46-0.41,0.98-0.71,1.52-0.9c0.82-0.29,1.71-0.33,2.54-0.12c0.83,0.2,1.61,0.65,2.23,1.33c0.42,0.46,0.72,0.98,0.91,1.53   c0.29,0.81,0.32,1.7,0.12,2.53c-0.21,0.84-0.65,1.62-1.33,2.24c-0.46,0.41-0.98,0.71-1.52,0.9c-0.82,0.29-1.71,0.32-2.54,0.12   c-0.83-0.2-1.61-0.65-2.24-1.34c-0.41-0.46-0.71-0.97-0.91-1.52C618.52,136.89,618.49,136.01,618.69,135.18z"/>
	<path class="st0" d="M640.82,205.37l1.09,1.89l26.59-18.34c0.42,0.47,0.89,0.88,1.41,1.2c1.1,0.69,2.37,1.04,3.64,1.02   c1.27-0.02,2.57-0.41,3.69-1.19c0.75-0.52,1.36-1.17,1.82-1.9c0.69-1.09,1.04-2.36,1.02-3.63c-0.01-1.28-0.41-2.57-1.19-3.7   c-0.52-0.75-1.18-1.36-1.9-1.82c-1.1-0.69-2.37-1.04-3.64-1.02c-1.27,0.02-2.57,0.41-3.69,1.19c-0.75,0.52-1.36,1.17-1.83,1.91   c-0.69,1.1-1.04,2.36-1.02,3.64c0.01,0.83,0.18,1.68,0.52,2.48L640.82,205.37z M669.28,182.89c0.31-0.8,0.85-1.52,1.61-2.05   c0.51-0.35,1.05-0.59,1.62-0.7c0.85-0.18,1.73-0.11,2.53,0.2c0.81,0.31,1.52,0.85,2.05,1.61c0.35,0.51,0.58,1.06,0.7,1.63   c0.18,0.85,0.11,1.73-0.21,2.54c-0.31,0.8-0.85,1.52-1.61,2.04c-0.51,0.36-1.06,0.59-1.63,0.71c-0.85,0.18-1.73,0.1-2.53-0.21   c-0.8-0.31-1.52-0.85-2.05-1.61c-0.35-0.51-0.58-1.06-0.7-1.62C668.9,184.58,668.97,183.7,669.28,182.89z"/>
	<path class="st0" d="M624.67,138.07c1.01-0.91,1.09-2.47,0.17-3.48c-0.91-1.01-2.47-1.08-3.48-0.17c-1.01,0.91-1.09,2.47-0.18,3.48   C622.1,138.91,623.66,138.98,624.67,138.07z"/>
	<path class="st0" d="M627.78,156.08c-0.61,1.14-0.86,2.43-0.74,3.7c0.08,0.93,0.37,1.85,0.85,2.69l-8.05,6.57l1.1,1.91l8.33-6.79   c0.39,0.35,0.83,0.65,1.28,0.89c1.15,0.6,2.44,0.85,3.71,0.74c1.27-0.11,2.53-0.6,3.59-1.46c0.71-0.58,1.27-1.28,1.67-2.04   c0.6-1.15,0.86-2.44,0.74-3.71c-0.11-1.27-0.6-2.53-1.47-3.59c-0.58-0.71-1.27-1.27-2.04-1.68c-1.14-0.6-2.43-0.86-3.7-0.74   c-1.27,0.11-2.53,0.6-3.59,1.47C628.75,154.61,628.18,155.31,627.78,156.08z M630.83,155.72c0.48-0.39,1.02-0.66,1.57-0.82   c0.83-0.24,1.72-0.23,2.55,0.01c0.82,0.25,1.58,0.73,2.17,1.45c0.39,0.48,0.66,1.01,0.83,1.56c0.24,0.83,0.23,1.72-0.02,2.54   c-0.25,0.82-0.73,1.58-1.45,2.17c-0.48,0.39-1.01,0.66-1.57,0.82c-0.83,0.24-1.72,0.24-2.55-0.01c-0.82-0.25-1.58-0.73-2.16-1.45   c-0.39-0.48-0.66-1.02-0.83-1.57c-0.24-0.83-0.24-1.71,0.01-2.54C629.63,157.06,630.11,156.31,630.83,155.72z"/>
	<path class="st0" d="M495.43,40.99c1.31,0.52,2.79-0.11,3.32-1.42c0.52-1.31-0.11-2.79-1.42-3.32c-1.31-0.52-2.79,0.11-3.32,1.42   C493.48,38.98,494.12,40.47,495.43,40.99z"/>
	<path class="st0" d="M78.93,174.4c1.15,0.82,2.74,0.56,3.56-0.59s0.56-2.74-0.59-3.56c-1.15-0.82-2.74-0.56-3.56,0.59   C77.53,171.98,77.79,173.58,78.93,174.4z"/>
	<path class="st0" d="M76.42,177.9c0.77,0.55,1.62,0.92,2.49,1.12c1.31,0.3,2.66,0.2,3.9-0.26c0.9-0.34,1.75-0.87,2.46-1.58   l52.87,37.85c0.56-0.53,1.13-1.04,1.69-1.56l-53.24-38.12c0.24-0.49,0.42-1,0.54-1.52c0.3-1.31,0.2-2.66-0.26-3.9   c-0.46-1.24-1.29-2.37-2.44-3.19c-0.77-0.55-1.62-0.92-2.49-1.12c-1.31-0.29-2.66-0.19-3.91,0.26c-1.24,0.46-2.36,1.29-3.18,2.44   c-0.55,0.77-0.92,1.62-1.12,2.49c-0.29,1.31-0.2,2.66,0.26,3.91C74.44,175.96,75.27,177.08,76.42,177.9z M76.67,169.64   c0.37-0.52,0.82-0.94,1.34-1.25c0.76-0.47,1.65-0.71,2.54-0.68c0.89,0.03,1.77,0.3,2.55,0.86c0.52,0.37,0.94,0.83,1.25,1.34   c0.47,0.77,0.71,1.65,0.68,2.54c-0.03,0.89-0.3,1.77-0.86,2.55c-0.38,0.52-0.83,0.94-1.34,1.25c-0.77,0.47-1.66,0.7-2.55,0.68   c-0.89-0.02-1.77-0.3-2.56-0.86c-0.52-0.37-0.94-0.83-1.25-1.34c-0.47-0.77-0.7-1.66-0.68-2.55   C75.83,171.3,76.11,170.42,76.67,169.64z"/>
	<path class="st0" d="M115.87,146.13c0.67,0.63,1.43,1.09,2.24,1.39c1.22,0.45,2.53,0.53,3.78,0.25c0.91-0.2,1.79-0.6,2.56-1.19   l36.15,34.05l-7.74,0.23l-10.34-9.73c0.15-0.25,0.28-0.52,0.38-0.79c0.33-0.91,0.39-1.88,0.19-2.81c-0.21-0.92-0.69-1.81-1.44-2.51   c-0.49-0.46-1.06-0.81-1.66-1.03c-0.91-0.33-1.88-0.39-2.81-0.19c-0.93,0.21-1.81,0.69-2.51,1.43c-0.46,0.49-0.81,1.06-1.03,1.67   c-0.34,0.9-0.4,1.88-0.18,2.81c0.21,0.93,0.69,1.81,1.43,2.51c0.5,0.47,1.07,0.81,1.67,1.03c0.9,0.34,1.88,0.4,2.81,0.19   c0.59-0.13,1.15-0.37,1.67-0.73l10.99,10.35l10.82-0.32l7.64,7.19c0.63-0.4,1.26-0.8,1.9-1.2l-6.46-6.08l8.07-0.24l3.48,3.27   c0.66-0.38,1.32-0.75,1.98-1.12l-4.62-4.35l-11.14,0.33l-37.74-35.54c0.29-0.44,0.53-0.9,0.71-1.39c0.45-1.21,0.53-2.52,0.25-3.77   c-0.28-1.25-0.93-2.44-1.93-3.37c-0.67-0.63-1.43-1.09-2.24-1.39c-1.21-0.45-2.52-0.53-3.77-0.26c-1.24,0.28-2.43,0.93-3.37,1.93   c-0.62,0.66-1.09,1.43-1.39,2.24c-0.45,1.22-0.53,2.52-0.25,3.77C114.23,144,114.87,145.19,115.87,146.13z M140.99,169.06   c-0.08,0.53-0.32,1.03-0.72,1.45c-0.26,0.28-0.57,0.49-0.9,0.64c-0.49,0.22-1.03,0.29-1.56,0.2c-0.53-0.08-1.03-0.32-1.45-0.71   c-0.28-0.26-0.49-0.57-0.63-0.89c-0.22-0.49-0.29-1.04-0.2-1.57c0.09-0.53,0.32-1.03,0.71-1.45c0.26-0.28,0.57-0.49,0.9-0.64   c0.49-0.22,1.04-0.29,1.57-0.2c0.53,0.09,1.03,0.32,1.45,0.72c0.28,0.26,0.49,0.57,0.64,0.9   C141.01,167.99,141.08,168.54,140.99,169.06z M116.02,140.57c0.14-0.85,0.52-1.66,1.15-2.33c0.43-0.45,0.92-0.79,1.45-1.03   c0.79-0.35,1.67-0.46,2.52-0.32c0.85,0.14,1.66,0.52,2.34,1.15c0.45,0.42,0.79,0.92,1.02,1.45c0.35,0.8,0.46,1.68,0.32,2.53   c-0.14,0.85-0.52,1.66-1.16,2.34c-0.42,0.45-0.91,0.79-1.44,1.03c-0.79,0.35-1.67,0.45-2.52,0.32c-0.85-0.14-1.66-0.52-2.34-1.15   c-0.45-0.42-0.78-0.92-1.02-1.45C115.99,142.3,115.88,141.42,116.02,140.57z"/>
	<path class="st0" d="M122.21,142.99c0.93-0.99,0.89-2.55-0.1-3.49c-0.99-0.93-2.55-0.89-3.49,0.1c-0.93,0.99-0.88,2.55,0.11,3.48   C119.72,144.02,121.28,143.98,122.21,142.99z"/>
	<path class="st0" d="M61.58,231.47c1.23,0.59,2.7,0.08,3.29-1.15c0.59-1.23,0.07-2.7-1.16-3.29c-1.23-0.59-2.7-0.07-3.29,1.16   S60.36,230.88,61.58,231.47z"/>
	<path class="st0" d="M114.27,312.73c-0.84,0-1.68-0.04-2.5-0.1l-2.78,1.69l-74.42-18.24c0.04-0.55,0.02-1.08-0.07-1.61   c-0.21-1.32-0.81-2.54-1.69-3.52c-0.89-0.98-2.08-1.72-3.45-2.06c-0.92-0.23-1.84-0.25-2.72-0.11c-1.32,0.22-2.55,0.81-3.53,1.7   c-0.98,0.89-1.71,2.07-2.05,3.45c-0.23,0.92-0.25,1.84-0.11,2.72c0.22,1.32,0.81,2.54,1.7,3.53c0.89,0.98,2.07,1.71,3.45,2.05   c0.92,0.23,1.84,0.26,2.72,0.11c1.32-0.21,2.54-0.81,3.53-1.69c0.71-0.65,1.3-1.46,1.69-2.38l75.32,18.46l6.67-4.04   C115.44,312.71,114.86,312.73,114.27,312.73z M32.2,296.65c-0.15,0.63-0.42,1.18-0.77,1.66c-0.54,0.72-1.28,1.27-2.11,1.58   c-0.83,0.31-1.76,0.38-2.69,0.15c-0.62-0.15-1.18-0.42-1.66-0.77c-0.72-0.54-1.27-1.28-1.58-2.11c-0.31-0.83-0.38-1.76-0.15-2.69   c0.15-0.62,0.42-1.18,0.78-1.66c0.53-0.72,1.27-1.27,2.1-1.58c0.84-0.31,1.76-0.38,2.69-0.15c0.62,0.15,1.18,0.43,1.66,0.78   c0.72,0.54,1.27,1.27,1.58,2.1C32.36,294.8,32.43,295.72,32.2,296.65z"/>
	<path class="st0" d="M98.44,245.18L69.02,231.1c0.15-0.51,0.23-1.02,0.26-1.54c0.06-1.29-0.26-2.57-0.91-3.66   c-0.64-1.1-1.62-2.04-2.86-2.62c-0.83-0.4-1.69-0.61-2.55-0.64c-1.29-0.06-2.57,0.26-3.67,0.9c-1.1,0.65-2.03,1.62-2.62,2.86   c-0.39,0.82-0.6,1.7-0.64,2.55c-0.06,1.3,0.26,2.57,0.91,3.67c0.64,1.1,1.62,2.04,2.85,2.63c0.83,0.4,1.7,0.6,2.55,0.64   c1.3,0.06,2.57-0.27,3.67-0.91c0.8-0.47,1.52-1.12,2.07-1.91l28,13.41C96.85,246.01,97.63,245.58,98.44,245.18z M66.67,231.18   c-0.27,0.56-0.63,1.03-1.06,1.42c-0.65,0.57-1.46,0.94-2.31,1.07c-0.85,0.13-1.74,0.01-2.58-0.39c-0.56-0.27-1.03-0.63-1.41-1.07   c-0.57-0.65-0.95-1.45-1.07-2.31c-0.13-0.85-0.01-1.74,0.39-2.57c0.27-0.56,0.63-1.04,1.07-1.42c0.64-0.57,1.45-0.94,2.3-1.07   c0.86-0.12,1.74-0.01,2.58,0.39c0.56,0.27,1.03,0.64,1.41,1.07c0.58,0.65,0.95,1.46,1.07,2.31S67.07,230.34,66.67,231.18z"/>
	<path class="st0" d="M22.23,370.32c0.04-1.41-1.07-2.58-2.48-2.62c-1.41-0.04-2.58,1.07-2.62,2.48c-0.04,1.41,1.07,2.58,2.48,2.62   C21.02,372.84,22.19,371.73,22.23,370.32z"/>
	<path class="st0" d="M27.11,298.03c1.37,0.34,2.75-0.5,3.09-1.87c0.34-1.37-0.5-2.75-1.87-3.09c-1.37-0.34-2.75,0.5-3.09,1.87   C24.91,296.32,25.75,297.7,27.11,298.03z"/>
	<path class="st0" d="M218.93,103.18l32.11,56.33c0.77-0.12,1.54-0.23,2.31-0.34l-32.52-57.05c1.16-1.19,1.45-3.05,0.59-4.58   c-1.05-1.85-3.4-2.51-5.25-1.46c-1.85,1.05-2.51,3.4-1.46,5.25C215.57,102.84,217.31,103.55,218.93,103.18z"/>
	<path class="st0" d="M250.06,54.67c1.28-0.47,1.93-1.89,1.46-3.17c-0.47-1.28-1.89-1.93-3.17-1.46c-1.28,0.47-1.93,1.89-1.45,3.17   C247.37,54.48,248.78,55.14,250.06,54.67z"/>
	<path class="st0" d="M217.52,72.4c0.97,0.85,2.17,1.39,3.43,1.57c0.92,0.13,1.89,0.07,2.81-0.21l41.01,84.03   c0.77-0.07,1.55-0.12,2.33-0.19l-41.39-84.8c0.43-0.3,0.82-0.66,1.16-1.04c0.85-0.98,1.39-2.18,1.56-3.44c0.18-1.27,0-2.6-0.6-3.83   c-0.4-0.82-0.96-1.52-1.6-2.09c-0.98-0.85-2.18-1.39-3.44-1.57c-1.27-0.18-2.6,0.01-3.83,0.61c-0.82,0.4-1.53,0.95-2.1,1.6   c-0.85,0.97-1.39,2.17-1.57,3.43c-0.18,1.27,0,2.6,0.61,3.83C216.31,71.13,216.87,71.84,217.52,72.4z M218.02,65.17   c0.43-0.74,1.07-1.37,1.91-1.78c0.55-0.27,1.13-0.42,1.71-0.45c0.87-0.05,1.73,0.17,2.47,0.6c0.74,0.43,1.38,1.07,1.78,1.91   c0.27,0.55,0.41,1.13,0.44,1.71c0.05,0.87-0.16,1.73-0.59,2.48c-0.43,0.74-1.07,1.37-1.9,1.77c-0.56,0.27-1.14,0.41-1.72,0.45   c-0.86,0.04-1.72-0.16-2.47-0.59c-0.75-0.43-1.38-1.07-1.78-1.91c-0.27-0.56-0.41-1.14-0.44-1.71   C217.38,66.78,217.59,65.91,218.02,65.17z"/>
	<path class="st0" d="M244.36,56.89c0.89,0.94,2.03,1.6,3.27,1.91c0.91,0.22,1.87,0.26,2.82,0.07l17.2,46.59l-7.03-3.24L255.7,88.9   c0.25-0.16,0.48-0.34,0.69-0.54c0.7-0.66,1.19-1.51,1.42-2.43c0.22-0.92,0.19-1.93-0.17-2.89c-0.23-0.64-0.59-1.2-1.03-1.67   c-0.66-0.7-1.51-1.19-2.43-1.42c-0.92-0.23-1.93-0.19-2.89,0.16c-0.64,0.23-1.2,0.59-1.67,1.04c-0.7,0.66-1.19,1.5-1.41,2.43   c-0.23,0.92-0.19,1.93,0.16,2.88c0.24,0.64,0.6,1.2,1.04,1.67c0.66,0.7,1.5,1.19,2.43,1.42c0.58,0.15,1.2,0.18,1.82,0.09   l5.23,14.16l9.83,4.53l14.78,40.04v-6.28l-11.99-32.47l7.33,3.38l4.66,12.62v-6.28l-2.93-7.94l-10.12-4.66l-17.96-48.63   c0.46-0.26,0.88-0.57,1.25-0.93c0.94-0.88,1.6-2.02,1.9-3.26c0.31-1.24,0.26-2.59-0.23-3.88c-0.32-0.86-0.79-1.61-1.38-2.24   c-0.88-0.95-2.02-1.6-3.26-1.91c-1.24-0.3-2.59-0.25-3.88,0.22c-0.85,0.31-1.61,0.8-2.24,1.38c-0.94,0.89-1.6,2.02-1.9,3.27   c-0.31,1.24-0.26,2.59,0.22,3.87C243.29,55.51,243.78,56.26,244.36,56.89z M253.97,87.35c-0.36,0.13-0.73,0.19-1.09,0.17   c-0.53-0.02-1.05-0.2-1.49-0.52c-0.43-0.31-0.78-0.74-0.98-1.29c-0.13-0.36-0.18-0.73-0.17-1.08c0.03-0.54,0.21-1.06,0.52-1.49   c0.32-0.43,0.74-0.78,1.29-0.98c0.36-0.13,0.73-0.18,1.09-0.17c0.54,0.03,1.06,0.21,1.49,0.52c0.44,0.32,0.77,0.75,0.97,1.29   c0.13,0.36,0.19,0.73,0.17,1.09c-0.03,0.54-0.21,1.06-0.52,1.49C254.95,86.81,254.51,87.15,253.97,87.35z M245.59,49.74   c0.5-0.7,1.21-1.25,2.07-1.57c0.58-0.22,1.17-0.3,1.76-0.27c0.86,0.04,1.7,0.33,2.4,0.83c0.7,0.51,1.26,1.2,1.58,2.07   c0.21,0.58,0.3,1.18,0.27,1.75c-0.04,0.87-0.34,1.71-0.84,2.4c-0.5,0.7-1.21,1.25-2.08,1.58c-0.58,0.21-1.17,0.3-1.75,0.28   c-0.87-0.04-1.7-0.34-2.4-0.84c-0.7-0.5-1.26-1.2-1.58-2.07c-0.21-0.58-0.29-1.17-0.27-1.75   C244.79,51.28,245.08,50.44,245.59,49.74z"/>
	<path class="st0" d="M394.9,75.02l-1.08,13.41c0.71,0.28,1.41,0.57,2.11,0.85l1.13-14.09c1.63-0.34,2.92-1.71,3.06-3.45   c0.18-2.12-1.4-3.98-3.52-4.16s-3.98,1.4-4.16,3.52C392.31,72.85,393.35,74.41,394.9,75.02z"/>
	<path class="st0" d="M171.27,83.17c1.1,0.76,2.4,1.17,3.72,1.21c0.96,0.02,1.95-0.15,2.87-0.55l41.75,65.35l11.54,2.54l6.59,10.32   c0.78-0.17,1.55-0.35,2.33-0.52l-7.54-11.8L221,147.19l-41.25-64.57c0.41-0.37,0.76-0.77,1.06-1.21c0.76-1.1,1.17-2.4,1.2-3.71   c0.04-1.32-0.31-2.68-1.08-3.87c-0.51-0.8-1.16-1.45-1.89-1.96c-1.11-0.76-2.4-1.17-3.72-1.21c-1.32-0.03-2.67,0.32-3.86,1.08   c-0.8,0.51-1.45,1.16-1.96,1.89c-0.76,1.11-1.17,2.4-1.21,3.72c-0.04,1.32,0.32,2.67,1.08,3.86   C169.89,82.01,170.53,82.67,171.27,83.17z M170.93,75.68c0.35-0.82,0.94-1.53,1.75-2.05c0.54-0.34,1.11-0.56,1.71-0.66   c0.88-0.16,1.8-0.04,2.61,0.31c0.82,0.36,1.53,0.94,2.05,1.75c0.34,0.54,0.56,1.12,0.66,1.71c0.15,0.89,0.04,1.8-0.31,2.61   c-0.36,0.82-0.94,1.53-1.75,2.05c-0.54,0.35-1.12,0.57-1.71,0.66c-0.89,0.15-1.8,0.03-2.62-0.32c-0.82-0.35-1.53-0.94-2.05-1.75   c-0.34-0.54-0.56-1.11-0.66-1.7C170.46,77.41,170.57,76.5,170.93,75.68z"/>
	<path class="st0" d="M133.29,130.97c0.62,0.67,1.36,1.18,2.15,1.52c1.18,0.52,2.49,0.68,3.74,0.48c0.92-0.15,1.82-0.5,2.62-1.04   l45.54,48.33c0.67-0.35,1.36-0.67,2.04-1.01l-45.99-48.81c0.32-0.42,0.59-0.87,0.8-1.34c0.52-1.19,0.68-2.49,0.47-3.75   c-0.2-1.26-0.77-2.48-1.71-3.48c-0.63-0.67-1.36-1.17-2.15-1.52c-1.19-0.52-2.5-0.68-3.75-0.48c-1.26,0.2-2.48,0.78-3.47,1.72   c-0.67,0.63-1.18,1.36-1.53,2.16c-0.52,1.18-0.68,2.49-0.48,3.74C131.77,128.75,132.34,129.97,133.29,130.97z M133.77,125.44   c0.19-0.84,0.62-1.63,1.29-2.26c0.45-0.42,0.96-0.73,1.5-0.94c0.81-0.3,1.7-0.35,2.54-0.16c0.84,0.19,1.63,0.61,2.27,1.29   c0.42,0.45,0.73,0.96,0.93,1.5c0.3,0.81,0.36,1.7,0.17,2.54c-0.19,0.84-0.62,1.63-1.29,2.26c-0.45,0.43-0.97,0.73-1.51,0.94   c-0.81,0.3-1.69,0.36-2.53,0.17c-0.84-0.19-1.63-0.61-2.27-1.29c-0.43-0.45-0.73-0.97-0.93-1.5   C133.63,127.17,133.58,126.28,133.77,125.44z"/>
	<path class="st0" d="M160.36,126.51l40.18,47.58c0.7-0.3,1.4-0.6,2.1-0.89l-40.61-48.08c0.92-1.39,0.87-3.27-0.25-4.61   c-1.37-1.63-3.8-1.85-5.43-0.48c-1.63,1.37-1.85,3.8-0.48,5.43C156.99,126.79,158.84,127.17,160.36,126.51z"/>
	<path class="st0" d="M409.17,42.02c0.7,0.61,1.55,1.08,2.48,1.35l-6.04,49.96c0.7,0.31,1.38,0.63,2.08,0.94l6.12-50.64   c0.53-0.02,1.04-0.11,1.54-0.24c1.25-0.36,2.35-1.07,3.18-2.04c0.84-0.96,1.41-2.18,1.58-3.54c0.11-0.91,0.03-1.8-0.21-2.63   c-0.36-1.25-1.07-2.36-2.04-3.19c-0.96-0.84-2.19-1.4-3.54-1.57c-0.91-0.11-1.8-0.03-2.63,0.21c-1.24,0.36-2.35,1.07-3.18,2.03   c-0.84,0.96-1.41,2.18-1.57,3.55c-0.12,0.9-0.03,1.8,0.21,2.63C407.49,40.08,408.21,41.19,409.17,42.02z M409.09,36.47   c0.07-0.62,0.27-1.18,0.56-1.68c0.43-0.75,1.08-1.36,1.84-1.76c0.76-0.39,1.65-0.57,2.57-0.45c0.61,0.07,1.18,0.27,1.68,0.55   c0.75,0.43,1.36,1.08,1.75,1.84c0.39,0.76,0.57,1.65,0.46,2.57c-0.07,0.61-0.27,1.18-0.56,1.68c-0.43,0.75-1.07,1.37-1.84,1.76   c-0.76,0.39-1.65,0.57-2.56,0.46c-0.62-0.07-1.18-0.27-1.69-0.56c-0.75-0.43-1.36-1.07-1.75-1.84   C409.15,38.27,408.97,37.4,409.09,36.47z"/>
	<path class="st0" d="M176.54,79.67c1.19-0.76,1.54-2.34,0.78-3.52c-0.76-1.19-2.34-1.54-3.52-0.78c-1.19,0.76-1.54,2.34-0.78,3.52   C173.77,80.08,175.35,80.43,176.54,79.67z"/>
</g>

</svg>