<svg xmlns="http://www.w3.org/2000/svg" xmlns:xlink="http://www.w3.org/1999/xlink" version="1.1" id="Layer_1" x="0px" y="0px" viewBox="0 0 746.66 754.56" style="enable-background:new 0 0 746.66 754.56;" xml:space="preserve">
<style type="text/css">
	.st0{fill:#AE8C45;}
</style>
<g>
	<path class="st0" d="M641.46,572.27c-1.49-0.91-3.36-0.69-4.59,0.44l-37.98-23.19c-0.73,0.41-1.45,0.82-2.18,1.22l39.03,23.83   c-0.43,1.61,0.22,3.37,1.71,4.28c1.82,1.11,4.19,0.53,5.3-1.28C643.85,575.74,643.27,573.37,641.46,572.27z"/>
	<path class="st0" d="M35.95,342.79c-1.35-0.19-2.6,0.76-2.78,2.1s0.76,2.59,2.11,2.78c1.35,0.19,2.59-0.75,2.78-2.1   C38.24,344.23,37.3,342.98,35.95,342.79z"/>
	<path class="st0" d="M713.85,335.97c-1.35,0.16-2.32,1.38-2.16,2.73s1.39,2.32,2.74,2.16c1.35-0.16,2.32-1.39,2.16-2.74   C716.43,336.77,715.21,335.81,713.85,335.97z"/>
	<path class="st0" d="M713.51,372.19c-1.08-0.69-2.37-1.07-3.74-1.03c-0.91,0.02-1.78,0.23-2.57,0.59c-1.18,0.53-2.17,1.4-2.85,2.48   c-0.5,0.79-0.84,1.69-0.97,2.65l-109.72,2.98l2.09,2.12l107.68-2.93c0.1,0.52,0.26,1.02,0.47,1.49c0.54,1.18,1.41,2.17,2.48,2.85   c1.08,0.69,2.37,1.07,3.74,1.04c0.91-0.02,1.78-0.24,2.57-0.59c1.18-0.54,2.17-1.41,2.85-2.48c0.69-1.08,1.07-2.37,1.03-3.74   c-0.02-0.91-0.23-1.78-0.59-2.57C715.46,373.86,714.59,372.87,713.51,372.19z M714.11,379.41c-0.32,0.81-0.87,1.5-1.57,2   c-0.7,0.5-1.54,0.81-2.47,0.83c-0.62,0.02-1.2-0.1-1.74-0.31c-0.81-0.32-1.51-0.86-2.01-1.57c-0.5-0.7-0.8-1.54-0.83-2.47   c-0.02-0.62,0.1-1.21,0.3-1.75c0.32-0.8,0.86-1.5,1.56-2c0.71-0.5,1.54-0.81,2.47-0.83c0.62-0.02,1.21,0.1,1.74,0.31   c0.81,0.32,1.51,0.87,2.01,1.57c0.5,0.7,0.8,1.54,0.83,2.47C714.42,378.28,714.32,378.87,714.11,379.41z"/>
	<path class="st0" d="M95.26,332.71c-2.1-0.36-4.09,1.05-4.45,3.15c-0.36,2.1,1.05,4.09,3.15,4.45c1.73,0.3,3.38-0.6,4.11-2.1   l74.42,12.78c-0.15-0.76-0.29-1.52-0.43-2.28l-73.63-12.64C98.24,334.4,96.98,333,95.26,332.71z"/>
	<path class="st0" d="M649.85,520.08c-0.08,0.28-0.14,0.57-0.17,0.86c-0.09,0.96,0.09,1.92,0.53,2.77c0.44,0.84,1.13,1.57,2.02,2.06   c0.59,0.32,1.23,0.52,1.87,0.58c0.96,0.09,1.92-0.09,2.77-0.53c0.85-0.43,1.58-1.12,2.07-2.02c0.32-0.59,0.51-1.23,0.58-1.88   c0.1-0.96-0.09-1.92-0.53-2.76c-0.43-0.85-1.12-1.58-2.02-2.07c-0.6-0.33-1.24-0.51-1.88-0.58c-0.96-0.1-1.92,0.09-2.77,0.53   c-0.53,0.27-1.02,0.65-1.43,1.13l-4.08-2.22c-0.59,0.51-1.16,1.02-1.75,1.52L649.85,520.08z M652.18,520.11   c0.19-0.34,0.42-0.62,0.71-0.84c0.42-0.34,0.93-0.54,1.46-0.58c0.53-0.05,1.08,0.05,1.58,0.32c0.33,0.18,0.62,0.43,0.84,0.7   c0.33,0.42,0.54,0.94,0.59,1.46c0.05,0.54-0.05,1.08-0.32,1.58c-0.19,0.34-0.43,0.62-0.71,0.84c-0.42,0.33-0.94,0.54-1.46,0.59   c-0.54,0.05-1.07-0.05-1.58-0.33c-0.34-0.19-0.62-0.42-0.84-0.71c-0.33-0.42-0.54-0.94-0.59-1.46   C651.8,521.16,651.9,520.62,652.18,520.11z"/>
	<path class="st0" d="M42.67,394c-0.55-1.17-1.43-2.15-2.51-2.83c-1.08-0.68-2.38-1.05-3.75-1.01c-0.91,0.03-1.78,0.25-2.56,0.61   c-1.17,0.55-2.16,1.43-2.83,2.51c-0.68,1.08-1.05,2.38-1,3.75c0.03,0.91,0.25,1.78,0.61,2.57c0.54,1.17,1.42,2.15,2.5,2.83   c1.08,0.68,2.38,1.05,3.75,1c0.91-0.03,1.78-0.25,2.56-0.61c1.17-0.54,2.15-1.42,2.83-2.5c0.49-0.79,0.83-1.7,0.95-2.66   l140.47-5.02c-0.25-0.72-0.52-1.43-0.76-2.15l-139.79,5C43.05,394.96,42.88,394.47,42.67,394z M40.82,398.39   c-0.31,0.8-0.85,1.51-1.54,2.02c-0.7,0.51-1.54,0.82-2.47,0.85c-0.62,0.02-1.21-0.09-1.75-0.29c-0.81-0.31-1.52-0.85-2.02-1.55   c-0.51-0.69-0.81-1.54-0.85-2.47c-0.02-0.62,0.08-1.2,0.28-1.75c0.31-0.81,0.85-1.51,1.55-2.02c0.69-0.51,1.54-0.82,2.47-0.85   c0.62-0.02,1.2,0.09,1.75,0.29c0.81,0.31,1.52,0.85,2.02,1.55c0.51,0.69,0.81,1.54,0.85,2.46   C41.13,397.26,41.02,397.85,40.82,398.39z"/>
	<path class="st0" d="M86.33,299.81c-0.11-0.96-0.51-1.85-1.12-2.59c-0.61-0.73-1.44-1.29-2.42-1.57c-0.66-0.19-1.32-0.24-1.96-0.16   c-0.96,0.11-1.85,0.51-2.59,1.12c-0.73,0.61-1.29,1.44-1.57,2.42c-0.19,0.65-0.24,1.31-0.16,1.95c0.11,0.96,0.51,1.85,1.12,2.59   c0.61,0.73,1.44,1.3,2.42,1.57c0.65,0.19,1.31,0.24,1.95,0.16c0.96-0.11,1.85-0.51,2.59-1.12c0.46-0.38,0.85-0.86,1.16-1.41   l83.15,23.92c-0.08-0.78-0.16-1.55-0.24-2.33l-82.32-23.68C86.37,300.39,86.37,300.1,86.33,299.81z M84.08,301.17   c-0.1,0.36-0.28,0.69-0.5,0.97c-0.34,0.42-0.8,0.73-1.3,0.9c-0.51,0.16-1.06,0.19-1.62,0.03c-0.37-0.11-0.69-0.28-0.98-0.51   c-0.42-0.34-0.73-0.8-0.9-1.3c-0.16-0.51-0.18-1.06-0.02-1.61c0.11-0.37,0.28-0.7,0.51-0.98c0.33-0.42,0.79-0.73,1.3-0.9   c0.51-0.16,1.06-0.18,1.61-0.02c0.36,0.1,0.7,0.28,0.97,0.5c0.42,0.33,0.73,0.79,0.9,1.3C84.22,300.06,84.24,300.61,84.08,301.17z"/>
	<path class="st0" d="M711.94,446.05c1.34,0.26,2.63-0.62,2.89-1.95c0.26-1.34-0.62-2.63-1.96-2.88c-1.34-0.26-2.63,0.61-2.89,1.95   C709.73,444.5,710.61,445.8,711.94,446.05z"/>
	<path class="st0" d="M163.02,519.16c-1.78,1.17-2.26,3.56-1.09,5.34c1.17,1.77,3.56,2.26,5.34,1.09c1.46-0.97,2.05-2.75,1.56-4.35   l63.4-41.92c-0.46-0.56-0.93-1.12-1.38-1.69l-63.21,41.79C166.36,518.35,164.48,518.19,163.02,519.16z"/>
	<path class="st0" d="M131.01,562.85c-1.7,1.29-2.03,3.7-0.74,5.4c1.29,1.7,3.7,2.03,5.4,0.74c1.39-1.06,1.87-2.88,1.27-4.44   l101.72-77.6c-0.48-0.55-0.96-1.1-1.43-1.65l-101.61,77.51C134.28,561.83,132.4,561.8,131.01,562.85z"/>
	<path class="st0" d="M713.36,331.82c-0.91,0.11-1.75,0.4-2.5,0.82c-1.12,0.65-2.03,1.6-2.62,2.73c-0.43,0.83-0.69,1.76-0.73,2.73   l-49.32,5.85l4.79-6.08l14.1-1.67c0.09,0.28,0.22,0.55,0.36,0.8c0.48,0.84,1.19,1.51,2.03,1.95c0.84,0.43,1.83,0.63,2.85,0.51   c0.67-0.08,1.3-0.29,1.86-0.61c0.84-0.48,1.51-1.19,1.95-2.03c0.44-0.84,0.64-1.83,0.52-2.85c-0.08-0.67-0.3-1.3-0.62-1.87   c-0.47-0.84-1.18-1.51-2.03-1.94c-0.84-0.44-1.83-0.64-2.84-0.52c-0.68,0.08-1.31,0.3-1.87,0.62c-0.84,0.47-1.51,1.18-1.95,2.03   c-0.28,0.53-0.45,1.13-0.52,1.75l-14.99,1.78l-6.7,8.5l-86.44,10.26l1.94,1.96l82.6-9.8l-4.99,6.34l-72.53,8.61l1.94,1.96   l71.74-8.51l6.9-8.76l51.48-6.11c0.15,0.51,0.35,0.99,0.61,1.44c0.64,1.12,1.59,2.03,2.73,2.61c1.13,0.59,2.46,0.85,3.82,0.69   c0.91-0.11,1.76-0.39,2.5-0.82c1.13-0.64,2.03-1.59,2.62-2.73c0.58-1.13,0.85-2.46,0.69-3.82c-0.11-0.9-0.4-1.75-0.82-2.5   c-0.65-1.12-1.59-2.03-2.73-2.61C716.04,331.93,714.72,331.66,713.36,331.82z M679.09,333.78c0.14-0.52,0.44-0.97,0.85-1.32   c0.4-0.35,0.91-0.59,1.48-0.65c0.38-0.04,0.75-0.01,1.09,0.09c0.52,0.15,0.98,0.45,1.33,0.85c0.35,0.41,0.59,0.91,0.65,1.48   c0.05,0.38,0.01,0.75-0.09,1.1c-0.15,0.52-0.45,0.98-0.85,1.33c-0.41,0.35-0.91,0.58-1.48,0.65c-0.38,0.05-0.75,0.01-1.1-0.09   c-0.52-0.15-0.98-0.45-1.33-0.85c-0.35-0.4-0.58-0.91-0.65-1.48C678.95,334.49,678.98,334.13,679.09,333.78z M718.57,337.89   c0.07,0.62,0.02,1.21-0.14,1.77c-0.24,0.83-0.72,1.57-1.37,2.14c-0.66,0.56-1.46,0.95-2.39,1.05c-0.61,0.07-1.21,0.01-1.76-0.15   c-0.83-0.24-1.58-0.73-2.14-1.38s-0.94-1.47-1.05-2.39c-0.07-0.61-0.02-1.21,0.14-1.76c0.24-0.83,0.73-1.57,1.38-2.14   c0.65-0.56,1.46-0.95,2.39-1.05c0.61-0.07,1.21-0.01,1.76,0.15c0.83,0.24,1.58,0.72,2.14,1.38   C718.09,336.16,718.46,336.97,718.57,337.89z"/>
	<path class="st0" d="M548.1,628.01c1.27,1.71,3.68,2.06,5.39,0.79s2.06-3.68,0.79-5.39c-1.04-1.4-2.86-1.89-4.42-1.32l-31.62-42.27   c-0.78,0.17-1.57,0.32-2.36,0.48l32.23,43.09C547.11,624.72,547.06,626.6,548.1,628.01z"/>
	<path class="st0" d="M705.92,445.02c0.27,1.26,0.9,2.42,1.8,3.32c0.9,0.91,2.09,1.56,3.43,1.82c0.9,0.17,1.79,0.16,2.63-0.02   c1.27-0.27,2.42-0.9,3.32-1.8c0.9-0.9,1.55-2.08,1.82-3.43c0.17-0.89,0.15-1.79-0.02-2.63c-0.27-1.27-0.9-2.42-1.81-3.32   c-0.9-0.91-2.08-1.56-3.42-1.82c-0.9-0.17-1.79-0.15-2.63,0.02c-1.27,0.27-2.42,0.91-3.32,1.81c-0.66,0.66-1.19,1.47-1.52,2.38   l-48.76-9.42l6.42-4.34l13.94,2.69c0.01,0.29,0.04,0.59,0.1,0.87c0.2,0.94,0.67,1.8,1.34,2.48c0.67,0.67,1.55,1.16,2.56,1.35   c0.67,0.13,1.33,0.12,1.96-0.02c0.94-0.2,1.8-0.67,2.48-1.34c0.67-0.67,1.16-1.55,1.36-2.55c0.13-0.67,0.11-1.33-0.02-1.96   c-0.2-0.94-0.67-1.8-1.35-2.47c-0.67-0.67-1.55-1.16-2.55-1.35c-0.67-0.13-1.34-0.11-1.96,0.02c-0.94,0.2-1.8,0.67-2.48,1.34   c-0.43,0.42-0.77,0.93-1.02,1.51l-14.82-2.86l-8.97,6.06l-12.26-2.37l2.7,2.74l7.01,1.35l-3.4,2.3l1.55,1.57l4.87-3.29l50.9,9.83   C705.76,443.99,705.81,444.51,705.92,445.02z M708.03,442.79c0.12-0.61,0.35-1.15,0.67-1.64c0.48-0.72,1.17-1.28,1.96-1.62   c0.79-0.34,1.68-0.46,2.59-0.28c0.61,0.12,1.15,0.35,1.64,0.67c0.72,0.48,1.29,1.17,1.62,1.96c0.34,0.79,0.45,1.68,0.27,2.59   c-0.12,0.61-0.35,1.16-0.68,1.64c-0.48,0.72-1.17,1.28-1.96,1.62c-0.8,0.34-1.68,0.46-2.59,0.28c-0.61-0.12-1.16-0.36-1.64-0.67   c-0.72-0.48-1.29-1.17-1.62-1.96C707.97,444.59,707.86,443.7,708.03,442.79z M680,429.58c0.07-0.38,0.21-0.72,0.42-1.02   c0.29-0.45,0.72-0.79,1.21-1c0.49-0.21,1.04-0.28,1.61-0.17c0.37,0.07,0.72,0.22,1.01,0.42c0.45,0.3,0.8,0.73,1.01,1.22   c0.21,0.5,0.28,1.04,0.17,1.61c-0.07,0.38-0.22,0.72-0.42,1.02c-0.3,0.45-0.73,0.8-1.22,1.01c-0.5,0.21-1.04,0.28-1.61,0.17   c-0.38-0.07-0.72-0.21-1.02-0.42c-0.45-0.3-0.8-0.73-1.01-1.22C679.96,430.7,679.9,430.15,680,429.58z"/>
	<path class="st0" d="M73.79,412.52c1.74-0.14,3.12-1.42,3.46-3.05l109.29-9.1c-0.27-0.7-0.55-1.41-0.81-2.11L77.08,407.3   c-0.6-1.56-2.16-2.6-3.91-2.46c-2.12,0.17-3.7,2.03-3.53,4.15C69.81,411.11,71.67,412.69,73.79,412.52z"/>
	<path class="st0" d="M219.55,462.53l-110.5,57.88c-1.15-1.2-3-1.56-4.56-0.75c-1.89,0.98-2.62,3.31-1.64,5.2s3.31,2.62,5.2,1.64   c1.55-0.81,2.32-2.52,2-4.16l110.76-58.02C220.39,463.73,219.97,463.13,219.55,462.53z"/>
	<path class="st0" d="M136.23,463.47c-2.01,0.7-3.07,2.9-2.37,4.91c0.7,2.01,2.9,3.07,4.91,2.37c1.65-0.58,2.66-2.16,2.58-3.83   l66.19-23.04c-0.38-0.64-0.77-1.27-1.14-1.91l-65.77,22.89C139.66,463.51,137.88,462.9,136.23,463.47z"/>
	<path class="st0" d="M120.87,599.52c-1.17-0.57-2.46-0.78-3.73-0.63c-1.27,0.15-2.51,0.67-3.55,1.57c-0.69,0.6-1.23,1.31-1.61,2.08   c-0.57,1.17-0.79,2.47-0.63,3.73c0.15,1.27,0.67,2.51,1.57,3.54c0.6,0.69,1.31,1.23,2.09,1.62c1.16,0.57,2.46,0.79,3.72,0.63   c1.27-0.15,2.51-0.67,3.55-1.58c0.69-0.59,1.23-1.31,1.61-2.08c0.57-1.16,0.79-2.46,0.63-3.72c-0.11-0.93-0.42-1.84-0.93-2.67   L246.5,495.6c-0.5-0.53-1-1.06-1.49-1.59L122.17,600.38C121.77,600.03,121.33,599.75,120.87,599.52z M122.25,606.64   c-0.23,0.83-0.68,1.6-1.38,2.21c-0.47,0.41-1,0.69-1.54,0.87c-0.83,0.27-1.72,0.28-2.55,0.06c-0.83-0.22-1.6-0.69-2.21-1.39   c-0.4-0.47-0.69-0.99-0.87-1.54c-0.27-0.83-0.28-1.71-0.06-2.54c0.22-0.83,0.68-1.6,1.38-2.21c0.47-0.4,0.99-0.69,1.54-0.87   c0.83-0.27,1.71-0.29,2.55-0.06c0.83,0.22,1.6,0.69,2.2,1.38c0.41,0.47,0.69,1,0.87,1.55   C122.45,604.93,122.47,605.81,122.25,606.64z"/>
	<path class="st0" d="M109.53,240.55c-1.88-1-4.21-0.28-5.21,1.59s-0.28,4.21,1.59,5.21c1.55,0.82,3.4,0.48,4.56-0.71l57.46,30.33   c0.05-0.79,0.1-1.58,0.16-2.38l-56.6-29.87C111.83,243.09,111.08,241.37,109.53,240.55z"/>
	<path class="st0" d="M134.36,196.55c-0.39-1.26-1.16-2.43-2.27-3.32c-0.74-0.59-1.57-1-2.42-1.25c-1.29-0.36-2.65-0.33-3.91,0.06   c-1.26,0.39-2.42,1.16-3.31,2.26c-0.59,0.74-1,1.57-1.25,2.42c-0.36,1.29-0.34,2.65,0.06,3.91c0.39,1.26,1.16,2.42,2.26,3.31   c0.74,0.59,1.56,1.01,2.42,1.25c1.29,0.37,2.65,0.34,3.91-0.05c0.92-0.29,1.79-0.77,2.54-1.44l22.73,17.72l11.75-1.31l8.7,6.96   c0.19-0.8,0.38-1.6,0.58-2.41l-8.61-6.88l-11.74,1.3l-22.01-17.14c0.27-0.48,0.47-0.98,0.62-1.49   C134.78,199.17,134.76,197.81,134.36,196.55z M132.41,198.97c-0.08,0.89-0.4,1.76-1,2.51c-0.4,0.5-0.88,0.9-1.4,1.18   c-0.79,0.43-1.69,0.61-2.58,0.54c-0.89-0.07-1.76-0.4-2.51-1c-0.5-0.4-0.89-0.87-1.18-1.4c-0.43-0.79-0.61-1.69-0.54-2.58   c0.07-0.89,0.4-1.76,1-2.51c0.4-0.5,0.87-0.89,1.41-1.17c0.78-0.43,1.69-0.62,2.57-0.55c0.89,0.08,1.76,0.4,2.51,1   c0.5,0.4,0.89,0.88,1.17,1.41C132.29,197.19,132.48,198.08,132.41,198.97z"/>
	<path class="st0" d="M540.2,208.19l-56.94,59.85l1.58,1.6l57.63-60.57l-0.27-11.81l5.59-5.82c-0.42-0.64-0.85-1.28-1.25-1.94   l-6.62,6.88L540.2,208.19z"/>
	<path class="st0" d="M194.27,143.14c-0.06-0.95-0.39-1.89-1.01-2.7c-0.42-0.54-0.92-0.98-1.48-1.29c-0.84-0.48-1.79-0.69-2.74-0.64   c-0.95,0.06-1.89,0.39-2.71,1.01c-0.54,0.41-0.97,0.92-1.29,1.47c-0.48,0.84-0.69,1.79-0.64,2.74c0.06,0.95,0.39,1.9,1.01,2.71   c0.41,0.54,0.92,0.97,1.47,1.29c0.84,0.48,1.79,0.69,2.74,0.64c0.6-0.03,1.2-0.18,1.77-0.44l9.47,12.36c0.37-0.7,0.75-1.4,1.13-2.1   l-8.87-11.58c0.18-0.23,0.36-0.47,0.5-0.72C194.11,145.04,194.33,144.09,194.27,143.14z M191.96,144.32   c-0.17,0.5-0.48,0.97-0.94,1.32c-0.3,0.23-0.64,0.39-0.98,0.48c-0.52,0.13-1.07,0.11-1.58-0.05c-0.51-0.17-0.97-0.48-1.32-0.94   c-0.23-0.31-0.39-0.64-0.48-0.99c-0.13-0.52-0.11-1.07,0.05-1.58c0.17-0.51,0.49-0.96,0.94-1.31c0.31-0.23,0.64-0.39,0.99-0.48   c0.52-0.14,1.07-0.12,1.58,0.05c0.5,0.17,0.96,0.49,1.31,0.94c0.23,0.3,0.39,0.64,0.48,0.98   C192.15,143.26,192.13,143.81,191.96,144.32z"/>
	<polygon class="st0" points="478.38,263.1 536.11,193.82 531.58,195.85 476.84,261.54  "/>
	<polygon class="st0" points="547.48,267.71 509.28,294.4 510.83,295.97 546.22,271.25  "/>
	<polygon class="st0" points="498.61,283.59 500.15,285.15 558.17,237.81 559.59,233.85  "/>
	<path class="st0" d="M662.77,398.16c1.36,0.02,2.48-1.08,2.5-2.44c0.02-1.36-1.08-2.48-2.44-2.5c-1.36-0.02-2.47,1.08-2.49,2.44   C660.33,397.02,661.42,398.14,662.77,398.16z"/>
	<path class="st0" d="M699,407.88c-1.75-0.02-3.24,1.13-3.73,2.72l-45.95-0.55l-13.27-13.59l20.19,0.24   c0.08,0.52,0.22,1.03,0.41,1.5c0.49,1.2,1.32,2.22,2.37,2.95c1.05,0.72,2.32,1.16,3.69,1.18c0.91,0.01,1.79-0.16,2.59-0.49   c1.19-0.49,2.22-1.32,2.94-2.36c0.73-1.05,1.17-2.33,1.18-3.7c0.02-0.91-0.16-1.79-0.49-2.59c-0.49-1.2-1.32-2.22-2.36-2.95   c-1.05-0.72-2.32-1.16-3.7-1.18c-0.91-0.01-1.78,0.17-2.59,0.49c-1.2,0.49-2.22,1.32-2.94,2.37c-0.53,0.77-0.91,1.65-1.08,2.61   l-22.37-0.27l-7.85-8.04l-26.43-0.32l2.17,2.2l23.33,0.28l5.7,5.84l-23.27-0.28l2.17,2.2l23.24,0.28l15.42,15.79l46.84,0.56   c0.45,1.6,1.91,2.79,3.66,2.81c2.13,0.03,3.88-1.68,3.9-3.81C702.84,409.65,701.13,407.91,699,407.88z M658.72,393.9   c0.35-0.8,0.92-1.47,1.64-1.95c0.72-0.47,1.57-0.74,2.5-0.73c0.62,0.01,1.2,0.14,1.74,0.37c0.79,0.34,1.47,0.92,1.94,1.64   c0.47,0.72,0.75,1.57,0.74,2.5c-0.01,0.62-0.14,1.2-0.37,1.73c-0.35,0.8-0.93,1.47-1.64,1.95c-0.72,0.47-1.57,0.74-2.5,0.73   c-0.62-0.01-1.2-0.14-1.73-0.37c-0.8-0.35-1.47-0.93-1.94-1.64s-0.75-1.57-0.74-2.5C658.35,395.02,658.49,394.44,658.72,393.9z"/>
	<path class="st0" d="M567.6,211.42c-0.01-0.01-0.03-0.02-0.04-0.03l-74.04,67.04l1.53,1.55l71.04-64.32L567.6,211.42z"/>
	<polygon class="st0" points="520.04,305.3 537.61,295.33 538.73,292.19 518.46,303.7  "/>
	<polygon class="st0" points="504.88,289.94 551.07,257.68 552.33,254.14 503.33,288.37  "/>
	<path class="st0" d="M489.51,274.37l73.34-66.41c-0.58-0.46-1.16-0.91-1.72-1.38l-73.16,66.24L489.51,274.37z"/>
	<polygon class="st0" points="465.7,250.26 489.18,214.9 485.46,216.57 464.14,248.68  "/>
	<path class="st0" d="M163.26,249.2c-1.8-1.14-4.18-0.6-5.32,1.2c-1.14,1.8-0.6,4.18,1.2,5.32c1.48,0.94,3.35,0.74,4.6-0.36   l5.9,3.73c0.1-0.79,0.22-1.58,0.33-2.37l-5.07-3.2C165.37,251.91,164.74,250.14,163.26,249.2z"/>
	<path class="st0" d="M107.59,282.61c-1.99-0.76-4.21,0.24-4.97,2.23c-0.76,1.99,0.24,4.21,2.23,4.97c1.64,0.62,3.43,0.05,4.44-1.27   l58.38,22.18c-0.04-0.79-0.09-1.58-0.13-2.37l-57.48-21.84C110.2,284.85,109.23,283.23,107.59,282.61z"/>
	<polygon class="st0" points="458.23,242.69 459.81,244.29 472.53,222.38 469.13,223.91  "/>
	<path class="st0" d="M70.9,356.75c-0.02-0.29-0.07-0.58-0.15-0.86c-0.25-0.93-0.77-1.76-1.47-2.4c-0.71-0.63-1.61-1.07-2.62-1.21   c-0.67-0.09-1.33-0.05-1.95,0.12c-0.93,0.25-1.76,0.77-2.4,1.47c-0.64,0.71-1.08,1.61-1.22,2.62c-0.09,0.67-0.04,1.34,0.12,1.96   c0.25,0.93,0.76,1.76,1.47,2.39c0.71,0.64,1.61,1.08,2.62,1.22c0.68,0.09,1.34,0.04,1.96-0.13c0.93-0.25,1.76-0.76,2.4-1.47   c0.4-0.44,0.72-0.97,0.94-1.56l14.95,2.07l8.64-6.53l81.53,11.3c-0.19-0.76-0.39-1.51-0.57-2.27L96.64,352.6l6.44-4.87l70.74,9.8   c-0.16-0.75-0.32-1.51-0.47-2.26l-70.86-9.82l-8.89,6.73l-51.35-7.12c-0.02-0.53-0.09-1.05-0.22-1.54   c-0.33-1.24-1.03-2.37-1.98-3.22c-0.95-0.86-2.17-1.45-3.52-1.63c-0.91-0.13-1.8-0.06-2.63,0.16c-1.25,0.33-2.37,1.03-3.22,1.98   c-0.85,0.95-1.44,2.16-1.63,3.52c-0.12,0.9-0.06,1.8,0.16,2.63c0.34,1.25,1.03,2.37,1.98,3.22c0.95,0.86,2.16,1.45,3.52,1.64   c0.91,0.13,1.8,0.06,2.63-0.16c1.25-0.34,2.37-1.03,3.22-1.98c0.62-0.69,1.11-1.53,1.39-2.45l49.19,6.82l-6.18,4.67L70.9,356.75z    M68.71,357.55c-0.05,0.38-0.18,0.73-0.36,1.04c-0.27,0.46-0.68,0.83-1.16,1.06c-0.48,0.23-1.03,0.34-1.6,0.26   c-0.38-0.05-0.73-0.18-1.03-0.36c-0.46-0.28-0.84-0.68-1.07-1.16c-0.23-0.48-0.34-1.03-0.26-1.6c0.05-0.38,0.18-0.73,0.36-1.04   c0.28-0.46,0.68-0.84,1.16-1.07c0.48-0.23,1.02-0.33,1.59-0.25c0.38,0.05,0.73,0.18,1.04,0.36c0.46,0.28,0.84,0.68,1.07,1.16   C68.7,356.43,68.79,356.98,68.71,357.55z M40.03,345.85c-0.08,0.61-0.29,1.17-0.58,1.67c-0.45,0.75-1.1,1.34-1.87,1.72   c-0.77,0.38-1.66,0.54-2.58,0.42c-0.61-0.08-1.17-0.29-1.67-0.59c-0.75-0.45-1.35-1.1-1.72-1.87c-0.38-0.77-0.54-1.65-0.41-2.57   c0.09-0.62,0.29-1.18,0.59-1.68c0.44-0.74,1.1-1.34,1.87-1.72c0.78-0.38,1.66-0.54,2.58-0.42c0.61,0.08,1.18,0.29,1.67,0.59   c0.75,0.45,1.35,1.1,1.72,1.87C39.99,344.05,40.15,344.93,40.03,345.85z"/>
	<path class="st0" d="M676.44,306.65c0.59,0.76,1.4,1.32,2.3,1.63c0.9,0.3,1.9,0.36,2.88,0.09c0.66-0.18,1.25-0.48,1.76-0.88   c0.76-0.59,1.32-1.4,1.63-2.3c0.31-0.9,0.36-1.9,0.09-2.89c-0.18-0.65-0.48-1.25-0.87-1.75c-0.59-0.76-1.4-1.32-2.3-1.63   c-0.9-0.3-1.9-0.36-2.89-0.09c-0.66,0.17-1.25,0.48-1.75,0.87c-0.76,0.59-1.32,1.4-1.63,2.3c-0.2,0.57-0.28,1.18-0.26,1.81   l-115.63,31.26l-0.89,2.49l117.09-31.66C676.1,306.17,676.26,306.43,676.44,306.65z M677.58,303.24c0.07-0.53,0.3-1.04,0.65-1.44   c0.35-0.4,0.81-0.71,1.37-0.86c0.37-0.1,0.74-0.12,1.1-0.07c0.53,0.07,1.04,0.3,1.44,0.65c0.4,0.35,0.7,0.81,0.85,1.37   c0.1,0.37,0.12,0.74,0.07,1.1c-0.07,0.53-0.3,1.03-0.65,1.44c-0.35,0.4-0.81,0.7-1.37,0.85c-0.37,0.1-0.74,0.12-1.09,0.07   c-0.53-0.07-1.03-0.3-1.44-0.65c-0.4-0.35-0.71-0.81-0.86-1.37C677.56,303.96,677.54,303.59,677.58,303.24z"/>
	<polygon class="st0" points="452.49,236.88 454.07,238.48 460.2,227.92 456.8,229.45  "/>
	<path class="st0" d="M673.44,275.07c-0.73-2-2.94-3.03-4.94-2.3c-1.64,0.6-2.63,2.2-2.52,3.87l-98.28,36.25l-0.95,2.67l99.98-36.88   c0.99,1.34,2.78,1.93,4.42,1.33C673.14,279.28,674.17,277.06,673.44,275.07z"/>
	<polygon class="st0" points="523.9,309.2 525.53,310.85 533.33,307.3 534.35,304.45  "/>
	<path class="st0" d="M129.4,196.6c-1.1-0.88-2.71-0.7-3.59,0.4c-0.88,1.1-0.7,2.71,0.4,3.59c1.1,0.88,2.71,0.7,3.59-0.4   S130.5,197.48,129.4,196.6z"/>
	<polygon class="st0" points="472.2,256.84 511.61,204.83 507.47,206.68 470.65,255.28  "/>
	<path class="st0" d="M250.8,500.08c-0.2-0.21-0.4-0.42-0.6-0.62l-94.98,87.72c-0.24-0.16-0.5-0.31-0.76-0.43   c-0.88-0.4-1.85-0.52-2.79-0.38c-0.94,0.15-1.85,0.56-2.6,1.25c-0.5,0.46-0.89,1.01-1.15,1.59c-0.4,0.88-0.52,1.85-0.38,2.79   c0.15,0.94,0.56,1.85,1.26,2.6c0.46,0.5,1,0.88,1.59,1.15c0.88,0.4,1.85,0.52,2.79,0.38c0.94-0.15,1.85-0.56,2.6-1.26   c0.5-0.45,0.88-1,1.15-1.59c0.4-0.88,0.52-1.85,0.38-2.79c-0.09-0.59-0.29-1.18-0.6-1.72l95.05-87.79   C251.43,500.68,251.1,500.38,250.8,500.08z M155.12,591.88c-0.13,0.52-0.39,1.01-0.81,1.4c-0.28,0.26-0.6,0.45-0.94,0.57   c-0.51,0.18-1.06,0.21-1.58,0.09c-0.52-0.13-1-0.39-1.39-0.82c-0.26-0.28-0.45-0.6-0.57-0.94c-0.19-0.5-0.22-1.05-0.09-1.58   c0.12-0.52,0.39-1,0.82-1.39c0.28-0.26,0.6-0.45,0.93-0.57c0.5-0.19,1.05-0.22,1.58-0.09c0.52,0.12,1.01,0.39,1.4,0.81   c0.26,0.28,0.45,0.6,0.57,0.93C155.21,590.81,155.24,591.36,155.12,591.88z"/>
	<path class="st0" d="M71.56,567.5c-1.22,0.7-1.64,2.26-0.94,3.48s2.26,1.64,3.48,0.94c1.22-0.7,1.64-2.26,0.94-3.48   C74.35,567.22,72.79,566.8,71.56,567.5z"/>
	<path class="st0" d="M78.3,573.86c0.81-1.06,1.28-2.34,1.38-3.66c0.07-0.96-0.06-1.95-0.42-2.89l67.24-38.64l3.08-11.41l77.44-44.5   c-0.46-0.6-0.91-1.2-1.36-1.8l-78,44.83l-3.09,11.4l-66.43,38.18c-0.35-0.42-0.73-0.8-1.16-1.12c-1.06-0.81-2.34-1.28-3.65-1.38   c-1.32-0.1-2.69,0.19-3.92,0.89c-0.82,0.47-1.51,1.09-2.05,1.8c-0.81,1.07-1.28,2.35-1.38,3.66c-0.09,1.32,0.19,2.68,0.9,3.91   c0.47,0.82,1.09,1.51,1.8,2.05c1.07,0.81,2.34,1.28,3.66,1.38c1.32,0.1,2.68-0.19,3.91-0.9C77.08,575.19,77.77,574.57,78.3,573.86z    M75.13,573.71c-0.55,0.32-1.14,0.51-1.73,0.58c-0.89,0.11-1.8-0.05-2.6-0.44s-1.49-1.01-1.97-1.85c-0.32-0.55-0.51-1.14-0.58-1.74   c-0.11-0.89,0.04-1.8,0.43-2.59c0.4-0.8,1.01-1.49,1.85-1.97c0.55-0.32,1.15-0.51,1.74-0.58c0.89-0.11,1.8,0.04,2.59,0.43   c0.8,0.4,1.49,1.01,1.97,1.85c0.32,0.56,0.51,1.14,0.58,1.73c0.11,0.89-0.05,1.8-0.44,2.6C76.59,572.54,75.97,573.23,75.13,573.71z   "/>
	<path class="st0" d="M69.03,501.78l41.48-19.76l17.9,6.35l-18.23,8.69c-0.29-0.43-0.65-0.82-1.03-1.16   c-0.97-0.86-2.16-1.41-3.43-1.6c-1.26-0.19-2.6-0.02-3.83,0.57c-0.83,0.39-1.54,0.93-2.11,1.58c-0.86,0.96-1.41,2.16-1.6,3.42   c-0.19,1.26-0.02,2.61,0.58,3.84c0.39,0.83,0.93,1.54,1.58,2.11c0.97,0.86,2.16,1.41,3.42,1.61c1.26,0.19,2.6,0.02,3.84-0.58   c0.82-0.39,1.53-0.94,2.11-1.58c0.86-0.97,1.41-2.16,1.6-3.43c0.14-0.92,0.09-1.88-0.19-2.82l20.2-9.62l10.59,3.76l74.36-35.42   c-0.41-0.61-0.82-1.22-1.22-1.83l-73.26,34.9l-7.7-2.73l77.81-37.07c-0.39-0.62-0.79-1.23-1.17-1.85l-79.53,37.89l-20.8-7.38   l-42.29,20.15c-1.11-1.24-2.95-1.66-4.52-0.91c-1.92,0.92-2.74,3.22-1.82,5.14s3.22,2.73,5.14,1.82   C68.46,505.12,69.3,503.43,69.03,501.78z M108.59,503.13c-0.44,0.74-1.09,1.36-1.92,1.76c-0.56,0.27-1.14,0.41-1.72,0.43   c-0.86,0.04-1.72-0.18-2.46-0.61c-0.74-0.44-1.36-1.08-1.76-1.92c-0.27-0.56-0.4-1.14-0.43-1.72c-0.04-0.87,0.18-1.73,0.62-2.47   c0.44-0.74,1.09-1.36,1.93-1.76c0.56-0.27,1.14-0.41,1.72-0.43c0.87-0.04,1.72,0.18,2.46,0.62c0.74,0.44,1.36,1.08,1.76,1.92   c0.27,0.56,0.4,1.14,0.43,1.72C109.24,501.52,109.03,502.38,108.59,503.13z"/>
	<path class="st0" d="M99.36,460.23l-4.04,6.61l-13.8,3.33c-0.13-0.26-0.28-0.52-0.45-0.75c-0.58-0.77-1.36-1.36-2.25-1.69   c-0.89-0.33-1.89-0.41-2.89-0.17c-0.66,0.16-1.26,0.44-1.77,0.83c-0.77,0.58-1.36,1.36-1.69,2.25c-0.34,0.89-0.41,1.89-0.17,2.89   c0.16,0.66,0.45,1.26,0.83,1.78c0.57,0.78,1.35,1.36,2.25,1.69c0.89,0.34,1.89,0.41,2.88,0.18c0.67-0.16,1.26-0.45,1.78-0.83   c0.78-0.57,1.36-1.35,1.69-2.25c0.21-0.56,0.32-1.17,0.31-1.8l14.67-3.54l5.65-9.24l100.29-24.23c-0.36-0.66-0.7-1.32-1.05-1.98   l-97.63,23.59l4.21-6.89l90.7-21.91c-0.34-0.66-0.67-1.33-1-2l-91.09,22l-5.81,9.51l-50.39,12.17c-0.21-0.49-0.46-0.94-0.77-1.35   c-0.77-1.04-1.82-1.83-3.02-2.27c-1.2-0.45-2.55-0.56-3.88-0.23c-0.89,0.21-1.7,0.6-2.39,1.11c-1.04,0.77-1.83,1.82-2.28,3.02   c-0.44,1.19-0.55,2.54-0.23,3.88c0.21,0.88,0.6,1.69,1.11,2.39c0.77,1.04,1.82,1.83,3.02,2.27c1.2,0.45,2.54,0.56,3.87,0.24   c0.89-0.21,1.69-0.6,2.39-1.11c1.04-0.77,1.82-1.83,2.27-3.02c0.33-0.87,0.47-1.83,0.4-2.79L99.36,460.23z M79.82,472.82   c-0.08,0.53-0.33,1.02-0.69,1.41c-0.36,0.39-0.83,0.69-1.39,0.82c-0.37,0.09-0.74,0.1-1.09,0.04c-0.53-0.09-1.03-0.33-1.42-0.69   c-0.4-0.36-0.69-0.83-0.82-1.39c-0.09-0.38-0.1-0.74-0.04-1.1c0.09-0.53,0.33-1.03,0.69-1.42c0.36-0.39,0.83-0.68,1.39-0.82   c0.38-0.09,0.74-0.1,1.1-0.04c0.53,0.09,1.03,0.33,1.42,0.69c0.39,0.36,0.68,0.83,0.82,1.39   C79.87,472.09,79.88,472.46,79.82,472.82z M48.87,473.1c-0.14,0.86-0.54,1.65-1.11,2.28c-0.58,0.63-1.34,1.11-2.24,1.33   c-0.6,0.14-1.2,0.16-1.77,0.06c-0.86-0.14-1.65-0.53-2.29-1.11c-0.63-0.58-1.11-1.34-1.32-2.24c-0.15-0.61-0.16-1.2-0.07-1.78   c0.14-0.85,0.53-1.65,1.11-2.28c0.59-0.64,1.34-1.11,2.24-1.33c0.6-0.14,1.2-0.16,1.77-0.06c0.86,0.14,1.66,0.53,2.29,1.11   c0.63,0.58,1.11,1.34,1.32,2.25C48.94,471.93,48.96,472.52,48.87,473.1z"/>
	<path class="st0" d="M558.91,344.66l1.8,1.83l144.81-32.13c0.19,0.49,0.45,0.95,0.74,1.37c0.75,1.05,1.79,1.86,2.98,2.32   c1.19,0.47,2.53,0.61,3.87,0.31c0.89-0.2,1.71-0.57,2.41-1.07c1.05-0.75,1.87-1.79,2.33-2.98c0.47-1.19,0.6-2.53,0.3-3.86   c-0.2-0.89-0.57-1.71-1.07-2.41c-0.75-1.05-1.79-1.86-2.97-2.33c-1.19-0.47-2.53-0.61-3.87-0.3c-0.89,0.19-1.71,0.57-2.41,1.07   c-1.06,0.75-1.86,1.79-2.33,2.97c-0.34,0.87-0.51,1.82-0.45,2.79L558.91,344.66z M707.29,311.07c0.16-0.85,0.56-1.64,1.15-2.26   c0.6-0.63,1.36-1.09,2.27-1.29c0.61-0.13,1.21-0.14,1.77-0.03c0.85,0.16,1.65,0.57,2.27,1.16c0.62,0.59,1.08,1.36,1.28,2.27   c0.13,0.6,0.14,1.2,0.04,1.77c-0.16,0.85-0.57,1.64-1.16,2.26c-0.59,0.62-1.36,1.09-2.27,1.29c-0.6,0.13-1.2,0.13-1.77,0.03   c-0.85-0.16-1.64-0.56-2.27-1.16c-0.62-0.59-1.08-1.36-1.28-2.26C707.18,312.24,707.18,311.64,707.29,311.07z"/>
	<path class="st0" d="M453.14,669.9l-24.33-85.93c-0.78-0.12-1.57-0.25-2.37-0.38l24.6,86.89c-1.41,0.88-2.14,2.62-1.67,4.31   c0.57,2.05,2.7,3.24,4.75,2.67s3.24-2.7,2.67-4.75C456.33,671.03,454.8,669.92,453.14,669.9z"/>
	<path class="st0" d="M438.55,687.87c-0.5-0.82-1.22-1.48-2.08-1.89c-0.54-0.26-1.14-0.42-1.76-0.47l-2.18-14.94l-6.88-5.14   l0.33,2.96l4.53,3.38l2.05,14.05c-0.27,0.1-0.54,0.23-0.79,0.38c-0.82,0.5-1.48,1.23-1.9,2.08c-0.41,0.85-0.58,1.84-0.43,2.86   c0.1,0.67,0.33,1.29,0.66,1.84c0.5,0.82,1.23,1.48,2.08,1.9c0.86,0.42,1.85,0.59,2.86,0.44c0.67-0.1,1.29-0.33,1.85-0.67   c0.82-0.5,1.48-1.22,1.89-2.08c0.42-0.86,0.59-1.85,0.44-2.85C439.12,689.04,438.89,688.42,438.55,687.87z M437.01,691.13   c-0.14,0.52-0.42,0.99-0.82,1.35c-0.4,0.36-0.89,0.61-1.46,0.69c-0.38,0.06-0.75,0.03-1.1-0.06c-0.52-0.14-0.99-0.42-1.35-0.82   c-0.36-0.4-0.6-0.89-0.69-1.46c-0.06-0.38-0.03-0.75,0.06-1.1c0.14-0.52,0.42-0.99,0.82-1.35c0.39-0.36,0.89-0.6,1.46-0.69   c0.38-0.06,0.75-0.03,1.1,0.06c0.52,0.13,0.99,0.42,1.34,0.82c0.36,0.39,0.61,0.89,0.69,1.46   C437.12,690.41,437.09,690.78,437.01,691.13z"/>
	<path class="st0" d="M25.53,441.65c-1.4,0.2-2.37,1.49-2.17,2.88s1.49,2.37,2.88,2.17c1.4-0.2,2.37-1.49,2.17-2.88   C28.22,442.42,26.93,441.45,25.53,441.65z"/>
	<path class="st0" d="M28.38,312.66c1.37,0.34,2.75-0.5,3.09-1.87c0.34-1.37-0.5-2.75-1.87-3.09c-1.37-0.34-2.75,0.5-3.09,1.87   S27.01,312.32,28.38,312.66z"/>
	<path class="st0" d="M23.49,384.95c0.04-1.41-1.07-2.58-2.48-2.62c-1.41-0.04-2.58,1.07-2.62,2.48c-0.04,1.41,1.07,2.58,2.48,2.62   C22.28,387.47,23.45,386.36,23.49,384.95z"/>
	<path class="st0" d="M62.85,246.1c1.23,0.59,2.7,0.08,3.29-1.15c0.59-1.23,0.07-2.7-1.16-3.29c-1.23-0.59-2.7-0.07-3.29,1.16   C61.1,244.04,61.62,245.51,62.85,246.1z"/>
	<path class="st0" d="M61.04,249.86c0.83,0.4,1.7,0.6,2.55,0.64c1.3,0.06,2.57-0.27,3.67-0.91c0.8-0.47,1.52-1.12,2.07-1.91   l44.79,21.45l-7.3,2.57l-12.81-6.13c0.07-0.28,0.11-0.58,0.12-0.87c0.04-0.96-0.2-1.91-0.67-2.73c-0.48-0.82-1.21-1.51-2.13-1.95   c-0.61-0.29-1.26-0.45-1.9-0.48c-0.96-0.04-1.91,0.2-2.73,0.67c-0.82,0.48-1.52,1.21-1.96,2.13c-0.29,0.61-0.45,1.26-0.48,1.91   c-0.05,0.96,0.19,1.91,0.68,2.73c0.48,0.82,1.21,1.52,2.12,1.96c0.62,0.3,1.27,0.45,1.91,0.48c0.96,0.05,1.91-0.19,2.73-0.67   c0.52-0.3,0.99-0.71,1.37-1.2l13.61,6.52l10.21-3.59l50.38,24.13c0-0.8,0.03-1.6,0.04-2.39l-47.52-22.75l7.61-2.68l40.05,19.18   c0.03-0.79,0.07-1.58,0.1-2.36l-40.03-19.17l-10.51,3.7l-46.76-22.39c0.15-0.51,0.23-1.02,0.26-1.54c0.06-1.29-0.26-2.57-0.91-3.66   c-0.64-1.1-1.62-2.04-2.86-2.62c-0.83-0.4-1.69-0.61-2.55-0.64c-1.29-0.06-2.57,0.26-3.67,0.9c-1.1,0.65-2.03,1.62-2.62,2.86   c-0.39,0.82-0.6,1.7-0.64,2.55c-0.06,1.3,0.26,2.57,0.91,3.67C58.83,248.34,59.81,249.27,61.04,249.86z M91.71,265.67   c-0.17,0.35-0.39,0.64-0.66,0.88c-0.4,0.36-0.9,0.59-1.43,0.66c-0.53,0.08-1.08,0.01-1.6-0.24c-0.34-0.16-0.64-0.4-0.87-0.66   c-0.36-0.4-0.59-0.91-0.67-1.43c-0.08-0.53-0.01-1.08,0.24-1.6c0.17-0.35,0.4-0.64,0.66-0.88c0.4-0.36,0.91-0.59,1.43-0.67   c0.53-0.08,1.08,0,1.6,0.25c0.35,0.17,0.64,0.39,0.88,0.66c0.36,0.4,0.59,0.91,0.67,1.43C92.03,264.61,91.95,265.16,91.71,265.67z    M59.89,241.95c0.27-0.56,0.63-1.04,1.07-1.42c0.64-0.57,1.45-0.94,2.3-1.07c0.86-0.12,1.74-0.01,2.58,0.39   c0.56,0.27,1.03,0.64,1.41,1.07c0.57,0.65,0.95,1.46,1.07,2.31c0.13,0.85,0.01,1.74-0.39,2.58c-0.27,0.56-0.63,1.03-1.06,1.42   c-0.65,0.57-1.46,0.94-2.31,1.07c-0.85,0.13-1.74,0.01-2.58-0.39c-0.56-0.27-1.03-0.63-1.41-1.07c-0.57-0.65-0.95-1.45-1.07-2.31   C59.37,243.68,59.49,242.79,59.89,241.95z"/>
	<path class="st0" d="M23.9,314.8c0.89,0.98,2.07,1.71,3.45,2.05c0.92,0.23,1.84,0.26,2.72,0.11c1.32-0.21,2.54-0.81,3.53-1.69   c0.71-0.65,1.3-1.46,1.69-2.38l75.32,18.46l10.11-6.13l49.5,12.13c-0.11-0.8-0.23-1.59-0.33-2.39l-49.54-12.14l-10.1,6.12   L35.83,310.7c0.04-0.55,0.02-1.08-0.07-1.61c-0.21-1.32-0.81-2.54-1.69-3.52c-0.89-0.98-2.08-1.72-3.45-2.06   c-0.92-0.23-1.84-0.25-2.72-0.11c-1.32,0.22-2.55,0.81-3.53,1.7c-0.98,0.89-1.71,2.07-2.05,3.45c-0.23,0.92-0.25,1.84-0.11,2.72   C22.42,312.59,23.01,313.81,23.9,314.8z M24.5,309.08c0.15-0.62,0.42-1.18,0.78-1.66c0.53-0.72,1.27-1.27,2.1-1.58   c0.84-0.31,1.76-0.38,2.69-0.15c0.62,0.15,1.18,0.43,1.66,0.78c0.72,0.54,1.27,1.27,1.58,2.1c0.31,0.84,0.38,1.76,0.15,2.69   c-0.15,0.63-0.42,1.18-0.77,1.66c-0.54,0.72-1.28,1.27-2.11,1.58c-0.83,0.31-1.76,0.38-2.69,0.15c-0.62-0.15-1.18-0.42-1.66-0.77   c-0.72-0.54-1.27-1.28-1.58-2.11S24.28,310.02,24.5,309.08z"/>
	<path class="st0" d="M116.64,424.03l75.25-10.65c-0.31-0.71-0.63-1.42-0.94-2.13l-75.55,10.69l-7.1,9.44l-75.86,10.74   c-0.17-0.52-0.38-1.01-0.66-1.47c-0.69-1.15-1.69-2.06-2.88-2.64c-1.19-0.58-2.57-0.83-3.97-0.63c-0.94,0.13-1.81,0.45-2.57,0.91   c-1.15,0.69-2.06,1.7-2.64,2.89c-0.58,1.19-0.82,2.56-0.62,3.96c0.13,0.94,0.45,1.81,0.91,2.57c0.69,1.15,1.69,2.06,2.89,2.64   c1.19,0.58,2.56,0.82,3.96,0.62c0.94-0.13,1.81-0.45,2.57-0.91c1.15-0.69,2.06-1.69,2.64-2.88c0.42-0.87,0.67-1.84,0.69-2.84   l76.78-10.87L116.64,424.03z M30.35,445.35c-0.23,0.87-0.72,1.65-1.37,2.25c-0.66,0.6-1.49,1-2.44,1.14   c-0.63,0.09-1.25,0.05-1.83-0.1c-0.87-0.23-1.65-0.72-2.25-1.37c-0.6-0.66-1-1.49-1.14-2.44c-0.09-0.63-0.05-1.25,0.11-1.83   c0.22-0.87,0.71-1.65,1.37-2.25c0.67-0.6,1.49-1,2.44-1.14c0.63-0.09,1.25-0.04,1.83,0.11c0.87,0.23,1.65,0.71,2.25,1.37   c0.6,0.67,1,1.49,1.14,2.44C30.55,444.17,30.51,444.78,30.35,445.35z"/>
	<path class="st0" d="M23.44,391.28c1.25-0.48,2.32-1.32,3.09-2.4c0.56-0.78,0.97-1.7,1.15-2.68l77.52,2.15l8.59-8.12l66.43,1.84   c-0.23-0.75-0.46-1.51-0.68-2.26l-66.62-1.85l-8.59,8.12l-76.59-2.12c-0.08-0.54-0.21-1.06-0.41-1.56   c-0.48-1.25-1.32-2.32-2.4-3.08c-1.07-0.77-2.39-1.24-3.81-1.28c-0.95-0.03-1.86,0.14-2.69,0.47c-1.25,0.49-2.32,1.33-3.09,2.4   c-0.77,1.07-1.24,2.39-1.28,3.8c-0.03,0.95,0.15,1.86,0.47,2.69c0.49,1.25,1.32,2.32,2.4,3.09c1.07,0.77,2.39,1.24,3.8,1.28   C21.7,391.77,22.61,391.6,23.44,391.28z M17.04,387.35c-0.48-0.75-0.74-1.64-0.71-2.6c0.02-0.64,0.16-1.24,0.41-1.78   c0.37-0.82,0.97-1.51,1.72-1.99c0.76-0.48,1.64-0.74,2.6-0.71c0.64,0.02,1.24,0.17,1.78,0.41c0.82,0.37,1.51,0.97,1.99,1.72   c0.48,0.76,0.74,1.64,0.71,2.6c-0.02,0.64-0.16,1.24-0.41,1.78c-0.37,0.82-0.98,1.51-1.73,1.99c-0.75,0.48-1.64,0.74-2.6,0.71   c-0.64-0.02-1.24-0.16-1.78-0.41C18.21,388.71,17.52,388.1,17.04,387.35z"/>
	<path class="st0" d="M494.69,715.53c-1.34,0.44-2.06,1.89-1.62,3.23c0.44,1.34,1.89,2.06,3.23,1.62c1.34-0.44,2.06-1.89,1.62-3.23   C497.47,715.81,496.02,715.09,494.69,715.53z"/>
	<path class="st0" d="M43.88,469.98c-1.32,0.32-2.14,1.65-1.82,2.98c0.32,1.32,1.65,2.13,2.98,1.81c1.32-0.32,2.14-1.65,1.82-2.97   C46.54,470.47,45.21,469.66,43.88,469.98z"/>
	<path class="st0" d="M690.36,499.43c-0.85-0.33-1.74-0.46-2.6-0.42c-1.29,0.05-2.53,0.48-3.57,1.22c-0.76,0.54-1.42,1.25-1.9,2.09   l-14.98-5.64l-1.7,1.68l15.92,6c-0.11,0.52-0.15,1.04-0.13,1.55c0.05,1.3,0.49,2.54,1.22,3.58c0.74,1.05,1.79,1.89,3.07,2.37   c0.86,0.32,1.74,0.45,2.6,0.42c1.3-0.05,2.54-0.48,3.58-1.22c1.05-0.74,1.88-1.79,2.37-3.07c0.32-0.86,0.46-1.74,0.42-2.61   c-0.05-1.29-0.48-2.53-1.22-3.57C692.7,500.76,691.65,499.91,690.36,499.43z M692.2,507.21c-0.22,0.58-0.54,1.08-0.94,1.5   c-0.6,0.63-1.37,1.06-2.21,1.26c-0.84,0.2-1.74,0.16-2.6-0.16c-0.58-0.22-1.08-0.54-1.5-0.94c-0.63-0.6-1.07-1.37-1.27-2.21   c-0.2-0.84-0.16-1.73,0.17-2.6c0.22-0.58,0.55-1.08,0.94-1.51c0.6-0.62,1.36-1.06,2.2-1.26c0.84-0.2,1.74-0.16,2.6,0.16   c0.58,0.22,1.08,0.55,1.5,0.94c0.63,0.6,1.07,1.37,1.27,2.21C692.56,505.45,692.52,506.34,692.2,507.21z"/>
	<path class="st0" d="M681.96,537.52c-0.8-0.44-1.66-0.69-2.52-0.78c-1.29-0.13-2.58,0.13-3.72,0.71c-0.83,0.43-1.58,1.04-2.17,1.8   l-33.03-18.03c-0.61,0.49-1.21,1-1.82,1.49l33.8,18.45c-0.17,0.5-0.29,1.01-0.34,1.52c-0.13,1.28,0.12,2.58,0.71,3.71   c0.58,1.14,1.51,2.12,2.72,2.77c0.8,0.44,1.66,0.7,2.52,0.78c1.29,0.13,2.58-0.12,3.71-0.71c1.13-0.59,2.11-1.51,2.77-2.72   c0.44-0.8,0.69-1.66,0.78-2.52c0.13-1.29-0.12-2.58-0.72-3.71C684.08,539.16,683.16,538.18,681.96,537.52z M682.69,545.48   c-0.3,0.55-0.69,1-1.14,1.36c-0.67,0.54-1.5,0.87-2.35,0.95c-0.86,0.08-1.74-0.08-2.56-0.52c-0.54-0.3-1-0.69-1.35-1.14   c-0.54-0.68-0.87-1.51-0.95-2.36c-0.08-0.86,0.08-1.74,0.53-2.55c0.3-0.54,0.68-0.99,1.13-1.36c0.68-0.54,1.51-0.86,2.36-0.94   c0.86-0.08,1.74,0.08,2.56,0.52c0.54,0.3,0.99,0.69,1.35,1.14c0.54,0.68,0.87,1.5,0.95,2.36   C683.3,543.79,683.13,544.67,682.69,545.48z"/>
	<path class="st0" d="M679.96,541.19c-1.2-0.65-2.69-0.22-3.34,0.98c-0.65,1.2-0.21,2.69,0.98,3.35c1.2,0.65,2.69,0.21,3.35-0.98   S681.15,541.84,679.96,541.19z"/>
	<path class="st0" d="M652.72,604.86c-0.71-0.62-1.52-1.07-2.37-1.34c-1.27-0.42-2.63-0.45-3.91-0.11c-0.93,0.25-1.82,0.7-2.59,1.34   l-56.56-49.12c-0.73,0.36-1.45,0.73-2.18,1.09l57.26,49.73c-0.29,0.47-0.51,0.96-0.68,1.46c-0.42,1.27-0.45,2.63-0.1,3.9   c0.34,1.28,1.06,2.48,2.13,3.41c0.71,0.62,1.53,1.07,2.37,1.34c1.28,0.41,2.64,0.44,3.91,0.1c1.27-0.34,2.47-1.06,3.4-2.13   c0.62-0.71,1.07-1.53,1.34-2.37c0.41-1.28,0.45-2.63,0.1-3.91C654.51,606.98,653.79,605.79,652.72,604.86z M652.8,610.6   c-0.11,0.88-0.47,1.74-1.1,2.46c-0.42,0.48-0.91,0.85-1.45,1.12c-0.8,0.4-1.71,0.55-2.59,0.44c-0.89-0.11-1.74-0.47-2.46-1.1   c-0.48-0.42-0.85-0.92-1.12-1.45c-0.39-0.81-0.55-1.71-0.44-2.59c0.11-0.89,0.47-1.74,1.1-2.46c0.42-0.49,0.91-0.86,1.45-1.12   c0.81-0.39,1.72-0.54,2.6-0.44c0.88,0.11,1.74,0.47,2.46,1.1c0.48,0.42,0.85,0.91,1.12,1.45   C652.76,608.81,652.91,609.72,652.8,610.6z"/>
	<path class="st0" d="M713.06,489.87c-1.33-0.46-2.79,0.24-3.25,1.57c-0.46,1.33,0.24,2.79,1.57,3.25c1.33,0.46,2.79-0.24,3.25-1.57   C715.1,491.79,714.39,490.33,713.06,489.87z"/>
	<path class="st0" d="M717.71,488.16c-0.79-1.06-1.9-1.9-3.24-2.36c-0.89-0.31-1.81-0.43-2.7-0.37c-1.34,0.09-2.61,0.56-3.67,1.35   c-0.77,0.58-1.43,1.33-1.91,2.21l-25.43-8.83c-0.2,0.72-0.44,1.44-0.73,2.13l25.42,8.82c-0.09,0.54-0.12,1.08-0.08,1.61   c0.09,1.34,0.56,2.61,1.36,3.66c0.79,1.06,1.91,1.91,3.24,2.37c0.89,0.31,1.81,0.42,2.7,0.37c1.34-0.09,2.61-0.57,3.67-1.36   c1.05-0.79,1.9-1.9,2.36-3.24c0.31-0.89,0.42-1.81,0.37-2.7C718.98,490.5,718.51,489.23,717.71,488.16z M716.58,493.8   c-0.21,0.6-0.53,1.13-0.93,1.58c-0.6,0.67-1.38,1.14-2.24,1.37c-0.87,0.23-1.79,0.21-2.69-0.1c-0.6-0.21-1.14-0.54-1.58-0.93   c-0.67-0.6-1.14-1.38-1.37-2.24c-0.23-0.87-0.21-1.79,0.1-2.69c0.21-0.61,0.53-1.14,0.93-1.58c0.6-0.67,1.39-1.14,2.25-1.37   c0.86-0.23,1.79-0.21,2.7,0.1c0.6,0.21,1.13,0.53,1.58,0.93c0.67,0.6,1.14,1.39,1.37,2.25S716.9,492.89,716.58,493.8z"/>
	<path class="st0" d="M734.04,356.2c-0.58-1.21-1.49-2.21-2.63-2.9c-1.13-0.69-2.47-1.06-3.89-0.99c-0.95,0.04-1.84,0.28-2.64,0.66   c-1.21,0.58-2.21,1.49-2.9,2.62c-0.5,0.82-0.84,1.77-0.95,2.76l-77.47,3.63l-7.96,8.74l-48.7,2.28l2.12,2.15l47.62-2.23l7.96-8.73   l76.53-3.59c0.12,0.53,0.29,1.05,0.52,1.53c0.58,1.21,1.49,2.21,2.62,2.9c1.13,0.69,2.48,1.06,3.89,1   c0.95-0.04,1.84-0.28,2.64-0.66c1.21-0.58,2.21-1.5,2.9-2.63c0.68-1.13,1.06-2.47,0.99-3.89   C734.66,357.9,734.42,357.01,734.04,356.2z M732.18,360.76c-0.3,0.84-0.86,1.58-1.57,2.11c-0.72,0.53-1.58,0.86-2.54,0.91   c-0.64,0.03-1.25-0.07-1.81-0.28c-0.84-0.31-1.58-0.86-2.11-1.57c-0.53-0.72-0.86-1.58-0.91-2.54c-0.03-0.64,0.07-1.25,0.27-1.81   c0.31-0.84,0.87-1.58,1.58-2.11c0.71-0.53,1.58-0.86,2.54-0.91c0.64-0.03,1.25,0.07,1.81,0.27c0.84,0.31,1.58,0.87,2.11,1.58   s0.86,1.58,0.91,2.54C732.49,359.59,732.39,360.2,732.18,360.76z"/>
	<path class="st0" d="M727.73,356.62c-1.41,0.07-2.5,1.26-2.43,2.67c0.07,1.41,1.26,2.5,2.67,2.43c1.41-0.07,2.5-1.26,2.43-2.67   C730.33,357.64,729.14,356.55,727.73,356.62z"/>
	<path class="st0" d="M614.72,626.34c-0.99,0.94-1.02,2.5-0.08,3.49c0.94,0.99,2.5,1.02,3.49,0.08s1.02-2.5,0.08-3.48   C617.27,625.44,615.71,625.4,614.72,626.34z"/>
	<path class="st0" d="M535.62,684.93c-0.98-0.85-2.18-1.39-3.44-1.57c-0.92-0.13-1.89-0.07-2.81,0.21l-21.76-44.65l7.32,2.52   l6.22,12.76c-0.23,0.18-0.45,0.38-0.63,0.6c-0.63,0.73-1.03,1.62-1.17,2.56c-0.13,0.94,0.01,1.93,0.46,2.85   c0.3,0.61,0.7,1.13,1.19,1.55c0.73,0.63,1.62,1.04,2.56,1.17c0.94,0.14,1.94,0,2.86-0.45c0.61-0.3,1.13-0.71,1.56-1.2   c0.63-0.72,1.04-1.61,1.17-2.56c0.14-0.94,0-1.94-0.45-2.85c-0.3-0.62-0.71-1.14-1.2-1.56c-0.72-0.63-1.61-1.04-2.56-1.17   c-0.59-0.09-1.21-0.06-1.82,0.09l-6.61-13.57l-10.23-3.53l-24.82-50.93c-0.78,0.06-1.55,0.12-2.33,0.18l24.24,49.74l-7.63-2.63   l-22.77-46.72c-0.79,0.04-1.57,0.09-2.36,0.13l23.57,48.36l10.54,3.63l22.71,46.6c-0.43,0.31-0.82,0.66-1.16,1.05   c-0.85,0.97-1.39,2.17-1.57,3.43c-0.18,1.27,0,2.61,0.61,3.83c0.4,0.82,0.95,1.53,1.6,2.09c0.97,0.85,2.17,1.39,3.44,1.57   c1.26,0.18,2.6-0.01,3.83-0.61c0.82-0.4,1.53-0.95,2.09-1.6c0.85-0.98,1.39-2.17,1.57-3.44c0.18-1.27,0-2.6-0.6-3.83   C536.82,686.2,536.27,685.5,535.62,684.93z M521.84,656.68c0.27-0.46,0.67-0.84,1.18-1.1c0.35-0.17,0.7-0.26,1.06-0.28   c0.53-0.03,1.07,0.1,1.53,0.37c0.46,0.27,0.85,0.66,1.1,1.18c0.17,0.34,0.25,0.71,0.27,1.06c0.03,0.54-0.1,1.08-0.37,1.54   c-0.27,0.46-0.66,0.85-1.18,1.1c-0.35,0.17-0.71,0.25-1.06,0.28c-0.54,0.03-1.07-0.1-1.54-0.37c-0.46-0.27-0.85-0.67-1.1-1.18   c-0.17-0.35-0.26-0.7-0.28-1.06C521.45,657.67,521.58,657.14,521.84,656.68z M535.11,692.17c-0.43,0.74-1.07,1.37-1.9,1.77   c-0.56,0.27-1.14,0.42-1.72,0.45c-0.86,0.05-1.72-0.16-2.47-0.59c-0.75-0.43-1.37-1.07-1.78-1.91c-0.27-0.55-0.41-1.14-0.44-1.71   c-0.05-0.87,0.17-1.73,0.6-2.48c0.43-0.74,1.07-1.37,1.91-1.77c0.55-0.27,1.13-0.42,1.71-0.45c0.87-0.05,1.73,0.17,2.47,0.6   c0.74,0.43,1.37,1.07,1.78,1.91c0.27,0.55,0.41,1.13,0.44,1.71C535.75,690.56,535.55,691.42,535.11,692.17z"/>
	<path class="st0" d="M560.26,662.89c-1.07-0.72-2.33-1.11-3.6-1.13c-0.93-0.01-1.88,0.17-2.77,0.56l-51.95-79.52   c-0.79,0.12-1.58,0.24-2.37,0.36l52.5,80.35c-0.39,0.35-0.73,0.75-1.02,1.18c-0.72,1.08-1.11,2.33-1.12,3.61   c-0.02,1.28,0.33,2.58,1.07,3.73c0.5,0.77,1.14,1.39,1.85,1.88c1.08,0.72,2.34,1.11,3.61,1.13c1.28,0.02,2.58-0.33,3.72-1.08   c0.77-0.5,1.4-1.13,1.88-1.85c0.72-1.07,1.11-2.33,1.13-3.6c0.02-1.28-0.33-2.58-1.08-3.73C561.61,664,560.97,663.36,560.26,662.89   z M560.66,670.13c-0.33,0.79-0.9,1.49-1.67,2c-0.52,0.34-1.07,0.55-1.64,0.66c-0.85,0.15-1.73,0.05-2.53-0.28   c-0.79-0.33-1.5-0.89-2.01-1.67c-0.34-0.52-0.55-1.07-0.65-1.65c-0.15-0.85-0.06-1.74,0.28-2.53c0.33-0.79,0.9-1.49,1.67-2   c0.52-0.34,1.08-0.55,1.65-0.66c0.85-0.15,1.73-0.05,2.52,0.28c0.8,0.34,1.5,0.89,2.01,1.67c0.34,0.52,0.55,1.08,0.65,1.65   C561.1,668.45,561,669.33,560.66,670.13z"/>
	<path class="st0" d="M646.3,608.37c-0.92,1.06-0.81,2.68,0.25,3.6c1.06,0.92,2.68,0.81,3.6-0.25c0.92-1.06,0.81-2.68-0.25-3.6   C648.83,607.19,647.22,607.31,646.3,608.37z"/>
	<path class="st0" d="M509.86,689.55c-0.93-0.9-2.1-1.49-3.36-1.73c-0.92-0.17-1.88-0.16-2.82,0.08l-43.77-101.69   c-0.79,0.01-1.58,0.01-2.36,0.01l44.13,102.54c-0.45,0.28-0.85,0.62-1.21,0.98c-0.89,0.94-1.49,2.11-1.73,3.36   c-0.24,1.26-0.12,2.6,0.42,3.86c0.36,0.84,0.88,1.57,1.5,2.17c0.94,0.89,2.11,1.5,3.36,1.73c1.26,0.24,2.6,0.12,3.85-0.43   c0.84-0.36,1.57-0.88,2.17-1.5c0.89-0.93,1.49-2.1,1.73-3.36c0.24-1.26,0.12-2.6-0.43-3.86   C511.01,690.88,510.49,690.14,509.86,689.55z M509.02,696.75c-0.46,0.72-1.14,1.32-1.99,1.68c-0.57,0.24-1.15,0.36-1.73,0.37   c-0.87,0-1.72-0.25-2.44-0.71c-0.72-0.46-1.32-1.14-1.69-1.99c-0.24-0.57-0.36-1.15-0.36-1.73c0-0.87,0.24-1.72,0.71-2.45   c0.46-0.72,1.14-1.32,1.98-1.68c0.57-0.25,1.16-0.36,1.74-0.36c0.86,0,1.71,0.24,2.44,0.71c0.73,0.47,1.32,1.14,1.69,1.99   c0.25,0.57,0.36,1.16,0.36,1.73C509.74,695.17,509.48,696.03,509.02,696.75z"/>
	<path class="st0" d="M530.18,687.71c-1.22,0.6-1.73,2.07-1.14,3.3c0.6,1.22,2.07,1.73,3.3,1.14s1.73-2.07,1.13-3.3   C532.87,687.63,531.4,687.11,530.18,687.71z"/>
	<path class="st0" d="M621.23,623.54c-0.63-0.66-1.37-1.16-2.16-1.51c-1.19-0.51-2.5-0.66-3.76-0.45c-0.92,0.16-1.82,0.51-2.62,1.06   l-34.3-35.92l7.74,0.18l9.81,10.27c-0.16,0.24-0.31,0.5-0.42,0.77c-0.38,0.89-0.49,1.86-0.34,2.8c0.16,0.93,0.59,1.84,1.3,2.58   c0.47,0.49,1.02,0.87,1.6,1.12c0.89,0.38,1.86,0.49,2.8,0.34c0.94-0.16,1.84-0.59,2.58-1.3c0.49-0.47,0.86-1.02,1.12-1.61   c0.38-0.88,0.5-1.85,0.33-2.79c-0.16-0.94-0.59-1.84-1.29-2.58c-0.47-0.5-1.03-0.87-1.61-1.12c-0.88-0.38-1.85-0.5-2.8-0.34   c-0.59,0.1-1.17,0.31-1.71,0.64l-10.42-10.92l-10.82-0.25l-16.19-16.96c-0.74,0.28-1.47,0.56-2.21,0.84l15.33,16.05l-8.07-0.19   l-13.15-13.77c-0.76,0.26-1.52,0.5-2.28,0.76l14.48,15.17l11.14,0.26l35.8,37.49c-0.32,0.42-0.58,0.87-0.78,1.35   c-0.51,1.18-0.67,2.49-0.45,3.75c0.21,1.26,0.8,2.48,1.75,3.47c0.63,0.66,1.37,1.17,2.16,1.51c1.19,0.52,2.49,0.67,3.75,0.46   c1.26-0.22,2.47-0.8,3.47-1.75c0.66-0.63,1.16-1.37,1.51-2.16c0.51-1.19,0.67-2.49,0.45-3.75   C622.75,625.74,622.17,624.53,621.23,623.54z M597.35,599.3c0.11-0.52,0.38-1.01,0.79-1.41c0.28-0.27,0.59-0.46,0.93-0.59   c0.5-0.19,1.05-0.23,1.57-0.11c0.52,0.11,1.01,0.37,1.41,0.79c0.26,0.27,0.46,0.6,0.58,0.92c0.19,0.5,0.23,1.06,0.12,1.58   c-0.12,0.52-0.37,1.01-0.79,1.41c-0.28,0.27-0.6,0.46-0.93,0.59c-0.5,0.19-1.06,0.23-1.58,0.12c-0.52-0.12-1.01-0.38-1.41-0.79   c-0.27-0.28-0.46-0.59-0.59-0.93C597.28,600.37,597.24,599.82,597.35,599.3z M620.78,629.08c-0.18,0.84-0.61,1.63-1.27,2.27   c-0.45,0.43-0.96,0.74-1.5,0.95c-0.8,0.31-1.69,0.37-2.53,0.19c-0.84-0.19-1.64-0.6-2.28-1.27c-0.43-0.45-0.74-0.96-0.94-1.5   c-0.31-0.81-0.37-1.7-0.19-2.54c0.18-0.84,0.61-1.63,1.28-2.27c0.45-0.43,0.95-0.74,1.49-0.95c0.81-0.31,1.7-0.36,2.54-0.18   c0.84,0.18,1.64,0.6,2.28,1.27c0.43,0.45,0.74,0.96,0.94,1.5C620.9,627.35,620.97,628.23,620.78,629.08z"/>
	<path class="st0" d="M502.01,715.79c-0.3-0.9-0.76-1.7-1.36-2.36c-0.88-1.01-2.04-1.72-3.31-2.08c-0.93-0.26-1.93-0.33-2.92-0.17   l-24.47-73.59l-10.57-5.29l-15.46-46.5c-0.82-0.06-1.63-0.13-2.43-0.2l16.06,48.29l10.56,5.3l24.17,72.7   c-0.48,0.26-0.93,0.56-1.33,0.91c-1.01,0.88-1.72,2.04-2.08,3.31c-0.36,1.27-0.35,2.67,0.09,4.02c0.3,0.9,0.77,1.69,1.35,2.36   c0.89,1.01,2.04,1.72,3.32,2.08c1.27,0.35,2.66,0.35,4.01-0.1c0.9-0.3,1.69-0.77,2.36-1.35c1-0.89,1.72-2.04,2.08-3.32   C502.46,718.53,502.45,717.13,502.01,715.79z M499.15,720.77c-0.54,0.7-1.29,1.26-2.2,1.56c-0.61,0.2-1.22,0.27-1.82,0.22   c-0.89-0.07-1.75-0.4-2.46-0.94c-0.71-0.55-1.26-1.29-1.56-2.2c-0.2-0.61-0.27-1.23-0.22-1.82c0.07-0.9,0.4-1.75,0.94-2.46   c0.55-0.71,1.29-1.26,2.2-1.56c0.61-0.2,1.22-0.27,1.82-0.23c0.9,0.07,1.75,0.41,2.46,0.95c0.7,0.54,1.26,1.29,1.56,2.2   c0.2,0.61,0.27,1.22,0.23,1.82C500.03,719.21,499.69,720.07,499.15,720.77z"/>
	<path class="st0" d="M597.74,636.98c-0.59-0.69-1.31-1.23-2.08-1.61c-1.16-0.57-2.46-0.79-3.72-0.64   c-0.93,0.11-1.84,0.42-2.67,0.93l-52.31-60.5c-0.77,0.22-1.55,0.43-2.32,0.64l52.99,61.28c-0.34,0.4-0.62,0.84-0.85,1.3   c-0.57,1.16-0.78,2.46-0.63,3.73c0.15,1.27,0.67,2.51,1.56,3.55c0.6,0.69,1.31,1.23,2.08,1.61c1.16,0.57,2.47,0.79,3.73,0.64   c1.27-0.15,2.51-0.67,3.54-1.57c0.69-0.6,1.23-1.31,1.62-2.09c0.57-1.16,0.79-2.46,0.64-3.72   C599.16,639.26,598.64,638.01,597.74,636.98z M597.02,642.49c-0.22,0.83-0.69,1.6-1.39,2.21c-0.47,0.4-0.99,0.69-1.54,0.87   c-0.83,0.27-1.71,0.28-2.54,0.06c-0.83-0.22-1.6-0.68-2.21-1.39c-0.4-0.47-0.69-0.99-0.87-1.54c-0.27-0.83-0.29-1.71-0.06-2.55   c0.22-0.83,0.69-1.6,1.39-2.2c0.47-0.41,1-0.69,1.55-0.87c0.82-0.26,1.71-0.28,2.54-0.06c0.83,0.23,1.6,0.68,2.21,1.39   c0.41,0.47,0.69,1,0.87,1.54C597.23,640.77,597.25,641.66,597.02,642.49z"/>
	<path class="st0" d="M103.69,498.63c-1.23,0.59-1.75,2.06-1.17,3.29c0.59,1.23,2.06,1.75,3.29,1.17c1.22-0.58,1.75-2.06,1.16-3.29   C106.38,498.57,104.91,498.05,103.69,498.63z"/>
	<path class="st0" d="M496.69,55.62c1.31,0.52,2.79-0.11,3.32-1.42c0.52-1.31-0.11-2.79-1.42-3.32c-1.31-0.52-2.79,0.11-3.32,1.42   C494.75,53.61,495.38,55.09,496.69,55.62z"/>
	<path class="st0" d="M444.81,50.56c0.29-1.33-0.55-2.65-1.88-2.94c-1.33-0.29-2.64,0.55-2.93,1.88c-0.29,1.33,0.54,2.65,1.87,2.94   C443.2,52.73,444.52,51.89,444.81,50.56z"/>
	<path class="st0" d="M494.07,59.11l-28.84,71.99l4.65,10.87l-21.52,53.72l2.95-1.33l21-52.43l-4.64-10.86l28.49-71.12   c0.54,0.12,1.07,0.17,1.61,0.16c1.34-0.02,2.63-0.44,3.72-1.18c1.1-0.74,2-1.81,2.52-3.13c0.35-0.88,0.51-1.79,0.49-2.68   c-0.03-1.34-0.45-2.63-1.19-3.73c-0.74-1.09-1.81-1.99-3.12-2.51c-0.88-0.35-1.79-0.51-2.68-0.49c-1.34,0.03-2.63,0.44-3.73,1.19   c-1.1,0.74-1.99,1.81-2.51,3.12c-0.35,0.88-0.51,1.79-0.49,2.68c0.02,1.34,0.44,2.63,1.18,3.73   C492.5,57.9,493.22,58.6,494.07,59.11z M493.36,51.53c0.24-0.59,0.58-1.11,1-1.53c0.63-0.64,1.44-1.08,2.31-1.26   c0.87-0.19,1.8-0.13,2.69,0.23c0.59,0.24,1.11,0.58,1.53,1.01c0.64,0.63,1.08,1.44,1.27,2.3c0.19,0.88,0.13,1.8-0.23,2.69   c-0.24,0.59-0.59,1.11-1.01,1.53c-0.63,0.64-1.44,1.08-2.31,1.27c-0.88,0.19-1.8,0.13-2.69-0.23c-0.6-0.24-1.11-0.58-1.53-1   c-0.64-0.63-1.08-1.44-1.26-2.31C492.94,53.35,493,52.42,493.36,51.53z"/>
	<path class="st0" d="M428.56,107.69l-18.94,85.78l1.82,1.84l18.77-85.03l4.34,6.8l-18.34,83.07l1.82,1.84l18.84-85.32l-6-9.4   l11.17-50.62c0.53,0.03,1.05,0,1.56-0.1c1.27-0.23,2.44-0.84,3.36-1.71c0.93-0.88,1.62-2.04,1.91-3.38   c0.2-0.89,0.21-1.79,0.05-2.63c-0.23-1.27-0.84-2.44-1.71-3.37c-0.88-0.92-2.04-1.61-3.38-1.91c-0.89-0.2-1.79-0.2-2.63-0.05   c-1.27,0.24-2.44,0.84-3.36,1.72c-0.93,0.88-1.62,2.04-1.91,3.37c-0.2,0.89-0.2,1.79-0.05,2.63c0.24,1.27,0.84,2.44,1.72,3.37   c0.64,0.68,1.44,1.23,2.34,1.58l-10.71,48.5l-4.17-6.53l3.06-13.86c0.29,0,0.59-0.02,0.87-0.08c0.95-0.18,1.82-0.63,2.51-1.28   c0.69-0.65,1.2-1.52,1.42-2.52c0.15-0.66,0.15-1.33,0.04-1.96c-0.18-0.95-0.63-1.82-1.28-2.51c-0.65-0.69-1.52-1.2-2.52-1.42   c-0.66-0.15-1.33-0.15-1.96-0.03c-0.95,0.17-1.82,0.62-2.5,1.28c-0.69,0.65-1.2,1.52-1.42,2.51c-0.15,0.67-0.15,1.33-0.03,1.96   c0.17,0.95,0.62,1.82,1.28,2.51c0.41,0.44,0.91,0.8,1.48,1.06l-3.25,14.74L428.56,107.69z M439.82,53.67   c-0.71-0.5-1.25-1.21-1.56-2c-0.32-0.8-0.41-1.69-0.21-2.6c0.13-0.6,0.38-1.14,0.72-1.62c0.5-0.71,1.2-1.26,2.01-1.57   c0.8-0.32,1.69-0.4,2.59-0.2c0.61,0.13,1.15,0.38,1.62,0.72c0.7,0.5,1.25,1.2,1.56,2c0.32,0.81,0.41,1.69,0.21,2.6   c-0.13,0.6-0.39,1.15-0.72,1.62c-0.5,0.71-1.21,1.25-2.01,1.57c-0.8,0.32-1.69,0.4-2.6,0.2C440.84,54.25,440.3,54,439.82,53.67z    M425.52,80.36c-0.2-0.49-0.25-1.05-0.13-1.61c0.08-0.37,0.24-0.71,0.44-1c0.31-0.44,0.75-0.78,1.24-0.98   c0.5-0.19,1.05-0.25,1.61-0.13c0.38,0.08,0.71,0.24,1.01,0.44c0.44,0.31,0.78,0.75,0.97,1.24c0.19,0.5,0.25,1.05,0.12,1.61   c-0.08,0.38-0.23,0.71-0.44,1.01c-0.31,0.44-0.75,0.78-1.24,0.98c-0.49,0.2-1.05,0.25-1.61,0.12c-0.38-0.08-0.71-0.23-1.01-0.44   C426.05,81.3,425.72,80.86,425.52,80.36z"/>
	<path class="st0" d="M457.35,97.58c0.38,0.47,0.85,0.86,1.4,1.17l-31.75,106.56l2.62-1.18l31.22-104.76   c0.29,0.02,0.59,0.01,0.88-0.02c0.96-0.1,1.86-0.49,2.6-1.09c0.73-0.6,1.3-1.43,1.59-2.4c0.2-0.66,0.25-1.32,0.18-1.95   c-0.1-0.96-0.49-1.86-1.09-2.6c-0.6-0.73-1.43-1.3-2.41-1.6c-0.65-0.19-1.31-0.25-1.95-0.18c-0.96,0.1-1.86,0.49-2.6,1.09   c-0.73,0.6-1.31,1.43-1.6,2.41c-0.2,0.65-0.25,1.31-0.18,1.95C456.36,95.94,456.75,96.84,457.35,97.58z M458.51,93.65   c0.11-0.37,0.29-0.69,0.52-0.97c0.34-0.41,0.8-0.72,1.31-0.88c0.51-0.16,1.06-0.17,1.61-0.01c0.37,0.11,0.69,0.28,0.97,0.52   c0.42,0.34,0.72,0.8,0.88,1.31c0.16,0.51,0.17,1.06,0.01,1.61c-0.11,0.36-0.28,0.69-0.51,0.96c-0.34,0.42-0.8,0.72-1.31,0.88   c-0.51,0.16-1.06,0.18-1.62,0.01c-0.36-0.11-0.69-0.29-0.96-0.51c-0.41-0.34-0.72-0.8-0.88-1.31   C458.36,94.76,458.34,94.2,458.51,93.65z"/>
	<path class="st0" d="M410.43,56.65c0.7,0.61,1.55,1.08,2.48,1.35l-14.95,123.65l1.95,1.98l15.16-125.37   c0.53-0.02,1.04-0.11,1.54-0.24c1.25-0.36,2.35-1.07,3.18-2.04c0.84-0.96,1.41-2.18,1.58-3.54c0.11-0.91,0.03-1.8-0.21-2.63   c-0.36-1.25-1.07-2.36-2.04-3.19c-0.96-0.84-2.19-1.4-3.54-1.57c-0.91-0.11-1.8-0.03-2.63,0.21c-1.24,0.36-2.35,1.07-3.18,2.03   c-0.84,0.96-1.41,2.18-1.57,3.55c-0.12,0.9-0.03,1.8,0.21,2.63C408.76,54.71,409.47,55.81,410.43,56.65z M410.35,51.1   c0.07-0.62,0.27-1.18,0.56-1.68c0.43-0.75,1.08-1.36,1.84-1.76c0.76-0.39,1.65-0.57,2.57-0.45c0.61,0.07,1.18,0.27,1.68,0.55   c0.75,0.43,1.36,1.08,1.75,1.84c0.39,0.76,0.57,1.65,0.46,2.57c-0.07,0.61-0.27,1.18-0.56,1.68c-0.43,0.75-1.07,1.37-1.84,1.76   c-0.76,0.39-1.65,0.57-2.56,0.46c-0.62-0.07-1.18-0.27-1.69-0.56c-0.75-0.43-1.36-1.07-1.75-1.84   C410.42,52.9,410.24,52.02,410.35,51.1z"/>
	<path class="st0" d="M365.4,33.95c1.41,0,2.55-1.14,2.55-2.55c0-1.41-1.14-2.55-2.55-2.55s-2.55,1.14-2.55,2.55   C362.85,32.81,363.99,33.95,365.4,33.95z"/>
	<path class="st0" d="M77.69,192.53c0.77,0.55,1.62,0.92,2.49,1.12c1.31,0.3,2.66,0.2,3.9-0.26c0.9-0.34,1.75-0.87,2.46-1.58   l63.06,45.14l11.66-1.93l10.95,7.84c0.15-0.81,0.3-1.62,0.46-2.43l-10.86-7.77l-11.66,1.92l-62.3-44.6c0.24-0.49,0.42-1,0.54-1.52   c0.3-1.31,0.2-2.66-0.26-3.9c-0.46-1.24-1.29-2.37-2.44-3.19c-0.77-0.55-1.62-0.92-2.49-1.12c-1.31-0.29-2.67-0.19-3.91,0.26   c-1.24,0.46-2.36,1.29-3.18,2.44c-0.55,0.77-0.92,1.62-1.12,2.49c-0.29,1.31-0.2,2.66,0.26,3.91   C75.71,190.58,76.53,191.7,77.69,192.53z M77.93,184.26c0.37-0.52,0.83-0.94,1.34-1.25c0.76-0.47,1.65-0.71,2.54-0.68   c0.89,0.03,1.77,0.3,2.56,0.86c0.52,0.37,0.94,0.83,1.25,1.34c0.47,0.77,0.71,1.65,0.68,2.54c-0.03,0.89-0.3,1.77-0.86,2.55   c-0.38,0.52-0.83,0.94-1.34,1.25c-0.77,0.47-1.66,0.7-2.55,0.68c-0.89-0.02-1.77-0.3-2.56-0.86c-0.52-0.37-0.94-0.83-1.25-1.34   c-0.47-0.77-0.7-1.66-0.68-2.55C77.09,185.93,77.37,185.04,77.93,184.26z"/>
	<path class="st0" d="M680.15,195.33c-0.52-0.75-1.18-1.36-1.9-1.82c-1.1-0.69-2.37-1.04-3.64-1.02c-1.27,0.02-2.57,0.41-3.69,1.19   c-0.75,0.52-1.36,1.17-1.83,1.91c-0.69,1.1-1.04,2.36-1.02,3.64c0.01,0.83,0.18,1.68,0.52,2.48l-67.54,46.6l-9.66-1.73l-0.74,2.07   l10.9,1.95l68.21-47.06c0.42,0.47,0.89,0.88,1.41,1.2c1.1,0.69,2.37,1.04,3.64,1.02c1.27-0.02,2.57-0.41,3.69-1.19   c0.75-0.52,1.36-1.17,1.82-1.9c0.69-1.09,1.04-2.36,1.02-3.63C681.33,197.75,680.93,196.46,680.15,195.33z M678.86,200.74   c-0.31,0.8-0.85,1.52-1.61,2.04c-0.51,0.36-1.06,0.59-1.63,0.71c-0.85,0.18-1.73,0.1-2.53-0.21c-0.8-0.31-1.52-0.85-2.05-1.61   c-0.35-0.51-0.58-1.06-0.7-1.62c-0.18-0.85-0.11-1.73,0.21-2.54c0.31-0.8,0.85-1.52,1.61-2.05c0.51-0.35,1.05-0.59,1.62-0.7   c0.85-0.18,1.73-0.11,2.53,0.2c0.81,0.31,1.52,0.85,2.05,1.61c0.35,0.51,0.58,1.06,0.7,1.63   C679.25,199.05,679.18,199.94,678.86,200.74z"/>
	<path class="st0" d="M691.47,236.66c1.24-0.56,1.79-2.03,1.22-3.27c-0.56-1.24-2.02-1.78-3.26-1.22c-1.24,0.56-1.79,2.02-1.23,3.26   C688.77,236.67,690.23,237.22,691.47,236.66z"/>
	<path class="st0" d="M366.52,114.79V38.17c0.54-0.09,1.06-0.24,1.55-0.45c1.23-0.52,2.28-1.39,3.01-2.48   c0.74-1.09,1.18-2.43,1.18-3.84c0-0.95-0.2-1.85-0.54-2.67c-0.53-1.23-1.4-2.28-2.49-3.02c-1.09-0.74-2.42-1.17-3.84-1.17   c-0.95,0-1.85,0.2-2.67,0.54c-1.23,0.53-2.28,1.39-3.02,2.49c-0.74,1.09-1.17,2.42-1.17,3.84c0,0.95,0.19,1.85,0.54,2.67   c0.52,1.23,1.39,2.28,2.48,3.02c0.8,0.54,1.72,0.92,2.71,1.08v77.55l8.36,8.36V156l2.24,2.27v-35.12L366.52,114.79z M363.61,35.66   c-0.83-0.35-1.54-0.94-2.03-1.68c-0.5-0.74-0.79-1.62-0.79-2.58c0-0.64,0.13-1.24,0.36-1.79c0.35-0.83,0.94-1.54,1.68-2.03   c0.74-0.5,1.62-0.79,2.58-0.79c0.64,0,1.24,0.13,1.79,0.36c0.83,0.34,1.54,0.93,2.03,1.67c0.5,0.74,0.79,1.62,0.79,2.58   c0,0.64-0.13,1.25-0.36,1.79c-0.35,0.83-0.93,1.54-1.67,2.03c-0.74,0.5-1.62,0.79-2.58,0.79   C364.76,36.01,364.16,35.89,363.61,35.66z"/>
	<path class="st0" d="M696.49,231.66c-0.38-0.83-0.91-1.55-1.54-2.13c-0.96-0.88-2.13-1.45-3.4-1.66c-1.26-0.22-2.6-0.07-3.85,0.5   c-0.83,0.38-1.55,0.91-2.13,1.54c-0.88,0.96-1.45,2.14-1.66,3.4c-0.16,0.92-0.12,1.89,0.14,2.82l-51.84,23.8l2.72-7.25l12.92-5.88   c0.17,0.23,0.37,0.46,0.59,0.65c0.71,0.65,1.59,1.08,2.53,1.24c0.93,0.16,1.93,0.04,2.86-0.38c0.62-0.28,1.15-0.67,1.59-1.15   c0.65-0.71,1.08-1.59,1.24-2.53c0.16-0.94,0.05-1.94-0.37-2.87c-0.28-0.62-0.68-1.15-1.15-1.59c-0.71-0.65-1.59-1.08-2.53-1.23   c-0.94-0.16-1.94-0.05-2.86,0.37c-0.62,0.28-1.16,0.68-1.59,1.15c-0.65,0.71-1.08,1.59-1.24,2.53c-0.1,0.59-0.09,1.21,0.04,1.82   l-13.74,6.25l-3.8,10.14l-51.63,23.49l-1.02,2.85l51.57-23.46l-2.83,7.56l-51.41,23.39l-1.02,2.85l54.15-24.64l3.91-10.44   l53.82-24.7c0.3,0.44,0.63,0.84,1.02,1.18c0.95,0.87,2.13,1.45,3.39,1.66c1.26,0.22,2.61,0.07,3.85-0.51   c0.83-0.38,1.55-0.91,2.13-1.54c0.88-0.95,1.45-2.13,1.67-3.39C697.2,234.25,697.06,232.91,696.49,231.66z M649.41,242.37   c0.28-0.45,0.69-0.83,1.21-1.07c0.35-0.16,0.71-0.23,1.06-0.25c0.54-0.01,1.07,0.13,1.53,0.41c0.46,0.28,0.83,0.69,1.07,1.21   c0.16,0.35,0.23,0.71,0.25,1.07c0.01,0.54-0.13,1.07-0.41,1.53c-0.28,0.46-0.69,0.83-1.21,1.07c-0.35,0.16-0.71,0.24-1.07,0.25   c-0.54,0.01-1.07-0.13-1.53-0.41c-0.45-0.28-0.83-0.69-1.07-1.21c-0.16-0.35-0.24-0.71-0.25-1.07   C648.98,243.35,649.13,242.83,649.41,242.37z M694.25,236.75c-0.45,0.74-1.11,1.35-1.95,1.73c-0.56,0.26-1.15,0.38-1.73,0.4   c-0.87,0.02-1.73-0.21-2.46-0.66c-0.73-0.45-1.34-1.11-1.72-1.96c-0.26-0.56-0.39-1.14-0.4-1.72c-0.02-0.87,0.21-1.72,0.66-2.45   c0.45-0.73,1.11-1.35,1.95-1.73c0.56-0.26,1.15-0.38,1.73-0.4c0.87-0.02,1.72,0.21,2.46,0.66c0.73,0.45,1.34,1.11,1.72,1.95   c0.26,0.57,0.39,1.15,0.4,1.73C694.93,235.15,694.7,236.01,694.25,236.75z"/>
	<path class="st0" d="M691.73,276.16c-0.87,0.28-1.64,0.73-2.29,1.3c-0.98,0.85-1.68,1.96-2.03,3.18c-0.26,0.9-0.33,1.86-0.18,2.82   L563.82,323.7l-0.93,2.59l125.01-40.77c0.24,0.47,0.54,0.9,0.87,1.29c0.85,0.98,1.97,1.68,3.19,2.02c1.23,0.36,2.58,0.36,3.88-0.07   c0.87-0.28,1.64-0.74,2.29-1.3c0.98-0.85,1.68-1.97,2.03-3.19c0.36-1.23,0.35-2.57-0.07-3.88c-0.28-0.87-0.73-1.64-1.3-2.3   c-0.84-0.97-1.96-1.68-3.18-2.03C694.38,275.73,693.03,275.73,691.73,276.16z M698.02,281.08c0.19,0.59,0.26,1.18,0.21,1.76   c-0.07,0.87-0.41,1.69-0.93,2.36c-0.53,0.68-1.25,1.21-2.13,1.5c-0.59,0.19-1.18,0.25-1.76,0.2c-0.87-0.07-1.69-0.4-2.37-0.93   c-0.68-0.53-1.21-1.25-1.49-2.13c-0.19-0.59-0.25-1.19-0.21-1.77c0.08-0.86,0.4-1.68,0.93-2.36c0.53-0.68,1.25-1.21,2.13-1.5   c0.59-0.19,1.19-0.25,1.76-0.2c0.87,0.07,1.69,0.4,2.37,0.93C697.21,279.48,697.74,280.2,698.02,281.08z"/>
	<path class="st0" d="M505.13,95.01c0.13,0.1,0.28,0.18,0.43,0.25c0.31,0.14,0.63,0.21,0.95,0.22c0.48,0.01,0.95-0.12,1.36-0.37   c0.27-0.17,0.51-0.39,0.7-0.65c0.1-0.13,0.18-0.28,0.25-0.43c0.07-0.15,0.12-0.31,0.16-0.47c0.07-0.32,0.08-0.64,0.02-0.95   s-0.17-0.61-0.33-0.88c-0.25-0.4-0.62-0.74-1.08-0.95c-0.93-0.42-1.99-0.22-2.69,0.43c-0.24,0.22-0.43,0.48-0.57,0.79   c-0.14,0.31-0.21,0.63-0.22,0.95c0,0.16,0.01,0.32,0.03,0.48C504.25,94.05,504.6,94.63,505.13,95.01z"/>
	<path class="st0" d="M513.21,93.18c0.03-1.3-0.31-2.56-0.99-3.65c-0.67-1.09-1.66-2-2.91-2.57c-0.83-0.38-1.71-0.56-2.57-0.59   c-1.3-0.03-2.56,0.32-3.65,0.99c-1.08,0.67-1.99,1.66-2.56,2.91c-0.38,0.83-0.57,1.71-0.59,2.57c-0.03,1.29,0.31,2.56,0.98,3.64   c0.49,0.79,1.15,1.5,1.96,2.03l-41.25,91.19l3-1.35l40.24-88.95c0.51,0.14,1.03,0.21,1.54,0.23c1.3,0.03,2.56-0.32,3.65-0.99   c1.08-0.67,1.99-1.66,2.56-2.92C513,94.92,513.19,94.05,513.21,93.18z M510.64,94.85c-0.26,0.57-0.61,1.05-1.04,1.44   c-0.63,0.59-1.43,0.97-2.28,1.12c-0.85,0.14-1.74,0.05-2.59-0.33c-0.56-0.25-1.05-0.61-1.44-1.04c-0.59-0.64-0.98-1.43-1.12-2.29   c-0.15-0.85-0.05-1.74,0.34-2.59c0.25-0.56,0.61-1.04,1.03-1.44c0.64-0.59,1.44-0.97,2.28-1.12c0.85-0.15,1.74-0.05,2.59,0.33   c0.56,0.25,1.04,0.61,1.44,1.04c0.59,0.64,0.98,1.43,1.12,2.29C511.12,93.12,511.02,94.01,510.64,94.85z"/>
	<path class="st0" d="M539.95,88.42c1.18,0.68,2.69,0.28,3.37-0.89c0.68-1.18,0.28-2.69-0.89-3.37c-1.18-0.68-2.68-0.28-3.37,0.9   C538.38,86.23,538.77,87.74,539.95,88.42z"/>
	<path class="st0" d="M512.81,137.33l26.03-44.83c0.5,0.19,1,0.31,1.51,0.38c1.28,0.16,2.58-0.05,3.72-0.61   c1.15-0.55,2.16-1.46,2.84-2.64c0.46-0.79,0.74-1.64,0.85-2.49c0.17-1.28-0.05-2.58-0.61-3.73c-0.56-1.15-1.45-2.15-2.64-2.84   c-0.79-0.46-1.64-0.73-2.49-0.85c-1.29-0.16-2.58,0.05-3.73,0.62c-1.15,0.55-2.16,1.45-2.85,2.63c-0.46,0.79-0.73,1.64-0.85,2.5   c-0.16,1.29,0.06,2.58,0.61,3.73c0.41,0.84,1,1.61,1.74,2.22l-24.94,42.95l-1.99-7.49l7.13-12.28c0.28,0.09,0.57,0.16,0.85,0.19   c0.96,0.12,1.92-0.04,2.78-0.45c0.85-0.41,1.6-1.08,2.12-1.97c0.34-0.59,0.55-1.22,0.63-1.85c0.12-0.96-0.04-1.92-0.45-2.78   c-0.41-0.86-1.08-1.61-1.97-2.12c-0.59-0.34-1.22-0.54-1.86-0.63c-0.96-0.12-1.92,0.04-2.77,0.46c-0.86,0.41-1.61,1.08-2.12,1.96   c-0.34,0.59-0.55,1.23-0.63,1.86c-0.12,0.96,0.04,1.92,0.45,2.78c0.26,0.54,0.63,1.04,1.09,1.46l-7.58,13.05l2.77,10.47   l-24.16,41.59l3.41-1.53l21.54-37.09l2.07,7.8l-14.67,25.27l3.41-1.53l13.6-23.42L512.81,137.33z M536.74,86.59   c-0.06-0.86,0.12-1.74,0.59-2.54c0.31-0.53,0.71-0.97,1.18-1.32c0.69-0.52,1.52-0.83,2.39-0.89c0.86-0.06,1.73,0.13,2.53,0.59   c0.54,0.31,0.98,0.71,1.33,1.18c0.52,0.69,0.82,1.52,0.88,2.38c0.06,0.86-0.12,1.74-0.59,2.54c-0.31,0.53-0.72,0.98-1.18,1.32   c-0.69,0.52-1.53,0.83-2.39,0.89c-0.86,0.06-1.73-0.13-2.54-0.6c-0.53-0.31-0.98-0.71-1.33-1.17   C537.1,88.28,536.8,87.45,536.74,86.59z M516.25,108.49c0.19-0.33,0.44-0.6,0.73-0.82c0.43-0.32,0.95-0.51,1.48-0.55   c0.54-0.03,1.08,0.08,1.57,0.37c0.33,0.19,0.6,0.44,0.82,0.73c0.32,0.43,0.51,0.95,0.55,1.48c0.03,0.54-0.08,1.07-0.37,1.57   c-0.19,0.33-0.44,0.61-0.73,0.82c-0.43,0.32-0.95,0.51-1.48,0.55c-0.53,0.04-1.07-0.08-1.57-0.37c-0.33-0.19-0.61-0.44-0.82-0.73   c-0.33-0.42-0.51-0.94-0.55-1.48C515.85,109.53,515.96,108.98,516.25,108.49z"/>
	<path class="st0" d="M396.16,89.64l-6.7,83.41l2.02,2.04l6.85-85.27c1.63-0.34,2.92-1.71,3.06-3.45c0.18-2.12-1.4-3.98-3.52-4.16   s-3.98,1.4-4.16,3.52C393.57,87.47,394.61,89.04,396.16,89.64z"/>
	<path class="st0" d="M220.2,117.8l3.51,6.16c0.47-0.64,0.94-1.27,1.42-1.9l-3.04-5.33c1.16-1.19,1.45-3.05,0.59-4.58   c-1.05-1.85-3.4-2.51-5.25-1.46c-1.85,1.05-2.51,3.4-1.46,5.25C216.83,117.47,218.57,118.18,220.2,117.8z"/>
	<path class="st0" d="M161.63,141.13l30.82,36.49c0.33-0.73,0.67-1.46,1-2.19l-30.15-35.7c0.92-1.39,0.87-3.27-0.25-4.61   c-1.37-1.63-3.8-1.85-5.43-0.48c-1.63,1.37-1.85,3.8-0.48,5.43C158.26,141.42,160.1,141.8,161.63,141.13z"/>
	<path class="st0" d="M177.8,94.29c1.19-0.76,1.54-2.34,0.78-3.52c-0.76-1.19-2.34-1.54-3.52-0.78s-1.54,2.34-0.78,3.52   C175.03,94.71,176.61,95.05,177.8,94.29z"/>
	<path class="st0" d="M134.55,145.6c0.62,0.67,1.36,1.18,2.15,1.52c1.18,0.52,2.49,0.68,3.74,0.48c0.92-0.15,1.82-0.5,2.62-1.04   l43.24,45.9c0.29-0.75,0.58-1.5,0.87-2.25l-42.53-45.14c0.32-0.42,0.59-0.87,0.8-1.34c0.52-1.19,0.68-2.49,0.47-3.75   c-0.2-1.26-0.77-2.48-1.71-3.48c-0.63-0.67-1.36-1.17-2.15-1.52c-1.19-0.52-2.5-0.68-3.75-0.48c-1.26,0.2-2.48,0.78-3.47,1.72   c-0.67,0.63-1.18,1.36-1.53,2.16c-0.52,1.18-0.68,2.49-0.48,3.74C133.03,143.38,133.6,144.6,134.55,145.6z M135.03,140.06   c0.19-0.84,0.62-1.63,1.29-2.26c0.45-0.42,0.96-0.73,1.5-0.94c0.81-0.3,1.7-0.35,2.54-0.16c0.84,0.19,1.63,0.61,2.27,1.29   c0.42,0.45,0.73,0.96,0.93,1.5c0.3,0.81,0.36,1.7,0.17,2.54c-0.19,0.84-0.62,1.63-1.29,2.26c-0.45,0.43-0.97,0.73-1.51,0.94   c-0.81,0.3-1.69,0.36-2.53,0.17c-0.84-0.19-1.63-0.61-2.27-1.29c-0.43-0.45-0.73-0.97-0.93-1.5   C134.9,141.79,134.84,140.9,135.03,140.06z"/>
	<path class="st0" d="M172.53,97.8c1.1,0.76,2.4,1.17,3.72,1.21c0.96,0.02,1.95-0.15,2.87-0.55l30.1,47.12   c0.43-0.71,0.87-1.42,1.31-2.13l-29.52-46.21c0.41-0.37,0.76-0.77,1.06-1.21c0.76-1.1,1.17-2.4,1.2-3.71   c0.04-1.32-0.31-2.68-1.08-3.87c-0.51-0.8-1.16-1.45-1.89-1.96c-1.11-0.76-2.4-1.17-3.72-1.21c-1.32-0.03-2.67,0.32-3.86,1.08   c-0.8,0.51-1.45,1.16-1.96,1.89c-0.76,1.11-1.17,2.4-1.21,3.72c-0.04,1.32,0.32,2.67,1.08,3.86   C171.15,96.64,171.8,97.3,172.53,97.8z M172.19,90.31c0.35-0.82,0.94-1.53,1.75-2.05c0.54-0.34,1.11-0.56,1.71-0.66   c0.88-0.16,1.8-0.04,2.61,0.31c0.82,0.36,1.53,0.94,2.05,1.75c0.34,0.54,0.56,1.12,0.66,1.71c0.15,0.89,0.04,1.8-0.31,2.61   c-0.36,0.82-0.94,1.53-1.75,2.05c-0.54,0.35-1.12,0.57-1.71,0.66c-0.89,0.15-1.8,0.03-2.62-0.32c-0.82-0.35-1.53-0.94-2.05-1.75   c-0.34-0.54-0.56-1.11-0.66-1.7C171.72,92.04,171.84,91.12,172.19,90.31z"/>
	<path class="st0" d="M123.48,157.61c0.93-0.99,0.89-2.55-0.1-3.49c-0.99-0.93-2.55-0.89-3.49,0.1s-0.88,2.55,0.11,3.48   C120.99,158.65,122.54,158.6,123.48,157.61z"/>
	<path class="st0" d="M80.2,189.02c1.15,0.82,2.74,0.56,3.56-0.59c0.82-1.15,0.56-2.74-0.59-3.56c-1.15-0.82-2.74-0.56-3.56,0.59   C78.79,186.61,79.05,188.2,80.2,189.02z"/>
	<path class="st0" d="M117.13,160.75c0.67,0.63,1.43,1.09,2.24,1.39c1.22,0.45,2.53,0.53,3.78,0.25c0.91-0.2,1.79-0.6,2.56-1.19   l36.15,34.05l-7.74,0.23l-10.34-9.73c0.15-0.25,0.28-0.52,0.38-0.79c0.33-0.91,0.39-1.88,0.19-2.81c-0.21-0.92-0.69-1.81-1.44-2.51   c-0.49-0.46-1.06-0.81-1.66-1.03c-0.91-0.33-1.88-0.39-2.81-0.19c-0.93,0.21-1.81,0.69-2.51,1.43c-0.46,0.49-0.81,1.06-1.03,1.67   c-0.34,0.9-0.4,1.88-0.18,2.81c0.21,0.93,0.69,1.81,1.43,2.51c0.5,0.47,1.07,0.81,1.67,1.03c0.9,0.34,1.88,0.4,2.81,0.19   c0.59-0.13,1.15-0.37,1.67-0.73l10.99,10.35l10.82-0.32l15.56,14.65c0.23-0.77,0.48-1.54,0.72-2.31l-13.2-12.43l8.07-0.24   l7.07,6.66c0.25-0.75,0.52-1.51,0.77-2.26l-7.01-6.6l-11.14,0.33l-37.74-35.54c0.29-0.44,0.53-0.9,0.71-1.39   c0.45-1.21,0.53-2.52,0.25-3.77c-0.28-1.25-0.93-2.44-1.93-3.37c-0.67-0.63-1.43-1.09-2.24-1.39c-1.21-0.45-2.52-0.53-3.77-0.26   c-1.24,0.28-2.43,0.93-3.37,1.93c-0.62,0.66-1.09,1.43-1.39,2.24c-0.45,1.22-0.53,2.52-0.25,3.77   C115.49,158.63,116.13,159.81,117.13,160.75z M142.26,183.69c-0.08,0.53-0.32,1.03-0.72,1.45c-0.26,0.28-0.57,0.49-0.9,0.64   c-0.49,0.22-1.03,0.29-1.56,0.2c-0.53-0.08-1.03-0.32-1.45-0.71c-0.28-0.26-0.49-0.57-0.63-0.89c-0.22-0.49-0.29-1.04-0.2-1.57   c0.09-0.53,0.32-1.03,0.71-1.45c0.26-0.28,0.57-0.49,0.9-0.64c0.49-0.22,1.04-0.29,1.57-0.2c0.53,0.09,1.03,0.32,1.45,0.72   c0.28,0.26,0.49,0.57,0.64,0.9C142.27,182.61,142.34,183.16,142.26,183.69z M117.28,155.2c0.14-0.85,0.52-1.66,1.15-2.33   c0.43-0.45,0.92-0.79,1.45-1.03c0.79-0.35,1.67-0.46,2.52-0.32c0.85,0.14,1.66,0.52,2.34,1.15c0.45,0.42,0.79,0.92,1.02,1.45   c0.35,0.8,0.46,1.68,0.32,2.53c-0.14,0.85-0.52,1.66-1.16,2.34c-0.42,0.45-0.91,0.79-1.44,1.03c-0.8,0.35-1.67,0.45-2.52,0.32   c-0.85-0.14-1.66-0.52-2.34-1.15c-0.45-0.42-0.79-0.92-1.02-1.45C117.25,156.93,117.14,156.05,117.28,155.2z"/>
	<path class="st0" d="M218.78,87.03c0.97,0.85,2.17,1.39,3.43,1.57c0.92,0.13,1.89,0.07,2.81-0.21l10.23,20.96   c0.51-0.61,1.02-1.21,1.54-1.81l-9.81-20.1c0.43-0.3,0.82-0.66,1.16-1.04c0.85-0.98,1.39-2.18,1.56-3.44c0.18-1.27,0-2.6-0.6-3.83   c-0.4-0.82-0.96-1.52-1.6-2.09c-0.98-0.85-2.18-1.39-3.44-1.57c-1.27-0.18-2.6,0.01-3.83,0.61c-0.82,0.4-1.53,0.95-2.1,1.6   c-0.85,0.97-1.39,2.17-1.57,3.43c-0.18,1.27,0,2.6,0.61,3.83C217.57,85.75,218.13,86.46,218.78,87.03z M219.28,79.79   c0.43-0.74,1.07-1.37,1.91-1.78c0.55-0.27,1.13-0.42,1.71-0.45c0.87-0.05,1.73,0.17,2.47,0.6c0.74,0.43,1.37,1.07,1.78,1.91   c0.27,0.55,0.41,1.13,0.44,1.71c0.05,0.87-0.16,1.73-0.59,2.48c-0.43,0.74-1.07,1.37-1.9,1.77c-0.56,0.27-1.14,0.41-1.72,0.45   c-0.86,0.04-1.72-0.16-2.47-0.59c-0.75-0.43-1.37-1.07-1.78-1.91c-0.27-0.56-0.41-1.14-0.44-1.71   C218.64,81.4,218.85,80.54,219.28,79.79z"/>
	<path class="st0" d="M321.33,99.67c0.69,1.09,1.69,1.95,2.85,2.48c0.85,0.39,1.79,0.6,2.76,0.6l1.4,8.4l2.66,2.69l-1.91-11.45   c0.5-0.17,0.97-0.4,1.41-0.67c1.09-0.7,1.95-1.69,2.48-2.85c0.53-1.16,0.74-2.49,0.51-3.84c-0.15-0.9-0.48-1.73-0.94-2.46   c-0.7-1.09-1.7-1.96-2.86-2.48c-1.16-0.53-2.49-0.73-3.84-0.5c-0.9,0.15-1.73,0.48-2.47,0.94c-1.09,0.69-1.95,1.69-2.48,2.85   c-0.53,1.16-0.74,2.49-0.5,3.85C320.53,98.1,320.86,98.94,321.33,99.67z M322.59,95.08c0.2-0.84,0.65-1.61,1.27-2.21   s1.42-1.01,2.33-1.16c0.61-0.1,1.2-0.08,1.77,0.05c0.84,0.2,1.61,0.65,2.2,1.27c0.59,0.62,1.01,1.42,1.17,2.33   c0.1,0.61,0.07,1.2-0.06,1.77c-0.2,0.84-0.64,1.61-1.27,2.21c-0.62,0.59-1.42,1.01-2.33,1.16c-0.61,0.1-1.21,0.07-1.78-0.06   c-0.84-0.2-1.61-0.64-2.2-1.27c-0.59-0.63-1.01-1.42-1.17-2.33C322.42,96.23,322.45,95.64,322.59,95.08z"/>
	<path class="st0" d="M329.57,54.99c0.64,1.13,1.59,2.03,2.72,2.62c0.83,0.43,1.76,0.69,2.73,0.73l7.87,67.53l2.48,2.52l-8.2-70.3   c0.51-0.14,0.99-0.35,1.44-0.6c1.13-0.64,2.03-1.59,2.62-2.73c0.59-1.13,0.86-2.45,0.7-3.81c-0.11-0.91-0.4-1.76-0.82-2.5   c-0.64-1.13-1.6-2.04-2.73-2.62c-1.13-0.59-2.45-0.85-3.81-0.7c-0.91,0.11-1.76,0.39-2.51,0.82c-1.12,0.64-2.03,1.59-2.62,2.72   c-0.59,1.13-0.86,2.45-0.69,3.82C328.85,53.39,329.14,54.25,329.57,54.99z M331.05,50.47c0.24-0.83,0.73-1.58,1.38-2.14   c0.65-0.56,1.47-0.94,2.39-1.04c0.61-0.07,1.21-0.02,1.76,0.14c0.83,0.24,1.57,0.73,2.13,1.38c0.56,0.65,0.94,1.47,1.05,2.39   c0.07,0.61,0.01,1.21-0.15,1.76c-0.24,0.83-0.72,1.58-1.38,2.14c-0.65,0.56-1.47,0.94-2.38,1.04c-0.62,0.07-1.21,0.01-1.77-0.15   c-0.83-0.24-1.57-0.72-2.13-1.38c-0.56-0.66-0.94-1.47-1.05-2.39C330.83,51.62,330.89,51.03,331.05,50.47z"/>
	<path class="st0" d="M300.1,41.87c1.38-0.26,2.29-1.6,2.03-2.98c-0.26-1.38-1.6-2.29-2.98-2.03c-1.38,0.26-2.29,1.6-2.03,2.98   C297.38,41.23,298.71,42.14,300.1,41.87z"/>
	<path class="st0" d="M245.62,71.52c0.89,0.94,2.03,1.6,3.27,1.91c0.91,0.22,1.87,0.26,2.82,0.07l4.83,13.08l1.7-1.68l-4.49-12.15   c0.46-0.26,0.88-0.57,1.25-0.93c0.94-0.88,1.6-2.02,1.9-3.26c0.31-1.24,0.26-2.59-0.22-3.88c-0.32-0.86-0.79-1.61-1.38-2.24   c-0.88-0.95-2.02-1.6-3.26-1.91c-1.24-0.3-2.59-0.25-3.88,0.22c-0.85,0.31-1.61,0.8-2.24,1.38c-0.94,0.89-1.6,2.02-1.9,3.27   c-0.31,1.24-0.26,2.59,0.22,3.87C244.56,70.14,245.04,70.89,245.62,71.52z M246.85,64.37c0.5-0.7,1.21-1.25,2.07-1.57   c0.58-0.22,1.17-0.3,1.76-0.27c0.86,0.04,1.7,0.33,2.4,0.83c0.7,0.51,1.26,1.2,1.58,2.07c0.21,0.58,0.3,1.18,0.27,1.75   c-0.04,0.87-0.34,1.71-0.84,2.4c-0.5,0.7-1.21,1.25-2.08,1.58c-0.58,0.21-1.17,0.3-1.75,0.28c-0.87-0.04-1.7-0.34-2.4-0.84   c-0.7-0.5-1.26-1.2-1.58-2.07c-0.21-0.58-0.29-1.17-0.27-1.75C246.05,65.91,246.34,65.07,246.85,64.37z"/>
	<path class="st0" d="M293.91,43.17c0.74,1.12,1.79,1.98,3,2.51c0.89,0.38,1.87,0.58,2.87,0.56l8.45,44.54l2.84,2.87l-9.07-47.83   c0.51-0.19,1-0.43,1.44-0.73c1.12-0.74,1.98-1.79,2.5-3c0.53-1.21,0.71-2.6,0.44-3.99c-0.18-0.93-0.54-1.78-1.03-2.52   c-0.75-1.11-1.8-1.98-3.01-2.5c-1.21-0.52-2.59-0.7-3.99-0.44c-0.93,0.18-1.78,0.54-2.52,1.03c-1.11,0.75-1.98,1.79-2.51,3.01   c-0.53,1.21-0.7,2.59-0.44,3.99C293.06,41.58,293.41,42.43,293.91,43.17z M295.11,38.4c0.19-0.88,0.64-1.68,1.27-2.31   c0.63-0.63,1.44-1.07,2.39-1.25c0.63-0.12,1.24-0.11,1.83,0.02c0.88,0.18,1.68,0.63,2.31,1.26c0.63,0.64,1.07,1.44,1.25,2.39   c0.12,0.63,0.1,1.25-0.02,1.83c-0.19,0.88-0.63,1.68-1.26,2.31c-0.64,0.63-1.44,1.07-2.39,1.25c-0.63,0.12-1.25,0.11-1.83-0.02   c-0.88-0.19-1.68-0.64-2.31-1.27c-0.63-0.63-1.07-1.44-1.25-2.39C294.97,39.6,294.98,38.98,295.11,38.4z"/>
	<path class="st0" d="M251.32,69.29c1.28-0.47,1.93-1.89,1.46-3.17c-0.47-1.28-1.89-1.93-3.17-1.46c-1.28,0.47-1.93,1.89-1.45,3.17   C248.63,69.11,250.04,69.77,251.32,69.29z"/>
</g>
<g>
	
	
	
	
	
</g>
</svg>