<svg xmlns="http://www.w3.org/2000/svg" xmlns:xlink="http://www.w3.org/1999/xlink" version="1.1" id="Layer_1" x="0px" y="0px" viewBox="0 0 153.5 30.3" style="enable-background:new 0 0 153.5 30.3;" xml:space="preserve">
<style type="text/css">
	.st0{fill:#393E43;}
	.st1{fill:#FE2B09;}
	.st2{fill:#16606F;}
	.st3{fill:#E25224;}
	.st4{fill:#4B5356;}
</style>
<g>
	<g xmlns="http://www.w3.org/2000/svg">
		<polygon class="st0" points="12.1,9.9 12.1,15.6 16.6,15.6 16.6,14.2 13.6,14.2 13.6,13.3 16.3,13.3 16.3,12.1 13.6,12.1     13.6,11.3 16.6,11.3 16.6,9.9   "/>
		<polygon class="st0" points="29.8,9.9 29.8,15.6 34.4,15.6 34.4,14.2 31.4,14.2 31.4,13.3 34,13.3 34,12.1 31.4,12.1 31.4,11.3     34.4,11.3 34.4,9.9   "/>
		<g>
			<path class="st0" d="M19.2,14.2h0.7c0.9,0,1.5-0.5,1.5-1.4c0-0.9-0.6-1.4-1.5-1.4l-0.7,0h-1.6V9.9h2.2c2,0,3.2,1.2,3.2,2.8     s-1.2,2.8-3.2,2.8h-2.2v-1.4H19.2z"/>
			<path class="st0" d="M26.6,11.3h0.7h1.6V9.9h-2.2c-2,0-3.2,1.2-3.2,2.8s1.2,2.8,3.2,2.8h2.2v-1.4h0v-1.4h-1.4v1.4h-0.1l-0.7,0     c-0.9,0-1.5-0.5-1.5-1.4C25.1,11.9,25.7,11.3,26.6,11.3"/>
			<rect x="32.1" y="7.9" class="st1" width="4.2" height="1.2"/>
			<rect x="32.8" y="16.8" class="st0" width="1.5" height="5.6"/>
			<rect x="29.8" y="23" class="st0" width="0.9" height="0.9"/>
			<rect x="31" y="23" class="st0" width="0.9" height="0.9"/>
			<path class="st0" d="M30.3,21.1h-6.6v-1.5h0c0-1.6-1.2-2.8-3.1-2.8h-2.2v1.3h2.2h0h0v0c0.8,0,1.5,0.7,1.5,1.5h0v1.5h-3.7v1.3h5.2     v0h0v0h6.7h0.1h1.4v-5.6h-1.5V21.1z"/>
			<path class="st0" d="M14.3,16.8h-2.2v1.3h2.2h0h0v0c0.8,0,1.5,0.7,1.5,1.5v1.5h-2.1h-1.6v1.1v0.2c0.1,1.1,0.7,2,1.7,2.4l0.7-1.2     c-0.4-0.2-0.7-0.6-0.8-1.1h3.7v-2.8C17.4,18,16.2,16.8,14.3,16.8"/>
			<rect x="15.7" y="23" class="st0" width="0.9" height="0.9"/>
		</g>
	</g><line x1="40" y1="0" x2="40" y2="30" stroke="#e9e9e9" stroke-width="0.5"/>
                 
	<g>
		<g>
			<path class="st2" d="M63.4,11.9L63.4,11.9l-0.2,1.4L63,14.6L62.7,16l-0.2,1.3l0,0.1h4.1l0.1-0.7h-0.1l-0.7,0l-0.7,0l-0.7,0     l-0.7,0h-0.1c0,0,0-0.1,0-0.1c0-0.1,0-0.2,0.1-0.4c0-0.2,0.1-0.3,0.1-0.6c0-0.3,0.1-0.4,0.1-0.5c0-0.2,0.1-0.4,0.1-0.4     c0,0,0,0,0-0.1h0.1l0.5,0l0.7,0l0.6,0l0.5,0h0.1l0.1-0.7h-0.6c-0.1,0-0.3,0-0.6,0h-1.2c0,0,0-0.1,0-0.1c0,0,0-0.2,0.1-0.3     c0-0.1,0-0.2,0.1-0.3c0-0.1,0-0.2,0.1-0.3c0-0.1,0-0.2,0.1-0.3c0,0,0,0,0-0.1l0.1,0h0.6l0.7,0l0.7,0h0.6c0,0,0,0,0.1,0l0.1-0.7     H63.4z M69.5,12.8c0.3-0.2,0.6-0.3,1.1-0.3c0.5,0,1,0.1,1.5,0.3l0.2-0.9c0,0-0.1,0-0.1,0c-0.1,0-0.3,0-0.6-0.1     c-0.4,0-0.8-0.1-1.1-0.1c-1.1,0-2,0.4-2.4,1.2c-0.4,0.7-0.7,1.6-0.7,2.5c0,1.4,0.7,2,2.1,2c0.7,0,1.4-0.1,1.9-0.2l0.2-0.9     c-0.6,0.3-1.1,0.4-1.6,0.4c-0.9,0-1.4-0.5-1.4-1.5c0-0.6,0.2-1.3,0.4-1.9C69.1,13.2,69.3,13,69.5,12.8 M61.5,12     c-0.2,1.2-0.3,1.9-0.6,3.9l0,0.2l-0.1-0.1l-0.9-1.9l-1-2.1l0-0.1h-1.2l0,0.1l-0.2,1.3l-0.2,1.4L57,16l-0.2,1.3l0,0.1h0.8     c0,0,0,0,0-0.1c0-0.4,0.2-1.2,0.4-2.2c0-0.1,0.1-0.7,0.3-1.7l0-0.1l0.1,0.1c0.2,0.3,0.5,1,0.9,1.8l1,2.1l0,0.1h1.2     c0,0,0-0.1,0-0.1c0-0.2,0.1-0.6,0.2-1.3l0.2-1.4l0.3-1.4c0.1-0.7,0.2-1.1,0.3-1.3c0,0,0,0,0-0.1L61.5,12L61.5,12z M48.8,14.9     c-0.2,0-0.4,0-0.7,0c-0.3,0-0.5,0-0.7,0l-0.1,0l0-0.1c0.1-0.2,0.3-0.5,0.5-1c0.2-0.5,0.4-0.8,0.6-1l0.1-0.1l0,0.1     c0,0.1,0.1,0.5,0.2,1C48.8,14.3,48.8,14.6,48.8,14.9L48.8,14.9L48.8,14.9z M50.3,16.1L50,14.6c-0.1-0.3-0.2-0.8-0.3-1.4     c-0.1-0.6-0.2-1-0.2-1.3l0-0.1h-1.3l0,0.1c-0.2,0.3-0.4,0.7-0.7,1.3c-0.9,1.6-1.2,2.2-1.6,2.8l-0.7,1.2l-0.1,0.1h1     c0,0,0-0.1,0-0.1c0.1-0.1,0.2-0.4,0.4-0.8c0.2-0.5,0.4-0.7,0.4-0.8l0-0.1l0.1,0c0.2,0,0.5,0,1,0c0.4,0,0.7,0,0.9,0l0.1,0l0,0.1     c0,0.2,0.1,0.4,0.1,0.8c0.1,0.4,0.1,0.7,0.1,0.9l0,0.1h1.3l0-0.1L50.3,16.1z M54.2,16.5c-0.2,0.2-0.6,0.3-1,0.3l-0.4,0     c-0.2,0-0.3,0-0.4,0c0,0,0,0-0.1,0l0-0.1c0-0.2,0.1-0.5,0.1-0.9c0.2-1.1,0.2-1.4,0.4-2.3c0.1-0.3,0.1-0.6,0.1-0.8l0-0.1     c0.2,0,0.6,0,0.8,0c0.8,0,1.2,0.4,1.2,1.3C55.1,15,54.7,16.1,54.2,16.5 M54.5,11.9c-0.1,0-0.6,0-1.4,0H52l0,0.1l-0.2,1.3     l-0.2,1.4L51.3,16l-0.2,1.3l0,0.1h0.1c0.5,0,0.9,0,1.1,0c0.6,0,0.9,0,1.2,0c1,0,1.7-0.3,2.1-1c0.5-0.8,0.8-1.7,0.8-2.6     C56.3,12.5,55.8,11.9,54.5,11.9"/>
			<path class="st2" d="M77.9,12.9c0.1,0.2,0.1,0.4,0.2,0.6c1.6-0.4,3.7-0.9,5.8-1.2c1-0.2,2.1-0.3,3.2-0.4c0.3-0.5,0.6-1,0.9-1.5     c-1.2,0.2-2.4,0.4-3.6,0.7C82,11.5,79.7,12.2,77.9,12.9 M85.6,7c-3.2,1.1-6,2.5-8.5,4c0.1,0.2,0.1,0.3,0.2,0.5     c2.1-1,4.7-2.2,7.8-3.1c1.4-0.4,2.9-0.8,4.5-1.1c0.4-0.7,0.7-1.2,0.9-1.7C88.8,5.9,87.2,6.4,85.6,7 M78.8,17c0,0.3,0,0.6,0,0.8     c0.6,0.3,1.3,0.7,1.9,1.1c0.4,0.2,0.7,0.5,1.1,0.8c0.3-0.4,0.7-0.9,1-1.3c-0.4-0.2-0.9-0.4-1.5-0.6C80.5,17.6,79.6,17.3,78.8,17      M82.9,14.6c-1.6,0.1-3.1,0.1-4.5,0.3c0.1,0.3,0.1,0.5,0.1,0.7c1.1,0,2.4,0.1,3.7,0.3c0.7,0.1,1.4,0.1,2.1,0.2     c0.3-0.5,0.7-1,1-1.5C84.6,14.6,83.8,14.6,82.9,14.6"/>
			<path class="st2" d="M76.7,14.3c-0.3,0.1-0.7,0.2-1,0.3c0.1,0.1,0.1,0.2,0.2,0.4c0.3-0.1,0.7-0.1,1-0.2c0.5-0.1,1-0.2,1.6-0.2     c1.6-0.2,3.2-0.3,4.8-0.4c0.2-0.4,0.4-0.9,0.5-1.3c-1.7,0.2-3.6,0.6-5.5,1C77.7,14,77.2,14.1,76.7,14.3 M77.5,11.8     c-0.6,0.3-1.1,0.5-1.7,0.8c-0.3,0.2-0.7,0.3-1,0.5c0.1,0.1,0.2,0.3,0.4,0.5c0.3-0.2,0.7-0.3,1-0.5c0.5-0.2,1.1-0.5,1.6-0.7     c2.1-0.9,4.4-1.6,6.8-2.1c0.2-0.5,0.3-1,0.5-1.5C82.5,9.6,79.9,10.7,77.5,11.8 M77.1,15.9c-0.4,0-0.7,0-1,0     c0,0.1,0.1,0.2,0.1,0.3c0.4,0,0.7,0.1,1,0.2c0.5,0.1,1.1,0.2,1.6,0.3c1,0.2,1.9,0.5,2.8,0.8c0.2-0.3,0.4-0.7,0.6-1.1     c-0.9-0.2-2.2-0.3-3.4-0.4C78.1,15.9,77.6,15.9,77.1,15.9"/>
			<path class="st2" d="M46.5,19.9c0-0.1-0.1-0.1-0.1-0.2c0,0-0.1-0.1-0.1-0.1c0,0,0,0,0,0c0,0-0.1,0-0.1,0.1L46,19.8l0,0l-0.1,0.1     H46.5z M46,19.4L46,19.4l-0.2,0l0.1-0.1L46,19.4z M45.7,20.3c-0.1,0.1-0.2,0.1-0.3,0.1c-0.1,0-0.1,0-0.2-0.1     c-0.1,0-0.1-0.1-0.1-0.2c0-0.1,0-0.1,0-0.3c0-0.1,0-0.1,0-0.1l0,0c0,0.1,0,0.1,0,0.2c0,0.2,0.1,0.2,0.2,0.2c0.1,0,0.1,0,0.2,0     c0.1,0,0.1-0.1,0.1-0.1l0,0c0,0,0,0,0,0c0,0,0-0.1,0-0.1c0-0.1-0.1-0.2-0.1-0.2l0.1-0.1c0.1,0.1,0.1,0.2,0.1,0.2l0.3-0.2     c0,0,0,0,0.1-0.1c0.1,0,0.1-0.1,0.1-0.1c0.1,0,0.1,0,0.2,0.1c0.1,0.1,0.1,0.1,0.1,0.2c0,0,0,0.1,0,0.2l0,0h-0.8l0,0     C45.7,20.2,45.7,20.2,45.7,20.3"/>
			<path class="st2" d="M46.8,19.7c0.1,0.1,0.1,0.2,0.1,0.3c0,0.1,0,0.2,0,0.3c0,0.1-0.1,0.2-0.2,0.2c0,0-0.1,0-0.1,0     c0,0-0.1-0.1-0.1-0.1l0,0c0,0,0.1,0,0.1,0c0.1,0,0.1,0,0.2-0.1c0,0,0.1-0.1,0.1-0.2c0,0,0-0.1-0.1-0.1c0,0-0.1-0.1-0.1-0.1     L46.8,19.7z"/>
			<path class="st2" d="M47.5,20.1h-0.3c0,0,0,0,0,0c0,0,0,0,0-0.1l0,0l-0.1-0.7l0.1-0.1l0.1,0.7c0,0,0,0,0,0.1c0,0,0,0,0.1,0h0.1     L47.5,20.1z"/>
		</g>
		<polygon class="st2" points="47.5,19.9 47.5,20.1 48.1,20.1 48.1,19.9   "/>
		<polygon class="st2" points="48,19.9 48.1,20.1 48.7,20.1 48.6,19.9   "/>
		<polygon class="st2" points="48.6,19.9 48.6,20.1 49.2,20.1 49.2,19.9   "/>
		<polygon class="st2" points="49.1,19.9 49.2,20.1 49.8,20.1 49.7,19.9   "/>
		<polygon class="st2" points="49.7,19.9 49.7,20.1 50.3,20.1 50.3,19.9   "/>
		<g>
			<path class="st2" d="M50.8,19.8C50.8,19.7,50.8,19.7,50.8,19.8c0-0.1,0-0.1,0-0.1c0,0,0,0-0.1,0C50.7,19.7,50.7,19.7,50.8,19.8     C50.8,19.7,50.8,19.7,50.8,19.8 M51.2,19.9l0,0.2h-0.4l0-0.1l0,0.1h-0.4l0-0.2h0.4c-0.1-0.1-0.1-0.2-0.2-0.2l0.1-0.2     c0.1,0,0.2,0,0.2,0c0.1,0,0.2,0,0.2,0.1c0,0,0,0,0,0.1c0,0,0,0.1-0.1,0.2l0,0H51.2z"/>
			<path class="st2" d="M51.8,20l0-0.2c0,0,0-0.1-0.1-0.1c-0.1,0-0.1,0-0.2,0.1L51.8,20z M52.1,19.9l0,0.2h-0.2l0,0.1L51.4,20l0,0.1     h-0.2l0-0.2h0.2c0-0.1,0.1-0.2,0.1-0.2c0.1-0.1,0.1-0.1,0.2-0.1c0,0,0.1,0,0.1,0c0,0,0,0,0,0.1l0,0.2H52.1z"/>
			<path class="st2" d="M52.3,19.1l0.1,0.8c0,0,0,0,0.1,0h0.2l0,0.2h-0.3c0,0-0.1,0-0.1-0.1l0,0.1h-0.2l0-0.2h0.2l-0.1-0.7     L52.3,19.1z"/>
			<path class="st2" d="M53,19.2l0,0.1l0,0l0.1,0.5c0,0,0,0.1,0,0.2l0,0l0,0.1l0,0h-0.3l0-0.2h0.3l-0.1-0.6c0,0,0,0-0.1,0     c0,0,0,0,0,0l0,0l0.1-0.1c0,0,0,0,0,0.1c0,0,0,0,0.1,0L53,19.2z"/>
			<path class="st2" d="M53.8,20.6L53.8,20.6l0.2,0l0.1-0.1l0.1,0.1l-0.1,0.1L54,20.7l-0.1,0.1L53.8,20.6z M54.6,19.9l0,0.2h-0.2     l0,0c0,0,0,0.1,0,0.1c0,0.1,0,0.1,0,0.1c-0.1,0.1-0.2,0.1-0.4,0.1c-0.1,0-0.1,0-0.2-0.1c-0.1-0.1-0.1-0.1-0.1-0.2     c0-0.1,0-0.2,0.1-0.4c0,0.1,0,0.2,0,0.2c0,0.2,0.1,0.2,0.2,0.2c0,0,0.1,0,0.1,0c0.1,0,0.1,0,0.1-0.1c0,0,0,0,0.1-0.1     c-0.1,0-0.1-0.1-0.3-0.1h0l0-0.2H54.6z"/>
		</g>
		<polygon class="st2" points="54.5,19.9 54.6,20.1 55.2,20.1 55.1,19.9   "/>
		<polygon class="st2" points="55.1,19.9 55.1,20.1 55.7,20.1 55.7,19.9   "/>
		<polygon class="st2" points="55.7,19.9 55.7,20.1 56.3,20.1 56.2,19.9   "/>
		<path class="st2" d="M56.5,19.5L56.5,19.5l-0.2,0l0.1-0.1L56.5,19.5z M56.5,19.7l0.1,0.2h0.2l0,0.2h-0.3l0-0.1l0,0.1h-0.3l0-0.2    h0.3l-0.1-0.1L56.5,19.7z"/>
		<g>
			<path class="st2" d="M57.8,19.9c0-0.1-0.1-0.1-0.1-0.2c-0.1,0-0.1-0.1-0.1-0.1c0,0-0.1,0-0.2,0.1l-0.1,0l-0.1,0.1H57.8z      M56.8,20.1l0-0.2H57l0.1-0.1L57,19.3c0,0,0,0-0.1,0c0,0,0,0,0,0l0.1-0.1c0,0,0,0,0,0.1c0,0,0,0,0.1,0l0.1,0l0,0.1l0,0l0.1,0.2     c0,0,0,0,0,0.1c0,0.1,0,0.1,0,0.2l0.1-0.1l0.1,0l0.1-0.1c0.1-0.1,0.1-0.1,0.2-0.1c0,0,0.1,0,0.1,0c0.1,0,0.1,0.1,0.1,0.1     c0,0,0.1,0.1,0.1,0.1c0,0,0,0.1,0,0.2l0,0.1H56.8z"/>
			<path class="st2" d="M58.3,19.9c0-0.1-0.1-0.2-0.1-0.2c0,0,0,0-0.1,0c0,0,0,0.1,0,0.1c0,0,0,0.1,0.1,0.1H58.3z M58.4,19.9h0.2     l0,0.2h-0.2c0,0.1,0,0.1,0,0.2c0,0.1-0.1,0.2-0.2,0.2c0,0-0.1-0.1-0.2-0.2c0,0,0.1,0,0.1,0c0.1,0,0.1,0,0.1-0.1     c0,0,0.1-0.1,0.1-0.2h-0.1c0,0-0.1,0-0.1,0c0,0-0.1,0-0.1,0c0,0,0-0.1,0-0.1c0-0.1,0-0.1,0-0.2c0-0.1,0-0.1,0.1-0.2     c0,0,0,0,0.1,0c0,0,0.1,0,0.1,0.1C58.4,19.7,58.4,19.8,58.4,19.9"/>
		</g>
		<polygon class="st2" points="58.6,19.9 58.6,20.1 59.2,20.1 59.2,19.9   "/>
		<g>
			<path class="st2" d="M59.6,19.2l0,0.1l0,0l0.1,0.5c0,0,0,0.1,0,0.2l0,0l0,0.1l0,0h-0.3l0-0.2h0.3l-0.1-0.6c0,0,0,0-0.1,0     c0,0,0,0,0,0l0,0l0-0.1c0,0,0,0,0,0.1c0,0,0,0,0.1,0L59.6,19.2z"/>
			<path class="st2" d="M59.8,20.1c0-0.1,0-0.2,0-0.2c0-0.1,0-0.2-0.1-0.4c0-0.1,0-0.2-0.1-0.3l0.1-0.2l0.1,0.2l0,0l0,0     c0,0.1,0.1,0.2,0.1,0.3c0,0.1,0,0.2,0,0.2C59.9,20,59.9,20,59.8,20.1"/>
			<path class="st2" d="M60.7,20.6L60.7,20.6l0.2,0l0.1-0.1l0.1,0.1L61,20.7l-0.1-0.1l-0.1,0.1L60.7,20.6z M61.5,19.9l0,0.2h-0.2     l0,0c0,0,0,0.1,0,0.1c0,0.1,0,0.1,0,0.1c-0.1,0.1-0.2,0.1-0.4,0.1c-0.1,0-0.1,0-0.2-0.1c-0.1-0.1-0.1-0.1-0.1-0.2     c0-0.1,0-0.2,0.1-0.4c0,0.1,0,0.2,0,0.2c0,0.2,0.1,0.2,0.2,0.2c0,0,0.1,0,0.1,0c0.1,0,0.1,0,0.1-0.1c0,0,0,0,0-0.1     c-0.1,0-0.1-0.1-0.3-0.1h0l0.1-0.2H61.5z"/>
		</g>
		<polygon class="st2" points="61.4,19.9 61.5,20.1 62,20.1 62,19.9   "/>
		<polygon class="st2" points="62,19.9 62,20.1 62.6,20.1 62.6,19.9   "/>
		<polygon class="st2" points="62.5,19.9 62.6,20.1 63.2,20.1 63.1,19.9   "/>
		<path class="st2" d="M63.4,20.3L63.4,20.3l0.2,0l-0.1,0.1L63.4,20.3z M63.4,19.7l0.1,0.2h0.2l0,0.2h-0.3l0-0.1l0,0.1h-0.3l0-0.2    h0.3l-0.1-0.1L63.4,19.7z"/>
		<g>
			<path class="st2" d="M64.4,19.3L64.4,19.3l-0.2,0l0.1-0.1L64.4,19.3z M64.7,19.9c0-0.1-0.1-0.1-0.1-0.2c-0.1,0-0.1-0.1-0.1-0.1     c0,0-0.1,0-0.2,0.1l-0.1,0L64,19.9H64.7z M63.7,20.1l0-0.2h0.2l0.1-0.1l-0.1-0.6c0,0,0,0-0.1,0c0,0,0,0,0,0l0.1-0.1     c0,0,0,0,0,0.1c0,0,0,0,0.1,0l0.1,0l0,0.1l0,0l0.1,0.2c0,0,0,0,0,0.1c0,0.1,0,0.1,0,0.2l0.1-0.1l0.1,0l0.1-0.1     c0.1-0.1,0.1-0.1,0.2-0.1c0,0,0.1,0,0.1,0c0.1,0,0.1,0.1,0.1,0.1c0,0,0.1,0.1,0.1,0.1c0,0,0,0.1,0,0.2l0,0.1H63.7z"/>
			<path class="st2" d="M65.2,19.9c0-0.1-0.1-0.2-0.1-0.2c0,0,0,0-0.1,0c0,0,0,0.1,0,0.1c0,0,0,0.1,0.1,0.1H65.2z M65.3,19.9h0.2     l0,0.2h-0.2c0,0.1,0,0.1,0,0.2c0,0.1-0.1,0.2-0.2,0.2c0,0-0.1-0.1-0.2-0.2c0,0,0.1,0,0.1,0c0.1,0,0.1,0,0.1-0.1     c0,0,0.1-0.1,0.1-0.2h-0.1c0,0-0.1,0-0.1,0c0,0-0.1,0-0.1,0c0,0,0-0.1,0-0.1c0-0.1,0-0.1,0-0.2c0-0.1,0-0.1,0.1-0.2     c0,0,0,0,0.1,0c0,0,0.1,0,0.1,0.1C65.3,19.7,65.3,19.8,65.3,19.9"/>
			<path class="st2" d="M65.7,20.3L65.7,20.3l0.2,0l-0.1,0.1L65.7,20.3z M65.5,19.9h0.3c0-0.1,0-0.1-0.1-0.2l0.1-0.1     c0.1,0.1,0.1,0.1,0.1,0.2c0,0,0,0.1,0,0.2c0,0,0,0.1,0,0.1h-0.3L65.5,19.9z"/>
			<path class="st2" d="M66.1,20.1c0-0.1,0-0.2,0-0.2c0-0.1,0-0.2-0.1-0.4c0-0.1,0-0.2-0.1-0.3l0.1-0.2l0.1,0.2l0,0l0,0     c0,0.1,0.1,0.2,0.1,0.3c0,0.1,0,0.2,0,0.2C66.2,20,66.2,20,66.1,20.1 M66.1,19L66.1,19c-0.1,0.1-0.2,0.1-0.2,0.2c0,0,0-0.1,0-0.1     c0,0-0.1,0-0.1-0.1c0,0,0-0.1,0-0.1c0,0,0.1-0.1,0.1-0.1c0,0,0,0,0.1,0C66,18.8,66,18.9,66.1,19C66,18.9,66,18.9,66,18.9     c0,0-0.1,0-0.1,0.1C65.9,19,66,19,66.1,19C66,19,66.1,19,66.1,19"/>
			<path class="st2" d="M66.9,19.5L66.9,19.5l-0.2,0l0.1-0.1L66.9,19.5z M67.1,19.9h0.2l0,0.2h-0.2c0,0.1,0,0.2-0.1,0.2     c0,0.1-0.1,0.1-0.1,0.1c0,0-0.1,0-0.2-0.1c0,0,0,0,0,0c0,0,0,0,0,0c0,0,0.1,0,0.1,0c0.1,0,0.1,0,0.1-0.1c0,0,0.1-0.1,0.1-0.2     c0,0,0-0.1-0.1-0.1c0,0-0.1-0.1-0.1-0.1l0.1-0.1C67,19.8,67,19.8,67.1,19.9"/>
		</g>
		<polygon class="st2" points="67.2,19.9 67.3,20.1 67.9,20.1 67.8,19.9   "/>
		<polygon class="st2" points="67.8,19.9 67.8,20.1 68.4,20.1 68.4,19.9   "/>
		<polygon class="st2" points="68.3,19.9 68.4,20.1 69,20.1 68.9,19.9   "/>
		<g>
			<path class="st2" d="M69.7,19.1l0,0.2l-0.5,0.1l0.4,0.4c0,0,0.1,0.1,0.1,0.1c0,0,0,0,0,0l0,0l0,0.1h-0.8l0-0.2h0.7l-0.3-0.3l0,0     l-0.1-0.1c0,0,0,0,0,0c0,0,0,0,0,0c0,0,0,0,0,0l0,0l0-0.2L69.7,19.1z"/>
			<path class="st2" d="M70.2,19.9h0.2l0,0.2h-0.2c0,0.1,0,0.2-0.1,0.2c0,0.1-0.1,0.1-0.1,0.1c0,0-0.1,0-0.2-0.1c0,0,0,0,0,0     c0,0,0,0,0,0c0,0,0.1,0,0.1,0c0.1,0,0.1,0,0.2-0.1c0,0,0.1-0.1,0.1-0.2c0,0,0-0.1-0.1-0.1c0,0,0-0.1-0.1-0.1l0.1-0.1     C70.2,19.8,70.2,19.8,70.2,19.9"/>
			<path class="st2" d="M71.1,20C71.1,19.9,71.1,19.9,71.1,20c0-0.1,0-0.2-0.1-0.2c0,0-0.1-0.1-0.1-0.1c0,0-0.1,0-0.1,0.1l0,0     L71.1,20z M70.4,20.1l0-0.2h0.2l0.1-0.2c0-0.1,0.1-0.1,0.1-0.1c0,0,0.1,0,0.1,0c0.1,0,0.1,0,0.2,0.1c0.1,0.1,0.1,0.2,0.1,0.2     c0,0,0,0,0,0.1c0,0,0,0.1-0.1,0.2l0,0L70.7,20l0,0.1H70.4z"/>
			<path class="st2" d="M45.7,21.8l0-0.3c0-0.1,0-0.1,0-0.2h0c0,0.1-0.1,0.2-0.1,0.2l-0.1,0.3H45.7z M45.4,21.9l-0.2,0.3H45l0.6-1.1     h0.2l0.1,1.1h-0.2l0-0.3H45.4z"/>
			<path class="st2" d="M46.3,21.9C46.3,21.9,46.3,22,46.3,21.9c0,0.2,0,0.2,0.1,0.2c0.2,0,0.3-0.2,0.3-0.4c0-0.1,0-0.2-0.1-0.2     C46.5,21.6,46.4,21.7,46.3,21.9L46.3,21.9z M46.5,21.1l-0.1,0.5h0c0.1-0.1,0.2-0.1,0.3-0.1c0.2,0,0.2,0.1,0.2,0.3     c0,0.3-0.2,0.6-0.5,0.6c-0.2,0-0.3-0.1-0.3-0.2c0,0,0-0.1,0-0.1l0.2-0.8H46.5z"/>
			<path class="st2" d="M47.8,21.4L47.7,22c0,0.1,0,0.2,0,0.3h-0.2l0-0.1h0c-0.1,0.1-0.2,0.2-0.3,0.2c-0.1,0-0.2-0.1-0.2-0.2     c0,0,0-0.1,0-0.1l0.1-0.5h0.2l-0.1,0.4c0,0,0,0.1,0,0.1c0,0.1,0,0.1,0.1,0.1c0.1,0,0.2-0.1,0.2-0.3l0.1-0.4H47.8z"/>
			<path class="st2" d="M48.5,22.1c0,0,0.1,0,0.1,0c0.2,0,0.3,0,0.4-0.1c0.1-0.1,0.1-0.2,0.1-0.4c0-0.2-0.1-0.3-0.3-0.3     c0,0-0.1,0-0.1,0L48.5,22.1z M48.4,21.1c0.1,0,0.2,0,0.3,0c0.2,0,0.3,0,0.4,0.1c0.1,0.1,0.1,0.2,0.1,0.3c0,0.2-0.1,0.4-0.2,0.5     c-0.1,0.1-0.3,0.2-0.5,0.2c-0.1,0-0.2,0-0.3,0L48.4,21.1z"/>
			<path class="st2" d="M49.4,22.2l0.2-1.2h0.2l-0.1,0.5h0c0.1-0.1,0.2-0.1,0.3-0.1c0.1,0,0.2,0.1,0.2,0.2c0,0,0,0.1,0,0.1l-0.1,0.5     h-0.2l0.1-0.5c0,0,0-0.1,0-0.1c0-0.1,0-0.1-0.1-0.1c-0.1,0-0.2,0.1-0.2,0.3l-0.1,0.4H49.4z"/>
			<path class="st2" d="M50.9,21.6C50.9,21.6,50.8,21.6,50.9,21.6c-0.3,0-0.4,0.2-0.4,0.4c0,0.1,0,0.2,0.1,0.2     c0.1,0,0.2-0.1,0.2-0.3L50.9,21.6z M50.8,22.2c0,0,0-0.1,0-0.2h0c-0.1,0.2-0.2,0.2-0.3,0.2c-0.1,0-0.2-0.1-0.2-0.3     c0-0.3,0.2-0.6,0.6-0.6c0.1,0,0.2,0,0.2,0L51,21.9c0,0.1,0,0.3,0,0.4H50.8z"/>
			<path class="st2" d="M51.4,21.9C51.4,21.9,51.4,22,51.4,21.9c0,0.2,0,0.2,0.1,0.2c0.2,0,0.3-0.2,0.3-0.4c0-0.1,0-0.2-0.1-0.2     C51.6,21.6,51.5,21.7,51.4,21.9L51.4,21.9z M51.6,21.1l-0.1,0.5h0c0.1-0.1,0.2-0.1,0.3-0.1c0.2,0,0.2,0.1,0.2,0.3     c0,0.3-0.2,0.6-0.5,0.6c-0.2,0-0.3-0.1-0.3-0.2c0,0,0-0.1,0-0.1l0.2-0.8H51.6z"/>
			<path class="st2" d="M52.4,21.3c-0.1,0-0.1,0-0.1-0.1c0-0.1,0.1-0.1,0.1-0.1c0.1,0,0.1,0,0.1,0.1C52.5,21.3,52.4,21.3,52.4,21.3     L52.4,21.3z M52.1,22.2l0.2-0.8h0.2l-0.2,0.8H52.1z"/>
			<path class="st2" d="M52.8,22.2l0.2-1.1h0.2l0.2,0.5c0,0.1,0.1,0.2,0.1,0.4h0c0-0.1,0-0.2,0.1-0.4l0.1-0.5h0.2l-0.2,1.1h-0.2     l-0.2-0.5c-0.1-0.1-0.1-0.2-0.1-0.4l0,0c0,0.1,0,0.2-0.1,0.4L53,22.2H52.8z"/>
			<path class="st2" d="M54.5,21.6C54.5,21.6,54.5,21.6,54.5,21.6c-0.3,0-0.4,0.2-0.4,0.4c0,0.1,0,0.2,0.1,0.2     c0.1,0,0.2-0.1,0.2-0.3L54.5,21.6z M54.4,22.2c0,0,0-0.1,0-0.2h0c-0.1,0.2-0.2,0.2-0.3,0.2c-0.1,0-0.2-0.1-0.2-0.3     c0-0.3,0.2-0.6,0.6-0.6c0.1,0,0.2,0,0.2,0l-0.1,0.4c0,0.1,0,0.3,0,0.4H54.4z"/>
			<path class="st2" d="M55.2,21.2l0,0.2h0.2l0,0.1h-0.2l-0.1,0.3c0,0,0,0.1,0,0.1c0,0,0,0.1,0.1,0.1c0,0,0,0,0.1,0l0,0.2     c0,0-0.1,0-0.1,0c-0.1,0-0.2-0.1-0.2-0.2c0,0,0-0.1,0-0.1l0.1-0.4h-0.1l0-0.1H55l0-0.2L55.2,21.2z"/>
			<path class="st2" d="M55.7,21.3c-0.1,0-0.1,0-0.1-0.1c0-0.1,0.1-0.1,0.1-0.1c0.1,0,0.1,0,0.1,0.1C55.8,21.3,55.7,21.3,55.7,21.3     L55.7,21.3z M55.4,22.2l0.2-0.8h0.2l-0.2,0.8H55.4z"/>
			<path class="st2" d="M56,21.9c0,0.1,0.1,0.2,0.2,0.2c0.1,0,0.2-0.2,0.2-0.4c0-0.1,0-0.2-0.2-0.2C56.1,21.6,56,21.8,56,21.9      M56.6,21.7c0,0.3-0.2,0.5-0.5,0.5c-0.2,0-0.3-0.1-0.3-0.3c0-0.3,0.2-0.5,0.5-0.5C56.5,21.4,56.6,21.6,56.6,21.7"/>
			<path class="st2" d="M56.7,22.2l0.1-0.6c0-0.1,0-0.2,0-0.3H57l0,0.1h0c0.1-0.1,0.2-0.2,0.3-0.2c0.1,0,0.2,0.1,0.2,0.2     c0,0,0,0.1,0,0.1l-0.1,0.5h-0.2l0.1-0.5c0,0,0-0.1,0-0.1c0-0.1,0-0.1-0.1-0.1c-0.1,0-0.2,0.1-0.2,0.3l-0.1,0.4H56.7z"/>
			<path class="st2" d="M58.2,21.6C58.2,21.6,58.2,21.6,58.2,21.6c-0.3,0-0.4,0.2-0.4,0.4c0,0.1,0,0.2,0.1,0.2     c0.1,0,0.2-0.1,0.2-0.3L58.2,21.6z M58.2,22.2c0,0,0-0.1,0-0.2h0c-0.1,0.2-0.2,0.2-0.3,0.2c-0.1,0-0.2-0.1-0.2-0.3     c0-0.3,0.2-0.6,0.6-0.6c0.1,0,0.2,0,0.2,0l-0.1,0.4c0,0.1,0,0.3,0,0.4H58.2z"/>
		</g>
		<polygon class="st2" points="58.5,22.2 58.8,21.1 59,21.1 58.7,22.2   "/>
		<polygon class="st2" points="60,21.7 59.6,21.7 59.5,22.1 59.9,22.1 59.9,22.2 59.3,22.2 59.5,21.1 60.1,21.1 60.1,21.3     59.6,21.3 59.6,21.6 60,21.6   "/>
		<g>
			<path class="st2" d="M60.4,21.4l0.1,0.1c0,0.1,0,0.1,0.1,0.1h0c0,0,0.1-0.1,0.1-0.1l0.1-0.2h0.2l-0.3,0.4l0.2,0.4h-0.2l-0.1-0.2     c0-0.1,0-0.1-0.1-0.1h0c0,0,0,0.1-0.1,0.1l-0.1,0.2H60l0.4-0.4l-0.2-0.4H60.4z"/>
			<path class="st2" d="M60.9,22.2l0.2-1.2h0.2l-0.1,0.5h0c0.1-0.1,0.2-0.1,0.3-0.1c0.1,0,0.2,0.1,0.2,0.2c0,0,0,0.1,0,0.1l-0.1,0.5     h-0.2l0.1-0.5c0,0,0-0.1,0-0.1c0-0.1,0-0.1-0.1-0.1c-0.1,0-0.2,0.1-0.2,0.3l-0.1,0.4H60.9z"/>
			<path class="st2" d="M62.1,21.3c-0.1,0-0.1,0-0.1-0.1c0-0.1,0.1-0.1,0.1-0.1c0.1,0,0.1,0,0.1,0.1C62.2,21.3,62.2,21.3,62.1,21.3     L62.1,21.3z M61.8,22.2l0.2-0.8h0.2L62,22.2H61.8z"/>
			<path class="st2" d="M62.5,21.9C62.5,21.9,62.5,22,62.5,21.9c0,0.2,0,0.2,0.1,0.2c0.2,0,0.3-0.2,0.3-0.4c0-0.1,0-0.2-0.1-0.2     C62.6,21.6,62.5,21.7,62.5,21.9L62.5,21.9z M62.6,21.1l-0.1,0.5h0c0.1-0.1,0.2-0.1,0.3-0.1c0.2,0,0.2,0.1,0.2,0.3     c0,0.3-0.2,0.6-0.5,0.6c-0.2,0-0.3-0.1-0.3-0.2c0,0,0-0.1,0-0.1l0.2-0.8H62.6z"/>
			<path class="st2" d="M63.4,21.3c-0.1,0-0.1,0-0.1-0.1c0-0.1,0.1-0.1,0.1-0.1c0.1,0,0.1,0,0.1,0.1C63.5,21.3,63.5,21.3,63.4,21.3     L63.4,21.3z M63.1,22.2l0.2-0.8h0.2l-0.2,0.8H63.1z"/>
			<path class="st2" d="M64,21.2l0,0.2h0.2l0,0.1h-0.2l-0.1,0.3c0,0,0,0.1,0,0.1c0,0,0,0.1,0.1,0.1c0,0,0,0,0.1,0l0,0.2     c0,0-0.1,0-0.1,0c-0.1,0-0.2-0.1-0.2-0.2c0,0,0-0.1,0-0.1l0.1-0.4h-0.1l0-0.1h0.1l0-0.2L64,21.2z"/>
			<path class="st2" d="M64.4,21.3c-0.1,0-0.1,0-0.1-0.1c0-0.1,0.1-0.1,0.1-0.1c0.1,0,0.1,0,0.1,0.1C64.5,21.3,64.5,21.3,64.4,21.3      M64.1,22.2l0.2-0.8h0.2l-0.2,0.8H64.1z"/>
			<path class="st2" d="M64.7,21.9c0,0.1,0.1,0.2,0.2,0.2c0.1,0,0.2-0.2,0.2-0.4c0-0.1,0-0.2-0.2-0.2C64.8,21.6,64.7,21.8,64.7,21.9      M65.4,21.7c0,0.3-0.2,0.5-0.5,0.5c-0.2,0-0.3-0.1-0.3-0.3c0-0.3,0.2-0.5,0.5-0.5C65.2,21.4,65.4,21.6,65.4,21.7"/>
			<path class="st2" d="M65.4,22.2l0.1-0.6c0-0.1,0-0.2,0-0.3h0.2l0,0.1h0c0.1-0.1,0.2-0.2,0.3-0.2c0.1,0,0.2,0.1,0.2,0.2     c0,0,0,0.1,0,0.1l-0.1,0.5h-0.2l0.1-0.5c0,0,0-0.1,0-0.1c0-0.1,0-0.1-0.1-0.1c-0.1,0-0.2,0.1-0.2,0.3l-0.1,0.4H65.4z"/>
			<path class="st2" d="M67.5,22.2c-0.1,0-0.2,0.1-0.3,0.1c-0.3,0-0.5-0.2-0.5-0.5c0-0.2,0.1-0.4,0.3-0.6c0.1-0.1,0.3-0.1,0.4-0.1     c0.1,0,0.2,0,0.2,0.1l-0.1,0.2c0,0-0.1,0-0.2,0c-0.1,0-0.2,0-0.3,0.1c-0.1,0.1-0.2,0.2-0.2,0.4c0,0.2,0.1,0.3,0.3,0.3     c0.1,0,0.2,0,0.2,0L67.5,22.2z"/>
			<path class="st2" d="M68.2,21.6c0-0.1,0-0.1-0.1-0.1c-0.1,0-0.2,0.1-0.2,0.2C68,21.8,68.2,21.7,68.2,21.6L68.2,21.6z M68.3,22.2     c-0.1,0-0.2,0.1-0.3,0.1c-0.2,0-0.3-0.1-0.3-0.3c0-0.2,0.2-0.5,0.5-0.5c0.2,0,0.3,0.1,0.3,0.2c0,0.2-0.2,0.3-0.5,0.3     c0,0,0,0.1,0,0.1c0,0.1,0.1,0.1,0.2,0.1c0.1,0,0.2,0,0.2-0.1L68.3,22.2z"/>
			<path class="st2" d="M68.4,22.2l0.1-0.6c0-0.1,0-0.2,0-0.3h0.2l0,0.1h0c0.1-0.1,0.2-0.2,0.3-0.2c0.1,0,0.2,0.1,0.2,0.2     c0,0,0,0.1,0,0.1l-0.1,0.5h-0.2l0.1-0.5c0,0,0-0.1,0-0.1c0-0.1,0-0.1-0.1-0.1c-0.1,0-0.2,0.1-0.2,0.3l-0.1,0.4H68.4z"/>
			<path class="st2" d="M69.8,21.2l0,0.2h0.2l0,0.1h-0.2l-0.1,0.3c0,0,0,0.1,0,0.1c0,0,0,0.1,0.1,0.1c0,0,0,0,0.1,0l0,0.2     c0,0-0.1,0-0.1,0c-0.1,0-0.2-0.1-0.2-0.2c0,0,0-0.1,0-0.1l0.1-0.4h-0.1l0-0.1h0.1l0-0.2L69.8,21.2z"/>
			<path class="st2" d="M69.9,22.2l0.1-0.5c0-0.1,0-0.2,0-0.3h0.2c0,0.1,0,0.1,0,0.2h0c0.1-0.1,0.1-0.2,0.3-0.2c0,0,0,0,0,0l0,0.2     c0,0,0,0,0,0c-0.1,0-0.2,0.1-0.3,0.3l-0.1,0.3H69.9z"/>
			<path class="st2" d="M71,21.6c0-0.1,0-0.1-0.1-0.1c-0.1,0-0.2,0.1-0.2,0.2C70.9,21.8,71,21.7,71,21.6L71,21.6z M71.1,22.2     c-0.1,0-0.2,0.1-0.3,0.1c-0.2,0-0.3-0.1-0.3-0.3c0-0.2,0.2-0.5,0.5-0.5c0.2,0,0.3,0.1,0.3,0.2c0,0.2-0.2,0.3-0.5,0.3     c0,0,0,0.1,0,0.1c0,0.1,0.1,0.1,0.2,0.1c0.1,0,0.2,0,0.2-0.1L71.1,22.2z"/>
		</g>
	</g>
	<g>
		<path class="st3" d="M104.7,11.5c-3.2,0.1-3.3,0.2-3.4,3.4c-0.1-3.2-0.2-3.3-3.4-3.4c3.2-0.1,3.3-0.2,3.4-3.4    C101.4,11.3,101.5,11.4,104.7,11.5"/>
		<path class="st3" d="M111.5,11.5c-3.2,0.1-3.3,0.2-3.4,3.4c-0.1-3.2-0.2-3.3-3.4-3.4c3.2-0.1,3.3-0.2,3.4-3.4    C108.2,11.3,108.3,11.4,111.5,11.5"/>
		<path class="st4" d="M104.7,11.6c0.1,3.2,0.2,3.3,3.4,3.5h-6.9C104.4,14.9,104.5,14.8,104.7,11.6"/>
		<polygon class="st4" points="101.8,16.9 101.8,17.3 104.1,17.3 104.1,22.4 105.2,22.4 105.2,17.3 107.5,17.3 107.5,16.9   "/>
		<path class="st4" d="M110.8,22.4l-0.7-1.7h-1.9l-0.8,1.7h-0.6l2.5-5.5h0.2l2.5,5.5H110.8z M109.1,18.4l-0.8,1.8h1.6L109.1,18.4    L109.1,18.4z"/>
		<path class="st4" d="M122.7,22.4l-0.7-1.7H120l-0.8,1.7h-0.6l2.5-5.5h0.2l2.5,5.5H122.7z M121,18.4l-0.8,1.8h1.6L121,18.4    L121,18.4z"/>
		<path class="st4" d="M118.8,16.9h0.5c-0.4,0.9-1.7,4.5-2,5.5H117l-1.7-3.7h0l-1.6,3.7h-0.3l-2-5.5h0.9l1.5,4.1h0l1.4-3.5h0.5    l1.5,3.4h0L118.8,16.9z"/>
		<polygon class="st4" points="124.5,16.9 129,16.9 125.5,21.9 129,21.9 129,22.4 124.1,22.4 127.6,17.3 124.5,17.3   "/>
		<path class="st4" d="M134,16.9V20c0,0.7,0,1.3-0.4,1.7c-0.3,0.3-0.7,0.4-1,0.4c-0.3,0-0.6,0-1-0.3c-0.4-0.3-0.6-0.7-0.6-1.7v-3.2    h-1v3.3c0,1,0.3,1.5,0.7,1.8c0.6,0.5,1.3,0.5,1.7,0.5c0.5,0,1.1-0.1,1.6-0.5c0.6-0.5,0.7-1.3,0.7-2.1v-0.7v-2.2H134z"/>
		<polygon class="st4" points="140.8,22.4 140.8,16.9 140.3,16.9 140.3,20.7 135.8,16.9 135.8,22.4 136.4,22.4 136.4,18.6   "/>
		<path class="st4" d="M118.8,10.2h-0.9v2.9c0,0.7,0,1.2-0.3,1.6c-0.3,0.4-0.7,0.6-1.1,0.6c-0.5,0-0.9-0.2-1.2-0.6    c-0.3-0.4-0.4-1-0.4-1.6v-1.6h-0.9v1.6c0,1.8,0.9,2.7,2.4,2.7c1.7,0,2.5-1.2,2.5-2.5V10.2z"/>
		<path class="st4" d="M120.4,13.8c0,1.2-1.3,1.5-1.3,1.5l0.4,0.5c0,0,1.8-0.2,1.8-2.3v-3.3h-0.9V13.8z"/>
		<rect x="122.7" y="8.4" class="st4" width="0.9" height="5.5"/>
		<path class="st4" d="M139.8,12.5c0,0.6-0.3,0.7-0.6,0.7h-11.2v-3.1h-1.3c-1.2,0-1.9,1-1.9,2.2c0,0.6,0.2,1.7,1.5,1.7h0.8    c-0.2,1.1-1.2,1.4-1.2,1.4l0.3,0.5c0,0,1.6-0.3,1.9-1.9h11.6c0.8,0,1.2-0.5,1.2-1.3v-2.5h-1V12.5z M126.6,10.8h0.4v2.5h-0.7    c-0.2,0-0.8,0-0.8-1.1C125.6,11.3,125.9,10.8,126.6,10.8"/>
		<rect x="140.5" y="8.2" transform="matrix(0.7071 -0.7071 0.7071 0.7071 35.144 102.147)" class="st4" width="0.8" height="0.8"/>
		
			<rect x="139.3" y="8.2" transform="matrix(0.7066 -0.7076 0.7076 0.7066 34.8655 101.3938)" class="st4" width="0.8" height="0.8"/>
		
			<rect x="120.4" y="8.2" transform="matrix(0.7076 -0.7066 0.7066 0.7076 29.2228 87.9187)" class="st4" width="0.8" height="0.8"/>
		<rect x="116" y="8.2" transform="matrix(0.7061 -0.7081 0.7081 0.7061 28.08 84.9622)" class="st4" width="0.8" height="0.8"/>
	<line x1="95" y1="0" x2="95" y2="30" stroke="#e9e9e9" stroke-width="0.5"/></g>
</g>
</svg>