<svg xmlns="http://www.w3.org/2000/svg" xmlns:xlink="http://www.w3.org/1999/xlink" fill="#ad8b46" version="1.1" id="Layer_1" x="0px" y="0px" viewBox="0 0 746.66 754.56" style="enable-background:new 0 0 746.66 754.56;" xml:space="preserve">
<style type="text/css">
</style>
<g>
	<path class="st0" d="M502.21,41.2c-0.74-1.09-1.81-1.99-3.12-2.51c-0.88-0.35-1.79-0.51-2.68-0.49c-1.34,0.03-2.63,0.44-3.73,1.19   c-1.1,0.74-1.99,1.81-2.51,3.12c-0.35,0.88-0.51,1.79-0.49,2.68c0.02,1.34,0.44,2.63,1.18,3.73c0.54,0.8,1.26,1.49,2.12,2.01   l-28.84,71.99l4.65,10.87l-8.19,20.45c0.81-0.4,1.69-0.55,2.54-0.5c0.05-0.05,0.09-0.11,0.14-0.17l7.94-19.82l-4.64-10.86   l28.49-71.12c0.54,0.12,1.07,0.17,1.61,0.16c1.34-0.02,2.63-0.44,3.72-1.18c1.1-0.74,2-1.81,2.52-3.13   c0.35-0.88,0.51-1.79,0.49-2.68C503.37,43.59,502.95,42.3,502.21,41.2z M500.82,46.78c-0.24,0.59-0.59,1.11-1.01,1.53   c-0.63,0.64-1.44,1.08-2.31,1.27c-0.88,0.19-1.8,0.13-2.69-0.23c-0.6-0.24-1.11-0.58-1.53-1c-0.64-0.63-1.08-1.44-1.26-2.31   c-0.19-0.87-0.13-1.8,0.23-2.69c0.24-0.59,0.58-1.11,1-1.53c0.63-0.64,1.44-1.08,2.31-1.26c0.87-0.19,1.8-0.13,2.69,0.23   c0.59,0.24,1.1,0.58,1.53,1.01c0.64,0.63,1.08,1.44,1.27,2.3C501.24,44.96,501.18,45.88,500.82,46.78z"/>
	<path class="st0" d="M547.01,615.2c-1,1.33-1.06,3.21-0.01,4.62c1.27,1.71,3.68,2.06,5.39,0.79s2.06-3.68,0.79-5.39   c-1.04-1.4-2.86-1.89-4.42-1.32l-49.66-66.39c-0.48,0.56-0.98,1.1-1.51,1.61L547.01,615.2z"/>
	<path class="st0" d="M439.3,159.72l20.42-68.54c0.29,0.02,0.59,0.01,0.88-0.02c0.96-0.1,1.86-0.49,2.6-1.09   c0.73-0.6,1.3-1.43,1.59-2.4c0.2-0.66,0.25-1.32,0.18-1.95c-0.1-0.96-0.49-1.86-1.09-2.6c-0.6-0.73-1.43-1.3-2.41-1.6   c-0.65-0.19-1.31-0.25-1.95-0.18c-0.96,0.1-1.86,0.49-2.6,1.09c-0.73,0.6-1.31,1.43-1.59,2.41c-0.2,0.65-0.25,1.31-0.18,1.95   c0.1,0.96,0.49,1.86,1.09,2.6c0.38,0.47,0.85,0.86,1.4,1.17l-20.58,69.07L439.3,159.72z M457.42,87.08   c-0.16-0.51-0.18-1.06-0.01-1.62c0.11-0.37,0.29-0.69,0.52-0.97c0.34-0.41,0.8-0.72,1.31-0.88c0.51-0.16,1.06-0.17,1.61-0.01   c0.37,0.11,0.69,0.28,0.97,0.52c0.42,0.34,0.72,0.8,0.88,1.31c0.16,0.51,0.17,1.06,0.01,1.61c-0.11,0.36-0.28,0.69-0.51,0.96   c-0.34,0.42-0.8,0.72-1.31,0.88c-0.51,0.16-1.06,0.18-1.62,0.01c-0.36-0.11-0.69-0.29-0.96-0.51   C457.89,88.05,457.58,87.59,457.42,87.08z"/>
	<path class="st0" d="M609.43,537.87c0.53,1.16,1.41,2.18,2.57,2.9c0.78,0.48,1.62,0.78,2.48,0.9c1.27,0.19,2.58,0,3.74-0.53   c1.16-0.53,2.19-1.41,2.9-2.58c0.48-0.78,0.78-1.62,0.9-2.48c0.19-1.28,0-2.58-0.53-3.74c-0.53-1.16-1.41-2.18-2.58-2.9   c-0.78-0.47-1.62-0.77-2.48-0.9c-1.28-0.19-2.58,0-3.74,0.53c-0.85,0.39-1.62,0.95-2.26,1.69l-19.09-11.66l-0.24-1l-1.03-0.13   c-0.32,0.77-0.69,1.51-1.1,2.22l0.48,0.29l5.19,21.46l39.98,24.41c-0.43,1.61,0.22,3.37,1.71,4.28c1.82,1.11,4.19,0.53,5.3-1.28   c1.11-1.82,0.53-4.19-1.29-5.3c-1.49-0.91-3.36-0.69-4.59,0.44l-39.22-23.95l-4.47-18.46l17.24,10.52c-0.2,0.48-0.34,0.99-0.41,1.5   C608.72,535.41,608.91,536.71,609.43,537.87z M611.66,532.78c0.32-0.53,0.73-0.96,1.21-1.3c0.71-0.51,1.54-0.8,2.41-0.83   c0.86-0.04,1.73,0.17,2.52,0.65c0.53,0.32,0.97,0.73,1.3,1.21c0.5,0.7,0.79,1.54,0.83,2.4c0.04,0.86-0.16,1.74-0.65,2.53   c-0.32,0.53-0.74,0.96-1.21,1.3c-0.71,0.51-1.55,0.79-2.41,0.83c-0.86,0.04-1.73-0.17-2.52-0.65c-0.53-0.32-0.96-0.73-1.3-1.2   c-0.51-0.71-0.79-1.55-0.83-2.4C610.97,534.45,611.18,533.57,611.66,532.78z"/>
	<path class="st0" d="M443.71,42.37c0.29-1.33-0.55-2.65-1.88-2.94c-1.33-0.29-2.64,0.55-2.93,1.88c-0.29,1.33,0.54,2.65,1.87,2.94   C442.1,44.54,443.42,43.7,443.71,42.37z"/>
	<path class="st0" d="M712.75,327.78c-1.35,0.16-2.32,1.38-2.16,2.73s1.39,2.32,2.74,2.16c1.35-0.16,2.32-1.39,2.16-2.74   C715.33,328.58,714.1,327.62,712.75,327.78z"/>
	<path class="st0" d="M252.61,488.03l-98.48,90.96c-0.24-0.16-0.5-0.31-0.76-0.43c-0.88-0.4-1.85-0.52-2.79-0.38   c-0.94,0.15-1.85,0.56-2.6,1.25c-0.5,0.46-0.89,1.01-1.15,1.59c-0.4,0.88-0.52,1.85-0.38,2.79c0.15,0.94,0.56,1.85,1.26,2.6   c0.46,0.5,1,0.88,1.58,1.15c0.88,0.4,1.85,0.52,2.79,0.38c0.94-0.15,1.85-0.56,2.6-1.26c0.5-0.45,0.88-1,1.15-1.59   c0.4-0.88,0.52-1.85,0.38-2.79c-0.09-0.59-0.29-1.18-0.6-1.72l98.77-91.23L252.61,488.03z M154.02,583.7   c-0.13,0.52-0.39,1.01-0.81,1.4c-0.28,0.26-0.6,0.45-0.94,0.57c-0.51,0.18-1.06,0.21-1.58,0.09c-0.52-0.13-1-0.39-1.39-0.82   c-0.26-0.28-0.45-0.6-0.57-0.94c-0.19-0.5-0.22-1.05-0.09-1.58c0.12-0.52,0.39-1,0.82-1.39c0.28-0.26,0.6-0.45,0.93-0.57   c0.5-0.19,1.05-0.22,1.58-0.09c0.52,0.12,1.01,0.39,1.4,0.81c0.26,0.28,0.45,0.6,0.57,0.93   C154.11,582.62,154.14,583.18,154.02,583.7z"/>
	<path class="st0" d="M276.63,514.07c0-0.2,0.02-0.39,0.03-0.58l-48.56,72.82c-1.59-0.5-3.38,0.08-4.35,1.54   c-1.18,1.77-0.7,4.16,1.07,5.34s4.16,0.7,5.34-1.07c0.97-1.46,0.82-3.33-0.25-4.61l46.98-70.45   C276.73,516.09,276.63,515.09,276.63,514.07z"/>
	<path class="st0" d="M712.26,323.64c-0.91,0.11-1.75,0.4-2.5,0.82c-1.12,0.65-2.03,1.6-2.62,2.73c-0.43,0.83-0.69,1.76-0.73,2.73   l-49.32,5.85l4.79-6.08l14.1-1.67c0.09,0.28,0.22,0.55,0.36,0.8c0.48,0.84,1.19,1.51,2.03,1.95c0.84,0.43,1.83,0.63,2.84,0.51   c0.67-0.08,1.3-0.29,1.86-0.61c0.84-0.48,1.51-1.19,1.95-2.03s0.64-1.83,0.52-2.85c-0.08-0.67-0.3-1.3-0.62-1.87   c-0.47-0.84-1.18-1.51-2.03-1.94c-0.84-0.44-1.83-0.64-2.84-0.52c-0.68,0.08-1.31,0.3-1.87,0.62c-0.84,0.47-1.51,1.18-1.95,2.03   c-0.28,0.53-0.45,1.13-0.52,1.75l-14.99,1.78l-6.7,8.5l-24.6,2.92l0.8,2.1l21.9-2.6l-4.99,6.34l-14.81,1.76l0.8,2.1l15.17-1.8   l6.9-8.76l51.48-6.11c0.15,0.51,0.35,0.99,0.61,1.44c0.64,1.12,1.59,2.03,2.73,2.61c1.13,0.59,2.46,0.85,3.82,0.69   c0.91-0.11,1.76-0.39,2.5-0.82c1.13-0.64,2.03-1.59,2.62-2.73c0.58-1.13,0.85-2.46,0.69-3.82c-0.11-0.9-0.4-1.75-0.82-2.5   c-0.65-1.12-1.59-2.03-2.73-2.61C714.94,323.74,713.62,323.48,712.26,323.64z M677.98,325.6c0.14-0.52,0.44-0.97,0.85-1.32   c0.4-0.35,0.91-0.59,1.48-0.65c0.38-0.04,0.75-0.01,1.09,0.09c0.52,0.15,0.98,0.45,1.33,0.85c0.35,0.41,0.58,0.91,0.65,1.48   c0.05,0.38,0.01,0.75-0.09,1.1c-0.15,0.52-0.45,0.98-0.85,1.33c-0.41,0.35-0.91,0.58-1.48,0.65c-0.38,0.05-0.75,0.01-1.1-0.09   c-0.52-0.15-0.98-0.45-1.33-0.85c-0.35-0.4-0.58-0.91-0.65-1.48C677.85,326.31,677.88,325.94,677.98,325.6z M717.47,329.7   c0.07,0.62,0.02,1.21-0.14,1.77c-0.24,0.83-0.72,1.57-1.37,2.14c-0.66,0.56-1.46,0.95-2.39,1.05c-0.61,0.07-1.21,0.01-1.76-0.15   c-0.83-0.24-1.58-0.73-2.14-1.38s-0.94-1.47-1.05-2.39c-0.07-0.61-0.02-1.21,0.14-1.76c0.24-0.83,0.73-1.57,1.38-2.14   c0.65-0.56,1.46-0.95,2.39-1.05c0.61-0.07,1.21-0.01,1.76,0.15c0.83,0.24,1.58,0.72,2.14,1.38   C716.98,327.97,717.36,328.79,717.47,329.7z"/>
	<path class="st0" d="M222.49,487.53l-87.97,67.11c-1.34-0.99-3.22-1.03-4.62,0.03c-1.7,1.29-2.03,3.7-0.74,5.4   c1.29,1.7,3.7,2.03,5.4,0.74c1.39-1.06,1.87-2.88,1.27-4.44l89.02-67.91C224.05,488.19,223.26,487.88,222.49,487.53z"/>
	<path class="st0" d="M205.25,461.26l-97.31,50.97c-1.15-1.2-3-1.56-4.56-0.75c-1.89,0.98-2.62,3.31-1.64,5.2s3.31,2.62,5.2,1.64   c1.55-0.81,2.32-2.52,2-4.16l98.99-51.85L205.25,461.26z"/>
	<path class="st0" d="M34.84,334.61c-1.35-0.19-2.6,0.76-2.78,2.1c-0.19,1.35,0.76,2.59,2.11,2.78c1.35,0.19,2.59-0.75,2.78-2.1   S36.19,334.79,34.84,334.61z"/>
	<path class="st0" d="M614.18,537.21c1.16,0.71,2.68,0.34,3.39-0.82c0.71-1.16,0.34-2.68-0.82-3.39c-1.16-0.71-2.68-0.34-3.39,0.82   C612.66,534.99,613.02,536.5,614.18,537.21z"/>
	<path class="st0" d="M409.33,48.46c0.7,0.61,1.55,1.08,2.48,1.35l-13.09,108.25l2.18,0.09l13.07-108.08   c0.53-0.02,1.04-0.11,1.54-0.24c1.25-0.36,2.35-1.07,3.18-2.04c0.84-0.96,1.41-2.18,1.58-3.54c0.11-0.91,0.03-1.8-0.21-2.63   c-0.36-1.25-1.07-2.36-2.04-3.19c-0.96-0.84-2.19-1.4-3.54-1.57c-0.91-0.11-1.8-0.03-2.63,0.21c-1.24,0.36-2.35,1.07-3.18,2.03   c-0.84,0.96-1.41,2.18-1.57,3.55c-0.12,0.9-0.03,1.8,0.21,2.63C407.65,46.52,408.37,47.63,409.33,48.46z M409.25,42.91   c0.07-0.62,0.27-1.18,0.56-1.68c0.43-0.75,1.08-1.36,1.84-1.76c0.76-0.39,1.65-0.57,2.57-0.45c0.61,0.07,1.18,0.27,1.68,0.55   c0.75,0.43,1.36,1.08,1.75,1.84c0.39,0.76,0.57,1.65,0.46,2.57c-0.07,0.61-0.27,1.18-0.56,1.68c-0.43,0.75-1.07,1.37-1.84,1.76   c-0.76,0.39-1.65,0.57-2.56,0.46c-0.62-0.07-1.18-0.27-1.69-0.56c-0.75-0.43-1.36-1.07-1.75-1.84   C409.31,44.71,409.13,43.84,409.25,42.91z"/>
	<path class="st0" d="M628.58,496.15c1.95,0.86,4.22-0.02,5.08-1.96c0.86-1.95-0.02-4.22-1.96-5.08c-1.6-0.71-3.42-0.24-4.5,1.03   l-39.64-17.54l-0.55,2.14l39.3,17.39C626.1,493.78,626.98,495.45,628.58,496.15z"/>
	<path class="st0" d="M429.78,99.09l11.18-50.62c0.53,0.03,1.05,0,1.56-0.1c1.27-0.23,2.44-0.84,3.36-1.71   c0.93-0.88,1.62-2.04,1.91-3.38c0.2-0.89,0.21-1.79,0.05-2.63c-0.23-1.27-0.84-2.44-1.71-3.37c-0.88-0.92-2.04-1.61-3.38-1.91   c-0.89-0.2-1.79-0.2-2.63-0.05c-1.27,0.24-2.44,0.84-3.36,1.72c-0.93,0.88-1.62,2.04-1.91,3.37c-0.2,0.89-0.2,1.79-0.05,2.63   c0.24,1.27,0.84,2.44,1.72,3.37c0.64,0.68,1.44,1.23,2.34,1.58l-10.71,48.5l-4.17-6.53l3.06-13.86c0.29,0,0.59-0.02,0.87-0.08   c0.95-0.18,1.82-0.63,2.51-1.28c0.69-0.65,1.2-1.52,1.42-2.52c0.15-0.66,0.15-1.33,0.04-1.96c-0.18-0.95-0.63-1.82-1.28-2.51   c-0.65-0.69-1.52-1.2-2.52-1.42c-0.66-0.15-1.33-0.15-1.96-0.03c-0.95,0.17-1.82,0.62-2.5,1.28c-0.69,0.65-1.2,1.52-1.42,2.51   c-0.15,0.67-0.15,1.33-0.03,1.96c0.17,0.95,0.62,1.82,1.28,2.51c0.41,0.44,0.91,0.8,1.48,1.06l-3.25,14.74l5.82,9.13l-13.07,59.21   l2.21,0.09l12.52-56.7l4.34,6.8l-11.07,50.14l2.21,0.09l11.18-50.64L429.78,99.09z M438.72,45.48c-0.71-0.5-1.25-1.21-1.56-2   c-0.32-0.8-0.41-1.69-0.21-2.6c0.13-0.6,0.38-1.14,0.72-1.62c0.5-0.71,1.2-1.26,2.01-1.57c0.8-0.32,1.69-0.4,2.59-0.2   c0.61,0.13,1.15,0.38,1.62,0.72c0.7,0.5,1.25,1.2,1.56,2c0.31,0.81,0.41,1.69,0.21,2.6c-0.13,0.6-0.39,1.15-0.72,1.62   c-0.5,0.71-1.21,1.25-2.01,1.57c-0.8,0.32-1.69,0.4-2.6,0.2C439.74,46.06,439.19,45.81,438.72,45.48z M424.42,72.18   c-0.2-0.49-0.25-1.05-0.13-1.61c0.08-0.37,0.24-0.71,0.44-1c0.31-0.44,0.75-0.78,1.24-0.98c0.5-0.19,1.05-0.25,1.61-0.13   c0.38,0.08,0.71,0.24,1.01,0.44c0.44,0.31,0.78,0.75,0.98,1.24c0.19,0.5,0.25,1.05,0.12,1.61c-0.08,0.38-0.23,0.71-0.44,1.01   c-0.31,0.44-0.75,0.78-1.24,0.98c-0.49,0.2-1.05,0.25-1.61,0.12c-0.38-0.08-0.71-0.23-1.01-0.44   C424.95,73.11,424.62,72.68,424.42,72.18z"/>
	<path class="st0" d="M364.3,25.77c1.41,0,2.55-1.14,2.55-2.55c0-1.41-1.14-2.55-2.55-2.55s-2.55,1.14-2.55,2.55   C361.75,24.62,362.89,25.77,364.3,25.77z"/>
	<path class="st0" d="M360.46,28.91c0.8,0.54,1.73,0.92,2.71,1.08v77.55l8.36,8.36v41.05l2.24,0.09v-42.08l-8.35-8.36V29.99   c0.54-0.09,1.06-0.24,1.55-0.45c1.23-0.52,2.28-1.39,3.01-2.48c0.74-1.09,1.18-2.43,1.18-3.84c0-0.95-0.2-1.85-0.54-2.67   c-0.53-1.23-1.4-2.28-2.49-3.02c-1.09-0.74-2.42-1.17-3.83-1.17c-0.95,0-1.85,0.2-2.67,0.54c-1.23,0.53-2.28,1.39-3.02,2.49   c-0.74,1.09-1.17,2.42-1.17,3.84c0,0.95,0.19,1.85,0.54,2.67C358.5,27.12,359.37,28.16,360.46,28.91z M360.05,21.42   c0.35-0.83,0.94-1.54,1.68-2.03c0.74-0.5,1.62-0.79,2.58-0.79c0.64,0,1.24,0.13,1.79,0.36c0.83,0.34,1.54,0.93,2.03,1.67   c0.5,0.74,0.79,1.62,0.79,2.58c0,0.64-0.13,1.25-0.36,1.79c-0.35,0.83-0.93,1.54-1.67,2.03c-0.74,0.5-1.62,0.79-2.58,0.79   c-0.65,0-1.25-0.13-1.79-0.36c-0.83-0.35-1.54-0.94-2.03-1.68c-0.5-0.74-0.79-1.62-0.79-2.58   C359.69,22.58,359.81,21.97,360.05,21.42z"/>
	<path class="st0" d="M395.06,81.46l-6.12,76.21l2.17,0.09l6.12-76.12c1.63-0.34,2.92-1.71,3.06-3.45c0.18-2.12-1.4-3.98-3.52-4.16   s-3.98,1.4-4.16,3.52C392.47,79.29,393.51,80.85,395.06,81.46z"/>
	<path class="st0" d="M495.59,47.43c1.31,0.52,2.79-0.11,3.32-1.42c0.52-1.31-0.11-2.79-1.42-3.32c-1.31-0.52-2.79,0.11-3.32,1.42   C493.64,45.42,494.28,46.91,495.59,47.43z"/>
	<path class="st0" d="M665.62,270.49c0.99,1.34,2.78,1.93,4.42,1.33c2-0.73,3.03-2.94,2.3-4.94c-0.73-2-2.94-3.03-4.94-2.3   c-1.64,0.6-2.63,2.2-2.52,3.87l-54.64,20.15l0.77,2.03L665.62,270.49z"/>
	<path class="st0" d="M604.48,236.99c0.75,0.34,1.48,0.72,2.19,1.13l61.99-42.76c0.42,0.47,0.89,0.88,1.41,1.2   c1.1,0.69,2.37,1.04,3.64,1.02c1.27-0.02,2.57-0.41,3.69-1.19c0.75-0.52,1.36-1.17,1.82-1.9c0.69-1.09,1.04-2.36,1.02-3.63   c-0.01-1.28-0.41-2.57-1.19-3.7c-0.52-0.75-1.18-1.36-1.9-1.82c-1.1-0.69-2.37-1.04-3.64-1.02c-1.27,0.02-2.57,0.41-3.69,1.19   c-0.75,0.52-1.36,1.17-1.83,1.91c-0.69,1.1-1.04,2.36-1.02,3.64c0.01,0.83,0.18,1.68,0.52,2.48L604.48,236.99z M669.44,189.33   c0.31-0.8,0.85-1.52,1.61-2.05c0.51-0.35,1.05-0.59,1.62-0.7c0.85-0.18,1.73-0.11,2.53,0.2c0.81,0.31,1.52,0.85,2.05,1.61   c0.35,0.51,0.58,1.06,0.7,1.63c0.18,0.85,0.11,1.73-0.21,2.54c-0.31,0.8-0.85,1.52-1.61,2.04c-0.51,0.36-1.06,0.59-1.63,0.71   c-0.85,0.18-1.73,0.1-2.53-0.21c-0.8-0.31-1.52-0.85-2.05-1.61c-0.35-0.51-0.58-1.06-0.7-1.62   C669.06,191.02,669.13,190.14,669.44,189.33z"/>
	<path class="st0" d="M624.83,144.51c1.01-0.91,1.09-2.47,0.17-3.48c-0.91-1.01-2.47-1.08-3.48-0.17c-1.01,0.91-1.09,2.47-0.18,3.48   C622.26,145.35,623.82,145.42,624.83,144.51z"/>
	<path class="st0" d="M631.09,251.75l2.72-7.25l12.92-5.88c0.17,0.23,0.37,0.46,0.59,0.65c0.71,0.65,1.59,1.08,2.53,1.24   c0.93,0.16,1.93,0.04,2.87-0.38c0.62-0.28,1.15-0.67,1.59-1.15c0.65-0.71,1.08-1.59,1.24-2.53c0.16-0.94,0.05-1.94-0.37-2.87   c-0.28-0.62-0.68-1.15-1.15-1.59c-0.71-0.65-1.59-1.08-2.53-1.23c-0.94-0.16-1.94-0.05-2.86,0.37c-0.62,0.28-1.16,0.68-1.59,1.15   c-0.65,0.71-1.08,1.59-1.24,2.53c-0.1,0.59-0.09,1.21,0.04,1.82l-13.74,6.25l-3.8,10.14l-9.15,4.16c0.09,0.76,0.13,1.54,0.15,2.32   l7.92-3.6l-2.83,7.56l-5.82,2.65c-0.23,0.95-0.53,1.88-0.87,2.78l8.41-3.83l3.91-10.44l53.82-24.7c0.3,0.44,0.63,0.84,1.02,1.18   c0.95,0.87,2.13,1.45,3.39,1.66c1.26,0.22,2.61,0.07,3.85-0.51c0.83-0.38,1.55-0.91,2.13-1.54c0.88-0.95,1.45-2.13,1.67-3.39   c0.21-1.26,0.06-2.6-0.51-3.85c-0.38-0.83-0.91-1.55-1.54-2.13c-0.96-0.88-2.13-1.45-3.4-1.66c-1.26-0.22-2.6-0.07-3.85,0.5   c-0.83,0.38-1.55,0.91-2.13,1.54c-0.88,0.96-1.45,2.14-1.66,3.4c-0.16,0.92-0.12,1.89,0.14,2.82L631.09,251.75z M648.31,234.18   c0.28-0.45,0.69-0.83,1.21-1.07c0.35-0.16,0.71-0.23,1.06-0.25c0.54-0.01,1.07,0.13,1.53,0.41c0.46,0.28,0.83,0.69,1.07,1.21   c0.16,0.35,0.23,0.71,0.25,1.07c0.01,0.54-0.13,1.07-0.41,1.53c-0.28,0.46-0.69,0.83-1.21,1.07c-0.35,0.16-0.71,0.24-1.07,0.25   c-0.54,0.01-1.07-0.13-1.53-0.41c-0.45-0.28-0.83-0.69-1.07-1.21c-0.16-0.35-0.24-0.71-0.25-1.07   C647.88,235.17,648.03,234.64,648.31,234.18z M685.54,223.89c0.45-0.73,1.11-1.35,1.95-1.73c0.56-0.26,1.15-0.38,1.73-0.4   c0.87-0.02,1.72,0.21,2.46,0.66c0.73,0.45,1.34,1.11,1.72,1.95c0.26,0.57,0.39,1.15,0.4,1.73c0.03,0.86-0.21,1.72-0.66,2.45   c-0.45,0.74-1.11,1.35-1.95,1.73c-0.56,0.26-1.15,0.38-1.73,0.4c-0.87,0.02-1.73-0.21-2.46-0.66c-0.73-0.45-1.34-1.11-1.72-1.96   c-0.26-0.56-0.39-1.14-0.4-1.72C684.86,225.48,685.1,224.63,685.54,223.89z"/>
	<path class="st0" d="M590.37,517.19l0.63,0.44l-0.33-1.37C590.57,516.57,590.48,516.89,590.37,517.19z"/>
	<path class="st0" d="M675.34,298.47c0.59,0.76,1.4,1.32,2.29,1.63c0.9,0.3,1.9,0.36,2.88,0.09c0.66-0.18,1.25-0.48,1.76-0.88   c0.76-0.59,1.32-1.4,1.63-2.3c0.31-0.9,0.36-1.9,0.09-2.89c-0.18-0.65-0.48-1.25-0.87-1.75c-0.59-0.76-1.4-1.32-2.3-1.63   c-0.9-0.3-1.9-0.36-2.89-0.09c-0.66,0.17-1.25,0.48-1.75,0.87c-0.76,0.59-1.32,1.4-1.63,2.3c-0.2,0.57-0.28,1.18-0.26,1.81   l-55.65,15.05l0.78,2.04l55.44-14.99C675,297.99,675.15,298.24,675.34,298.47z M676.48,295.05c0.07-0.53,0.3-1.04,0.65-1.44   c0.35-0.4,0.81-0.71,1.37-0.86c0.37-0.1,0.74-0.12,1.1-0.07c0.53,0.07,1.04,0.3,1.44,0.65c0.4,0.35,0.7,0.81,0.85,1.37   c0.1,0.37,0.12,0.74,0.07,1.1c-0.07,0.53-0.3,1.03-0.65,1.44c-0.35,0.4-0.81,0.7-1.37,0.85c-0.37,0.1-0.74,0.12-1.09,0.07   c-0.53-0.07-1.03-0.3-1.44-0.65c-0.4-0.35-0.71-0.81-0.86-1.37C676.45,295.78,676.44,295.4,676.48,295.05z"/>
	<path class="st0" d="M665.48,382.04c-1.05-0.72-2.32-1.16-3.7-1.18c-0.91-0.01-1.78,0.17-2.59,0.49c-1.2,0.49-2.22,1.32-2.94,2.37   c-0.53,0.77-0.91,1.65-1.08,2.61l-9.29-0.11c-1.46,0.91-3.05,1.63-4.74,2.12l14,0.17c0.07,0.52,0.22,1.03,0.41,1.5   c0.49,1.2,1.32,2.22,2.37,2.95c1.05,0.72,2.32,1.16,3.69,1.18c0.92,0.01,1.79-0.16,2.6-0.49c1.19-0.49,2.22-1.32,2.94-2.36   c0.73-1.05,1.17-2.33,1.18-3.7c0.02-0.91-0.16-1.79-0.49-2.59C667.36,383.8,666.53,382.78,665.48,382.04z M665.79,389.29   c-0.35,0.8-0.93,1.47-1.64,1.95c-0.72,0.47-1.57,0.74-2.5,0.73c-0.62-0.01-1.2-0.14-1.73-0.37c-0.8-0.35-1.47-0.93-1.94-1.64   c-0.47-0.72-0.75-1.57-0.74-2.5c0.01-0.62,0.14-1.2,0.37-1.73c0.35-0.8,0.92-1.47,1.64-1.95c0.72-0.47,1.57-0.74,2.5-0.73   c0.62,0.01,1.21,0.14,1.74,0.37c0.79,0.34,1.47,0.92,1.94,1.64c0.47,0.72,0.75,1.57,0.74,2.5   C666.16,388.17,666.02,388.76,665.79,389.29z"/>
	<path class="st0" d="M627.94,162.52c-0.61,1.14-0.86,2.43-0.74,3.7c0.08,0.93,0.37,1.85,0.85,2.69l-69.22,56.47l1.73,1.39   l68.86-56.17c0.39,0.35,0.83,0.65,1.28,0.89c1.15,0.6,2.44,0.85,3.71,0.74c1.27-0.11,2.53-0.6,3.59-1.46   c0.71-0.58,1.27-1.28,1.67-2.04c0.6-1.15,0.86-2.44,0.74-3.71c-0.11-1.27-0.6-2.53-1.47-3.59c-0.58-0.71-1.27-1.27-2.04-1.68   c-1.14-0.6-2.43-0.86-3.7-0.74c-1.27,0.11-2.53,0.6-3.59,1.47C628.91,161.05,628.34,161.75,627.94,162.52z M630.99,162.16   c0.48-0.39,1.02-0.66,1.57-0.82c0.83-0.24,1.72-0.23,2.55,0.01s1.58,0.73,2.16,1.45c0.39,0.48,0.66,1.01,0.83,1.56   c0.24,0.83,0.23,1.72-0.02,2.54c-0.25,0.82-0.73,1.58-1.45,2.17c-0.48,0.39-1.01,0.66-1.57,0.82c-0.83,0.24-1.72,0.24-2.55-0.01   c-0.82-0.25-1.58-0.73-2.16-1.45c-0.39-0.48-0.66-1.02-0.83-1.57c-0.24-0.83-0.24-1.71,0.01-2.54   C629.79,163.5,630.27,162.75,630.99,162.16z"/>
	<path class="st0" d="M622.95,322.02l0.78,2.05l80.69-17.9c0.19,0.49,0.45,0.95,0.74,1.37c0.75,1.05,1.79,1.86,2.98,2.32   c1.19,0.47,2.53,0.61,3.87,0.31c0.89-0.2,1.71-0.57,2.41-1.07c1.05-0.75,1.87-1.79,2.33-2.98c0.47-1.19,0.6-2.53,0.3-3.86   c-0.2-0.89-0.57-1.71-1.07-2.41c-0.75-1.05-1.79-1.86-2.97-2.33c-1.19-0.47-2.53-0.61-3.87-0.3c-0.89,0.19-1.71,0.57-2.41,1.07   c-1.06,0.75-1.86,1.79-2.33,2.97c-0.34,0.87-0.51,1.82-0.45,2.79L622.95,322.02z M706.19,302.88c0.16-0.85,0.56-1.64,1.15-2.26   c0.6-0.63,1.36-1.09,2.27-1.29c0.61-0.13,1.21-0.14,1.77-0.03c0.85,0.16,1.65,0.57,2.27,1.16c0.62,0.59,1.08,1.36,1.28,2.27   c0.13,0.6,0.14,1.2,0.04,1.77c-0.16,0.85-0.57,1.64-1.16,2.26c-0.59,0.62-1.36,1.09-2.27,1.29c-0.6,0.13-1.2,0.13-1.77,0.03   c-0.85-0.16-1.64-0.56-2.27-1.16c-0.62-0.59-1.08-1.36-1.28-2.26C706.08,304.05,706.08,303.46,706.19,302.88z"/>
	<path class="st0" d="M712.41,364c-1.08-0.69-2.37-1.07-3.74-1.03c-0.91,0.02-1.78,0.23-2.57,0.59c-1.18,0.53-2.17,1.4-2.85,2.48   c-0.5,0.79-0.84,1.69-0.97,2.65l-47.47,1.29c0,0.07,0.01,0.14,0.01,0.21c0,0.67-0.04,1.32-0.1,1.97l47.63-1.29   c0.1,0.52,0.26,1.02,0.47,1.49c0.54,1.18,1.41,2.17,2.48,2.85c1.08,0.69,2.37,1.07,3.74,1.04c0.91-0.02,1.78-0.24,2.57-0.59   c1.18-0.54,2.17-1.41,2.85-2.48c0.69-1.08,1.07-2.37,1.03-3.74c-0.02-0.91-0.23-1.78-0.59-2.57   C714.35,365.68,713.49,364.68,712.41,364z M713.01,371.23c-0.32,0.81-0.87,1.5-1.57,2s-1.54,0.81-2.47,0.83   c-0.62,0.02-1.2-0.1-1.74-0.31c-0.81-0.32-1.51-0.86-2.01-1.57c-0.5-0.7-0.8-1.54-0.83-2.47c-0.02-0.62,0.1-1.21,0.31-1.75   c0.32-0.8,0.86-1.5,1.56-2c0.71-0.5,1.54-0.81,2.47-0.83c0.62-0.02,1.21,0.1,1.74,0.31c0.81,0.32,1.51,0.87,2.01,1.57   c0.5,0.7,0.8,1.54,0.83,2.47C713.32,370.1,713.22,370.68,713.01,371.23z"/>
	<path class="st0" d="M710.84,437.87c1.34,0.26,2.63-0.62,2.89-1.95c0.26-1.34-0.62-2.63-1.96-2.88c-1.34-0.26-2.63,0.61-2.89,1.95   C708.63,436.32,709.5,437.61,710.84,437.87z"/>
	<path class="st0" d="M690.63,267.97c-0.87,0.28-1.64,0.73-2.29,1.3c-0.98,0.85-1.68,1.96-2.03,3.18c-0.26,0.9-0.33,1.86-0.18,2.82   l-72.03,23.49l0.77,2.04l71.93-23.46c0.24,0.47,0.54,0.9,0.87,1.29c0.85,0.98,1.97,1.68,3.19,2.02c1.23,0.36,2.58,0.36,3.88-0.07   c0.87-0.28,1.64-0.74,2.29-1.3c0.98-0.85,1.68-1.97,2.03-3.19c0.35-1.23,0.35-2.57-0.07-3.88c-0.28-0.87-0.73-1.64-1.3-2.3   c-0.84-0.97-1.96-1.68-3.18-2.03C693.28,267.54,691.93,267.54,690.63,267.97z M696.92,272.9c0.19,0.59,0.26,1.18,0.21,1.76   c-0.07,0.87-0.41,1.69-0.93,2.36c-0.53,0.68-1.25,1.21-2.13,1.5c-0.59,0.19-1.18,0.25-1.76,0.2c-0.87-0.07-1.69-0.4-2.37-0.93   c-0.68-0.53-1.21-1.25-1.49-2.13c-0.19-0.59-0.25-1.19-0.2-1.77c0.08-0.86,0.4-1.68,0.93-2.36c0.53-0.68,1.25-1.21,2.13-1.5   c0.59-0.19,1.19-0.25,1.76-0.2c0.87,0.07,1.69,0.4,2.37,0.93C696.11,271.29,696.63,272.02,696.92,272.9z"/>
	<path class="st0" d="M690.37,228.47c1.24-0.56,1.79-2.03,1.22-3.27c-0.56-1.24-2.02-1.78-3.26-1.22c-1.24,0.56-1.79,2.02-1.23,3.26   C687.66,228.48,689.13,229.03,690.37,228.47z"/>
	<path class="st0" d="M662.9,447.04c-1.7-0.43-3.42,0.34-4.26,1.77l-48.56-12.19c0.26,0.79,0.49,1.59,0.66,2.41l47.36,11.89   c0.06,1.66,1.21,3.16,2.9,3.59c2.06,0.52,4.16-0.72,4.68-2.79S664.96,447.57,662.9,447.04z"/>
	<path class="st0" d="M95.54,344.41l6.44-4.87l13.46,1.87l-0.28-2.23l-13.77-1.91l-8.89,6.73l-51.35-7.12   c-0.02-0.53-0.09-1.05-0.22-1.54c-0.33-1.24-1.03-2.37-1.98-3.22c-0.95-0.86-2.17-1.45-3.52-1.63c-0.91-0.13-1.8-0.06-2.63,0.16   c-1.25,0.33-2.37,1.03-3.22,1.98c-0.85,0.95-1.44,2.16-1.63,3.52c-0.12,0.9-0.06,1.8,0.16,2.63c0.34,1.25,1.03,2.37,1.98,3.22   c0.95,0.86,2.16,1.45,3.52,1.64c0.91,0.13,1.8,0.06,2.63-0.16c1.25-0.34,2.37-1.03,3.22-1.98c0.62-0.69,1.11-1.53,1.39-2.45   l49.19,6.82l-6.18,4.67l-14.06-1.95c-0.02-0.29-0.07-0.58-0.15-0.86c-0.25-0.93-0.77-1.76-1.47-2.4c-0.71-0.63-1.61-1.07-2.62-1.21   c-0.67-0.09-1.33-0.05-1.95,0.12c-0.93,0.25-1.76,0.77-2.4,1.47c-0.64,0.71-1.08,1.61-1.22,2.62c-0.09,0.67-0.04,1.34,0.12,1.96   c0.25,0.93,0.76,1.76,1.47,2.39c0.71,0.64,1.61,1.08,2.62,1.22c0.68,0.09,1.34,0.04,1.96-0.13c0.93-0.25,1.76-0.76,2.4-1.47   c0.4-0.44,0.72-0.97,0.94-1.56l14.95,2.07l8.64-6.53l23.35,3.24l-0.28-2.23L95.54,344.41z M38.92,337.66   c-0.08,0.61-0.29,1.17-0.58,1.67c-0.45,0.75-1.1,1.34-1.87,1.72c-0.77,0.38-1.66,0.54-2.58,0.42c-0.61-0.08-1.17-0.29-1.67-0.59   c-0.75-0.45-1.35-1.1-1.72-1.87c-0.38-0.77-0.54-1.65-0.41-2.57c0.09-0.62,0.29-1.18,0.59-1.68c0.44-0.74,1.1-1.34,1.87-1.72   c0.78-0.38,1.66-0.54,2.58-0.42c0.61,0.08,1.18,0.29,1.67,0.59c0.75,0.45,1.35,1.1,1.72,1.87   C38.89,335.86,39.05,336.74,38.92,337.66z M67.61,349.37c-0.05,0.38-0.18,0.73-0.36,1.04c-0.27,0.46-0.68,0.83-1.16,1.06   c-0.48,0.23-1.02,0.34-1.6,0.26c-0.38-0.05-0.73-0.18-1.03-0.36c-0.46-0.28-0.84-0.68-1.07-1.16c-0.23-0.48-0.34-1.03-0.26-1.6   c0.05-0.38,0.18-0.73,0.36-1.04c0.28-0.46,0.68-0.84,1.16-1.07c0.48-0.23,1.02-0.33,1.59-0.25c0.38,0.05,0.73,0.18,1.04,0.36   c0.46,0.28,0.84,0.68,1.07,1.16C67.6,348.25,67.69,348.79,67.61,349.37z"/>
	<path class="st0" d="M504.6,181.84l34.92-52.59c0.27,0.1,0.56,0.19,0.84,0.24c0.95,0.18,1.92,0.07,2.8-0.29   c0.88-0.36,1.66-0.99,2.23-1.83c0.38-0.57,0.63-1.19,0.74-1.82c0.18-0.95,0.07-1.92-0.29-2.8c-0.36-0.88-0.99-1.66-1.84-2.23   c-0.56-0.37-1.18-0.62-1.81-0.74c-0.95-0.18-1.92-0.07-2.8,0.29c-0.88,0.36-1.67,0.98-2.23,1.84c-0.38,0.56-0.62,1.18-0.74,1.81   c-0.18,0.95-0.07,1.92,0.29,2.8c0.22,0.56,0.56,1.07,0.99,1.53l-34.81,52.42L504.6,181.84z M538.97,123.1   c0.21-0.32,0.48-0.58,0.78-0.78c0.45-0.3,0.98-0.46,1.51-0.46c0.54,0,1.07,0.15,1.55,0.47c0.32,0.21,0.58,0.47,0.78,0.78   c0.3,0.44,0.46,0.97,0.46,1.51c0,0.53-0.15,1.07-0.46,1.55c-0.21,0.32-0.47,0.58-0.77,0.77c-0.44,0.3-0.97,0.46-1.51,0.46   c-0.53,0-1.07-0.14-1.55-0.46c-0.32-0.21-0.58-0.48-0.77-0.77c-0.3-0.45-0.46-0.98-0.46-1.51   C538.51,124.12,538.65,123.58,538.97,123.1z"/>
	<path class="st0" d="M514.19,105.31l-7.58,13.05l2.77,10.47l-16.04,27.62c0.45,0.73,0.85,1.48,1.2,2.27l15.63-26.91l2.07,7.8   l-16.15,27.81c-0.13,2.26-0.64,4.41-1.5,6.39l0.21,0.16l19.77-34.05l-2.86-10.77l26.03-44.83c0.5,0.19,1,0.31,1.51,0.38   c1.28,0.16,2.58-0.05,3.73-0.61c1.15-0.55,2.16-1.46,2.84-2.64c0.46-0.79,0.74-1.64,0.85-2.49c0.17-1.28-0.05-2.58-0.61-3.73   c-0.56-1.15-1.45-2.15-2.64-2.84c-0.79-0.46-1.64-0.73-2.5-0.85c-1.29-0.16-2.58,0.05-3.73,0.62c-1.15,0.55-2.16,1.45-2.85,2.63   c-0.46,0.79-0.73,1.64-0.85,2.5c-0.16,1.29,0.06,2.58,0.61,3.73c0.41,0.84,1,1.61,1.74,2.22l-24.94,42.95l-1.99-7.49l7.13-12.28   c0.28,0.09,0.57,0.16,0.85,0.19c0.96,0.12,1.92-0.04,2.78-0.45c0.85-0.41,1.6-1.08,2.12-1.97c0.34-0.59,0.55-1.22,0.63-1.85   c0.12-0.96-0.04-1.92-0.46-2.78c-0.41-0.86-1.08-1.61-1.97-2.12c-0.59-0.34-1.22-0.54-1.86-0.63c-0.96-0.12-1.92,0.04-2.77,0.46   c-0.86,0.41-1.61,1.08-2.12,1.96c-0.34,0.59-0.55,1.23-0.63,1.86c-0.12,0.96,0.04,1.92,0.46,2.78   C513.36,104.39,513.73,104.89,514.19,105.31z M535.64,78.4c-0.06-0.86,0.12-1.74,0.59-2.54c0.31-0.53,0.71-0.97,1.18-1.32   c0.69-0.52,1.52-0.83,2.39-0.89c0.86-0.06,1.73,0.13,2.53,0.59c0.54,0.31,0.98,0.71,1.33,1.18c0.52,0.69,0.83,1.52,0.88,2.38   c0.06,0.86-0.12,1.74-0.59,2.54c-0.31,0.53-0.72,0.98-1.18,1.32c-0.69,0.52-1.53,0.83-2.39,0.89c-0.86,0.06-1.73-0.13-2.54-0.6   c-0.53-0.31-0.98-0.71-1.33-1.17C536,80.09,535.7,79.26,535.64,78.4z M515.15,100.3c0.19-0.33,0.44-0.6,0.73-0.82   c0.43-0.32,0.95-0.51,1.48-0.55c0.54-0.03,1.08,0.08,1.57,0.37c0.33,0.19,0.6,0.44,0.82,0.73c0.32,0.43,0.51,0.95,0.55,1.48   c0.03,0.54-0.08,1.07-0.37,1.57c-0.19,0.33-0.44,0.61-0.73,0.82c-0.43,0.32-0.95,0.51-1.48,0.55c-0.53,0.04-1.07-0.08-1.57-0.37   c-0.33-0.19-0.61-0.44-0.82-0.73c-0.33-0.42-0.51-0.94-0.55-1.48C514.75,101.34,514.86,100.8,515.15,100.3z"/>
	<path class="st0" d="M538.85,80.24c1.18,0.68,2.69,0.28,3.37-0.89c0.68-1.18,0.28-2.69-0.89-3.37c-1.18-0.68-2.68-0.28-3.37,0.9   C537.28,78.05,537.67,79.55,538.85,80.24z"/>
	<path class="st0" d="M499.43,82.09c-0.38,0.83-0.57,1.71-0.59,2.57c-0.03,1.29,0.31,2.56,0.98,3.64c0.49,0.79,1.15,1.5,1.96,2.03   l-25.84,57.11c0.42-0.03,0.85-0.05,1.28-0.05c0.37,0,0.74,0.03,1.11,0.06l25.43-56.22c0.51,0.14,1.03,0.21,1.54,0.23   c1.3,0.03,2.56-0.32,3.65-0.99c1.08-0.67,1.99-1.66,2.56-2.92c0.37-0.83,0.56-1.7,0.59-2.57c0.03-1.3-0.31-2.56-0.99-3.65   c-0.67-1.09-1.66-2-2.91-2.57c-0.83-0.38-1.71-0.56-2.57-0.59c-1.3-0.03-2.56,0.32-3.65,0.99C500.91,79.85,500,80.84,499.43,82.09z    M504.73,80.43c0.85-0.15,1.74-0.05,2.59,0.33c0.56,0.25,1.04,0.61,1.44,1.04c0.59,0.64,0.98,1.43,1.12,2.29   c0.15,0.85,0.05,1.74-0.33,2.58c-0.26,0.57-0.61,1.05-1.04,1.44c-0.63,0.59-1.43,0.97-2.28,1.12c-0.85,0.14-1.74,0.05-2.59-0.33   c-0.56-0.25-1.05-0.61-1.44-1.04c-0.59-0.64-0.98-1.43-1.12-2.29c-0.15-0.85-0.05-1.74,0.34-2.59c0.25-0.56,0.61-1.04,1.03-1.44   C503.08,80.96,503.88,80.58,504.73,80.43z"/>
	<path class="st0" d="M633.94,200.25c-0.52-0.75-1.17-1.36-1.9-1.82c-1.09-0.69-2.36-1.04-3.64-1.03c-1.27,0.02-2.57,0.41-3.69,1.19   c-0.75,0.52-1.36,1.17-1.82,1.9c-0.69,1.09-1.04,2.36-1.02,3.64c0.01,0.93,0.23,1.87,0.64,2.75l-40.97,28.13   c0.93,0.23,1.87,0.47,2.8,0.7l39.42-27.04c0.37,0.38,0.78,0.7,1.21,0.98c1.1,0.69,2.37,1.04,3.64,1.02   c1.27-0.02,2.57-0.41,3.69-1.19c0.75-0.52,1.36-1.17,1.82-1.9c0.69-1.09,1.04-2.36,1.02-3.64   C635.1,202.66,634.72,201.37,633.94,200.25z M632.65,205.65c-0.31,0.8-0.85,1.52-1.61,2.05c-0.51,0.35-1.05,0.59-1.62,0.7   c-0.85,0.18-1.73,0.11-2.54-0.2c-0.8-0.31-1.52-0.85-2.05-1.61c-0.35-0.51-0.59-1.06-0.7-1.63c-0.18-0.85-0.11-1.73,0.2-2.53   c0.31-0.81,0.85-1.52,1.61-2.05c0.51-0.36,1.06-0.59,1.62-0.71c0.85-0.18,1.74-0.1,2.54,0.21c0.8,0.31,1.52,0.85,2.05,1.61   c0.35,0.51,0.59,1.05,0.71,1.62C633.04,203.96,632.96,204.85,632.65,205.65z"/>
	<path class="st0" d="M504.46,87.07c0.31,0.14,0.63,0.21,0.95,0.22c0.32,0.01,0.64-0.05,0.93-0.16c0.59-0.22,1.1-0.67,1.38-1.29   c0.31-0.69,0.27-1.46-0.05-2.09c-0.24-0.5-0.64-0.92-1.19-1.16c-0.31-0.14-0.63-0.21-0.95-0.22c-0.96-0.02-1.89,0.52-2.31,1.44   c-0.14,0.31-0.21,0.63-0.22,0.95c0,0.16,0.01,0.32,0.03,0.48C503.18,86.02,503.68,86.72,504.46,87.07z"/>
	<path class="st0" d="M616.61,143.63c0.13,0.92,0.46,1.83,0.99,2.64l-36.82,33.33l0.38-7.73l10.53-9.53   c0.24,0.17,0.49,0.32,0.76,0.44c0.88,0.4,1.84,0.54,2.79,0.41c0.94-0.14,1.86-0.55,2.61-1.23c0.5-0.45,0.89-0.99,1.16-1.57   c0.4-0.88,0.54-1.84,0.41-2.79c-0.13-0.94-0.54-1.86-1.23-2.62c-0.45-0.5-1-0.89-1.58-1.16c-0.87-0.41-1.84-0.55-2.78-0.41   c-0.94,0.13-1.86,0.54-2.61,1.22c-0.51,0.46-0.89,1-1.16,1.58c-0.41,0.87-0.55,1.84-0.41,2.79c0.08,0.59,0.28,1.18,0.59,1.72   l-11.19,10.13l-0.54,10.81l-34.83,31.53l1.72,1.38l32.96-29.84l-0.4,8.06l-28.05,25.4l1.72,1.38l28.46-25.77l0.55-11.13   l38.43-34.79c0.42,0.33,0.86,0.6,1.33,0.82c1.17,0.54,2.47,0.73,3.73,0.55c1.27-0.18,2.5-0.73,3.51-1.65   c0.68-0.61,1.2-1.34,1.56-2.12c0.55-1.17,0.73-2.47,0.56-3.74c-0.18-1.26-0.73-2.49-1.65-3.51c-0.61-0.67-1.34-1.2-2.12-1.56   c-1.18-0.54-2.47-0.73-3.74-0.55c-1.27,0.18-2.5,0.73-3.51,1.64c-0.68,0.61-1.2,1.34-1.56,2.12   C616.62,141.06,616.43,142.36,616.61,143.63z M591.85,157.64c0.13-0.52,0.4-1,0.83-1.39c0.28-0.25,0.61-0.44,0.94-0.56   c0.51-0.18,1.06-0.2,1.58-0.08c0.52,0.13,1,0.4,1.39,0.83c0.26,0.29,0.44,0.61,0.56,0.94c0.18,0.51,0.2,1.06,0.08,1.58   c-0.13,0.52-0.4,1-0.83,1.38c-0.29,0.26-0.6,0.45-0.94,0.56c-0.51,0.18-1.06,0.2-1.58,0.08c-0.52-0.13-1-0.4-1.38-0.83   c-0.26-0.29-0.45-0.6-0.56-0.94C591.74,158.71,591.72,158.16,591.85,157.64z M618.85,141.62c0.2-0.83,0.65-1.62,1.33-2.24   c0.46-0.41,0.98-0.71,1.52-0.9c0.82-0.29,1.71-0.33,2.54-0.12c0.83,0.2,1.61,0.65,2.23,1.33c0.42,0.46,0.72,0.98,0.91,1.53   c0.29,0.81,0.32,1.7,0.12,2.53c-0.21,0.84-0.65,1.62-1.33,2.24c-0.46,0.41-0.98,0.71-1.52,0.9c-0.82,0.29-1.71,0.32-2.54,0.12   c-0.83-0.2-1.61-0.65-2.24-1.34c-0.41-0.46-0.71-0.97-0.91-1.52C618.68,143.33,618.65,142.45,618.85,141.62z"/>
	<path class="st0" d="M661.73,385.04c-1.36-0.02-2.47,1.08-2.49,2.44c-0.02,1.36,1.08,2.48,2.43,2.5c1.36,0.02,2.48-1.08,2.5-2.44   C664.18,386.17,663.09,385.05,661.73,385.04z"/>
	<path class="st0" d="M694.15,404.59c0.45,1.6,1.91,2.79,3.66,2.81c2.13,0.03,3.88-1.68,3.9-3.81c0.03-2.13-1.68-3.87-3.81-3.9   c-1.75-0.02-3.24,1.13-3.73,2.72l-45.95-0.55l-12.47-12.77c-1.15-0.01-2.27-0.13-3.36-0.34l14.91,15.27L694.15,404.59z"/>
	<path class="st0" d="M613.02,116.27c0.97-1.02,0.94-2.64-0.08-3.61c-1.02-0.97-2.64-0.93-3.61,0.08c-0.97,1.02-0.94,2.64,0.08,3.61   C610.43,117.33,612.04,117.29,613.02,116.27z"/>
	<path class="st0" d="M605.68,118.63l-66.86,69.56L539.1,200l-5.14,5.4l1.76,1.41l5.65-5.94l-0.27-11.81l66.21-68.88   c0.45,0.31,0.93,0.56,1.43,0.74c1.25,0.48,2.61,0.57,3.89,0.29c1.29-0.28,2.53-0.94,3.5-1.97c0.65-0.68,1.14-1.47,1.45-2.31   c0.47-1.26,0.56-2.61,0.29-3.9c-0.28-1.29-0.94-2.52-1.97-3.49c-0.69-0.65-1.47-1.14-2.31-1.45c-1.26-0.47-2.61-0.57-3.9-0.29   c-1.29,0.28-2.52,0.94-3.5,1.97c-0.65,0.68-1.14,1.47-1.45,2.31c-0.48,1.25-0.57,2.61-0.29,3.9   C604.66,116.92,605.07,117.83,605.68,118.63z M606.62,113.73c0.15-0.88,0.55-1.71,1.21-2.41c0.44-0.46,0.95-0.81,1.5-1.05   c0.82-0.36,1.74-0.46,2.62-0.31s1.71,0.55,2.41,1.21c0.46,0.44,0.81,0.95,1.05,1.5c0.36,0.82,0.47,1.73,0.32,2.61   c-0.15,0.88-0.55,1.71-1.21,2.41c-0.44,0.46-0.96,0.81-1.5,1.05c-0.82,0.36-1.73,0.47-2.61,0.32c-0.88-0.15-1.71-0.55-2.41-1.21   c-0.47-0.45-0.82-0.95-1.05-1.5C606.58,115.52,606.47,114.61,606.62,113.73z"/>
	<path class="st0" d="M583.57,123.96l-60.55,72.66l1.7,1.36l60.52-72.63c0.45,0.27,0.93,0.48,1.42,0.63   c1.24,0.37,2.56,0.37,3.78,0.02c1.23-0.35,2.37-1.07,3.25-2.12c0.59-0.7,1-1.5,1.25-2.32c0.37-1.24,0.38-2.56,0.02-3.78   c-0.35-1.23-1.07-2.37-2.12-3.24c-0.7-0.59-1.49-1-2.32-1.26c-1.23-0.37-2.55-0.38-3.77-0.02c-1.23,0.35-2.37,1.07-3.25,2.13   c-0.59,0.69-1,1.49-1.25,2.32c-0.38,1.24-0.38,2.55-0.02,3.77C582.48,122.37,582.93,123.23,583.57,123.96z M584.15,119.18   c0.09-0.86,0.41-1.69,1.01-2.41c0.4-0.48,0.87-0.84,1.38-1.11c0.77-0.4,1.65-0.56,2.5-0.47c0.85,0.09,1.69,0.42,2.4,1.01   c0.47,0.39,0.84,0.86,1.11,1.38c0.4,0.77,0.55,1.64,0.47,2.5c-0.09,0.85-0.41,1.69-1.01,2.41c-0.39,0.47-0.87,0.84-1.38,1.11   c-0.77,0.4-1.64,0.56-2.5,0.47c-0.85-0.09-1.69-0.42-2.4-1.01c-0.48-0.4-0.84-0.87-1.11-1.39   C584.23,120.9,584.07,120.03,584.15,119.18z"/>
	<path class="st0" d="M513.55,189.02l1.7,1.36l50.84-67.09c1.56,0.6,3.38,0.13,4.44-1.26c1.29-1.69,0.97-4.11-0.73-5.4   c-1.69-1.29-4.11-0.97-5.4,0.73c-1.06,1.39-1.03,3.27-0.04,4.62L513.55,189.02z"/>
	<path class="st0" d="M704.82,436.83c0.27,1.26,0.9,2.42,1.8,3.32c0.9,0.91,2.09,1.56,3.43,1.82c0.9,0.17,1.79,0.16,2.63-0.02   c1.27-0.27,2.42-0.9,3.32-1.8c0.9-0.9,1.55-2.08,1.82-3.43c0.17-0.89,0.15-1.79-0.02-2.63c-0.27-1.27-0.9-2.42-1.81-3.32   c-0.9-0.91-2.08-1.56-3.42-1.82c-0.9-0.17-1.79-0.15-2.63,0.02c-1.27,0.27-2.42,0.91-3.32,1.81c-0.66,0.66-1.19,1.47-1.52,2.38   l-48.76-9.42l6.42-4.34l13.94,2.69c0.01,0.29,0.04,0.59,0.1,0.87c0.2,0.94,0.67,1.8,1.34,2.48c0.67,0.67,1.55,1.16,2.56,1.35   c0.67,0.13,1.33,0.12,1.96-0.02c0.94-0.2,1.8-0.67,2.48-1.34s1.16-1.55,1.36-2.55c0.13-0.67,0.11-1.33-0.02-1.96   c-0.2-0.94-0.67-1.8-1.35-2.47c-0.67-0.67-1.55-1.16-2.55-1.35c-0.67-0.13-1.34-0.11-1.96,0.02c-0.94,0.2-1.8,0.67-2.48,1.34   c-0.43,0.42-0.77,0.93-1.02,1.51l-14.82-2.86l-8.97,6.06l-39.92-7.71l-1.24,1.98l38.62,7.46l-6.69,4.52l-35.19-6.8l-1.24,1.98   l36.91,7.13l9.23-6.24l50.9,9.83C704.66,435.81,704.71,436.32,704.82,436.83z M706.93,434.6c0.12-0.61,0.35-1.15,0.67-1.64   c0.48-0.72,1.17-1.28,1.96-1.62c0.79-0.34,1.68-0.46,2.59-0.28c0.61,0.12,1.15,0.35,1.64,0.67c0.72,0.48,1.29,1.17,1.62,1.96   c0.34,0.79,0.45,1.68,0.27,2.59c-0.12,0.61-0.35,1.16-0.68,1.64c-0.48,0.72-1.17,1.28-1.96,1.62c-0.8,0.34-1.68,0.46-2.59,0.28   c-0.61-0.12-1.16-0.36-1.64-0.67c-0.72-0.48-1.29-1.17-1.62-1.96C706.87,436.4,706.76,435.51,706.93,434.6z M678.9,421.4   c0.07-0.38,0.21-0.72,0.42-1.02c0.29-0.45,0.72-0.79,1.21-1c0.49-0.21,1.04-0.28,1.61-0.17c0.37,0.07,0.72,0.22,1.01,0.42   c0.45,0.3,0.8,0.73,1.01,1.22c0.21,0.5,0.28,1.04,0.17,1.61c-0.07,0.38-0.22,0.72-0.42,1.02c-0.3,0.45-0.73,0.8-1.22,1.01   c-0.5,0.21-1.04,0.28-1.61,0.17c-0.38-0.07-0.72-0.21-1.02-0.42c-0.45-0.3-0.8-0.73-1.01-1.22   C678.86,422.51,678.79,421.96,678.9,421.4z"/>
	<path class="st0" d="M689.26,491.25c-0.85-0.33-1.74-0.46-2.6-0.42c-1.29,0.05-2.53,0.48-3.57,1.22c-0.76,0.54-1.42,1.25-1.9,2.09   l-82.81-31.21c-1.04,0.45-2.13,0.81-3.26,1.1l85.3,32.15c-0.11,0.52-0.15,1.04-0.13,1.55c0.06,1.3,0.49,2.54,1.22,3.58   c0.74,1.05,1.79,1.89,3.07,2.37c0.86,0.32,1.74,0.45,2.6,0.42c1.3-0.05,2.54-0.48,3.58-1.22c1.04-0.74,1.88-1.79,2.37-3.07   c0.32-0.86,0.46-1.74,0.42-2.61c-0.05-1.29-0.48-2.53-1.22-3.57C691.6,492.57,690.55,491.72,689.26,491.25z M691.09,499.03   c-0.22,0.58-0.54,1.08-0.94,1.5c-0.6,0.63-1.37,1.06-2.21,1.26c-0.84,0.2-1.74,0.16-2.6-0.16c-0.58-0.22-1.08-0.54-1.5-0.94   c-0.63-0.6-1.07-1.37-1.27-2.21c-0.2-0.84-0.16-1.73,0.17-2.6c0.22-0.58,0.55-1.08,0.94-1.51c0.6-0.62,1.36-1.06,2.2-1.26   c0.84-0.2,1.73-0.16,2.6,0.16c0.58,0.22,1.08,0.55,1.5,0.94c0.63,0.6,1.07,1.37,1.27,2.21S691.42,498.16,691.09,499.03z"/>
	<path class="st0" d="M322.56,715.39c-0.22,1.34,0.69,2.61,2.03,2.84c1.34,0.22,2.61-0.69,2.83-2.03c0.22-1.34-0.68-2.61-2.02-2.84   C324.06,713.14,322.79,714.05,322.56,715.39z"/>
	<path class="st0" d="M308.87,702.86c-0.65-0.67-1.46-1.2-2.36-1.54l39.39-194.16l-2.33,0.56l-39.19,193.16   c-0.53-0.02-1.05,0.02-1.55,0.12c-1.27,0.26-2.43,0.88-3.33,1.78c-0.91,0.89-1.58,2.07-1.85,3.41c-0.18,0.9-0.17,1.79,0,2.63   c0.26,1.27,0.88,2.43,1.78,3.34c0.89,0.91,2.07,1.57,3.41,1.85c0.9,0.18,1.79,0.18,2.64,0c1.26-0.26,2.43-0.88,3.33-1.77   c0.91-0.89,1.58-2.07,1.85-3.41c0.19-0.89,0.18-1.79,0-2.63C310.38,704.93,309.76,703.77,308.87,702.86z M308.51,708.4   c-0.12,0.61-0.37,1.16-0.69,1.63c-0.49,0.72-1.19,1.27-1.98,1.6c-0.79,0.33-1.69,0.43-2.6,0.25c-0.6-0.12-1.15-0.36-1.63-0.68   c-0.72-0.49-1.27-1.18-1.6-1.98c-0.33-0.79-0.44-1.69-0.25-2.6c0.12-0.6,0.36-1.15,0.69-1.63c0.49-0.72,1.18-1.28,1.98-1.6   c0.79-0.33,1.69-0.43,2.59-0.25c0.61,0.12,1.16,0.37,1.64,0.69c0.71,0.49,1.27,1.18,1.6,1.97   C308.58,706.6,308.69,707.49,308.51,708.4z"/>
	<path class="st0" d="M358.29,677.41c-1.41-0.09-2.62,0.98-2.71,2.39c-0.09,1.41,0.98,2.62,2.39,2.71c1.41,0.09,2.62-0.98,2.71-2.39   C360.77,678.72,359.7,677.5,358.29,677.41z"/>
	<path class="st0" d="M283.07,713.34c-0.6-0.75-1.37-1.39-2.27-1.84l23.04-74.05l-5.5-10.46l36.46-117.17l-2.54,0.61l-36.34,116.79   l5.49,10.46l-22.76,73.16c-0.54-0.07-1.08-0.09-1.61-0.03c-1.33,0.13-2.59,0.65-3.62,1.47c-1.03,0.82-1.85,1.97-2.27,3.32   c-0.28,0.9-0.36,1.83-0.28,2.71c0.14,1.33,0.66,2.59,1.48,3.62c0.83,1.03,1.96,1.84,3.31,2.26c0.9,0.28,1.83,0.36,2.71,0.28   c1.33-0.14,2.59-0.65,3.62-1.48c1.03-0.82,1.84-1.96,2.26-3.31c0.28-0.9,0.37-1.82,0.28-2.71   C284.41,715.63,283.89,714.38,283.07,713.34z M282.11,719.01c-0.19,0.61-0.49,1.15-0.88,1.61c-0.58,0.69-1.35,1.19-2.2,1.44   c-0.85,0.26-1.78,0.27-2.7-0.02c-0.61-0.19-1.15-0.49-1.61-0.88c-0.69-0.57-1.19-1.35-1.45-2.2c-0.25-0.86-0.27-1.78,0.02-2.7   c0.19-0.61,0.5-1.15,0.88-1.61c0.58-0.69,1.35-1.19,2.2-1.45c0.86-0.25,1.78-0.27,2.7,0.02c0.62,0.19,1.15,0.49,1.61,0.87   c0.69,0.58,1.19,1.35,1.44,2.2C282.39,717.16,282.4,718.09,282.11,719.01z"/>
	<path class="st0" d="M278.47,715.2c-1.35-0.42-2.78,0.33-3.2,1.68c-0.42,1.35,0.33,2.78,1.68,3.2c1.35,0.42,2.78-0.33,3.2-1.68   C280.56,717.05,279.81,715.62,278.47,715.2z"/>
	<path class="st0" d="M269.64,654.91l51.87-141.91l-2.54,0.61L267.6,654.16c-1.66-0.11-3.27,0.87-3.87,2.51   c-0.74,2,0.29,4.21,2.28,4.95c2,0.74,4.21-0.29,4.95-2.28C271.56,657.7,270.98,655.91,269.64,654.91z"/>
	<path class="st0" d="M397.55,655.12l-13.21-143.67c-0.81-0.52-1.59-1.08-2.34-1.68l13.38,145.56c-1.55,0.61-2.58,2.19-2.42,3.93   c0.19,2.12,2.07,3.68,4.19,3.48c2.12-0.19,3.68-2.07,3.48-4.19C400.48,656.8,399.19,655.44,397.55,655.12z"/>
	<path class="st0" d="M362.32,674.52c-0.76-0.59-1.66-1.03-2.64-1.25l1.45-28.79l-7.82-8.87l8.32-132.24l-2.65,0.64l-25.02,150.96   l-4.7-6.56l23.69-142.96l-2.3,0.55l-23.69,142.94l6.49,9.06l-8.48,51.14c-0.53,0-1.05,0.06-1.55,0.18   c-1.25,0.3-2.39,0.96-3.27,1.89c-0.88,0.93-1.51,2.13-1.72,3.48c-0.15,0.9-0.11,1.8,0.09,2.63c0.3,1.26,0.96,2.39,1.89,3.27   c0.93,0.87,2.12,1.5,3.48,1.72c0.9,0.15,1.8,0.11,2.63-0.09c1.26-0.31,2.39-0.96,3.27-1.9c0.88-0.93,1.51-2.12,1.73-3.47   c0.15-0.9,0.1-1.8-0.09-2.63c-0.31-1.26-0.97-2.39-1.9-3.28c-0.68-0.64-1.5-1.15-2.42-1.46l8.12-49l4.51,6.3l-2.32,14.01   c-0.29,0.01-0.59,0.05-0.87,0.12c-0.94,0.23-1.78,0.72-2.44,1.41c-0.65,0.69-1.11,1.58-1.28,2.59c-0.11,0.67-0.08,1.33,0.07,1.96   c0.23,0.94,0.72,1.78,1.41,2.44c0.69,0.66,1.58,1.12,2.59,1.29c0.67,0.11,1.33,0.08,1.96-0.07c0.94-0.22,1.78-0.71,2.43-1.41   c0.66-0.69,1.12-1.58,1.29-2.58c0.11-0.68,0.08-1.34-0.07-1.96c-0.22-0.94-0.71-1.78-1.41-2.44c-0.43-0.42-0.95-0.75-1.53-0.98   l2.47-14.89l-6.3-8.81l22.46-135.53l-7.2,114.46l7.81,8.87l-1.4,27.86c-0.54,0.06-1.07,0.17-1.57,0.35   c-1.26,0.44-2.36,1.24-3.17,2.29c-0.81,1.04-1.33,2.35-1.42,3.76c-0.06,0.94,0.08,1.86,0.37,2.7c0.45,1.26,1.25,2.36,2.29,3.17   c1.05,0.8,2.34,1.32,3.75,1.41c0.94,0.06,1.86-0.08,2.7-0.37c1.26-0.45,2.36-1.24,3.17-2.29c0.81-1.04,1.32-2.34,1.41-3.75   c0.06-0.94-0.07-1.86-0.37-2.7C364.17,676.43,363.37,675.33,362.32,674.52z M327.38,712.02c0.73,0.47,1.31,1.14,1.67,1.92   c0.36,0.78,0.5,1.67,0.35,2.59c-0.1,0.61-0.32,1.16-0.63,1.65c-0.46,0.73-1.13,1.32-1.92,1.67c-0.78,0.36-1.67,0.49-2.58,0.34   c-0.62-0.1-1.17-0.32-1.66-0.63c-0.73-0.46-1.31-1.13-1.67-1.91c-0.36-0.79-0.5-1.67-0.35-2.59c0.1-0.61,0.32-1.17,0.63-1.65   c0.46-0.73,1.14-1.32,1.92-1.67c0.78-0.36,1.67-0.49,2.58-0.34C326.34,711.5,326.89,711.71,327.38,712.02z M340.25,684.61   c0.22,0.48,0.31,1.03,0.22,1.6c-0.06,0.37-0.2,0.72-0.39,1.02c-0.29,0.45-0.71,0.82-1.19,1.04c-0.49,0.22-1.03,0.31-1.6,0.22   c-0.38-0.06-0.72-0.2-1.03-0.39c-0.45-0.29-0.82-0.71-1.04-1.19c-0.22-0.49-0.3-1.03-0.21-1.6c0.06-0.38,0.2-0.72,0.39-1.03   c0.29-0.45,0.71-0.82,1.19-1.04c0.48-0.22,1.03-0.3,1.6-0.21c0.38,0.06,0.72,0.2,1.03,0.39   C339.67,683.7,340.02,684.12,340.25,684.61z M362.26,682.02c-0.4,0.8-1.03,1.47-1.8,1.92c-0.77,0.45-1.67,0.68-2.62,0.62   c-0.64-0.04-1.23-0.2-1.77-0.48c-0.8-0.39-1.47-1.03-1.92-1.79c-0.45-0.77-0.68-1.67-0.62-2.62c0.04-0.64,0.21-1.24,0.48-1.77   c0.4-0.8,1.03-1.47,1.79-1.92c0.77-0.45,1.67-0.68,2.62-0.62c0.64,0.04,1.24,0.2,1.77,0.47c0.8,0.4,1.47,1.03,1.92,1.8   c0.45,0.77,0.68,1.67,0.62,2.62C362.69,680.89,362.53,681.48,362.26,682.02z"/>
	<path class="st0" d="M85.26,292.5c0.01-0.29,0.01-0.59-0.03-0.88c-0.11-0.96-0.51-1.85-1.12-2.59c-0.61-0.73-1.44-1.29-2.42-1.57   c-0.66-0.19-1.32-0.24-1.96-0.16c-0.96,0.11-1.85,0.51-2.59,1.12c-0.73,0.61-1.29,1.44-1.57,2.42c-0.19,0.65-0.24,1.31-0.16,1.95   c0.11,0.96,0.51,1.85,1.12,2.59c0.61,0.73,1.44,1.3,2.42,1.57c0.65,0.19,1.31,0.24,1.95,0.16c0.96-0.11,1.85-0.51,2.59-1.12   c0.46-0.38,0.85-0.86,1.16-1.41l9.43,2.71c0.32-0.67,0.66-1.33,1.03-1.97L85.26,292.5z M82.98,292.98c-0.1,0.36-0.28,0.69-0.5,0.97   c-0.34,0.42-0.8,0.73-1.3,0.9c-0.51,0.16-1.06,0.19-1.62,0.03c-0.37-0.11-0.69-0.28-0.98-0.51c-0.42-0.34-0.73-0.8-0.9-1.3   c-0.16-0.51-0.18-1.06-0.02-1.61c0.11-0.37,0.28-0.7,0.51-0.98c0.33-0.42,0.79-0.73,1.3-0.9c0.51-0.16,1.06-0.18,1.61-0.02   c0.36,0.1,0.7,0.28,0.97,0.5c0.42,0.33,0.73,0.79,0.9,1.3C83.12,291.87,83.14,292.43,82.98,292.98z"/>
	<path class="st0" d="M379.31,728.36c-1.41-0.02-2.56,1.11-2.58,2.52c-0.02,1.41,1.11,2.56,2.52,2.58c1.41,0.02,2.56-1.11,2.58-2.52   C381.85,729.53,380.72,728.38,379.31,728.36z"/>
	<path class="st0" d="M383.19,725.26c-0.79-0.55-1.71-0.94-2.7-1.11l0.87-77.55l-8.26-8.45l1.54-137.79   c-0.02-0.03-0.03-0.06-0.05-0.1l-2.2,0.53l-1.55,138.26l8.26,8.45l-0.86,76.61c-0.54,0.09-1.06,0.23-1.55,0.43   c-1.24,0.51-2.29,1.36-3.04,2.45c-0.76,1.09-1.2,2.41-1.22,3.83c-0.01,0.95,0.18,1.85,0.51,2.68c0.51,1.24,1.37,2.29,2.46,3.05   c1.09,0.75,2.41,1.2,3.82,1.21c0.95,0.01,1.85-0.18,2.68-0.51c1.24-0.51,2.29-1.36,3.05-2.46c0.76-1.09,1.2-2.41,1.21-3.82   c0.01-0.95-0.17-1.85-0.51-2.68C385.13,727.07,384.28,726.02,383.19,725.26z M383.52,732.76c-0.36,0.82-0.96,1.52-1.7,2.01   c-0.74,0.49-1.63,0.77-2.59,0.76c-0.64-0.01-1.24-0.14-1.79-0.38c-0.82-0.35-1.52-0.95-2.01-1.69c-0.49-0.75-0.77-1.63-0.76-2.59   c0.01-0.64,0.15-1.25,0.38-1.79c0.36-0.82,0.95-1.52,1.69-2.01c0.75-0.49,1.63-0.77,2.59-0.76c0.65,0.01,1.25,0.14,1.79,0.38   c0.82,0.36,1.52,0.96,2.01,1.7c0.49,0.74,0.77,1.63,0.76,2.59C383.89,731.6,383.76,732.2,383.52,732.76z"/>
	<path class="st0" d="M163.57,658.6c-1.11-0.87-2.71-0.68-3.58,0.42c-0.87,1.11-0.68,2.71,0.42,3.58c1.11,0.87,2.71,0.68,3.58-0.42   C164.87,661.08,164.68,659.47,163.57,658.6z"/>
	<path class="st0" d="M143.41,620.85l35-35.24l0.03,7.74l-10.01,10.07c-0.25-0.16-0.51-0.3-0.78-0.4c-0.9-0.36-1.87-0.44-2.8-0.26   c-0.93,0.19-1.82,0.64-2.54,1.37c-0.48,0.48-0.84,1.04-1.08,1.63c-0.36,0.9-0.44,1.87-0.26,2.8c0.18,0.93,0.64,1.83,1.37,2.55   c0.48,0.48,1.04,0.84,1.64,1.08c0.89,0.36,1.87,0.45,2.8,0.26c0.93-0.18,1.83-0.64,2.54-1.36c0.48-0.49,0.84-1.05,1.08-1.64   c0.36-0.89,0.45-1.87,0.26-2.8c-0.11-0.59-0.34-1.16-0.68-1.69l10.64-10.71l-0.03-10.83l85.03-85.61l-1.75-1.32l-83.28,83.86   l-0.03-8.07l78.71-79.25l-1.75-1.32l-79.13,79.68l0.04,11.15l-36.53,36.78c-0.43-0.31-0.89-0.56-1.37-0.75   c-1.2-0.48-2.51-0.6-3.76-0.35c-1.25,0.24-2.46,0.86-3.42,1.84c-0.64,0.65-1.13,1.4-1.45,2.2c-0.48,1.2-0.6,2.51-0.36,3.76   c0.25,1.25,0.86,2.45,1.84,3.42c0.64,0.64,1.4,1.13,2.2,1.45c1.2,0.48,2.51,0.6,3.76,0.35c1.25-0.24,2.46-0.86,3.42-1.83   c0.65-0.65,1.13-1.4,1.45-2.2c0.48-1.2,0.6-2.51,0.35-3.77C144.36,622.53,143.98,621.64,143.41,620.85z M168.52,608.14   c-0.1,0.52-0.35,1.02-0.75,1.43c-0.27,0.27-0.58,0.47-0.91,0.61c-0.5,0.2-1.05,0.26-1.57,0.16c-0.53-0.1-1.02-0.35-1.43-0.75   c-0.27-0.27-0.47-0.58-0.61-0.91c-0.2-0.5-0.26-1.05-0.16-1.57c0.1-0.53,0.35-1.02,0.76-1.43c0.27-0.27,0.58-0.48,0.91-0.61   c0.5-0.2,1.05-0.26,1.57-0.16c0.52,0.1,1.02,0.35,1.43,0.76c0.27,0.27,0.48,0.58,0.61,0.91   C168.58,607.07,168.63,607.61,168.52,608.14z M142.41,625.57c-0.16,0.84-0.56,1.65-1.21,2.31c-0.43,0.44-0.94,0.76-1.47,0.98   c-0.8,0.33-1.69,0.42-2.53,0.25c-0.84-0.16-1.65-0.56-2.3-1.21c-0.44-0.44-0.77-0.94-0.99-1.48c-0.33-0.79-0.41-1.68-0.25-2.52   c0.16-0.85,0.56-1.65,1.21-2.31c0.43-0.44,0.94-0.77,1.47-0.98c0.8-0.33,1.69-0.41,2.53-0.25c0.84,0.16,1.65,0.56,2.3,1.22   c0.44,0.43,0.77,0.93,0.99,1.47C142.49,623.84,142.57,624.72,142.41,625.57z"/>
	<path class="st0" d="M136.28,623c-0.96,0.97-0.95,2.53,0.01,3.49c0.97,0.96,2.52,0.95,3.48-0.02c0.96-0.97,0.96-2.52-0.01-3.48   C138.8,622.02,137.24,622.03,136.28,623z"/>
	<path class="st0" d="M145.41,520.49l3.08-11.41l61.63-35.42c-0.24-0.73-0.44-1.48-0.61-2.24l-62.95,36.17l-3.08,11.4l-66.43,38.18   c-0.35-0.42-0.73-0.8-1.16-1.12c-1.06-0.81-2.34-1.28-3.65-1.38c-1.32-0.1-2.69,0.19-3.92,0.89c-0.82,0.47-1.51,1.09-2.05,1.8   c-0.81,1.07-1.28,2.35-1.38,3.66c-0.09,1.32,0.19,2.68,0.9,3.91c0.47,0.82,1.09,1.51,1.8,2.05c1.07,0.81,2.34,1.28,3.66,1.38   c1.32,0.1,2.68-0.19,3.91-0.9c0.82-0.47,1.51-1.09,2.05-1.8c0.81-1.06,1.28-2.34,1.38-3.66c0.07-0.96-0.06-1.95-0.42-2.89   L145.41,520.49z M75.88,563.56c-0.39,0.8-1.01,1.49-1.85,1.97c-0.55,0.32-1.14,0.51-1.73,0.58c-0.89,0.11-1.8-0.05-2.6-0.44   c-0.8-0.39-1.49-1.01-1.97-1.85c-0.32-0.55-0.51-1.14-0.58-1.74c-0.11-0.89,0.04-1.8,0.43-2.59c0.4-0.8,1.01-1.49,1.85-1.97   c0.55-0.32,1.15-0.51,1.74-0.58c0.89-0.11,1.8,0.04,2.59,0.43c0.8,0.4,1.49,1.01,1.97,1.85c0.32,0.56,0.51,1.14,0.58,1.73   C76.43,561.85,76.27,562.76,75.88,563.56z"/>
	<path class="st0" d="M122.5,593.83l125.88-108.99l-1.03-0.78c-1.61,1.38-3.42,2.54-5.37,3.44l-120.9,104.68   c-0.4-0.34-0.84-0.62-1.3-0.85c-1.17-0.57-2.46-0.78-3.73-0.63c-1.27,0.15-2.51,0.67-3.55,1.57c-0.69,0.6-1.23,1.31-1.61,2.08   c-0.57,1.17-0.79,2.47-0.63,3.73c0.15,1.27,0.67,2.51,1.57,3.54c0.6,0.69,1.31,1.23,2.09,1.62c1.16,0.57,2.46,0.79,3.72,0.63   c1.27-0.15,2.51-0.67,3.55-1.58c0.69-0.59,1.23-1.31,1.61-2.08c0.57-1.16,0.79-2.46,0.63-3.72   C123.31,595.57,123,594.66,122.5,593.83z M121.14,598.46c-0.23,0.83-0.68,1.6-1.38,2.21c-0.47,0.41-1,0.69-1.54,0.87   c-0.83,0.27-1.72,0.28-2.55,0.06c-0.83-0.22-1.6-0.69-2.21-1.39c-0.4-0.47-0.69-0.99-0.87-1.54c-0.27-0.83-0.28-1.71-0.06-2.54   c0.22-0.83,0.68-1.6,1.38-2.21c0.47-0.4,0.99-0.69,1.54-0.87c0.83-0.27,1.71-0.29,2.55-0.06c0.83,0.22,1.6,0.69,2.2,1.38   c0.41,0.47,0.69,1,0.87,1.55C121.34,596.74,121.37,597.63,121.14,598.46z"/>
	<path class="st0" d="M225.7,625.74c-1.2-0.65-2.7-0.2-3.34,0.99c-0.65,1.2-0.2,2.7,1,3.34c1.2,0.65,2.7,0.2,3.34-1   C227.35,627.88,226.9,626.39,225.7,625.74z"/>
	<path class="st0" d="M167.08,655.99l48.05-60.87l-1.38-11.74l61.69-78.15l-1.79-1.35l-62.24,78.85l1.38,11.73l-47.47,60.14   c-0.48-0.26-0.98-0.47-1.49-0.61c-1.29-0.36-2.65-0.32-3.9,0.08c-1.26,0.4-2.43,1.17-3.31,2.29c-0.59,0.74-0.99,1.57-1.23,2.43   c-0.35,1.29-0.32,2.65,0.08,3.91c0.4,1.26,1.17,2.42,2.29,3.3c0.74,0.59,1.57,0.99,2.43,1.23c1.29,0.35,2.65,0.32,3.91-0.08   c1.26-0.4,2.42-1.17,3.29-2.28c0.59-0.74,1-1.57,1.23-2.43c0.36-1.29,0.32-2.65-0.08-3.91   C168.24,657.6,167.75,656.73,167.08,655.99z M166.6,660.95c-0.07,0.89-0.39,1.76-0.98,2.51c-0.4,0.5-0.87,0.9-1.39,1.19   c-0.79,0.43-1.69,0.62-2.58,0.56c-0.89-0.07-1.76-0.39-2.51-0.98c-0.5-0.4-0.9-0.87-1.18-1.4c-0.44-0.78-0.63-1.68-0.56-2.57   c0.07-0.89,0.39-1.76,0.98-2.51c0.4-0.5,0.88-0.9,1.4-1.18c0.79-0.43,1.68-0.63,2.57-0.56c0.89,0.07,1.76,0.39,2.51,0.98   c0.51,0.4,0.9,0.87,1.19,1.39C166.47,659.16,166.66,660.06,166.6,660.95z"/>
	<path class="st0" d="M225.55,682.62c-1.21-0.62-2.7-0.14-3.32,1.07c-0.62,1.21-0.14,2.7,1.07,3.32c1.21,0.62,2.69,0.14,3.31-1.07   C227.24,684.73,226.76,683.24,225.55,682.62z"/>
	<path class="st0" d="M218.07,609.3l18.2-5.45l-9.59,17.78c-0.49-0.17-1.01-0.28-1.52-0.33c-1.29-0.12-2.58,0.14-3.71,0.73   c-1.13,0.59-2.11,1.52-2.76,2.73c-0.43,0.81-0.69,1.66-0.77,2.53c-0.12,1.28,0.14,2.58,0.73,3.7c0.59,1.13,1.52,2.12,2.73,2.76   c0.8,0.44,1.66,0.69,2.52,0.77c1.29,0.12,2.58-0.14,3.71-0.72c1.13-0.59,2.11-1.52,2.76-2.73c0.43-0.8,0.68-1.66,0.77-2.52   c0.12-1.29-0.14-2.58-0.73-3.71c-0.43-0.83-1.04-1.57-1.81-2.16l10.62-19.69l10.77-3.22l37.1-68.79c-0.65-0.33-1.28-0.68-1.89-1.08   l-36.7,68.04l-7.82,2.34l40.12-74.38c-0.51-0.63-0.97-1.31-1.39-2l-41.67,77.27l-21.15,6.33l-22.24,41.23   c-1.63-0.35-3.36,0.4-4.19,1.94c-1.01,1.87-0.31,4.21,1.56,5.22c1.87,1.01,4.21,0.31,5.22-1.57c0.83-1.54,0.51-3.39-0.68-4.56   L218.07,609.3z M228.97,627.47c0.09,0.85-0.08,1.74-0.51,2.55c-0.3,0.55-0.68,1-1.14,1.37c-0.67,0.54-1.49,0.87-2.35,0.96   c-0.86,0.08-1.74-0.07-2.56-0.51c-0.54-0.29-1-0.69-1.36-1.13c-0.54-0.68-0.88-1.5-0.96-2.36c-0.09-0.85,0.08-1.74,0.52-2.56   c0.29-0.54,0.68-1,1.13-1.36c0.68-0.54,1.5-0.87,2.36-0.96s1.74,0.07,2.56,0.51c0.54,0.29,0.99,0.68,1.36,1.13   C228.55,625.79,228.89,626.61,228.97,627.47z"/>
	<path class="st0" d="M252.41,632.54l52.13-101.84c-0.99,0.54-2.04,0.98-3.13,1.34l-49.94,97.57l-2.48-7.68l45.55-89   c-0.78-0.04-1.56-0.12-2.31-0.26l-45.59,89.07l3.43,10.61l-23.62,46.15c-0.5-0.16-1.02-0.26-1.53-0.3   c-1.28-0.09-2.57,0.19-3.69,0.81c-1.12,0.61-2.08,1.57-2.7,2.79c-0.42,0.81-0.65,1.68-0.71,2.54c-0.1,1.29,0.19,2.57,0.8,3.69   c0.62,1.12,1.57,2.07,2.79,2.7c0.81,0.41,1.68,0.65,2.54,0.71c1.29,0.09,2.57-0.19,3.69-0.81c1.12-0.61,2.08-1.56,2.7-2.78   c0.42-0.81,0.65-1.68,0.71-2.54c0.09-1.29-0.2-2.58-0.81-3.7c-0.45-0.82-1.08-1.55-1.86-2.12L251,635.27l2.38,7.37l-6.47,12.64   c-0.28-0.08-0.57-0.13-0.86-0.14c-0.96-0.07-1.92,0.15-2.75,0.6c-0.83,0.46-1.54,1.17-2.01,2.08c-0.31,0.6-0.48,1.24-0.53,1.88   c-0.07,0.96,0.15,1.92,0.6,2.75c0.46,0.83,1.16,1.55,2.08,2.01c0.6,0.31,1.25,0.48,1.89,0.53c0.96,0.07,1.91-0.14,2.75-0.6   c0.83-0.46,1.55-1.16,2.01-2.07c0.31-0.61,0.48-1.25,0.53-1.89c0.07-0.96-0.14-1.91-0.6-2.75c-0.29-0.53-0.68-1-1.16-1.4   l6.88-13.44L252.41,632.54z M228.85,684.28c0.1,0.85-0.03,1.74-0.45,2.57c-0.28,0.55-0.66,1.01-1.1,1.38   c-0.67,0.56-1.48,0.91-2.34,1.01c-0.85,0.1-1.74-0.04-2.56-0.46c-0.55-0.28-1.02-0.66-1.39-1.11c-0.55-0.66-0.9-1.48-1.01-2.33   c-0.1-0.86,0.03-1.74,0.45-2.57c0.28-0.55,0.66-1.02,1.1-1.38c0.67-0.56,1.48-0.91,2.34-1.01c0.85-0.1,1.74,0.04,2.57,0.46   c0.55,0.28,1.01,0.66,1.39,1.1C228.4,682.61,228.75,683.43,228.85,684.28z M248.15,661.33c-0.17,0.34-0.41,0.63-0.68,0.85   c-0.41,0.34-0.92,0.56-1.45,0.63c-0.53,0.06-1.08-0.02-1.59-0.28c-0.34-0.18-0.63-0.41-0.86-0.68c-0.34-0.41-0.56-0.92-0.63-1.45   c-0.06-0.53,0.03-1.08,0.29-1.59c0.18-0.34,0.41-0.63,0.68-0.86c0.41-0.34,0.92-0.56,1.45-0.63c0.53-0.06,1.08,0.03,1.59,0.29   c0.34,0.18,0.63,0.41,0.86,0.68c0.35,0.41,0.56,0.91,0.62,1.45C248.5,660.27,248.41,660.82,248.15,661.33z"/>
	<path class="st0" d="M683.56,532.11c-0.58-1.14-1.51-2.12-2.71-2.78c-0.8-0.44-1.66-0.69-2.52-0.78c-1.29-0.13-2.58,0.13-3.72,0.71   c-0.83,0.43-1.58,1.04-2.17,1.8l-43.59-23.79l7.43-2.18l12.46,6.8c-0.08,0.28-0.14,0.57-0.17,0.86c-0.09,0.96,0.09,1.92,0.53,2.77   c0.44,0.84,1.13,1.57,2.02,2.06c0.59,0.32,1.23,0.52,1.87,0.58c0.96,0.09,1.92-0.09,2.77-0.53c0.85-0.43,1.58-1.12,2.07-2.02   c0.32-0.59,0.51-1.23,0.58-1.88c0.1-0.96-0.09-1.92-0.53-2.76c-0.43-0.85-1.12-1.58-2.02-2.07c-0.6-0.33-1.24-0.51-1.88-0.58   c-0.96-0.1-1.92,0.09-2.77,0.53c-0.53,0.27-1.02,0.65-1.43,1.13l-13.25-7.23l-10.39,3.05l-41.32-22.55l-0.56,2.17l38.92,21.24   l-7.74,2.28l-32.64-17.81l-0.56,2.17l32.94,17.98l10.69-3.14l45.5,24.84c-0.17,0.5-0.29,1.01-0.34,1.52   c-0.13,1.28,0.12,2.58,0.71,3.71c0.58,1.14,1.51,2.12,2.72,2.77c0.8,0.44,1.66,0.7,2.52,0.78c1.29,0.13,2.58-0.12,3.71-0.71   c1.13-0.59,2.11-1.51,2.77-2.72c0.44-0.8,0.69-1.66,0.78-2.52C684.41,534.53,684.16,533.25,683.56,532.11z M651.07,511.92   c0.19-0.34,0.42-0.62,0.71-0.84c0.42-0.34,0.93-0.54,1.46-0.58c0.53-0.05,1.08,0.05,1.58,0.32c0.33,0.18,0.62,0.43,0.84,0.7   c0.33,0.42,0.54,0.94,0.59,1.46c0.05,0.54-0.05,1.08-0.32,1.58c-0.18,0.34-0.43,0.62-0.71,0.84c-0.42,0.33-0.94,0.54-1.47,0.59   c-0.54,0.05-1.07-0.05-1.58-0.33c-0.34-0.19-0.62-0.42-0.84-0.71c-0.33-0.42-0.54-0.94-0.59-1.46   C650.69,512.97,650.8,512.43,651.07,511.92z M681.59,537.3c-0.3,0.55-0.69,1-1.14,1.36c-0.67,0.54-1.5,0.87-2.35,0.95   c-0.86,0.08-1.74-0.08-2.56-0.52c-0.54-0.3-1-0.69-1.35-1.14c-0.54-0.68-0.87-1.51-0.95-2.36c-0.08-0.86,0.08-1.74,0.53-2.55   c0.3-0.54,0.68-0.99,1.13-1.36c0.68-0.54,1.5-0.86,2.36-0.94c0.85-0.08,1.74,0.08,2.56,0.52c0.54,0.3,0.99,0.69,1.35,1.14   c0.54,0.68,0.87,1.5,0.95,2.36C682.2,535.61,682.03,536.49,681.59,537.3z"/>
	<path class="st0" d="M70.46,559.31c-1.22,0.7-1.64,2.26-0.94,3.48c0.7,1.22,2.26,1.64,3.48,0.94c1.22-0.7,1.64-2.26,0.94-3.48   S71.68,558.61,70.46,559.31z"/>
	<path class="st0" d="M678.86,533c-1.2-0.65-2.69-0.22-3.34,0.98c-0.65,1.2-0.21,2.69,0.98,3.35c1.2,0.65,2.69,0.21,3.35-0.98   S680.05,533.65,678.86,533z"/>
	<path class="st0" d="M653.75,600.07c-0.34-1.28-1.06-2.47-2.13-3.4c-0.71-0.62-1.52-1.07-2.37-1.34c-1.27-0.42-2.63-0.45-3.91-0.11   c-0.93,0.25-1.82,0.7-2.59,1.34l-58.55-50.85l-11.79,0.83l-27.12-23.56l-2.64,0.68l29,25.18l11.79-0.83l57.85,50.24   c-0.29,0.47-0.51,0.96-0.68,1.46c-0.42,1.27-0.45,2.63-0.1,3.9c0.34,1.28,1.06,2.48,2.13,3.41c0.71,0.62,1.53,1.07,2.37,1.34   c1.28,0.41,2.64,0.44,3.91,0.1c1.27-0.34,2.47-1.06,3.4-2.13c0.62-0.71,1.07-1.53,1.34-2.37   C654.06,602.71,654.09,601.36,653.75,600.07z M651.7,602.42c-0.11,0.88-0.47,1.74-1.1,2.46c-0.42,0.48-0.91,0.85-1.45,1.12   c-0.8,0.4-1.71,0.55-2.59,0.44c-0.89-0.11-1.74-0.47-2.46-1.1c-0.48-0.42-0.85-0.92-1.12-1.45c-0.4-0.81-0.55-1.71-0.44-2.59   c0.11-0.89,0.47-1.74,1.1-2.46c0.42-0.49,0.91-0.86,1.45-1.12c0.81-0.39,1.72-0.54,2.6-0.44c0.88,0.11,1.74,0.47,2.46,1.1   c0.48,0.42,0.85,0.91,1.12,1.45C651.66,600.63,651.81,601.54,651.7,602.42z"/>
	<path class="st0" d="M430.58,717.18c1.35-0.2,2.28-1.45,2.08-2.8c-0.2-1.35-1.44-2.28-2.79-2.09c-1.35,0.2-2.28,1.45-2.09,2.8   C427.98,716.44,429.23,717.37,430.58,717.18z"/>
	<path class="st0" d="M621.86,618.82c-0.21-1.26-0.79-2.48-1.74-3.47c-0.63-0.66-1.37-1.16-2.16-1.51c-1.19-0.51-2.5-0.66-3.76-0.45   c-0.92,0.16-1.82,0.51-2.62,1.06l-34.3-35.92l7.74,0.18l9.81,10.27c-0.16,0.24-0.31,0.5-0.42,0.77c-0.38,0.89-0.49,1.86-0.34,2.8   c0.16,0.93,0.6,1.84,1.3,2.58c0.47,0.49,1.02,0.87,1.6,1.12c0.89,0.38,1.86,0.49,2.8,0.34c0.94-0.16,1.85-0.59,2.58-1.3   c0.49-0.47,0.86-1.02,1.12-1.61c0.38-0.88,0.5-1.85,0.33-2.79c-0.16-0.94-0.59-1.84-1.29-2.58c-0.47-0.5-1.02-0.87-1.61-1.12   c-0.88-0.38-1.85-0.5-2.8-0.34c-0.59,0.1-1.17,0.31-1.71,0.64l-10.42-10.92l-10.82-0.25l-46.77-48.98l-2.42,0.62l46.11,48.29   l-8.07-0.19l-44.38-46.47l-2.42,0.62l45.84,48.01l11.14,0.26l35.8,37.49c-0.32,0.42-0.58,0.87-0.78,1.35   c-0.51,1.18-0.67,2.49-0.45,3.75c0.21,1.26,0.8,2.48,1.75,3.47c0.63,0.66,1.37,1.17,2.16,1.51c1.19,0.52,2.49,0.67,3.75,0.46   c1.26-0.22,2.47-0.8,3.47-1.75c0.66-0.63,1.16-1.37,1.51-2.16C621.93,621.38,622.08,620.08,621.86,618.82z M596.25,591.12   c0.11-0.52,0.38-1.01,0.79-1.41c0.28-0.27,0.59-0.46,0.93-0.59c0.5-0.19,1.05-0.23,1.57-0.11c0.52,0.11,1.01,0.37,1.41,0.79   c0.26,0.27,0.46,0.6,0.58,0.92c0.19,0.5,0.23,1.06,0.12,1.58c-0.12,0.52-0.37,1.01-0.79,1.41c-0.28,0.27-0.6,0.46-0.93,0.59   c-0.5,0.19-1.06,0.23-1.58,0.12c-0.52-0.12-1.01-0.38-1.41-0.79c-0.27-0.28-0.46-0.59-0.59-0.93   C596.18,592.19,596.14,591.64,596.25,591.12z M619.68,620.89c-0.18,0.84-0.61,1.63-1.27,2.27c-0.45,0.43-0.96,0.74-1.5,0.95   c-0.8,0.31-1.69,0.37-2.53,0.19c-0.84-0.19-1.64-0.6-2.28-1.27c-0.43-0.45-0.74-0.96-0.94-1.5c-0.31-0.81-0.37-1.7-0.19-2.54   c0.18-0.84,0.61-1.63,1.28-2.27c0.45-0.43,0.95-0.74,1.49-0.95c0.81-0.31,1.7-0.36,2.54-0.18c0.84,0.18,1.63,0.6,2.28,1.27   c0.43,0.45,0.74,0.96,0.94,1.5C619.8,619.16,619.87,620.05,619.68,620.89z"/>
	<path class="st0" d="M613.62,618.15c-0.99,0.94-1.02,2.5-0.08,3.49c0.94,0.99,2.5,1.02,3.49,0.08c0.98-0.94,1.02-2.5,0.08-3.48   C616.16,617.25,614.61,617.21,613.62,618.15z"/>
	<path class="st0" d="M711.96,481.69c-1.33-0.46-2.79,0.24-3.25,1.57c-0.46,1.33,0.24,2.79,1.57,3.25c1.33,0.46,2.79-0.24,3.25-1.57   C714,483.6,713.29,482.15,711.96,481.69z"/>
	<path class="st0" d="M732.94,348.02c-0.58-1.21-1.49-2.21-2.63-2.9c-1.13-0.69-2.47-1.06-3.89-0.99c-0.95,0.04-1.84,0.28-2.64,0.66   c-1.21,0.58-2.21,1.49-2.9,2.62c-0.5,0.82-0.84,1.77-0.95,2.76l-74.82,3.51c1.08,0.6,2.1,1.31,3.04,2.11l71.89-3.37   c0.12,0.53,0.29,1.05,0.52,1.53c0.58,1.21,1.49,2.21,2.62,2.9c1.13,0.69,2.48,1.06,3.89,1c0.95-0.04,1.84-0.28,2.64-0.66   c1.21-0.58,2.21-1.5,2.9-2.63c0.68-1.13,1.06-2.47,0.99-3.89C733.56,349.72,733.32,348.82,732.94,348.02z M731.08,352.58   c-0.3,0.84-0.86,1.58-1.57,2.11c-0.72,0.53-1.58,0.86-2.54,0.91c-0.64,0.03-1.25-0.07-1.81-0.28c-0.84-0.31-1.58-0.86-2.11-1.57   c-0.53-0.72-0.86-1.58-0.91-2.54c-0.03-0.64,0.07-1.25,0.27-1.81c0.31-0.84,0.87-1.58,1.58-2.11c0.71-0.53,1.58-0.86,2.54-0.91   c0.64-0.03,1.25,0.07,1.81,0.27c0.84,0.31,1.58,0.87,2.11,1.58c0.53,0.71,0.86,1.58,0.9,2.54   C731.39,351.4,731.29,352.01,731.08,352.58z"/>
	<path class="st0" d="M726.63,348.43c-1.41,0.07-2.5,1.26-2.43,2.67c0.07,1.41,1.26,2.5,2.67,2.43c1.41-0.07,2.5-1.26,2.43-2.67   C729.23,349.46,728.04,348.37,726.63,348.43z"/>
	<path class="st0" d="M716.61,479.98c-0.79-1.06-1.9-1.9-3.24-2.36c-0.89-0.31-1.81-0.43-2.7-0.37c-1.34,0.09-2.61,0.56-3.67,1.35   c-0.77,0.58-1.43,1.33-1.91,2.21l-73.26-25.43l-10.64,5.15l-13.95-4.84c-0.46,0.65-0.96,1.27-1.49,1.86l15.58,5.41l10.63-5.15   l72.38,25.13c-0.09,0.54-0.12,1.08-0.08,1.61c0.09,1.34,0.56,2.61,1.36,3.66c0.79,1.06,1.91,1.91,3.24,2.37   c0.89,0.31,1.81,0.42,2.7,0.37c1.34-0.09,2.61-0.57,3.67-1.36c1.05-0.79,1.9-1.9,2.36-3.24c0.31-0.89,0.42-1.81,0.37-2.7   C717.88,482.31,717.41,481.04,716.61,479.98z M715.48,485.61c-0.21,0.6-0.53,1.13-0.93,1.58c-0.6,0.67-1.38,1.14-2.24,1.37   c-0.87,0.23-1.79,0.21-2.69-0.1c-0.6-0.21-1.14-0.54-1.58-0.93c-0.67-0.6-1.15-1.38-1.37-2.24c-0.23-0.87-0.21-1.79,0.1-2.69   c0.21-0.61,0.53-1.14,0.93-1.58c0.6-0.67,1.39-1.14,2.25-1.37c0.86-0.23,1.79-0.21,2.7,0.1c0.6,0.21,1.13,0.53,1.58,0.93   c0.67,0.6,1.14,1.39,1.37,2.25C715.81,483.77,715.8,484.7,715.48,485.61z"/>
	<path class="st0" d="M645.19,600.18c-0.92,1.06-0.81,2.68,0.25,3.6c1.06,0.92,2.68,0.81,3.6-0.25s0.81-2.68-0.25-3.6   C647.73,599.01,646.12,599.12,645.19,600.18z"/>
	<path class="st0" d="M452.04,661.72l-2.06-7.26c-0.82-0.11-1.62-0.27-2.4-0.49l2.36,8.34c-1.41,0.88-2.14,2.62-1.67,4.31   c0.57,2.05,2.7,3.24,4.75,2.67c2.05-0.57,3.24-2.7,2.67-4.75C455.22,662.84,453.7,661.74,452.04,661.72z"/>
	<path class="st0" d="M499.55,705.24c-0.88-1.01-2.04-1.72-3.31-2.08c-0.93-0.26-1.93-0.33-2.92-0.17l-21.92-65.94   c-0.11,1.57-0.4,3.09-0.86,4.53l20.65,62.12c-0.48,0.26-0.93,0.56-1.33,0.91c-1.01,0.88-1.72,2.04-2.08,3.31   c-0.36,1.27-0.35,2.67,0.09,4.02c0.3,0.9,0.77,1.69,1.35,2.36c0.89,1.01,2.04,1.72,3.32,2.08c1.27,0.35,2.66,0.35,4.01-0.1   c0.9-0.3,1.69-0.77,2.36-1.35c1.01-0.89,1.72-2.04,2.08-3.32c0.36-1.27,0.35-2.66-0.1-4.01   C500.6,706.71,500.14,705.91,499.55,705.24z M498.05,712.59c-0.54,0.7-1.29,1.26-2.2,1.56c-0.61,0.2-1.22,0.27-1.82,0.22   c-0.89-0.07-1.75-0.4-2.46-0.94c-0.71-0.55-1.26-1.29-1.56-2.2c-0.2-0.61-0.27-1.23-0.22-1.82c0.07-0.9,0.4-1.75,0.94-2.46   c0.55-0.71,1.29-1.26,2.2-1.56c0.61-0.2,1.22-0.27,1.82-0.23c0.9,0.07,1.75,0.41,2.46,0.95c0.7,0.54,1.26,1.29,1.56,2.2   c0.2,0.61,0.27,1.22,0.23,1.82C498.92,711.03,498.59,711.88,498.05,712.59z"/>
	<path class="st0" d="M493.59,707.35c-1.34,0.44-2.06,1.89-1.62,3.23c0.44,1.34,1.89,2.06,3.23,1.62c1.34-0.44,2.06-1.89,1.62-3.23   C496.37,707.63,494.92,706.9,493.59,707.35z"/>
	<path class="st0" d="M437.45,679.69c-0.5-0.82-1.22-1.48-2.08-1.89c-0.54-0.26-1.14-0.42-1.76-0.47l-2.18-14.94l-8.68-6.48   l-20.5-140.73c-0.71,0.11-1.43,0.19-2.16,0.25l20.19,138.64l-6.47-4.82L394.3,515.2c-0.77-0.12-1.52-0.28-2.27-0.46l19.76,135.71   l8.94,6.66l7.47,51.3c-0.5,0.16-0.98,0.38-1.42,0.65c-1.1,0.67-1.99,1.65-2.54,2.79c-0.56,1.15-0.79,2.48-0.58,3.84   c0.13,0.91,0.44,1.74,0.89,2.48c0.67,1.11,1.65,1.99,2.8,2.54c1.15,0.55,2.48,0.78,3.84,0.58c0.9-0.13,1.74-0.45,2.48-0.89   c1.11-0.67,1.99-1.65,2.54-2.8c0.56-1.15,0.79-2.48,0.59-3.83c-0.13-0.91-0.45-1.74-0.89-2.48c-0.67-1.11-1.65-1.99-2.8-2.54   c-0.84-0.41-1.78-0.64-2.75-0.65l-7.16-49.15l6.21,4.63l2.05,14.05c-0.27,0.1-0.54,0.23-0.79,0.38c-0.82,0.5-1.48,1.23-1.9,2.08   c-0.41,0.85-0.58,1.84-0.43,2.86c0.1,0.67,0.33,1.29,0.66,1.84c0.5,0.82,1.23,1.48,2.08,1.9c0.85,0.42,1.85,0.59,2.86,0.44   c0.67-0.1,1.29-0.33,1.85-0.67c0.82-0.5,1.48-1.22,1.89-2.08c0.42-0.86,0.59-1.85,0.44-2.85   C438.02,680.86,437.78,680.23,437.45,679.69z M431.35,710.42c0.84,0.22,1.59,0.69,2.17,1.32c0.58,0.63,0.98,1.44,1.12,2.36   c0.09,0.61,0.05,1.21-0.1,1.77c-0.22,0.84-0.68,1.6-1.32,2.18c-0.64,0.58-1.44,0.98-2.35,1.11c-0.62,0.09-1.21,0.05-1.77-0.1   c-0.83-0.21-1.59-0.68-2.17-1.31c-0.58-0.64-0.98-1.44-1.12-2.36c-0.09-0.61-0.05-1.21,0.1-1.77c0.22-0.84,0.69-1.6,1.32-2.18   c0.63-0.58,1.44-0.98,2.36-1.11C430.19,710.24,430.79,710.27,431.35,710.42z M435.9,682.94c-0.14,0.52-0.42,0.99-0.82,1.35   c-0.4,0.36-0.89,0.61-1.46,0.69c-0.38,0.06-0.75,0.03-1.1-0.06c-0.52-0.14-0.99-0.42-1.35-0.82c-0.36-0.4-0.6-0.89-0.69-1.46   c-0.06-0.38-0.03-0.75,0.06-1.1c0.14-0.52,0.42-0.99,0.82-1.35c0.39-0.36,0.89-0.6,1.46-0.69c0.38-0.06,0.75-0.03,1.1,0.06   c0.52,0.13,0.99,0.42,1.35,0.82c0.36,0.39,0.61,0.89,0.69,1.46C436.02,682.22,435.99,682.6,435.9,682.94z"/>
	<path class="st0" d="M559.15,654.7c-1.07-0.72-2.33-1.11-3.6-1.13c-0.93-0.01-1.88,0.17-2.77,0.56l-60.58-92.72l0.77,5.16   l12.24,18.73c2.64,2.29,4.64,5.29,5.69,8.71l40.06,61.31c-0.39,0.35-0.73,0.75-1.02,1.18c-0.72,1.08-1.11,2.33-1.12,3.61   c-0.02,1.28,0.33,2.58,1.07,3.73c0.5,0.77,1.14,1.39,1.85,1.88c1.08,0.72,2.34,1.11,3.61,1.13c1.28,0.02,2.58-0.33,3.72-1.08   c0.77-0.5,1.4-1.13,1.88-1.85c0.72-1.07,1.11-2.33,1.13-3.6c0.02-1.28-0.33-2.58-1.08-3.73   C560.51,655.81,559.87,655.18,559.15,654.7z M559.56,661.94c-0.33,0.79-0.9,1.49-1.67,2c-0.52,0.34-1.07,0.55-1.64,0.66   c-0.85,0.15-1.73,0.05-2.53-0.28c-0.79-0.33-1.5-0.89-2-1.67c-0.34-0.52-0.55-1.07-0.65-1.65c-0.15-0.85-0.06-1.74,0.28-2.53   c0.33-0.79,0.9-1.49,1.67-2c0.52-0.34,1.08-0.55,1.65-0.66c0.85-0.15,1.73-0.05,2.52,0.28c0.8,0.34,1.5,0.89,2.01,1.67   c0.34,0.52,0.55,1.08,0.65,1.65C560,660.26,559.89,661.15,559.56,661.94z"/>
	<path class="st0" d="M534.52,676.74c-0.98-0.85-2.18-1.39-3.44-1.57c-0.92-0.13-1.89-0.07-2.82,0.21l-21.76-44.65l7.32,2.52   l6.22,12.76c-0.23,0.18-0.45,0.38-0.63,0.6c-0.63,0.73-1.03,1.62-1.17,2.56c-0.13,0.94,0.01,1.93,0.46,2.85   c0.3,0.61,0.7,1.13,1.19,1.55c0.73,0.63,1.62,1.04,2.56,1.17c0.94,0.14,1.94,0,2.86-0.45c0.61-0.3,1.13-0.71,1.56-1.2   c0.63-0.72,1.04-1.61,1.17-2.56c0.14-0.94,0-1.94-0.45-2.85c-0.3-0.62-0.71-1.14-1.2-1.56c-0.72-0.63-1.61-1.04-2.56-1.17   c-0.59-0.09-1.21-0.06-1.82,0.09l-6.61-13.57l-10.23-3.53l-5.29-10.85c-0.68,0.27-1.37,0.5-2.08,0.69l4.47,9.16l-7.63-2.63   l-2.88-5.9c-0.88-0.05-1.74-0.16-2.58-0.33l3.9,8l10.54,3.63l22.71,46.6c-0.43,0.31-0.82,0.66-1.16,1.05   c-0.85,0.97-1.39,2.17-1.57,3.43c-0.18,1.27,0,2.61,0.61,3.83c0.4,0.82,0.95,1.53,1.6,2.09c0.97,0.85,2.17,1.39,3.44,1.57   c1.26,0.18,2.6-0.01,3.83-0.61c0.82-0.4,1.53-0.95,2.09-1.6c0.85-0.98,1.39-2.17,1.57-3.44c0.18-1.27,0-2.6-0.6-3.83   C535.72,678.01,535.17,677.31,534.52,676.74z M520.74,648.49c0.27-0.46,0.67-0.84,1.18-1.1c0.35-0.17,0.7-0.26,1.06-0.28   c0.53-0.03,1.07,0.1,1.53,0.37c0.46,0.27,0.85,0.66,1.1,1.18c0.17,0.34,0.25,0.71,0.27,1.06c0.03,0.54-0.1,1.08-0.37,1.54   c-0.27,0.46-0.66,0.85-1.18,1.1c-0.35,0.17-0.71,0.25-1.06,0.28c-0.54,0.03-1.08-0.1-1.54-0.37c-0.46-0.27-0.85-0.67-1.1-1.18   c-0.17-0.35-0.26-0.7-0.28-1.06C520.35,649.49,520.48,648.95,520.74,648.49z M534.01,683.98c-0.43,0.74-1.07,1.37-1.9,1.77   c-0.56,0.27-1.14,0.42-1.72,0.45c-0.86,0.05-1.72-0.16-2.47-0.59c-0.75-0.43-1.37-1.07-1.78-1.91c-0.27-0.55-0.41-1.14-0.44-1.71   c-0.05-0.87,0.17-1.73,0.59-2.48c0.43-0.74,1.08-1.37,1.91-1.77c0.55-0.27,1.13-0.42,1.71-0.45c0.87-0.05,1.73,0.17,2.47,0.6   c0.74,0.43,1.37,1.07,1.78,1.91c0.27,0.55,0.41,1.13,0.44,1.71C534.65,682.37,534.45,683.23,534.01,683.98z"/>
	<path class="st0" d="M598.21,632.34c-0.15-1.27-0.67-2.51-1.57-3.55c-0.59-0.69-1.31-1.23-2.08-1.61   c-1.16-0.57-2.46-0.79-3.72-0.64c-0.93,0.11-1.84,0.42-2.67,0.93l-81.72-94.5l-2.3,0.59c0,0.03,0,0.06,0,0.08l82.36,95.25   c-0.34,0.4-0.62,0.84-0.85,1.3c-0.57,1.16-0.78,2.46-0.63,3.73c0.15,1.27,0.67,2.51,1.56,3.55c0.6,0.69,1.31,1.23,2.08,1.61   c1.16,0.57,2.47,0.79,3.73,0.64c1.27-0.15,2.51-0.67,3.54-1.57c0.69-0.6,1.23-1.31,1.62-2.09   C598.14,634.91,598.36,633.61,598.21,632.34z M595.92,634.3c-0.22,0.83-0.69,1.6-1.39,2.21c-0.47,0.4-0.99,0.69-1.54,0.87   c-0.83,0.27-1.71,0.28-2.54,0.06c-0.83-0.22-1.6-0.68-2.21-1.39c-0.4-0.47-0.69-0.99-0.87-1.54c-0.27-0.83-0.29-1.71-0.06-2.55   c0.22-0.83,0.69-1.6,1.38-2.2c0.47-0.41,1-0.69,1.55-0.87c0.82-0.26,1.71-0.28,2.54-0.06c0.83,0.23,1.6,0.68,2.21,1.39   c0.41,0.47,0.69,1,0.87,1.54C596.13,632.58,596.15,633.47,595.92,634.3z"/>
	<path class="st0" d="M529.07,679.52c-1.22,0.6-1.73,2.07-1.14,3.3c0.6,1.22,2.07,1.73,3.3,1.14c1.22-0.6,1.73-2.07,1.13-3.3   C531.77,679.44,530.3,678.93,529.07,679.52z"/>
	<path class="st0" d="M508.76,681.36c-0.93-0.9-2.1-1.49-3.36-1.73c-0.92-0.17-1.88-0.16-2.82,0.08l-25.5-59.24l-1.71,1.53   l25.21,58.57c-0.45,0.28-0.85,0.62-1.21,0.98c-0.89,0.94-1.49,2.11-1.73,3.36c-0.24,1.26-0.12,2.6,0.42,3.86   c0.36,0.84,0.88,1.57,1.5,2.17c0.94,0.89,2.11,1.5,3.36,1.73c1.26,0.24,2.6,0.12,3.85-0.43c0.84-0.36,1.57-0.88,2.17-1.5   c0.89-0.93,1.49-2.1,1.73-3.36c0.24-1.26,0.12-2.6-0.43-3.86C509.91,682.69,509.38,681.96,508.76,681.36z M507.92,688.57   c-0.46,0.72-1.14,1.32-1.99,1.68c-0.57,0.24-1.15,0.36-1.73,0.37c-0.87,0-1.72-0.25-2.44-0.71c-0.72-0.46-1.32-1.14-1.69-1.99   c-0.24-0.57-0.36-1.15-0.36-1.73c0-0.87,0.24-1.72,0.71-2.45c0.46-0.72,1.14-1.32,1.98-1.68c0.57-0.25,1.16-0.36,1.74-0.36   c0.86,0,1.71,0.24,2.44,0.71c0.73,0.47,1.32,1.14,1.69,1.99c0.25,0.57,0.36,1.16,0.36,1.73   C508.64,686.99,508.38,687.84,507.92,688.57z"/>
	<path class="st0" d="M394.23,708.23c-0.8-0.48-1.72-0.79-2.68-0.89l-11.74-199.53c-0.84-0.85-1.62-1.75-2.34-2.7l11.91,202.36   c-0.52,0.11-1.01,0.29-1.47,0.51c-1.16,0.58-2.12,1.48-2.77,2.57c-0.66,1.1-1,2.4-0.92,3.77c0.05,0.91,0.29,1.77,0.67,2.55   c0.58,1.16,1.48,2.13,2.57,2.77c1.1,0.66,2.4,0.99,3.77,0.91c0.91-0.05,1.78-0.29,2.55-0.67c1.15-0.57,2.12-1.47,2.77-2.57   c0.66-1.1,1-2.4,0.91-3.77c-0.05-0.91-0.29-1.78-0.67-2.55C396.23,709.83,395.33,708.88,394.23,708.23z M395.06,715.42   c-0.29,0.82-0.82,1.53-1.5,2.06s-1.52,0.85-2.45,0.9c-0.62,0.04-1.2-0.05-1.75-0.24c-0.82-0.29-1.53-0.82-2.05-1.5   c-0.52-0.68-0.86-1.52-0.91-2.44c-0.04-0.62,0.06-1.21,0.25-1.75c0.29-0.82,0.81-1.53,1.5-2.06c0.68-0.52,1.52-0.85,2.44-0.9   c0.62-0.04,1.21,0.06,1.76,0.25c0.81,0.29,1.53,0.81,2.05,1.5c0.52,0.69,0.86,1.52,0.91,2.44   C395.35,714.29,395.25,714.88,395.06,715.42z"/>
	<path class="st0" d="M328.47,46.81c0.64,1.13,1.59,2.03,2.72,2.62c0.83,0.43,1.76,0.69,2.73,0.73l12.33,105.76l2.2,0.09   l-12.37-106.1c0.51-0.14,0.99-0.35,1.44-0.6c1.13-0.64,2.03-1.59,2.62-2.73c0.59-1.13,0.86-2.45,0.7-3.81   c-0.11-0.91-0.4-1.76-0.82-2.5c-0.64-1.13-1.6-2.04-2.73-2.62c-1.13-0.59-2.45-0.85-3.81-0.7c-0.91,0.11-1.76,0.39-2.51,0.82   c-1.12,0.64-2.03,1.59-2.62,2.72c-0.59,1.13-0.86,2.45-0.69,3.82C327.75,45.21,328.04,46.06,328.47,46.81z M329.95,42.29   c0.24-0.83,0.73-1.58,1.38-2.14c0.65-0.56,1.47-0.94,2.39-1.04c0.61-0.07,1.21-0.02,1.76,0.14c0.83,0.24,1.57,0.73,2.13,1.38   c0.56,0.65,0.94,1.47,1.05,2.39c0.07,0.61,0.01,1.21-0.15,1.76c-0.24,0.83-0.72,1.58-1.38,2.14c-0.65,0.56-1.47,0.94-2.38,1.04   c-0.62,0.07-1.21,0.01-1.77-0.15c-0.83-0.24-1.57-0.72-2.13-1.38c-0.56-0.66-0.94-1.47-1.05-2.39   C329.73,43.43,329.79,42.84,329.95,42.29z"/>
	<path class="st0" d="M320.23,91.48c0.69,1.09,1.69,1.95,2.85,2.48c0.85,0.39,1.79,0.6,2.76,0.6l10.19,60.94l2.22,0.09l-10.26-61.39   c0.5-0.17,0.97-0.4,1.41-0.67c1.09-0.7,1.95-1.69,2.48-2.85c0.53-1.16,0.74-2.49,0.51-3.84c-0.15-0.9-0.48-1.73-0.94-2.46   c-0.7-1.09-1.7-1.96-2.86-2.48c-1.16-0.53-2.49-0.73-3.84-0.5c-0.9,0.15-1.73,0.48-2.47,0.94c-1.09,0.69-1.95,1.69-2.48,2.85   c-0.53,1.16-0.74,2.49-0.5,3.85C319.43,89.92,319.76,90.75,320.23,91.48z M321.49,86.89c0.2-0.84,0.65-1.61,1.27-2.21   c0.62-0.59,1.42-1.01,2.33-1.16c0.61-0.1,1.2-0.08,1.77,0.05c0.84,0.2,1.61,0.65,2.2,1.27c0.59,0.62,1.01,1.42,1.17,2.33   c0.1,0.61,0.07,1.2-0.06,1.77c-0.2,0.84-0.64,1.61-1.27,2.21c-0.62,0.59-1.42,1.01-2.33,1.16c-0.61,0.1-1.21,0.07-1.78-0.06   c-0.84-0.2-1.61-0.64-2.2-1.27c-0.59-0.63-1.01-1.42-1.17-2.33C321.32,88.05,321.35,87.45,321.49,86.89z"/>
	<path class="st0" d="M299,33.69c1.38-0.26,2.29-1.6,2.03-2.98c-0.26-1.38-1.6-2.29-2.98-2.03c-1.38,0.26-2.29,1.6-2.03,2.98   C296.28,33.04,297.61,33.95,299,33.69z"/>
	<path class="st0" d="M161.92,510.97c-1.77,1.17-2.26,3.56-1.09,5.34c1.17,1.77,3.56,2.26,5.34,1.09c1.46-0.97,2.05-2.75,1.56-4.35   l47.14-31.17c-0.49-0.54-0.95-1.11-1.38-1.7l-46.96,31.05C165.26,510.17,163.38,510.01,161.92,510.97z"/>
	<path class="st0" d="M137.66,462.56c1.65-0.58,2.66-2.16,2.58-3.83l30.95-10.77l-3.12-1.22l-28.54,9.94   c-0.97-1.36-2.75-1.97-4.4-1.4c-2.01,0.7-3.07,2.9-2.37,4.91C133.45,462.2,135.65,463.26,137.66,462.56z"/>
	<path class="st0" d="M357.13,133.56l1.39,22.85l2.18,0.09l-1.4-23.08c1.57-0.57,2.64-2.11,2.54-3.86   c-0.13-2.12-1.96-3.74-4.08-3.61c-2.12,0.13-3.74,1.96-3.61,4.08C354.25,131.79,355.51,133.19,357.13,133.56z"/>
	<path class="st0" d="M250.22,61.11c1.28-0.47,1.93-1.89,1.46-3.17c-0.47-1.28-1.89-1.93-3.17-1.46c-1.28,0.47-1.93,1.89-1.45,3.17   C247.53,60.92,248.94,61.58,250.22,61.11z"/>
	<path class="st0" d="M292.81,34.98c0.74,1.12,1.79,1.98,3,2.51c0.89,0.38,1.87,0.58,2.87,0.56l14.45,76.19l9.77,6.65l6.51,34.33   l2.3,0.09l-6.78-35.76l-9.76-6.65l-14.28-75.28c0.51-0.19,1-0.43,1.44-0.73c1.12-0.74,1.98-1.79,2.5-3   c0.53-1.21,0.71-2.6,0.44-3.99c-0.18-0.93-0.54-1.78-1.03-2.52c-0.75-1.11-1.8-1.98-3.01-2.5c-1.21-0.52-2.59-0.7-3.99-0.44   c-0.93,0.18-1.78,0.54-2.52,1.03c-1.11,0.75-1.98,1.79-2.5,3.01c-0.53,1.21-0.7,2.59-0.44,3.99   C291.95,33.39,292.31,34.24,292.81,34.98z M294.01,30.21c0.19-0.88,0.64-1.68,1.27-2.31c0.63-0.63,1.44-1.07,2.39-1.25   c0.63-0.12,1.24-0.11,1.83,0.02c0.88,0.18,1.68,0.63,2.31,1.26c0.63,0.64,1.07,1.44,1.25,2.39c0.12,0.63,0.1,1.25-0.02,1.83   c-0.19,0.88-0.63,1.68-1.26,2.31c-0.64,0.63-1.44,1.07-2.39,1.25c-0.63,0.12-1.25,0.11-1.83-0.02c-0.88-0.19-1.68-0.64-2.31-1.27   c-0.63-0.63-1.07-1.44-1.25-2.39C293.87,31.41,293.88,30.8,294.01,30.21z"/>
	<path class="st0" d="M244.52,63.33c0.89,0.94,2.03,1.6,3.27,1.91c0.91,0.22,1.87,0.26,2.82,0.07l17.2,46.59l-7.03-3.24l-4.92-13.32   c0.25-0.16,0.48-0.34,0.69-0.54c0.7-0.66,1.19-1.51,1.42-2.43c0.22-0.92,0.19-1.93-0.17-2.89c-0.23-0.64-0.59-1.2-1.03-1.67   c-0.66-0.7-1.51-1.19-2.43-1.42c-0.92-0.23-1.93-0.19-2.89,0.16c-0.64,0.23-1.2,0.59-1.67,1.04c-0.7,0.66-1.19,1.5-1.42,2.43   c-0.23,0.92-0.19,1.93,0.16,2.88c0.24,0.64,0.6,1.2,1.04,1.67c0.66,0.7,1.5,1.19,2.43,1.42c0.58,0.15,1.2,0.18,1.82,0.09   l5.23,14.16l9.83,4.53l10.69,28.96c0.53-0.59,1.1-1.15,1.7-1.69l-9.59-25.98l7.33,3.38l7.12,19.28c0.65-0.33,1.31-0.63,1.99-0.89   l-7.38-19.99l-10.12-4.66l-17.96-48.63c0.46-0.26,0.88-0.57,1.25-0.93c0.94-0.88,1.6-2.02,1.9-3.26c0.31-1.24,0.26-2.59-0.23-3.88   c-0.32-0.86-0.79-1.61-1.38-2.24c-0.88-0.95-2.02-1.6-3.26-1.91c-1.24-0.3-2.59-0.25-3.88,0.22c-0.85,0.31-1.61,0.8-2.24,1.38   c-0.94,0.89-1.6,2.02-1.9,3.27c-0.31,1.24-0.26,2.59,0.22,3.87C243.45,61.95,243.94,62.7,244.52,63.33z M254.13,93.79   c-0.36,0.13-0.73,0.19-1.09,0.17c-0.53-0.02-1.05-0.2-1.49-0.52c-0.43-0.31-0.78-0.74-0.98-1.29c-0.13-0.36-0.18-0.73-0.17-1.08   c0.03-0.54,0.21-1.06,0.52-1.49c0.32-0.43,0.74-0.78,1.29-0.98c0.36-0.13,0.73-0.18,1.09-0.17c0.54,0.03,1.06,0.21,1.49,0.52   c0.44,0.32,0.77,0.75,0.97,1.29c0.13,0.36,0.19,0.73,0.17,1.09c-0.03,0.54-0.21,1.06-0.52,1.49   C255.11,93.25,254.67,93.59,254.13,93.79z M245.75,56.18c0.5-0.7,1.21-1.25,2.07-1.57c0.58-0.22,1.17-0.3,1.76-0.27   c0.86,0.04,1.7,0.33,2.4,0.83c0.7,0.51,1.26,1.2,1.58,2.07c0.21,0.58,0.3,1.18,0.27,1.75c-0.04,0.87-0.34,1.71-0.84,2.4   c-0.5,0.7-1.21,1.25-2.08,1.58c-0.58,0.21-1.17,0.3-1.75,0.28c-0.87-0.04-1.7-0.34-2.4-0.84c-0.7-0.5-1.26-1.2-1.58-2.07   c-0.21-0.58-0.29-1.17-0.27-1.75C244.95,57.72,245.24,56.88,245.75,56.18z"/>
	<path class="st0" d="M287.74,75.02l17.56,63.12c0.91,0.39,1.79,0.83,2.63,1.33l-18.09-65.03c1.42-0.88,2.15-2.61,1.68-4.3   c-0.57-2.05-2.69-3.25-4.74-2.69c-2.05,0.57-3.25,2.69-2.69,4.74C284.55,73.88,286.07,74.99,287.74,75.02z"/>
	<path class="st0" d="M133.26,188.37c-0.39-1.26-1.16-2.43-2.27-3.32c-0.74-0.59-1.57-1-2.42-1.25c-1.29-0.36-2.65-0.33-3.91,0.06   c-1.26,0.39-2.43,1.16-3.31,2.26c-0.59,0.74-1,1.57-1.25,2.42c-0.36,1.29-0.34,2.65,0.06,3.91c0.39,1.26,1.16,2.42,2.26,3.31   c0.74,0.59,1.56,1.01,2.42,1.25c1.29,0.37,2.65,0.34,3.91-0.05c0.92-0.29,1.79-0.77,2.54-1.44l22.74,17.72l11.75-1.31l11.45,9.16   l2.1-1.2l-12.87-10.29l-11.74,1.3l-22.01-17.14c0.27-0.48,0.48-0.98,0.62-1.49C133.68,190.98,133.65,189.63,133.26,188.37z    M131.31,190.78c-0.08,0.89-0.4,1.76-1,2.51c-0.4,0.5-0.88,0.9-1.4,1.18c-0.79,0.43-1.69,0.61-2.58,0.54   c-0.89-0.07-1.76-0.4-2.51-1c-0.5-0.4-0.89-0.87-1.18-1.4c-0.43-0.79-0.61-1.69-0.54-2.58c0.07-0.89,0.4-1.76,1-2.51   c0.4-0.5,0.87-0.89,1.41-1.17c0.79-0.43,1.69-0.62,2.57-0.55c0.89,0.08,1.76,0.4,2.51,1c0.5,0.4,0.89,0.88,1.17,1.41   C131.19,189,131.38,189.9,131.31,190.78z"/>
	<path class="st0" d="M217.68,78.84c0.97,0.85,2.17,1.39,3.43,1.57c0.92,0.13,1.89,0.07,2.81-0.21l43.61,89.36l1.89-1.08   l-43.55-89.23c0.43-0.3,0.82-0.66,1.16-1.04c0.85-0.98,1.39-2.18,1.56-3.44c0.18-1.27,0-2.6-0.6-3.83c-0.4-0.82-0.96-1.52-1.6-2.09   c-0.98-0.85-2.18-1.39-3.44-1.57c-1.27-0.18-2.6,0.01-3.83,0.61c-0.82,0.4-1.53,0.95-2.1,1.6c-0.85,0.97-1.39,2.17-1.57,3.43   c-0.18,1.27,0,2.6,0.61,3.83C216.47,77.57,217.03,78.28,217.68,78.84z M218.18,71.61c0.43-0.74,1.07-1.37,1.91-1.78   c0.55-0.27,1.13-0.42,1.71-0.45c0.87-0.05,1.73,0.17,2.47,0.6c0.74,0.43,1.38,1.07,1.78,1.91c0.27,0.55,0.41,1.13,0.44,1.71   c0.05,0.87-0.16,1.73-0.59,2.48c-0.43,0.74-1.07,1.37-1.9,1.77c-0.56,0.27-1.14,0.41-1.72,0.45c-0.86,0.04-1.72-0.16-2.47-0.59   c-0.75-0.43-1.38-1.07-1.78-1.91c-0.27-0.56-0.41-1.14-0.44-1.71C217.54,73.22,217.75,72.35,218.18,71.61z"/>
	<path class="st0" d="M108.43,232.36c-1.88-1-4.21-0.28-5.21,1.59s-0.28,4.21,1.59,5.21c1.55,0.82,3.4,0.48,4.56-0.71l33.72,17.8   l1.17-1.84l-33.87-17.88C110.73,234.9,109.98,233.18,108.43,232.36z"/>
	<path class="st0" d="M115.83,283.18c0.48-0.66,1.1-1.2,1.87-1.54l-8.73-3.32c0.13-1.66-0.84-3.28-2.47-3.9   c-1.99-0.76-4.21,0.24-4.97,2.23c-0.76,1.99,0.24,4.21,2.23,4.97c1.64,0.62,3.43,0.05,4.44-1.27l7.45,2.83   C115.7,283.18,115.77,283.18,115.83,283.18z"/>
	<path class="st0" d="M128.3,188.42c-1.1-0.88-2.71-0.7-3.59,0.4c-0.88,1.1-0.7,2.71,0.4,3.59c1.1,0.88,2.71,0.7,3.59-0.4   C129.58,190.9,129.4,189.3,128.3,188.42z"/>
	<path class="st0" d="M193.17,134.95c-0.06-0.95-0.39-1.89-1.01-2.7c-0.42-0.54-0.92-0.98-1.48-1.29c-0.84-0.48-1.79-0.69-2.74-0.64   c-0.95,0.06-1.89,0.39-2.71,1.01c-0.54,0.41-0.97,0.92-1.29,1.47c-0.48,0.84-0.69,1.79-0.64,2.74c0.06,0.95,0.39,1.9,1.01,2.71   c0.41,0.54,0.92,0.97,1.47,1.29c0.84,0.48,1.79,0.69,2.74,0.64c0.6-0.03,1.2-0.18,1.77-0.44l39.37,51.42l1.91-1.09l-39.55-51.66   c0.19-0.23,0.36-0.47,0.5-0.72C193.01,136.86,193.22,135.9,193.17,134.95z M190.86,136.13c-0.17,0.5-0.48,0.97-0.94,1.32   c-0.3,0.23-0.64,0.39-0.98,0.48c-0.52,0.13-1.07,0.11-1.58-0.05c-0.51-0.17-0.97-0.48-1.32-0.94c-0.23-0.31-0.39-0.64-0.48-0.99   c-0.13-0.52-0.11-1.07,0.05-1.58c0.17-0.51,0.49-0.96,0.94-1.31c0.31-0.23,0.64-0.39,0.99-0.48c0.52-0.14,1.07-0.12,1.58,0.05   c0.5,0.17,0.96,0.49,1.31,0.94c0.23,0.3,0.39,0.64,0.48,0.98C191.05,135.07,191.03,135.62,190.86,136.13z"/>
	<path class="st0" d="M72.69,404.33c1.74-0.14,3.12-1.42,3.46-3.05l46.23-3.85l-0.27-2.16l-46.14,3.84c-0.6-1.56-2.16-2.6-3.91-2.46   c-2.12,0.17-3.7,2.03-3.53,4.15C68.71,402.92,70.57,404.5,72.69,404.33z"/>
	<path class="st0" d="M41.57,385.81c-0.55-1.17-1.43-2.15-2.51-2.83c-1.08-0.68-2.38-1.05-3.75-1.01c-0.91,0.03-1.78,0.25-2.56,0.61   c-1.17,0.55-2.16,1.43-2.83,2.51c-0.68,1.08-1.05,2.38-1,3.75c0.03,0.91,0.25,1.78,0.61,2.57c0.54,1.17,1.42,2.15,2.5,2.83   c1.08,0.68,2.38,1.05,3.75,1c0.91-0.03,1.78-0.25,2.56-0.61c1.17-0.54,2.15-1.42,2.83-2.5c0.49-0.79,0.83-1.7,0.95-2.66l78.92-2.82   l-0.27-2.17l-78.73,2.82C41.95,386.78,41.78,386.28,41.57,385.81z M39.72,390.2c-0.31,0.8-0.85,1.51-1.54,2.02   c-0.7,0.51-1.54,0.82-2.46,0.85c-0.62,0.02-1.21-0.09-1.75-0.29c-0.81-0.31-1.52-0.85-2.02-1.55c-0.51-0.69-0.81-1.54-0.85-2.47   c-0.02-0.62,0.08-1.2,0.28-1.75c0.31-0.81,0.85-1.51,1.55-2.02c0.69-0.51,1.54-0.82,2.47-0.85c0.62-0.02,1.2,0.09,1.75,0.29   c0.81,0.31,1.52,0.85,2.02,1.55c0.51,0.69,0.81,1.54,0.85,2.46C40.03,389.07,39.92,389.66,39.72,390.2z"/>
	<path class="st0" d="M104.38,329.14c-0.05-0.03-0.11-0.06-0.16-0.09l-6.88-1.18c-0.19-1.65-1.45-3.05-3.17-3.35   c-2.1-0.36-4.09,1.05-4.45,3.15c-0.36,2.1,1.05,4.09,3.15,4.45c1.72,0.3,3.38-0.6,4.11-2.1l7.95,1.36   C104.57,330.68,104.4,329.9,104.38,329.14z"/>
	<path class="st0" d="M22.8,306.61c0.89,0.98,2.07,1.71,3.45,2.05c0.92,0.23,1.84,0.26,2.72,0.11c1.32-0.21,2.54-0.81,3.53-1.69   c0.71-0.65,1.3-1.46,1.69-2.38l60.63,14.86c-0.47-0.85-0.89-1.72-1.26-2.63l-58.84-14.42c0.04-0.55,0.02-1.08-0.07-1.61   c-0.21-1.32-0.81-2.54-1.69-3.52c-0.89-0.98-2.08-1.72-3.45-2.06c-0.92-0.23-1.84-0.25-2.72-0.11c-1.32,0.22-2.55,0.81-3.53,1.7   c-0.98,0.89-1.71,2.07-2.05,3.45c-0.23,0.92-0.25,1.84-0.11,2.72C21.32,304.41,21.91,305.63,22.8,306.61z M23.4,300.9   c0.15-0.62,0.42-1.18,0.78-1.66c0.53-0.72,1.27-1.27,2.1-1.58c0.84-0.31,1.76-0.38,2.69-0.15c0.62,0.15,1.18,0.43,1.66,0.78   c0.72,0.54,1.27,1.27,1.58,2.1c0.31,0.84,0.38,1.76,0.15,2.69c-0.15,0.63-0.42,1.18-0.77,1.66c-0.54,0.72-1.28,1.27-2.11,1.58   c-0.83,0.31-1.76,0.38-2.69,0.15c-0.62-0.15-1.18-0.42-1.66-0.77c-0.72-0.54-1.27-1.28-1.58-2.11   C23.24,302.76,23.17,301.83,23.4,300.9z"/>
	<path class="st0" d="M24.43,433.46c-1.4,0.2-2.37,1.49-2.17,2.88c0.2,1.4,1.49,2.37,2.88,2.17c1.4-0.2,2.37-1.49,2.17-2.88   C27.11,434.23,25.82,433.26,24.43,433.46z"/>
	<path class="st0" d="M22.39,376.76c0.04-1.41-1.07-2.58-2.48-2.62c-1.41-0.04-2.58,1.07-2.62,2.48c-0.04,1.41,1.07,2.58,2.48,2.62   C21.18,379.28,22.35,378.17,22.39,376.76z"/>
	<path class="st0" d="M22.33,383.09c1.25-0.48,2.32-1.32,3.09-2.4c0.56-0.78,0.97-1.7,1.15-2.68l77.52,2.15l8.59-8.12l6.57,0.18   l-0.28-2.25l-7.16-0.2l-8.59,8.12l-76.59-2.12c-0.08-0.54-0.21-1.06-0.41-1.56c-0.48-1.25-1.32-2.32-2.4-3.08   c-1.07-0.77-2.39-1.24-3.81-1.28c-0.95-0.03-1.86,0.14-2.69,0.47c-1.25,0.49-2.32,1.33-3.09,2.4c-0.77,1.07-1.24,2.39-1.28,3.8   c-0.03,0.95,0.15,1.86,0.47,2.69c0.49,1.25,1.32,2.32,2.4,3.09c1.07,0.77,2.39,1.24,3.8,1.28C20.6,383.58,21.5,383.42,22.33,383.09   z M15.94,379.17c-0.48-0.75-0.74-1.64-0.71-2.6c0.02-0.64,0.16-1.24,0.41-1.78c0.37-0.82,0.97-1.51,1.72-1.99   c0.76-0.48,1.64-0.74,2.6-0.71c0.64,0.02,1.24,0.17,1.78,0.41c0.82,0.37,1.51,0.97,1.99,1.72c0.48,0.76,0.74,1.64,0.71,2.6   c-0.02,0.64-0.16,1.24-0.41,1.78c-0.37,0.82-0.98,1.51-1.73,1.99c-0.75,0.48-1.64,0.74-2.6,0.71c-0.64-0.02-1.24-0.16-1.78-0.41   C17.11,380.53,16.42,379.92,15.94,379.17z"/>
	<path class="st0" d="M59.94,241.68c0.83,0.4,1.7,0.6,2.55,0.64c1.3,0.06,2.57-0.27,3.67-0.91c0.8-0.47,1.52-1.12,2.07-1.91   l44.79,21.45l-7.3,2.57l-12.81-6.13c0.07-0.28,0.11-0.58,0.12-0.87c0.04-0.96-0.2-1.91-0.67-2.73c-0.48-0.82-1.21-1.51-2.13-1.95   c-0.61-0.29-1.26-0.45-1.9-0.48c-0.96-0.04-1.91,0.2-2.73,0.67c-0.82,0.48-1.52,1.21-1.96,2.13c-0.29,0.61-0.45,1.26-0.48,1.91   c-0.05,0.96,0.19,1.91,0.68,2.73c0.48,0.82,1.21,1.52,2.12,1.96c0.62,0.3,1.27,0.45,1.91,0.48c0.96,0.05,1.91-0.19,2.73-0.67   c0.52-0.3,0.99-0.71,1.37-1.2l13.61,6.52l10.21-3.59l17.98,8.61l1.18-1.85l-16.25-7.78l7.61-2.68l11.73,5.62l1.18-1.85l-12.78-6.12   l-10.51,3.7l-46.76-22.39c0.15-0.51,0.23-1.02,0.26-1.54c0.06-1.29-0.26-2.57-0.91-3.66c-0.64-1.1-1.62-2.04-2.86-2.62   c-0.82-0.4-1.69-0.61-2.55-0.64c-1.29-0.06-2.57,0.26-3.67,0.9c-1.1,0.65-2.03,1.62-2.62,2.86c-0.39,0.82-0.6,1.7-0.64,2.55   c-0.06,1.3,0.26,2.57,0.91,3.67C57.73,240.15,58.71,241.09,59.94,241.68z M90.6,257.49c-0.17,0.35-0.39,0.64-0.66,0.88   c-0.4,0.36-0.9,0.59-1.43,0.66c-0.53,0.08-1.08,0.01-1.6-0.24c-0.34-0.16-0.64-0.4-0.87-0.66c-0.36-0.4-0.59-0.91-0.67-1.43   c-0.08-0.53-0.01-1.08,0.24-1.6c0.17-0.35,0.4-0.64,0.66-0.88c0.4-0.36,0.91-0.59,1.43-0.67c0.53-0.08,1.08,0,1.6,0.25   c0.35,0.17,0.64,0.39,0.88,0.66c0.36,0.4,0.59,0.91,0.67,1.43C90.93,256.42,90.85,256.97,90.6,257.49z M58.78,233.77   c0.27-0.56,0.63-1.04,1.07-1.42c0.64-0.57,1.45-0.94,2.3-1.07c0.86-0.12,1.74-0.01,2.58,0.39c0.56,0.27,1.03,0.64,1.41,1.07   c0.58,0.65,0.95,1.46,1.07,2.31c0.13,0.85,0.01,1.74-0.39,2.58c-0.27,0.56-0.63,1.03-1.06,1.42c-0.65,0.57-1.46,0.94-2.31,1.07   c-0.85,0.13-1.74,0.01-2.58-0.39c-0.56-0.27-1.03-0.63-1.41-1.07c-0.57-0.65-0.95-1.45-1.07-2.31   C58.27,235.49,58.39,234.6,58.78,233.77z"/>
	<path class="st0" d="M67.93,493.6l41.48-19.76l17.9,6.35l-18.23,8.69c-0.29-0.43-0.65-0.82-1.03-1.16   c-0.97-0.86-2.16-1.41-3.43-1.6c-1.26-0.19-2.6-0.02-3.83,0.57c-0.83,0.39-1.54,0.93-2.11,1.58c-0.85,0.96-1.41,2.16-1.6,3.42   c-0.19,1.26-0.02,2.61,0.58,3.84c0.39,0.83,0.94,1.54,1.58,2.11c0.97,0.86,2.16,1.41,3.42,1.61c1.26,0.19,2.6,0.02,3.84-0.58   c0.82-0.39,1.53-0.94,2.11-1.58c0.86-0.97,1.41-2.16,1.6-3.43c0.14-0.92,0.09-1.88-0.19-2.82l20.2-9.62l10.59,3.76l56.39-26.86   l-2.78-1.09l-53.73,25.6l-7.7-2.73l54.05-25.75l-2.78-1.09l-54.17,25.8l-20.8-7.38l-42.29,20.15c-1.11-1.24-2.95-1.66-4.52-0.91   c-1.92,0.92-2.74,3.22-1.82,5.14c0.92,1.92,3.22,2.73,5.14,1.82C67.36,496.93,68.19,495.24,67.93,493.6z M107.48,494.94   c-0.44,0.74-1.09,1.36-1.92,1.76c-0.56,0.27-1.14,0.41-1.72,0.43c-0.86,0.04-1.72-0.18-2.46-0.61c-0.74-0.44-1.36-1.08-1.76-1.92   c-0.27-0.56-0.4-1.14-0.43-1.72c-0.04-0.87,0.18-1.73,0.62-2.47c0.44-0.74,1.09-1.36,1.93-1.76c0.56-0.27,1.14-0.41,1.71-0.43   c0.87-0.04,1.72,0.18,2.47,0.62c0.74,0.44,1.36,1.08,1.76,1.92c0.27,0.56,0.4,1.14,0.43,1.72   C108.14,493.34,107.93,494.2,107.48,494.94z"/>
	<path class="st0" d="M27.27,304.47c1.37,0.34,2.75-0.5,3.09-1.87s-0.5-2.75-1.87-3.09c-1.37-0.34-2.75,0.5-3.09,1.87   C25.07,302.76,25.91,304.14,27.27,304.47z"/>
	<path class="st0" d="M102.59,490.44c-1.23,0.59-1.75,2.06-1.17,3.29c0.59,1.23,2.06,1.75,3.29,1.17c1.22-0.58,1.75-2.06,1.16-3.29   C105.28,490.38,103.81,489.86,102.59,490.44z"/>
	<path class="st0" d="M98.25,452.05l-4.04,6.61l-13.8,3.33c-0.13-0.26-0.28-0.52-0.45-0.75c-0.58-0.77-1.36-1.36-2.25-1.69   c-0.89-0.33-1.89-0.41-2.89-0.17c-0.66,0.16-1.26,0.44-1.77,0.83c-0.77,0.58-1.36,1.36-1.69,2.25s-0.41,1.89-0.17,2.89   c0.16,0.66,0.45,1.26,0.83,1.78c0.57,0.78,1.35,1.36,2.25,1.69c0.89,0.34,1.89,0.41,2.88,0.18c0.67-0.16,1.26-0.45,1.78-0.83   c0.78-0.57,1.36-1.35,1.69-2.25c0.21-0.56,0.32-1.17,0.31-1.8l14.67-3.54l5.65-9.24l25.22-6.09c-1.28-0.32-2.51-0.78-3.67-1.35   l-19.94,4.82l4.21-6.89l9.89-2.39c-0.53-0.6-1.03-1.22-1.48-1.88l-9.8,2.37l-5.81,9.51l-50.39,12.17   c-0.21-0.49-0.46-0.94-0.77-1.35c-0.77-1.04-1.82-1.83-3.02-2.27c-1.2-0.45-2.55-0.56-3.88-0.23c-0.89,0.21-1.7,0.6-2.39,1.11   c-1.04,0.77-1.83,1.82-2.28,3.02c-0.44,1.19-0.55,2.54-0.23,3.88c0.21,0.88,0.6,1.69,1.11,2.39c0.77,1.04,1.82,1.83,3.02,2.27   c1.2,0.45,2.54,0.56,3.87,0.24c0.89-0.21,1.69-0.6,2.39-1.11c1.04-0.77,1.82-1.83,2.27-3.02c0.33-0.87,0.47-1.83,0.4-2.79   L98.25,452.05z M78.72,464.63c-0.08,0.53-0.33,1.02-0.69,1.41c-0.36,0.39-0.83,0.69-1.39,0.82c-0.37,0.09-0.74,0.1-1.09,0.04   c-0.53-0.09-1.03-0.33-1.42-0.69c-0.4-0.36-0.69-0.83-0.82-1.39c-0.09-0.38-0.1-0.74-0.04-1.1c0.09-0.53,0.33-1.03,0.69-1.42   c0.36-0.39,0.83-0.68,1.39-0.82c0.38-0.09,0.74-0.1,1.1-0.04c0.53,0.09,1.03,0.33,1.42,0.69c0.39,0.36,0.68,0.83,0.82,1.39   C78.77,463.91,78.78,464.27,78.72,464.63z M47.77,464.91c-0.14,0.86-0.54,1.65-1.11,2.28c-0.58,0.63-1.34,1.11-2.24,1.33   c-0.6,0.14-1.2,0.16-1.77,0.06c-0.86-0.14-1.65-0.53-2.29-1.11c-0.63-0.58-1.11-1.34-1.32-2.24c-0.15-0.61-0.16-1.2-0.07-1.78   c0.14-0.85,0.53-1.65,1.11-2.28c0.58-0.64,1.34-1.11,2.24-1.33c0.6-0.14,1.2-0.16,1.77-0.06c0.86,0.14,1.66,0.53,2.29,1.11   c0.63,0.58,1.11,1.34,1.32,2.25C47.84,463.74,47.86,464.34,47.77,464.91z"/>
	<path class="st0" d="M115.54,415.84l0.3-0.04c0.68-0.93,1.43-1.8,2.26-2.59l-3.8,0.54l-7.1,9.44l-75.86,10.74   c-0.17-0.52-0.38-1.01-0.66-1.47c-0.69-1.15-1.69-2.06-2.88-2.64c-1.19-0.58-2.57-0.83-3.97-0.63c-0.94,0.13-1.8,0.45-2.57,0.91   c-1.15,0.69-2.06,1.7-2.64,2.89c-0.58,1.19-0.82,2.56-0.62,3.96c0.13,0.94,0.45,1.81,0.91,2.57c0.69,1.15,1.69,2.06,2.89,2.64   c1.19,0.58,2.56,0.82,3.96,0.62c0.94-0.13,1.81-0.45,2.57-0.91c1.15-0.69,2.06-1.69,2.64-2.88c0.42-0.87,0.67-1.84,0.69-2.84   l76.78-10.87L115.54,415.84z M29.25,437.17c-0.23,0.87-0.72,1.65-1.37,2.25c-0.66,0.6-1.49,1-2.44,1.14   c-0.63,0.09-1.25,0.05-1.83-0.1c-0.87-0.23-1.65-0.72-2.25-1.37c-0.6-0.66-1-1.49-1.14-2.44c-0.09-0.63-0.05-1.25,0.11-1.83   c0.22-0.87,0.71-1.65,1.37-2.25c0.67-0.6,1.49-1,2.44-1.14c0.63-0.09,1.25-0.04,1.83,0.11c0.87,0.23,1.65,0.71,2.25,1.37   c0.6,0.67,1,1.49,1.14,2.44C29.44,435.98,29.4,436.59,29.25,437.17z"/>
	<path class="st0" d="M219.09,109.62l37.67,66.09l1.89-1.08l-37.67-66.08c1.16-1.19,1.45-3.05,0.59-4.58   c-1.05-1.85-3.4-2.51-5.25-1.46c-1.85,1.05-2.51,3.4-1.46,5.25C215.73,109.28,217.47,109.99,219.09,109.62z"/>
	<path class="st0" d="M42.78,461.79c-1.32,0.32-2.14,1.65-1.82,2.98c0.32,1.32,1.65,2.13,2.98,1.81c1.32-0.32,2.14-1.65,1.82-2.97   C45.44,462.29,44.1,461.47,42.78,461.79z"/>
	<path class="st0" d="M171.43,89.61c1.1,0.76,2.4,1.17,3.72,1.21c0.96,0.02,1.95-0.15,2.87-0.55l41.75,65.35l11.54,2.54l15.01,23.5   l1.95-1.11l-15.57-24.38l-11.54-2.55l-41.25-64.57c0.41-0.37,0.76-0.77,1.06-1.21c0.76-1.1,1.17-2.4,1.2-3.71   c0.04-1.32-0.31-2.68-1.08-3.87c-0.51-0.8-1.16-1.45-1.89-1.96c-1.11-0.76-2.4-1.17-3.72-1.21c-1.32-0.03-2.67,0.32-3.86,1.08   c-0.8,0.51-1.45,1.16-1.96,1.89c-0.76,1.11-1.17,2.4-1.21,3.72c-0.04,1.32,0.32,2.67,1.08,3.86   C170.05,88.45,170.69,89.11,171.43,89.61z M171.09,82.12c0.35-0.82,0.94-1.53,1.75-2.05c0.54-0.34,1.11-0.56,1.71-0.66   c0.88-0.16,1.8-0.04,2.61,0.31c0.82,0.36,1.53,0.94,2.05,1.75c0.34,0.54,0.56,1.12,0.66,1.71c0.15,0.89,0.04,1.8-0.31,2.61   c-0.36,0.82-0.94,1.53-1.75,2.05c-0.54,0.35-1.12,0.57-1.71,0.66c-0.89,0.15-1.8,0.03-2.62-0.32c-0.82-0.35-1.53-0.94-2.05-1.75   c-0.34-0.54-0.56-1.11-0.67-1.7C170.62,83.85,170.73,82.94,171.09,82.12z"/>
	<path class="st0" d="M133.45,137.41c0.62,0.67,1.36,1.18,2.15,1.52c1.18,0.52,2.49,0.68,3.74,0.48c0.92-0.15,1.82-0.5,2.62-1.04   l63.02,66.88l1.94-1.11l-63.38-67.26c0.32-0.42,0.59-0.87,0.8-1.34c0.52-1.19,0.68-2.49,0.47-3.75c-0.2-1.26-0.77-2.48-1.71-3.48   c-0.63-0.67-1.36-1.17-2.15-1.52c-1.19-0.52-2.5-0.68-3.75-0.48c-1.26,0.2-2.48,0.78-3.47,1.72c-0.67,0.63-1.18,1.36-1.53,2.16   c-0.52,1.18-0.68,2.49-0.48,3.74C131.93,135.19,132.5,136.41,133.45,137.41z M133.93,131.88c0.19-0.84,0.62-1.63,1.29-2.26   c0.45-0.42,0.96-0.73,1.5-0.94c0.81-0.3,1.7-0.35,2.54-0.16c0.84,0.19,1.63,0.61,2.27,1.29c0.42,0.45,0.73,0.96,0.93,1.5   c0.3,0.81,0.36,1.7,0.17,2.54c-0.19,0.84-0.62,1.63-1.29,2.26c-0.45,0.43-0.97,0.73-1.51,0.94c-0.81,0.3-1.69,0.36-2.53,0.17   c-0.84-0.19-1.63-0.61-2.27-1.29c-0.43-0.45-0.73-0.97-0.93-1.5C133.79,133.6,133.74,132.72,133.93,131.88z"/>
	<path class="st0" d="M160.52,132.95l55.66,65.91l1.92-1.1l-55.92-66.21c0.92-1.39,0.87-3.27-0.25-4.61   c-1.37-1.63-3.8-1.85-5.43-0.48c-1.63,1.37-1.85,3.8-0.48,5.43C157.15,133.23,159,133.61,160.52,132.95z"/>
	<path class="st0" d="M176.7,86.11c1.19-0.76,1.54-2.34,0.78-3.52c-0.76-1.19-2.34-1.54-3.52-0.78c-1.19,0.76-1.54,2.34-0.78,3.52   C173.93,86.52,175.51,86.87,176.7,86.11z"/>
	<path class="st0" d="M116.03,152.57c0.67,0.63,1.43,1.09,2.24,1.39c1.22,0.45,2.53,0.53,3.78,0.25c0.91-0.2,1.79-0.6,2.56-1.19   l36.15,34.05l-7.74,0.23l-10.34-9.73c0.15-0.25,0.28-0.52,0.38-0.79c0.33-0.91,0.39-1.88,0.19-2.81c-0.21-0.92-0.69-1.81-1.44-2.51   c-0.49-0.46-1.06-0.81-1.66-1.03c-0.91-0.33-1.88-0.39-2.81-0.19c-0.93,0.21-1.81,0.69-2.51,1.43c-0.46,0.49-0.81,1.06-1.03,1.67   c-0.34,0.9-0.4,1.88-0.18,2.81c0.21,0.93,0.69,1.81,1.43,2.51c0.5,0.47,1.07,0.81,1.67,1.03c0.9,0.34,1.88,0.4,2.81,0.19   c0.59-0.13,1.15-0.37,1.67-0.73l10.99,10.35l10.82-0.32l26.47,24.93l1.98-1.13l-25.37-23.89l8.07-0.24l22.49,21.18l1.98-1.13   l-23.63-22.25l-11.14,0.33l-37.74-35.54c0.29-0.44,0.53-0.9,0.71-1.39c0.45-1.21,0.53-2.52,0.25-3.77   c-0.28-1.25-0.93-2.44-1.93-3.37c-0.67-0.63-1.43-1.09-2.24-1.39c-1.21-0.45-2.52-0.53-3.77-0.26c-1.24,0.28-2.43,0.93-3.37,1.93   c-0.62,0.66-1.09,1.43-1.39,2.24c-0.45,1.22-0.53,2.52-0.25,3.77C114.39,150.44,115.03,151.63,116.03,152.57z M141.15,175.5   c-0.08,0.53-0.32,1.03-0.72,1.45c-0.26,0.28-0.57,0.49-0.9,0.64c-0.49,0.22-1.03,0.29-1.56,0.2c-0.52-0.08-1.03-0.32-1.45-0.71   c-0.28-0.26-0.49-0.57-0.63-0.89c-0.22-0.49-0.29-1.04-0.2-1.57c0.09-0.53,0.32-1.03,0.71-1.45c0.27-0.28,0.57-0.49,0.9-0.64   c0.49-0.22,1.04-0.29,1.57-0.2c0.53,0.09,1.03,0.32,1.45,0.72c0.28,0.26,0.49,0.57,0.64,0.9   C141.17,174.43,141.24,174.98,141.15,175.5z M116.18,147.01c0.14-0.85,0.52-1.66,1.15-2.33c0.43-0.45,0.92-0.79,1.45-1.03   c0.79-0.35,1.67-0.46,2.52-0.32c0.85,0.14,1.67,0.52,2.34,1.15c0.45,0.42,0.79,0.92,1.02,1.45c0.35,0.8,0.46,1.68,0.32,2.53   c-0.14,0.85-0.52,1.66-1.16,2.34c-0.42,0.45-0.91,0.79-1.44,1.03c-0.79,0.35-1.67,0.45-2.52,0.32c-0.85-0.14-1.67-0.52-2.34-1.15   c-0.45-0.42-0.79-0.92-1.02-1.45C116.15,148.74,116.04,147.86,116.18,147.01z"/>
	<path class="st0" d="M122.37,149.43c0.93-0.99,0.89-2.55-0.1-3.49c-0.99-0.93-2.55-0.89-3.49,0.1c-0.93,0.99-0.88,2.55,0.11,3.48   C119.88,150.46,121.44,150.42,122.37,149.43z"/>
	<path class="st0" d="M79.09,180.84c1.15,0.82,2.74,0.56,3.56-0.59c0.82-1.15,0.56-2.74-0.59-3.56c-1.15-0.82-2.74-0.56-3.56,0.59   C77.69,178.42,77.95,180.02,79.09,180.84z"/>
	<path class="st0" d="M76.58,184.34c0.77,0.55,1.62,0.92,2.49,1.12c1.31,0.3,2.66,0.2,3.9-0.26c0.9-0.34,1.75-0.87,2.46-1.58   l60.14,43.06c0.35-0.67,0.73-1.32,1.15-1.95l-59.98-42.94c0.24-0.49,0.42-1,0.54-1.52c0.3-1.31,0.2-2.66-0.26-3.9   c-0.46-1.24-1.29-2.37-2.44-3.19c-0.77-0.55-1.62-0.92-2.49-1.12c-1.31-0.29-2.66-0.19-3.91,0.26c-1.24,0.46-2.36,1.29-3.18,2.44   c-0.55,0.77-0.92,1.62-1.12,2.49c-0.29,1.31-0.2,2.66,0.26,3.91C74.6,182.4,75.43,183.52,76.58,184.34z M76.83,176.08   c0.37-0.52,0.82-0.94,1.34-1.25c0.76-0.47,1.65-0.71,2.54-0.68c0.89,0.03,1.77,0.3,2.56,0.86c0.52,0.37,0.94,0.83,1.25,1.34   c0.47,0.77,0.71,1.65,0.68,2.54c-0.03,0.89-0.3,1.77-0.86,2.55c-0.38,0.52-0.83,0.94-1.34,1.25c-0.77,0.47-1.66,0.7-2.55,0.68   c-0.89-0.02-1.77-0.3-2.55-0.86c-0.52-0.37-0.94-0.83-1.25-1.34c-0.47-0.77-0.7-1.66-0.68-2.55   C75.99,177.74,76.27,176.86,76.83,176.08z"/>
	<path class="st0" d="M61.74,237.91c1.23,0.59,2.7,0.08,3.29-1.15c0.59-1.23,0.07-2.7-1.16-3.29c-1.23-0.59-2.7-0.07-3.29,1.16   C59.99,235.86,60.52,237.32,61.74,237.91z"/>
</g>

</svg>