<svg xmlns="http://www.w3.org/2000/svg" xmlns:xlink="http://www.w3.org/1999/xlink" version="1.1" id="Layer_1" x="0px" y="0px" viewBox="0 0 746.66 754.56" style="enable-background:new 0 0 746.66 754.56;" xml:space="preserve">
<style type="text/css">
	.st0{fill:#AE8C45;}
</style>
<g>
	<path class="st0" d="M105.86,233.98c-1.88-1-4.21-0.28-5.21,1.59c-1,1.88-0.28,4.21,1.59,5.21c1.55,0.82,3.4,0.48,4.56-0.71   l60.9,32.14v-2.46l-59.88-31.6C108.16,236.52,107.4,234.8,105.86,233.98z"/>
	<path class="st0" d="M441.13,43.99c0.29-1.33-0.55-2.65-1.88-2.94c-1.33-0.29-2.64,0.55-2.93,1.88c-0.29,1.33,0.54,2.65,1.87,2.94   C439.52,46.16,440.84,45.32,441.13,43.99z"/>
	<path class="st0" d="M606.86,539.49c0.53,1.16,1.41,2.18,2.57,2.9c0.78,0.48,1.62,0.78,2.48,0.9c1.27,0.19,2.58,0,3.74-0.53   c1.16-0.53,2.19-1.41,2.9-2.58c0.48-0.78,0.78-1.62,0.9-2.48c0.19-1.28,0-2.58-0.53-3.74c-0.53-1.16-1.41-2.18-2.58-2.9   c-0.78-0.47-1.62-0.77-2.48-0.9c-1.28-0.19-2.58,0-3.74,0.53c-0.85,0.39-1.62,0.95-2.26,1.69l-19.09-11.66l-2.64-10.92l-12.41-7.58   v2.55l10.51,6.41l1.92,7.94l-12.43-7.59v0.24l-2.06,1.05l15.21,9.28l5.19,21.46l39.98,24.41c-0.43,1.61,0.22,3.37,1.71,4.28   c1.82,1.11,4.19,0.53,5.3-1.28c1.11-1.82,0.53-4.19-1.29-5.3c-1.49-0.91-3.36-0.69-4.59,0.44l-39.22-23.95l-4.47-18.46l17.24,10.52   c-0.2,0.48-0.34,0.99-0.41,1.5C606.14,537.02,606.33,538.32,606.86,539.49z M609.09,534.4c0.32-0.53,0.73-0.96,1.2-1.3   c0.71-0.51,1.54-0.8,2.41-0.83c0.86-0.04,1.73,0.17,2.52,0.65c0.53,0.32,0.97,0.73,1.3,1.21c0.5,0.7,0.79,1.54,0.83,2.4   c0.04,0.86-0.16,1.74-0.65,2.53c-0.32,0.53-0.74,0.96-1.2,1.3c-0.71,0.51-1.55,0.79-2.41,0.83c-0.86,0.04-1.73-0.17-2.52-0.65   c-0.53-0.32-0.96-0.73-1.3-1.2c-0.51-0.71-0.79-1.55-0.83-2.4S608.6,535.19,609.09,534.4z"/>
	<path class="st0" d="M544.43,621.44c1.27,1.71,3.68,2.06,5.39,0.79c1.71-1.27,2.06-3.68,0.79-5.39c-1.04-1.4-2.86-1.89-4.42-1.32   l-48.52-64.86l-1.96,1l48.74,65.16C543.44,618.15,543.38,620.03,544.43,621.44z"/>
	<path class="st0" d="M424.89,101.11l-14.17,64.21h2.23l13.6-61.62l4.34,6.8l-12.1,54.81h2.23l12.19-55.23l-6-9.4l11.17-50.62   c0.53,0.03,1.05,0,1.56-0.1c1.27-0.23,2.44-0.84,3.36-1.71c0.93-0.88,1.62-2.04,1.91-3.38c0.2-0.89,0.21-1.79,0.05-2.63   c-0.23-1.27-0.84-2.44-1.71-3.37c-0.88-0.92-2.04-1.61-3.38-1.91c-0.89-0.2-1.79-0.2-2.63-0.05c-1.27,0.24-2.44,0.84-3.36,1.72   c-0.93,0.88-1.62,2.04-1.91,3.37c-0.2,0.89-0.2,1.79-0.05,2.63c0.24,1.27,0.84,2.44,1.72,3.37c0.64,0.68,1.44,1.23,2.34,1.58   l-10.71,48.5l-4.17-6.53l3.06-13.86c0.29,0,0.59-0.02,0.87-0.08c0.95-0.18,1.82-0.63,2.51-1.28c0.69-0.65,1.2-1.52,1.42-2.52   c0.15-0.66,0.15-1.33,0.04-1.96c-0.18-0.95-0.63-1.82-1.28-2.51c-0.65-0.69-1.52-1.2-2.52-1.42c-0.66-0.15-1.33-0.15-1.96-0.03   c-0.95,0.17-1.82,0.62-2.5,1.28c-0.69,0.65-1.2,1.52-1.42,2.51c-0.15,0.67-0.15,1.33-0.03,1.96c0.17,0.95,0.62,1.82,1.28,2.51   c0.41,0.44,0.91,0.8,1.48,1.06l-3.25,14.74L424.89,101.11z M436.14,47.1c-0.71-0.5-1.25-1.21-1.56-2c-0.32-0.8-0.41-1.69-0.21-2.6   c0.13-0.6,0.38-1.14,0.72-1.62c0.5-0.71,1.2-1.26,2.01-1.57c0.8-0.32,1.69-0.4,2.59-0.21c0.61,0.13,1.15,0.38,1.62,0.72   c0.7,0.5,1.25,1.2,1.56,2c0.32,0.81,0.41,1.69,0.21,2.6c-0.13,0.6-0.39,1.15-0.72,1.62c-0.5,0.71-1.21,1.25-2.01,1.57   c-0.8,0.32-1.69,0.4-2.6,0.2C437.16,47.68,436.62,47.43,436.14,47.1z M421.85,73.79c-0.2-0.49-0.25-1.05-0.13-1.61   c0.08-0.37,0.24-0.71,0.44-1c0.31-0.44,0.75-0.78,1.24-0.98c0.5-0.19,1.05-0.25,1.61-0.13c0.38,0.08,0.71,0.24,1.01,0.44   c0.44,0.31,0.78,0.75,0.98,1.24c0.19,0.5,0.25,1.05,0.12,1.61c-0.08,0.38-0.23,0.71-0.44,1.01c-0.31,0.44-0.75,0.78-1.24,0.98   c-0.49,0.2-1.05,0.25-1.61,0.12c-0.38-0.08-0.71-0.23-1.01-0.44C422.38,74.73,422.04,74.29,421.85,73.79z"/>
	<path class="st0" d="M571.83,534.59c1.71,1.26,4.13,0.89,5.39-0.82s0.89-4.13-0.82-5.39c-1.41-1.04-3.29-0.97-4.62,0.04   l-12.54-9.22l-2.17,1.11l13.42,9.87C569.92,531.73,570.42,533.55,571.83,534.59z"/>
	<path class="st0" d="M67.22,350.18c-0.02-0.29-0.07-0.58-0.15-0.86c-0.25-0.93-0.77-1.76-1.47-2.4c-0.71-0.63-1.61-1.07-2.62-1.21   c-0.67-0.09-1.33-0.05-1.95,0.12c-0.93,0.25-1.76,0.77-2.4,1.47c-0.64,0.71-1.08,1.61-1.22,2.62c-0.09,0.67-0.04,1.34,0.12,1.96   c0.25,0.93,0.76,1.76,1.47,2.39c0.71,0.64,1.61,1.08,2.62,1.22c0.68,0.09,1.34,0.04,1.96-0.13c0.93-0.25,1.76-0.76,2.4-1.47   c0.4-0.44,0.72-0.97,0.94-1.56l14.95,2.07l8.64-6.53l77.19,10.7v-2.2l-74.74-10.36l6.44-4.87l68.3,9.47v-2.2l-68.9-9.55l-8.89,6.73   l-51.35-7.12c-0.02-0.53-0.09-1.05-0.22-1.54c-0.33-1.24-1.03-2.37-1.98-3.22c-0.95-0.86-2.17-1.45-3.52-1.63   c-0.91-0.13-1.8-0.06-2.63,0.16c-1.25,0.33-2.37,1.03-3.22,1.98c-0.85,0.95-1.44,2.16-1.63,3.52c-0.12,0.9-0.06,1.8,0.16,2.63   c0.34,1.25,1.03,2.37,1.98,3.22c0.95,0.86,2.16,1.45,3.52,1.64c0.91,0.13,1.8,0.06,2.63-0.16c1.25-0.34,2.37-1.03,3.22-1.98   c0.62-0.69,1.11-1.53,1.39-2.45l49.19,6.82l-6.18,4.67L67.22,350.18z M65.04,350.98c-0.05,0.38-0.18,0.73-0.36,1.04   c-0.27,0.46-0.68,0.83-1.16,1.06c-0.48,0.23-1.03,0.34-1.6,0.26c-0.38-0.05-0.73-0.18-1.03-0.36c-0.46-0.28-0.84-0.68-1.07-1.16   c-0.23-0.48-0.34-1.03-0.26-1.6c0.05-0.38,0.18-0.73,0.36-1.04c0.28-0.46,0.68-0.84,1.16-1.07c0.48-0.23,1.02-0.33,1.59-0.25   c0.38,0.05,0.73,0.18,1.04,0.36c0.46,0.28,0.84,0.68,1.07,1.16C65.02,349.86,65.12,350.41,65.04,350.98z M36.35,339.28   c-0.08,0.61-0.29,1.17-0.58,1.67c-0.45,0.75-1.1,1.34-1.87,1.72c-0.77,0.38-1.66,0.54-2.58,0.42c-0.61-0.08-1.17-0.29-1.67-0.59   c-0.75-0.45-1.35-1.1-1.72-1.87c-0.38-0.77-0.54-1.65-0.41-2.57c0.09-0.62,0.29-1.18,0.59-1.68c0.44-0.74,1.1-1.34,1.87-1.72   c0.78-0.38,1.66-0.54,2.58-0.42c0.61,0.08,1.18,0.29,1.67,0.59c0.75,0.45,1.35,1.1,1.72,1.87   C36.32,337.48,36.48,338.36,36.35,339.28z"/>
	<path class="st0" d="M626.01,497.77c1.95,0.86,4.22-0.02,5.08-1.96s-0.02-4.22-1.96-5.08c-1.6-0.71-3.42-0.24-4.5,1.03   l-50.89-22.52v2.38l50.01,22.13C623.53,495.4,624.41,497.06,626.01,497.77z"/>
	<path class="st0" d="M244.88,558.9l-19.35,29.02c-1.59-0.5-3.38,0.08-4.35,1.54c-1.18,1.77-0.7,4.16,1.07,5.34   c1.77,1.18,4.16,0.7,5.34-1.07c0.97-1.46,0.82-3.33-0.25-4.61l19.5-29.24L244.88,558.9z"/>
	<path class="st0" d="M709.69,325.25c-0.91,0.11-1.75,0.4-2.5,0.82c-1.12,0.65-2.03,1.6-2.62,2.73c-0.43,0.83-0.69,1.76-0.73,2.73   l-49.32,5.85l4.79-6.08l14.1-1.67c0.09,0.28,0.22,0.55,0.36,0.8c0.48,0.84,1.19,1.51,2.03,1.95c0.84,0.43,1.83,0.63,2.85,0.51   c0.67-0.08,1.3-0.29,1.86-0.61c0.84-0.48,1.51-1.19,1.95-2.03c0.44-0.84,0.64-1.83,0.52-2.85c-0.08-0.67-0.3-1.3-0.62-1.87   c-0.47-0.84-1.18-1.51-2.03-1.94c-0.84-0.44-1.83-0.64-2.84-0.52c-0.68,0.08-1.31,0.3-1.87,0.62c-0.84,0.47-1.51,1.18-1.95,2.03   c-0.28,0.53-0.45,1.13-0.52,1.75l-14.99,1.78l-6.7,8.5l-77.73,9.22v2.19l75.83-9l-4.99,6.34l-70.83,8.4v2.19l71.98-8.54l6.9-8.76   l51.48-6.11c0.15,0.51,0.35,0.99,0.61,1.44c0.64,1.12,1.59,2.03,2.73,2.61c1.13,0.59,2.46,0.85,3.82,0.69   c0.91-0.11,1.76-0.39,2.5-0.82c1.13-0.64,2.03-1.59,2.62-2.73c0.58-1.13,0.85-2.46,0.69-3.82c-0.11-0.9-0.4-1.75-0.82-2.5   c-0.65-1.12-1.59-2.03-2.73-2.61C712.37,325.36,711.04,325.09,709.69,325.25z M675.41,327.21c0.14-0.52,0.44-0.97,0.85-1.32   c0.4-0.35,0.91-0.59,1.48-0.65c0.38-0.04,0.75-0.01,1.09,0.09c0.52,0.15,0.98,0.45,1.33,0.85c0.35,0.41,0.59,0.91,0.65,1.48   c0.05,0.38,0.01,0.75-0.09,1.1c-0.15,0.52-0.45,0.98-0.85,1.33c-0.41,0.35-0.91,0.58-1.48,0.65c-0.38,0.05-0.75,0.01-1.1-0.09   c-0.52-0.15-0.98-0.45-1.33-0.85c-0.35-0.4-0.58-0.91-0.65-1.48C675.28,327.92,675.31,327.56,675.41,327.21z M714.9,331.32   c0.07,0.62,0.02,1.21-0.14,1.77c-0.24,0.83-0.72,1.57-1.37,2.14c-0.66,0.56-1.46,0.95-2.39,1.05c-0.61,0.07-1.21,0.01-1.76-0.15   c-0.83-0.24-1.58-0.73-2.14-1.38c-0.56-0.65-0.94-1.47-1.05-2.39c-0.07-0.61-0.02-1.21,0.14-1.76c0.24-0.83,0.73-1.57,1.38-2.14   c0.65-0.56,1.46-0.94,2.39-1.05c0.61-0.07,1.21-0.01,1.76,0.15c0.83,0.24,1.58,0.72,2.14,1.38   C714.41,329.59,714.79,330.4,714.9,331.32z"/>
	<path class="st0" d="M357.88,30.52c0.8,0.54,1.72,0.92,2.71,1.08v77.55l8.36,8.36v47.81h2.24v-48.75l-8.35-8.36V31.6   c0.54-0.09,1.06-0.24,1.55-0.45c1.23-0.52,2.28-1.39,3.01-2.48c0.74-1.09,1.18-2.43,1.18-3.84c0-0.95-0.2-1.85-0.54-2.67   c-0.53-1.23-1.4-2.28-2.49-3.02c-1.09-0.74-2.42-1.17-3.84-1.17c-0.95,0-1.85,0.2-2.67,0.54c-1.23,0.53-2.28,1.39-3.02,2.49   c-0.74,1.09-1.17,2.42-1.17,3.84c0,0.95,0.19,1.85,0.54,2.67C355.92,28.73,356.79,29.78,357.88,30.52z M357.47,23.04   c0.35-0.83,0.94-1.54,1.68-2.03c0.74-0.5,1.62-0.79,2.58-0.79c0.64,0,1.24,0.13,1.79,0.36c0.83,0.34,1.54,0.93,2.03,1.67   c0.5,0.74,0.79,1.62,0.79,2.58c0,0.64-0.13,1.25-0.36,1.79c-0.35,0.83-0.93,1.54-1.67,2.03c-0.74,0.5-1.62,0.79-2.58,0.79   c-0.65,0-1.25-0.13-1.79-0.36c-0.83-0.35-1.54-0.94-2.03-1.68c-0.5-0.74-0.79-1.62-0.79-2.58   C357.11,24.19,357.24,23.59,357.47,23.04z"/>
	<path class="st0" d="M406.76,50.08c0.7,0.61,1.55,1.08,2.48,1.35l-13.78,113.9h2.19L411.4,51.69c0.53-0.02,1.04-0.11,1.54-0.24   c1.25-0.36,2.35-1.07,3.18-2.04c0.84-0.96,1.41-2.18,1.58-3.54c0.11-0.91,0.03-1.8-0.21-2.63c-0.36-1.25-1.07-2.36-2.04-3.19   c-0.96-0.84-2.19-1.4-3.54-1.57c-0.91-0.11-1.8-0.03-2.63,0.21c-1.24,0.36-2.35,1.07-3.18,2.03c-0.84,0.96-1.41,2.18-1.57,3.55   c-0.12,0.9-0.03,1.8,0.21,2.63C405.08,48.14,405.79,49.24,406.76,50.08z M406.67,44.53c0.07-0.62,0.27-1.18,0.56-1.68   c0.43-0.75,1.08-1.36,1.84-1.76c0.76-0.39,1.65-0.57,2.57-0.45c0.61,0.07,1.18,0.27,1.68,0.55c0.75,0.43,1.36,1.08,1.75,1.84   c0.39,0.76,0.57,1.65,0.46,2.57c-0.07,0.61-0.27,1.18-0.56,1.68c-0.43,0.75-1.07,1.37-1.84,1.76c-0.76,0.39-1.65,0.57-2.56,0.46   c-0.62-0.07-1.18-0.27-1.69-0.56c-0.75-0.43-1.36-1.07-1.75-1.84C406.74,46.33,406.56,45.45,406.67,44.53z"/>
	<path class="st0" d="M199.89,535.96l-48.34,44.65c-0.24-0.16-0.5-0.31-0.76-0.43c-0.88-0.4-1.85-0.52-2.79-0.38   c-0.94,0.15-1.85,0.56-2.6,1.25c-0.5,0.46-0.89,1.01-1.15,1.59c-0.4,0.88-0.52,1.85-0.38,2.79c0.15,0.94,0.56,1.85,1.26,2.6   c0.46,0.5,1,0.88,1.59,1.15c0.88,0.4,1.85,0.52,2.79,0.38c0.94-0.15,1.85-0.56,2.6-1.26c0.5-0.45,0.88-1,1.15-1.59   c0.4-0.88,0.52-1.85,0.38-2.79c-0.09-0.59-0.29-1.18-0.6-1.72l48.93-45.19L199.89,535.96z M151.44,585.31   c-0.13,0.52-0.39,1.01-0.81,1.4c-0.28,0.26-0.6,0.45-0.94,0.57c-0.51,0.18-1.06,0.21-1.58,0.09c-0.52-0.13-1-0.39-1.39-0.82   c-0.26-0.28-0.45-0.6-0.57-0.94c-0.19-0.5-0.22-1.05-0.09-1.58c0.12-0.52,0.39-1,0.82-1.39c0.28-0.26,0.6-0.45,0.93-0.57   c0.5-0.19,1.05-0.22,1.58-0.09c0.52,0.12,1.01,0.39,1.4,0.81c0.26,0.28,0.45,0.6,0.57,0.93   C151.53,584.24,151.56,584.79,151.44,585.31z"/>
	<path class="st0" d="M175.11,523.32l-43.16,32.93c-1.34-0.99-3.22-1.03-4.62,0.03c-1.7,1.29-2.03,3.7-0.74,5.4   c1.29,1.7,3.7,2.03,5.4,0.74c1.39-1.06,1.87-2.88,1.27-4.44l44-33.56L175.11,523.32z"/>
	<path class="st0" d="M392.49,83.07l-6.61,82.25h2.18l6.59-82.07c1.63-0.34,2.92-1.71,3.06-3.45c0.18-2.12-1.4-3.98-3.52-4.16   s-3.98,1.4-4.16,3.52C389.89,80.9,390.93,82.47,392.49,83.07z"/>
	<path class="st0" d="M167.7,481.19l-62.33,32.65c-1.15-1.2-3-1.56-4.56-0.75c-1.89,0.98-2.62,3.31-1.64,5.2   c0.98,1.89,3.31,2.62,5.2,1.64c1.55-0.81,2.32-2.52,2-4.16l61.33-32.12V481.19z"/>
	<path class="st0" d="M710.18,329.4c-1.35,0.16-2.32,1.38-2.16,2.73s1.39,2.32,2.74,2.16c1.35-0.16,2.32-1.39,2.16-2.74   S711.53,329.24,710.18,329.4z"/>
	<path class="st0" d="M361.73,27.38c1.41,0,2.55-1.14,2.55-2.55c0-1.41-1.14-2.55-2.55-2.55s-2.55,1.14-2.55,2.55   C359.17,26.24,360.32,27.38,361.73,27.38z"/>
	<path class="st0" d="M611.61,538.83c1.16,0.71,2.68,0.34,3.39-0.82c0.71-1.16,0.34-2.68-0.82-3.39c-1.16-0.71-2.68-0.34-3.39,0.82   C610.08,536.6,610.45,538.12,611.61,538.83z"/>
	<path class="st0" d="M32.27,336.22c-1.35-0.19-2.6,0.76-2.78,2.1s0.76,2.59,2.11,2.78c1.35,0.19,2.59-0.75,2.78-2.1   C34.56,337.66,33.62,336.41,32.27,336.22z"/>
	<path class="st0" d="M658.43,456.13c2.06,0.52,4.16-0.72,4.68-2.79c0.52-2.06-0.72-4.16-2.79-4.68c-1.7-0.43-3.41,0.34-4.26,1.77   l-82.33-20.66v2.24l81.79,20.53C655.59,454.2,656.73,455.69,658.43,456.13z"/>
	<path class="st0" d="M622.26,146.12c1.01-0.91,1.09-2.47,0.17-3.48c-0.91-1.01-2.47-1.08-3.48-0.17c-1.01,0.91-1.09,2.47-0.18,3.48   S621.25,147.04,622.26,146.12z"/>
	<path class="st0" d="M607,452.94c2.05,0.59,4.18-0.6,4.77-2.64c0.59-2.05-0.6-4.18-2.64-4.77c-1.68-0.48-3.42,0.23-4.32,1.64   l-31.07-8.92v2.26l30.47,8.75C604.22,450.93,605.32,452.46,607,452.94z"/>
	<path class="st0" d="M625.37,164.13c-0.61,1.14-0.86,2.43-0.74,3.7c0.08,0.93,0.37,1.85,0.85,2.69l-51.74,42.21v2.81l53.12-43.33   c0.39,0.35,0.83,0.65,1.28,0.89c1.15,0.6,2.44,0.85,3.71,0.74c1.27-0.11,2.53-0.6,3.59-1.46c0.71-0.58,1.27-1.28,1.67-2.04   c0.6-1.15,0.86-2.44,0.74-3.71c-0.11-1.27-0.6-2.53-1.47-3.59c-0.58-0.71-1.27-1.27-2.04-1.68c-1.14-0.6-2.43-0.86-3.7-0.74   c-1.27,0.11-2.53,0.6-3.59,1.47C626.33,162.66,625.77,163.37,625.37,164.13z M628.41,163.77c0.48-0.39,1.02-0.66,1.57-0.82   c0.83-0.24,1.72-0.23,2.55,0.01c0.82,0.25,1.58,0.73,2.16,1.45c0.39,0.48,0.66,1.01,0.83,1.56c0.24,0.83,0.23,1.72-0.02,2.54   c-0.25,0.82-0.73,1.58-1.45,2.17c-0.48,0.39-1.01,0.66-1.57,0.82c-0.83,0.24-1.72,0.24-2.55-0.01c-0.82-0.25-1.58-0.73-2.16-1.45   c-0.39-0.48-0.66-1.02-0.83-1.57c-0.24-0.83-0.24-1.71,0.01-2.54C627.21,165.12,627.69,164.36,628.41,163.77z"/>
	<path class="st0" d="M708.27,439.48c1.34,0.26,2.63-0.62,2.89-1.95s-0.62-2.63-1.96-2.88c-1.34-0.26-2.63,0.61-2.89,1.95   S706.93,439.23,708.27,439.48z"/>
	<path class="st0" d="M614.04,145.24c0.13,0.92,0.46,1.83,0.99,2.64l-36.82,33.33l0.38-7.73l10.53-9.53   c0.24,0.17,0.49,0.32,0.76,0.44c0.88,0.4,1.84,0.54,2.79,0.41c0.94-0.14,1.86-0.55,2.61-1.23c0.5-0.45,0.89-0.99,1.16-1.57   c0.4-0.88,0.54-1.84,0.41-2.79c-0.13-0.94-0.54-1.86-1.23-2.62c-0.45-0.5-1-0.89-1.58-1.16c-0.87-0.41-1.84-0.55-2.78-0.41   c-0.94,0.13-1.86,0.54-2.61,1.22c-0.51,0.46-0.89,1-1.16,1.58c-0.41,0.87-0.55,1.84-0.41,2.79c0.08,0.59,0.28,1.18,0.59,1.72   l-11.19,10.13l-0.54,10.81l-2.19,1.98v2.93l2.04-1.85l-0.4,8.06l-1.64,1.48v2.93l3.77-3.41l0.55-11.13l38.43-34.79   c0.42,0.33,0.86,0.6,1.33,0.82c1.17,0.54,2.47,0.73,3.73,0.55c1.27-0.18,2.5-0.73,3.51-1.65c0.68-0.61,1.2-1.34,1.56-2.12   c0.55-1.17,0.73-2.47,0.56-3.74c-0.18-1.26-0.73-2.49-1.65-3.51c-0.61-0.67-1.34-1.2-2.12-1.56c-1.18-0.54-2.47-0.73-3.74-0.55   c-1.27,0.18-2.5,0.73-3.51,1.64c-0.68,0.61-1.2,1.34-1.56,2.12C614.04,142.67,613.86,143.98,614.04,145.24z M589.27,159.25   c0.13-0.52,0.4-1,0.83-1.39c0.28-0.25,0.61-0.44,0.94-0.56c0.51-0.18,1.06-0.2,1.58-0.08c0.52,0.13,1,0.4,1.39,0.83   c0.26,0.29,0.44,0.61,0.56,0.94c0.18,0.51,0.2,1.06,0.08,1.58c-0.13,0.52-0.4,1-0.83,1.38c-0.29,0.26-0.6,0.45-0.94,0.56   c-0.51,0.18-1.06,0.2-1.58,0.08c-0.52-0.13-1-0.4-1.38-0.83c-0.26-0.29-0.45-0.6-0.56-0.94   C589.16,160.32,589.14,159.77,589.27,159.25z M616.28,143.23c0.2-0.83,0.65-1.62,1.33-2.24c0.46-0.41,0.98-0.71,1.52-0.9   c0.82-0.29,1.71-0.33,2.54-0.12c0.83,0.2,1.61,0.65,2.23,1.33c0.42,0.46,0.72,0.98,0.91,1.53c0.29,0.81,0.32,1.7,0.12,2.53   c-0.21,0.84-0.65,1.62-1.33,2.24c-0.46,0.41-0.98,0.71-1.52,0.9c-0.82,0.29-1.71,0.32-2.54,0.12c-0.83-0.2-1.61-0.65-2.24-1.34   c-0.41-0.46-0.71-0.97-0.91-1.52C616.1,144.95,616.07,144.07,616.28,143.23z"/>
	<path class="st0" d="M667.46,273.44c2-0.73,3.03-2.94,2.3-4.94c-0.73-2-2.94-3.03-4.94-2.3c-1.64,0.6-2.63,2.2-2.52,3.87   l-88.56,32.66v2.32l89.31-32.94C664.03,273.45,665.82,274.04,667.46,273.44z"/>
	<path class="st0" d="M610.44,117.89c0.97-1.02,0.93-2.64-0.08-3.61c-1.02-0.97-2.64-0.93-3.61,0.08c-0.97,1.02-0.94,2.64,0.08,3.61   C607.85,118.94,609.47,118.91,610.44,117.89z"/>
	<path class="st0" d="M628.52,253.36l2.72-7.25l12.92-5.88c0.17,0.23,0.37,0.46,0.59,0.65c0.71,0.65,1.59,1.08,2.53,1.24   c0.93,0.16,1.93,0.04,2.86-0.38c0.62-0.28,1.15-0.67,1.59-1.15c0.65-0.71,1.08-1.59,1.24-2.53c0.16-0.94,0.05-1.94-0.37-2.87   c-0.28-0.62-0.68-1.15-1.15-1.59c-0.71-0.65-1.59-1.08-2.53-1.23c-0.94-0.16-1.94-0.05-2.86,0.37c-0.62,0.28-1.16,0.68-1.59,1.15   c-0.65,0.71-1.08,1.59-1.24,2.53c-0.1,0.59-0.09,1.21,0.04,1.82l-13.74,6.25l-3.8,10.14l-51.98,23.65v2.39l50.9-23.16l-2.83,7.56   l-48.07,21.87v2.39l49.79-22.65l3.91-10.44l53.82-24.7c0.3,0.44,0.63,0.84,1.02,1.18c0.95,0.87,2.13,1.45,3.39,1.66   c1.26,0.22,2.61,0.07,3.85-0.51c0.83-0.38,1.55-0.91,2.13-1.54c0.88-0.95,1.45-2.13,1.67-3.39c0.21-1.26,0.06-2.6-0.51-3.85   c-0.38-0.83-0.91-1.55-1.54-2.13c-0.96-0.88-2.13-1.45-3.4-1.66c-1.26-0.22-2.6-0.07-3.85,0.5c-0.83,0.38-1.55,0.91-2.13,1.54   c-0.88,0.96-1.45,2.14-1.66,3.4c-0.16,0.92-0.12,1.89,0.14,2.82L628.52,253.36z M645.74,235.8c0.28-0.45,0.69-0.83,1.21-1.07   c0.35-0.16,0.71-0.23,1.06-0.25c0.54-0.01,1.07,0.13,1.53,0.41c0.46,0.28,0.83,0.69,1.07,1.21c0.16,0.35,0.23,0.71,0.25,1.07   c0.01,0.54-0.13,1.07-0.41,1.53c-0.28,0.46-0.69,0.83-1.21,1.07c-0.35,0.16-0.71,0.24-1.07,0.25c-0.54,0.01-1.07-0.13-1.53-0.41   c-0.45-0.28-0.83-0.69-1.07-1.21c-0.16-0.35-0.24-0.71-0.25-1.07C645.31,236.78,645.45,236.26,645.74,235.8z M682.97,225.51   c0.45-0.73,1.11-1.35,1.95-1.73c0.56-0.26,1.15-0.38,1.73-0.4c0.87-0.02,1.72,0.21,2.46,0.66c0.73,0.45,1.34,1.11,1.72,1.95   c0.26,0.57,0.39,1.15,0.4,1.73c0.03,0.86-0.21,1.72-0.66,2.45c-0.45,0.74-1.11,1.35-1.95,1.73c-0.56,0.26-1.15,0.38-1.73,0.4   c-0.87,0.02-1.73-0.21-2.46-0.66c-0.73-0.45-1.34-1.11-1.72-1.96c-0.26-0.56-0.39-1.14-0.4-1.72   C682.28,227.09,682.52,226.24,682.97,225.51z"/>
	<path class="st0" d="M573.73,333.98v2.23l128.11-28.43c0.19,0.49,0.45,0.95,0.74,1.37c0.75,1.05,1.79,1.86,2.98,2.32   c1.19,0.47,2.53,0.61,3.87,0.31c0.89-0.2,1.71-0.57,2.41-1.07c1.05-0.75,1.87-1.79,2.33-2.98c0.47-1.19,0.6-2.53,0.3-3.86   c-0.2-0.89-0.57-1.71-1.07-2.41c-0.75-1.05-1.79-1.86-2.97-2.33c-1.19-0.47-2.53-0.61-3.87-0.3c-0.89,0.19-1.71,0.57-2.41,1.07   c-1.06,0.75-1.86,1.79-2.33,2.97c-0.34,0.87-0.51,1.82-0.45,2.79L573.73,333.98z M703.61,304.5c0.16-0.85,0.56-1.64,1.15-2.26   c0.6-0.63,1.36-1.09,2.27-1.29c0.61-0.13,1.21-0.14,1.77-0.03c0.85,0.16,1.65,0.57,2.27,1.16c0.62,0.59,1.08,1.36,1.28,2.27   c0.13,0.6,0.14,1.2,0.04,1.77c-0.16,0.85-0.57,1.64-1.16,2.26c-0.59,0.62-1.36,1.09-2.27,1.29c-0.6,0.13-1.2,0.13-1.77,0.03   c-0.85-0.16-1.64-0.56-2.27-1.16c-0.62-0.59-1.08-1.36-1.28-2.26C703.51,305.67,703.51,305.07,703.61,304.5z"/>
	<path class="st0" d="M688.05,269.59c-0.87,0.28-1.64,0.73-2.29,1.3c-0.98,0.85-1.68,1.96-2.03,3.18c-0.26,0.9-0.33,1.86-0.18,2.82   L573.73,312.7v2.29l110.49-36.03c0.24,0.47,0.54,0.9,0.87,1.29c0.85,0.98,1.97,1.68,3.19,2.02c1.23,0.36,2.58,0.36,3.88-0.07   c0.87-0.28,1.64-0.74,2.29-1.3c0.98-0.85,1.68-1.97,2.03-3.19c0.36-1.23,0.35-2.57-0.07-3.88c-0.28-0.87-0.73-1.64-1.3-2.3   c-0.84-0.97-1.96-1.68-3.18-2.03C690.7,269.16,689.36,269.16,688.05,269.59z M694.35,274.51c0.19,0.59,0.26,1.18,0.21,1.76   c-0.07,0.87-0.41,1.69-0.93,2.36c-0.53,0.68-1.25,1.21-2.13,1.5c-0.59,0.19-1.18,0.25-1.76,0.2c-0.87-0.07-1.69-0.4-2.37-0.93   c-0.68-0.53-1.21-1.25-1.49-2.13c-0.19-0.59-0.25-1.19-0.2-1.77c0.08-0.86,0.4-1.68,0.93-2.36c0.53-0.68,1.25-1.21,2.13-1.5   c0.59-0.19,1.19-0.25,1.76-0.2c0.87,0.07,1.69,0.4,2.37,0.93C693.53,272.91,694.06,273.63,694.35,274.51z"/>
	<path class="st0" d="M687.79,230.08c1.24-0.56,1.79-2.03,1.22-3.27c-0.56-1.24-2.02-1.78-3.26-1.22c-1.24,0.56-1.79,2.02-1.23,3.26   C685.09,230.1,686.55,230.65,687.79,230.08z"/>
	<path class="st0" d="M603.1,120.25l-43.33,45.08h3.12l41.84-43.53c0.45,0.31,0.93,0.56,1.43,0.74c1.25,0.48,2.61,0.57,3.89,0.29   c1.29-0.28,2.53-0.94,3.5-1.97c0.65-0.68,1.14-1.47,1.45-2.31c0.47-1.26,0.56-2.61,0.29-3.9c-0.28-1.29-0.94-2.52-1.97-3.49   c-0.68-0.65-1.47-1.14-2.31-1.45c-1.26-0.47-2.61-0.57-3.9-0.29c-1.29,0.28-2.52,0.94-3.49,1.97c-0.65,0.68-1.14,1.47-1.45,2.31   c-0.48,1.25-0.57,2.61-0.29,3.9C602.09,118.53,602.5,119.45,603.1,120.25z M604.04,115.35c0.15-0.88,0.55-1.71,1.21-2.41   c0.44-0.46,0.95-0.81,1.5-1.05c0.82-0.36,1.74-0.46,2.62-0.31c0.88,0.15,1.71,0.55,2.41,1.21c0.46,0.44,0.81,0.95,1.05,1.5   c0.36,0.82,0.47,1.73,0.32,2.61c-0.15,0.88-0.55,1.71-1.21,2.41c-0.44,0.46-0.96,0.81-1.5,1.05c-0.82,0.36-1.73,0.47-2.61,0.32   c-0.88-0.15-1.71-0.55-2.41-1.21c-0.47-0.45-0.82-0.95-1.05-1.5C604,117.14,603.9,116.22,604.04,115.35z"/>
	<path class="st0" d="M702.24,438.44c0.27,1.26,0.9,2.42,1.8,3.32c0.9,0.91,2.09,1.56,3.43,1.82c0.9,0.17,1.79,0.16,2.63-0.02   c1.27-0.27,2.42-0.9,3.32-1.8c0.9-0.9,1.55-2.08,1.82-3.43c0.17-0.89,0.15-1.79-0.02-2.63c-0.27-1.27-0.9-2.42-1.81-3.32   c-0.9-0.91-2.08-1.56-3.42-1.82c-0.9-0.17-1.79-0.15-2.63,0.02c-1.27,0.27-2.42,0.91-3.32,1.81c-0.66,0.66-1.19,1.47-1.52,2.38   l-48.76-9.42l6.42-4.34l13.94,2.69c0.01,0.29,0.04,0.59,0.1,0.87c0.2,0.94,0.67,1.8,1.34,2.48c0.67,0.67,1.55,1.16,2.56,1.35   c0.67,0.13,1.33,0.12,1.96-0.02c0.94-0.2,1.8-0.67,2.48-1.34c0.67-0.67,1.16-1.55,1.36-2.55c0.13-0.67,0.11-1.33-0.02-1.96   c-0.2-0.94-0.67-1.8-1.35-2.47c-0.67-0.67-1.55-1.16-2.55-1.35c-0.67-0.13-1.34-0.11-1.96,0.02c-0.94,0.2-1.8,0.67-2.48,1.34   c-0.43,0.42-0.77,0.93-1.02,1.51l-14.82-2.86l-8.97,6.06l-76.99-14.87v2.22l74.45,14.38l-6.68,4.52l-67.76-13.08v2.22l68.23,13.18   l9.23-6.24l50.9,9.83C702.09,437.42,702.13,437.94,702.24,438.44z M704.36,436.22c0.12-0.61,0.35-1.15,0.67-1.64   c0.48-0.72,1.17-1.28,1.96-1.62c0.79-0.34,1.68-0.46,2.59-0.28c0.61,0.12,1.15,0.35,1.64,0.67c0.72,0.48,1.29,1.17,1.62,1.96   c0.34,0.79,0.45,1.68,0.27,2.59c-0.12,0.61-0.35,1.16-0.68,1.64c-0.48,0.72-1.17,1.28-1.96,1.62c-0.8,0.34-1.68,0.46-2.59,0.28   c-0.61-0.12-1.16-0.36-1.64-0.68c-0.72-0.48-1.29-1.17-1.62-1.96C704.29,438.02,704.18,437.13,704.36,436.22z M676.33,423.01   c0.07-0.38,0.21-0.72,0.42-1.02c0.29-0.45,0.72-0.79,1.21-1c0.49-0.21,1.04-0.28,1.61-0.17c0.37,0.07,0.72,0.22,1.01,0.42   c0.45,0.3,0.8,0.73,1.01,1.22c0.21,0.5,0.28,1.04,0.17,1.61c-0.07,0.38-0.22,0.72-0.42,1.02c-0.3,0.45-0.73,0.8-1.22,1.01   c-0.5,0.21-1.04,0.28-1.61,0.17c-0.38-0.07-0.72-0.21-1.02-0.42c-0.45-0.3-0.8-0.73-1.01-1.22   C676.29,424.13,676.22,423.58,676.33,423.01z"/>
	<path class="st0" d="M709.84,365.62c-1.08-0.69-2.37-1.07-3.74-1.03c-0.91,0.02-1.78,0.23-2.57,0.59c-1.18,0.53-2.17,1.4-2.85,2.48   c-0.5,0.79-0.84,1.69-0.97,2.65l-125.97,3.42v2.18l126.03-3.43c0.1,0.52,0.26,1.02,0.47,1.49c0.54,1.18,1.41,2.17,2.48,2.85   c1.08,0.69,2.37,1.07,3.74,1.04c0.91-0.02,1.78-0.24,2.57-0.59c1.18-0.54,2.17-1.41,2.85-2.48c0.69-1.08,1.07-2.37,1.03-3.74   c-0.02-0.91-0.23-1.78-0.59-2.57C711.78,367.29,710.91,366.3,709.84,365.62z M710.43,372.84c-0.32,0.81-0.87,1.5-1.57,2   c-0.7,0.5-1.54,0.81-2.47,0.83c-0.62,0.02-1.2-0.1-1.74-0.31c-0.81-0.32-1.51-0.86-2.01-1.57c-0.5-0.7-0.8-1.54-0.83-2.47   c-0.02-0.62,0.1-1.21,0.3-1.75c0.32-0.8,0.86-1.5,1.56-2c0.71-0.5,1.54-0.81,2.47-0.83c0.62-0.02,1.21,0.1,1.74,0.31   c0.81,0.32,1.51,0.87,2.01,1.57c0.5,0.7,0.8,1.54,0.83,2.47C710.75,371.71,710.64,372.3,710.43,372.84z"/>
	<path class="st0" d="M597.37,241.74l-17.49-3.13l41.28-28.32c0.37,0.38,0.78,0.7,1.21,0.98c1.1,0.69,2.37,1.04,3.64,1.02   c1.27-0.02,2.57-0.41,3.69-1.19c0.75-0.52,1.36-1.17,1.82-1.9c0.69-1.09,1.04-2.36,1.02-3.64c-0.02-1.27-0.41-2.57-1.19-3.69   c-0.52-0.75-1.17-1.36-1.9-1.82c-1.09-0.69-2.36-1.04-3.64-1.03c-1.27,0.02-2.57,0.41-3.69,1.19c-0.75,0.52-1.36,1.17-1.82,1.9   c-0.69,1.09-1.04,2.36-1.03,3.64c0.01,0.93,0.23,1.87,0.64,2.75l-43.07,29.57l-3.12-0.56v2.21l0.6,0.11l-0.6,0.42v2.66l3.63-2.53   l20.51,3.67l68.21-47.06c0.42,0.47,0.89,0.88,1.41,1.2c1.1,0.69,2.37,1.04,3.64,1.02c1.27-0.02,2.57-0.41,3.69-1.19   c0.75-0.52,1.36-1.17,1.82-1.9c0.69-1.09,1.04-2.36,1.02-3.63c-0.01-1.28-0.41-2.57-1.19-3.7c-0.52-0.75-1.18-1.36-1.9-1.82   c-1.1-0.69-2.37-1.04-3.64-1.02c-1.27,0.02-2.57,0.41-3.69,1.19c-0.75,0.52-1.36,1.17-1.83,1.91c-0.69,1.1-1.04,2.36-1.02,3.64   c0.01,0.83,0.18,1.68,0.52,2.48L597.37,241.74z M621.75,204.04c0.31-0.81,0.85-1.52,1.61-2.05c0.51-0.36,1.06-0.59,1.62-0.71   c0.85-0.18,1.74-0.1,2.54,0.21c0.8,0.31,1.52,0.85,2.05,1.61c0.35,0.51,0.59,1.05,0.71,1.62c0.18,0.85,0.1,1.74-0.21,2.54   c-0.31,0.8-0.85,1.52-1.61,2.05c-0.51,0.35-1.05,0.59-1.62,0.7c-0.85,0.18-1.73,0.11-2.53-0.2c-0.8-0.31-1.52-0.85-2.05-1.61   c-0.35-0.51-0.59-1.06-0.7-1.63C621.38,205.73,621.45,204.84,621.75,204.04z M666.87,190.95c0.31-0.8,0.85-1.52,1.61-2.05   c0.51-0.35,1.05-0.59,1.62-0.7c0.85-0.18,1.73-0.11,2.53,0.2c0.81,0.31,1.52,0.85,2.05,1.61c0.35,0.51,0.58,1.06,0.7,1.62   c0.18,0.85,0.11,1.73-0.21,2.54c-0.31,0.8-0.85,1.52-1.61,2.04c-0.51,0.36-1.06,0.59-1.63,0.71c-0.85,0.18-1.73,0.1-2.53-0.21   c-0.8-0.31-1.52-0.85-2.05-1.61c-0.35-0.51-0.58-1.06-0.7-1.63C666.49,192.63,666.56,191.75,666.87,190.95z"/>
	<path class="st0" d="M514.06,165.33l22.88-34.46c0.27,0.1,0.56,0.19,0.84,0.24c0.95,0.18,1.92,0.07,2.8-0.29   c0.88-0.36,1.66-0.99,2.23-1.83c0.38-0.57,0.63-1.19,0.74-1.82c0.18-0.95,0.07-1.92-0.29-2.8c-0.36-0.88-0.99-1.66-1.84-2.23   c-0.56-0.37-1.18-0.62-1.81-0.74c-0.95-0.18-1.92-0.07-2.8,0.29c-0.88,0.36-1.67,0.98-2.23,1.84c-0.38,0.56-0.62,1.18-0.74,1.81   c-0.18,0.95-0.07,1.92,0.29,2.8c0.22,0.56,0.56,1.07,0.99,1.53l-23.68,35.66H514.06z M536.39,124.72c0.21-0.32,0.48-0.58,0.78-0.78   c0.45-0.3,0.98-0.46,1.51-0.46c0.54,0,1.07,0.15,1.55,0.47c0.32,0.21,0.58,0.47,0.78,0.78c0.3,0.44,0.46,0.97,0.46,1.51   c0,0.53-0.15,1.07-0.47,1.55c-0.21,0.32-0.47,0.58-0.77,0.77c-0.44,0.3-0.97,0.46-1.51,0.46c-0.53,0-1.07-0.14-1.55-0.46   c-0.32-0.21-0.58-0.48-0.77-0.77c-0.3-0.45-0.46-0.98-0.46-1.51C535.93,125.73,536.08,125.2,536.39,124.72z"/>
	<path class="st0" d="M573.73,266.18l9.75-5.53c1.2,1.16,3.06,1.44,4.58,0.58c1.85-1.05,2.5-3.4,1.45-5.25s-3.4-2.5-5.25-1.45   c-1.52,0.86-2.23,2.61-1.85,4.23l-8.68,4.92V266.18z"/>
	<path class="st0" d="M493.01,49.04c1.31,0.52,2.79-0.11,3.32-1.42c0.52-1.31-0.11-2.79-1.42-3.32c-1.31-0.52-2.79,0.11-3.32,1.42   C491.07,47.04,491.71,48.52,493.01,49.04z"/>
	<path class="st0" d="M659.1,391.58c1.36,0.02,2.48-1.08,2.5-2.44c0.02-1.36-1.08-2.48-2.44-2.5c-1.36-0.02-2.47,1.08-2.49,2.44   C656.65,390.45,657.74,391.57,659.1,391.58z"/>
	<path class="st0" d="M496.86,83.71c-0.38,0.83-0.57,1.71-0.59,2.57c-0.03,1.29,0.31,2.56,0.98,3.64c0.49,0.79,1.15,1.5,1.96,2.03   l-33.19,73.37h2.39l32.78-72.47c0.51,0.14,1.03,0.21,1.54,0.23c1.3,0.03,2.56-0.32,3.65-0.99c1.08-0.67,1.99-1.66,2.56-2.92   c0.37-0.83,0.56-1.7,0.59-2.57c0.03-1.3-0.31-2.56-0.99-3.65c-0.67-1.09-1.66-2-2.91-2.57c-0.83-0.38-1.71-0.56-2.57-0.59   c-1.3-0.03-2.56,0.32-3.65,0.99C498.33,81.47,497.42,82.46,496.86,83.71z M502.15,82.05c0.85-0.15,1.74-0.05,2.59,0.33   c0.56,0.25,1.04,0.61,1.44,1.04c0.59,0.64,0.98,1.43,1.12,2.29c0.15,0.85,0.05,1.74-0.33,2.58c-0.26,0.57-0.61,1.05-1.04,1.44   c-0.63,0.59-1.43,0.97-2.28,1.12c-0.85,0.14-1.74,0.05-2.59-0.33c-0.56-0.25-1.05-0.61-1.44-1.04c-0.59-0.64-0.98-1.43-1.12-2.29   c-0.15-0.85-0.05-1.74,0.34-2.59c0.25-0.56,0.61-1.04,1.03-1.44C500.51,82.58,501.31,82.19,502.15,82.05z"/>
	<path class="st0" d="M453.67,91.01c0.38,0.47,0.85,0.86,1.4,1.17l-21.8,73.15h2.27l21.61-72.52c0.29,0.02,0.59,0.01,0.88-0.02   c0.96-0.1,1.86-0.49,2.6-1.09c0.73-0.6,1.3-1.43,1.59-2.4c0.2-0.66,0.25-1.32,0.18-1.95c-0.1-0.96-0.49-1.86-1.09-2.6   c-0.6-0.73-1.43-1.3-2.41-1.6c-0.65-0.19-1.31-0.25-1.95-0.18c-0.96,0.1-1.86,0.49-2.6,1.09c-0.73,0.6-1.31,1.43-1.6,2.41   c-0.2,0.65-0.25,1.31-0.18,1.95C452.68,89.37,453.07,90.27,453.67,91.01z M454.83,87.08c0.11-0.37,0.29-0.69,0.52-0.97   c0.34-0.41,0.8-0.72,1.31-0.88c0.51-0.16,1.06-0.17,1.61-0.01c0.37,0.11,0.69,0.28,0.97,0.52c0.42,0.34,0.72,0.8,0.88,1.31   c0.16,0.51,0.17,1.06,0.01,1.61c-0.11,0.36-0.28,0.69-0.51,0.96c-0.34,0.42-0.8,0.72-1.31,0.88c-0.51,0.16-1.06,0.18-1.62,0.01   c-0.36-0.11-0.69-0.29-0.96-0.51c-0.41-0.34-0.72-0.8-0.88-1.31C454.69,88.18,454.67,87.63,454.83,87.08z"/>
	<path class="st0" d="M490.4,52.54l-28.84,71.99l4.65,10.87l-11.99,29.93h2.42l12-29.96L464,124.5l28.49-71.12   c0.54,0.12,1.07,0.17,1.61,0.16c1.34-0.02,2.63-0.44,3.72-1.18c1.1-0.74,2-1.81,2.52-3.13c0.35-0.88,0.51-1.79,0.49-2.68   c-0.03-1.34-0.45-2.63-1.19-3.73c-0.74-1.09-1.81-1.99-3.12-2.51c-0.88-0.35-1.79-0.51-2.68-0.49c-1.34,0.03-2.63,0.44-3.73,1.19   c-1.1,0.74-1.99,1.81-2.51,3.12c-0.35,0.88-0.51,1.79-0.49,2.68c0.02,1.34,0.44,2.63,1.18,3.73   C488.82,51.33,489.54,52.03,490.4,52.54z M489.68,44.96c0.24-0.59,0.58-1.11,1-1.53c0.63-0.64,1.44-1.08,2.31-1.26   s1.8-0.13,2.69,0.23c0.59,0.24,1.11,0.58,1.53,1.01c0.64,0.63,1.08,1.44,1.27,2.3c0.19,0.88,0.13,1.8-0.23,2.69   c-0.24,0.59-0.59,1.11-1.01,1.53c-0.63,0.64-1.44,1.08-2.31,1.27c-0.88,0.19-1.8,0.13-2.69-0.23c-0.6-0.24-1.11-0.58-1.53-1   c-0.64-0.63-1.08-1.44-1.26-2.31C489.26,46.78,489.32,45.85,489.68,44.96z"/>
	<path class="st0" d="M159.59,242.63c-1.8-1.14-4.18-0.6-5.32,1.2c-1.14,1.8-0.6,4.18,1.2,5.32c1.48,0.94,3.35,0.74,4.6-0.36   l7.63,4.83v-2.57l-6.47-4.09C161.69,245.34,161.07,243.57,159.59,242.63z"/>
	<path class="st0" d="M672.76,300.08c0.59,0.76,1.4,1.32,2.3,1.63c0.9,0.3,1.9,0.36,2.88,0.09c0.66-0.18,1.25-0.48,1.76-0.88   c0.76-0.59,1.32-1.4,1.63-2.3c0.3-0.9,0.36-1.9,0.09-2.89c-0.18-0.65-0.48-1.25-0.87-1.75c-0.59-0.76-1.4-1.32-2.3-1.63   c-0.9-0.3-1.9-0.36-2.89-0.09c-0.66,0.17-1.25,0.48-1.75,0.87c-0.76,0.59-1.32,1.4-1.63,2.3c-0.2,0.57-0.28,1.18-0.26,1.81   l-97.98,26.49v2.25l98.55-26.64C672.42,299.6,672.58,299.86,672.76,300.08z M673.91,296.67c0.07-0.53,0.3-1.04,0.65-1.44   c0.35-0.4,0.81-0.71,1.37-0.86c0.37-0.1,0.74-0.12,1.1-0.07c0.53,0.07,1.04,0.3,1.44,0.65c0.4,0.35,0.7,0.81,0.85,1.37   c0.1,0.37,0.12,0.74,0.07,1.1c-0.07,0.53-0.3,1.03-0.65,1.44c-0.35,0.4-0.81,0.7-1.37,0.85c-0.37,0.1-0.74,0.12-1.09,0.07   c-0.53-0.07-1.03-0.3-1.44-0.65c-0.4-0.35-0.71-0.81-0.86-1.37C673.88,297.39,673.86,297.02,673.91,296.67z"/>
	<path class="st0" d="M616.49,407.49c2.12,0.2,4-1.36,4.19-3.48s-1.36-4-3.48-4.19c-1.74-0.16-3.32,0.86-3.94,2.41l-39.53-3.67v2.18   l39.33,3.65C613.38,406.03,614.75,407.33,616.49,407.49z"/>
	<path class="st0" d="M530.16,165.33h2.73l30.62-40.42c1.56,0.6,3.38,0.13,4.44-1.26c1.29-1.69,0.97-4.11-0.73-5.4   c-1.69-1.29-4.11-0.97-5.4,0.73c-1.06,1.39-1.03,3.27-0.04,4.62L530.16,165.33z"/>
	<path class="st0" d="M501.89,88.69c1.24,0.56,2.7,0.01,3.26-1.23c0.56-1.23,0.01-2.7-1.23-3.26c-1.24-0.56-2.7-0.01-3.26,1.22   C500.09,86.67,500.64,88.13,501.89,88.69z"/>
	<path class="st0" d="M580.99,125.57l-33.12,39.75h2.83l31.96-38.36c0.45,0.27,0.93,0.48,1.42,0.63c1.24,0.37,2.56,0.37,3.78,0.02   c1.23-0.35,2.37-1.07,3.25-2.12c0.59-0.7,1-1.5,1.25-2.32c0.37-1.24,0.38-2.56,0.02-3.78c-0.35-1.23-1.07-2.37-2.12-3.24   c-0.7-0.59-1.49-1-2.32-1.26c-1.23-0.37-2.55-0.38-3.77-0.02c-1.23,0.35-2.37,1.07-3.25,2.13c-0.59,0.69-1,1.49-1.25,2.32   c-0.38,1.24-0.38,2.55-0.02,3.77C579.9,123.99,580.36,124.84,580.99,125.57z M581.58,120.8c0.09-0.86,0.41-1.69,1.01-2.41   c0.4-0.48,0.87-0.84,1.38-1.11c0.77-0.4,1.65-0.56,2.5-0.47c0.85,0.09,1.69,0.42,2.4,1.01c0.47,0.39,0.84,0.86,1.11,1.38   c0.4,0.77,0.55,1.64,0.47,2.5c-0.09,0.85-0.41,1.69-1.01,2.41c-0.39,0.47-0.87,0.84-1.38,1.11c-0.77,0.4-1.64,0.56-2.5,0.47   c-0.85-0.09-1.69-0.42-2.4-1.01c-0.48-0.4-0.84-0.87-1.11-1.39C581.66,122.52,581.49,121.65,581.58,120.8z"/>
	<path class="st0" d="M511.61,106.93l-7.58,13.05l2.77,10.47l-20.26,34.88h2.52l18.53-31.91l2.07,7.8l-14,24.11h2.52l13.82-23.79   l-2.86-10.77l26.03-44.83c0.5,0.19,1,0.31,1.51,0.38c1.28,0.16,2.58-0.05,3.73-0.61c1.15-0.55,2.16-1.46,2.84-2.64   c0.46-0.79,0.74-1.64,0.85-2.49c0.17-1.28-0.05-2.58-0.61-3.73c-0.56-1.15-1.45-2.15-2.64-2.84c-0.79-0.46-1.64-0.73-2.49-0.85   c-1.29-0.16-2.58,0.05-3.73,0.62c-1.15,0.55-2.16,1.45-2.85,2.63c-0.46,0.79-0.73,1.64-0.85,2.5c-0.16,1.29,0.06,2.58,0.61,3.73   c0.41,0.84,1,1.61,1.74,2.22l-24.94,42.95l-1.99-7.49l7.13-12.28c0.28,0.09,0.57,0.16,0.85,0.19c0.96,0.12,1.92-0.04,2.78-0.45   c0.85-0.41,1.6-1.08,2.12-1.97c0.34-0.59,0.55-1.22,0.63-1.85c0.12-0.96-0.04-1.92-0.45-2.78c-0.41-0.86-1.08-1.61-1.97-2.12   c-0.59-0.34-1.22-0.54-1.86-0.63c-0.95-0.12-1.92,0.04-2.77,0.46c-0.86,0.41-1.61,1.08-2.12,1.96c-0.34,0.59-0.55,1.23-0.63,1.86   c-0.12,0.96,0.04,1.92,0.45,2.78C510.78,106.01,511.15,106.5,511.61,106.93z M533.07,80.02c-0.06-0.86,0.12-1.74,0.59-2.54   c0.31-0.53,0.71-0.97,1.18-1.32c0.69-0.52,1.52-0.83,2.39-0.89c0.86-0.06,1.73,0.13,2.53,0.59c0.54,0.31,0.98,0.71,1.33,1.18   c0.52,0.69,0.83,1.52,0.88,2.38c0.06,0.86-0.12,1.74-0.59,2.54c-0.31,0.53-0.72,0.98-1.18,1.32c-0.69,0.52-1.53,0.83-2.39,0.89   c-0.86,0.06-1.74-0.13-2.54-0.6c-0.53-0.31-0.98-0.71-1.33-1.17C533.43,81.71,533.13,80.88,533.07,80.02z M512.58,101.92   c0.19-0.33,0.44-0.6,0.73-0.82c0.43-0.32,0.95-0.51,1.48-0.55c0.54-0.03,1.08,0.08,1.57,0.37c0.33,0.19,0.6,0.44,0.82,0.73   c0.32,0.43,0.51,0.95,0.55,1.48c0.03,0.54-0.08,1.07-0.37,1.57c-0.19,0.33-0.44,0.61-0.73,0.82c-0.43,0.32-0.95,0.51-1.48,0.55   c-0.53,0.04-1.07-0.08-1.57-0.37c-0.33-0.19-0.61-0.44-0.82-0.73c-0.33-0.42-0.51-0.94-0.55-1.48   C512.17,102.96,512.29,102.41,512.58,101.92z"/>
	<path class="st0" d="M627.16,387.65l-53.43-0.64v2.18l55.57,0.67l15.42,15.79l46.84,0.56c0.45,1.6,1.91,2.79,3.66,2.81   c2.13,0.03,3.88-1.68,3.9-3.81s-1.68-3.87-3.81-3.9c-1.75-0.02-3.24,1.13-3.73,2.72l-45.95-0.55l-13.27-13.59l20.19,0.24   c0.08,0.52,0.22,1.03,0.41,1.5c0.49,1.2,1.32,2.22,2.37,2.95c1.05,0.72,2.32,1.16,3.69,1.18c0.91,0.01,1.79-0.16,2.59-0.49   c1.19-0.49,2.22-1.32,2.94-2.36c0.73-1.05,1.17-2.33,1.18-3.7c0.02-0.91-0.16-1.79-0.49-2.59c-0.49-1.2-1.32-2.22-2.36-2.95   c-1.05-0.72-2.32-1.16-3.7-1.18c-0.91-0.01-1.78,0.17-2.59,0.49c-1.2,0.49-2.22,1.32-2.94,2.37c-0.53,0.77-0.91,1.65-1.08,2.61   l-22.37-0.27l-7.85-8.04l-48.65-0.58v2.18l47.72,0.57L627.16,387.65z M655.04,387.33c0.35-0.8,0.92-1.47,1.64-1.95   c0.72-0.47,1.57-0.74,2.5-0.73c0.62,0.01,1.2,0.14,1.74,0.37c0.79,0.34,1.47,0.92,1.94,1.64c0.47,0.72,0.75,1.57,0.74,2.5   c-0.01,0.62-0.14,1.2-0.37,1.73c-0.35,0.8-0.93,1.47-1.64,1.95c-0.72,0.47-1.57,0.74-2.5,0.73c-0.62-0.01-1.2-0.14-1.73-0.37   c-0.8-0.35-1.47-0.93-1.94-1.64c-0.47-0.72-0.75-1.57-0.74-2.5C654.67,388.45,654.81,387.87,655.04,387.33z"/>
	<path class="st0" d="M536.27,81.85c1.18,0.68,2.69,0.28,3.37-0.89c0.68-1.18,0.28-2.69-0.89-3.37c-1.18-0.68-2.68-0.28-3.37,0.9   C534.7,79.66,535.1,81.17,536.27,81.85z"/>
	<path class="st0" d="M290.23,36.6c0.74,1.12,1.79,1.98,3,2.51c0.89,0.38,1.87,0.58,2.87,0.56l14.45,76.19l9.77,6.65l8.12,42.82   h2.28l-8.38-44.16l-9.76-6.65l-14.28-75.28c0.51-0.19,1-0.43,1.44-0.73c1.12-0.74,1.98-1.79,2.5-3c0.53-1.21,0.71-2.6,0.44-3.99   c-0.18-0.93-0.54-1.78-1.03-2.52c-0.75-1.11-1.8-1.98-3.01-2.5c-1.21-0.52-2.59-0.7-3.99-0.44c-0.93,0.18-1.78,0.54-2.52,1.03   c-1.11,0.75-1.98,1.79-2.5,3.01c-0.53,1.21-0.7,2.59-0.44,3.99C289.38,35,289.73,35.86,290.23,36.6z M291.43,31.83   c0.19-0.88,0.64-1.68,1.27-2.31c0.63-0.63,1.44-1.07,2.39-1.25c0.63-0.12,1.24-0.11,1.83,0.02c0.88,0.18,1.68,0.63,2.31,1.26   c0.63,0.64,1.07,1.44,1.25,2.39c0.12,0.63,0.1,1.25-0.02,1.83c-0.19,0.88-0.63,1.68-1.26,2.31c-0.64,0.63-1.44,1.07-2.39,1.25   c-0.63,0.12-1.25,0.11-1.83-0.02c-0.88-0.19-1.68-0.64-2.31-1.27c-0.63-0.63-1.07-1.44-1.25-2.39   C291.3,33.03,291.31,32.41,291.43,31.83z"/>
	<path class="st0" d="M355.72,679.03c-1.41-0.09-2.62,0.98-2.71,2.39c-0.09,1.41,0.98,2.62,2.39,2.71s2.62-0.98,2.71-2.39   C358.19,680.33,357.12,679.12,355.72,679.03z"/>
	<path class="st0" d="M428.01,718.79c1.35-0.2,2.28-1.45,2.08-2.8c-0.2-1.35-1.44-2.28-2.79-2.09c-1.35,0.2-2.28,1.45-2.09,2.8   C425.41,718.06,426.66,718.99,428.01,718.79z"/>
	<path class="st0" d="M359.75,676.14c-0.76-0.59-1.66-1.03-2.64-1.25l1.45-28.79l-7.82-8.87l1.49-23.6l-2.18-1.11l-1.6,25.5   l7.81,8.87l-1.39,27.86c-0.54,0.06-1.07,0.17-1.57,0.35c-1.26,0.44-2.36,1.24-3.16,2.29c-0.81,1.04-1.33,2.35-1.42,3.76   c-0.06,0.94,0.08,1.86,0.37,2.7c0.45,1.26,1.25,2.36,2.29,3.17c1.05,0.8,2.34,1.32,3.75,1.41c0.94,0.06,1.86-0.08,2.7-0.37   c1.26-0.45,2.36-1.24,3.17-2.29c0.81-1.04,1.32-2.34,1.41-3.75c0.06-0.94-0.07-1.86-0.37-2.7   C361.59,678.04,360.79,676.95,359.75,676.14z M359.69,683.64c-0.4,0.8-1.03,1.47-1.8,1.92c-0.77,0.45-1.67,0.68-2.62,0.62   c-0.64-0.04-1.23-0.2-1.77-0.48c-0.8-0.39-1.47-1.03-1.92-1.79c-0.45-0.77-0.68-1.67-0.62-2.62c0.04-0.64,0.21-1.24,0.48-1.77   c0.4-0.8,1.03-1.47,1.79-1.92c0.77-0.45,1.67-0.68,2.62-0.62c0.64,0.04,1.24,0.2,1.77,0.47c0.8,0.4,1.47,1.03,1.92,1.8   c0.45,0.77,0.68,1.67,0.62,2.62C360.12,682.5,359.96,683.1,359.69,683.64z"/>
	<path class="st0" d="M319.99,717.01c-0.22,1.34,0.69,2.61,2.03,2.84c1.34,0.22,2.61-0.69,2.83-2.03c0.22-1.34-0.68-2.61-2.02-2.84   S320.21,715.66,319.99,717.01z"/>
	<path class="st0" d="M306.29,704.48c-0.65-0.67-1.46-1.2-2.36-1.54l20.94-103.24l-2.01-1.03L301.8,702.5   c-0.53-0.02-1.05,0.02-1.55,0.12c-1.27,0.26-2.43,0.88-3.33,1.78c-0.91,0.89-1.58,2.07-1.85,3.41c-0.18,0.9-0.17,1.79,0,2.63   c0.26,1.27,0.88,2.43,1.78,3.34c0.89,0.91,2.07,1.57,3.41,1.85c0.9,0.18,1.79,0.18,2.64,0c1.26-0.26,2.43-0.88,3.33-1.77   c0.91-0.89,1.58-2.07,1.85-3.41c0.19-0.89,0.18-1.79,0-2.63C307.81,706.54,307.19,705.38,306.29,704.48z M305.93,710.01   c-0.12,0.61-0.37,1.16-0.69,1.63c-0.49,0.72-1.19,1.27-1.98,1.6c-0.79,0.33-1.69,0.43-2.6,0.25c-0.6-0.12-1.15-0.36-1.63-0.68   c-0.72-0.49-1.27-1.18-1.6-1.98c-0.33-0.79-0.44-1.69-0.25-2.6c0.12-0.6,0.36-1.15,0.69-1.63c0.49-0.72,1.18-1.28,1.98-1.6   c0.79-0.33,1.69-0.43,2.59-0.25c0.61,0.12,1.16,0.37,1.64,0.69c0.71,0.49,1.27,1.18,1.6,1.97   C306.01,708.22,306.12,709.1,305.93,710.01z"/>
	<path class="st0" d="M280.49,714.96c-0.6-0.75-1.37-1.39-2.27-1.84l23.04-74.05l-5.5-10.46l11.75-37.77l-2.03-1.03l-12.14,39.03   l5.49,10.46l-22.76,73.16c-0.54-0.07-1.08-0.09-1.61-0.03c-1.33,0.13-2.59,0.65-3.62,1.47c-1.03,0.82-1.85,1.97-2.27,3.32   c-0.28,0.9-0.36,1.83-0.28,2.71c0.14,1.33,0.66,2.59,1.48,3.62c0.83,1.03,1.96,1.84,3.31,2.26c0.9,0.28,1.83,0.36,2.71,0.28   c1.33-0.14,2.59-0.65,3.62-1.48c1.03-0.82,1.84-1.96,2.26-3.31c0.28-0.9,0.37-1.82,0.28-2.71   C281.84,717.25,281.32,715.99,280.49,714.96z M279.54,720.62c-0.19,0.61-0.49,1.15-0.87,1.61c-0.58,0.69-1.35,1.19-2.2,1.44   c-0.85,0.26-1.78,0.27-2.7-0.02c-0.61-0.19-1.15-0.49-1.61-0.88c-0.69-0.57-1.19-1.35-1.45-2.2c-0.25-0.86-0.27-1.78,0.02-2.7   c0.19-0.61,0.5-1.15,0.88-1.61c0.58-0.69,1.35-1.19,2.2-1.45c0.86-0.25,1.78-0.27,2.7,0.02c0.62,0.19,1.15,0.49,1.61,0.87   c0.69,0.58,1.19,1.35,1.44,2.2C279.81,718.78,279.83,719.71,279.54,720.62z"/>
	<path class="st0" d="M376.74,729.98c-1.41-0.02-2.56,1.11-2.58,2.52c-0.02,1.41,1.11,2.56,2.52,2.58c1.41,0.02,2.56-1.11,2.58-2.52   C379.28,731.15,378.15,729.99,376.74,729.98z"/>
	<path class="st0" d="M394.98,656.73l-4.71-51.19l-2.09,1.07l4.63,50.32c-1.55,0.61-2.58,2.19-2.42,3.93   c0.19,2.12,2.07,3.68,4.19,3.48c2.12-0.19,3.68-2.07,3.48-4.19C397.91,658.42,396.61,657.05,394.98,656.73z"/>
	<path class="st0" d="M391.66,709.84c-0.8-0.48-1.72-0.79-2.68-0.89l-5.87-99.75l-2.12,1.08l5.81,98.8   c-0.52,0.11-1.01,0.29-1.47,0.51c-1.16,0.58-2.12,1.48-2.77,2.57c-0.66,1.1-1,2.4-0.92,3.77c0.05,0.91,0.29,1.77,0.67,2.55   c0.58,1.16,1.48,2.13,2.57,2.77c1.1,0.66,2.4,0.99,3.77,0.91c0.91-0.05,1.78-0.29,2.55-0.67c1.15-0.57,2.12-1.47,2.77-2.57   c0.66-1.1,1-2.4,0.91-3.77c-0.05-0.91-0.29-1.78-0.67-2.55C393.66,711.45,392.76,710.49,391.66,709.84z M392.48,717.04   c-0.29,0.82-0.82,1.53-1.5,2.06c-0.68,0.52-1.52,0.85-2.45,0.9c-0.62,0.04-1.2-0.05-1.75-0.24c-0.82-0.29-1.53-0.82-2.05-1.5   c-0.52-0.68-0.86-1.52-0.91-2.44c-0.04-0.62,0.06-1.21,0.25-1.75c0.29-0.82,0.81-1.53,1.5-2.06c0.68-0.52,1.52-0.85,2.44-0.9   c0.62-0.04,1.21,0.06,1.76,0.25c0.81,0.29,1.53,0.81,2.05,1.5c0.52,0.69,0.86,1.52,0.91,2.44   C392.77,715.91,392.68,716.5,392.48,717.04z"/>
	<path class="st0" d="M380.62,726.88c-0.79-0.55-1.71-0.94-2.7-1.11l0.87-77.55l-8.26-8.45l0.27-24.27l-2.26,1.15l-0.27,24.03   l8.26,8.45l-0.86,76.61c-0.54,0.09-1.06,0.23-1.55,0.43c-1.24,0.5-2.29,1.36-3.04,2.45c-0.76,1.09-1.2,2.41-1.22,3.83   c-0.01,0.95,0.18,1.85,0.51,2.68c0.51,1.24,1.37,2.29,2.45,3.05c1.09,0.75,2.41,1.2,3.82,1.21c0.95,0.01,1.85-0.18,2.68-0.51   c1.24-0.51,2.29-1.36,3.05-2.46c0.76-1.09,1.2-2.41,1.21-3.82c0.01-0.95-0.17-1.85-0.51-2.68   C382.56,728.69,381.7,727.63,380.62,726.88z M380.95,734.37c-0.36,0.82-0.96,1.52-1.7,2.01c-0.74,0.49-1.63,0.77-2.59,0.76   c-0.64-0.01-1.24-0.14-1.79-0.38c-0.82-0.35-1.52-0.95-2.01-1.69c-0.49-0.75-0.77-1.63-0.76-2.59c0.01-0.64,0.15-1.25,0.38-1.79   c0.36-0.82,0.95-1.52,1.69-2.01c0.75-0.49,1.63-0.77,2.59-0.76c0.65,0.01,1.25,0.14,1.79,0.38c0.82,0.36,1.52,0.96,2.01,1.7   c0.49,0.74,0.77,1.63,0.76,2.59C381.32,733.22,381.18,733.82,380.95,734.37z"/>
	<path class="st0" d="M338.55,683.78c-0.43-0.42-0.95-0.75-1.53-0.98l2.47-14.89l-6.3-8.81l8.43-50.87l-2.03-1.04l-8.19,49.41   l-4.7-6.56l7.55-45.56l-2.03-1.04l-7.81,47.13l6.49,9.06l-8.48,51.14c-0.53,0-1.05,0.06-1.55,0.18c-1.25,0.3-2.39,0.96-3.27,1.89   c-0.88,0.93-1.51,2.13-1.72,3.48c-0.15,0.9-0.11,1.79,0.09,2.63c0.3,1.26,0.96,2.39,1.89,3.27c0.93,0.87,2.12,1.5,3.48,1.72   c0.9,0.15,1.8,0.11,2.63-0.09c1.26-0.31,2.39-0.96,3.27-1.9c0.88-0.93,1.51-2.12,1.73-3.47c0.15-0.9,0.11-1.8-0.09-2.63   c-0.31-1.26-0.97-2.39-1.9-3.28c-0.68-0.64-1.5-1.15-2.42-1.46l8.12-49l4.51,6.3l-2.32,14.01c-0.29,0.01-0.59,0.05-0.87,0.12   c-0.94,0.23-1.78,0.72-2.44,1.41c-0.65,0.69-1.11,1.58-1.28,2.59c-0.11,0.67-0.08,1.33,0.07,1.96c0.23,0.94,0.72,1.78,1.41,2.44   c0.69,0.66,1.58,1.12,2.59,1.29c0.67,0.11,1.33,0.08,1.96-0.07c0.94-0.22,1.78-0.71,2.43-1.41c0.66-0.69,1.12-1.58,1.29-2.58   c0.11-0.68,0.08-1.34-0.07-1.96C339.74,685.28,339.24,684.43,338.55,683.78z M324.81,713.64c0.73,0.47,1.31,1.14,1.67,1.92   c0.36,0.78,0.5,1.67,0.35,2.59c-0.1,0.61-0.32,1.16-0.63,1.65c-0.47,0.73-1.13,1.32-1.92,1.67c-0.78,0.36-1.67,0.49-2.58,0.34   c-0.62-0.1-1.17-0.32-1.66-0.63c-0.73-0.46-1.31-1.13-1.67-1.91c-0.36-0.79-0.5-1.67-0.35-2.59c0.1-0.61,0.32-1.17,0.63-1.65   c0.47-0.73,1.14-1.32,1.92-1.67c0.78-0.36,1.67-0.49,2.58-0.34C323.76,713.11,324.32,713.33,324.81,713.64z M337.89,687.82   c-0.06,0.37-0.2,0.72-0.39,1.02c-0.29,0.45-0.71,0.82-1.19,1.04c-0.49,0.22-1.03,0.31-1.6,0.22c-0.38-0.06-0.72-0.2-1.03-0.39   c-0.45-0.29-0.82-0.71-1.04-1.19c-0.22-0.49-0.3-1.03-0.21-1.6c0.06-0.38,0.2-0.72,0.39-1.03c0.29-0.45,0.71-0.82,1.19-1.04   c0.48-0.22,1.03-0.3,1.6-0.21c0.38,0.06,0.72,0.2,1.03,0.39c0.45,0.28,0.81,0.7,1.03,1.19   C337.89,686.7,337.98,687.25,337.89,687.82z"/>
	<path class="st0" d="M164.5,657.6l48.05-60.87l-1.38-11.74l24.36-30.86l-2.04-1.04l-24.66,31.24l1.38,11.73l-47.47,60.14   c-0.48-0.26-0.98-0.47-1.49-0.61c-1.29-0.36-2.65-0.32-3.9,0.08c-1.26,0.4-2.43,1.17-3.31,2.29c-0.59,0.74-0.99,1.57-1.23,2.43   c-0.35,1.29-0.32,2.65,0.08,3.91c0.4,1.26,1.17,2.42,2.28,3.3c0.74,0.59,1.57,0.99,2.43,1.23c1.29,0.35,2.65,0.32,3.91-0.08   c1.26-0.4,2.42-1.17,3.3-2.28c0.59-0.74,1-1.57,1.23-2.43c0.36-1.29,0.32-2.65-0.08-3.91C165.67,659.21,165.18,658.34,164.5,657.6z    M164.02,662.57c-0.07,0.89-0.39,1.76-0.98,2.51c-0.4,0.5-0.87,0.9-1.39,1.19c-0.79,0.43-1.69,0.62-2.58,0.56   c-0.89-0.07-1.76-0.39-2.51-0.98c-0.5-0.4-0.9-0.87-1.18-1.4c-0.44-0.78-0.63-1.68-0.56-2.57c0.07-0.89,0.39-1.76,0.98-2.51   c0.4-0.5,0.88-0.9,1.4-1.18c0.79-0.43,1.68-0.63,2.57-0.56c0.89,0.07,1.76,0.39,2.51,0.98c0.51,0.4,0.9,0.87,1.19,1.39   C163.9,660.78,164.09,661.68,164.02,662.57z"/>
	<path class="st0" d="M133.71,624.61c-0.96,0.97-0.95,2.53,0.01,3.49c0.97,0.96,2.52,0.95,3.48-0.02c0.96-0.97,0.96-2.52-0.01-3.48   C136.23,623.64,134.67,623.65,133.71,624.61z"/>
	<path class="st0" d="M223.13,627.36c-1.2-0.65-2.7-0.2-3.34,0.99c-0.65,1.2-0.2,2.7,1,3.34s2.7,0.2,3.34-1   C224.78,629.5,224.33,628,223.13,627.36z"/>
	<path class="st0" d="M140.84,622.47l35-35.24l0.03,7.74l-10.01,10.07c-0.24-0.16-0.51-0.3-0.78-0.4c-0.9-0.36-1.87-0.44-2.8-0.26   c-0.93,0.19-1.82,0.64-2.54,1.37c-0.48,0.48-0.84,1.04-1.08,1.63c-0.36,0.9-0.44,1.87-0.26,2.8c0.18,0.93,0.64,1.83,1.36,2.55   c0.48,0.48,1.04,0.84,1.64,1.08c0.89,0.36,1.87,0.45,2.8,0.26c0.93-0.18,1.83-0.64,2.54-1.36c0.48-0.49,0.84-1.05,1.08-1.64   c0.36-0.89,0.45-1.87,0.26-2.8c-0.11-0.59-0.34-1.16-0.68-1.69l10.64-10.71L178,585.05l39.72-39.99l-2.04-1.04l-37.69,37.96   l-0.03-8.07l32.38-32.61l-2.04-1.04l-32.53,32.75l0.04,11.15l-36.53,36.78c-0.43-0.31-0.89-0.56-1.37-0.75   c-1.19-0.48-2.51-0.6-3.76-0.35c-1.25,0.24-2.46,0.86-3.42,1.84c-0.64,0.65-1.13,1.4-1.45,2.2c-0.48,1.2-0.6,2.51-0.36,3.76   c0.25,1.25,0.86,2.45,1.84,3.42c0.64,0.64,1.4,1.13,2.2,1.45c1.2,0.48,2.51,0.6,3.76,0.35c1.25-0.24,2.46-0.86,3.42-1.83   c0.64-0.65,1.13-1.4,1.45-2.2c0.48-1.2,0.6-2.51,0.35-3.77C141.78,624.14,141.41,623.25,140.84,622.47z M165.95,609.75   c-0.1,0.52-0.35,1.02-0.75,1.43c-0.27,0.27-0.58,0.47-0.91,0.61c-0.5,0.2-1.05,0.26-1.57,0.16c-0.53-0.1-1.02-0.35-1.43-0.75   c-0.27-0.27-0.47-0.58-0.61-0.91c-0.2-0.5-0.26-1.05-0.16-1.57c0.1-0.53,0.35-1.02,0.76-1.43c0.27-0.27,0.58-0.48,0.91-0.61   c0.5-0.2,1.05-0.26,1.57-0.16c0.52,0.1,1.02,0.35,1.43,0.76c0.27,0.27,0.48,0.58,0.61,0.91C166,608.68,166.05,609.23,165.95,609.75   z M139.83,627.18c-0.16,0.84-0.56,1.65-1.21,2.31c-0.43,0.44-0.94,0.76-1.47,0.98c-0.8,0.33-1.69,0.42-2.53,0.25   c-0.84-0.16-1.65-0.56-2.3-1.21c-0.44-0.44-0.77-0.94-0.99-1.48c-0.33-0.79-0.41-1.68-0.25-2.52c0.16-0.85,0.56-1.65,1.21-2.31   c0.43-0.44,0.94-0.77,1.47-0.98c0.8-0.33,1.69-0.41,2.53-0.25c0.84,0.16,1.65,0.56,2.3,1.22c0.44,0.43,0.77,0.93,0.99,1.47   C139.91,625.46,139.99,626.34,139.83,627.18z"/>
	<path class="st0" d="M215.49,610.92l18.2-5.45l-9.59,17.78c-0.49-0.17-1.01-0.28-1.52-0.33c-1.29-0.12-2.58,0.14-3.71,0.73   c-1.13,0.59-2.11,1.52-2.76,2.73c-0.43,0.81-0.69,1.66-0.77,2.53c-0.12,1.28,0.14,2.58,0.73,3.7c0.59,1.13,1.52,2.12,2.73,2.76   c0.8,0.44,1.66,0.69,2.52,0.77c1.29,0.12,2.58-0.14,3.71-0.72c1.13-0.59,2.11-1.52,2.76-2.73c0.43-0.8,0.68-1.66,0.77-2.52   c0.12-1.29-0.14-2.58-0.73-3.71c-0.43-0.83-1.04-1.57-1.81-2.16l10.62-19.69l10.77-3.22l17.42-32.3l-1.94-0.99l-16.97,31.46   l-7.82,2.34l19.65-36.43l-1.94-0.99l-20.66,38.3L214,609.1l-22.24,41.23c-1.63-0.35-3.36,0.4-4.19,1.94   c-1.01,1.87-0.31,4.21,1.56,5.22c1.87,1.01,4.21,0.31,5.22-1.57c0.83-1.54,0.51-3.39-0.68-4.56L215.49,610.92z M226.4,629.09   c0.09,0.85-0.08,1.74-0.51,2.55c-0.3,0.55-0.68,1-1.14,1.37c-0.67,0.54-1.49,0.87-2.35,0.96c-0.86,0.08-1.74-0.07-2.56-0.51   c-0.54-0.29-1-0.69-1.36-1.13c-0.54-0.68-0.88-1.5-0.96-2.36s0.08-1.74,0.52-2.56c0.29-0.54,0.68-1,1.13-1.36   c0.68-0.54,1.5-0.87,2.36-0.96s1.74,0.07,2.56,0.51c0.54,0.29,0.99,0.68,1.36,1.13C225.98,627.41,226.32,628.23,226.4,629.09z"/>
	<path class="st0" d="M267.07,656.53l26.6-72.75l-1.95-1l-26.68,73c-1.66-0.11-3.27,0.87-3.87,2.51c-0.74,2,0.29,4.21,2.28,4.95   c2,0.74,4.21-0.29,4.95-2.28C268.99,659.31,268.4,657.52,267.07,656.53z"/>
	<path class="st0" d="M249.83,634.15l29.52-57.67l-1.94-0.99l-28.53,55.73l-2.48-7.68l25.92-50.65l-1.94-0.99l-26.33,51.45   l3.42,10.61l-23.62,46.15c-0.5-0.16-1.02-0.26-1.53-0.3c-1.28-0.09-2.57,0.19-3.69,0.81c-1.12,0.61-2.08,1.57-2.7,2.79   c-0.42,0.81-0.65,1.68-0.71,2.54c-0.1,1.29,0.19,2.57,0.8,3.69c0.62,1.12,1.57,2.07,2.79,2.7c0.81,0.41,1.68,0.65,2.54,0.71   c1.29,0.09,2.57-0.19,3.69-0.81c1.12-0.61,2.08-1.56,2.7-2.78c0.42-0.81,0.65-1.68,0.71-2.54c0.09-1.29-0.2-2.58-0.81-3.7   c-0.45-0.82-1.08-1.55-1.86-2.12l22.63-44.21l2.38,7.37l-6.47,12.64c-0.28-0.08-0.57-0.13-0.86-0.14c-0.96-0.07-1.92,0.15-2.75,0.6   c-0.83,0.46-1.54,1.17-2.01,2.08c-0.31,0.6-0.48,1.24-0.53,1.88c-0.07,0.96,0.15,1.92,0.6,2.75c0.46,0.83,1.16,1.55,2.08,2.01   c0.6,0.31,1.25,0.48,1.89,0.53c0.96,0.07,1.91-0.14,2.75-0.6c0.83-0.46,1.55-1.16,2.01-2.07c0.31-0.61,0.48-1.25,0.53-1.89   c0.07-0.96-0.14-1.91-0.6-2.75c-0.29-0.53-0.68-1-1.16-1.4l6.88-13.44L249.83,634.15z M226.28,685.9c0.1,0.85-0.03,1.74-0.45,2.57   c-0.28,0.55-0.66,1.01-1.1,1.38c-0.67,0.56-1.48,0.91-2.34,1.01c-0.85,0.1-1.74-0.04-2.56-0.46c-0.56-0.28-1.02-0.66-1.39-1.11   c-0.55-0.66-0.9-1.48-1.01-2.33c-0.1-0.86,0.03-1.74,0.45-2.57c0.28-0.55,0.66-1.02,1.1-1.38c0.67-0.56,1.48-0.91,2.34-1.01   c0.85-0.1,1.74,0.04,2.57,0.46c0.55,0.28,1.01,0.66,1.39,1.1C225.83,684.23,226.17,685.04,226.28,685.9z M245.58,662.95   c-0.17,0.34-0.41,0.63-0.68,0.85c-0.41,0.34-0.92,0.56-1.45,0.63c-0.53,0.06-1.08-0.02-1.59-0.28c-0.34-0.18-0.63-0.41-0.86-0.68   c-0.34-0.41-0.56-0.92-0.63-1.45c-0.06-0.53,0.03-1.08,0.29-1.59c0.18-0.34,0.41-0.63,0.68-0.86c0.41-0.34,0.92-0.56,1.45-0.63   c0.53-0.06,1.08,0.03,1.59,0.29c0.34,0.18,0.63,0.41,0.86,0.68c0.35,0.41,0.56,0.91,0.62,1.45   C245.92,661.88,245.84,662.43,245.58,662.95z"/>
	<path class="st0" d="M222.98,684.24c-1.21-0.62-2.7-0.14-3.32,1.07c-0.62,1.21-0.14,2.7,1.07,3.32c1.21,0.62,2.69,0.14,3.31-1.07   C224.66,686.34,224.19,684.86,222.98,684.24z"/>
	<path class="st0" d="M275.89,716.81c-1.35-0.42-2.78,0.33-3.2,1.68c-0.42,1.35,0.33,2.78,1.68,3.19c1.35,0.42,2.78-0.33,3.2-1.68   C277.99,718.66,277.24,717.23,275.89,716.81z"/>
	<path class="st0" d="M161,660.22c-1.11-0.87-2.71-0.68-3.58,0.42c-0.87,1.11-0.68,2.71,0.42,3.58s2.71,0.68,3.58-0.42   C162.29,662.69,162.11,661.09,161,660.22z"/>
	<path class="st0" d="M686.69,492.86c-0.85-0.33-1.74-0.46-2.6-0.42c-1.29,0.05-2.53,0.48-3.57,1.22c-0.76,0.54-1.42,1.25-1.9,2.09   l-104.88-39.52v2.32l104.11,39.23c-0.11,0.52-0.15,1.04-0.13,1.55c0.05,1.3,0.49,2.54,1.22,3.58c0.74,1.05,1.79,1.89,3.07,2.37   c0.86,0.32,1.74,0.45,2.6,0.42c1.3-0.05,2.54-0.48,3.58-1.22c1.05-0.74,1.88-1.79,2.37-3.07c0.32-0.86,0.46-1.74,0.42-2.61   c-0.05-1.29-0.48-2.53-1.22-3.57C689.03,494.18,687.98,493.34,686.69,492.86z M688.52,500.64c-0.22,0.58-0.54,1.08-0.94,1.5   c-0.6,0.63-1.37,1.06-2.21,1.26c-0.84,0.2-1.74,0.16-2.6-0.16c-0.58-0.22-1.08-0.54-1.5-0.94c-0.63-0.6-1.07-1.37-1.27-2.21   c-0.2-0.84-0.16-1.73,0.17-2.6c0.22-0.58,0.55-1.08,0.94-1.51c0.6-0.62,1.36-1.06,2.2-1.26c0.84-0.2,1.74-0.16,2.6,0.16   c0.58,0.22,1.08,0.55,1.5,0.94c0.63,0.6,1.07,1.37,1.27,2.21C688.89,498.88,688.85,499.77,688.52,500.64z"/>
	<path class="st0" d="M678.28,530.95c-0.8-0.44-1.66-0.69-2.52-0.78c-1.29-0.13-2.58,0.13-3.72,0.71c-0.83,0.43-1.58,1.04-2.17,1.8   l-43.59-23.79l7.43-2.18l12.46,6.8c-0.08,0.28-0.14,0.57-0.17,0.86c-0.09,0.96,0.09,1.92,0.53,2.77c0.44,0.84,1.13,1.57,2.02,2.06   c0.59,0.32,1.23,0.52,1.87,0.58c0.96,0.09,1.92-0.09,2.77-0.53c0.85-0.43,1.58-1.12,2.07-2.02c0.32-0.59,0.51-1.23,0.58-1.88   c0.1-0.96-0.09-1.92-0.53-2.76c-0.43-0.85-1.12-1.58-2.02-2.07c-0.6-0.33-1.24-0.51-1.88-0.58c-0.96-0.1-1.92,0.09-2.77,0.53   c-0.53,0.27-1.02,0.65-1.43,1.13l-13.25-7.23l-10.39,3.05l-49.85-27.21v2.48l46.89,25.59l-7.74,2.28l-39.15-21.37v2.48l38.9,21.23   l10.69-3.14l45.5,24.84c-0.17,0.5-0.29,1.01-0.34,1.52c-0.13,1.28,0.12,2.58,0.71,3.71c0.58,1.14,1.51,2.12,2.72,2.77   c0.8,0.44,1.66,0.7,2.52,0.78c1.29,0.13,2.58-0.12,3.71-0.71c1.13-0.59,2.11-1.51,2.77-2.72c0.44-0.8,0.69-1.66,0.78-2.52   c0.13-1.29-0.12-2.58-0.72-3.71C680.41,532.59,679.48,531.61,678.28,530.95z M648.5,513.54c0.19-0.34,0.42-0.62,0.71-0.84   c0.42-0.34,0.93-0.54,1.46-0.58c0.53-0.05,1.08,0.05,1.58,0.32c0.33,0.18,0.62,0.43,0.84,0.7c0.33,0.42,0.54,0.94,0.59,1.46   c0.05,0.54-0.05,1.08-0.32,1.58c-0.19,0.34-0.43,0.62-0.71,0.84c-0.42,0.33-0.94,0.54-1.46,0.59c-0.54,0.05-1.07-0.05-1.58-0.33   c-0.34-0.19-0.62-0.42-0.84-0.71c-0.33-0.42-0.54-0.94-0.59-1.46C648.12,514.59,648.22,514.04,648.5,513.54z M679.02,538.91   c-0.3,0.55-0.68,1-1.14,1.36c-0.67,0.54-1.5,0.87-2.35,0.95c-0.86,0.08-1.74-0.08-2.56-0.52c-0.54-0.3-1-0.69-1.35-1.14   c-0.54-0.68-0.87-1.51-0.95-2.36c-0.08-0.86,0.08-1.74,0.53-2.55c0.3-0.54,0.68-0.99,1.13-1.36c0.68-0.54,1.51-0.86,2.36-0.94   c0.86-0.08,1.74,0.08,2.56,0.52c0.54,0.3,0.99,0.69,1.35,1.14c0.54,0.68,0.87,1.5,0.95,2.36   C679.62,537.22,679.46,538.1,679.02,538.91z"/>
	<path class="st0" d="M676.28,534.62c-1.2-0.65-2.69-0.22-3.34,0.98s-0.21,2.69,0.98,3.35c1.2,0.65,2.69,0.21,3.35-0.98   C677.92,536.76,677.48,535.27,676.28,534.62z"/>
	<path class="st0" d="M642.62,601.8c-0.92,1.06-0.81,2.68,0.25,3.6c1.06,0.92,2.68,0.81,3.6-0.25c0.92-1.06,0.81-2.68-0.25-3.6   C645.16,600.62,643.54,600.73,642.62,601.8z"/>
	<path class="st0" d="M649.05,598.29c-0.71-0.62-1.52-1.07-2.37-1.34c-1.27-0.42-2.63-0.45-3.91-0.11c-0.93,0.25-1.82,0.7-2.59,1.34   l-58.55-50.85l-11.79,0.83l-24.92-21.64l-2.15,1.1l26.31,22.85l11.79-0.83l57.85,50.24c-0.29,0.47-0.51,0.96-0.68,1.46   c-0.42,1.27-0.45,2.63-0.1,3.9c0.34,1.28,1.06,2.48,2.13,3.41c0.71,0.62,1.53,1.07,2.37,1.34c1.28,0.41,2.64,0.44,3.91,0.1   c1.27-0.34,2.47-1.06,3.4-2.13c0.62-0.71,1.07-1.53,1.34-2.37c0.41-1.28,0.45-2.63,0.1-3.91   C650.84,600.41,650.12,599.22,649.05,598.29z M649.13,604.03c-0.11,0.88-0.47,1.74-1.1,2.46c-0.42,0.48-0.91,0.85-1.45,1.12   c-0.8,0.4-1.71,0.55-2.59,0.44c-0.89-0.11-1.74-0.47-2.46-1.1c-0.48-0.42-0.85-0.92-1.12-1.45c-0.39-0.81-0.55-1.71-0.44-2.59   c0.11-0.89,0.47-1.74,1.1-2.46c0.42-0.49,0.91-0.86,1.45-1.12c0.81-0.39,1.72-0.54,2.6-0.44c0.88,0.11,1.74,0.47,2.46,1.1   c0.48,0.42,0.85,0.91,1.12,1.45C649.09,602.24,649.23,603.15,649.13,604.03z"/>
	<path class="st0" d="M724.05,350.05c-1.41,0.07-2.5,1.26-2.43,2.67s1.26,2.5,2.67,2.43c1.41-0.07,2.5-1.26,2.43-2.67   C726.66,351.07,725.46,349.98,724.05,350.05z"/>
	<path class="st0" d="M709.38,483.3c-1.33-0.46-2.79,0.24-3.25,1.57c-0.46,1.33,0.24,2.79,1.57,3.25c1.33,0.46,2.79-0.24,3.25-1.57   C711.42,485.22,710.72,483.76,709.38,483.3z"/>
	<path class="st0" d="M617.55,616.97c-0.63-0.66-1.37-1.16-2.16-1.51c-1.19-0.51-2.5-0.66-3.76-0.45c-0.92,0.16-1.82,0.51-2.62,1.06   l-34.3-35.92l7.74,0.18l9.81,10.27c-0.16,0.24-0.31,0.5-0.42,0.77c-0.38,0.89-0.49,1.86-0.34,2.8c0.16,0.93,0.6,1.84,1.3,2.58   c0.47,0.49,1.02,0.87,1.6,1.12c0.89,0.38,1.86,0.49,2.8,0.34c0.94-0.16,1.84-0.59,2.58-1.3c0.49-0.47,0.86-1.02,1.12-1.61   c0.38-0.88,0.5-1.85,0.33-2.79c-0.16-0.94-0.59-1.84-1.29-2.58c-0.47-0.5-1.03-0.87-1.61-1.12c-0.88-0.38-1.85-0.5-2.8-0.34   c-0.59,0.1-1.17,0.31-1.71,0.64l-10.42-10.92l-10.82-0.25l-42.07-44.05l-2.02,1.03l41.01,42.95l-8.07-0.19l-38.25-40.05l-2.02,1.03   l39.32,41.17l11.14,0.26l35.8,37.49c-0.32,0.42-0.58,0.87-0.78,1.35c-0.51,1.18-0.67,2.49-0.45,3.75c0.21,1.26,0.8,2.48,1.75,3.47   c0.63,0.66,1.37,1.17,2.16,1.51c1.19,0.52,2.49,0.67,3.75,0.46c1.26-0.22,2.47-0.8,3.47-1.75c0.66-0.63,1.16-1.37,1.51-2.16   c0.51-1.19,0.67-2.49,0.45-3.75C619.08,619.17,618.49,617.96,617.55,616.97z M593.67,592.73c0.11-0.52,0.38-1.01,0.79-1.41   c0.28-0.27,0.59-0.46,0.93-0.59c0.5-0.19,1.05-0.23,1.57-0.11c0.52,0.11,1.01,0.37,1.41,0.79c0.26,0.27,0.46,0.6,0.58,0.92   c0.19,0.5,0.23,1.06,0.12,1.58c-0.12,0.52-0.37,1.01-0.79,1.41c-0.28,0.27-0.6,0.46-0.93,0.59c-0.5,0.19-1.06,0.23-1.58,0.12   c-0.52-0.12-1.01-0.38-1.41-0.79c-0.27-0.28-0.46-0.59-0.59-0.93C593.6,593.8,593.56,593.25,593.67,592.73z M617.1,622.51   c-0.18,0.84-0.61,1.63-1.27,2.27c-0.45,0.43-0.96,0.74-1.5,0.95c-0.8,0.31-1.69,0.37-2.53,0.19c-0.84-0.19-1.64-0.6-2.28-1.27   c-0.43-0.45-0.74-0.96-0.94-1.5c-0.31-0.81-0.37-1.7-0.19-2.54c0.18-0.84,0.61-1.63,1.28-2.27c0.45-0.43,0.95-0.74,1.49-0.95   c0.81-0.31,1.7-0.36,2.54-0.18c0.84,0.18,1.64,0.6,2.28,1.27c0.43,0.45,0.74,0.96,0.94,1.5   C617.23,620.78,617.29,621.66,617.1,622.51z"/>
	<path class="st0" d="M730.37,349.63c-0.58-1.21-1.49-2.21-2.63-2.9c-1.13-0.69-2.47-1.06-3.89-0.99c-0.95,0.04-1.84,0.28-2.64,0.66   c-1.21,0.58-2.21,1.49-2.9,2.62c-0.5,0.82-0.84,1.77-0.95,2.76l-77.47,3.63l-7.96,8.74l-58.2,2.73v2.25l59.24-2.78l7.96-8.73   l76.53-3.59c0.12,0.53,0.29,1.05,0.52,1.53c0.58,1.21,1.49,2.21,2.62,2.9c1.13,0.69,2.48,1.06,3.89,1   c0.95-0.04,1.84-0.28,2.64-0.66c1.21-0.58,2.21-1.5,2.9-2.63c0.68-1.13,1.06-2.47,0.99-3.89   C730.99,351.33,730.75,350.44,730.37,349.63z M728.5,354.19c-0.3,0.84-0.86,1.58-1.57,2.11c-0.72,0.53-1.58,0.86-2.54,0.91   c-0.64,0.03-1.25-0.07-1.81-0.28c-0.84-0.31-1.58-0.86-2.11-1.57c-0.53-0.72-0.86-1.58-0.91-2.54c-0.03-0.64,0.07-1.25,0.27-1.81   c0.31-0.84,0.87-1.58,1.58-2.11c0.71-0.53,1.58-0.86,2.54-0.91c0.64-0.03,1.25,0.07,1.81,0.27c0.84,0.31,1.58,0.87,2.11,1.58   c0.53,0.71,0.86,1.58,0.91,2.54C728.81,353.02,728.71,353.63,728.5,354.19z"/>
	<path class="st0" d="M714.04,481.59c-0.79-1.06-1.9-1.9-3.24-2.36c-0.89-0.31-1.81-0.43-2.7-0.37c-1.34,0.09-2.61,0.56-3.67,1.35   c-0.77,0.58-1.43,1.33-1.91,2.21l-73.26-25.43l-10.64,5.15l-44.89-15.58v2.37l45.03,15.63l10.63-5.15l72.38,25.13   c-0.09,0.54-0.12,1.08-0.08,1.61c0.09,1.34,0.56,2.61,1.36,3.66c0.79,1.06,1.91,1.91,3.24,2.37c0.89,0.31,1.81,0.42,2.7,0.37   c1.34-0.09,2.61-0.57,3.67-1.36c1.05-0.79,1.9-1.9,2.36-3.24c0.31-0.89,0.42-1.81,0.37-2.7   C715.31,483.92,714.83,482.65,714.04,481.59z M712.91,487.23c-0.21,0.6-0.53,1.13-0.93,1.58c-0.6,0.67-1.38,1.14-2.24,1.37   c-0.87,0.23-1.79,0.21-2.69-0.1c-0.6-0.21-1.14-0.54-1.58-0.93c-0.67-0.6-1.14-1.38-1.37-2.24c-0.23-0.87-0.21-1.79,0.1-2.69   c0.21-0.61,0.53-1.14,0.93-1.58c0.6-0.67,1.39-1.14,2.25-1.37c0.86-0.23,1.79-0.21,2.7,0.1c0.6,0.21,1.13,0.53,1.58,0.93   c0.67,0.6,1.14,1.39,1.37,2.25C713.24,485.39,713.22,486.32,712.91,487.23z"/>
	<path class="st0" d="M496.97,706.85c-0.88-1.01-2.04-1.72-3.31-2.08c-0.93-0.26-1.93-0.33-2.92-0.17l-24.47-73.59l-10.57-5.29   l-15.24-45.83l-2.02,1.03l15.43,46.39l10.56,5.3l24.17,72.7c-0.48,0.26-0.93,0.56-1.33,0.91c-1.01,0.88-1.72,2.04-2.08,3.31   c-0.36,1.27-0.35,2.67,0.09,4.02c0.3,0.9,0.77,1.69,1.36,2.36c0.89,1.01,2.04,1.72,3.32,2.08c1.27,0.35,2.66,0.35,4.01-0.1   c0.9-0.3,1.69-0.77,2.36-1.35c1.01-0.89,1.72-2.04,2.08-3.32c0.36-1.27,0.35-2.66-0.1-4.01   C498.03,708.32,497.57,707.52,496.97,706.85z M495.47,714.2c-0.54,0.7-1.29,1.26-2.2,1.56c-0.61,0.2-1.22,0.27-1.82,0.22   c-0.89-0.06-1.75-0.4-2.46-0.94c-0.71-0.55-1.26-1.29-1.56-2.2c-0.2-0.61-0.27-1.23-0.22-1.82c0.07-0.9,0.4-1.75,0.94-2.46   c0.55-0.71,1.29-1.26,2.2-1.56c0.61-0.2,1.22-0.27,1.82-0.23c0.9,0.07,1.75,0.41,2.46,0.95c0.7,0.54,1.26,1.29,1.56,2.2   c0.2,0.61,0.27,1.22,0.23,1.82C496.35,712.64,496.01,713.5,495.47,714.2z"/>
	<path class="st0" d="M434.88,681.3c-0.5-0.82-1.22-1.48-2.08-1.89c-0.54-0.26-1.14-0.42-1.76-0.47L428.86,664l-8.68-6.48   l-9.12-62.61l-2.05,1.05l8.7,59.72l-6.47-4.82l-7.6-52.16l-2.05,1.05l7.62,52.32l8.94,6.66l7.47,51.3   c-0.5,0.16-0.98,0.38-1.42,0.65c-1.1,0.67-1.99,1.65-2.54,2.79c-0.56,1.15-0.79,2.48-0.58,3.84c0.13,0.91,0.44,1.74,0.89,2.48   c0.67,1.11,1.65,1.99,2.8,2.54c1.15,0.55,2.48,0.78,3.84,0.58c0.9-0.13,1.74-0.45,2.48-0.89c1.11-0.67,1.99-1.65,2.54-2.8   c0.56-1.15,0.79-2.48,0.59-3.83c-0.13-0.91-0.45-1.74-0.89-2.48c-0.67-1.11-1.65-1.99-2.8-2.54c-0.84-0.41-1.78-0.64-2.75-0.65   l-7.16-49.15l6.21,4.63l2.05,14.05c-0.27,0.1-0.54,0.23-0.79,0.38c-0.82,0.5-1.48,1.23-1.9,2.08c-0.41,0.85-0.58,1.84-0.43,2.86   c0.1,0.67,0.33,1.29,0.66,1.84c0.5,0.82,1.23,1.48,2.08,1.89c0.86,0.42,1.85,0.59,2.86,0.44c0.67-0.1,1.29-0.33,1.85-0.67   c0.82-0.5,1.48-1.22,1.89-2.08c0.42-0.86,0.59-1.85,0.44-2.85C435.44,682.47,435.21,681.85,434.88,681.3z M428.78,712.03   c0.84,0.22,1.59,0.69,2.17,1.32c0.58,0.63,0.98,1.44,1.12,2.36c0.09,0.61,0.05,1.21-0.1,1.77c-0.22,0.84-0.68,1.6-1.32,2.18   c-0.63,0.58-1.44,0.98-2.35,1.11c-0.62,0.09-1.21,0.05-1.77-0.1c-0.83-0.21-1.59-0.68-2.17-1.31c-0.58-0.64-0.98-1.44-1.12-2.36   c-0.09-0.61-0.05-1.21,0.1-1.77c0.22-0.84,0.68-1.6,1.32-2.18c0.63-0.58,1.44-0.98,2.36-1.11   C427.62,711.85,428.21,711.89,428.78,712.03z M433.33,684.56c-0.14,0.52-0.42,0.99-0.82,1.35c-0.4,0.36-0.89,0.61-1.46,0.69   c-0.38,0.06-0.75,0.03-1.1-0.06c-0.52-0.14-0.99-0.42-1.35-0.82c-0.36-0.4-0.6-0.89-0.69-1.46c-0.06-0.38-0.03-0.75,0.06-1.1   c0.14-0.52,0.42-0.99,0.82-1.35c0.39-0.36,0.89-0.6,1.46-0.69c0.38-0.06,0.75-0.03,1.1,0.06c0.52,0.13,0.99,0.42,1.35,0.82   c0.36,0.39,0.61,0.89,0.69,1.46C433.44,683.84,433.42,684.21,433.33,684.56z"/>
	<path class="st0" d="M506.19,682.98c-0.93-0.9-2.1-1.49-3.36-1.73c-0.92-0.17-1.88-0.16-2.82,0.08l-46.52-108.09l-1.94,0.99   l46.47,107.96c-0.45,0.28-0.85,0.62-1.21,0.98c-0.89,0.94-1.49,2.11-1.73,3.36c-0.24,1.26-0.12,2.6,0.42,3.86   c0.36,0.84,0.88,1.57,1.5,2.17c0.94,0.89,2.11,1.5,3.36,1.73c1.26,0.24,2.6,0.12,3.85-0.43c0.84-0.36,1.57-0.88,2.17-1.5   c0.89-0.93,1.49-2.1,1.73-3.36c0.24-1.26,0.12-2.6-0.43-3.86C507.33,684.31,506.81,683.57,506.19,682.98z M505.34,690.18   c-0.46,0.72-1.14,1.32-1.99,1.68c-0.57,0.24-1.15,0.36-1.73,0.37c-0.87,0-1.72-0.25-2.44-0.71c-0.72-0.46-1.32-1.14-1.69-1.99   c-0.24-0.57-0.36-1.15-0.36-1.73c0-0.87,0.24-1.72,0.71-2.45c0.46-0.72,1.14-1.32,1.98-1.68c0.57-0.25,1.16-0.36,1.74-0.36   c0.86,0,1.71,0.24,2.44,0.71c0.73,0.47,1.32,1.14,1.69,1.99c0.25,0.57,0.36,1.16,0.36,1.73   C506.06,688.6,505.81,689.46,505.34,690.18z"/>
	<path class="st0" d="M491.01,708.96c-1.34,0.44-2.06,1.89-1.62,3.23c0.44,1.34,1.89,2.06,3.23,1.62c1.34-0.44,2.06-1.89,1.62-3.23   C493.79,709.24,492.35,708.52,491.01,708.96z"/>
	<path class="st0" d="M611.05,619.77c-0.99,0.94-1.02,2.5-0.08,3.49c0.94,0.99,2.5,1.02,3.49,0.08s1.02-2.5,0.08-3.48   C613.59,618.86,612.03,618.82,611.05,619.77z"/>
	<path class="st0" d="M449.46,663.33l-21.78-76.91l-1.97,1.01l21.66,76.49c-1.41,0.88-2.14,2.62-1.67,4.31   c0.57,2.05,2.7,3.24,4.75,2.67c2.05-0.57,3.24-2.7,2.67-4.75C452.65,664.46,451.13,663.35,449.46,663.33z"/>
	<path class="st0" d="M556.58,656.32c-1.07-0.72-2.33-1.11-3.6-1.13c-0.93-0.01-1.88,0.17-2.77,0.56l-64.63-98.92l-1.95,1   l64.75,99.11c-0.39,0.35-0.73,0.75-1.02,1.18c-0.72,1.08-1.11,2.33-1.12,3.61c-0.02,1.28,0.33,2.58,1.07,3.73   c0.5,0.77,1.14,1.39,1.85,1.88c1.08,0.72,2.34,1.11,3.61,1.13c1.28,0.02,2.58-0.33,3.72-1.08c0.77-0.5,1.4-1.13,1.88-1.85   c0.72-1.07,1.11-2.33,1.13-3.6c0.02-1.28-0.33-2.58-1.08-3.73C557.94,657.43,557.3,656.79,556.58,656.32z M556.99,663.55   c-0.33,0.79-0.9,1.49-1.67,2c-0.52,0.34-1.07,0.55-1.64,0.66c-0.85,0.15-1.73,0.05-2.53-0.28c-0.79-0.33-1.5-0.89-2.01-1.67   c-0.34-0.52-0.55-1.07-0.65-1.65c-0.15-0.85-0.06-1.74,0.28-2.53c0.33-0.79,0.9-1.49,1.67-2c0.52-0.34,1.08-0.55,1.65-0.66   c0.85-0.15,1.73-0.05,2.52,0.28c0.8,0.34,1.5,0.89,2.01,1.67c0.34,0.52,0.55,1.08,0.65,1.65   C557.42,661.88,557.32,662.76,556.99,663.55z"/>
	<path class="st0" d="M594.06,630.41c-0.59-0.69-1.31-1.23-2.08-1.61c-1.16-0.57-2.46-0.79-3.72-0.64   c-0.93,0.11-1.84,0.42-2.67,0.93l-73.98-85.55l-1.99,1.02l74.33,85.96c-0.34,0.4-0.62,0.84-0.85,1.3   c-0.57,1.16-0.78,2.46-0.63,3.73c0.15,1.27,0.67,2.51,1.56,3.55c0.6,0.69,1.31,1.23,2.08,1.61c1.16,0.57,2.47,0.79,3.73,0.64   c1.27-0.15,2.51-0.67,3.54-1.57c0.69-0.6,1.23-1.31,1.62-2.09c0.57-1.16,0.79-2.46,0.64-3.72   C595.48,632.69,594.96,631.44,594.06,630.41z M593.35,635.92c-0.22,0.83-0.69,1.6-1.39,2.21c-0.47,0.4-0.99,0.69-1.54,0.87   c-0.83,0.27-1.71,0.28-2.54,0.06c-0.83-0.22-1.6-0.68-2.21-1.39c-0.4-0.47-0.69-0.99-0.87-1.54c-0.27-0.83-0.29-1.71-0.06-2.55   c0.22-0.83,0.69-1.6,1.38-2.2c0.47-0.41,1-0.69,1.55-0.87c0.82-0.26,1.71-0.28,2.54-0.06c0.83,0.23,1.6,0.68,2.21,1.39   c0.41,0.47,0.69,1,0.87,1.54C593.55,634.2,593.57,635.09,593.35,635.92z"/>
	<path class="st0" d="M531.94,678.36c-0.98-0.85-2.18-1.39-3.44-1.57c-0.92-0.13-1.89-0.07-2.82,0.21l-21.76-44.65l7.32,2.52   l6.22,12.76c-0.23,0.18-0.45,0.38-0.63,0.6c-0.63,0.73-1.03,1.62-1.17,2.56c-0.13,0.94,0.01,1.93,0.46,2.85   c0.3,0.61,0.7,1.13,1.19,1.55c0.73,0.63,1.62,1.04,2.56,1.17c0.94,0.14,1.94,0,2.86-0.45c0.61-0.3,1.13-0.71,1.56-1.2   c0.63-0.72,1.04-1.61,1.17-2.56c0.14-0.94,0-1.94-0.45-2.85c-0.3-0.62-0.71-1.14-1.2-1.56c-0.72-0.63-1.61-1.04-2.56-1.17   c-0.59-0.09-1.21-0.06-1.82,0.09l-6.61-13.57l-10.23-3.53l-31.77-65.2l-1.94,0.99l30.8,63.21l-7.63-2.63l-28.26-57.98l-1.94,0.99   l28.63,58.75l10.54,3.63l22.71,46.6c-0.43,0.31-0.82,0.66-1.16,1.05c-0.85,0.97-1.39,2.17-1.57,3.43c-0.18,1.27,0,2.61,0.61,3.83   c0.4,0.82,0.95,1.53,1.6,2.09c0.97,0.85,2.17,1.39,3.44,1.57c1.26,0.18,2.6-0.01,3.83-0.61c0.82-0.4,1.53-0.95,2.09-1.6   c0.85-0.98,1.39-2.17,1.57-3.44c0.18-1.27,0-2.6-0.6-3.83C533.14,679.63,532.59,678.93,531.94,678.36z M518.17,650.1   c0.27-0.46,0.67-0.84,1.18-1.1c0.35-0.17,0.7-0.26,1.06-0.28c0.53-0.03,1.07,0.1,1.53,0.37c0.46,0.27,0.85,0.66,1.1,1.18   c0.17,0.34,0.25,0.71,0.27,1.06c0.03,0.54-0.1,1.08-0.37,1.54c-0.27,0.46-0.66,0.85-1.18,1.1c-0.35,0.17-0.71,0.25-1.06,0.28   c-0.54,0.03-1.08-0.1-1.54-0.37c-0.46-0.27-0.85-0.67-1.1-1.18c-0.17-0.35-0.26-0.7-0.28-1.06   C517.77,651.1,517.9,650.57,518.17,650.1z M531.44,685.59c-0.43,0.74-1.07,1.37-1.9,1.77c-0.56,0.27-1.14,0.42-1.72,0.45   c-0.86,0.05-1.72-0.16-2.47-0.59c-0.75-0.44-1.37-1.07-1.78-1.91c-0.27-0.55-0.41-1.14-0.44-1.71c-0.05-0.87,0.17-1.73,0.6-2.48   c0.43-0.74,1.07-1.37,1.91-1.77c0.55-0.27,1.13-0.42,1.71-0.45c0.87-0.05,1.73,0.17,2.47,0.6c0.74,0.43,1.37,1.07,1.78,1.91   c0.27,0.55,0.41,1.13,0.44,1.71C532.08,683.99,531.87,684.85,531.44,685.59z"/>
	<path class="st0" d="M526.5,681.14c-1.22,0.6-1.73,2.07-1.14,3.3c0.6,1.22,2.07,1.73,3.3,1.14c1.22-0.6,1.73-2.07,1.13-3.3   C529.19,681.06,527.72,680.54,526.5,681.14z"/>
	<path class="st0" d="M100.01,492.06c-1.23,0.59-1.75,2.06-1.17,3.29c0.59,1.23,2.06,1.75,3.29,1.17c1.22-0.58,1.75-2.06,1.16-3.29   C102.71,492,101.24,491.47,100.01,492.06z"/>
	<path class="st0" d="M285.16,76.63l24.67,88.69h2.26l-24.83-89.27c1.42-0.88,2.15-2.61,1.68-4.3c-0.57-2.05-2.69-3.25-4.74-2.69   c-2.05,0.57-3.25,2.69-2.69,4.74C281.98,75.49,283.5,76.6,285.16,76.63z"/>
	<path class="st0" d="M296.42,35.3c1.38-0.26,2.29-1.6,2.03-2.98c-0.26-1.38-1.6-2.29-2.98-2.03c-1.38,0.26-2.29,1.6-2.03,2.98   C293.7,34.66,295.04,35.57,296.42,35.3z"/>
	<path class="st0" d="M325.89,48.42c0.64,1.13,1.59,2.03,2.72,2.62c0.83,0.43,1.76,0.69,2.73,0.73l13.24,113.55h2.19L333.5,51.52   c0.51-0.14,0.99-0.35,1.44-0.6c1.13-0.64,2.03-1.59,2.62-2.73c0.59-1.13,0.86-2.45,0.7-3.81c-0.11-0.91-0.4-1.76-0.82-2.5   c-0.64-1.13-1.6-2.04-2.73-2.62c-1.13-0.59-2.45-0.85-3.81-0.7c-0.91,0.11-1.76,0.39-2.51,0.82c-1.12,0.64-2.03,1.59-2.62,2.72   c-0.59,1.13-0.86,2.45-0.69,3.82C325.17,46.82,325.46,47.67,325.89,48.42z M327.38,43.9c0.24-0.83,0.73-1.58,1.38-2.14   c0.65-0.56,1.47-0.94,2.39-1.04c0.61-0.07,1.21-0.02,1.76,0.14c0.83,0.24,1.57,0.73,2.13,1.38c0.56,0.65,0.94,1.47,1.05,2.39   c0.07,0.61,0.01,1.21-0.15,1.76c-0.24,0.83-0.72,1.58-1.38,2.14c-0.65,0.56-1.47,0.94-2.38,1.04c-0.62,0.07-1.21,0.01-1.77-0.15   c-0.83-0.24-1.57-0.72-2.13-1.38c-0.56-0.66-0.94-1.47-1.05-2.39C327.16,45.05,327.22,44.45,327.38,43.9z"/>
	<path class="st0" d="M247.64,62.72c1.28-0.47,1.93-1.89,1.46-3.17c-0.47-1.28-1.89-1.93-3.17-1.46c-1.28,0.47-1.93,1.89-1.45,3.17   C244.95,62.54,246.36,63.19,247.64,62.72z"/>
	<path class="st0" d="M317.65,93.1c0.69,1.09,1.69,1.95,2.85,2.48c0.85,0.39,1.79,0.6,2.76,0.6l11.56,69.16h2.21l-11.62-69.52   c0.5-0.17,0.97-0.4,1.41-0.67c1.09-0.7,1.95-1.69,2.48-2.85c0.53-1.16,0.74-2.49,0.51-3.84c-0.15-0.9-0.48-1.73-0.94-2.46   c-0.7-1.09-1.7-1.96-2.86-2.48c-1.16-0.53-2.49-0.73-3.84-0.5c-0.9,0.15-1.73,0.48-2.47,0.94c-1.09,0.69-1.95,1.69-2.48,2.85   c-0.53,1.16-0.74,2.49-0.5,3.85C316.85,91.53,317.19,92.37,317.65,93.1z M318.91,88.51c0.2-0.84,0.65-1.61,1.27-2.21   c0.62-0.59,1.42-1.01,2.33-1.16c0.61-0.1,1.2-0.08,1.77,0.05c0.84,0.2,1.61,0.65,2.2,1.27c0.59,0.62,1.01,1.42,1.17,2.33   c0.1,0.61,0.07,1.2-0.06,1.77c-0.2,0.84-0.64,1.61-1.27,2.21c-0.62,0.59-1.42,1.01-2.33,1.16c-0.61,0.1-1.21,0.07-1.78-0.06   c-0.84-0.2-1.61-0.64-2.2-1.27c-0.59-0.63-1.01-1.42-1.17-2.33C318.75,89.66,318.78,89.07,318.91,88.51z"/>
	<path class="st0" d="M216.52,111.23l30.83,54.09h2.5l-31.44-55.16c1.16-1.19,1.45-3.05,0.59-4.58c-1.05-1.85-3.4-2.51-5.25-1.46   c-1.85,1.05-2.51,3.4-1.46,5.25C213.15,110.9,214.9,111.61,216.52,111.23z"/>
	<path class="st0" d="M174.12,87.72c1.19-0.76,1.54-2.34,0.78-3.52c-0.76-1.19-2.34-1.54-3.52-0.78s-1.54,2.34-0.78,3.52   C171.36,88.13,172.93,88.48,174.12,87.72z"/>
	<path class="st0" d="M354.56,135.18l1.83,30.15h2.18l-1.84-30.28c1.57-0.57,2.64-2.11,2.54-3.86c-0.13-2.12-1.96-3.74-4.08-3.61   c-2.12,0.13-3.74,1.96-3.61,4.08C351.68,133.4,352.93,134.81,354.56,135.18z"/>
	<path class="st0" d="M168.86,91.23c1.1,0.76,2.4,1.17,3.72,1.21c0.96,0.02,1.95-0.15,2.87-0.55l41.75,65.35l11.54,2.54l3.54,5.54   h2.66l-4.81-7.53l-11.54-2.55l-41.25-64.57c0.41-0.37,0.76-0.77,1.06-1.21c0.76-1.1,1.17-2.4,1.2-3.71   c0.04-1.32-0.31-2.68-1.08-3.87c-0.51-0.8-1.16-1.45-1.89-1.96c-1.11-0.76-2.4-1.17-3.72-1.21c-1.32-0.03-2.67,0.32-3.86,1.08   c-0.8,0.51-1.45,1.16-1.96,1.89c-0.76,1.11-1.17,2.4-1.21,3.72c-0.04,1.32,0.32,2.67,1.08,3.86   C167.47,90.07,168.12,90.73,168.86,91.23z M168.51,83.74c0.35-0.82,0.94-1.53,1.75-2.05c0.54-0.34,1.11-0.56,1.71-0.66   c0.88-0.16,1.8-0.04,2.61,0.31c0.82,0.36,1.53,0.94,2.05,1.75c0.34,0.54,0.56,1.12,0.66,1.71c0.15,0.89,0.04,1.8-0.31,2.61   c-0.36,0.82-0.94,1.53-1.75,2.05c-0.54,0.35-1.12,0.57-1.71,0.66c-0.89,0.15-1.8,0.03-2.62-0.32c-0.82-0.35-1.53-0.94-2.05-1.75   c-0.34-0.54-0.56-1.11-0.66-1.7C168.04,85.47,168.16,84.55,168.51,83.74z"/>
	<path class="st0" d="M241.95,64.95c0.89,0.94,2.03,1.6,3.27,1.91c0.91,0.22,1.87,0.26,2.82,0.07l17.2,46.59l-7.03-3.24l-4.92-13.32   c0.25-0.16,0.48-0.34,0.69-0.54c0.7-0.66,1.19-1.51,1.42-2.43c0.22-0.92,0.18-1.93-0.17-2.89c-0.23-0.64-0.59-1.2-1.03-1.67   c-0.66-0.7-1.51-1.19-2.43-1.42c-0.92-0.23-1.93-0.19-2.89,0.16c-0.64,0.23-1.2,0.59-1.67,1.04c-0.7,0.66-1.19,1.5-1.41,2.43   c-0.23,0.92-0.19,1.93,0.16,2.88c0.24,0.64,0.6,1.2,1.04,1.67c0.66,0.7,1.5,1.19,2.43,1.42c0.58,0.15,1.2,0.18,1.82,0.09   l5.23,14.16l9.83,4.53l18.07,48.92h2.32l-17.59-47.64l7.33,3.38l16.34,44.26h2.32l-16.93-45.86l-10.12-4.66l-17.96-48.63   c0.46-0.26,0.88-0.57,1.25-0.93c0.94-0.88,1.6-2.02,1.9-3.26c0.31-1.24,0.26-2.59-0.22-3.88c-0.32-0.86-0.79-1.61-1.38-2.24   c-0.88-0.95-2.02-1.6-3.26-1.91c-1.24-0.3-2.59-0.25-3.88,0.22c-0.85,0.31-1.61,0.8-2.24,1.38c-0.94,0.89-1.6,2.02-1.9,3.27   c-0.31,1.24-0.26,2.59,0.22,3.87C240.88,63.56,241.36,64.32,241.95,64.95z M251.55,95.41c-0.36,0.13-0.73,0.19-1.09,0.17   c-0.53-0.02-1.05-0.2-1.49-0.52c-0.43-0.31-0.78-0.74-0.98-1.29c-0.13-0.36-0.18-0.73-0.17-1.08c0.03-0.54,0.21-1.06,0.52-1.49   c0.32-0.43,0.74-0.78,1.29-0.98c0.36-0.13,0.73-0.18,1.09-0.17c0.54,0.03,1.06,0.21,1.49,0.52c0.43,0.32,0.77,0.75,0.97,1.29   c0.13,0.36,0.19,0.73,0.17,1.09c-0.03,0.54-0.21,1.06-0.52,1.49C252.53,94.87,252.09,95.21,251.55,95.41z M243.17,57.8   c0.5-0.7,1.21-1.25,2.07-1.57c0.58-0.22,1.17-0.3,1.76-0.27c0.86,0.04,1.7,0.33,2.4,0.83c0.7,0.51,1.26,1.2,1.58,2.07   c0.21,0.58,0.3,1.18,0.27,1.75c-0.04,0.87-0.34,1.71-0.84,2.4c-0.5,0.7-1.21,1.25-2.08,1.58c-0.58,0.21-1.17,0.3-1.75,0.28   c-0.87-0.04-1.7-0.34-2.4-0.84c-0.7-0.5-1.26-1.2-1.58-2.07c-0.21-0.58-0.29-1.17-0.27-1.75C242.37,59.34,242.66,58.5,243.17,57.8z   "/>
	<path class="st0" d="M215.11,80.45c0.97,0.85,2.17,1.39,3.43,1.57c0.92,0.13,1.89,0.07,2.81-0.21l40.76,83.52h2.42l-41.23-84.47   c0.43-0.3,0.82-0.66,1.16-1.04c0.85-0.98,1.39-2.18,1.56-3.44c0.18-1.27,0-2.6-0.6-3.83c-0.4-0.82-0.96-1.52-1.6-2.09   c-0.98-0.85-2.18-1.39-3.44-1.57c-1.27-0.18-2.6,0.01-3.83,0.61c-0.82,0.4-1.53,0.95-2.1,1.6c-0.85,0.97-1.39,2.17-1.57,3.43   c-0.18,1.27,0,2.6,0.61,3.83C213.9,79.18,214.45,79.89,215.11,80.45z M215.6,73.22c0.43-0.74,1.07-1.37,1.91-1.78   c0.55-0.27,1.13-0.42,1.71-0.45c0.87-0.05,1.73,0.17,2.47,0.6c0.74,0.43,1.37,1.07,1.78,1.91c0.27,0.55,0.41,1.13,0.44,1.71   c0.05,0.87-0.16,1.73-0.59,2.48c-0.43,0.74-1.07,1.37-1.9,1.77c-0.56,0.27-1.14,0.41-1.72,0.45c-0.86,0.04-1.72-0.16-2.47-0.59   c-0.75-0.43-1.37-1.07-1.78-1.91c-0.27-0.56-0.41-1.14-0.44-1.71C214.96,74.83,215.17,73.97,215.6,73.22z"/>
	<path class="st0" d="M189.46,140.03c0.18-0.23,0.36-0.47,0.5-0.72c0.48-0.84,0.69-1.79,0.64-2.74c-0.06-0.95-0.39-1.89-1.01-2.7   c-0.42-0.54-0.92-0.98-1.48-1.29c-0.84-0.48-1.79-0.69-2.74-0.64c-0.95,0.06-1.89,0.39-2.71,1.01c-0.54,0.41-0.97,0.92-1.29,1.47   c-0.48,0.84-0.69,1.79-0.64,2.74c0.06,0.95,0.39,1.9,1.01,2.71c0.41,0.54,0.92,0.97,1.47,1.29c0.84,0.48,1.79,0.69,2.74,0.64   c0.6-0.03,1.2-0.18,1.77-0.44l18.35,23.97h2.74L189.46,140.03z M188.28,137.75c-0.17,0.5-0.48,0.97-0.94,1.32   c-0.3,0.23-0.64,0.39-0.98,0.48c-0.52,0.13-1.07,0.11-1.58-0.05c-0.51-0.17-0.97-0.48-1.32-0.94c-0.23-0.31-0.39-0.64-0.48-0.99   c-0.13-0.52-0.11-1.07,0.05-1.58c0.17-0.51,0.49-0.96,0.94-1.31c0.31-0.23,0.64-0.39,0.99-0.48c0.52-0.14,1.07-0.12,1.58,0.05   c0.5,0.17,0.96,0.49,1.31,0.94c0.23,0.3,0.39,0.64,0.48,0.98C188.48,136.69,188.46,137.24,188.28,137.75z"/>
	<path class="st0" d="M103.92,276.04c-1.99-0.76-4.21,0.24-4.97,2.23c-0.76,1.99,0.24,4.21,2.23,4.97c1.64,0.62,3.43,0.05,4.44-1.27   l62.09,23.59v-2.33l-61.31-23.29C106.52,278.28,105.55,276.66,103.92,276.04z"/>
	<path class="st0" d="M130.68,189.98c-0.39-1.26-1.16-2.43-2.27-3.32c-0.74-0.59-1.57-1-2.42-1.25c-1.29-0.36-2.65-0.33-3.91,0.06   c-1.26,0.39-2.42,1.16-3.31,2.26c-0.59,0.74-1,1.57-1.25,2.42c-0.36,1.29-0.34,2.65,0.06,3.91c0.39,1.26,1.16,2.42,2.26,3.31   c0.74,0.59,1.56,1.01,2.42,1.25c1.29,0.37,2.65,0.34,3.91-0.05c0.92-0.29,1.79-0.77,2.54-1.44l22.73,17.72l11.75-1.31l4.51,3.6   v-2.87l-3.83-3.06l-11.74,1.3l-22.01-17.14c0.27-0.48,0.47-0.98,0.62-1.49C131.11,192.6,131.08,191.24,130.68,189.98z    M128.73,192.4c-0.08,0.89-0.4,1.76-1,2.51c-0.4,0.5-0.88,0.9-1.4,1.18c-0.79,0.43-1.69,0.61-2.58,0.54c-0.89-0.07-1.76-0.4-2.51-1   c-0.5-0.4-0.89-0.87-1.18-1.4c-0.43-0.79-0.61-1.69-0.54-2.58c0.07-0.89,0.4-1.76,1-2.51c0.4-0.5,0.87-0.89,1.41-1.17   c0.78-0.43,1.69-0.62,2.57-0.55c0.89,0.08,1.76,0.4,2.51,1c0.5,0.4,0.89,0.88,1.17,1.41C128.62,190.62,128.81,191.51,128.73,192.4z   "/>
	<path class="st0" d="M82.65,293.24c-0.11-0.96-0.51-1.85-1.12-2.59c-0.61-0.73-1.44-1.29-2.42-1.57c-0.66-0.19-1.32-0.24-1.96-0.16   c-0.96,0.11-1.85,0.51-2.59,1.12c-0.73,0.61-1.29,1.44-1.57,2.43c-0.19,0.65-0.24,1.31-0.16,1.95c0.11,0.96,0.51,1.85,1.12,2.59   c0.61,0.73,1.44,1.3,2.42,1.57c0.65,0.19,1.31,0.24,1.95,0.16c0.96-0.11,1.85-0.51,2.59-1.12c0.46-0.38,0.85-0.86,1.16-1.41   l85.62,24.63v-2.26l-85.02-24.46C82.69,293.82,82.69,293.53,82.65,293.24z M80.41,294.6c-0.1,0.36-0.28,0.69-0.5,0.97   c-0.34,0.42-0.8,0.73-1.3,0.9c-0.51,0.16-1.06,0.19-1.62,0.03c-0.37-0.11-0.69-0.28-0.98-0.51c-0.42-0.34-0.73-0.8-0.9-1.3   c-0.16-0.51-0.18-1.06-0.02-1.61c0.11-0.37,0.28-0.7,0.51-0.98c0.33-0.42,0.79-0.73,1.3-0.9c0.51-0.16,1.06-0.18,1.61-0.02   c0.36,0.1,0.7,0.28,0.97,0.5c0.42,0.33,0.73,0.79,0.9,1.3C80.54,293.49,80.57,294.04,80.41,294.6z"/>
	<path class="st0" d="M70.12,405.95c1.74-0.14,3.12-1.42,3.46-3.05l94.13-7.83v-2.18l-94.3,7.85c-0.6-1.56-2.16-2.6-3.91-2.46   c-2.12,0.17-3.7,2.03-3.53,4.15C66.14,404.54,67.99,406.12,70.12,405.95z"/>
	<path class="st0" d="M119.92,595.45l72.88-63.1l-2.09-1.07L118.5,593.8c-0.4-0.34-0.84-0.62-1.3-0.85   c-1.17-0.57-2.46-0.78-3.73-0.63c-1.27,0.15-2.51,0.67-3.55,1.57c-0.69,0.6-1.23,1.31-1.61,2.08c-0.57,1.17-0.79,2.47-0.63,3.73   c0.15,1.27,0.67,2.51,1.57,3.54c0.6,0.69,1.31,1.23,2.09,1.62c1.16,0.57,2.46,0.79,3.72,0.63c1.27-0.15,2.51-0.67,3.55-1.58   c0.69-0.59,1.23-1.31,1.61-2.08c0.57-1.16,0.79-2.46,0.63-3.72C120.74,597.19,120.43,596.27,119.92,595.45z M118.57,600.07   c-0.23,0.83-0.68,1.6-1.38,2.21c-0.47,0.41-1,0.69-1.54,0.87c-0.83,0.27-1.72,0.28-2.55,0.06c-0.83-0.22-1.6-0.69-2.21-1.39   c-0.4-0.47-0.69-0.99-0.87-1.54c-0.27-0.83-0.28-1.71-0.06-2.54c0.22-0.83,0.68-1.6,1.38-2.21c0.47-0.4,0.99-0.69,1.54-0.87   c0.83-0.27,1.71-0.29,2.55-0.06c0.83,0.22,1.6,0.69,2.2,1.38c0.41,0.47,0.69,1,0.87,1.55   C118.77,598.36,118.79,599.24,118.57,600.07z"/>
	<path class="st0" d="M159.35,512.59c-1.77,1.17-2.26,3.56-1.09,5.34s3.56,2.26,5.34,1.09c1.46-0.97,2.05-2.75,1.56-4.35l2.55-1.69   v-2.61l-3.75,2.48C162.68,511.78,160.81,511.62,159.35,512.59z"/>
	<path class="st0" d="M38.99,387.43c-0.55-1.17-1.43-2.15-2.51-2.83c-1.08-0.68-2.38-1.05-3.75-1.01c-0.91,0.03-1.78,0.25-2.56,0.61   c-1.17,0.55-2.16,1.43-2.83,2.51c-0.68,1.08-1.05,2.38-1,3.75c0.03,0.91,0.25,1.78,0.61,2.57c0.54,1.17,1.42,2.15,2.5,2.83   c1.08,0.68,2.38,1.05,3.75,1c0.91-0.03,1.78-0.25,2.56-0.61c1.17-0.54,2.15-1.42,2.83-2.5c0.49-0.79,0.83-1.7,0.95-2.66   l128.15-4.58v-2.18l-128.23,4.59C39.37,388.39,39.21,387.89,38.99,387.43z M37.14,391.82c-0.31,0.8-0.85,1.51-1.54,2.02   c-0.7,0.51-1.54,0.82-2.47,0.85c-0.62,0.02-1.21-0.09-1.75-0.29c-0.81-0.31-1.52-0.85-2.02-1.55c-0.51-0.69-0.81-1.54-0.85-2.47   c-0.02-0.62,0.08-1.2,0.28-1.75c0.31-0.81,0.85-1.51,1.55-2.02c0.69-0.51,1.54-0.82,2.47-0.85c0.62-0.02,1.2,0.09,1.75,0.29   c0.81,0.31,1.52,0.85,2.02,1.55c0.51,0.69,0.81,1.54,0.85,2.46C37.46,390.69,37.35,391.28,37.14,391.82z"/>
	<path class="st0" d="M91.58,326.14c-2.1-0.36-4.09,1.05-4.45,3.15c-0.36,2.1,1.05,4.09,3.15,4.45c1.73,0.3,3.38-0.6,4.11-2.1   l73.32,12.59v-2.21l-72.95-12.52C94.56,327.83,93.31,326.43,91.58,326.14z"/>
	<path class="st0" d="M132.55,456.9c-2.01,0.7-3.07,2.9-2.37,4.91c0.7,2.01,2.9,3.07,4.91,2.37c1.65-0.58,2.66-2.16,2.58-3.83   l30.04-10.46v-2.3l-30.75,10.7C135.98,456.94,134.21,456.33,132.55,456.9z"/>
	<path class="st0" d="M40.21,463.41c-1.32,0.32-2.14,1.65-1.82,2.98c0.32,1.32,1.65,2.13,2.98,1.81c1.32-0.32,2.14-1.65,1.82-2.97   C42.86,463.9,41.53,463.09,40.21,463.41z"/>
	<path class="st0" d="M112.96,417.46l54.74-7.75v-2.27l-55.98,7.92l-7.1,9.44l-75.86,10.74c-0.17-0.52-0.38-1.01-0.66-1.47   c-0.69-1.15-1.69-2.06-2.88-2.64c-1.19-0.58-2.57-0.83-3.97-0.63c-0.94,0.13-1.81,0.45-2.57,0.91c-1.15,0.69-2.06,1.7-2.64,2.89   c-0.58,1.19-0.82,2.56-0.62,3.96c0.13,0.94,0.45,1.81,0.91,2.57c0.69,1.15,1.69,2.06,2.89,2.64c1.19,0.58,2.56,0.82,3.96,0.62   c0.94-0.13,1.81-0.45,2.57-0.91c1.15-0.69,2.06-1.69,2.64-2.88c0.42-0.87,0.67-1.84,0.69-2.84l76.78-10.87L112.96,417.46z    M26.68,438.78c-0.23,0.87-0.72,1.65-1.37,2.25c-0.66,0.6-1.49,1-2.44,1.14c-0.63,0.09-1.25,0.05-1.83-0.1   c-0.87-0.23-1.65-0.72-2.25-1.37c-0.6-0.66-1-1.49-1.14-2.44c-0.09-0.63-0.05-1.25,0.11-1.83c0.22-0.87,0.71-1.65,1.37-2.25   c0.67-0.6,1.49-1,2.44-1.14c0.63-0.09,1.25-0.04,1.83,0.11c0.87,0.23,1.65,0.71,2.25,1.37c0.6,0.67,1,1.49,1.14,2.44   C26.87,437.59,26.83,438.21,26.68,438.78z"/>
	<path class="st0" d="M21.85,435.08c-1.4,0.2-2.37,1.49-2.17,2.88c0.2,1.4,1.49,2.37,2.88,2.17c1.4-0.2,2.37-1.49,2.17-2.88   S23.25,434.88,21.85,435.08z"/>
	<path class="st0" d="M19.76,384.7c1.25-0.48,2.32-1.32,3.09-2.4c0.56-0.78,0.97-1.7,1.15-2.68l77.52,2.15l8.59-8.12l57.59,1.6V373   l-58.46-1.62l-8.59,8.12l-76.59-2.12c-0.08-0.54-0.21-1.06-0.41-1.56c-0.48-1.25-1.32-2.32-2.4-3.08   c-1.07-0.77-2.39-1.24-3.81-1.28c-0.95-0.03-1.86,0.14-2.69,0.47c-1.25,0.49-2.32,1.33-3.09,2.4c-0.77,1.07-1.24,2.39-1.28,3.8   c-0.03,0.95,0.15,1.86,0.47,2.69c0.49,1.25,1.32,2.32,2.4,3.09c1.07,0.77,2.39,1.24,3.8,1.28C18.02,385.2,18.93,385.03,19.76,384.7   z M13.37,380.78c-0.48-0.75-0.74-1.64-0.71-2.6c0.02-0.64,0.16-1.24,0.41-1.78c0.37-0.82,0.97-1.51,1.72-1.99   c0.76-0.48,1.64-0.74,2.6-0.71c0.64,0.02,1.24,0.17,1.78,0.41c0.82,0.37,1.51,0.97,1.99,1.72c0.48,0.76,0.74,1.64,0.71,2.6   c-0.02,0.64-0.16,1.24-0.41,1.78c-0.37,0.82-0.98,1.51-1.73,1.99c-0.75,0.48-1.64,0.74-2.6,0.71c-0.64-0.02-1.24-0.16-1.78-0.41   C14.54,382.14,13.84,381.53,13.37,380.78z"/>
	<path class="st0" d="M95.68,453.66l-4.04,6.61l-13.8,3.33c-0.13-0.26-0.28-0.52-0.45-0.75c-0.58-0.77-1.36-1.36-2.25-1.69   c-0.89-0.33-1.89-0.41-2.89-0.17c-0.66,0.16-1.26,0.44-1.77,0.83c-0.77,0.58-1.36,1.36-1.69,2.25c-0.34,0.89-0.41,1.89-0.17,2.89   c0.16,0.66,0.45,1.26,0.83,1.78c0.57,0.78,1.35,1.36,2.25,1.69c0.89,0.34,1.89,0.41,2.88,0.18c0.67-0.16,1.26-0.45,1.78-0.83   c0.78-0.57,1.36-1.35,1.69-2.25c0.21-0.56,0.32-1.17,0.31-1.8l14.67-3.54l5.65-9.24l69.03-16.68v-2.24l-67.43,16.29l4.21-6.89   l63.22-15.27v-2.24l-64.61,15.61l-5.81,9.51l-50.39,12.17c-0.21-0.49-0.46-0.94-0.77-1.35c-0.77-1.04-1.82-1.83-3.02-2.27   c-1.2-0.45-2.55-0.56-3.88-0.23c-0.89,0.21-1.7,0.6-2.39,1.11c-1.04,0.77-1.83,1.82-2.28,3.02c-0.44,1.19-0.55,2.54-0.23,3.88   c0.21,0.88,0.6,1.69,1.11,2.39c0.77,1.04,1.82,1.83,3.02,2.27c1.2,0.45,2.54,0.56,3.87,0.24c0.89-0.21,1.69-0.6,2.39-1.11   c1.04-0.77,1.82-1.83,2.27-3.02c0.33-0.87,0.47-1.83,0.4-2.79L95.68,453.66z M76.14,466.25c-0.08,0.53-0.33,1.02-0.69,1.41   c-0.36,0.39-0.83,0.69-1.39,0.82c-0.37,0.09-0.74,0.1-1.09,0.04c-0.53-0.09-1.03-0.33-1.42-0.69c-0.4-0.36-0.69-0.83-0.82-1.39   c-0.09-0.38-0.1-0.74-0.04-1.1c0.09-0.53,0.33-1.03,0.69-1.42c0.36-0.39,0.83-0.68,1.39-0.82c0.38-0.09,0.74-0.1,1.1-0.04   c0.53,0.09,1.03,0.33,1.42,0.69c0.39,0.36,0.68,0.83,0.82,1.39C76.19,465.52,76.2,465.89,76.14,466.25z M45.19,466.53   c-0.14,0.86-0.54,1.65-1.11,2.28c-0.58,0.63-1.34,1.11-2.24,1.33c-0.6,0.14-1.2,0.16-1.77,0.06c-0.86-0.14-1.65-0.53-2.29-1.11   c-0.63-0.58-1.11-1.34-1.32-2.24c-0.15-0.61-0.16-1.2-0.07-1.78c0.14-0.85,0.53-1.65,1.11-2.28c0.59-0.64,1.34-1.11,2.24-1.33   c0.6-0.14,1.2-0.16,1.77-0.06c0.86,0.14,1.66,0.53,2.29,1.11c0.63,0.58,1.11,1.34,1.32,2.25   C45.26,465.36,45.28,465.95,45.19,466.53z"/>
	<path class="st0" d="M125.73,190.03c-1.1-0.88-2.71-0.7-3.59,0.4c-0.88,1.1-0.7,2.71,0.4,3.59c1.1,0.88,2.71,0.7,3.59-0.4   S126.83,190.91,125.73,190.03z"/>
	<path class="st0" d="M142.83,522.1l3.08-11.41l21.79-12.52v-2.59l-23.72,13.63l-3.09,11.4l-66.43,38.18   c-0.35-0.42-0.73-0.8-1.16-1.12c-1.06-0.81-2.34-1.28-3.65-1.38c-1.32-0.1-2.69,0.19-3.92,0.89c-0.82,0.47-1.51,1.09-2.05,1.8   c-0.81,1.07-1.28,2.35-1.38,3.66c-0.09,1.32,0.19,2.68,0.9,3.91c0.47,0.82,1.09,1.51,1.8,2.05c1.07,0.81,2.34,1.28,3.66,1.38   c1.32,0.1,2.68-0.19,3.91-0.9c0.82-0.47,1.51-1.09,2.05-1.8c0.81-1.06,1.28-2.34,1.38-3.66c0.07-0.96-0.06-1.95-0.42-2.89   L142.83,522.1z M73.3,565.17c-0.39,0.8-1.01,1.49-1.85,1.97c-0.55,0.32-1.14,0.51-1.73,0.58c-0.89,0.11-1.8-0.05-2.6-0.44   s-1.49-1.01-1.97-1.85c-0.32-0.55-0.51-1.14-0.58-1.74c-0.11-0.89,0.04-1.8,0.43-2.59c0.4-0.8,1.01-1.49,1.85-1.97   c0.55-0.32,1.15-0.51,1.74-0.58c0.89-0.11,1.8,0.04,2.59,0.43c0.8,0.4,1.49,1.01,1.97,1.85c0.32,0.56,0.51,1.14,0.58,1.73   C73.85,563.47,73.69,564.37,73.3,565.17z"/>
	<path class="st0" d="M67.89,560.93c-1.22,0.7-1.64,2.26-0.94,3.48c0.7,1.22,2.26,1.64,3.48,0.94c1.22-0.7,1.64-2.26,0.94-3.48   C70.67,560.65,69.11,560.22,67.89,560.93z"/>
	<path class="st0" d="M65.35,495.21l41.48-19.76l17.9,6.35l-18.23,8.69c-0.29-0.43-0.65-0.82-1.03-1.16   c-0.97-0.86-2.16-1.41-3.43-1.6c-1.26-0.19-2.6-0.02-3.83,0.57c-0.83,0.39-1.54,0.93-2.11,1.58c-0.86,0.96-1.41,2.16-1.6,3.42   c-0.19,1.26-0.02,2.61,0.58,3.84c0.39,0.83,0.93,1.54,1.58,2.11c0.97,0.86,2.16,1.41,3.42,1.61c1.26,0.19,2.6,0.02,3.84-0.58   c0.82-0.39,1.53-0.94,2.11-1.58c0.86-0.97,1.41-2.16,1.6-3.43c0.14-0.92,0.09-1.88-0.19-2.82l20.2-9.62l10.59,3.76l29.47-14.04   v-2.41l-29.6,14.1l-7.7-2.73l37.29-17.77v-2.41l-40.19,19.15l-20.8-7.38l-42.29,20.15c-1.11-1.24-2.95-1.66-4.52-0.91   c-1.92,0.92-2.74,3.22-1.82,5.14c0.92,1.92,3.22,2.73,5.14,1.82C64.79,498.55,65.62,496.86,65.35,495.21z M104.91,496.56   c-0.44,0.74-1.09,1.36-1.92,1.76c-0.56,0.27-1.14,0.41-1.72,0.43c-0.86,0.04-1.72-0.18-2.46-0.61c-0.74-0.44-1.36-1.08-1.76-1.92   c-0.27-0.56-0.4-1.14-0.43-1.72c-0.04-0.87,0.18-1.73,0.62-2.47c0.44-0.74,1.09-1.36,1.93-1.76c0.56-0.27,1.14-0.41,1.72-0.43   c0.87-0.04,1.72,0.18,2.46,0.62c0.74,0.44,1.36,1.08,1.76,1.92c0.27,0.56,0.4,1.14,0.43,1.72   C105.56,494.95,105.35,495.81,104.91,496.56z"/>
	<path class="st0" d="M19.82,378.38c0.04-1.41-1.07-2.58-2.48-2.62c-1.41-0.04-2.58,1.07-2.62,2.48c-0.04,1.41,1.07,2.58,2.48,2.62   C18.6,380.9,19.78,379.79,19.82,378.38z"/>
	<path class="st0" d="M76.52,182.45c1.15,0.82,2.74,0.56,3.56-0.59c0.82-1.15,0.56-2.74-0.59-3.56c-1.15-0.82-2.74-0.56-3.56,0.59   S75.37,181.63,76.52,182.45z"/>
	<path class="st0" d="M113.45,154.18c0.67,0.63,1.43,1.09,2.24,1.39c1.22,0.45,2.53,0.53,3.78,0.25c0.91-0.2,1.79-0.6,2.56-1.19   l36.15,34.05l-7.74,0.23l-10.34-9.73c0.15-0.25,0.28-0.52,0.38-0.79c0.33-0.91,0.39-1.88,0.19-2.81c-0.21-0.92-0.69-1.81-1.44-2.51   c-0.49-0.46-1.06-0.81-1.66-1.03c-0.91-0.33-1.88-0.39-2.81-0.19c-0.93,0.21-1.81,0.69-2.51,1.43c-0.46,0.49-0.81,1.06-1.03,1.67   c-0.34,0.9-0.4,1.88-0.18,2.81c0.21,0.93,0.69,1.81,1.43,2.51c0.5,0.47,1.07,0.81,1.67,1.03c0.9,0.34,1.88,0.4,2.81,0.19   c0.59-0.13,1.15-0.37,1.67-0.73l10.99,10.35l10.82-0.32l7.28,6.86v-2.99l-4.21-3.96l4.21-0.13v-2.18l-6.45,0.19l-37.74-35.54   c0.29-0.44,0.53-0.9,0.71-1.39c0.45-1.21,0.53-2.52,0.25-3.77c-0.28-1.25-0.93-2.44-1.93-3.37c-0.67-0.63-1.43-1.09-2.24-1.39   c-1.21-0.45-2.52-0.53-3.77-0.26c-1.24,0.28-2.43,0.93-3.37,1.93c-0.62,0.66-1.09,1.43-1.39,2.24c-0.45,1.22-0.53,2.52-0.25,3.77   C111.81,152.06,112.46,153.24,113.45,154.18z M138.58,177.12c-0.08,0.53-0.32,1.03-0.72,1.45c-0.26,0.28-0.57,0.49-0.9,0.64   c-0.49,0.22-1.03,0.29-1.56,0.2c-0.53-0.08-1.03-0.32-1.45-0.71c-0.28-0.26-0.49-0.57-0.63-0.89c-0.22-0.49-0.29-1.04-0.2-1.57   c0.09-0.53,0.32-1.03,0.71-1.45c0.26-0.28,0.57-0.49,0.9-0.64c0.49-0.22,1.04-0.29,1.57-0.2c0.53,0.09,1.03,0.32,1.45,0.72   c0.28,0.26,0.49,0.57,0.64,0.9C138.6,176.04,138.66,176.59,138.58,177.12z M113.6,148.62c0.14-0.85,0.52-1.66,1.15-2.33   c0.43-0.45,0.92-0.79,1.45-1.03c0.79-0.35,1.67-0.46,2.52-0.32c0.85,0.14,1.66,0.52,2.34,1.15c0.45,0.42,0.79,0.92,1.02,1.45   c0.35,0.8,0.46,1.68,0.32,2.53c-0.14,0.85-0.52,1.66-1.16,2.34c-0.42,0.45-0.91,0.79-1.44,1.03c-0.79,0.35-1.67,0.45-2.52,0.32   c-0.85-0.14-1.66-0.52-2.34-1.15c-0.45-0.42-0.78-0.92-1.02-1.45C113.58,150.36,113.46,149.48,113.6,148.62z"/>
	<path class="st0" d="M119.8,151.04c0.93-0.99,0.89-2.55-0.1-3.49c-0.99-0.93-2.55-0.89-3.49,0.1c-0.93,0.99-0.88,2.55,0.11,3.48   C117.31,152.08,118.87,152.03,119.8,151.04z"/>
	<path class="st0" d="M157.95,134.56l25.98,30.76h2.85l-27.16-32.16c0.92-1.39,0.87-3.27-0.25-4.61c-1.37-1.63-3.8-1.85-5.43-0.48   c-1.63,1.37-1.85,3.8-0.48,5.43C154.58,134.84,156.42,135.23,157.95,134.56z"/>
	<path class="st0" d="M130.88,139.03c0.62,0.67,1.36,1.18,2.15,1.52c1.18,0.52,2.49,0.68,3.74,0.48c0.92-0.15,1.82-0.5,2.62-1.04   l28.31,30.04v-3.17l-26.72-28.36c0.32-0.42,0.59-0.87,0.8-1.34c0.52-1.19,0.68-2.49,0.47-3.75c-0.2-1.26-0.77-2.48-1.71-3.48   c-0.63-0.67-1.37-1.17-2.15-1.52c-1.19-0.52-2.5-0.68-3.75-0.48c-1.26,0.2-2.48,0.78-3.47,1.72c-0.67,0.63-1.18,1.36-1.53,2.16   c-0.52,1.18-0.68,2.49-0.48,3.74C129.36,136.81,129.93,138.03,130.88,139.03z M131.35,133.49c0.19-0.84,0.62-1.63,1.29-2.26   c0.45-0.42,0.96-0.73,1.5-0.94c0.81-0.3,1.7-0.35,2.54-0.16c0.84,0.19,1.63,0.61,2.27,1.29c0.42,0.45,0.73,0.96,0.93,1.5   c0.3,0.81,0.36,1.7,0.17,2.54c-0.19,0.84-0.62,1.63-1.29,2.26c-0.45,0.43-0.97,0.73-1.51,0.94c-0.81,0.3-1.69,0.36-2.53,0.17   c-0.84-0.19-1.63-0.61-2.27-1.29c-0.43-0.45-0.73-0.97-0.93-1.5C131.22,135.22,131.16,134.33,131.35,133.49z"/>
	<path class="st0" d="M57.37,243.29c0.83,0.4,1.7,0.6,2.55,0.64c1.3,0.06,2.57-0.27,3.67-0.91c0.8-0.47,1.52-1.12,2.07-1.91   l44.79,21.45l-7.3,2.57l-12.81-6.13c0.07-0.28,0.11-0.58,0.12-0.87c0.04-0.96-0.2-1.91-0.67-2.73c-0.48-0.82-1.21-1.51-2.13-1.95   c-0.61-0.29-1.26-0.45-1.9-0.48c-0.96-0.04-1.91,0.2-2.73,0.67c-0.82,0.48-1.52,1.21-1.96,2.13c-0.29,0.61-0.45,1.26-0.48,1.91   c-0.05,0.96,0.19,1.91,0.68,2.73c0.48,0.82,1.21,1.52,2.12,1.96c0.62,0.3,1.27,0.45,1.91,0.48c0.96,0.05,1.91-0.19,2.73-0.67   c0.52-0.3,0.99-0.71,1.37-1.2l13.61,6.52l10.21-3.59l54.47,26.08v-2.41l-51.56-24.69l7.61-2.68l43.95,21.05v-2.41l-43.83-20.99   l-10.51,3.7l-46.76-22.39c0.15-0.51,0.23-1.02,0.26-1.54c0.06-1.29-0.26-2.57-0.91-3.66c-0.64-1.1-1.62-2.04-2.86-2.62   c-0.83-0.4-1.69-0.61-2.55-0.64c-1.29-0.06-2.57,0.26-3.67,0.9c-1.1,0.65-2.03,1.62-2.62,2.86c-0.39,0.82-0.6,1.7-0.64,2.55   c-0.06,1.3,0.26,2.57,0.91,3.67C55.16,241.77,56.13,242.7,57.37,243.29z M88.03,259.1c-0.17,0.35-0.39,0.64-0.66,0.88   c-0.4,0.36-0.9,0.59-1.43,0.66c-0.53,0.08-1.08,0.01-1.6-0.24c-0.34-0.16-0.64-0.4-0.87-0.66c-0.36-0.4-0.59-0.91-0.67-1.43   c-0.08-0.53-0.01-1.08,0.24-1.6c0.17-0.35,0.4-0.64,0.66-0.88c0.4-0.36,0.91-0.59,1.43-0.67c0.53-0.08,1.08,0,1.6,0.25   c0.35,0.17,0.64,0.39,0.88,0.66c0.36,0.4,0.59,0.91,0.67,1.43C88.35,258.03,88.28,258.58,88.03,259.1z M56.21,235.38   c0.27-0.56,0.63-1.04,1.07-1.42c0.64-0.57,1.45-0.94,2.3-1.07c0.86-0.12,1.74-0.01,2.58,0.39c0.56,0.27,1.03,0.64,1.41,1.07   c0.58,0.65,0.95,1.46,1.07,2.31c0.13,0.85,0.01,1.74-0.39,2.58c-0.27,0.56-0.63,1.03-1.06,1.42c-0.65,0.57-1.46,0.94-2.31,1.07   c-0.85,0.13-1.74,0.01-2.58-0.39c-0.56-0.27-1.03-0.63-1.41-1.07c-0.57-0.65-0.95-1.45-1.07-2.31   C55.69,237.11,55.81,236.21,56.21,235.38z"/>
	<path class="st0" d="M24.7,306.09c1.37,0.34,2.75-0.5,3.09-1.87c0.34-1.37-0.5-2.75-1.87-3.09c-1.37-0.34-2.75,0.5-3.09,1.87   C22.49,304.37,23.33,305.75,24.7,306.09z"/>
	<path class="st0" d="M74.01,185.96c0.77,0.55,1.62,0.92,2.49,1.12c1.31,0.3,2.66,0.2,3.9-0.26c0.9-0.34,1.75-0.87,2.46-1.58   l63.06,45.14l11.66-1.93l10.13,7.25v-2.76l-9.58-6.86l-11.66,1.92l-62.3-44.6c0.24-0.49,0.42-1,0.54-1.52   c0.3-1.31,0.2-2.66-0.26-3.9c-0.46-1.24-1.29-2.37-2.44-3.19c-0.77-0.55-1.62-0.92-2.49-1.12c-1.31-0.29-2.66-0.19-3.91,0.26   c-1.24,0.46-2.36,1.29-3.18,2.44c-0.55,0.77-0.92,1.62-1.12,2.49c-0.29,1.31-0.2,2.66,0.26,3.91   C72.03,184.01,72.86,185.13,74.01,185.96z M74.25,177.69c0.37-0.52,0.83-0.94,1.34-1.25c0.76-0.47,1.65-0.71,2.54-0.68   c0.89,0.03,1.77,0.3,2.55,0.86c0.52,0.37,0.94,0.83,1.25,1.34c0.47,0.77,0.71,1.65,0.68,2.54c-0.03,0.89-0.3,1.77-0.86,2.55   c-0.38,0.52-0.83,0.94-1.34,1.25c-0.77,0.47-1.66,0.7-2.55,0.68c-0.89-0.02-1.77-0.3-2.56-0.86c-0.52-0.37-0.94-0.83-1.25-1.34   c-0.47-0.77-0.7-1.66-0.68-2.55C73.42,179.36,73.7,178.47,74.25,177.69z"/>
	<path class="st0" d="M20.23,308.23c0.89,0.98,2.07,1.71,3.45,2.05c0.92,0.23,1.84,0.26,2.72,0.11c1.32-0.21,2.54-0.81,3.53-1.69   c0.71-0.65,1.3-1.46,1.69-2.38l75.32,18.46l10.11-6.13l50.66,12.42v-2.31l-51.03-12.51l-10.1,6.12l-74.42-18.24   c0.04-0.55,0.02-1.08-0.07-1.61c-0.21-1.32-0.81-2.54-1.69-3.52c-0.89-0.98-2.08-1.72-3.45-2.06c-0.92-0.23-1.84-0.25-2.72-0.11   c-1.32,0.22-2.55,0.81-3.53,1.7c-0.98,0.89-1.71,2.07-2.05,3.45c-0.23,0.92-0.25,1.84-0.11,2.72   C18.75,306.02,19.34,307.24,20.23,308.23z M20.83,302.51c0.15-0.62,0.42-1.18,0.78-1.66c0.53-0.72,1.27-1.27,2.1-1.58   c0.84-0.31,1.76-0.38,2.69-0.15c0.62,0.15,1.18,0.43,1.66,0.78c0.72,0.54,1.27,1.27,1.58,2.1c0.31,0.84,0.38,1.76,0.15,2.69   c-0.15,0.63-0.42,1.18-0.77,1.66c-0.54,0.72-1.28,1.27-2.11,1.58c-0.83,0.31-1.76,0.38-2.69,0.15c-0.62-0.15-1.18-0.42-1.66-0.77   c-0.72-0.54-1.27-1.28-1.58-2.11C20.67,304.37,20.6,303.44,20.83,302.51z"/>
	<path class="st0" d="M59.17,239.53c1.23,0.59,2.7,0.08,3.29-1.15c0.59-1.23,0.07-2.7-1.16-3.29c-1.23-0.59-2.7-0.07-3.29,1.16   C57.42,237.47,57.94,238.94,59.17,239.53z"/>
</g>
<g>
	
	
	
	
	
	
	
	
	
	
	
	
	
	
	
	
	
	
	
	
	
	
	
	
	
</g>
</svg>