<svg xmlns="http://www.w3.org/2000/svg" viewBox="0 0 97.64 90.52"><defs><style>.a{fill:#ad8c46;}.b{fill:#fff;}</style></defs><path class="a" d="M52.25,7.51,63.9.78a3.48,3.48,0,0,1,3.5,0L79.06,7.51a3.5,3.5,0,0,1,1.75,3V24a3.51,3.51,0,0,1-1.75,3L67.4,33.76a3.53,3.53,0,0,1-3.5,0L52.25,27a3.49,3.49,0,0,1-1.75-3V10.54A3.48,3.48,0,0,1,52.25,7.51Z" transform="translate(-0.17 -0.31)"/><path class="a" d="M19.44,7.51,31.09.78a3.48,3.48,0,0,1,3.5,0L46.25,7.51a3.5,3.5,0,0,1,1.75,3V24a3.51,3.51,0,0,1-1.75,3L34.59,33.76a3.53,3.53,0,0,1-3.5,0L19.44,27a3.49,3.49,0,0,1-1.75-3V10.54A3.48,3.48,0,0,1,19.44,7.51Z" transform="translate(-0.17 -0.31)"/><path class="a" d="M52.25,64.12,63.9,57.39a3.48,3.48,0,0,1,3.5,0l11.66,6.73a3.5,3.5,0,0,1,1.75,3V80.61a3.51,3.51,0,0,1-1.75,3L67.4,90.37a3.53,3.53,0,0,1-3.5,0L52.25,83.64a3.49,3.49,0,0,1-1.75-3V67.15A3.48,3.48,0,0,1,52.25,64.12Z" transform="translate(-0.17 -0.31)"/><path class="a" d="M19.44,64.12l11.65-6.73a3.48,3.48,0,0,1,3.5,0l11.66,6.73a3.5,3.5,0,0,1,1.75,3V80.61a3.51,3.51,0,0,1-1.75,3L34.59,90.37a3.53,3.53,0,0,1-3.5,0L19.44,83.64a3.49,3.49,0,0,1-1.75-3V67.15A3.48,3.48,0,0,1,19.44,64.12Z" transform="translate(-0.17 -0.31)"/><path class="a" d="M69.24,35.91,80.9,29.18a3.48,3.48,0,0,1,3.5,0l11.66,6.73a3.5,3.5,0,0,1,1.75,3V52.4a3.51,3.51,0,0,1-1.75,3L84.4,62.16a3.53,3.53,0,0,1-3.5,0L69.24,55.43a3.51,3.51,0,0,1-1.75-3V38.94A3.5,3.5,0,0,1,69.24,35.91Z" transform="translate(-0.17 -0.31)"/><path class="a" d="M1.92,35.91l11.65-6.73a3.48,3.48,0,0,1,3.5,0l11.66,6.73a3.5,3.5,0,0,1,1.75,3V52.4a3.51,3.51,0,0,1-1.75,3L17.07,62.16a3.53,3.53,0,0,1-3.5,0L1.92,55.43a3.51,3.51,0,0,1-1.75-3V38.94A3.5,3.5,0,0,1,1.92,35.91Z" transform="translate(-0.17 -0.31)"/><path class="b" d="M20.05,38.81l.75-.57-.38-1.16-.93,0-.61-.83.27-.89-1-.72-.77.53-1-.32L16.11,34H15.5v2.91a2.47,2.47,0,1,1,0,4.93v2.9h.61l.31-.88,1-.32.76.53,1-.71-.27-.89.61-.84.93,0,.38-1.16-.75-.56Z" transform="translate(-0.17 -0.31)"/><path class="b" d="M13.13,35.56a.77.77,0,0,0,.73-.51H15v-.54h-1.1a.78.78,0,1,0-.73,1.05Zm0-1a.24.24,0,1,1-.24.23A.23.23,0,0,1,13.13,34.55Z" transform="translate(-0.17 -0.31)"/><path class="b" d="M14.31,43.38H12.67a.78.78,0,0,0-1.51.27.77.77,0,0,0,.78.77.79.79,0,0,0,.73-.5h1.1v.77H15v-.54h-.65Zm-2.37.5a.24.24,0,1,1,.24-.23A.23.23,0,0,1,11.94,43.88Z" transform="translate(-0.17 -0.31)"/><path class="b" d="M16,40.35H14.5v1.44H14a.78.78,0,1,0-.73,1.05.79.79,0,0,0,.73-.51h1V40.89H16ZM13.3,42.3a.24.24,0,1,1,.24-.24A.24.24,0,0,1,13.3,42.3Z" transform="translate(-0.17 -0.31)"/><path class="b" d="M10.49,38.72h2.45V37.55H12.4v.63H10.49a.78.78,0,1,0,0,.54Zm-1-.27a.24.24,0,1,1,.24.24A.23.23,0,0,1,9.52,38.45Z" transform="translate(-0.17 -0.31)"/><path class="b" d="M12.17,41.17v-.91h.61v-.54H11.63v.91H11a.78.78,0,0,0-1.51.27.77.77,0,0,0,.78.77.79.79,0,0,0,.73-.5Zm-1.92,0a.24.24,0,1,1,.24-.23A.23.23,0,0,1,10.25,41.13Z" transform="translate(-0.17 -0.31)"/><path class="b" d="M13.87,38.54a.78.78,0,1,0,0,1.56.77.77,0,0,0,.73-.51h2.18v-.54H14.6A.77.77,0,0,0,13.87,38.54Zm0,1a.24.24,0,0,1,0-.48.24.24,0,0,1,0,.48Z" transform="translate(-0.17 -0.31)"/><path class="b" d="M11.1,37.31a.79.79,0,0,0,.73-.51h2.63v1.27H16v-.54H15V36.26H11.83a.78.78,0,1,0-.73,1.05Zm0-1a.24.24,0,0,1,.24.24.24.24,0,0,1-.48,0A.24.24,0,0,1,11.1,36.29Z" transform="translate(-0.17 -0.31)"/><path class="b" d="M38.47,7.86h-1V7.33h1a.25.25,0,0,0,0-.5h-1a.25.25,0,0,0-.5,0h-1a.25.25,0,0,0,0,.5h1v.53H34.57a1,1,0,0,0-1-.77H31.52a1,1,0,0,0-1,.77H28.17V7.33h1a.25.25,0,0,0,0-.5h-1a.25.25,0,0,0-.5,0h-1a.25.25,0,0,0,0,.5h1v.53h-1a.25.25,0,0,0-.25.25v.77a.25.25,0,0,0,.24.25l1.05.06V9.4a.25.25,0,0,0,.5,0V9.22l2.61.16a1.85,1.85,0,0,0,3.54,0l2.61-.16V9.4a.25.25,0,0,0,.5,0V9.19l1-.06a.25.25,0,0,0,.24-.25V8.11A.25.25,0,0,0,38.47,7.86Zm-5.92,2.31a1.19,1.19,0,0,1-1.29-1A.25.25,0,0,0,31,8.89l-4.13-.25V8.36h3.86A.25.25,0,0,0,31,8.11a.49.49,0,0,1,.52-.52h2.06a.49.49,0,0,1,.52.52.25.25,0,0,0,.25.25h3.86v.28l-4.13.25a.25.25,0,0,0-.24.25A1.19,1.19,0,0,1,32.55,10.17Z" transform="translate(-0.17 -0.31)"/><path class="b" d="M33.32,8.11H31.78a.26.26,0,0,0-.25.26.25.25,0,0,0,.25.25h1.54a.25.25,0,0,0,.25-.25A.26.26,0,0,0,33.32,8.11Z" transform="translate(-0.17 -0.31)"/><path class="b" d="M32.55,12.4a1.76,1.76,0,0,0,1.66-1.11.21.21,0,0,0,0-.19.27.27,0,0,0-.14-.14.31.31,0,0,0-.19,0,.32.32,0,0,0-.14.14,1.27,1.27,0,0,1-.7.7,1.29,1.29,0,0,1-1.68-.7.25.25,0,0,0-.47.19A1.78,1.78,0,0,0,32.55,12.4Z" transform="translate(-0.17 -0.31)"/><path class="b" d="M30.14,11.81a.26.26,0,0,0-.14.33,2.76,2.76,0,0,0,3.61,1.5,2.71,2.71,0,0,0,1.49-1.5.26.26,0,0,0-.14-.33.26.26,0,0,0-.33.14,2.21,2.21,0,0,1-1.22,1.22A2.24,2.24,0,0,1,30.47,12,.26.26,0,0,0,30.14,11.81Z" transform="translate(-0.17 -0.31)"/><path class="b" d="M36,12.6a.26.26,0,0,0-.33.13,3.33,3.33,0,0,1-1.82,1.83,3.37,3.37,0,0,1-4.4-1.83.26.26,0,0,0-.33-.13.25.25,0,0,0-.14.33,3.87,3.87,0,0,0,3.58,2.39A3.77,3.77,0,0,0,34,15a3.84,3.84,0,0,0,2.1-2.09A.25.25,0,0,0,36,12.6Z" transform="translate(-0.17 -0.31)"/><path class="b" d="M65.62,15.26l.1,0,.1,0a5.29,5.29,0,0,0,3.82-5.06V6.53L65.72,5.41,61.8,6.53V10.2A5.29,5.29,0,0,0,65.62,15.26ZM62.53,10.2V7.08l.11,0,3-.87h.08l3,.87.1,0V10.2a4.59,4.59,0,0,1-.23,1.42A4.77,4.77,0,0,1,68,12.87a4.69,4.69,0,0,1-1,1,4.25,4.25,0,0,1-1.27.65l0,0,0,0a4.18,4.18,0,0,1-1.28-.65,4.65,4.65,0,0,1-1-1,4.81,4.81,0,0,1-.65-1.25A4.59,4.59,0,0,1,62.53,10.2Z" transform="translate(-0.17 -0.31)"/><polygon class="b" points="67.35 9.23 66.83 8.71 65.29 10.26 65.19 10.36 65.09 10.26 64.25 9.41 63.73 9.93 65.19 11.39 67.35 9.23"/><path class="b" d="M37.36,68.53l.18-.2a6,6,0,0,0,.76-1.12,2.47,2.47,0,0,0,.27-1,1.2,1.2,0,0,0-.29-.84,1.52,1.52,0,0,0-.73-.47,3,3,0,0,0-1-.15,6.27,6.27,0,0,0-1.23.14s0-.09-.07-.14a3.73,3.73,0,0,0-.9-1.2,2,2,0,0,0-.56-.35,1.61,1.61,0,0,0-1.29,0,2.34,2.34,0,0,0-.94.73,4.42,4.42,0,0,0-.57.94,4.47,4.47,0,0,0-2.22,0,1.66,1.66,0,0,0-.72.46,1.31,1.31,0,0,0-.3.86,2.47,2.47,0,0,0,.27,1A6.18,6.18,0,0,0,29,68.49l-.18.21A5.41,5.41,0,0,0,28,69.82a2.4,2.4,0,0,0-.27,1,1.21,1.21,0,0,0,.28.83,1.65,1.65,0,0,0,.74.48,4.45,4.45,0,0,0,2.22,0l.07.15a3.85,3.85,0,0,0,.9,1.2,2.26,2.26,0,0,0,.56.35,1.67,1.67,0,0,0,1.29,0,2.43,2.43,0,0,0,.93-.73,4.29,4.29,0,0,0,.58-.94,4.34,4.34,0,0,0,2.22,0,1.6,1.6,0,0,0,.72-.46,1.33,1.33,0,0,0,.3-.85,2.29,2.29,0,0,0-.28-1A6,6,0,0,0,37.36,68.53Zm-2,1.71A6.76,6.76,0,0,1,35,71.6c-.2,0-.41-.12-.61-.19s-.4-.14-.62-.24a12,12,0,0,0,1.11-.61Zm-3.9.3c.35.22.72.44,1.1.63l-.6.22c-.19.07-.39.13-.61.19a5.34,5.34,0,0,1-.18-.52h0c-.07-.26-.14-.54-.19-.83Zm-1.16-1.49c-.22-.18-.42-.37-.6-.55l0,0c.17-.17.36-.34.56-.51,0,.19,0,.38,0,.56S30.27,68.87,30.28,69.05Zm.34-3.21a8.26,8.26,0,0,0-.28,1.4,11.3,11.3,0,0,0-1,.87L29.23,68a4.83,4.83,0,0,1-.69-1,2,2,0,0,1-.22-.84.86.86,0,0,1,.18-.56,1,1,0,0,1,.48-.3,2.55,2.55,0,0,1,.78-.1,5.19,5.19,0,0,1,1,.11C30.73,65.48,30.67,65.66,30.62,65.84Zm-.28,3.93a8,8,0,0,0,.45,1.93,3.75,3.75,0,0,1-1.84,0,1,1,0,0,1-.48-.3.84.84,0,0,1-.18-.54,2,2,0,0,1,.23-.85,5.16,5.16,0,0,1,.8-1.13A10.16,10.16,0,0,0,30.34,69.77Zm.62-3a8.53,8.53,0,0,1,.37-1.37l.62.19.62.24c-.38.19-.75.39-1.11.61Zm3.91-.31c-.35-.22-.72-.43-1.1-.63l.59-.22.62-.19a4.72,4.72,0,0,1,.18.53c.07.25.13.53.19.82ZM33.14,70.9a13.31,13.31,0,0,1-1.38-.76c-.31-.2-.61-.4-.89-.62a8.44,8.44,0,0,1-.05-1,8.71,8.71,0,0,1,.05-1,9.7,9.7,0,0,1,.91-.62,12.41,12.41,0,0,1,1.39-.75,13.31,13.31,0,0,1,1.38.76,10.66,10.66,0,0,1,.89.62,8.44,8.44,0,0,1,.05,1,8.77,8.77,0,0,1-.05,1,10.32,10.32,0,0,1-.91.61A13.36,13.36,0,0,1,33.14,70.9Zm1-5.73a10.31,10.31,0,0,0-1,.39c-.35-.16-.69-.29-1-.41L31.53,65l0,0a3.29,3.29,0,0,1,.77-1,1.66,1.66,0,0,1,.41-.26,1.09,1.09,0,0,1,.83,0,2,2,0,0,1,.72.58,4.24,4.24,0,0,1,.5.8Zm-2,6.68c.32-.11.66-.24,1-.39.34.16.68.29,1,.41l.63.19,0,0h0a3.29,3.29,0,0,1-.77,1,1.66,1.66,0,0,1-.41.26,1.09,1.09,0,0,1-.83,0,2,2,0,0,1-.72-.57,4.34,4.34,0,0,1-.5-.81ZM36,68c.22.19.42.37.6.56l0,0-.56.5c0-.19,0-.38,0-.56S36,68.16,36,68ZM36,67.25a8,8,0,0,0-.45-1.93,5,5,0,0,1,1-.11h0a2.38,2.38,0,0,1,.8.11,1,1,0,0,1,.48.31.8.8,0,0,1,.18.54,2,2,0,0,1-.23.84,5.19,5.19,0,0,1-.8,1.14A11.28,11.28,0,0,0,36,67.25Zm-.28,3.93A8.34,8.34,0,0,0,36,69.79a12.94,12.94,0,0,0,1-.88l.09.11a4.63,4.63,0,0,1,.68,1,2,2,0,0,1,.23.85.85.85,0,0,1-.18.55,1.1,1.1,0,0,1-.48.3,3.82,3.82,0,0,1-1.82,0C35.58,71.55,35.64,71.36,35.69,71.18Z" transform="translate(-0.17 -0.31)"/><path class="b" d="M33.16,67.47a1,1,0,1,0,1.16,1A1.11,1.11,0,0,0,33.16,67.47Z" transform="translate(-0.17 -0.31)"/><path class="b" d="M85.37,45.38a.62.62,0,0,0-.62-.62l-.13,0-.35-.92,1.37-1.37a.22.22,0,0,0,0-.32,2.85,2.85,0,0,0-2-.85,2.73,2.73,0,0,0-.9.14.82.82,0,0,0,0-.49L85.62,38a.22.22,0,0,0,0-.32l-2-2a.24.24,0,0,0-.16-.07.26.26,0,0,0-.16.07l-2.92,2.92a.92.92,0,0,0-.69.09.89.89,0,0,0-1.22,0l-.18.19a.86.86,0,0,0,0,1.21.84.84,0,0,0-.09.69l-2.92,2.93a.2.2,0,0,0-.07.16.19.19,0,0,0,.07.15l2,2a.26.26,0,0,0,.16.07.24.24,0,0,0,.16-.07l2.93-2.92a1,1,0,0,0,.24,0h.12a3,3,0,0,0-.19,1,2.89,2.89,0,0,0,.85,2.06.27.27,0,0,0,.16.06.23.23,0,0,0,.16-.06l1.37-1.37.92.34a.62.62,0,0,0,0,.13.62.62,0,1,0,1.24,0ZM82,37.7l.68.69-1.19,1.19-.68-.69Zm-.19,2.19L83,38.71l.68.68-1.18,1.19ZM84,39.07l-.68-.68,1.19-1.19.68.68Zm-.5-2.87.69.68L83,38.07l-.69-.69Zm-4.52,7.9-.69-.69,1.19-1.19.69.69Zm-1-1-.69-.68,1.19-1.19.68.68Zm.67-3.84.18-.19a.42.42,0,0,1,.29-.12.39.39,0,0,1,.27.1l-.76.76A.4.4,0,0,1,78.6,39.25Zm-1.68,3.48.69.68L76.42,44.6l-.69-.68Zm.5,2.87-.68-.68,1.19-1.19.68.68Zm3-3-.88-.88-.88-.87a.42.42,0,0,1,0-.57l1.13-1.13a.43.43,0,0,1,.28-.11.41.41,0,0,1,.28.11l.88.88.88.88a.4.4,0,0,1,0,.57L81,42.62a.36.36,0,0,1-.28.12A.39.39,0,0,1,80.47,42.62Zm1.23,3.17a2.45,2.45,0,0,1,1.89-4,2.47,2.47,0,0,1,1.57.56Zm3-.24a.17.17,0,0,1,0-.34.17.17,0,0,1,0,.34Z" transform="translate(-0.17 -0.31)"/><path class="b" d="M85.16,46.93h.07a1.68,1.68,0,0,0,.66-.4,1.65,1.65,0,0,0,.4-.66.22.22,0,0,0-.15-.28.22.22,0,0,0-.28.14,1.17,1.17,0,0,1-.29.48,1.09,1.09,0,0,1-.48.29.24.24,0,0,0-.15.29A.23.23,0,0,0,85.16,46.93Z" transform="translate(-0.17 -0.31)"/><path class="b" d="M85.16,47.63h0A2,2,0,0,0,87,45.81a.23.23,0,0,0-.45,0,1.52,1.52,0,0,1-.45,1,1.54,1.54,0,0,1-1,.45.23.23,0,0,0,0,.45Z" transform="translate(-0.17 -0.31)"/><path class="b" d="M87.71,45.78a.23.23,0,0,0-.45,0,1.94,1.94,0,0,1-.11.79,2.11,2.11,0,0,1-.46.72,2,2,0,0,1-1.52.57.24.24,0,0,0-.24.22.22.22,0,0,0,.21.23h.16a2.57,2.57,0,0,0,.82-.14,2.71,2.71,0,0,0,.89-.57,2.36,2.36,0,0,0,.56-.89A2.46,2.46,0,0,0,87.71,45.78Z" transform="translate(-0.17 -0.31)"/><path class="b" d="M72,65.47l-2.76-2.75a.2.2,0,0,0-.14-.06H63a.2.2,0,0,0-.15.06l-1.56,1.56a.57.57,0,1,0-.23,1.1.54.54,0,0,0,.4-.17.57.57,0,0,0,.12-.64l1.5-1.5h6l2.63,2.64v1.67l-.28.28a.57.57,0,0,0-.63.12.57.57,0,1,0,.93.17l.34-.33a.22.22,0,0,0,.06-.15V65.62A.22.22,0,0,0,72,65.47Z" transform="translate(-0.17 -0.31)"/><path class="b" d="M64.43,68.87a.56.56,0,0,0-.53.36H61.82l-1.4-1.39v-1.3a.57.57,0,0,0-.2-1.11.58.58,0,0,0-.58.58.57.57,0,0,0,.37.53v1.38a.2.2,0,0,0,.06.15l1.51,1.52a.28.28,0,0,0,.15.06H63.9a.56.56,0,0,0,.53.36.58.58,0,0,0,.58-.57A.57.57,0,0,0,64.43,68.87Z" transform="translate(-0.17 -0.31)"/><path class="b" d="M71.11,69a.57.57,0,0,0-.2,1.11v.06l-.76.75h-1A.22.22,0,0,0,69,71l-.79.8a.2.2,0,0,0-.06.15v1.67a.56.56,0,0,0-.37.53.58.58,0,0,0,1.15,0,.56.56,0,0,0-.37-.53V72l.68-.67h1a.2.2,0,0,0,.15-.06l.87-.87a.22.22,0,0,0,.06-.15v-.15A.57.57,0,0,0,71.11,69Z" transform="translate(-0.17 -0.31)"/><path class="b" d="M67.47,72.54v-.83a.22.22,0,0,0-.06-.15l-1.35-1.35a.57.57,0,0,0-.53-.8.56.56,0,0,0-.4.17.58.58,0,0,0,0,.81.57.57,0,0,0,.63.12l1.29,1.29v.74a.56.56,0,0,0-.36.53.58.58,0,0,0,.57.58.57.57,0,0,0,.57-.58A.56.56,0,0,0,67.47,72.54Z" transform="translate(-0.17 -0.31)"/><path class="b" d="M61.78,66.69a.57.57,0,0,0-.41-.17.54.54,0,0,0-.4.17.56.56,0,0,0,0,.81.57.57,0,0,0,.63.12l.85.84a.18.18,0,0,0,.14.06h1.94a.2.2,0,0,0,.15-.06l.81-.81a.55.55,0,0,0,.63-.12.56.56,0,0,0,0-.81.57.57,0,0,0-.92.64l-.75.75H62.68l-.78-.78A.6.6,0,0,0,61.78,66.69Z" transform="translate(-0.17 -0.31)"/><path class="b" d="M62.14,64.41a.62.62,0,0,0-.16.41.58.58,0,0,0,.16.4.57.57,0,0,0,.64.12l.67.67v.59a.55.55,0,0,0-.36.53.57.57,0,1,0,1.14,0,.55.55,0,0,0-.36-.53v-.67a.25.25,0,0,0-.06-.15l-.74-.73a.57.57,0,0,0-.12-.64A.58.58,0,0,0,62.14,64.41Z" transform="translate(-0.17 -0.31)"/><path class="b" d="M66.78,70.49a.59.59,0,0,0,.53-.36H68a.21.21,0,0,0,.14-.07l.91-.9h.49A.58.58,0,0,0,70.64,69a.57.57,0,0,0-.57-.57.58.58,0,0,0-.54.36H69a.2.2,0,0,0-.14.06l-.91.91h-.59a.57.57,0,1,0-.53.78Z" transform="translate(-0.17 -0.31)"/><path class="b" d="M66.37,68.11a.6.6,0,0,0-.64.12.58.58,0,0,0,.41,1,.54.54,0,0,0,.4-.17.55.55,0,0,0,.12-.63l1.78-1.78a.2.2,0,0,0,.06-.14v-1a.58.58,0,0,0,.36-.54.57.57,0,0,0-1.14,0,.58.58,0,0,0,.36.54v.89Z" transform="translate(-0.17 -0.31)"/><path class="b" d="M64,63.5a.57.57,0,0,0-.41-.17.56.56,0,0,0-.4.17.57.57,0,0,0-.17.41.56.56,0,0,0,.17.4.58.58,0,0,0,.64.12l1.31,1.32a.22.22,0,0,0,.15.06h1.09a.58.58,0,1,0,0-.41h-1l-1.26-1.26A.58.58,0,0,0,64,63.5Z" transform="translate(-0.17 -0.31)"/><path class="b" d="M70,64.84,68.84,63.7a.25.25,0,0,0-.14-.06H65.92a.58.58,0,0,0-1.11.21.57.57,0,0,0,.57.57.58.58,0,0,0,.54-.36h2.69l1.07,1.07a.6.6,0,0,0,.12.64.58.58,0,0,0,.41.17.54.54,0,0,0,.4-.17.56.56,0,0,0,0-.81A.55.55,0,0,0,70,64.84Z" transform="translate(-0.17 -0.31)"/><path class="b" d="M71.31,66.66a.57.57,0,0,0-1.1-.21h-.79a.2.2,0,0,0-.14.06L67.81,68a.58.58,0,0,0-.64.12.57.57,0,0,0-.17.41.56.56,0,0,0,.17.4.57.57,0,0,0,.41.17h0a.56.56,0,0,0,.4-.17.55.55,0,0,0,.12-.63l1.41-1.41h.7a.57.57,0,0,0,1.1-.21Z" transform="translate(-0.17 -0.31)"/></svg>