<?xml version="1.0" encoding="utf-8"?>
<!-- Generator: Adobe Illustrator 24.3.2, SVG Export Plug-In . SVG Version: 6.00 Build 0)  -->
<svg version="1.1" id="Layer_1" xmlns="http://www.w3.org/2000/svg" xmlns:xlink="http://www.w3.org/1999/xlink" x="0px" y="0px"
	 viewBox="0 0 115 65" style="enable-background:new 0 0 115 65;" xml:space="preserve">
<style type="text/css">
	.st0{fill:#DD0023;}
</style>
<path class="st0" d="M85.27,39.16c4.15-5.09,19.55-23.99,19.95-24.58l0.02-0.03l0.02-0.03c2.99-4.04,0.35-7.03-3.89-7.03H89.65V0.53
	h11.82c2.27,0,4.48,0.09,6.49,1.14c1.92,1.01,3.42,2.4,4.48,4.14c1.05,1.74,1.59,3.69,1.59,5.78c0,2.22-0.58,4.38-1.72,6.42
	c-0.59,1.05-3.96,5.43-9.5,12.32l-0.82,1.02h12.5v7.87L85.27,39.16z"/>
<path class="st0" d="M71.02,13.9v7.92h-6.36L71.02,13.9z M71.71,0.53L48.07,29.61h22.95v16.6l8.21-9.85v-6.76h5.8l6.2-7.78H79.23
	V0.53H71.71z"/>
<path d="M43.87,37.08v-0.01h-1.61l-6.54,8.21h16.83c-4.23,6.6-11.62,10.99-20.03,10.99C19.4,56.27,8.74,45.61,8.74,32.5
	S19.4,8.73,32.51,8.73c7.06,0,13.4,3.09,17.76,7.99l5.18-6.5C49.63,4.23,41.5,0.5,32.51,0.5c-17.65,0-32,14.35-32,32s14.35,32,32,32
	c13.1,0,24.39-7.92,29.33-19.22c1.13-2.58,1.92-5.33,2.34-8.2H43.87z"/>
</svg>
