<?xml version="1.0" encoding="utf-8"?>
<!-- Generator: Adobe Illustrator 25.4.2, SVG Export Plug-In . SVG Version: 6.00 Build 0)  -->
<svg version="1.1" id="Layer_1" xmlns="http://www.w3.org/2000/svg" xmlns:xlink="http://www.w3.org/1999/xlink" x="0px" y="0px"
	 viewBox="0 0 449.8 150" style="enable-background:new 0 0 449.8 150;" xml:space="preserve">
<style type="text/css">
	.st0{fill:#FFFFFF;}
	.st1{fill:#1F7027;}
	.st2{fill:#FCCC12;}
	.st3{fill:#F8100D;}
	.st4{fill:#A28772;}
	.st5{fill:#AA8F2D;}
	.st6{fill:#366C59;}
	.st7{fill:#B68A35;}
</style>
<g>
	<g>
		<g>
			<path class="st0" d="M107.2,31.5l-4.9-12.3L89.2,8L66,2.5l-3.3-0.6L40.5,8.2l-4.8,3.2L21.2,23.7l-5.3,14.3L20.6,60l15,18.8
				c0,0,18.6,12.7,19.3,12.9c0.7,0.2,31.8-2,31.8-2L103,76.9l9.6-21.8L107.2,31.5z"/>
			<path d="M102.9,44c-1.4,3.3-3.4,6.3-5.8,8.8v0l-5.2,5.6l-0.2,0.2c-0.5,0.6-0.8,1.3-0.9,2.1c-0.2,0.9-0.3,1.8-0.4,2.7
				c-0.4,3.9-1.9,7.7-4.2,10.8v0l-0.6,0.8c-1.7,2.1-4,3.6-6.6,4.2l-1,0l-0.7-0.3l-0.2-0.1c-0.6-0.6-1.1-1.2-1.6-1.9v0
				c-0.8-1.5-1.5-3-2.2-4.6l-0.2-0.6l0.7-0.2c-1-1.6-1.9-3.2-2.7-4.9c-0.7-1.5-1.4-2.9-2.3-4.2c-0.4-0.6-0.9-1.2-1.5-1.7l-0.9-0.5
				c-2.4-0.8-5.1-1-7.6-0.5c-0.6,0.1-1.2,0.4-1.7,0.7L56.5,61l-0.2,0.6c-0.8-0.1-1.6,0-2.4,0.3c-0.6,0.2-1.2,0.6-1.6,1.1
				c-0.3,0.5-0.5,1.1-0.5,1.7c-0.1,0.7-0.1,1.4,0,2.2c0.7-0.4,1.5-0.5,2.3-0.4c1.5,0.1,2.8,0.9,3.7,2c0.8,1.1,1,2.4,0.6,3.7
				l-0.1,0.4c-0.7,1.9-1.7,3.6-3.1,5c-0.7,0.7-1.6,1.2-2.5,1.4l-0.4,0.1l-0.2,0H52c-1.6,0-3.2-0.4-4.6-1.2c-1.5-0.8-2.7-1.8-3.7-3.1
				c-2.1-2.6-3.7-5.8-4.4-9.2c-0.2-1.3-0.4-2.5-0.5-3.8c-0.1-0.7-0.2-1.5-0.5-2.2l-0.7-1.1L32.4,53c-2.5-2.6-4.6-5.7-6-9
				c-1.6-4.3-1.7-8.9-0.3-13.3l0.2-0.4l0.3-1c0.4-1.2,1-2.3,1.6-3.4h0c0.5-0.8,0.8-1.7,1.1-2.6l0.1-1.7c1.6-1.7,3.3-3.3,5.1-4.7
				c3.3-2.7,6.9-4.9,10.8-6.7L44,10l-0.5-0.1h0c-0.6-0.1-1.2-0.3-1.8-0.5h0c3.3-0.9,6.8-1.7,10.2-2.2h0c4.4-0.7,8.7-2.2,12.7-4.3
				l0,0c4.4,2.4,9.2,3.9,14.1,4.6l0,0c3,0.4,5.9,1.1,8.8,1.9c-0.6,0.2-1.2,0.3-1.8,0.5l-1.2,0.3l-0.5,0.1c3.9,1.7,7.5,4,10.8,6.7
				c1.8,1.4,3.5,3,5.1,4.7h0c0,1.2,0.2,2.3,0.7,3.4l1.3,2.7l0.7,1.7l0.3,1C104.6,34.8,104.6,39.6,102.9,44 M95.4,130.7L95.4,130.7
				c-0.9,0.4-1.7,0.8-2.6,1.2v0l-4.5-5.3h0h0c1.6-0.7,3.2-1.4,4.7-2.2l0,0c0,0.7,0.4,1.3,0.9,1.7l1,0.4l0.4,0V130.7z M36.5,131.8
				c-0.9-0.4-1.7-0.8-2.6-1.2v-4.2l1.1-0.2l0.3-0.2c0.5-0.4,0.9-1,0.9-1.7l0,0c1.6,0.8,3.2,1.5,4.8,2.2h0L36.5,131.8z M112.6,121.1
				l-0.4-0.3l-0.5-0.1l-0.3,0.1v-7.6l0.5-0.5l0.5-1.3l-0.3-1.1L112,110c11.1-12.2,17.3-28.3,17.3-45c-0.1-27.4-16.6-52-41.7-61.8v0
				c0.4,1,1,1.8,1.6,2.6c-5.5-4.1-12.2-6.1-19-5.7c-2,0.2-3.8,0.7-5.6,1.4c-3.1-1.3-6.4-1.8-9.8-1.4c-5.3,0.5-10.4,2.5-14.8,5.7
				c0.6-0.8,1.2-1.6,1.7-2.6C16.6,13,0,37.6,0,65.1C0,81.7,6.2,97.8,17.3,110l-0.1,0.3l-0.3,1.1l0.5,1.3l0.5,0.5v7.6l-0.3-0.1
				l-0.5,0.2l-0.4,0.3l-0.3,0.6l0.1,0.9l0.2,0.3v0c2,1.7,4.1,3.3,6.2,4.8v7.9l-0.7-0.1l-0.7,0.5l-0.2,1.1l0.4,0.6v0
				c13,8.1,27.9,12.3,43.1,12.3h0c15.1,0,30-4.2,43-12.3l0,0l0.4-0.7l-0.2-0.9l-0.9-0.5l-0.5,0.1v-7.9c2.1-1.5,4.2-3.1,6.2-4.8l0,0
				l0.4-0.8l0-0.4L112.6,121.1z"/>
		</g>
		<path d="M51.2,116.5l0.3-1.1l0.4,1.1l-0.3,0.3L51.2,116.5z M51.5,115.3l-0.4,1.2l0.5,0.4l0.4-0.4l-0.5-1.4L51.5,115.3z"/>
		<path d="M77.4,116.5l0.4-1.1l0.3,1.1l-0.4,0.3L77.4,116.5z M77.7,115.3l-0.4,1.2l0.4,0.4l0.5-0.4l-0.4-1.3L77.7,115.3z"/>
		<path d="M46.9,115l1,1.2l1.5,0.5l-2.3,2.8l-1.2-4.4l0.3,0L46.9,115z M46.9,114.9l-0.8,0.1l-0.4,0l-0.1,0l1.3,4.7l2.6-3h-0.1v0v0
			l-1.6-0.5L46.9,114.9L46.9,114.9L46.9,114.9z"/>
		<g>
			<path class="st1" d="M82.8,120.2l1.5-5.4h0c0.7-0.3,1.2-1,1.5-1.7c0.9,0.1,1.7,0,2.5-0.4h0v0h0l-1.9,6l0.8-0.5l2-6.2
				c0.5-0.5,1-1.1,1.3-1.7c0.9,0,1.8-0.3,2.6-0.7v0l-0.7,4.8l0.8-0.7l0.6-4.8l0.4-0.5l0.5-0.9v0l1.7-0.9c0.6-0.4,1.1-0.7,1.6-1.1
				l-0.4,4.6l0.8-0.7l0.4-5.4c0.9-0.5,1.7-1,2.5-1.7c0.6-0.6,1.2-1.2,1.7-1.8l0,0l0.1,1.2c0,0.7,0.1,1.4,0.1,2.1v1.2l0.7-0.9v0
				c0-0.8,0-1.6-0.1-2.5v0c-0.1-1.1-0.2-2.3-0.5-3.4c0.7-0.5,1.4-1,2-1.6c0.6-0.6,1-1.2,1.5-1.9c0.1,0.7,0.2,1.4,0.3,2.1
				c0.1,0.9,0.1,1.8,0.1,2.6l0,0.8l0.7-0.6v0c0-1,0-2-0.1-3c-0.1-1.4-0.4-2.9-0.7-4.2v0c0.6-0.6,1.2-1.3,1.7-1.9
				c0.7-0.7,1.2-1.5,1.8-2.3l0.4,1.5c0.3,1.5,0.5,3,0.6,4.4l0.6-0.6c-0.1-1.3-0.3-2.7-0.6-4c-0.2-1.2-0.7-2.5-1.1-3.7
				c0.6-0.5,1-1.1,1.5-1.8c0.4-0.6,0.8-1.2,1.1-1.8l0.3,0.9c0.6,1.7,1.1,3.5,1.3,5.3v0l0.6-0.7c-0.3-1.6-0.7-3.3-1.3-4.8
				c-0.4-1.3-1-2.6-1.7-3.8h0c0.8-1.1,1.5-2.3,2.2-3.6v0l0.5-1.2h0c0.4,0.7,0.7,1.4,1,2.2c0.7,1.6,1.2,3.3,1.7,5v0l0.5-0.9
				c-0.5-1.5-1-3-1.6-4.4c-0.7-1.6-1.4-3.1-2.3-4.6c0.8-0.8,1.5-1.9,1.7-3l3,5.2l0.3-0.8l-3.2-5.5c0-1.4-0.5-2.8-1.3-3.8H115
				c0.6-0.6,1.1-1.5,1.4-2.3l0.2-0.5l4.2,5.7l0.1-1l-4.1-5.6l-0.1-1.6c-0.3-0.9-0.9-1.7-1.6-2.2c0.3-0.9,0.5-1.9,0.6-2.9v-0.9
				l4.5,4.6l0-1l-4.8-5c-0.3-0.7-0.7-1.3-1.3-1.8h0c0.4-1.4,0.5-2.8,0.4-4.3v0l0-0.3l4.6,3.7v-0.9l-4.9-3.9
				c-0.4-1.3-1.3-2.5-2.4-3.3l0-0.1c0.3-1,0.5-2.1,0.3-3.2l4.7,3.8l-0.1-1l-4.9-3.9l-0.4-1c-0.9-1.7-2.4-2.9-4.2-3.4
				c-0.2-0.8-0.5-1.5-0.8-2.2l6.9,3l-0.5-0.9l-6.7-2.9c-0.3-0.7-0.8-1.4-1.2-2l-0.3-0.5c-0.7-1.1-1.5-2.2-2.4-3.2l5.2,1l-0.7-0.8
				l-5.1-1l-0.9-1.1c-1.2-1.4-2.6-2.8-4.1-4l4.6,0.3l-0.7-0.7l-4.8-0.3l-0.1-0.1c-1.3-1-2.6-2-3.9-2.9l4.9,0.3L95.9,13l-5.7-0.3
				c-1.3-0.8-2.6-1.5-4-2.2l1-0.3l1.2-0.4l0.3-0.2L89,9.4l0-0.1l0-0.1l-0.2-0.1l-0.4-0.2l-0.6-0.2c-2.8-0.8-5.6-1.4-8.4-1.9h0
				c-3.8-0.5-7.5-1.5-11.1-3c-1.1-0.5-2.2-1-3.3-1.6h0c2.3-1,4.7-1.5,7.2-1.5c6,0.1,11.7,2.1,16.5,5.6l1.5,1l0.4,0.2h0.2l0.1,0
				l0-0.1V7.3L90.8,7l-0.5-0.8l-0.6-0.8l-0.5-0.6h0c1.3,0.5,2.5,1.1,3.7,1.7l3.1,5.3l0.9,0.2L94,7v0c1.5,0.8,3,1.6,4.4,2.6v0
				l3.3,6.3l0.9,0.3l-3-5.8c1.9,1.3,3.7,2.6,5.5,4.1h0l2.9,8.1l0.8,0.3l-2.7-7.5h0c2,1.7,3.8,3.6,5.6,5.6l2.2,9.6l0.8,0.5l-2-9v0
				c1.8,2.1,3.4,4.3,5,6.6v0v10.1l0.7,1.2V29.6c1.2,1.9,2.3,3.9,3.3,5.9v0l-1,11.6l0.6,0.6l0.9-11l0,0c1.4,2.9,2.5,5.9,3.5,8.9v-0.1
				l-3.7,9.8l0.3,1l3.7-9.7c0.6,2.1,1.1,4.1,1.5,6.3l-5,12.6l0.4,0.9l4.8-12.2v0c0.4,2.7,0.7,5.4,0.8,8.1l-7.1,10.8l0.2,1l7-10.6
				v1.4c0,2-0.1,4.1-0.2,6.2v0l-8.2,9.6v1.1l8.1-9.4l0,0c-0.3,2.6-0.8,5.3-1.3,7.8v0l-9.5,8.2l0,1l9.2-7.9l0,0
				c-0.6,2.3-1.3,4.6-2.2,6.9l0,0l-9.7,5.5l-0.2,1l9.5-5.4c-0.8,2-1.7,4-2.6,5.8l-11.2,4.9l-0.4,0.9l11.1-4.8l0,0
				c-0.8,1.6-1.7,3.1-2.7,4.6h0l-11.9,4.7l-1,1.1l12.3-4.8l0,0c-1.3,1.9-2.6,3.8-4.1,5.5l0,0l-12.5,3l-0.5,0.8l12.1-2.8
				c-1.2,1.4-2.6,2.8-3.9,4.2l0,0l-12.7,2.3l-0.7,0.9l12.4-2.2l0,0c-2.1,1.9-4.2,3.7-6.5,5.3l0,0l-11.6,0.4l-0.8,0.8l11.3-0.4h0
				c-1.8,1.3-3.8,2.4-5.7,3.5h0l-9.5-0.5L82.8,120.2z"/>
			<path d="M84.9,122.3l9.3,0.5c1.8-0.9,3.5-2,5.1-3.1l-11.1,0.4l1.2-1.2l11.7-0.4c2.1-1.5,4.1-3.1,6-4.8L94.7,116l1.1-1.3l12.7-2.3
				c1.2-1.2,2.4-2.4,3.5-3.6l-12,2.8l0.8-1.3l12.5-3c1.3-1.6,2.6-3.2,3.7-4.9l-11.6,4.6l-0.2-0.3l1-1.1l11.9-4.7
				c0.8-1.3,1.6-2.6,2.4-4l-11,4.8l0.6-1.4l11.2-4.9c0.9-1.7,1.7-3.5,2.4-5.3l-9.5,5.3l0.4-1.5l9.7-5.5c0.8-2,1.4-4.1,2-6.2
				l-9.1,7.8l0-1.5l9.5-8.2c0.5-2.3,1-4.7,1.2-7.1l-8,9.3l0-1.6l8.2-9.6c0.2-2,0.3-4,0.3-6.1l0-0.8l-6.9,10.5l-0.3-1.5l7.2-10.9
				c-0.1-2.4-0.3-4.9-0.7-7.3l-4.7,12l-0.6-1.4l5-12.6c-0.3-1.9-0.8-3.8-1.3-5.6l-3.6,9.7l-0.6-1.6l3.7-9.8
				c-0.8-2.8-1.9-5.5-3.1-8.2l-0.9,10.8l-1-1l1-11.6c-0.9-1.8-1.9-3.6-2.9-5.3v10.4l-1.1-2V28.7c-1.4-2.1-2.8-4.1-4.4-6l1.9,8.6
				l-1.2-0.7l-2.2-9.6c-1.6-1.8-3.3-3.5-5-5l2.6,7.3l-1.3-0.5l-2.9-8.1c-1.5-1.3-3.1-2.5-4.8-3.6l2.9,5.5l-1.4-0.4l-3.3-6.3
				c-1.2-0.8-2.5-1.5-3.7-2.2l2.7,4.6l-1.4-0.2l-3.1-5.3c-0.9-0.5-1.9-0.9-2.9-1.4L90.5,6L91,6.9l0.1,0.3v0.1l0,0.2L91,7.6l0,0
				l-0.1,0l-0.2,0h0l-0.2,0l-0.5-0.2l-1.5-0.9C83.8,3,78.1,1.1,72.2,0.9h-0.4c-2.2,0-4.4,0.5-6.4,1.3c1,0.5,1.9,0.9,2.9,1.4
				c3.5,1.5,7.2,2.5,11,3h0c2.9,0.4,5.7,1,8.4,1.9l0.6,0.2l0.5,0.2l0.2,0.2l0.1,0.2l0,0.3L89,9.7h0h0l-0.4,0.2l-1.3,0.4l-0.5,0.1
				c1.2,0.6,2.3,1.3,3.5,2l5.7,0.3l0.6,1.1l-4.5-0.2c1.2,0.8,2.3,1.6,3.3,2.5h0l4.9,0.3l1.1,1.1l-4.5-0.2c1.3,1.1,2.6,2.4,3.7,3.6
				l0.8,1l5.2,1l1.1,1.3l-5.2-1.1c0.7,0.9,1.4,1.8,2,2.8l0.3,0.4c0.4,0.6,0.8,1.2,1.2,1.9l6.7,3l0.7,1.5l-6.9-3l0.6,1.7
				c1.8,0.5,3.4,1.8,4.2,3.5l0.4,1l4.9,3.9l0.2,1.5l-4.7-3.8l0,0.5c0,0.8-0.1,1.5-0.4,2.3c1.1,0.8,2,1.9,2.4,3.3l4.9,3.9V49
				l-4.5-3.7v0.8c0,1.1-0.1,2.2-0.4,3.3c0.5,0.5,1,1.1,1.3,1.7l4.8,5v1.5l-4.5-4.6l0,0.4c-0.1,0.9-0.3,1.8-0.5,2.7
				c0.8,0.5,1.4,1.3,1.6,2.2l0.2,1.1l-0.1,0.5l4.2,5.6l-0.2,1.6l-4.3-5.8l0,0.1c-0.3,0.8-0.7,1.6-1.3,2.2c0.8,1,1.2,2.3,1.2,3.7
				l0,0.1l3.3,5.6l-0.5,1.2l-3-5.1c-0.3,1-0.8,1.9-1.5,2.6c0.8,1.4,1.5,2.9,2.2,4.5c0.6,1.5,1.1,2.9,1.6,4.4l0,0l-0.5,1l-0.1-0.1
				l-0.2,0.1c-0.5-1.7-1.1-3.4-1.7-5c-0.2-0.6-0.5-1.2-0.8-1.8l-0.3,0.8v0l0,0c-0.6,1.2-1.3,2.3-2.1,3.5c0.7,1.2,1.2,2.4,1.7,3.7
				c0.6,1.6,1,3.2,1.3,4.9l0,0.1l-0.6,0.8l-0.1-0.1l-0.2,0c-0.3-1.8-0.7-3.6-1.3-5.3l-0.2-0.5l-0.9,1.4c-0.4,0.6-0.9,1.2-1.4,1.7
				c0.5,1.2,0.8,2.4,1.1,3.6c0.3,1.3,0.5,2.7,0.6,4v0.1l-0.7,0.6l-0.1-0.1l-0.2,0c-0.1-1.5-0.3-3-0.6-4.4v0l-0.3-1.1
				c-0.5,0.7-1,1.3-1.6,2c-0.6,0.6-1.1,1.3-1.7,1.8c0.3,1.4,0.6,2.8,0.7,4.2c0.1,0.9,0.2,1.7,0.2,2.5v0.4h-0.2l0.1,0.1l-1,0.9l0-0.4
				v-0.8c0-0.8-0.1-1.8-0.1-2.6l-0.2-1.6l-1.3,1.5c-0.6,0.6-1.2,1.1-1.9,1.5c0.2,1.1,0.4,2.2,0.5,3.3c0,0.7,0.1,1.4,0.1,2.1l0,0.4
				h-0.2l0.1,0.1l-1,1.3l0-0.6l0-0.6l0-0.6c0-0.7,0-1.4-0.1-2.1l-0.1-0.8l-1.5,1.5c-0.8,0.6-1.5,1.2-2.4,1.7l-0.5,5.4l-1.2,1.2
				l0.4-4.7l-1.3,0.9l-1.6,0.9l-0.4,0.9l-0.4,0.5l-0.7,4.8l-1.2,1.1L93,110c-0.7,0.3-1.5,0.5-2.2,0.5c-0.3,0.6-0.8,1.2-1.3,1.6
				l-2,6.2l-1.3,0.6l1.9-6l-1.6,0.3l-0.5,0c-0.3,0.7-0.8,1.3-1.5,1.6l-1.5,5.2L84.9,122.3z M94.2,123.2L94.2,123.2l-9.5-0.5l-2-2.4
				l0.1-0.1l0.2,0.1l-0.2-0.1l-0.1,0.1l-0.1-0.1l1.6-5.5l0.1,0.1l0-0.2c0.7-0.3,1.2-0.9,1.4-1.6l0.1-0.1h0.2l0.6,0
				c0.6,0,1.3-0.1,1.8-0.4l0,0h0.1v0.1l0.2,0.1l-1.8,5.6l0.4-0.2l1.9-6.2l0.1,0c0.5-0.4,1-1,1.2-1.6l0.1-0.1h0.2
				c0.9,0,1.7-0.2,2.4-0.7l0.1,0.2l0.2,0v0.1h0l-0.6,4.2l0.3-0.3l0.7-4.7l0,0l0.4-0.5l0.4-0.8l0,0l0.1,0l-0.1-0.1h0l0.1,0l-0.1-0.1
				c0.6-0.3,1.2-0.6,1.7-0.9c0.6-0.4,1.1-0.7,1.6-1.2l0.3-0.3l-0.4,4.6l0.3-0.3l0.5-5.4l0.1-0.1c0.9-0.5,1.7-1,2.4-1.7
				c0.6-0.5,1.2-1.1,1.7-1.8l0.1-0.2l0.1,0.2l0.1,0.1v0.1l0.1,1.3c0,0.7,0.1,1.4,0.1,2.1l0,0.6v0l0.3-0.3v-0.4c0-0.7,0-1.4-0.1-2
				c-0.1-1.1-0.2-2.3-0.5-3.4l0-0.2l0.1-0.1c0.7-0.5,1.4-1,2-1.6c0.6-0.6,1-1.2,1.5-1.9l0.2-0.4l0.1,0.5c0.1,0.7,0.3,1.4,0.3,2.1
				c0.1,0.9,0.1,1.8,0.1,2.6v0.4l0.3-0.3c0-1,0-1.9-0.1-2.8c-0.1-1.4-0.4-2.8-0.8-4.2l0.2,0l-0.1-0.1c0.6-0.6,1.2-1.3,1.8-1.9
				c0.6-0.7,1.2-1.5,1.8-2.2l0.1,0.1l0.2,0l0.4,1.5v0c0.3,1.3,0.5,2.7,0.5,4l0.3-0.2c-0.1-1.3-0.3-2.6-0.6-3.9
				c-0.3-1.2-0.6-2.5-1.1-3.6l-0.1-0.1l0.1-0.1c0.5-0.5,1-1.1,1.4-1.8c0.4-0.6,0.8-1.2,1.1-1.8l0.2-0.4l0.2,0.4l0.4,0.9
				c0.6,1.6,1,3.3,1.3,4.9l0.3-0.3c-0.3-1.6-0.7-3.2-1.3-4.7c-0.5-1.3-1-2.6-1.7-3.8l0.1-0.1l-0.1-0.1c0.7-1.1,1.4-2.3,2.1-3.5v0
				l0,0l0.5-1.2l0-0.3l0.3,0.2l0,0l0,0c0.3,0.7,0.7,1.4,1,2.2c0.6,1.5,1.1,3,1.6,4.6l0.2-0.4c-0.4-1.5-1-2.9-1.5-4.3
				c-0.7-1.6-1.4-3.1-2.3-4.6l-0.1-0.1l0.1-0.1c0.8-0.8,1.4-1.8,1.6-2.9l0.1-0.5l3.1,5.3l0.2-0.3l-3.2-5.5v-0.2
				c0-1.3-0.4-2.5-1.2-3.5h-0.4l0.3-0.3c0.6-0.6,1-1.4,1.3-2.2l0.3-0.9l4.1,5.6l0.1-0.4l-4.2-5.6l0-0.1l0-0.5l-0.2-1
				c-0.2-0.9-0.8-1.6-1.6-2.1l0.1-0.1l-0.2,0v-0.4l0.1,0.1c0.2-0.9,0.4-1.7,0.5-2.6l0-0.5l0-0.4l0-0.5l4.6,4.7l0-0.5l-4.8-4.9l0,0
				c-0.3-0.6-0.7-1.2-1.2-1.7l-0.1-0.1l0-0.2c0.3-1.1,0.4-2.3,0.4-3.4l0-0.9l-0.1-0.3l-0.1-0.5l4.7,3.8v-0.4l-4.8-3.9l0-0.1
				c-0.4-1.3-1.2-2.4-2.3-3.1l-0.2-0.2l0.1-0.1c0.3-0.8,0.4-1.5,0.4-2.3l-0.1-0.9l0-0.4l4.7,3.7l0-0.4l-4.8-3.9l0,0l-0.4-1.1
				c-0.8-1.6-2.3-2.8-4-3.3l-0.1,0l0-0.1c-0.2-0.7-0.5-1.5-0.8-2.2l-0.2-0.4l6.9,3l-0.2-0.4l-6.7-3l0,0c-0.3-0.7-0.7-1.3-1.2-1.9
				l-0.3-0.5c-0.7-1.1-1.5-2.1-2.3-3.2l-0.4-0.4l5.2,1.1l-0.3-0.4l-5.2-1l-0.9-1.2c-1.3-1.4-2.7-2.7-4.1-4l-0.5-0.4l4.7,0.3
				l-0.3-0.3l-4.8-0.2l-0.1,0l-0.1-0.1c-1.3-1-2.6-1.9-3.9-2.8l-0.6-0.4l5.2,0.3l-0.2-0.3l-5.6-0.3l0,0c-1.3-0.8-2.6-1.6-4-2.2
				l0-0.1l0-0.3l1-0.3l1.3-0.4l0.2-0.1l0.1-0.1v0l-0.1-0.1h0L88.3,9l-0.6-0.2c-2.8-0.8-5.6-1.4-8.4-1.8h0C75.4,6.5,71.7,5.5,68.1,4
				c-1.1-0.5-2.2-1-3.3-1.6l0.1-0.3l0-0.1c2.2-1,4.5-1.5,6.9-1.5h0.4c6,0.1,11.8,2.1,16.6,5.6l1.5,0.9l0.4,0.2h0.1V7.3l-0.1-0.2
				l-0.5-0.8l-0.6-0.8L89,4.8l-0.3-0.3h0.4l0.1,0c1.2,0.5,2.5,1.1,3.7,1.7l0.1,0l3.1,5.2l0.4,0.1l-2.6-4.4l-0.1,0V6.3l0.3,0.6
				c1.5,0.8,3,1.7,4.4,2.6l-0.1,0.1l0.1,0l3.3,6.2l0.4,0.1l-2.9-5.7h0.4l0.1,0c1.9,1.3,3.7,2.6,5.5,4.1v0l-0.1,0.1l0.1,0l2.9,8
				l0.3,0.2l-2.6-7.4h0.4l0,0c2,1.7,3.8,3.6,5.6,5.6l0,0l2.1,9.6l0.4,0.2l-2.1-9.2l0.5,0.5l0,0c1.8,2.1,3.4,4.3,5,6.6l-0.1,0.1h0.2
				v10.1l0.3,0.5v-9.6h0.2l0.1-0.1c1.2,1.9,2.3,3.9,3.3,5.9l-0.1,0.1l0.1,0v0l-1,11.5l0.3,0.3l1-11l0.3,0.3l0,0l0,0.1
				c1.3,2.9,2.5,5.9,3.4,9l-0.1,0h0.1v0.1l-0.1,0l0.1,0l-3.7,9.7l0.1,0.4l3.7-9.8l0.2,0.6c0.6,2.1,1.1,4.2,1.4,6.3h0l0,0l-0.1,0
				l0.1,0l-4.9,12.5l0.2,0.4l4.7-11.7l0.3,0.1h0.1c0.4,2.5,0.6,5,0.8,7.5l0,0v0.6l-0.2,0l0.1,0.1l-7.1,10.8l0.1,0.5l7.1-10.7l0,2.1
				c0,2-0.1,4.1-0.3,6.2l-0.1,0l0.1,0.1l-8.1,9.6v0.4l7.7-9l0.2,0.2h0.1c-0.3,2.6-0.7,5.2-1.3,7.8l-0.1,0l0.1,0.1l-9.4,8.1l0,0.4
				l8.9-7.7l0.3,0.2l0,0v0c-0.6,2.2-1.2,4.3-2,6.4l0-0.1l-0.2,0.6l0,0l-0.1-0.1l0.1,0.1l-9.7,5.5l-0.1,0.4l9.4-5.3v0.4
				c-0.8,2-1.7,4-2.7,5.9l-0.1,0l0,0.1l-0.1,0l0.1,0.1l-11.2,4.9l-0.2,0.4l11.1-4.8l-0.2,0.5l0,0c-0.9,1.6-1.7,3.1-2.7,4.6l0,0l0,0
				l0,0l-0.1-0.1l0,0.1l-11.9,4.7l-0.4,0.5l11.5-4.5l0.2,0.3l0,0c-1.2,1.8-2.4,3.4-3.7,5.1l0.1,0l-0.5,0.5h0l-0.1-0.1l0,0.1
				l-12.4,2.9l-0.2,0.4l12.4-2.9l-0.5,0.5c-1.1,1.3-2.3,2.5-3.5,3.7h0l-0.5,0.4l0,0l-0.1-0.1l0,0.1L96,115l-0.3,0.4l12.5-2.2
				l-0.4,0.5l0,0c-2.1,1.9-4.2,3.7-6.5,5.3l-0.1-0.1v0.1l-11.6,0.4l-0.4,0.4l10.8-0.4l0.1,0.4h0C98.2,120.9,96.3,122.1,94.2,123.2
				l0-0.1L94.2,123.2L94.2,123.2z"/>
			<path class="st1" d="M46.4,120.2l-2,2.3L35,123l0,0c-2-1.1-3.9-2.2-5.7-3.5h0l11.3,0.4l-0.7-0.8l-11.6-0.4v0
				c-2.3-1.6-4.5-3.4-6.5-5.3v0l12.4,2.2l-0.8-0.9l-12.7-2.3c-1.3-1.3-2.7-2.7-3.9-4.2v0l12.1,2.8l-0.5-0.8l-12.4-3
				c-1.5-1.8-2.9-3.6-4.2-5.5h0l12.2,4.8l-0.9-1.1l-12-4.7v0c-0.9-1.5-1.8-3-2.7-4.6l11.1,4.8l-0.4-0.9L7.9,95.3v0
				c-1-1.9-1.9-3.9-2.6-5.9v0l9.5,5.4l-0.2-1l-9.7-5.5h0c-0.8-2.3-1.5-4.6-2.1-6.9l9.3,7.9l-0.1-1l-9.5-8.2v0
				c-0.6-2.6-1.1-5.2-1.3-7.8l8.1,9.4l0-1.1L1,71.2v0c-0.2-2-0.3-4.1-0.3-6.1l0-1.4l7,10.6l0.2-1L0.8,62.4c0.1-2.7,0.4-5.4,0.8-8.1
				l4.8,12.2l0.4-0.9L1.8,53c0.4-2.1,0.9-4.2,1.5-6.3l3.6,9.7l0.4-1l-3.7-9.8c0.9-3,2.1-6.1,3.5-8.9l0.9,11l0.7-0.6l-1-11.6
				c1-2,2.1-4,3.3-5.9v10.3l0.7-1.2V28.6c1.5-2.3,3.2-4.5,5-6.6l-2,9l0.8-0.5l2.2-9.6c1.8-2,3.6-3.8,5.6-5.6l-2.7,7.5l0.8-0.3
				l2.9-8.1c1.8-1.5,3.6-2.9,5.5-4.1l-3,5.8l0.9-0.3l3.3-6.3c1.4-0.9,2.9-1.8,4.4-2.6l-2.8,4.9l0.9-0.2l3.1-5.3
				c1.2-0.6,2.4-1.2,3.7-1.7l-0.5,0.6l-1,1.4l-0.2,0.4l0,0.2l0,0.1l0.1,0.1h0.1l0.3-0.1L39.8,7l0.8-0.6c4.8-3.5,10.6-5.5,16.6-5.6
				c2.5,0,4.9,0.5,7.2,1.5l0,0c-4.4,2.3-9.1,3.9-14,4.5h0L50,6.8c-2.8,0.5-5.6,1.1-8.4,1.9l-0.9,0.3l-0.3,0.2l-0.1,0.1v0.2l0.1,0.2
				l0.3,0.2l1.2,0.4l0.1,0l1,0.3c-1.4,0.7-2.7,1.4-4,2.2L33.4,13L33,13.7l4.9-0.3c-1.4,0.9-2.7,1.8-3.9,2.9l0,0.1h0L29,16.6
				l-0.7,0.7l4.6-0.3c-1.5,1.2-2.8,2.6-4.1,4l-0.9,1.1l-5.1,1L22.1,24l5.2-1c-0.9,1-1.6,2-2.4,3.2c-0.5,0.6-0.9,1.3-1.3,1.9
				l-0.3,0.5l-6.7,2.9l-0.4,0.9l6.9-3c-0.3,0.7-0.6,1.4-0.9,2.2c-1.8,0.5-3.3,1.7-4.2,3.4l-0.4,1L12.8,40l-0.1,1l4.7-3.8
				c-0.1,1.1,0,2.2,0.4,3.2c-1.2,0.8-2,1.9-2.5,3.2l0,0.1l-4.8,3.9v0.9l4.6-3.7c-0.1,1.4,0,2.8,0.2,4.2v0l0.1,0.4
				c-0.6,0.5-1,1-1.3,1.7v0l-4.8,5l0,1l4.5-4.6c0,0.8,0,1.6,0.2,2.4l0.3,1.3c-0.8,0.5-1.4,1.2-1.6,2.2L12.5,60l-4.1,5.6l0.1,1
				l4.2-5.7l0.2,0.5v0c0.3,0.8,0.7,1.7,1.3,2.3c-0.9,1.1-1.3,2.4-1.3,3.8L9.7,73l0.3,0.8l3.1-5.2c0.2,1.2,0.8,2.2,1.7,3
				c-0.8,1.5-1.6,3-2.3,4.6c-0.6,1.4-1.1,2.9-1.5,4.4l0.5,0.9c0.5-1.7,1.1-3.4,1.7-5c0.3-0.8,0.6-1.5,1-2.2l0.6,1.5h0
				c0.6,1.1,1.3,2.2,2,3.3v0c-0.7,1.2-1.2,2.5-1.7,3.8c-0.6,1.6-1,3.2-1.3,4.8l0.6,0.7c0.3-1.8,0.7-3.6,1.4-5.3l0.3-0.9h0
				c0.3,0.6,0.7,1.3,1.1,1.8c0.4,0.6,0.9,1.2,1.5,1.8c-0.5,1.2-0.8,2.4-1.1,3.7c-0.3,1.3-0.5,2.7-0.6,4l0.7,0.6
				c0.1-1.5,0.3-3,0.6-4.4l0.4-1.5v0c0.6,0.8,1.2,1.5,1.8,2.3c0.6,0.7,1.2,1.3,1.8,2h0c-0.4,1.4-0.6,2.8-0.8,4.2
				c-0.1,1-0.1,1.9-0.1,2.9l0.7,0.6l0-0.8c0-0.9,0-1.8,0.1-2.6c0.1-0.7,0.1-1.4,0.3-2.1h0c0.4,0.7,0.9,1.3,1.5,1.9
				c0.6,0.6,1.3,1.1,2,1.6c-0.2,1.1-0.4,2.3-0.5,3.4c-0.1,0.8-0.1,1.6-0.1,2.5l0.7,0.9v-1.2c0-0.7,0-1.4,0.1-2.1l0.1-1.2
				c0.5,0.7,1.1,1.2,1.7,1.8c0.8,0.7,1.6,1.2,2.5,1.7h0l0.4,5.4l0.7,0.7l-0.4-4.6v0l1.6,1.2c0.6,0.3,1.1,0.6,1.7,0.9l0.4,0.9l0,0h0
				l0.4,0.5l0.6,4.8l0.8,0.7l-0.7-4.8c0.8,0.5,1.7,0.8,2.6,0.8v0c0.3,0.7,0.8,1.2,1.3,1.7l1.9,6.2l0.9,0.5l-1.9-6h0l0,0
				c0.8,0.4,1.6,0.5,2.5,0.4c0.2,0.7,0.8,1.4,1.5,1.7L46.4,120.2z"/>
			<path d="M35.1,122.8l9.3-0.5l1.8-2.2l-1.4-5.2c-0.7-0.3-1.2-0.9-1.5-1.6l-0.5,0l-1.6-0.3l1.9,6l-1.3-0.6l-2-6.2
				c-0.5-0.4-0.9-1-1.3-1.6c-0.8,0-1.5-0.2-2.2-0.6l0.7,4.9l-1.3-1.1l-0.6-4.8l-0.4-0.5l-0.2-0.3h0l-0.2-0.6
				c-0.6-0.2-1.1-0.5-1.6-0.9l-1.3-0.9l0.4,4.7l-1.2-1.2l-0.5-5.3c-0.9-0.5-1.7-1-2.4-1.7l-1.5-1.5l-0.1,0.8c0,0.7-0.1,1.4-0.1,2.1
				v1.7l-1.1-1.3v-0.1c0-0.8,0-1.7,0.1-2.5c0.1-1.1,0.2-2.2,0.4-3.3c-0.7-0.4-1.4-0.9-1.9-1.5l-1.2-1.5l-0.2,1.6
				c-0.1,0.8-0.1,1.5-0.1,2.3l0,0.3v0l0,0.2l0,0.6l0,0.5L21,99.7v-0.1c0-1,0-2,0.1-3c0.1-1.4,0.4-2.8,0.8-4.1
				c-0.6-0.6-1.2-1.2-1.7-1.9c-0.5-0.6-1.1-1.3-1.6-2l-0.3,1.1c-0.3,1.4-0.5,2.9-0.6,4.4l0,0.4l-1-0.9v-0.1c0.1-1.4,0.3-2.7,0.6-4
				c0.3-1.2,0.7-2.4,1.1-3.6c-0.5-0.5-1-1.1-1.4-1.7L16,82.8l-0.2,0.5c-0.6,1.7-1.1,3.5-1.4,5.3l0,0.4l-0.9-1.1l0-0.1
				c0.3-1.6,0.7-3.3,1.3-4.9c0.5-1.3,1-2.5,1.7-3.7c-0.7-1.1-1.3-2.1-1.9-3.2h0l-0.5-1.1c-0.3,0.6-0.5,1.2-0.8,1.8
				c-0.7,1.6-1.2,3.3-1.7,5l-0.1,0.5l-0.7-1.4l0,0c0.5-1.5,1-3,1.6-4.5c0.7-1.5,1.4-3.1,2.2-4.5c-0.7-0.7-1.2-1.6-1.5-2.6l-3,5.1
				L9.5,73l3.3-5.6v-0.1c0-1.4,0.4-2.7,1.2-3.7c-0.5-0.6-1-1.4-1.3-2.2l0-0.1l-4.3,5.8l-0.2-1.6l4.1-5.6l0-0.5l0.1-1.1
				c0.3-0.9,0.8-1.7,1.7-2.2l-0.3-1.2c-0.2-0.7-0.3-1.3-0.3-1.9L9,57.6l0-1.5l4.9-5c0.3-0.7,0.7-1.2,1.3-1.7L15,49.1v0
				c-0.2-1-0.3-1.9-0.3-2.9l0.1-0.9L10.2,49v-1.4l4.9-3.9l0-0.1c0.5-1.3,1.3-2.4,2.4-3.2c-0.2-0.7-0.4-1.5-0.4-2.2l0-0.5l-4.7,3.8
				l0.2-1.5l4.9-3.9l0.4-1c0.9-1.7,2.4-2.9,4.2-3.5l0.6-1.7l-6.9,3l0.7-1.5l6.7-3l0.2-0.4c0.4-0.7,0.9-1.3,1.3-1.9
				c0.6-1,1.3-1.9,2-2.8l-5.2,1.1l1.1-1.3l5.2-1l0.9-1c1.2-1.3,2.4-2.5,3.7-3.6l-4.5,0.2l1-1.1l4.8-0.3h0c1.1-0.9,2.2-1.7,3.4-2.5
				l-4.5,0.2l0.6-1.1l5.7-0.3c1.1-0.7,2.3-1.4,3.5-2L42,10.4l-0.1,0l-1.2-0.4l-0.3-0.2l-0.2-0.2l0-0.2l0-0.2l0.2-0.2l0.3-0.2
				l0.9-0.3c2.8-0.8,5.6-1.4,8.4-1.9l0.4-0.1c4.7-0.6,9.3-2.1,13.6-4.3c-2-0.8-4.2-1.3-6.4-1.3h-0.4C51.2,1.1,45.5,3,40.7,6.5
				l-0.8,0.6L39,7.6l-0.3,0.1h0l-0.2,0l-0.2-0.2V7.3V7.1l0.2-0.5l1-1.4c-1,0.4-1.9,0.9-2.9,1.4l-3.1,5.3L32,12.1l2.7-4.6
				c-1.3,0.7-2.5,1.4-3.7,2.2l-3.3,6.3l-1.4,0.4l2.8-5.5c-1.6,1.1-3.2,2.3-4.8,3.6l-2.9,8.1l-1.3,0.5l2.6-7.2c-1.8,1.6-3.5,3.3-5,5
				l-2.2,9.6l-1.2,0.7l1.9-8.7c-1.6,1.9-3,3.9-4.4,6v10.1l-1,1.9V30.3c-1.1,1.7-2,3.5-2.9,5.3l1,11.6l-1,1L6.9,37.4
				c-1.2,2.6-2.2,5.4-3.1,8.2l3.7,9.8L6.9,57l-3.6-9.7C2.8,49.2,2.4,51.1,2,53l5,12.6L6.4,67l-4.7-12c-0.4,2.4-0.6,4.9-0.7,7.3
				l7.2,10.8l-0.3,1.5L0.9,64.3l0,0.8c0,2,0.1,4,0.3,6.1l8.2,9.6l0,1.6l-8-9.3c0.3,2.4,0.7,4.8,1.3,7.1l9.5,8.2l0,1.5L3.1,82
				c0.6,2.1,1.2,4.1,2,6.2l9.7,5.5l0.3,1.5l-9.4-5.3c0.7,1.8,1.5,3.6,2.4,5.3l11.2,4.9l0.6,1.4l-11-4.7c0.7,1.4,1.5,2.7,2.4,4
				l11.9,4.7l1,1.1l-0.2,0.3l-11.7-4.6c1.1,1.7,2.4,3.4,3.7,4.9l12.5,3l0.8,1.3l-12-2.8c1.1,1.3,2.3,2.5,3.5,3.6l12.7,2.3l1.2,1.3
				l-12.3-2.2c1.9,1.8,3.9,3.3,6,4.8l11.7,0.4l1.1,1.2l-11.1-0.4C31.6,120.8,33.3,121.8,35.1,122.8 M34.9,123.1
				c-2-1.1-3.9-2.2-5.7-3.5l-0.5-0.4h0.7l10.8,0.4l-0.3-0.4L28.1,119l0-0.1c-2.3-1.6-4.4-3.4-6.5-5.3l-0.1,0V113l0.3,0.3l11.9,2.1
				l-0.4-0.4l-12.7-2.3v-0.1c-1.3-1.3-2.6-2.6-3.8-4l-0.1,0v-0.7l0.3,0.3l11.6,2.7l-0.2-0.4l-12.4-3l0,0c-1.5-1.8-2.9-3.6-4.2-5.6
				l0.2-0.2l0-0.1l11.5,4.5l-0.4-0.5L11,101v-0.1C10,99.5,9.2,98,8.4,96.4l-0.1,0v-0.1l0.2-0.1l0-0.1l10.6,4.6l-0.2-0.4L7.8,95.4
				v-0.1c-1-1.9-1.8-3.8-2.6-5.7l0,0v-0.1l0.2,0l0.1-0.1l9.1,5.2L14.5,94l-9.7-5.5l0,0l0,0v0c-0.8-2.2-1.5-4.5-2.1-6.9h0v-0.1
				l0.2-0.1l0.1-0.1l8.9,7.7v-0.4l-9.5-8.2v-0.1c-0.6-2.6-1-5.1-1.3-7.7v-0.1l0.2,0l0.1-0.1l7.8,9v-0.4l-8.2-9.6v-0.1
				c-0.2-2-0.3-4.1-0.3-6.1L0.6,63l7.1,10.7l0.1-0.5L0.6,62.5v-0.1c0.1-2.7,0.3-5.4,0.8-8.1l0.1-0.7L6.4,66l0.2-0.4L1.6,53v0
				c0.4-2.1,0.9-4.2,1.5-6.3l0.2-0.6l3.7,9.8l0.2-0.5l-3.7-9.8l0-0.1c0.9-3.1,2.1-6.1,3.4-9L7.2,36l0.9,11.3L8.4,47l-1-11.6l0,0
				c1-2,2.1-4,3.3-5.9l0.4-0.6v10.2l0.3-0.5V28.5l0,0c1.5-2.3,3.2-4.5,5-6.6l0.3,0.1l-1.9,8.6l0.3-0.2l2.1-9.6l0.1,0
				c1.7-2,3.6-3.8,5.6-5.6l0.5-0.5l-2.7,7.8l0.3-0.2l2.9-8.1l0,0c1.8-1.5,3.6-2.9,5.5-4.1l0.6-0.4l-3.1,6l0.4-0.1l3.3-6.2l0.1,0
				c1.4-0.9,2.9-1.8,4.4-2.6l0.6-0.3l-3,5.1l0.4-0.1l3.1-5.2l0,0c1.2-0.6,2.4-1.2,3.7-1.7l0.2,0.3l-0.5,0.6l-1,1.3l-0.2,0.4l0,0.1v0
				h0l0.2-0.1l0.8-0.4l0.8-0.6c4.9-3.6,10.7-5.5,16.7-5.6h0.4c2.4,0,4.7,0.5,6.9,1.5l0.2,0.1l-0.2,0.2l0,0l0,0
				c-4.4,2.3-9.1,3.9-14,4.5L50,7c-2.8,0.4-5.6,1.1-8.4,1.8l-0.8,0.3l-0.2,0.2l0,0l0,0v0l0,0.1l0.3,0.2l1.1,0.4l0.1,0l1,0.2l0.6,0.1
				l-0.5,0.2c-1.3,0.7-2.7,1.4-4,2.2l0,0l-5.6,0.3l-0.2,0.3l5.2-0.3L38,13.6c-1.4,0.9-2.6,1.9-3.9,2.9L34,16.5l0,0h0l-0.1,0
				l-4.8,0.2l-0.3,0.3l4.7-0.3l-0.5,0.4c-1.4,1.2-2.8,2.6-4.1,4L28,22.4l-5.1,1l-0.3,0.4l5.2-1l-0.3,0.4c-0.8,1-1.6,2.1-2.4,3.2
				c-0.5,0.6-0.9,1.3-1.3,1.9l-0.3,0.5l0,0l-6.7,3l-0.2,0.4l6.9-3l-0.2,0.4c-0.3,0.7-0.6,1.4-0.8,2.2l0,0.1l-0.1,0
				c-1.8,0.5-3.2,1.6-4.1,3.3l-0.4,1l0,0l-4.8,3.9l0,0.4l4.7-3.7l-0.1,0.5l-0.1,0.9c0,0.7,0.1,1.5,0.4,2.2v0.2l-0.1,0.1
				c-1.1,0.7-1.9,1.8-2.3,3.1l-0.1,0.2l-4.8,3.9v0.4l4.6-3.8l-0.1,0.5l-0.1,1.3c0,1,0.1,1.9,0.3,2.9l0,0.1l0.1,0.5l-0.1,0.1
				c-0.5,0.5-1,1-1.3,1.6v0l-4.8,4.9v0.5l4.6-4.7v0.5v0.3c0,0.7,0.1,1.4,0.2,2l0.4,1.5l-0.1,0.1c-0.8,0.5-1.3,1.2-1.6,2.1l-0.1,1
				l0,0.5V60l-4.1,5.6l0,0.4l4.1-5.6l0.3,0.8c0.2,0.8,0.7,1.6,1.3,2.2l0.1,0.1l-0.1,0.1c-0.8,1-1.3,2.3-1.3,3.6v0.2L9.9,73l0.1,0.3
				l3.1-5.3l0.1,0.5c0.2,1.1,0.8,2.2,1.7,2.9l0.1,0.1l-0.1,0.1c-0.8,1.5-1.6,3-2.3,4.6c-0.6,1.4-1.1,2.8-1.5,4.3l0.2,0.4
				c0.5-1.6,1-3.1,1.6-4.6c0.3-0.8,0.6-1.5,1-2.2l0.2-0.4l0.1,0.5l0.6,1.5c0.6,1.1,1.2,2.2,1.9,3.3l0.1,0.1l-0.1,0.1
				c-0.7,1.2-1.2,2.5-1.7,3.8c-0.6,1.5-1,3.1-1.3,4.7l0.3,0.3c0.3-1.7,0.7-3.3,1.3-4.9l0.3-0.8l-0.1-0.2h0.6l-0.1,0.2
				c0.3,0.6,0.6,1.2,1,1.7c0.4,0.6,0.9,1.2,1.4,1.8l0.1,0.1L18.7,86c-0.4,1.2-0.8,2.4-1.1,3.6c-0.3,1.3-0.5,2.6-0.6,3.9l0.3,0.2
				c0.1-1.3,0.3-2.7,0.6-4.1l0.4-1.5v-0.6l0.3,0.5c0.6,0.8,1.2,1.5,1.8,2.3c0.6,0.6,1.1,1.2,1.7,1.9h0.2l-0.1,0.2
				c-0.4,1.4-0.6,2.8-0.8,4.2c-0.1,0.9-0.1,1.9-0.1,2.8l0.3,0.2v-0.7c0-0.8,0-1.6,0.1-2.3c0.1-0.7,0.1-1.3,0.3-2l-0.2-0.3h0.6l0,0.2
				c0.4,0.6,0.9,1.2,1.4,1.8c0.6,0.6,1.3,1.1,2,1.6l0.1,0.1l0,0.2c-0.2,1.1-0.4,2.3-0.5,3.4c0,0.8-0.1,1.6-0.1,2.4l0.3,0.4v0l0-0.6
				v0c0-0.7,0-1.4,0.1-2.1l0.1-1.3l0-0.4l0.3,0.4c0.5,0.6,1.1,1.2,1.7,1.8c0.7,0.6,1.5,1.2,2.4,1.7h0.2l0.4,5.5l0.4,0.3l-0.4-4.1
				V105l0.3,0.3c0.5,0.4,1,0.8,1.6,1.2c0.5,0.3,1.1,0.6,1.7,0.9l0.1,0l0,0.1l0.4,0.8l0.3,0.4h-0.1l0.2,0.2l0,0l0.6,4.7l0.4,0.3
				l-0.7-4.7l0.3,0.2c0.7,0.5,1.6,0.7,2.4,0.7h0.1v0.1l0.2,0c0.3,0.6,0.7,1.2,1.2,1.6l0,0l2,6.2l0.4,0.2l-1.8-5.6l0.2-0.1v-0.1H41
				l0.1,0.1c0.6,0.3,1.2,0.4,1.7,0.4l0.6,0h0.2l0,0.1c0.2,0.7,0.7,1.3,1.4,1.6l0.1,0l1.6,5.4l-0.2,0.1l0.2-0.1l0,0.1l-2.1,2.5
				L34.9,123.1L34.9,123.1z"/>
			<path class="st2" d="M106.1,56.4l1.1-3.1l1-3.5l0-0.1l0.2-0.2c0.6-1.6,0.9-3.4,1.1-5.1c0.1-1.5,0.1-3-0.1-4.5l-0.6,0.1
				c0.1-1,0-2-0.3-3l-0.4-1.1l-0.5-0.9c0,0.9,0,1.7,0,2.6v0l0,1.5v0c0.2,1.6,0.2,3.1,0.2,4.6c-0.2,3.3-0.8,6.6-1.9,9.7
				c-0.2,0.6-0.4,1.2-0.7,1.8l-0.2,0.4l0.2,0.1L106.1,56.4z"/>
		</g>
		<path class="st2" d="M93.6,80L93.6,80L93.6,80z"/>
		<polygon class="st2" points="93.3,76.1 93.3,76.1 93.3,76.1 		"/>
		<g>
			<path class="st2" d="M102.1,72.5c0.4-0.9,0.7-1.9,0.9-2.9l0.7,0.8l0.3-0.3c0.6-0.7,1-1.6,1-2.5l0.5,0.3l0.1,0.1l0.2-1.1l0-1.2
				l0,0l-0.3,0.3l-1.5,1.7c-1.4,1.6-3,3.1-4.5,4.6h0l-1.6,1.4c-1.3,1.1-2.6,2.2-4,3.3l-0.3,3c1.5-0.8,3-1.8,4.3-2.9l0.3-0.3h0
				l1.8-1.6C100.9,74.5,101.6,73.6,102.1,72.5"/>
		</g>
		<path class="st2" d="M93.9,77L93.9,77L93.9,77z"/>
		<g>
			<path class="st2" d="M108.1,66.1l-0.8,0.8h0c-0.1,0.8-0.2,1.6-0.4,2.4c-0.2,0.8-0.5,1.5-0.9,2.2c0.7-0.5,1.4-1.1,2.1-1.7
				c0.8-0.8,1.5-1.6,2.1-2.4c1.1-1.4,2.1-3,2.9-4.7l-0.3,0l-0.4,0l-0.1,0l-0.6,0.2h0c0.5-0.6,1-1.2,1.3-1.9c0.4-0.8,0.6-1.7,0.6-2.5
				l0,0c-1,1.8-2.2,3.6-3.5,5.3C109.5,64.6,108.9,65.4,108.1,66.1"/>
			<path class="st2" d="M108.1,60.9l-1.1,1.4v0l0,0.2l0,0.3l0,0.4l-0.5,1l0.9,1.6v0l0.8-1c0.9-1.2,1.7-2.5,2.4-3.8
				c0.8-1.5,1.5-3.1,2-4.7v0H112c0.4-0.6,0.6-1.4,0.8-2.1c0.2-0.9,0.3-1.9,0.2-2.9v0c-0.8,2.2-1.7,4.4-2.9,6.4
				C109.6,58.8,108.9,59.9,108.1,60.9"/>
			<path class="st2" d="M108.1,53.9c-0.4,1.3-0.9,2.6-1.5,3.8l0,0l0.8,2v0l0.6-1.2c0.6-1.1,1.1-2.2,1.5-3.4c0.7-1.9,1.3-3.9,1.7-5.9
				l0,0l-1,0.6c0.3-0.8,0.4-1.7,0.5-2.6c0.1-0.9,0-1.9-0.1-2.9l0,0c-0.7,2.8-1.4,5.5-2.4,8.2L108.1,53.9z"/>
			<path class="st2" d="M102.4,80.8c-1.5,0.8-3,1.6-4.5,2.4l-0.6,0.3c-1.5,0.7-3,1.4-4.5,2.1l-0.2,0.1l0,2.1v0l0.1-0.1
				c0.9-0.3,1.9-0.7,2.8-1.2l1.4-0.6l1-0.6l0.5-0.5l1-1.6h0l0.3,0.2l0,0.1L100,84l0.1-0.1l0.4-0.5v0l0.5-0.6l0.3,0.3l0.2,0.6
				l0.7-1.2L102.4,80.8L102.4,80.8z"/>
			<path class="st2" d="M107.7,77.3l-2.3,1.4l-1.5,1l-0.5,0.3l0.1,1.7l-0.4,1.6l0.8-0.4l0.6-0.3l0.9-0.6c0.6-0.4,1.2-0.8,1.7-1.3
				l1-0.9c0.8-0.7,1.5-1.5,2.2-2.3h-1.1c0.6-0.3,1.1-0.8,1.6-1.3l1.3-1.6v0l-4,2.5L107.7,77.3z"/>
		</g>
		<path class="st2" d="M103.2,83.3L103.2,83.3L103.2,83.3z"/>
		<g>
			<path class="st2" d="M112.6,68.1c0.4-0.7,0.6-1.4,0.7-2.1l-4.4,4.2l-0.8,0.7l-2.1,1.9c0.1,0.6,0,1.2-0.1,1.8
				c-0.1,0.7-0.3,1.3-0.5,1.9l-0.3,0.8l0.3-0.2c1-0.5,1.8-1.2,2.7-1.9l1.3-1.2c1.4-1.4,2.5-2.9,3.4-4.6v0l-0.9,0.2l-0.8,0.2
				C111.7,69.3,112.2,68.8,112.6,68.1"/>
			<path class="st2" d="M104,76.1l0.2,0l0.2-0.5l0.3-0.9l0-0.2l0-0.9h0l-0.7,0.6c-2,1.5-3.9,2.9-6,4.3h0l-0.1,0.1c-1.5,1-3,2-4.5,3
				l0,0c0.1,0.7,0.1,1.4-0.2,2.1c1.1-0.4,2.2-1,3.3-1.6l1.1-0.7h0l0.3-0.2c0.9-0.6,1.7-1.3,2.5-2.1c0.6-0.8,1.2-1.6,1.5-2.5l1.1,0.3
				l0.6-0.9L104,76.1z"/>
			<path class="st2" d="M97,73.5l0.9-0.8c1.4-1.4,2.7-2.9,3.8-4.6h0c1.2-1.9,1.8-4.1,1.6-6.3l0.6-0.1l0.9,0v-0.1l0.1-0.4l0-0.2v-1
				l0-1.1v0l0.5,0.2l0.1,0l-0.1-1.5l0-0.1l-0.5-0.8l-0.1,0.2l-0.9,1.9l-3.1,6.3v0c-0.9,1.8-1.8,3.5-2.9,5.2c-1.4,2.1-2.9,4-4.6,5.8
				l0.5,0.3L97,73.5z"/>
			<path class="st2" d="M92.8,78.1l0.2-0.9l-0.2-0.6l0,0c-2,2.1-4.3,3.9-6.8,5.4l-0.1,1.7c1.1-0.2,2.2-0.7,3.1-1.4l0.8-0.6v0
				c0.6-0.4,1-1.1,1.4-1.8l0.3-1.3l0.6,0.3l0.1-0.6l0.1-0.4l0-0.1L92.8,78.1L92.8,78.1z"/>
		</g>
		<polygon class="st2" points="85.9,82 85.9,82 86,82 		"/>
		<path class="st2" d="M93.3,83.8L93.3,83.8L93.3,83.8z"/>
		<polygon class="st2" points="92.6,85.8 92.6,85.8 92.6,85.7 		"/>
		<g>
			<path class="st2" d="M83.4,80c2.6-1.8,4.8-4.3,6.4-7.2v0l0.1-0.1l0.7-1.5c0.4-1.1,0.8-2.3,1-3.5v0c0.2-1.6,0.5-3.3,0.9-4.9
				c0.3-1.4,0.9-2.6,1.7-3.7l0.6-0.7c0.7-0.6,1.4-1.3,2.2-1.9l0,0c3.3-2.6,5.6-6.3,6.6-10.4l-0.2,0.1l-0.6,0.7l-0.2,0.4V47l-0.1-0.3
				l-0.7,1.3c-1.9,2.9-4.1,5.6-6.6,8c-1,1-1.9,2-2.8,3.1l-0.8,1.6c-0.2,0.8-0.3,1.5-0.3,2.3v0c-0.1,0.9-0.2,1.8-0.4,2.6l-0.2,1
				c-0.8,3.3-2.3,6.3-4.4,8.8c-0.9,1.1-1.9,2-3,2.8c-1.6,1.1-3.5,1.7-5.5,1.8L77,79.8v0.1l0.1,0.2l0.2,0.5l0.1,0.1l0.1,0.3l0.1,0.7
				l0,0.2l0.1,0.1l0,0.1l0.1,0C79.7,81.9,81.6,81.2,83.4,80"/>
		</g>
		<polygon class="st2" points="95.1,55.9 95.1,55.9 95.1,55.9 		"/>
		<g>
			<path class="st2" d="M104.2,46.4c-0.6,2.5-1.8,4.9-3.3,6.9c-1.2,1.6-2.6,3-4.2,4.2L96,58.1l-1.3,1.4c-0.5,0.7-1,1.5-1.2,2.3
				c-0.4,1.4-0.7,2.8-0.9,4.2l-0.3,1.6c-0.3,1.8-0.8,3.5-1.6,5.1l-0.3,0.5c-0.8,1.4-1.8,2.8-2.8,4c-2.5,3.1-6,5.1-9.9,5.6h0l0.7,1.5
				l-0.1,0c2.8-0.7,5.5-1.9,7.9-3.4c1.5-1.1,3-2.2,4.4-3.4c5.2-4.7,9.2-10.7,11.5-17.5c1.3-3.5,2.1-7.3,2.1-11v-0.7
				C104.2,47.6,104.2,47,104.2,46.4"/>
		</g>
		<polygon class="st2" points="79.9,96.9 79.9,96.9 80,96.9 		"/>
		<g>
			<path class="st2" d="M81.9,96.2l0.2-0.1l0.7-0.5c0.5-0.5,0.9-1.2,1-2l-1,0.4l-0.9,0.3c-0.6,0.2-1.2,0.4-1.9,0.5l0,0
				c0,0.7-0.1,1.3-0.1,2C80.6,96.7,81.3,96.5,81.9,96.2"/>
		</g>
		<polygon class="st2" points="82,100.1 81.9,100.1 81.1,100.3 81.1,100.3 81,100.3 80.4,100.4 79.9,100.6 79.3,101.1 79.1,102.8 
			79.2,102.8 79.4,102.7 79.5,102.7 79.7,102.5 80.4,101.9 80.6,101.6 80.9,101.3 80.9,101.2 81.4,101.1 81.8,101 81.8,100.8 
			81.9,100.5 81.9,100.4 81.9,100.4 82.1,100.1 		"/>
		<polygon class="st2" points="87.5,98 86,98.2 85.8,98.2 85.7,98.2 85.2,98.3 85,98.3 83.9,98.3 83.6,98.3 83,99.3 82.9,99.5 
			82.2,100.1 82.9,100.2 83.5,100.2 83.9,100.1 85,99.8 85.2,99.7 85.2,99.7 85.7,99.4 85.9,99.1 86,99.3 86.1,99.3 86.3,99.6 
			86.4,99.5 86.7,99.3 86.9,99.2 87,99.1 87.1,99.3 87.2,99.3 87.2,99.4 87.5,99.1 87.7,98.8 88,97.9 		"/>
		<g>
			<path class="st2" d="M81.7,93.3l0.2-0.1l0.9-0.8l0.9-1.3v0l-0.9,0.3l-0.9,0.3c-0.6,0.2-1.3,0.3-1.9,0.4c0.1,0.6,0.1,1.2,0.1,1.8
				C80.7,93.8,81.2,93.6,81.7,93.3"/>
			<path class="st2" d="M83.9,86.4l-1.1,0.5l-0.9,0.3h0c-0.8,0.2-1.7,0.4-2.5,0.5h0c0.2,0.9,0.3,1.7,0.4,2.6l0,0l0.3,0.1l0.2,0
				c0.6-0.1,1.1-0.4,1.6-0.7l0-0.1h0l0.5-0.3l0.5-0.4l0.2-0.2l0.3-1.2l0.5,0H84l0.1-0.1l0.5-0.7v-0.8L83.9,86.4z"/>
		</g>
		<polygon class="st2" points="88.5,94.7 87.8,94.9 87.8,94.9 87.5,95 86.9,95.2 86.1,95.4 86.2,95.4 86.4,95.8 86,96.1 85.8,96.2 
			85.7,96.3 85.2,96.7 85,96.8 84.3,97.3 84.9,97.3 85,97.1 85.1,97.1 85.2,97.1 85.3,97 85.4,96.8 85.7,96.8 86,96.9 86.3,97 
			87.3,96.6 87.5,96.5 88.2,96.3 88.5,95.9 89.1,95.8 89.2,95.8 89.3,95.8 89.5,95.4 89.5,94.7 89.1,94.7 		"/>
		<path class="st2" d="M79.5,99.9L79.5,99.9L79.5,99.9z"/>
		<polygon class="st2" points="83.4,97.1 82.9,97.1 82.9,97.1 82.8,97.1 82.4,97.3 81.9,97.5 81.5,97.7 80.8,97.9 79.8,98.1 
			79.5,99.9 81.1,99.2 81.1,99.2 81.1,99.2 81.9,98.8 81.9,98.7 82.8,98.2 82.9,98.1 83.2,97.8 83.5,97.4 83.5,97.2 83.5,97.1 
			83.5,97.1 		"/>
		<polygon class="st2" points="91.6,86.7 91.5,86.8 90.5,87.2 89.1,87.8 88.6,88 87.5,88.4 86,89 85.7,89.1 85.2,89.2 85,89.3 
			84.9,89.3 85,91 85,91 85.2,90.9 85.7,90.9 86,90.8 86.9,90.5 86.9,90.5 87.5,90.3 87.8,90.1 89.1,89.3 89.2,89.2 89.9,88.1 
			90,88.2 90.1,88.3 90.2,88.8 90.5,88.5 90.7,88.2 90.9,87.7 91,87.9 91.1,87.9 91.1,88 91.2,88.3 91.5,87.7 91.5,87.4 91.6,86.7 
					"/>
		<path class="st2" d="M87.2,99.4L87.2,99.4L87.2,99.4z"/>
		<g>
			<path class="st2" d="M95.6,96.5l0.2-0.2l0.5-1.2l0,0l-0.6,0.1c-0.8,0.2-1.7,0.4-2.5,0.6l-1.6,0.3l-0.9,0.1h0l0,0.1L89.4,97
				l-0.2,0.2l-0.7,0.7l0.3,0.5h0.4l1.4-0.1l0.1,0h0l0.2,0l0.6-0.2l1.1-0.4l0.2-0.1l0.7-0.5h0l0.1,0l0.3,0.2l0.1,0H94l0.1-0.1
				l0.4-0.4l0.5-0.3l0,0.2l0.1,0.2l0,0l0.1,0.1l0.1,0.1l0.1-0.1v0L95.6,96.5z"/>
		</g>
		<path class="st2" d="M84.9,89.3L84.9,89.3L84.9,89.3z"/>
		<g>
			<path class="st2" d="M98.3,92l0.1-0.2h0l-0.1,0c-0.9,0.2-1.8,0.5-2.6,0.7l-0.5,0.1c-1.2,0.2-2.4,0.4-3.6,0.4h0L91.5,93l-0.9,1.3
				l-0.3,0.4l0.3,0.8l0,0l0.9-0.2l1.3-0.4l0.6-0.2l1.5-0.9l0-0.1l0.5-0.6l0.1,0.1l0.1,0.1l0.1,0.1l0.1,0.2v0.2l0.8-0.6l0.4-0.5h0
				l0.1,0.1l0.1,0l0.1,0.3l0,0l0.6-0.5v0L98.3,92z"/>
			<path class="st2" d="M91.5,90.2L91.5,90.2l-0.1,1.6h0.1c0.7-0.1,1.4-0.1,2.1-0.3l0.3-0.1c0.6-0.1,1.2-0.3,1.7-0.6l0.3-0.2
				c0.8-0.5,1.5-1.1,2-1.9l0.3,0.1h0.2l0.4-0.3v0L99,88l0.3,0.2l0.4,0l0.1-0.8l0-1.1l-1.6,0.9c-0.7,0.3-1.4,0.6-2.2,0.8l-0.5,0.1
				c-1,0.2-1.9,0.4-3,0.5l-0.3,0.8L91.5,90.2z"/>
		</g>
		<path class="st2" d="M90.5,95.6L90.5,95.6L90.5,95.6z"/>
		<polygon class="st2" points="87.5,104.9 86.8,105 86,105 85.7,105 85.2,105 85,105 84.8,104.9 84.2,105.6 83.9,105.8 83.3,106.2 
			83.9,106.3 84.2,106.4 84.3,106.4 85.2,106.4 85.4,106.3 85.6,106.3 85.7,106.3 86,106.2 86.4,105.9 86.8,105.6 87.1,105.6 
			87.1,105.9 87.3,106.1 87.3,106 87.5,105.7 87.6,105.7 88,105.4 88.2,105.6 88.1,105.7 88.1,105.8 88,105.9 88,105.9 88,105.9 
			88.8,105.3 89.1,104.7 89.1,104.6 		"/>
		<polygon class="st2" points="90.8,91.2 90.5,91.3 89.1,91.7 88,91.9 87.5,91.9 86,92 85.7,92.1 85.2,92 84.9,92 84.4,92.8 
			84.2,93.3 85,94.1 85,94.2 85.2,94.2 85.7,94.2 86,94.2 87.2,94 87.5,93.8 87.8,93.7 88.2,93.4 88.5,92.5 88.7,92.5 88.9,92.6 
			89.1,92.7 89.1,92.7 89.3,92.7 89.7,92.5 89.7,92.4 89.7,92.3 89.7,92.2 89.7,92.1 89.7,92.1 89.8,92 90.2,91.9 90.2,92.2 
			90.2,92.2 90.3,92.3 90.4,92.4 90.5,92.2 90.7,91.9 90.8,91.2 		"/>
		<polygon class="st2" points="86,101.3 85.7,101.4 85.2,101.5 85,101.5 84.7,101.5 83.9,101.6 82.9,101.5 82,101.4 82,101.9 
			81.9,102.1 81.7,102.6 81.9,102.6 82.9,102.6 83,102.6 83.1,102.6 83.7,102.4 83.8,102.3 83.9,102.2 84,102.2 84.7,101.9 
			84.7,102 84.7,102 84.6,102.3 85,102.3 85.1,102.2 85.2,102.2 85.4,101.9 85.4,101.9 85.7,101.9 86,101.8 86,101.7 86.2,101.3 		
			"/>
		<g>
			<path class="st2" d="M80.6,110.2l0.7,0h0.1l0.3-0.1l0.3-0.1h0l0.3,0.1l0.3,0.1l0.3,0h0l1.1-0.4l0.5-0.5l-0.5,0h-1.1l-0.1,0
				l-0.8-0.1c-0.8-0.2-1.5-0.5-2.2-0.8l-1-0.7c0,0.6,0,1.3,0,1.9c0.5,0.4,1.1,0.6,1.6,0.6H80.6z"/>
			<path class="st2" d="M98.3,99.4l-0.7,0.1h0.1l-2,0.3l-1.6,0.3l-1.1,1.1l-1.4,1l0,0.5l0,0.1l-0.1,0.2l-0.2,0.2l0.2,0
				c1.4-0.1,2.8-0.4,4.2-0.8l1-0.3v0l1.7-0.7l1.1-0.6l-0.1,0l-0.8-0.1l-0.2-0.1l-0.1-0.1l-0.3-0.4l0.3-0.1l0.3-0.1l1.6-0.4
				c0.7-0.3,1.2-0.6,1.8-1.1h0C100.7,99,99.5,99.2,98.3,99.4"/>
			<path class="st2" d="M92.9,104.5l-1.4,0l-0.9,0h-0.3l-0.5,1.1v0l-0.1,0.1l-0.5,0.8v0l1.4-0.1l0.9-0.1l0.6,0
				c0.9-0.1,1.8-0.2,2.8-0.4h0l-0.6-0.3l-0.5-0.5h0l1.2-0.4l0.7-0.3l0.8-0.4l-0.8,0.1L92.9,104.5z"/>
		</g>
		<polygon class="st2" points="85.7,110.2 86,110.4 86.1,110.4 87.1,110.7 86.2,111.2 86,111.4 85.8,111.7 85.8,111.7 86,111.7 
			86.9,111.7 87.4,111.6 87.5,111.5 87.7,111.3 87.5,111.2 87.5,111.2 87.2,111 87.2,111 87.3,110.9 87.3,110.9 87.3,110.8 
			87.5,110.7 87.5,110.7 88.6,110.4 88.6,110.4 87.5,110.4 86,110.2 85.7,110.1 85.5,110 		"/>
		<path class="st2" d="M95,98.6L95,98.6L95,98.6z"/>
		<polygon class="st2" points="90.5,102.4 89.1,102.5 89,102.5 87.5,102.6 86.7,102.7 86,103.1 85.9,103.3 85.7,103.4 85.7,103.4 
			85.2,104 85.7,104 86,104 87.3,104 87.5,104 87.5,104 88,103.9 88.1,103.9 88.6,103.6 89,103.3 89.1,103.4 89.2,103.5 89.3,103.5 
			89.3,103.6 89.7,103.2 89.7,103.1 90,103 90.1,103.1 90.1,103.1 90.2,103.3 90.5,103.1 90.8,102.7 90.9,102.3 		"/>
		<g>
			<path class="st2" d="M106.2,83.1l-1,0.5l-3.9,1.9l-0.4,3.9c1.5-0.4,3-1,4.3-1.9l0.3-0.2c1.5-1,2.8-2.1,3.9-3.5l-0.1,0l-0.9,0.1
				l-0.9-0.1l1.3-0.9c0.9-0.7,1.7-1.5,2.3-2.4L106.2,83.1z"/>
			<path class="st2" d="M101.6,94.3c-0.9,0.4-1.8,0.7-2.7,1v0l-0.7,0.2l-1.1,0.2l-1,1.6L95.6,98L95,98.6l0.6,0l1-0.1l1.7-0.4
				c0.7-0.2,1.5-0.5,2.2-0.9c1-0.5,1.9-0.9,2.8-1.5h0l-1.4-0.1l-0.9-0.2c0.7-0.2,1.4-0.5,2.1-0.9c0.6-0.4,1.2-0.8,1.7-1.3l0,0
				L101.6,94.3L101.6,94.3z"/>
		</g>
		<polygon class="st2" points="82.6,107.1 82,107.6 81.9,107.7 81.5,108.2 81.7,108.3 81.9,108.4 82.3,108.5 82.6,108.5 82.9,108.6 
			83.1,108.6 83.7,108.4 83.9,108.2 83.9,108.2 84.2,108.3 84.2,108.3 84.3,108.5 84.9,108.4 84.9,108.4 85,108.3 85.2,108.2 
			85.2,108.2 85.2,108.3 85.3,108.4 85.4,108.5 85.5,108.6 85.7,108.5 86,108.3 86.1,108.2 86.3,107.9 86.3,107.9 86,107.9 
			85.7,107.7 85.2,107.6 85,107.6 84.8,107.5 84.4,107.4 83.9,107.3 83.5,107.2 82.9,107.1 		"/>
		<g>
			<path class="st2" d="M105.1,88.8l-0.9,0.4c-1.6,0.8-3.3,1.5-5,2.2h0l-0.2,1.6l-0.8,1.5l-0.1,0.1l0.1,0c1.6-0.4,3.2-1,4.6-1.8
				c0.8-0.5,1.6-1,2.3-1.6l1-0.9h-0.3l-0.5,0l-0.1,0l-0.2,0l-0.3,0l0.3-0.1c0.8-0.3,1.5-0.8,2.2-1.3v0l0.1,0c0.8-0.7,1.4-1.5,2-2.4
				l0,0C108,87.2,106.6,88,105.1,88.8"/>
		</g>
		<path class="st2" d="M98.1,94.5L98.1,94.5L98.1,94.5z"/>
		<polygon class="st2" points="91.5,107.3 90.5,107.4 89.7,107.4 89.1,107.4 87.5,107.5 87.1,107.5 86.7,108.3 86,109 85.7,109.3 
			86,109.3 86.2,109.3 87.5,109.2 88.7,109.1 89.1,109 90.5,108.5 90.6,108.5 90.5,108.5 90.3,108.5 90.1,108.4 89.9,108.2 
			89.8,108.2 89.8,108.2 90.5,108.1 91.5,107.9 91.7,107.8 93.1,107.1 		"/>
		<g>
			<path class="st2" d="M85.1,85.4l0,0.3l0.2,1.6l0.3,0l0.4,0l1.5-0.3l1.6-0.7l0.4-0.2l1-0.9l0.9-1.1c0.4-0.6,0.8-1.3,1.1-2h0
				l-1.1,0.6l-0.9,0.5l-1.1,0.4l-0.3,0.1l-1.6,0.4L86,84.4l-0.2,0h0l0,0.1l-0.2,0.3L85.6,85L85.1,85.4L85.1,85.4z"/>
		</g>
		<path class="st2" d="M79.2,87L79.2,87L79.2,87z"/>
		<g>
			<path class="st2" d="M81.9,85.8l0.3-0.2l0.6-0.5l1.1-1.2l0.1-0.1l0.2,0.3l0.4-0.3l-0.1-0.3l0.2-0.2l0.2,0.2l0.1-0.1l0.1-0.2
				l0-0.1v-0.6L85,82.4L83.9,83l-1.1,0.6l-0.9,0.4c-1.1,0.4-2.2,0.8-3.4,1c0.2,0.7,0.5,1.4,0.6,2C80.1,86.7,81.1,86.3,81.9,85.8"/>
		</g>
		<path class="st2" d="M85.3,87.3L85.3,87.3L85.3,87.3z"/>
		<polygon class="st2" points="91.7,99.3 91.5,99.3 90.5,99.4 89.1,99.5 88.8,99.5 88.7,100.1 88.6,100.2 88.4,100.4 88,100.7 
			87.7,100.9 87.5,101 87,101.4 87.3,101.5 87.5,101.6 87.9,101.7 89.1,101.7 89.1,101.6 89.1,101.6 89.9,101.5 90.5,101 
			90.9,100.5 91.2,100 91.2,100.1 91.3,100.2 91.3,100.2 91.3,100.3 91.3,100.5 91.4,100.5 91.5,100.4 91.9,100.1 92.1,99.9 
			92.2,99.9 92.3,100.1 92.5,100.2 92.9,99.9 93.3,99 		"/>
		<polygon class="st2" points="79.8,103.5 78.6,103.8 79.6,104.4 79.7,104.4 80.5,104.7 81.1,104.7 81.9,104.6 82.6,104.5 
			82.9,104.5 83,104.4 83.9,104.1 84.6,103.8 83.9,103.7 82.9,103.6 82,103.4 81.9,103.4 80.9,103.1 		"/>
		<g>
			<path class="st2" d="M80.8,112l0.6,0l0.3-0.1l0.2-0.1l0.1-0.1l-0.1,0c-1.1-0.3-2.1-0.6-3.1-1.1l0.1,1.5v0l0.8,0L80.8,112
				L80.8,112z"/>
		</g>
		<polygon class="st2" points="84.4,112.4 84.4,112.4 83.9,112.6 83,112.9 83,112.9 82.9,112.9 83.9,113.1 85,112.7 85.2,112.6 
			85.2,112.5 85,112.5 84.8,112.5 84.7,112.5 84.6,112.4 84.4,112.4 		"/>
		<g>
			<path class="st2" d="M82.8,113.2l-0.1-0.2v0h0l-0.4,0.1h0l-0.2,0c-0.6,0.1-1.2,0.1-1.8,0.1h-0.1l-0.3,0l0.4,0.2l0.9,0.2l0.5,0.1
				l0.3,0l0.5-0.1l0.5-0.2l0,0l0-0.1L82.8,113.2z"/>
		</g>
		<polygon class="st2" points="78.8,106.2 78.9,106.2 78.9,106.2 79,106.3 79.2,106.5 79.3,106.7 79.9,106.7 80.2,106.6 80.5,106.5 
			81.1,106.6 81.1,106.6 81.3,106.7 81.5,106.8 81.5,106.8 81.8,106.7 81.9,106.7 81.9,106.7 82,106.6 82.1,106.3 81.9,106.2 
			80.4,105.6 78.9,105 		"/>
		<g>
			<path class="st2" d="M24.5,73.9l0.1,0.9l0.2,0.5l0.3,0.9l0.2,0l0.3-0.1l0.6,0.9l1.1-0.3l0.2,0.5c0.4,0.7,0.8,1.4,1.3,2l0.9,0.9
				l0.5,0.4c0.8,0.6,1.6,1.2,2.5,1.6l0.3,0.2c1,0.6,2,1,3,1.4c-0.2-0.7-0.2-1.4-0.1-2.2l-0.1,0c-0.9-0.6-1.9-1.2-2.8-1.8
				c-0.6-0.4-1.2-0.8-1.8-1.3l-1-0.6c-0.9-0.6-1.8-1.2-2.6-1.9c-0.8-0.6-1.5-1.1-2.3-1.7l-0.8-0.6l0,0.1L24.5,73.9z"/>
			<path class="st2" d="M23.8,57.6l-0.1,1.5l0.1,0l0.5-0.2l0,1.1v0.2l0,0.9l0,0.1l0.1,0.4l0.9,0l0.7,0c-0.1,1.2,0,2.5,0.4,3.7
				c0.3,1,0.8,1.9,1.3,2.7c0.5,0.9,1.2,1.8,1.9,2.6h0l0.7,0.8c0.9,0.9,1.9,1.9,2.8,2.7c0.8,0.8,1.7,1.5,2.5,2.3l0.5-0.3
				c-1-1.1-2-2.3-3-3.5c-1-1.3-1.9-2.6-2.8-4.1c-0.6-1.1-1.3-2.2-1.8-3.4l0,0l-0.1-0.3l-0.7-1.5l-2.3-4.7l-1-2l-0.5,0.8L23.8,57.6z"
				/>
			<path class="st2" d="M21.6,35v2.6C21.6,36.7,21.6,35.9,21.6,35"/>
			<path class="st2" d="M20.9,49.5l0.2,0.2v0.1l1,3.5l1,3.1l0.6-0.6l0.2-0.2v0l-0.2-0.4c-0.2-0.6-0.4-1.1-0.6-1.7
				c-1.1-3.2-1.7-6.4-1.8-9.8v0v-1.5l0.3-4.6V35l-0.5,0.9L20.7,37c-0.3,1-0.4,2-0.3,3l-0.6-0.1c-0.1,1.5-0.2,3,0,4.5
				C19.9,46.1,20.3,47.8,20.9,49.5"/>
		</g>
		<path class="st2" d="M26.8,80.8L26.8,80.8L26.8,80.8z"/>
		<g>
			<path class="st2" d="M23.5,66.9l0.2,1.1l0.1-0.1l0.5-0.3c0,0.9,0.4,1.8,1,2.5l0.3,0.3l0.7-0.8c0.1,1,0.4,2,0.9,2.9l0.4,0.8
				l0.9,1.2c0.6,0.6,1.2,1.1,1.7,1.7l0.8,0.7c0.6,0.5,1.3,1.1,2,1.6c0.9,0.6,1.8,1.1,2.7,1.6l-0.3-3c-0.8-0.6-1.6-1.2-2.3-1.9
				c-0.9-0.8-1.8-1.6-2.8-2.4l-0.5-0.5c-0.7-0.7-1.4-1.4-2.1-2.1c-0.8-0.8-1.5-1.6-2.3-2.4c-0.5-0.6-1-1.1-1.5-1.8l-0.3-0.3
				L23.5,66.9z"/>
			<path class="st2" d="M31.9,83.5l-1.6-0.8c-0.9-0.5-1.8-1-2.6-1.4l-0.8-0.5l0.3,1.7l0.6,1.1l0.1,0.1l0.2-0.6l0.3-0.3l0.5,0.6
				l0.1,0.1l0.5,0.5l0-0.1l0.2-0.3l0.4-0.2l0.4,0.8l0.6,0.8l1.2,0.9l1,0.5l0.7,0.3c0.9,0.5,1.9,0.9,2.9,1.2l0.1-2.1l-0.1,0
				c-1.2-0.5-2.4-1.1-3.6-1.6L31.9,83.5z"/>
			<path class="st2" d="M19.6,55.1c0.5,1.2,0.9,2.3,1.5,3.4l0.6,1.2h0l0.9-2l0,0c-0.5-1.2-1-2.5-1.5-3.8l-0.4-1.4
				c-0.9-2.7-1.7-5.4-2.3-8.2c-0.1,0.9-0.1,1.9,0,2.9c0.1,0.9,0.2,1.7,0.5,2.6l-0.9-0.6C18.3,51.2,18.9,53.1,19.6,55.1"/>
		</g>
		<path class="st2" d="M23.5,65.7L23.5,65.7L23.5,65.7z"/>
		<g>
			<path class="st2" d="M37.9,90.3l-0.9-0.8l-0.4-0.8c-1.2-0.1-2.3-0.3-3.4-0.7L33,87.9c-0.9-0.3-1.9-0.7-2.8-1.1l-0.8-0.5l0.1,1.1
				l0.1,0.8l0.4,0l0.3-0.1l0.1,0l0.2,0.6l0.4,0.3h0.2l0.2-0.1c0.5,0.7,1,1.3,1.7,1.7l0.3,0.2l0.3,0.2c0.7,0.3,1.4,0.5,2.1,0.7
				c0.8,0.2,1.5,0.3,2.3,0.3L37.9,90.3z"/>
		</g>
		<path class="st2" d="M19.8,86.3L19.8,86.3L19.8,86.3z"/>
		<g>
			<path class="st2" d="M17.2,56.3h-0.6c0.5,1.6,1.2,3.2,2,4.7c0.7,1.3,1.6,2.6,2.5,3.8l0.8,0.9l0.9-1.6l-0.5-1l0-0.3l0-0.3
				l-0.1-0.2L21.1,61c-0.7-1.1-1.4-2.2-2.1-3.3c-1.1-2-2.1-4.2-2.8-6.4v0c-0.1,1,0,1.9,0.2,2.9C16.6,54.9,16.9,55.6,17.2,56.3"/>
			<path class="st2" d="M30.2,92.9L30,91.3h0c-0.8-0.3-1.6-0.6-2.4-0.9c-0.8-0.4-1.5-0.7-2.3-1L25,89.2l-1.2-0.6
				c-0.9-0.5-1.8-1-2.7-1.5l-1.3-0.8l0.2,0.2v0l1.1,1.4l0.8,0.8c0.5,0.5,1.2,0.9,1.9,1.2l0.7,0.3l-0.1,0l-0.5-0.1h-0.2l-0.5,0
				l0.7,0.7l1.5,1.2l1.1,0.8l1.2,0.6c0.9,0.4,1.7,0.8,2.6,1l0.9,0.2l-0.9-1.4L30.2,92.9z"/>
			<path class="st2" d="M20,77.4h-1.1c0.7,0.8,1.4,1.6,2.2,2.3l1,0.9l1.7,1.3l1,0.6l0.6,0.3l0.8,0.4l-0.4-1.6l0.1-1.7l-0.6-0.3
				l-1.5-0.9l-2.2-1.4L21.1,77l-4-2.5c0.3,0.6,0.8,1.2,1.3,1.6C18.9,76.7,19.4,77.1,20,77.4"/>
			<path class="st2" d="M21.1,83.5l0.7,0.4l-0.7,0.1h-0.2h-0.4l-0.6-0.1l1.2,1.3c0.8,0.8,1.7,1.5,2.7,2.2l0.1,0l1.4,0.9
				c0.8,0.3,1.5,0.7,2.3,1l0.8,0.2h0L28,85.5l-0.5-0.2l-2.3-1.1l-1.5-0.7l-0.7-0.3l-2-1l-3-1.5c0.7,0.9,1.5,1.8,2.3,2.4L21.1,83.5z"
				/>
		</g>
		<polygon class="st2" points="16.1,62.7 16.2,62.7 16.1,62.7 		"/>
		<path class="st2" d="M15.5,58.5L15.5,58.5L15.5,58.5z"/>
		<g>
			<path class="st2" d="M17.5,63l-0.1-0.1l-0.6-0.2l-0.2,0l-0.4,0c0.7,1.7,1.7,3.3,2.8,4.7c0.7,0.9,1.4,1.7,2.1,2.4
				c0.6,0.6,1.3,1.2,2.1,1.7c-0.4-0.7-0.7-1.5-0.9-2.3c-0.2-0.8-0.3-1.6-0.4-2.4h0l-0.8-0.7c-0.7-0.8-1.4-1.5-2-2.3
				c-1.3-1.7-2.5-3.4-3.5-5.3c0,0.9,0.2,1.8,0.6,2.5C16.5,61.7,17,62.4,17.5,63"/>
			<path class="st2" d="M16.4,69.5c0.9,1.7,2,3.2,3.3,4.6l1.4,1.2c0.9,0.7,1.7,1.3,2.7,1.9l0.4,0.2l-0.4-0.8
				c-0.2-0.6-0.4-1.3-0.5-1.9c-0.1-0.6-0.2-1.2-0.1-1.8L21.1,71l-0.8-0.7l-4.4-4.2c0.1,0.7,0.3,1.4,0.7,2.1c0.4,0.7,0.9,1.2,1.5,1.7
				l-0.8-0.2L16.4,69.5z"/>
			<path class="st2" d="M39,73.2l-0.3-0.4l-0.5-1.1c-0.7-1.8-1.2-3.7-1.4-5.6h0c-0.2-1-0.4-2-0.6-3.1c-0.3-1.3-0.8-2.5-1.6-3.5
				l-0.3-0.4c-0.6-0.6-1.1-1.1-1.8-1.6L32,57c-3.4-2.7-5.8-6.4-6.8-10.6v0c-0.1,1.3-0.2,2.7-0.1,4.1v0c0.8,7.7,3.7,15.1,8.3,21.3
				c1.5,2.2,3.3,4.2,5.3,5.9c3.5,3.1,7.7,5.4,12.2,6.6h0l0.7-1.5c-2.1-0.2-4.2-1-6-2.2C42.9,78.7,40.6,76.2,39,73.2"/>
			<path class="st2" d="M52.6,80.6l-0.3-0.8l-0.6,0.1l-1-0.1c-2.9-0.5-5.6-2.1-7.5-4.5h0c-1.4-1.8-2.5-3.7-3.4-5.8c-0.4-1-0.7-2-1-3
				c-0.3-1.2-0.5-2.4-0.6-3.7v0c-0.1-0.7-0.2-1.4-0.3-2.1c-0.1-0.6-0.4-1.2-0.8-1.7c-0.9-1-1.8-2.1-2.8-3.1l-0.9-0.9h0
				c-2.6-2.5-4.8-5.3-6.5-8.4v0l-0.1,0.1L26.7,47v0.4l-0.1-0.1l-0.5-0.8l-0.4-0.3c0.7,3,2.2,5.8,4.1,8c1.1,1.2,2.3,2.3,3.6,3.3l0,0
				c0.6,0.5,1.1,1,1.6,1.6c0.8,1.2,1.4,2.5,1.7,3.9c0.4,1.6,0.6,3.3,0.9,4.9c0.2,1.1,0.5,2.2,0.9,3.3l0.8,1.7c0.8,1.4,1.8,2.8,2.9,4
				c2.6,3.1,6.2,5,10.1,5.3h0l0.2-0.8L52.6,80.6z"/>
		</g>
		<polygon class="st2" points="38.4,102.7 38.8,103.1 39,103.3 39.1,103.2 39.2,103.1 39.2,103 39.3,103 39.6,103.2 40,103.6 
			40,103.5 40.1,103.5 40.1,103.4 40.2,103.4 40.3,103.3 40.6,103.6 40.7,103.6 41.3,104 41.4,104 41.4,104 41.7,104 42,104 
			43.3,104 43.6,104 44.1,104 44.1,104 44,103.8 43.6,103.4 43.4,103.3 43.3,103.1 42.6,102.7 42.6,102.7 41.7,102.6 40.3,102.5 
			40.1,102.5 38.8,102.4 38.3,102.3 		"/>
		<polygon class="st2" points="45.8,97.1 45.8,97.2 45.8,97.2 45.8,97.4 46.1,97.8 46.4,98.1 46.4,98.2 46.5,98.2 47.4,98.8 
			47.6,98.9 47.6,98.9 48.2,99.2 48.9,99.6 49.8,99.9 49.4,98.1 49.4,98.1 48.9,97.9 48.5,97.9 48.5,97.9 47.8,97.7 47.4,97.5 
			47.3,97.5 46.7,97.3 46.4,97.1 46.3,97.1 45.9,97.1 		"/>
		<polygon class="st2" points="41.2,97.9 41.5,98.8 41.7,99.1 42.1,99.4 42.1,99.4 42.2,99.2 42.2,99.1 42.3,99.2 42.5,99.3 
			42.6,99.3 42.9,99.6 43.1,99.3 43.3,99.3 43.4,99.1 43.6,99.4 44.1,99.7 44.1,99.7 44.2,99.8 44.5,99.9 45.3,100.1 45.8,100.2 
			46.4,100.2 47,100.1 46.4,99.5 46.3,99.3 45.7,98.3 45.7,98.3 45.3,98.3 44.2,98.3 44.1,98.3 43.6,98.2 43.5,98.2 43.3,98.2 
			41.7,98 41.2,97.9 		"/>
		<polygon class="st2" points="36,99 36.4,99.9 36.8,100.2 37,100.1 37,100.1 37.1,100 37.2,99.9 37.4,100.1 37.4,100.1 37.9,100.5 
			38,100.2 38,100.2 38.1,100.1 38.1,100 38.4,100.5 38.8,101 39.4,101.5 39.5,101.5 40.1,101.6 40.2,101.6 41.4,101.7 41.6,101.6 
			41.7,101.6 42.3,101.4 41.9,101.1 41.7,101 41.2,100.6 41.2,100.6 40.8,100.4 40.6,100.1 40.4,99.5 40.1,99.5 38.8,99.4 
			37.6,99.3 37,99.2 36,99 		"/>
		<polygon class="st2" points="47.3,100.2 47.4,100.4 47.4,100.5 47.4,100.7 47.5,101 47.9,101.1 48,101.1 48.4,101.3 48.6,101.6 
			48.9,101.9 48.9,101.9 49.1,102.1 49.8,102.7 49.9,102.7 50.2,102.8 50,101.1 49.4,100.6 49.3,100.5 48.9,100.4 48.7,100.4 
			48.2,100.3 48,100.2 47.4,100.1 47.2,100.1 		"/>
		<g>
			<path class="st2" d="M36.9,77.9L36.9,77.9L36.9,77.9l0.1,0.2l0.1,0.2l0.2,0.5v0l0.6-0.3l0.4,1.3l0.5,0.9l0.2,0.2l1.4,1.3l0.1,0.1
				l1.5,0.9l1.5,0.5l0.1,0l0-1.7h0l-0.1,0l-1.5-1l-1.6-1.2l-1.4-1.1c-0.6-0.5-1.2-1.1-1.8-1.7l-0.5-0.5l-0.2,0.6l0.2,0.9L36.9,77.9z
				"/>
		</g>
		<polygon class="st2" points="38.5,91.9 38.8,92.2 38.9,92.4 39,92.3 39.1,92.2 39.1,92.2 39.1,92.1 39.1,91.9 39.5,92 39.5,92 
			39.6,92.1 39.6,92.4 39.6,92.5 39.7,92.6 40.1,92.7 40.2,92.7 40.4,92.6 40.6,92.5 40.7,92.5 41,93.4 41.5,93.7 41.7,93.8 
			42.1,94 43.3,94.2 43.6,94.2 44.1,94.2 44.2,94.2 45.1,93.3 44.9,92.8 44.4,92 44.1,92 43.6,92.1 43.3,92 41.7,91.9 41.3,91.9 
			40.1,91.7 38.8,91.3 38.5,91.2 		"/>
		<path class="st2" d="M37.7,87.5l0.3,0.8l0-0.2l0-0.1l0.1-0.1l0.1-0.1l0.2,0.5l0.2,0.3l0.3,0.3l0.1-0.5l0.1-0.1l0.1-0.1l0.8,1.1
			l0,0l0.7,0.6l0.9,0.4l0.6,0.2l0.9,0.3l0.3,0.1l0.5,0.1l0.1,0l0.1,0l0-1.7l-0.2,0l-0.1,0l-0.5-0.2L43.3,89l-1.5-0.5L40.6,88h0
			l-0.4-0.2l-1.4-0.6l-1.1-0.5L37.7,87.5z M37.7,86.7L37.7,86.7L37.7,86.7L37.7,86.7z"/>
		<polygon class="st2" points="39.8,94.7 39.8,95.4 39.8,95.4 40.1,95.8 40.1,95.8 40.8,95.9 41.1,96.3 41.7,96.5 42,96.6 43,97 
			43.3,96.9 43.6,96.8 43.6,96.8 43.8,96.8 44,97 44,96.9 44.1,97.1 44.2,97.1 44.2,97.1 44.4,97.3 45,97.3 44.2,96.8 44.1,96.7 
			43.6,96.3 43.4,96.2 43.3,96.1 42.8,95.8 43.1,95.4 42.3,95.2 41.7,95 41.6,95 41.6,95 40.8,94.7 40.1,94.7 		"/>
		<path class="st2" d="M40.1,104.6l0.4,0.7l0.8,0.6v0h0l-0.1-0.1l0-0.1l-0.1-0.2l0.2-0.1l0.4,0.2l0,0.1l0.1,0.1l0.2,0.3l0.2-0.2
			l0-0.3l0.3-0.1l0.3,0.3L43,106l0.3,0.2l0.3,0.1l0.3,0l0.2,0.1h0.2l0.9,0l0.2,0l0.6-0.1l-0.6-0.4l-0.3-0.2l-0.6-0.6l-0.3,0h-0.1
			l-0.5,0h-0.3l-0.8,0l-0.8,0L40.1,104.6L40.1,104.6z M40.1,104.6L40.1,104.6L40.1,104.6z"/>
		<g>
			<path class="st2" d="M47.4,93.2l1.5,0.8l0.3,0.1c0-0.6,0-1.2,0.1-1.8h0l-0.4,0l-1.5-0.3l-0.9-0.3l-1-0.4l0.4,0.7l0.5,0.6
				L47.4,93.2z"/>
			<path class="st2" d="M41.7,84.2l-1.6-0.4l-0.3-0.1l-1-0.4c-0.6-0.3-1.2-0.6-1.8-1l-0.3-0.2l0.3,0.6c0.4,0.9,1,1.8,1.8,2.5l1,0.8
				l0.4,0.2l1.6,0.7l1.5,0.3l0.3,0l0.3,0l0.2-1.6l0-0.3l0,0L43.7,85l0-0.1l-0.1-0.1l-0.2-0.3l-0.2,0L41.7,84.2z"/>
		</g>
		<path class="st2" d="M33,95.1L33,95.1L33,95.1z"/>
		<polygon class="st2" points="43.1,101.3 43.3,101.7 43.3,101.8 43.6,101.9 43.9,101.9 44.1,102.2 44.2,102.2 44.7,102.3 44.6,102 
			44.6,102 44.5,101.9 45.2,102.2 45.3,102.2 45.4,102.3 45.6,102.4 45.6,102.4 46.2,102.6 46.4,102.6 47.4,102.6 47.6,102.6 
			47.4,102 47.3,101.9 47.2,101.4 46.4,101.5 45.3,101.6 44.6,101.5 44.2,101.5 44.1,101.5 43.6,101.4 43.3,101.3 43.1,101.3 		"/>
		<g>
			<path class="st2" d="M45.4,93.6c0.1,0.7,0.5,1.4,1,2l0.7,0.5l0.3,0.1l1.5,0.6l0.5,0.1c-0.1-0.6-0.1-1.3-0.1-2v0l-0.3-0.1
				l-1.5-0.4L46.4,94L45.4,93.6L45.4,93.6z"/>
		</g>
		<polygon class="st2" points="30.9,91.7 30.9,91.8 30.9,91.7 		"/>
		<g>
			<path class="st2" d="M35,96.8l0.2,0.3l0.1,0l0.2,0l0,0l0.3-0.1L36,97l0.7,0.6l0.2,0.1l0.1,0l1.6,0.5l0.2,0l1.4,0.1h0.4l0.3-0.5
				l-0.7-0.7L39.9,97l-1.1-0.7l-0.1-0.1h0c-0.6-0.1-1.1-0.1-1.7-0.2l-0.8-0.2h0c-0.8-0.2-1.7-0.4-2.5-0.6L33,95.1l0.4,1.2h0l0.2,0.2
				l0.4,0.3l0,0l0.1,0l0.1-0.1l0.1-0.1v-0.2l0.5,0.3L35,96.8z"/>
			<path class="st2" d="M47.4,87.2L47.4,87.2l-0.9-0.3l-1.1-0.5l-0.7-0.3l0.1,0.8v0l0,0.1l0.5,0.7h0.1l0.6,0.1l0.3,1.2l0.2,0.2
				l0.2,0.2l0.7,0.5l0,0l1.5,0.7l0.1,0l0.2,0l0.3-0.2c0.1-0.8,0.3-1.7,0.5-2.6l-1-0.1L47.4,87.2z"/>
		</g>
		<polygon class="st2" points="44.9,112.4 44.9,112.4 44.7,112.4 44.5,112.5 44.2,112.5 44,112.5 44.1,112.6 44.2,112.7 45.3,113.1 
			46.3,112.9 46.3,112.9 46.2,112.9 45.3,112.6 44.9,112.4 		"/>
		<polygon class="st2" points="48.9,105.5 48.9,105.6 47.4,106.2 47.1,106.3 47.2,106.5 47.4,106.7 47.4,106.7 47.6,106.8 
			47.8,106.8 47.8,106.8 48,106.7 48.2,106.6 48.8,106.5 48.8,106.5 49.1,106.6 49.4,106.7 50,106.7 50,106.6 50.2,106.3 
			50.3,106.2 50.5,106.2 50.4,105 		"/>
		<polygon class="st2" points="48.9,111.2 47.4,111.6 47.3,111.7 47.3,111.7 47.4,111.8 47.6,111.9 47.8,112 48.5,112 48.9,112.1 
			49,112.1 50.3,112.1 50.4,110.5 		"/>
		<polygon class="st2" points="46.6,113 46.6,113.1 46.5,113.2 46.4,113.4 46.4,113.4 46.4,113.4 46.9,113.7 47.4,113.8 47.4,113.8 
			48.1,113.7 48.4,113.6 48.9,113.5 49.4,113.3 49.4,113.3 49.4,113.3 49.1,113.3 48.9,113.3 47.4,113.1 47.1,113.1 47.1,113.1 
			46.6,113 		"/>
		<g>
			<path class="st2" d="M48.9,84.5l-1.5-0.5l-0.9-0.4L45.3,83l-1.1-0.6l-0.1,0v0l0,0.5V83l0.1,0.3l0.1,0.2l0.3-0.2l0.2,0.2l-0.1,0.3
				l0.4,0.3l0.2-0.3l0.1,0.1l1.1,1.2l0.6,0.5l0.4,0.2l1.5,0.8l1.2,0.4c0.2-0.6,0.4-1.3,0.7-2C50.1,84.8,49.5,84.7,48.9,84.5"/>
			<path class="st2" d="M50.5,107.7L50.5,107.7l-1,0.7l-0.7,0.3l-1.5,0.5l-0.8,0.1l-0.1,0l-0.3,0l-0.8,0l-0.5,0l0.5,0.5l1.1,0.4h0
				l0.3-0.1l0.3-0.1l0.3-0.1h0l0,0l0.3,0.1l0.3,0.1H48l0.8-0.1h0l1.6-0.6C50.5,108.9,50.5,108.3,50.5,107.7"/>
		</g>
		<polygon class="st2" points="47.4,103.4 47.2,103.4 47.2,103.4 46.4,103.6 45.3,103.7 44.7,103.8 45.1,104 45.3,104.1 46.4,104.5 
			47.4,104.6 47.5,104.7 48.8,104.7 48.9,104.7 49,104.6 49.7,104.4 50.7,103.8 49.5,103.5 49.5,103.5 48.9,103.3 48.4,103.1 		"/>
		<path class="st2" d="M49.5,115.4L49.5,115.4L49.5,115.4z M49.2,114.1l-0.3,0.2l-0.6,0.5l0.1,0.1l0.2,0.1h0.1l0.2,0l0.1-0.1l0.6,0
			l-0.1,0.6h0.3l0.4,0l0.2-0.9v0l0.1-0.9L49.2,114.1z"/>
		<polygon class="st2" points="37,107.6 37.6,107.8 38.8,108.1 39.5,108.2 39.4,108.2 39.1,108.4 39.1,108.4 38.8,108.5 38.7,108.5 
			38.8,108.5 40.1,109 40.6,109.1 41.1,109.2 41.7,109.3 43.3,109.3 43.6,109.3 43.3,109 42.6,108.3 42.2,107.5 41.7,107.5 
			40.1,107.4 39.5,107.4 38.8,107.4 37,107.2 36.2,107.1 		"/>
		<polygon class="st2" points="46.4,107.1 45.8,107.2 45.4,107.3 45.3,107.3 44.5,107.5 44.5,107.5 44.2,107.6 44.1,107.6 
			43.6,107.8 43.3,107.8 42.9,107.9 43,107.9 43.3,108.3 43.3,108.3 43.6,108.5 43.8,108.6 43.8,108.5 44,108.4 44,108.4 
			44.1,108.2 44.1,108.2 44.2,108.3 44.4,108.4 44.9,108.5 45,108.4 45.1,108.3 45.3,108.2 45.3,108.2 45.6,108.4 46.2,108.6 
			46.4,108.6 46.5,108.6 47,108.5 47.2,108.4 47.4,108.4 47.8,108.2 47.4,107.7 47.3,107.6 46.7,107.1 		"/>
		<g>
			<path class="st2" d="M37,103.3l1,0.1v0l-0.2-0.3l-0.1-0.3l0.1-0.5h0l-0.7-0.5l-0.6-0.5l-1.1-1.1l-1.7-0.3l-1.9-0.3h0
				c-1.5-0.3-2.9-0.6-4.3-0.9c0.6,0.4,1.2,0.8,1.8,1.1l0.6,0.2c0.5,0.1,1.1,0.2,1.6,0.3l-0.2,0.3l-0.3,0.2l-0.1,0l-0.8,0
				c0.9,0.5,1.8,1,2.8,1.3l0.9,0.3C34.7,102.9,35.8,103.1,37,103.3"/>
		</g>
		<polygon class="st2" points="27.3,98.7 27.3,98.7 27.3,98.7 		"/>
		<g>
			<path class="st2" d="M26,95.8c0.9,0.5,1.8,1,2.8,1.5c0.7,0.3,1.4,0.6,2.2,0.9c0.9,0.3,1.7,0.5,2.6,0.5h0.7l-0.7-0.7l-0.5-0.6v0
				l-1-1.6c-0.6-0.1-1.2-0.3-1.8-0.4h0c-0.9-0.3-1.8-0.6-2.7-1h0l-3.1-1c0.5,0.5,1.1,0.9,1.8,1.3c0.6,0.4,1.3,0.7,2.1,0.9l-0.9,0.2
				L26,95.8z"/>
		</g>
		<path class="st2" d="M39,104.5L39,104.5L39,104.5z"/>
		<polygon class="st2" points="43.6,110.1 43.3,110.2 41.7,110.4 40.7,110.4 41.7,110.7 41.8,110.7 42,110.8 42,110.9 42,110.9 
			42.1,111 42.1,111 41.7,111.2 41.6,111.3 41.7,111.5 41.9,111.6 42.4,111.7 43.3,111.7 43.5,111.7 43.3,111.4 43.1,111.3 
			42.2,110.7 42.9,110.5 43.3,110.4 43.6,110.2 43.8,110.1 		"/>
		<g>
			<path class="st2" d="M35,105.7l-0.6,0.3c0.9,0.1,1.7,0.2,2.6,0.3l0.2,0l1.6,0.1l1.4,0h0l0,0l-0.1-0.2l-0.5-0.8h0l-0.5-1.1h-0.2
				l-1.8-0.1l-0.6,0l-2.8-0.2l-0.7-0.1l0.7,0.3l0.7,0.3l1.1,0.4L35,105.7z"/>
			<path class="st2" d="M31.4,92.6l0.6,0.5l0,0l0.2-0.3l0,0l0.1,0l0.4,0.5l0.7,0.5l0-0.1h0l0.1-0.2l0,0l0,0l0.2-0.1l0.1,0.1l0.6,0.6
				l0.5,0.4l1.5,0.7l0.5,0.1c0.6,0.2,1.2,0.4,1.8,0.4l0,0l0.3-0.9l-0.3-0.4l-1-1.3L37,92.9c-0.9-0.1-1.9-0.2-2.8-0.4l-0.6-0.1
				c-0.9-0.2-1.8-0.4-2.7-0.7L31.4,92.6L31.4,92.6z"/>
		</g>
		<polygon class="st2" points="58.3,66.4 58.6,66.8 61.4,66.8 61.5,66.8 61.5,66.7 61.6,66.4 		"/>
		<polygon class="st2" points="59.4,68 59.4,68.1 59.6,68.5 62.3,68.5 62.2,68.3 62.1,68.3 62.1,68.3 62.1,68.2 61.9,68 		"/>
		<polygon class="st2" points="62.7,69.6 61.2,69.6 61.2,69.7 61.4,69.7 61.4,69.7 61.7,69.9 62.3,70.1 62.7,70.2 63.2,70.2 
			63.3,70.2 63.6,70.3 63.6,70.3 64.3,70.2 64.4,70.1 64.5,70.1 64.5,70.1 64.6,70.1 64.6,70.1 64.7,70 64.7,70 64.7,69.9 
			64.8,69.9 64.8,69.9 64.7,69.8 64.7,69.7 64.7,69.6 		"/>
		<polygon class="st2" points="61.8,62.3 61.9,62.8 61.9,63.6 62.7,62.9 63.2,62.5 63.2,62.4 63.2,62.4 63.2,62.4 62.7,62.4 
			61.9,62.3 		"/>
		<polygon class="st2" points="58.3,65.5 58.3,65.5 58.4,65.6 58.5,65.7 58.8,65.9 62.2,65.9 62.7,65.9 62.9,65.9 63,65.8 
			63.2,65.8 63.6,65.5 		"/>
		<polygon class="st2" points="59.4,62.5 59.4,62.5 59.3,62.6 59.3,62.6 59.2,62.8 59.2,63.1 59.3,63.2 59.5,63.2 59.5,62.5 
			59.5,62.5 		"/>
		<polygon class="st2" points="68.4,65.7 68.2,65.7 68,65.7 67.9,65.7 67.7,65.8 67.5,65.9 67.4,66.1 67.4,66.2 67.3,66.4 
			67.3,66.5 67.3,66.6 67.4,66.7 67.4,66.7 67.4,66.7 67.5,66.7 67.8,66.7 67.8,66.7 68,66.7 68,66.7 68.1,66.6 68.2,66.6 
			68.2,66.5 68.3,66.5 68.3,66.4 68.4,66.5 68.4,66.6 68.5,66.7 68.5,66.8 68.6,66.9 68.7,67 68.8,67.1 68.8,67.2 68.8,67.5 
			68.8,67.6 68.7,67.9 68.6,67.9 68.6,68 68.5,68.1 68.4,68.1 68.3,68.1 68.3,68.1 68.1,68.1 68,68.1 67.9,68.2 67.8,68.2 
			67.8,68.3 67.8,68.5 67.7,68.5 67.7,68.7 67.9,68.7 68.5,68.6 69.1,68.5 69.1,68.5 69.1,68.5 69.2,68.5 69.3,68.5 69.4,68.4 
			69.4,68.4 69.4,68.3 69.4,68.1 69.4,68 69.3,67.8 69.3,67.6 69.3,67.3 69.2,67.2 69.1,66.8 69.1,66.7 69.1,66.5 69.1,66.3 
			69,66.1 68.8,65.8 68.6,65.7 68.6,65.7 		"/>
		<polygon class="st2" points="69.1,71.7 68.8,71.7 68.7,71.7 68.7,71.8 68.7,71.8 68.7,71.9 68.7,71.9 68.7,72 68.6,72.1 
			68.6,72.1 68.6,72.2 68.7,72.5 69,72.8 69,72.8 69.1,72.9 69.3,72.9 69.3,72.8 69.4,72.7 69.6,72.5 69.6,72.5 69.7,72.3 
			69.4,71.7 		"/>
		<polygon class="st2" points="72.3,71.8 72.2,71.8 72.2,71.8 72.1,71.9 72.1,72.3 72.3,72.4 72.4,72.4 72.5,72.3 72.5,72.3 
			72.5,72.1 72.5,72.1 72.5,72 72.4,71.8 72.4,71.8 72.4,71.8 		"/>
		<polygon class="st2" points="61.7,68.9 59.9,68.9 60.5,69.3 63.8,69.3 63.2,69.1 63.1,69.1 63.1,69 62.8,68.9 		"/>
		<polygon class="st2" points="57.8,64.5 58,64.8 58.5,65.1 64,65.1 64.1,65 64.1,65 64.1,64.7 59.9,64.7 59.3,64.6 59.3,64.6 
			57.8,64 57.6,64 		"/>
		<g>
			<path class="st2" d="M57.8,62.4L57.8,62.4l0.2-0.1l0,0l0.1-0.1h0l0.1-0.1l0.2-0.1l0.4-0.2l0.3-0.1h0.1l0.4,0l0.2,0l1.3,0.1h1.4
				l0.4,0h0.3l0.2,0.1l0.1,0.1l0.1,0.1l0.1,0.1l0.1,0h0.2l0,0l0.1,0l0.1-0.1l0.1-0.1l0,0l0.2,0.1l0.2,0.2l0.1,0.1l0.1,0h0.1l0.1,0
				l0.1-0.1l0-0.1l0.1,0h0.1l0.2,0.1l0.1,0l0.1,0.2l0.1,0.1l0.3,0.2l0.4,0.1l0.1-0.1v-0.1l0-0.1l-0.1-0.1h-0.1l0-0.1l-0.1,0L65,61.7
				c-0.6-0.1-1.2-0.3-1.8-0.4l-0.5,0l-1-0.1l-0.3,0c-0.7,0-1.4,0-2,0.1l0,0l-0.6,0.1l-0.5,0.2L57.8,62L57.8,62l-0.1,0.1v0.1l0,0.1
				l0,0L57.8,62.4z"/>
		</g>
		<path class="st2" d="M61.6,67.6L61.6,67.6L61.6,67.6z M58.8,67.2l0.3,0.4h0.2h2.3v-0.1l-0.1-0.3H58.8z"/>
		<path class="st2" d="M54,79.4L54,79.4L54,79.4z"/>
		<polygon class="st2" points="52.3,63.7 52.3,63.7 52.2,64.1 53.1,64.1 53.2,63.9 53.2,63.7 53.1,63.7 		"/>
		<polygon class="st2" points="53.1,62.6 52.7,63 56.2,63 56.4,62.8 56.4,62.6 56.2,62.6 		"/>
		<polygon class="st2" points="52.6,63.1 52.6,63.1 52.4,63.5 54,63.5 54.2,63.4 54.1,63.2 54,63.1 53.8,63.1 		"/>
		<path class="st2" d="M58,75.2L58,75.2L58,75.2z"/>
		<g>
			<path class="st2" d="M72.8,79.8L72.7,80l-0.1,0.1l-0.1,0.1l-0.1,0.1v0l-0.4,0.5l0,0l0,0l-0.1-0.1l-0.1,0l-0.1-0.1h-0.1l-0.2-0.1
				l0,0l-0.1-0.1l0-0.1l-0.1-0.1l0,0l-0.1,0l-0.1-0.1L70.7,80l-0.2-0.1l0-0.1l0-0.2l0-0.1L70.3,79l-0.1-0.2l-0.1-0.4l0-0.4V78l0-0.1
				l0.1-0.1h0.1h0.1l0.1,0l0.1,0.1l0.1,0.1l0.4,0.3l0.1,0.1l0.1,0.2l0.2,0.1l0.1,0l0.2,0l0.1-0.1l0.1-0.1l0.1-0.1l0,0l0.1,0l0-0.1
				l0.1,0l0.1,0.1l0.1,0.1l0.1,0.2l0.1,0.2l0.1,0.2l0.1,0.3l0.1,0.2l0.1,0.2V79.8z M70.6,81.4l-0.2,0.4L70.2,82l0,0l-1,0.8l0,0
				l-1.1-0.9l-0.2-0.2h0l0,0l-0.3-0.3l0-0.1v-1.5l0.3,0.2l0.5,0.3l0.7,0.3l0,0l0.1-0.2l0.1-0.2l0-0.1l0.2-0.4l0.1,0l0.1-0.1l0,0
				l0.3,0.2l0.3,0.8L70.6,81.4L70.6,81.4z M66.6,76.6L66.6,76.6v-0.4l0.1,0l0.2,0l0.1,0l0.1,0.1l0.1,0.1l0.1,0.1l0.6,0.2l0.1-0.1
				l0.4-0.8l0.1-0.1l0.1,0l0.1,0.1l0,0l0,0.1l0,0.1l0.2,0.4l0.1,0.2h0l0.2,0.3v0l0.1,0.2l-0.1,0.8v0.1l-0.3,0.6v0l-0.1,0.2l-0.1,0.1
				l0,0h0l-0.8-0.5l-1.1-0.7L66.6,76.6z M65,80.1l-0.5,0.5l-0.4,0.5l-0.6-0.5l-0.3-0.2l-0.3-0.2l0.2-0.7l0-0.5l0,0l0.2-0.1l0,0h0.1
				l0.1,0l0.1,0l0.1,0.1l0.2,0.2l0,0.1l0,0.1l0,0l0.1,0l0.1,0l0.1,0l0-0.1l0-0.1l0-0.1l0-0.1l0.1-0.1l0.1-0.1l0.1,0h0.1l0.1,0L65,79
				l0,0.1l0,0.1V80.1z M62.2,77.9L61.8,77l-0.1-0.3l-0.3-0.6h0l0-0.1l0.1-0.3l0.1-0.1l0.1,0l0.2-0.1l0.4,0.3l0,0.1l0.1,0.2l0.4-0.3
				l0.2-0.2l0.1,0.2L63,76.4l0.2,0.1l0.3,0.1l-0.3,0.2L62.8,77l-0.1,0.2L62.2,77.9z M62.2,78.3v0.1l-0.1,0.4l0,0.1h0L62,79.2
				L62,79.3l-0.2,0.1h0l0,0h-0.2h-0.2l0,0l-0.1,0H61l-0.1,0l-0.1-0.3l-0.4-1.2l0.7-1.3l0.2,0.2l0.2,0.2v0l0.1,0.3l0.1,0.3v0l0,0.1
				l0,0.1l0.2,0.1l0.1,0l0.1,0.1l0,0.1l0,0.1V78.3z M60.2,76.3l-0.1-0.1L60,76l-0.2-0.4l-0.1-0.3l0,0l-0.1-0.1v-0.1l0-0.1l0.1-0.1
				l0.2-0.2l0.2-0.2l0.1-0.1l0.1,0h0.1l0,0l0.1,0.1l0,0.1l0.1,0.2l0,0.1l0,0l0.1,0.1l0,0l0.1,0l0-0.1l0.1,0l0,0l0-0.1l0-0.1l0-0.1
				l0.1-0.1l0.2,0l0.1,0l0,0v0.1l0,0.1l-0.1,0.8l-0.1,0.2l-0.2,0.2l-0.3,0.2L60.2,76.3z M60.2,70.4L60.2,70.4l0.2-0.1l0,0l0.1,0.1
				l0,0.1l0.1,0.1l0.1,0.3l0,0.1l0,0.1l0.1,0.1l0,0l0.1,0H61l0.1,0l0.1-0.1l0,0l0.1-0.1l0,0l0.1-0.1l0.1-0.1l0.2-0.1l0,0l0.1,0h0v0
				l0,0v0.9h0l-0.1,0.1l-0.1,0.1l-0.3,0.4l-0.2,0.2l-0.5,0.5l-0.3-0.6L60,71.5V71v-0.1v-0.2L60.2,70.4z M61.9,72.3L61.9,72.3
				l0.2-0.1l0.1,0.1l0,0.1l0.1,0.1l0.1,0.1l0,0l0.1,0.1l0.1,0.1l0,0l0,0l0,0h0.1l0,0l0,0l0.1-0.1l0-0.1l0.1,0l0,0l0,0h0.1l0,0v0.1
				l0,0.1l0,0l0,0.1l0,0.3v0.1l0,0.3l0,0.1l0,0.1v0.2L63,74l-0.3,0.3l-0.1,0.1l-0.4,0.1l-0.2-0.1L62,74.3l-0.2-0.2l-0.1-0.2h0
				l-0.1-0.2l0-0.5l0.1-0.2l0.1-0.1l0-0.1l0-0.1v0l0.1-0.2l0-0.1l0.1-0.1L61.9,72.3z M64.3,76.6l0.4,0.6V78l-0.9,0.8l-0.7-0.5
				l-0.2-0.2l0.1-0.9l0.1-0.1l0.6-0.4V77L64.3,76.6z M59.3,79L59.3,79l-0.5,1v0l-0.1,0.1l-0.1,0l-0.6,0.1h0l-0.1,0h-0.2l-0.1,0h0
				l-0.1,0h0l0-0.2l-0.1-0.7l-0.1-0.4l0.3-0.5l0.5-0.7h0.1l0.1,0l0.1,0.1l0,0l0,0.1l0,0.1v0.1l0,0v0.2l0,0.1l0,0l0.1,0.1l0.1-0.1
				l0.3,0l0.1,0.1h0l0,0.1v0.1L59.3,79z M78.7,87.3c-0.1-0.8-0.2-1.5-0.3-2.3l0-0.1l0-0.1l-0.1-0.2l-0.1-0.1L78,84.4l0,0l-0.1,0.1
				l0,0l0,0.1l0,0.1l0,0.1l-0.1,0.1L77.5,85l-0.2,0l-0.1-0.1L77,84.8l-0.2-0.3l-0.1-0.1l-0.2-0.3l-0.1-0.1L76.2,84L76,83.9l-0.1-0.2
				v-0.3l0.1-0.2L76,83v-0.2l0.2-0.1l0.1,0l0.1,0.1h0l0.1,0.1l0.1,0.1l0.1,0.1l0.1,0.1l0.1,0l0.1-0.1l0,0l0-0.1l0.1-0.1l0.1-0.4
				l-0.2-0.9l-0.6-0.8l0-0.1l-0.1-0.1l-0.1-0.1l-0.1,0l-0.4,0.1l0,0l-0.1,0.2v0.3l-0.1,0.2l-0.2,0.4l-1-0.3l-0.6-0.5l-0.2-0.4
				l-0.1-0.3l-0.1-0.3v0l-0.1-0.4v-0.1l-0.1-0.4v0v0l-0.1-0.1l0-0.1l0-0.1l0.1,0l0.1,0h0.2l0.3,0.1h0l0.1,0.1l0.2,0.1l0.1,0.1
				l0.4,0.3h0l0.2,0.1l0.2,0l0.2-0.1l0.1-0.1l0.2-0.4l0,0l0-0.3l0-0.1l-0.1-0.2l-0.2-0.1l-0.1-0.2l-0.1-0.1L75,77.3l-0.1-0.1
				l-0.2-0.1L74.5,77l-0.1-0.1l-0.2-0.1l-0.1-0.1L74,76.7h-0.1l-0.1,0l-0.1,0.1l-0.1,0l-0.4,0.3v0l0,0l-0.1,0.1l-0.1,0h0l-0.1,0
				l-0.2-0.1l-0.1-0.1l0,0L72.6,77l-0.1,0h0l-0.1,0h0l-0.1,0.1l-0.1,0.1l-0.5,0.5l0,0l-0.1,0.1l-0.1,0.1l-0.1,0l-0.2-0.1l0-0.1
				l0-0.1l0-0.1l-0.3-1.1l-0.1-0.9v-0.2l-0.1-0.6v-0.2l0.1-0.1l0.1-0.1h0.4l0.1,0.1l0.1,0.1l0.1,0.1h0l0.1,0l0.1,0h0.1l0,0l0-0.1
				l0-0.1l0-0.1l0.1-0.2l0.1-0.1l0-0.1L72.1,74L72,73.9l-0.2-0.1l-0.2-0.1v0l-0.5-0.4l0,0l-0.1-0.1l0,0l-0.1,0l0,0l0,0l0,0l0,0
				l-0.2,0.3l-0.2,0.3l0,0l-0.1,0.2l-0.1,0.3L70,75l-0.1,0.2l-0.2,0.2v0.1v0.2l-0.1,0.1h0h-0.1l-0.2-0.1l0-0.1v-0.1l0-0.1L69.2,75
				L69,74.8l-0.2-0.3l-0.6-0.6h0l-0.2-0.2l-0.2-0.3l0,0l-0.1-0.1l-0.3-0.1l-0.2-0.2h0L67,72.9L67,72.7l0,0l0-0.1l0-0.1l0-0.1l0,0
				l0-0.1l0-0.1l-0.1-0.2l0.1-0.2l0,0l0.1-0.1l0.1,0l0-0.1v-0.1l-0.1-0.1l0,0l-0.1,0l-0.1,0l-0.1,0l0,0l-0.2,0l-0.1,0l-0.6,0.1h-0.2
				h-0.2l-0.2-0.1l0-0.1v0v0v-0.1l0.1,0l0,0l0.1-0.1l0.2-0.1l0.3-0.1l0.4-0.2l0.5-0.3l0.2-0.1l0.4-0.1h0.1l0.2,0.1l0.3,0.1l0.5,0.2
				h0l0.3-0.1l0.2-0.1l0.2-0.4l-0.2-0.1l-0.7-0.1h-0.1l-0.5-0.1l-0.7,0L66,70l-0.2-0.1l-0.2-0.2l0,0l0-0.1l0-0.1l0-0.1l0,0l0,0
				l0.1,0l0,0l0.2-0.1l0,0l0.1,0l0.1-0.1l0,0V69l0-0.1l-0.1,0l-0.1,0h-0.2l-0.2,0l-0.1,0l-0.1,0h0l-0.4-0.1L65,68.5v0l0-0.1l0-0.1
				v-0.1l0,0L64.9,68l-0.1-0.1l-0.1-0.1h0l-0.2-0.2l-0.1-0.1l0-0.3l0.1-0.2l0.2-0.1l0.1,0l0.4,0l0.2,0.2l0.1,0.2l0.1,0.1l0.1,0.1
				l0.1,0.1l0.1,0.1l0.1,0l0.1,0l0.1-0.1v-0.1l-0.1-0.1l0-0.1v-0.1L66,66.9l-0.2-0.2l-0.1,0h-0.3l-0.2,0l-0.3-0.1l-0.3-0.3l0-0.2V66
				l0-0.2v-0.1l0.1-0.1l0-0.2v-0.1l0,0l-0.1,0l-0.1,0l-0.1,0.1l-0.1,0.1l-0.1,0.1l-0.2,0.1l-0.1,0.2l-0.9,0.5l-0.1,0l-0.2,0.1
				l-0.2,0h-0.1l-0.4,0l-0.1,0l-0.1,0l-0.1,0l0,0.1l0,0.1v0.1l0.1,0.6l0.1,0.3l0.3,0.4l0.2,0.2l0.5,0.3l0.2,0.1l0.2,0.1l0.6,0.2
				l0.3,0.1l0.3,0.1l0.3,0.2l0.1,0.4v0.5L65,70.4l-0.2,0.1l-0.3,0.1l-0.2,0l-1,0.1h-0.1l-0.5-0.1l-1-0.3l-0.3-0.1l-0.2-0.1l-0.7-0.3
				l-1.1-0.9l-0.1-0.1l-0.2-0.3l-0.3-0.6L58.2,67l-0.1,0h-0.2l0,0l0,0.1l0,0.1l0,0.1l0.1,0.3c0.7,0.7,1.2,1.6,1.3,2.6l0,0.7v0l0,0.8
				l-0.1,0.6l0.1,0l0.5,0.1v0l-0.2,0.7v0L59.3,74l-0.1,0.3v0L58.6,74L58,75.2l0.7,0.2l-1,1.6l-0.2,0.3v0l-0.3-0.8h0l-1.2,1.5
				l0.9,0.1l-1,1l-0.8,0.6v0l-0.1-0.1l0,0L54.9,79l-0.1-0.2v0L54,79.4l0.2,0.5l0.1,0.1l0,0l0.6,0.2l0.2,0l-0.2,0.1l-0.4,0.3
				l-0.2,0.1l-0.2,0.1l-0.2,0.1L53.8,81l-0.2,0.4l0.2,0.6l0.1,0.1l0.1,0l0.1,0.1l0.2,0.1l0.1,0.1l0.1,0.1l0.1,0.1l0,0.1l-0.1,0.2
				L54.3,83l-0.5,0.5l-0.4,0.4l-0.3,0.3l-0.3,0.4l0,0.1L52.3,85L52,85.3l0,0.1l-0.1,0.1l0,0.1v0.1l0,0.1l0.1,0l0,0l0.2,0.1l-0.4,0.9
				L51.6,87l-0.2,0.2l-0.2,0.2l-0.1,0.3l0,0.4l0,0.1v0.3l0.2,0.6l0.3-0.5l-0.2-0.4l0.9-1.4l0.2,0.3l0.3-0.5l-0.1-0.2v-0.5l0.7-1.3
				l0.3,0.5l0.2-0.3l1-1.7h1.1l-0.1-0.2l0.1-0.7l0-0.1l0.3-0.4l0.4,0.6l0.5-0.5l0.1-0.4l0-0.1l0.1-0.2l0.1,0l0.1,0h0l0.1,0.1
				l0.1,0.2l0.1,0.2l0,0.1v0.2l0,0.1l0.1,0.1h0.1l0.3-0.1l0-0.1l0,0v-0.1l0.1,0l0.1,0l0.1,0.1l0,0v0.1l0,0.3l-0.1,0.2l-0.1,0.2
				l-0.1,0.2l0,0.1l0,0.3h1.6l-0.7-1.5L60,81l0-0.3l0.3-0.1l0.6,0.7l0.3,0.2l0.2-0.1l0,0l0.2-0.1l0.1-0.1l0.1-0.1l0.1-0.1L62,81
				l0.1-0.1h0.1l0.2,0.1l0,0.1v0.2l0,0.1l-0.1,0.6L62,82.5l-0.4,0.4l-0.1,0h9.3l-0.3-0.3l0.2-0.9l1.2,1.1h0.8l0.4-0.7l0.3-0.2h0.1
				l0.2,0.1l0.1,0.1l0.1,0.1l0.3,0.3l0.2,0.3l4.1,5.9v0L78.7,87.3z"/>
		</g>
		<polygon class="st2" points="56.7,63.1 56.7,63.4 56.7,63.8 56.7,64.2 56.3,64.2 56.1,64.1 56,64 55.9,63.9 55.6,63.7 55.1,63.5 
			54.9,63.5 53.9,63.9 53.8,63.9 53.5,64.5 53.6,65.1 53.8,64.9 54.2,64.7 54.9,65 55,65.1 55.7,64.8 55.8,64.8 56,64.9 56.3,65.1 
			57.1,65.1 57.8,65.3 57.9,65.3 57.8,65.2 57.2,64.1 57.1,62.5 		"/>
		<polygon class="st2" points="54.5,62 53.8,62.2 53.4,62.4 54.9,62.4 55.9,62.4 56,62.3 56.1,62.3 56.1,62 56,62 		"/>
		<polygon class="st2" points="57.8,63.1 57.8,63.1 57.7,63.2 57.6,63.2 57.6,63.3 57.6,63.4 57.6,63.5 57.7,63.6 57.8,63.6 
			57.8,63.7 57.8,63.7 58.6,64.1 58.3,63.2 58.2,63.2 58.1,62.8 		"/>
		<polygon class="st2" points="62,63.9 61.7,64.2 61.4,64.3 61.3,64.3 64.1,64.3 64.1,63.9 		"/>
		<polygon class="st2" points="63.2,63 62.7,63.4 62.6,63.5 63.2,63.5 64.1,63.5 63.9,63 63.8,62.8 63.6,62.5 		"/>
		<polygon class="st2" points="55.1,65.8 55.1,65.8 54.9,65.9 54.9,65.9 54.9,66.1 55,66.2 55,66.4 55.1,66.5 55.3,66.7 55.4,66.7 
			56,66.9 56,67 56.5,67.1 56.8,67.1 56.9,67.1 57.1,67 57.3,66.9 57.3,66.9 57.4,66.8 57.4,66.7 57.4,66.6 57.3,66.5 57.2,66.4 
			57,66.4 56.5,66.2 56.4,66.2 56.3,66.1 56.1,66 56,66 55.8,66 55.6,66 55.5,65.9 55.4,65.9 55.3,65.8 55.2,65.7 		"/>
		<polygon class="st2" points="55.6,63.2 56,63.5 56,63.5 56.1,63.5 56.3,63.7 56.3,63.8 56.3,63.2 		"/>
		<polygon class="st3" points="77.2,90.2 52,90.2 55.7,84.9 73.6,84.9 77.3,90.2 		"/>
		<path class="st4" d="M53,107.2L53,107.2L53,107.2z"/>
		<g>
			<path class="st5" d="M75.3,107c-2.4,3.7-6.4,5.8-10.7,5.8h0c-4.3,0-8.3-2.1-10.7-5.8c0.3-1.7,0.4-3.5,0.4-5.2
				c0.1-4-0.8-8.1-2.7-11.6l3.9-5.5h18.1l3.9,5.5c-1.9,3.5-2.8,7.6-2.6,11.6C74.9,103.5,75.1,105.3,75.3,107L75.3,107z M78.7,90.2
				l-4.5-6.5h-19l-4.5,6.5c0.5,0.8,1,1.7,1.3,2.7c1.6,4.6,2,9.6,1,14.3c2.5,4.1,6.9,6.6,11.7,6.6h0c4.7,0,9.1-2.4,11.6-6.5v0
				c-0.3-1.7-0.5-3.5-0.5-5.3C75.7,97.8,76.7,93.7,78.7,90.2"/>
			<path d="M60.2,111.7c-2.5-0.9-4.6-2.6-6-4.8c0.3-1.7,0.4-3.4,0.4-5.1v0c0.1-3.9-0.8-7.8-2.5-11.3h8.1V111.7z"/>
			<path class="st0" d="M60.5,111.8V90.5h8.3v21.4h-0.1c-1.3,0.5-2.7,0.7-4.1,0.7C63.3,112.5,61.9,112.3,60.5,111.8"/>
			<path class="st1" d="M77.1,90.5c-1.7,3.5-2.6,7.4-2.5,11.3c0,1.7,0.2,3.4,0.5,5.1v0c-1.5,2.2-3.6,3.9-6,4.8V90.5H77.1z"/>
		</g>
		<polygon class="st2" points="72,112.3 71.3,112.6 70.7,112.9 70.7,112.9 71.3,113.2 71.9,113.4 72,112.3 		"/>
		<path class="st2" d="M75.7,113.4l-0.6-0.2l-0.9-0.3l-0.2-1.4l1,0.4l0.1-0.1l0.6-1l0.5,1.2L75.7,113.4z M75.9,117.8l-0.8,1.7
			l-0.1,0l-0.9-0.7l-0.5-0.4l-0.1,0l0.1-0.2l0.1-0.5l0.1-0.3l0.8,0.4l0.2-0.9l0.2-0.2l0,0l0,0L75.9,117.8z M76.1,119.6h0.4l0.3-0.7
			l0.3-0.3l0.2,0.3l0.6,0.6l-0.2,1.5l0.2,0.6l-0.5-0.2h-0.7l-0.5-1.5L76.1,119.6z M78.2,123.6l-0.2,1.5l0.1,0.6l-0.6-0.2h-0.7
			l-0.5-1.6l0.1-0.4h0.4l0.3-0.6l0.2-0.2l0.1-0.1L78.2,123.6z M75.1,125l-0.3,0.5l-1.1-0.4l-0.3-0.1l-0.4-0.7l0-0.6l0.5,0.1l0.1,0.1
			l0.4,0.3v-1.1l0.5-0.1l0.5,0.8l0.3,0.6L75.1,125z M72.6,122.7l-0.3-0.1l-0.2-0.3l-0.2-0.4v-0.6l0.2,0.1l0.3,0.1l0.2,0.1l0.4,0.2
			v-1.1l0.5-0.1l0.2,0.4l0.6,1l-0.6,1l-0.1,0L72.6,122.7z M71.3,120.3l-0.4-0.7l0-0.5l0.4,0.1l0.1,0l0.6,0.3v-1l0.1,0l0.3-0.1
			l0.2,0.3l0.7,1.1l-0.6,1h-0.1l-0.5-0.2L71.3,120.3L71.3,120.3z M70.5,121.8l-0.4-0.3l-0.6-0.4l-0.2-1l0.5,0.3l0.2-0.3l0.3-0.3
			l0.2,0.1l0,0.4l0.3,0.4L70.5,121.8z M68.9,118.1l-0.4-0.3l-0.6-0.5l-0.2-1l0.5,0.3l0.3-0.3l0.3-0.3l0.2,0.1l0,0.4l0.3,0.3
			L68.9,118.1z M70,116.6L70,116.6l0.5,0.1L71,117v-1l0.3-0.1l0.1,0l0.6,1l0.2,0.4l-0.2,0.4l-0.4,0.7l-0.4-0.1l-1-0.4l-0.2-0.5
			l-0.1-0.2V116.6z M72.1,115.3l0.5,0.2l0.5,0.1l0.3-1.3l0.3-0.1l0.6,1.2l-0.3,1.4l-0.1,0.2l-0.3-0.1l-0.6-0.3l-0.5-0.1l-0.4-0.1
			l-0.1-0.3l-0.2-1L72.1,115.3z M78.9,94.9l0.2-2l-0.5-1.1l-0.8,1l0.3,1.8l-0.8,0.6v1l0.3,2.7l-0.3,0.2l-0.9,0.5l-0.2,2.1l0.5-0.2
			l0.5,0.3l0.2,1.3l0.1,0.8l-0.1,0.2l-0.9,1.2l0.4,1.9l-0.5,0.6l0.5,1.2l-1.4,1.8l-0.4-0.5l-0.2-0.3l-1.2,1l-0.4,0.3l-0.7,3.5
			l-0.1,0.2l-0.4-0.2l-0.7-0.3l-1.3-0.5l-0.9-0.4l-0.7,0.8l-1.5,1.8l0.9,2.1l0.3-0.1l0.1-0.2h0.2l0.2,1l-0.3,0.2l0,0.1l0,0.1l1.6,3
			l0,0.1l0.6-0.6l0.3,0.3l0.3,1l-0.3,0.5l0.4,0.5l0.7,1l0.4,0.5l0.1-0.1l0.3-0.2l0.6,0.7l-0.2,0.3l0.3,0.3l1.4,1.2l0.4,0.4l1-2.2
			l0.9,0.5l0.9,0.4l0.6-0.1v-3.3l-0.7-0.9v-1.2l0.7,0.2l-0.3-3.4l-1-0.3l-0.2-0.4l-0.1-0.3l0-0.7L76,116l0-0.4l-0.4-0.5l0.2-0.2h0.8
			l0.7,0l0-0.1l0.3-0.8l0.8,0.6l-0.6-1.6l-0.6-0.6l-1-1.1v-0.7l0.9,0.2l0.1,0.1l0.5,0.5l-0.4-4.4l-0.1-0.3l-0.6-1.4l0.5-0.7h0.7
			l0.2-3.1l-0.6-1.5l0.4-0.8l0.7,0.7l0-3.2l-0.6-1l0.2-1H78.9z"/>
		<path class="st2" d="M60.7,117.8l-0.4,0.3L60,117l0.3-0.4l0.1-0.4l0.2-0.1l0.3,0.3l0.3,0.3l0.5-0.3l-0.2,0.9L60.7,117.8z
			 M59.7,121l-0.6,0.4l-0.4,0.3l-0.4-1.1l0.3-0.4l0-0.4l0.2-0.1l0.2,0.3l0.2,0.3L60,120L59.7,121z M58,120.3l-0.9,0.3l-0.4,0.2h-0.1
			l-0.7-1l0.7-1.1l0.1-0.3l0.3,0.1l0.1,0v1l0.6-0.3l0.5-0.1l0,0.5L58,120.3z M57.2,122.3l-0.1,0.3l-0.3,0.2l-1.1,0.4l0,0l-0.6-1
			l0.6-1l0.2-0.4l0.5,0.1v1l0.4-0.2l0.2-0.1l0.3-0.1l0.2-0.1l0,0.6L57.2,122.3z M55.9,124.9l-0.3,0.1l-1.1,0.4l-0.3-0.5l-0.3-0.6
			l0.3-0.6l0.5-0.8l0.5,0.1v1l0.4-0.3l0.1-0.1l0.4-0.1l0,0.6L55.9,124.9z M53.4,117.8l0.8-1.3l0.1,0l0,0l0.2,0.2l0.2,0.9l0.8-0.4
			l0.1,0.3l0.1,0.5l0,0.2l0,0l-0.5,0.4l-0.9,0.7l-0.1,0.1L53.4,117.8z M53.6,113.4l-0.5-1.5l0.5-1.2l0.6,1l0.1,0.1l1-0.4l-0.2,1.4
			l-0.9,0.3L53.6,113.4z M55.6,114.2l0.3,0.1l0.2,1.3l0.6-0.2l0.4-0.2l0.3-0.1l-0.3,1l-0.1,0.3l-0.4,0.1l-0.5,0.1l-0.6,0.3l-0.3,0.1
			l0-0.2l-0.3-1.4L55.6,114.2z M58.2,116v1l0.6-0.4l0.4-0.1h0.1l0,0.5l-0.1,0.2l-0.2,0.5l-1.4,0.5l-0.4-0.7l-0.2-0.4l0.2-0.4l0.7-1
			L58.2,116z M52.7,121.5H52l-0.5,0.2l0.1-0.6l-0.2-1.6l0.6-0.6l0.2-0.3l0.3,0.3l0.3,0.6h0.4l0.1,0.4L52.7,121.5z M52.4,125.6h-0.7
			l-0.6,0.2l0.1-0.6l-0.2-1.5l0.8-0.9l0.1,0.1l0.2,0.2l0.3,0.6h0.4l0.1,0.4L52.4,125.6z M60.7,114.5l-0.6-0.8l-0.9,0.4l-2,0.8
			l-0.4,0.2l0-0.2l-0.7-3.5l-0.3-0.3l-1.2-1l-0.2,0.3l-0.4,0.6l-1.4-1.8l0.5-1.2l-0.5-0.6l0.5-1.9l-1-1.3l-0.1-0.1l0.1-0.7l0.2-1.4
			l0.5-0.3l0.5,0.2l-0.2-2l-1-0.5l-0.3-0.2l0.3-2.7v-1l-0.8-0.6L51,93.4l-0.6-1.1l-0.4,0.7l0.3,2H51l0.3,1l-0.6,1l0.1,3.2l0.6-0.7
			l0.4,0.8l-0.6,1.5l0.3,3.1h0.6l0.5,0.7l-0.6,1.4l-0.1,0.3l-0.4,4.4L52,111l0.1-0.1l1-0.2v0.7l-1.1,1.1l-0.6,0.6l-0.5,1.6l0.8-0.6
			l0.3,0.8L52,115l0.7,0h0.7l0.2,0.2l-0.4,0.5l0,0.4l-1.1,0.6l0,0.7l-0.1,0.3l-0.2,0.4l-1,0.3l-0.3,3.4l0.7-0.2v1.2l-0.7,0.9v3.3
			l0.6,0l0.8-0.4l0.9-0.5l1,2.2l0.4-0.4l1.4-1.2l0.3-0.3l-0.2-0.3l0.6-0.7l0.3,0.2l0.1,0.1l0.4-0.5l1.2-1.5l-0.4-0.5l0.3-1l0.3-0.3
			l0.6,0.6l0-0.1l1.6-3l0.1-0.1l-0.1-0.1l-0.3-0.2l0.2-1.1h0.2l0.1,0.2l0.3,0.1l0.9-2.1L60.7,114.5z"/>
		<polygon class="st2" points="57.2,113.4 58.4,112.9 57.2,112.3 57.1,112.3 		"/>
		<g>
			<path class="st2" d="M64.4,114.2l-1,1.2l-0.8-1.3C63.2,114.1,63.8,114.2,64.4,114.2L64.4,114.2z M66.1,114.1l-0.7,1.3l-0.7-1.3
				L66.1,114.1L66.1,114.1z M65.5,116.8l0.1,1l-0.3,0.1l-0.3-0.6v-0.2L65.5,116.8z M63.8,116.8l0.5,0.3v0.2l-0.3,0.6l-0.3-0.1
				L63.8,116.8z M62.9,122.7L63,122l0.2-0.6l0-0.6l0.2-1.1l0.5-0.9l-0.3-0.3l0.1-0.3l0.7,0.6v0.9l-0.2,0l-0.1,0l-0.2,0.1l-0.1,0.1
				l-0.1,0.2l0,0.2l-0.1,0.6l0.1,0.5l0.3,0.4l0.2-0.1v1.1l-0.8-0.7L62.9,122.7z M66.4,122.7l-0.6-0.5l-0.8,0.7v-1.1l0.2,0.2l0.4-0.4
				l0.1-0.6l0-0.5l0-0.2l-0.1-0.2l-0.2-0.2l-0.2-0.1l-0.2,0l0-0.9l0.7-0.6l0,0.3l-0.3,0.3l0.5,0.9l0.2,1.1l0,0.6l0.2,0.6L66.4,122.7
				z"/>
		</g>
		<path class="st2" d="M64.9,137.8L64.9,137.8L64.9,137.8z"/>
		<g>
			<path class="st2" d="M60.5,133.6l0.4-2.7l-0.8-0.2l0.2-1.1l0.8,0.2l0.4-2.9l-0.8-0.2l0.2-1.1l0.7,0.2l0.1,0l0.2-1.6l-0.3,0.3
				l0-0.1l-0.8-1.6l0.6-0.9l0.2,0.3l0.3,0.5l0.3-0.2l0.1-0.4l-0.2,0.1l-0.5-0.9l0.5-1.1l0.3,0l0.1,0.6l0.2-1l-0.4-0.2v0l-0.6,1.2
				c-0.9,1.5-1.8,2.9-2.9,4.3v0l-2.2,8l-1.1,4.1l1.1,0.1c0.8,0.1,1.6,0.2,2.4,0.2h0v-0.4l0.8,0.2l0.1,0l0.4-2.7l-0.8-0.2l0.2-1.2
				L60.5,133.6z"/>
			<path class="st2" d="M62.9,123.3l-1.2,7.9l-1.1,6.5h0.1l0.3,0h0l0.7,0c0.9,0,1.8,0.1,2.7,0.1h0v-11.5l-0.5-0.5l0.1-1.1l0.2-0.4
				l0.2,0.1v-0.8l-0.8,0.5L62.9,123.3z"/>
		</g>
		<path class="st2" d="M53.8,129.8L53.8,129.8L53.8,129.8z"/>
		<g>
			<path class="st2" d="M57.7,126.4l-1.1,1.2c-0.8,0.8-1.8,1.6-2.7,2.3l-1.6,4.7l-0.1,0.4l0.2,0.7l0.4,0.4l0.9,0.4l1.1,0.7l1.8-6.6
				L57.7,126.4z"/>
		</g>
		<path class="st2" d="M57.7,126.4L57.7,126.4L57.7,126.4z"/>
		<g>
			<path class="st2" d="M66.4,123.3l-0.6,0.8l-0.8-0.5v0.8l0.2-0.1l0.2,0.4l0.2,1.1l-0.5,0.5v11.5c0.9,0,1.8,0,2.7-0.1l0.7,0h0.1
				l0.3,0l-1-6.5L66.4,123.3z"/>
		</g>
		<path class="st2" d="M71.5,126.4L71.5,126.4L71.5,126.4z"/>
		<g>
			<path class="st2" d="M77,134.5l-1.6-4.7c-0.9-0.7-1.9-1.4-2.7-2.3l-1.1-1.2l1.1,4.1l1.9,6.6l0.7-0.5l1-0.5l0.6-0.4l0.3-0.6
				L77,134.5z"/>
			<path class="st2" d="M70.5,125.1c-1-1.4-2-2.7-2.8-4.3l-0.6-1.2l-0.4,0.2l0.2,1l0-0.6l0.3,0l0.5,1.1l-0.5,0.9l-0.2-0.1l0.1,0.4
				l0.3,0.2l0.3-0.5l0.2-0.3l0.6,0.8l-0.7,1.6l-0.1,0.1l-0.3-0.3l0.2,1.6l0.1,0l0.7-0.2l0.2,1.1l-0.8,0.2l0.5,2.9l0.8-0.2l0.2,1.1
				l-0.8,0.2l0.4,2.7l0.8-0.2l0.2,1.1l-0.7,0.2l0.4,2.7l0.1,0l0.8-0.2v0.4c0.8-0.1,1.6-0.1,2.4-0.2l1.2-0.1l-1.2-4.1L70.5,125.1z"/>
		</g>
		<path class="st2" d="M67,119.7L67,119.7L67,119.7z"/>
		<polygon class="st2" points="49.2,128.5 48.8,129.2 47.9,131 46.1,134.7 46.6,134.5 47,134.4 47.9,134.1 48.7,133.8 50.2,129.4 
			50,129.4 49.9,128.7 49.8,127.3 		"/>
		<polygon class="st2" points="79.4,128.7 79.3,129.4 79.1,129.4 80.6,133.8 80.8,133.8 81.4,134.1 82.6,134.5 83.2,134.7 81.4,131 
			80.5,129.2 80.1,128.5 79.6,127.3 		"/>
		<g>
			<path class="st2" d="M42.8,130l0.6-0.9l0.3,0.6L45,128l0.4-0.6v0l-0.2-0.7l0.4-0.6l0.3-0.3l0.2,0.6l1.8-2.3l-0.3-0.7l0.3-0.4
				l0.5-0.7l0.2,0.7l0.8-1.1l0.2-4.7l-1.9,2.2l-0.8,0.9l-0.5,0.6l-1,1.2l-0.3,0.3l-0.7,0.7l-2.6,3.1l-0.5,0.5l-4.5,5.3h0
				c1,0.5,2.1,0.9,3.2,1.3h0l0.8-1.1l0.2,0.7l1.7-2.3L42.8,130z"/>
			<path class="st2" d="M48.2,129l0.3-0.6l1.2-2.3v0c0-0.9-0.1-1.9-0.1-2.9l-3.4,4.6l-0.6,0.8l-4,5.5l3.5,1.1l0.5-1l2.3-4.5
				L48.2,129z"/>
			<path class="st2" d="M87.7,126.8l-0.5-0.6l-2.6-3.1l-0.6-0.7l-0.3-0.3l-1-1.2l-0.5-0.6l-0.8-0.9l-1.9-2.2l0.2,4.7l0.8,1.1
				l0.3-0.7l0.5,0.7l0.3,0.4l-0.3,0.7l1.7,2.3l0.2-0.6l0.3,0.4l0.4,0.5l-0.3,0.7l0.1,0l0.4,0.6l1.3,1.7l0.3-0.6l0.7,0.9l-0.3,0.6
				l1.7,2.3l0.3-0.7l0.8,1.1h0c1.1-0.4,2.1-0.8,3.2-1.3h0L87.7,126.8z"/>
		</g>
		<path class="st2" d="M79.6,126L79.6,126L79.6,126z"/>
		<g>
			<path class="st2" d="M83.1,127.7l-1.7-2.3l-1.7-2.3v0c0,1,0,1.9-0.1,2.9l1.2,2.3l0.3,0.6l0.2,0.5l2.3,4.5l0.5,1l3.5-1.1l-4-5.5
				L83.1,127.7z"/>
		</g>
		<polygon class="st2" points="83.3,138.7 82.8,138.9 83.2,139.7 83.3,139.6 83.7,138.6 		"/>
		<polygon class="st2" points="80.5,138.5 80.3,138.6 80.2,138.7 80,139 80.5,138.7 81,138.6 81,138.5 80.6,138.5 		"/>
		<g>
			<path class="st2" d="M80.1,139.4l0.4,1.1v0l0,0v0l0.1-0.1c0.4-0.4,0.6-1,0.6-1.6l-0.6,0.2L80.1,139.4z"/>
		</g>
		<polygon class="st2" points="85.6,138.2 85.5,138.2 85,138.5 85.1,138.6 85.5,138.9 85.6,139 85.7,139.5 85.7,139.5 86.1,138 		
			"/>
		<polygon class="st2" points="82.9,138.2 82.4,138.7 82.3,138.7 82.3,138.8 82.4,138.7 82.8,138.5 83.3,138.3 83.8,138.2 
			83.4,138.1 83.3,138.1 		"/>
		<polygon class="st2" points="85.4,137.6 84.8,138.2 84.8,138.2 85.4,137.8 85.4,137.8 85.6,137.8 86.1,137.6 85.9,137.6 
			85.6,137.5 		"/>
		<g>
			<path class="st2" d="M85.6,137.2l0.2,0H86l-0.1-0.1l-0.4-0.5l-0.1-0.1l0,0l-1.1-0.7l-0.2-0.1l-0.8-0.3l-1.5-0.5l-1.2-0.5
				l-0.5-0.2l-0.5,0.4l-0.1-0.4l0.5-0.3l-0.3-1l-0.5,0.3l-0.1-0.4l0.5-0.4l-0.3-0.7l-0.6,0.4l-0.1-0.4l0.6-0.4l-0.2-0.6l-0.6,0.4
				l-0.1-0.4l0.6-0.4l-0.2-0.6l-0.6,0.4l-0.2-0.4l0.7-0.4l-0.3-1l-1-0.4l-0.4,1.2l-0.3,1l0.1,0.3l0.5-0.4l0.1,0.4l-0.5,0.3l0.3,0.8
				l0.5-0.3l0.1,0.4l-0.4,0.3l0.3,0.8l0.4-0.3l0.1,0.4l-0.3,0.2l0.2,0.5l0.4-0.3l0.1,0.4l-0.2,0.2l0.1,0.7v0.1l-0.2,1.2l-0.8,0.9h0
				l-0.8,0.4l-0.7,0.3l-0.5,0.6h0.1h0.9c0.8-0.1,1.5-0.3,2.3-0.5h0l0.2-0.1l0.2,0l0.2,0.1l0.2,0.3l0.1,0.2l0.5,1.2l0,0.1l0,0.1
				l0.1,0l0.1-0.1l0.2-0.3v-0.1l0.1-0.2l0.3-0.3l0.5-0.1l0.6,0.1v0l0-0.1l-0.2-0.4l-0.2-0.3l-0.1,0l-0.4-0.3l-0.4-0.2l-0.8-0.7
				l0.4-0.3l1.1,0.8h0l0.2,0.1l0.7,0.8l0.1,0.4l0.1,0.3l0.1,0.3h0.1h0.1l0.3-0.4l0.5-0.4l0.6-0.1h0l0.3,0v-0.1l-0.3-0.4l0,0L83,137
				l-0.9-0.4h0l-0.4-0.1l-0.2-0.1l-0.9-0.6l-0.2-0.2l0.2-0.1l0.3-0.2l0.6,0.4l1.1,0.5l0.3,0.1l0.3,0.2l0.6,0.5l0.2,0.4l0,0l0.1,0.2
				l0.1,0.7l0.1,0h0.1l0.9-1L85.6,137.2z"/>
		</g>
		<polygon class="st2" points="46,139.6 46,139.7 46.4,138.9 46,138.7 45.5,138.6 		"/>
		<polygon class="st2" points="43.7,137.5 43.2,137.6 43.2,137.6 43.7,137.7 43.9,137.8 44.5,138.2 43.9,137.6 43.7,137.5 		"/>
		<polygon class="st2" points="43.2,138.6 43.6,139.5 43.6,139.3 43.7,139.1 44.2,138.6 44.3,138.5 43.7,138.2 43.7,138.2 43.2,138 
					"/>
		<polygon class="st2" points="46,138.1 45.5,138.2 45.9,138.3 46,138.3 46.9,138.7 47,138.8 47,138.7 46.9,138.7 46.4,138.1 
			46,138 		"/>
		<g>
			<path class="st2" d="M54.1,137.5l-0.7-0.4h0v0l-0.8-0.4l-0.8-0.9l-0.2-1.3l0.1-0.7l-0.2-0.2l0.1-0.4l0.4,0.3l0.1-0.5l-0.4-0.2
				l0.1-0.4l0.4,0.3l0.3-0.8l-0.4-0.3l0.1-0.4l0.5,0.3l0.2-0.8l-0.5-0.3l0.1-0.4l0.5,0.4l0.1-0.3l-0.3-1l-0.4-1.2l-0.9,0.4l-0.4,1
				l0.6,0.4l-0.2,0.4l-0.6-0.4l-0.2,0.6l0.6,0.4l-0.1,0.4l-0.6-0.4l-0.2,0.6l0.6,0.4l-0.1,0.4l-0.6-0.4l-0.2,0.7l0.5,0.4l-0.1,0.4
				l-0.5-0.3l-0.4,1l0.5,0.3l-0.2,0.4l-0.5-0.4l-0.2,0.1l-0.2,0.1l-1.5,0.6l-1.2,0.4l1.2-0.4l-1.2,0.4l-1,0.4l-0.1,0.1l-1.1,0.7
				l-0.1,0.1l-0.4,0.5l0,0.1h0l0.2,0l0.2,0l0.3,0.1l0.9,1h0l0.1,0l0.1-0.7l0,0l0.1-0.2l0.2-0.4l0.2-0.2l0.4-0.3l0.6-0.3l1-0.4
				l0.8-0.5l0.3,0.2l0.2,0.1l-0.1,0.2l0,0l-1.2,0.6l-0.4,0.2l-0.5,0.2l-0.6,0.4l-0.1,0l-0.3,0.4l0,0.1l0,0l0.3,0H46l0.6,0.1l0.5,0.4
				l0.3,0.4h0.1h0.1l0-0.3l0.1-0.3l0.1-0.4l0.3-0.5l0.5-0.4l1.1-0.8l0.4,0.3l-0.8,0.7h0l-0.4,0.2h0l-0.3,0.2l-0.1,0.1l-0.3,0.4
				l-0.2,0.4l0,0.1v0.1l0.5-0.1l0.4,0.1l0.3,0.3l0.1,0.1l0,0.2l0.2,0.3v0l0.1,0.1h0.1l0.1,0l0.1-0.1l0.2-0.6l0.3-0.8l0.1-0.1
				l0.3-0.2l0.2,0l0.2,0.1l0.5,0.1h0c0.7,0.2,1.4,0.3,2.1,0.4l0.7,0L54.1,137.5z"/>
		</g>
		<polygon class="st2" points="48.6,138.5 48.3,138.6 48.7,138.7 49.2,139 49.2,138.9 49,138.6 48.9,138.5 48.7,138.5 		"/>
		<g>
			<path class="st2" d="M48.1,138.9c0.1,0.6,0.3,1.1,0.6,1.6l0.1,0.1v0v0v0l0.4-1.1l-0.5-0.3L48.1,138.9z"/>
			<path class="st5" d="M85,135.5c6.6-2,12.8-4.9,18.6-8.8l0,0l0.5-0.4l0.1-0.1l0-0.1l0-0.1l-0.1,0l-0.1-0.1l-0.4-0.1h-8.3l-0.9-0.2
				l-0.7-0.8l-0.1-0.5l0,0v0l0-0.1v-0.1l0.1-0.1l0.1-0.1l0,0l0.4-0.2l0,0c6.4-3.4,12.1-7.8,17.1-13.1l0,0l0,0v1.3l-0.1,0.2l0,0.1h0
				l-0.6,0.6v0c-4.4,4.4-9.3,8.2-14.7,11.2l0,0l-0.5,0.3l-0.1,0.1l-0.1,0.1v0.1l0.1,0l0.1,0h0l0.3,0.1l0.3,0h9.5l0.5,0.2l0,0.1
				l0.1,0.1l0,0.7l-0.4,0.5l-0.1,0.1l0,0c-6,4.2-12.7,7.5-19.7,9.7h0L85,135.5L85,135.5z"/>
			<path class="st5" d="M106.6,124.6l-1.2-0.5h-8.1c4.9-2.8,9.3-6.3,13.4-10.2l0,0v7.5l0,0C109.3,122.5,108,123.6,106.6,124.6
				L106.6,124.6z"/>
			<path class="st6" d="M85.5,123.3l7.5,0.4l0,0c-1.7,0.9-3.4,1.6-5.2,2.4l0,0L85.5,123.3z"/>
			<path class="st5" d="M96,130.3v-3.8h6.6l0,0C100.5,127.9,98.3,129.2,96,130.3L96,130.3z"/>
			<path class="st5" d="M106.4,126.9l0.4-0.5l0.2-0.8l-0.1-0.4v0c1.6-1.1,3.1-2.4,4.6-3.7h0l0.1-0.1h0.2l0.2,0.1l0.1,0.7l-0.1,0.1v0
				C110.3,124,108.4,125.5,106.4,126.9L106.4,126.9z"/>
			<path class="st5" d="M44.2,135.5l-1,0.8l0,0c-7-2.2-13.7-5.5-19.7-9.7l0,0l-0.4-0.5v0l0-0.8l0-0.1l0.1-0.1l0.1-0.1l0.5-0.2h9.5
				l0.5,0l0.1,0l0.1-0.1l0-0.1l-0.1-0.1l-0.1-0.1l-0.5-0.3l0,0c-5.4-3-10.3-6.8-14.6-11.2h0l-0.6-0.6l-0.1-0.1l0-0.1l-0.1-1.3
				l0.1-0.2l0,0l0,0c4.9,5.4,10.7,9.8,17.1,13.2h0l0.4,0.2l0.1,0.1l0.1,0.1l0.1,0v0l0,0.1l0,0.1v0l0,0l-0.2,0.8l-0.7,0.5l-0.7,0.1
				h-8.3l-0.4,0.1l-0.1,0.1l-0.1,0l0,0.1l0.1,0.1l0.1,0.2l0.5,0.4h0C31.4,130.5,37.6,133.5,44.2,135.5L44.2,135.5z"/>
			<path class="st5" d="M22.7,124.6c-1.4-1-2.8-2.1-4-3.2l0,0v-7.5l0,0c4,4,8.5,7.4,13.3,10.3l0.1,0h-8.1L22.7,124.6z"/>
			<path class="st6" d="M43.8,123.3l-2.3,2.7h0c-1.7-0.7-3.5-1.5-5.2-2.3h0L43.8,123.3z"/>
			<path class="st5" d="M33.2,130.3c-2.3-1.2-4.5-2.5-6.6-3.8h0h6.6V130.3z"/>
			<path class="st5" d="M22.8,126.9c-2-1.4-3.9-2.9-5.7-4.5l-0.1-0.1l0.1-0.7l0.2-0.1l0.3,0l0.1,0.1l0,0c1.4,1.3,3,2.5,4.6,3.7l0,0
				l0,0.7l0.3,0.7L22.8,126.9L22.8,126.9z"/>
			<path class="st5" d="M64.6,140.3c4.7,0,9.4-0.5,13.9-1.4l0,0l0.2,0.5v0l0.4,0.4l0.3,0.1l0.4-0.2l0.4,1.1l0.2,0.4l0.1,0.1l0.3-0.2
				c0.6-0.6,1-1.4,1-2.2v-0.1h0l0.6,0.2l0.5,0.8l0,0.1v0.5l0,0.2v0v0l0.3-0.2l0.1-0.1c0.5-0.4,0.9-1.1,1-1.8l0.5,0.1l0.1,0l0.3,0.4
				l0,0.5l-0.1,0.4v0l0.6-0.1l0.2-0.1l0.6-1l0.1-0.8l-0.2-1v-0.1l-0.1,0h-0.1c6.9-2.2,13.4-5.4,19.3-9.5l0,0v8.7l0,0
				c-12.4,7.5-26.6,11.5-41,11.5h0c-14.4,0-28.7-4-41.1-11.5l0,0v-8.7l0,0c6,4.1,12.4,7.4,19.3,9.5l0.1,0h0l0,0l0,0.1l-0.2,1
				c0,0.6,0.2,1.2,0.5,1.7l0.2,0.2l0.5,0.2l0.4,0l-0.1-0.5l0.2-0.6l0.2-0.2l0.5-0.2H45v0c0.1,0.7,0.4,1.3,1,1.8l0.3,0.2l0.2,0.1v0v0
				v-0.6V140l0.3-0.8l0.2-0.2l0.6-0.2h0.1v0.1c0,0.8,0.4,1.7,1,2.2l0.3,0.2L49,141l0.1-0.2l0.4-1.1l0.5,0.2l0.6-0.3l0.1-0.2v0
				l0.1-0.5h0C55.3,139.8,60,140.3,64.6,140.3"/>
			<path class="st5" d="M64.6,148.3c14.4,0,28.7-3.9,41.1-11.4h0l0.9-0.5c0.6-0.2,1,0.6,0.5,0.9l0,0c-12.8,7.9-27.5,12-42.5,12h0
				c-15,0-29.6-4.2-42.5-12.1l0,0l0.5-0.9l0.9,0.5l0,0l0,0C35.9,144.4,50.1,148.3,64.6,148.3"/>
			<path class="st5" d="M64.6,139.6L64.6,139.6c-4.5,0-9-0.4-13.3-1.3l0,0l-0.2-0.1l0,0l-0.1,0h0l0,0h0l0,0h0l-0.1-0.1v0l0,0
				l0.1-0.2l0.1-0.1l0,0H51l0.1,0h0.1l0.1,0h0c0.8,0.3,1.6,0.4,2.4,0.5l0.3,0l0.5,0l0.5-0.1v-0.4h0c3.2,0.4,6.3,0.7,9.5,0.7
				c3.2,0,6.4-0.2,9.6-0.7h0l0,0.4l0.5,0.1h0l0.6,0c0.6,0,1.3-0.1,1.9-0.2l0.8-0.2l0.1,0h0.1l0.1,0h0.1l0,0l0.1,0.1l0,0.2l0,0
				l-0.1,0.1l0,0h0l-0.1,0l-0.1,0l-0.1,0l-0.1,0h0C73.6,139.2,69.1,139.6,64.6,139.6L64.6,139.6z"/>
		</g>
		<path class="st2" d="M80.4,114.3v0.5l-0.1,0h0l-0.6,0l0.1,0.6l0,0h-0.3l-0.4,0l-0.2-0.9l-0.1-0.9l1.3,0.6L80.4,114.3z M79.8,116.6
			l0.6,0v0.7L79.8,116.6z M80.4,114.9v-0.5l0.6,0.4l-0.2,0.1l-0.1,0L80.4,114.9L80.4,114.9z M80.4,116.6l1-0.5l1-1.2l1.2,0.1
			l-1.3,4.5l-1.9-2.2V116.6z"/>
		<polygon class="st2" points="70.9,31 73.3,29.2 75.7,31 74.8,28.1 77.1,26.3 74.2,26.3 73.3,23.5 72.3,26.3 69.4,26.3 71.8,28.1 
					"/>
		<polygon class="st2" points="62.3,26.8 64.6,25.1 67,26.8 66.1,24 68.5,22.2 65.6,22.1 64.6,19.3 63.7,22.1 60.8,22.2 63.1,24 		
			"/>
		<polygon class="st2" points="53.8,30.8 56.2,29 58.6,30.8 57.7,27.9 60.1,26.2 57.2,26.1 56.2,23.3 55.3,26.1 52.3,26.2 
			54.7,27.9 		"/>
		<polygon class="st2" points="66.9,34.8 70.5,32.1 66.1,32.1 64.6,27.8 63.2,32.1 58.8,32.1 62.3,34.8 61,39.2 64.6,36.5 
			68.3,39.2 		"/>
		<polygon class="st2" points="55.9,36.9 58.2,35.1 55.3,35.1 54.3,32.3 53.4,35.1 50.5,35.1 52.9,36.9 52,39.7 54.3,38 56.7,39.7 
					"/>
		<polygon class="st2" points="78.7,35.1 75.8,35.1 74.9,32.3 73.9,35.1 71,35.1 73.3,36.9 72.5,39.7 74.9,38 77.2,39.7 76.4,36.9 
					"/>
		<polygon class="st2" points="61.1,42.5 60.1,39.6 59.2,42.5 56.3,42.5 58.7,44.3 57.8,47.1 60.1,45.4 62.6,47.1 61.7,44.3 
			64,42.5 		"/>
		<polygon class="st2" points="70.1,42.3 69.2,39.4 68.2,42.3 65.3,42.3 67.7,44.1 66.8,46.9 69.2,45.2 71.6,46.9 70.7,44.1 
			73,42.3 		"/>
		<g>
			<path d="M97.8,136.6l-0.4-0.5l0-0.1C98.5,136.3,97.8,136.6,97.8,136.6 M93.8,138.4c0,0-0.6-0.1-0.3-0.9c0,0,0.7,0.2,1,0.7
				L93.8,138.4z M99.7,132.6c0,0-0.1,1.4-1.2,1.8c0,0,0.3,0.3,1.1,0.2l1,0.7l-1.4,0.6c-2.1-1.4-2.8-0.6-2.8-0.6
				c-0.9,0.8-0.1,1.8-0.1,1.8l-0.6,0.3c-1.2-1.4-3.8-0.8-3.8-0.8c0,0.9-0.3,2-0.3,2c-0.1,1.1-0.2,1.7-0.2,1.7l2-0.6
				c1.1-0.4,0.5,0.9,0.5,0.9c-0.5,0.9-2.9,0.6-2.9,0.6c1.5,0.7,3,0.3,3,0.3c3.3-0.6,2.4-2.9,2.4-2.9c2.9-1,6.2-3,6.2-3L99.7,132.6z"
				/>
			<path d="M103.6,133.6c0,0-1.2-1-0.6-1.2c0,0-1.6,0.5-2.4-0.1l3,3.3l1.6-0.7L103.6,133.6z"/>
			<path d="M88,137.7c-0.2,1.2-1.1,1.8-1.3,1.9l0.9,0.2l2.2,2.2l1.3-0.5L88,137.7z"/>
			<path d="M84.7,141.7l0.6,0.8c-2.1,1.2-5.9,1.5-5.9,1.5c-2.1,0.4-1.4-0.7-1.4-0.7l1.1-1.8c0.4-1.1-0.8-0.1-0.8-0.1
				c-0.7,1.6-2.7,2.3-2.7,2.3c-1,0.7,0.4,1,0.4,1c1.2,0.1,2,0.7,2,0.7c4.9-1,9.8-3,9.8-3l-1.9-2.4C86.1,140.9,84.7,141.7,84.7,141.7
				"/>
			<path d="M95.6,135.5l0.4-0.7l1.4,0.1l0.4-1l-1.5-0.2l-0.2,0.4l-0.3,0.4l-0.7,0l-0.6-0.1l-0.4,1.1
				C94.8,135.4,95.3,135.5,95.6,135.5L95.6,135.5z"/>
			<path d="M81.1,142.5l0.4-0.7l1.4,0.1l0.5-1.1l-1.5-0.2l-0.2,0.4l-0.2,0.3l-0.7,0l-0.6-0.1l-0.4,1
				C80.3,142.4,80.8,142.5,81.1,142.5"/>
		</g>
		<path d="M72.8,142.2l0.1,0L72.8,142.2z"/>
		<g>
			<path d="M72.8,142.2c-0.4,0-1.7,0.2-2.5-0.7l1.8,4.7l1.6-0.2l-0.8-2.3L72.8,142.2z"/>
			<path d="M63.2,144.9c0.7-0.6,1.2,0.2,1.2,0.2C63.6,145.8,63.2,144.9,63.2,144.9 M30.9,137l-1.5-0.7c0,0,0.6-0.2,1.6-0.2L30.9,137
				z M68.2,142.4c-1.3,0.4,0.3,0.8,0.3,0.8c0.6,0.6,0.8,1.7,0.8,1.7c-0.9,0.2-3.5,0.1-3.5,0.1c-1.1-1.9-2.3-2-2.3-2
				c-1.9,0.6-2,1.8-2,1.8l-1.4-0.1c-0.1-2.1-1-3-1-3l-1.3,0.7l1,1.8l-0.6-0.1c-0.5-1-1.2-2.4-1.2-2.4l-1.3,0.8
				c0.7,0.8,0.6,1.3,0.6,1.3l-0.9-0.1c-0.1-0.6-0.8-1.4-0.8-1.4l-1.9,0.6l0.4,0.8c-5.9-0.7-11-2.8-11-2.8l0.2-3.8
				c-1,0.4-2.1,0.5-2.1,0.5c-2.1,0.4,0.5,0.9,0.5,0.9l-0.1,1.7c-1.9,0.6-1.5-1.4-1.5-1.4c0.1-1.5-2.6-1.9-2.6-1.9
				c-1.7-0.6-1.8-1.4-1.8-1.4c-1.2-0.5-0.9,0.7-0.9,0.7c0.3,1.5,3.2,2.4,3.2,2.4c1.8,1.2-0.6,0.7-0.6,0.7l-3.7-1.5l0.4-3.7l-2.4,0.3
				c-1.9,0.9-3.8,0.2-3.8,0.2c-3-0.3-2.3,0.8-2.3,0.8c2.3,1.5,12.4,5.3,12.4,5.3c0.5,0.8,1.8,1.4,1.8,1.4c0.2-1,1.4-0.4,1.4-0.4
				c8.4,2.8,14.9,3.6,14.9,3.6c4.9,0.6,7.4,0.6,7.4,0.6l0.8,0.6c1.9,0.7,2.3-0.4,2.3-0.4H71l-1.2-4.3L68.2,142.4z"/>
		</g>
		<polygon points="26.3,132.6 27.1,133.6 27.1,133.6 28.1,133.3 28.9,134.2 30.2,133.7 29.3,132.7 28.8,132.8 28.3,133 27.9,132.5 
			27.5,132.1 		"/>
	</g>
	<g>
		<path class="st7" d="M181,90.4c0.4-0.2,2.4-0.4,3-0.4c0.3,0,0.5,0.2,0.5,0.9l1.5,10.6c0.5,3,0.8,5.1,1,6.5
			c-0.5,0.1-2.3,0.3-2.9,0.3c-0.4,0-0.7-0.1-0.8-0.7c-0.2-1.5-0.3-3-0.7-6.1l-0.8-7.2c-0.8,2.5-2.5,7.3-4.3,12.7
			c-0.2,0.6-0.4,0.8-1,0.9c-0.5,0.1-1.2,0.2-1.8,0.2c-0.7-2.2-3.2-9.9-4.5-13.8c-0.4,3.5-1.3,10.1-1.7,13.5
			c-0.1,0.3-0.2,0.5-0.5,0.5c-0.8,0-2.1,0-2.6-0.3c0.5-3,1.7-10.5,2.8-17l-0.1-0.5c0.7-0.1,1.8-0.4,3.1-0.4c0.4,0.1,0.7,0.5,1.2,2
			l3.9,10.7c1.4-3.8,3.4-8.9,4.6-11.9V90.4z"/>
		<path class="st7" d="M191,93.9c0-1.9,0-3.1-0.1-3.7c0.5-0.1,2.5-0.2,3.1-0.2c0.5,0,0.6,0.3,0.6,1.6v12.9c0,2,0.1,3,0.1,3.5
			c-0.5,0.1-2.4,0.2-3.1,0.2c-0.4,0-0.6-0.1-0.6-0.6V93.9z"/>
		<path class="st7" d="M199.1,90.4v-0.1c0.5-0.1,3-0.2,3.5-0.2c0.3,0,0.5,0.2,0.8,0.5c0.9,1.3,3.3,4.9,5.3,8.1c1.3,2,2.4,3.7,3,5.1
			c-0.2-2.2-0.1-3.3-0.1-4.8v-8c0-0.7,0.2-0.8,0.6-0.8c0.9-0.1,1.7-0.1,2.3-0.1c-0.1,1.2-0.1,2.9-0.1,5.3V108
			c-0.3,0.1-1.9,0.5-2.7,0.5c-0.3,0-0.5-0.1-0.7-0.4c-1.5-2.1-3-4.3-5.2-7.8c-1.5-2.4-2.4-4-3.5-6.2c0.2,2.9,0.1,4.4,0.1,5.9v7.5
			c0,0.6-0.2,0.7-0.6,0.8c-0.5,0.1-1.4,0.1-2.3,0.1c0.1-1.1,0.1-2.8,0.1-5.2V91.1L199.1,90.4z"/>
		<path class="st7" d="M219.5,93.9c0-1.9,0-3.1-0.1-3.7c0.5-0.1,2.5-0.2,3.1-0.2c0.5,0,0.6,0.3,0.6,1.6v12.9c0,2,0.1,3,0.1,3.5
			c-0.5,0.1-2.4,0.2-3.1,0.2c-0.4,0-0.6-0.1-0.6-0.6V93.9z"/>
		<path class="st7" d="M233.1,89.7c1.5,0,3.4,0.6,4.1,1.4c0,0.7-0.5,1.9-1.5,1.8c-0.7-0.3-1.9-0.7-2.8-0.7c-1.5,0-2.6,0.7-2.6,2
			c0,1.4,0.9,2,3.6,3.6c2.6,1.5,4.1,2.6,4.1,5.3c0,3.6-3.1,5.5-6.5,5.5c-2,0-3.4-0.6-4.2-1.1c-0.5-0.3-0.7-0.6-0.7-1
			c0-0.6,0.4-1.7,0.7-1.8c1,0.7,2.8,1.4,4.1,1.4c1.7,0,2.9-0.7,2.9-2.2c0-1.3-0.7-2-3.6-3.6c-3.3-1.8-3.9-3.7-3.9-5.4
			C227,92.8,228.4,89.7,233.1,89.7L233.1,89.7z"/>
		<path class="st7" d="M245.5,92.5h-5.2c-0.5,0-0.7-0.2-0.5-0.9c0.3-0.9,0.7-1.4,0.9-1.7c0.5,0.1,1.2,0.1,4.1,0.1h10.2
			c-0.1,1.5-0.9,2.2-1.5,2.4h-4.6v12c0,2,0.1,2.9,0.1,3.5c-0.8,0.1-1.9,0.2-3.1,0.2c-0.4,0-0.6-0.1-0.6-0.5V92.5z"/>
		<path class="st7" d="M261.5,107.4c0,0.6-0.2,0.7-0.7,0.7c-0.8,0.1-2.4,0.1-3,0.1c0.1-1.1,0.1-2.8,0.1-5.3v-9.6
			c0-1.4,0-2.1-0.1-2.9c0.7-0.2,3.6-0.5,4.9-0.5c4.6,0,6.8,1.6,6.8,5.2c0,2.7-2.3,4.1-3.5,4.6c0.7,0.6,1.6,2,2.5,3.7
			c1.4,2.4,2.3,3.7,3,4.5v0.1c-0.2,0.2-1.3,0.3-2.3,0.3c-1.1,0-1.8-0.3-2.6-1.3c-0.8-1-1.4-2.2-2.5-4.4c-0.9-1.6-1.4-1.9-2.4-1.9
			h-0.5V107.4z M261.5,98.7c0.8,0.1,2.4,0,2.8-0.2c0.6-0.2,1.8-1.1,1.8-3c0-2.4-1.5-3.4-3.3-3.4c-0.4,0-0.9,0-1.2,0.1V98.7z"/>
		<path class="st7" d="M278.1,101c0-0.5,0-1-0.2-1.3c-1.6-2.7-4.1-6.6-5.8-9v-0.1c1-0.3,2.4-0.5,3.1-0.5c0.5,0,0.7,0.1,1.4,1.4
			c1,1.6,2.4,4.1,3.7,6.2c1.2-1.9,4-6.5,4.5-7.5c1.1,0,2,0.1,2.4,0.3c0.5,0.2,0.4,0.5,0,1.2c-0.7,1.2-5,7.5-5.3,8
			c-0.2,0.4-0.3,0.8-0.3,1.2v3.9c0,2,0.1,2.8,0.1,3.4c-0.7,0.1-1.6,0.2-3.2,0.2c-0.4,0-0.5-0.1-0.5-0.5V101z"/>
		<path class="st7" d="M305.7,89.7c5.8,0,9.2,4.2,9.2,9.3c0,5.1-3.2,9.6-9.3,9.6c-6.6,0-9.3-4.9-9.3-9.3
			C296.3,93.8,299.8,89.7,305.7,89.7L305.7,89.7z M305.3,91.9c-2.8,0-5.1,2.3-5.1,7c0,4.8,2.6,7.4,5.6,7.4c3.2,0,5.2-2.6,5.2-7.1
			C311,95.1,308.9,91.9,305.3,91.9L305.3,91.9z"/>
		<path class="st7" d="M318.7,93.6c0-1.3,0-2-0.1-3c0.5-0.1,2.2-0.4,3.5-0.4c1,0,5.9,0,7.3,0c-0.2,1.3-0.6,1.8-1,2.2
			c-0.4,0.2-1,0.2-2.2,0.2h-3.9v5.7h6.5c-0.3,2.2-1,2.4-2.1,2.4h-4.4c0,2.9,0,5.3,0.1,7.4c-0.5,0.1-1.9,0.2-3,0.2
			c-0.4,0-0.6-0.1-0.6-0.5V93.6z"/>
		<path class="st7" d="M339.2,93.8c0-2,0-2.5-0.1-3.3c0.6-0.1,3.5-0.5,5.9-0.5c8.7,0,10.2,5.2,10.2,8.9c0,6.2-4.5,9.5-10.3,9.5
			c-2.1,0-3.9-0.2-5.7-0.5V93.8z M342.8,105.9c0.7,0.2,1.5,0.2,2.2,0.2c2.6,0,6.4-1.2,6.4-7.2c0-4.3-2.5-6.7-6.8-6.7
			c-0.9,0-1.4,0.1-1.8,0.1V105.9z"/>
		<path class="st7" d="M359.1,94.2c0-1.4,0-2.4-0.1-3.6c0.8-0.2,2.1-0.4,3.2-0.4h7c-0.2,1.3-0.5,1.8-0.9,2.2
			c-0.4,0.2-1.4,0.2-2.7,0.2h-3v5.1h6.3c-0.3,2-0.9,2.4-1.9,2.4h-4.4v5.6c0.7,0.1,1.6,0.2,2.7,0.2c1.2,0,3.3,0,4.7-0.1l0.1,0.1
			c-0.3,1.2-0.8,1.9-1.5,2.3c-0.4,0.1-1.7,0.1-3.9,0.1c-2.5,0-4.4-0.1-5.1-0.3l-0.4-0.5V94.2z"/>
		<path class="st7" d="M373.3,93.6c0-1.3,0-2-0.1-3c0.5-0.1,2.2-0.4,3.5-0.4c1,0,5.9,0,7.3,0c-0.2,1.3-0.6,1.8-1,2.2
			c-0.4,0.2-1,0.2-2.2,0.2h-3.9v5.7h6.5c-0.3,2.2-1,2.4-2.1,2.4h-4.4c0,2.9,0,5.3,0.1,7.4c-0.5,0.1-1.9,0.2-3,0.2
			c-0.4,0-0.6-0.1-0.6-0.5V93.6z"/>
		<path class="st7" d="M387.1,94.2c0-1.4,0-2.4-0.1-3.6c0.8-0.2,2.1-0.4,3.2-0.4h7c-0.2,1.3-0.5,1.8-0.9,2.2
			c-0.4,0.2-1.4,0.2-2.7,0.2h-3v5.1h6.3c-0.3,2-0.9,2.4-1.9,2.4h-4.4v5.6c0.7,0.1,1.6,0.2,2.7,0.2c1.2,0,3.3,0,4.7-0.1l0.1,0.1
			c-0.3,1.2-0.8,1.9-1.5,2.3c-0.4,0.1-1.7,0.1-3.9,0.1c-2.5,0-4.4-0.1-5.1-0.3l-0.4-0.5V94.2z"/>
		<path class="st7" d="M400.8,90.4v-0.1c0.5-0.1,3-0.2,3.5-0.2c0.3,0,0.5,0.2,0.8,0.5c0.9,1.3,3.3,4.9,5.3,8.1c1.3,2,2.4,3.7,3,5.1
			c-0.2-2.2-0.1-3.3-0.1-4.8v-8c0-0.7,0.2-0.8,0.6-0.8c0.9-0.1,1.7-0.1,2.3-0.1c-0.1,1.2-0.1,2.9-0.1,5.3V108
			c-0.3,0.1-1.9,0.5-2.7,0.5c-0.3,0-0.5-0.1-0.7-0.4c-1.5-2.1-3-4.3-5.2-7.8c-1.5-2.4-2.4-4-3.5-6.2c0.2,2.9,0.1,4.4,0.1,5.9v7.5
			c0,0.6-0.2,0.7-0.6,0.8c-0.5,0.1-1.4,0.1-2.3,0.1c0.1-1.1,0.1-2.8,0.1-5.2V91.1L400.8,90.4z"/>
		<path class="st7" d="M435.4,105.3c-0.1,1-0.5,1.8-0.9,2.3c-0.7,0.5-2.2,1-4.2,1c-6.6,0-10.1-3.7-10.1-9.2c0-6,4.5-9.6,10.2-9.6
			c2.7,0,4.8,0.9,5.3,1.4c0.1,1-0.6,2-1.5,1.8c-0.9-0.4-2.2-0.8-3.8-0.8c-3.5,0-6.3,2.3-6.3,6.9c0,3.9,2.5,6.9,7.1,6.9
			C433,105.9,434.5,105.5,435.4,105.3L435.4,105.3z"/>
		<path class="st7" d="M438.8,94.2c0-1.4,0-2.4-0.1-3.6c0.8-0.2,2.1-0.4,3.2-0.4h7c-0.2,1.3-0.5,1.8-0.9,2.2
			c-0.4,0.2-1.4,0.2-2.7,0.2h-3v5.1h6.3c-0.3,2-0.9,2.4-1.9,2.4h-4.4v5.6c0.7,0.1,1.6,0.2,2.7,0.2c1.2,0,3.3,0,4.7-0.1l0.1,0.1
			c-0.3,1.2-0.8,1.9-1.5,2.3c-0.4,0.1-1.7,0.1-3.9,0.1c-2.5,0-4.4-0.1-5.1-0.3l-0.4-0.5V94.2z"/>
		<path class="st7" d="M409.3,68.5c1.9,0,3.5-1.3,4.8-4.1c1.1-2.3,1.7-4.2,1.7-6c0-1.3-0.3-2.6-1-3.8c-0.8-1.4-1.8-2.4-3-3.2
			l-1.3,3.7c0.3,0.2,0.9,0.7,1.9,1.6c1.2,1.1,1.7,1.8,1.7,2.3c0,1.2-1.1,2.7-3.3,4.5c-2.1,1.7-3.6,2.5-4.6,2.5
			c-0.5,0-1.2-0.2-2.4-0.6c-1.2-0.4-1.7-0.6-1.8-0.6c-0.1,0-0.3,0-0.4,0.1v0.4c0.3,0.3,1.4,0.9,3.5,1.7
			C407.1,68.1,408.5,68.5,409.3,68.5 M394.7,43.7c-0.7,0.6-1.4,1.3-2.1,2.2c0.1,0.1,0.5,0.4,1.2,0.9c0.8,0.4,1.3,0.6,1.6,0.6
			c0.2,0,0.7-0.5,1.5-1.4l2.8,1.5c0.6-0.2,1.2-1,2.1-2.3c-1.7-1-2.6-1.5-2.9-1.5c-0.1,0-0.4,0.2-0.9,0.7c-0.5,0.5-0.8,0.7-0.8,0.7
			C397.1,45.1,396.2,44.6,394.7,43.7 M380.6,47.5l1.7,14.2c1.2-1.9,1.9-4.1,1.9-6.9L383.2,43c-0.3,0.4-0.8,1.2-1.5,2.3
			C380.9,46.5,380.6,47.3,380.6,47.5 M423.1,65.3c-1-0.3-1.5-0.5-1.5-0.5h-0.5c0,0.1-0.1,0.3-0.1,0.4c0.3,0.3,0.7,0.6,1.2,0.9
			c0.1,0.1,0.6,0.3,1.2,0.6c2.5,1.1,4.3,1.7,5.5,1.7c1.7,0,3.2-1.2,4.6-3.6c1.2-2.2,1.8-4.3,1.8-6.4c0-2.9-1.3-5.2-3.9-7.1L430,55
			c0.6,0.4,1.3,1,2.1,1.8c1,1,1.4,1.7,1.4,2.2c0,1-1,2.3-3,4.1c-2,1.8-3.6,2.7-5,2.7C424.9,65.8,424.1,65.6,423.1,65.3 M423,54.9
			L422,43c-0.3,0.4-0.8,1.2-1.5,2.3c-0.8,1.2-1.2,2-1.2,2.3l1.7,14.2C422.3,59.8,423,57.6,423,54.9 M442.1,69.8
			c2.1,0,3.9-1.4,5.3-4.3c1.2-2.5,1.8-4.9,1.8-7.4c0-0.7-0.1-1.4-0.3-2.3l-0.4-1.2c-0.2-0.6-0.6-1.2-1-1.9c-0.7-1-1.3-1.4-1.9-1.4
			c-1,0-2,0.9-3.2,2.6c-1,1.5-1.5,2.5-1.6,3.2v1.1c0,1.1,0.1,1.9,0.4,2.4c0.4,0.6,1.2,1,2.2,1c1.9,0,2.9-0.7,3.8-3.1h0.1
			c0.1,0.4,0.2,0.8,0.2,1.2c0,1.6-1.3,3.4-3.9,5.3c-2.3,1.8-4.1,2.7-5.4,2.7c-0.1,0-0.7-0.1-1.8-0.3c-1.1-0.2-1.7-0.3-1.8-0.3
			c-0.4,0-0.6,0.2-0.6,0.6c0.4,0.3,1.6,0.8,3.5,1.3C439.7,69.6,441.2,69.8,442.1,69.8 M444.5,58c-0.3,0-0.7-0.1-1.2-0.2
			c-0.7-0.2-1.1-0.5-1.1-0.8c0-0.4,0.3-0.8,0.9-1.1c0.5-0.2,0.9-0.4,1.2-0.4c0.4,0,0.8,0.1,1.2,0.5c0.4,0.4,0.6,0.9,0.6,1.6
			C445.6,57.8,445,58,444.5,58 M401.6,58.4c0.5-1.9,0.8-2.9,0.8-3.1c0-1.1-0.4-2-1.2-2.8l-3.3-2.8c-1.2,1.4-2.3,3-3.4,4.7
			c-1.4,2.3-2.2,4.1-2.2,5.3c0,1.3,1.3,2,3.9,2c1.2,0,2.6-0.5,4.4-1.5c0.3-0.1,0.6-0.5,0.7-0.9L401.6,58.4z M400.5,57.7
			c-1.5,0.2-2.7,0.4-3.5,0.4c-1.2,0-1.9-0.5-1.9-1.3c0-0.3,0.3-0.9,0.8-1.7c0.4-0.5,0.7-1,1.2-1.5c1.7,1.2,2.9,2.5,3.5,3.8V57.7z
			 M430.1,48.7c0.2,0,0.6-0.4,1.1-1.1c0.6-0.7,0.8-1.2,0.8-1.3c0-0.2-0.3-0.6-1-1.1c-0.7-0.5-1.1-0.7-1.3-0.7c-0.2,0-0.6,0.3-1.1,1
			c-0.5,0.6-0.7,1-0.7,1.2c0,0.1,0.3,0.5,1,1.1C429.6,48.4,430,48.7,430.1,48.7 M329.4,60.3c0.3-0.6,0.6-1,0.9-1l1,2.5h41
			c0.2,0,0.5-0.2,0.6-0.2l0.9-4.6l-0.8-6.4c0-0.2,0-0.3,0.1-0.4l1.8-2.3c0.4-0.5,0.7-0.9,0.8-1.2c-0.9-0.5-1.7-1-2.5-1.6
			c-1.2-0.7-1.8-1.2-1.9-1.4c-0.2-0.3-0.3-0.8-0.3-1.5c-0.9,1.2-1.7,2.7-2.6,4.4c0.9,0.7,1.3,1.1,1.3,1.1c0.6,2.7,1,4.7,1.2,6.1
			c0.3,1.5,0.4,2.5,0.4,3.1c0,0.3,0,0.6-0.1,1.1h-37.1c-0.8,0-1.3-0.3-1.5-1l-2.3-9l-1.9,3.7c0.2,0.9,0.5,1.7,0.7,2.5
			c0.5,1.7,0.7,2.7,0.7,3.2c0,0.1,0,0.3-0.2,0.5h-7.8c-0.6,0-0.9-0.5-0.6-3c-0.1-0.1-0.2-0.2-0.2-0.2c-0.5,0.6-0.8,1.5-1,2.4
			c-0.3,1.6-0.5,2.8-0.5,3.7c0.1,0.6,0.4,0.8,0.6,0.8h8.4C328.8,61.5,329.1,61,329.4,60.3 M304.7,44l1.5,1.3c0.6,0.5,1,0.8,1.1,0.8
			c0.2,0,1.1-0.7,2.6-2.3c-1.7-1.5-2.6-2.3-2.7-2.3C306.8,41.5,306,42.3,304.7,44 M314.3,50c-1-2.1-2-3.1-3-3.1
			c-0.9,0-1.8,0.5-2.9,1.3c-1.1,0.9-2,1.9-2.7,3.2c-0.6,1-0.8,1.7-0.8,2.1c0,0.9,0.5,1.6,1.6,2.1c0.8,0.4,1.6,0.6,2.3,0.6
			c1.2,0,2.2-0.3,2.9-0.9l1.1-1.2c0.3,0.3,0.5,0.6,0.6,1c0.4,1.1,0.6,1.9,0.6,2.5c0,0.1,0,0.3-0.1,0.4H187.4c-0.3,0-1.1-0.4-1.3-0.5
			c-0.2,0-0.4-0.2-0.4-0.3c-0.3-2.3-0.8-6.4-1.3-12.4l-0.3-3.3c-0.9,0.9-1.6,1.7-2.1,2.3c-0.3,0.4-0.5,0.6-0.5,0.8l1.6,17h132
			l0.9-5.4c-0.1-1.3-0.2-2.3-0.4-3C315.3,52.3,314.9,51.2,314.3,50 M309.8,52.7c-0.5,0-1.3-0.4-2.5-1.2c0.5-0.9,1.1-1.3,1.8-1.3
			c0.7,0,2,1.2,2.5,2.2C311.3,52.4,309.9,52.7,309.8,52.7 M174.6,58.7c1.2-0.5,2-0.8,2.5-1c0.6-1.3,1-2.4,1.2-3.2
			c-2.1,0.6-3.7,1.2-4.8,1.6c-0.6,0.2-1.2,0.3-1.8,0.3c-0.7,0-1.3-0.2-1.9-0.6c-0.8-0.5-1.2-1.2-1.2-2c0-0.6,0.6-1,1.9-1.3
			c1-0.2,1.9-0.3,2.8-0.3c0.7,0,1.5,0.1,2.2,0.2v-0.3c-1-1.4-2.2-2.4-3.6-2.9c0,0-0.2,0-0.4,0c-1.2,0-2.3,1-3.7,3
			c-1.2,1.8-1.8,3.1-1.8,4.1c0,0.3,0,0.6,0.2,1c0.3,0.8,1.3,1.7,3,2.8c-1,1.1-1.8,2.4-2.4,4.1c-0.4,1.3-0.7,2.8-0.7,4.2
			c0,3.6,2.5,5.5,7.6,5.5c1.1,0,2,0,2.8-0.2c2.9-0.5,5-1.5,6.2-3h-6.4c-1.8,0-3.5-0.3-4.9-0.9c-2.1-0.8-3.1-2.1-3.1-3.8
			c0-0.6,0.1-1.2,0.3-1.7C169.3,62.1,171.4,60.3,174.6,58.7"/>
	</g>
</g>
</svg>
