<svg xmlns="http://www.w3.org/2000/svg" xmlns:xlink="http://www.w3.org/1999/xlink" version="1.1" id="Layer_1" x="0px" y="0px" viewBox="0 0 746.66 754.56" style="enable-background:new 0 0 746.66 754.56;/* background: #000; */" xml:space="preserve">
<style type="text/css">
	.st0{fill:#FFFFFF;}
</style>
<g>
	<path class="st0" d="M586.48,123.65l-51.18,61.42c0.67,0.33,1.33,0.67,1.97,1.03l50.88-61.06c0.45,0.27,0.93,0.48,1.42,0.63   c1.24,0.37,2.56,0.37,3.78,0.02c1.23-0.35,2.37-1.07,3.25-2.12c0.59-0.7,1-1.5,1.25-2.32c0.37-1.24,0.38-2.56,0.02-3.78   c-0.35-1.23-1.07-2.37-2.12-3.24c-0.7-0.59-1.49-1-2.32-1.26c-1.23-0.37-2.55-0.38-3.77-0.02c-1.23,0.35-2.37,1.07-3.25,2.13   c-0.59,0.69-1,1.49-1.25,2.32c-0.38,1.24-0.38,2.55-0.02,3.77C585.4,122.06,585.85,122.92,586.48,123.65z M587.07,118.87   c0.09-0.86,0.41-1.69,1.01-2.41c0.4-0.48,0.87-0.84,1.38-1.11c0.77-0.4,1.65-0.56,2.5-0.47c0.85,0.09,1.69,0.42,2.4,1.01   c0.47,0.39,0.84,0.86,1.11,1.38c0.4,0.77,0.55,1.64,0.47,2.5c-0.09,0.85-0.41,1.69-1.01,2.41c-0.39,0.47-0.87,0.84-1.38,1.11   c-0.77,0.4-1.64,0.56-2.5,0.47c-0.85-0.09-1.69-0.42-2.4-1.01c-0.48-0.4-0.84-0.87-1.11-1.39   C587.15,120.59,586.98,119.72,587.07,118.87z"/>
	<path class="st0" d="M517.1,105l-7.58,13.05l2.77,10.47l-30.77,52.99c0.95-0.19,1.9-0.38,2.84-0.55l28.73-49.47l2.07,7.8   l-23.53,40.52c0.91-0.12,1.81-0.23,2.7-0.32l23.16-39.89l-2.86-10.77L540.66,84c0.5,0.19,1,0.31,1.51,0.38   c1.28,0.16,2.58-0.05,3.73-0.61c1.15-0.55,2.16-1.46,2.84-2.64c0.46-0.79,0.74-1.64,0.85-2.49c0.17-1.28-0.05-2.58-0.61-3.73   c-0.56-1.15-1.45-2.15-2.64-2.84c-0.79-0.46-1.64-0.73-2.5-0.85c-1.29-0.16-2.58,0.05-3.73,0.62c-1.15,0.55-2.16,1.45-2.85,2.63   c-0.46,0.79-0.73,1.64-0.85,2.5c-0.16,1.29,0.06,2.58,0.61,3.73c0.41,0.84,1,1.61,1.74,2.22l-24.94,42.95l-1.99-7.49l7.13-12.28   c0.28,0.09,0.57,0.16,0.85,0.19c0.96,0.12,1.92-0.04,2.78-0.45c0.85-0.41,1.6-1.08,2.12-1.97c0.34-0.59,0.55-1.22,0.63-1.85   c0.12-0.96-0.04-1.92-0.45-2.78c-0.41-0.86-1.08-1.61-1.97-2.12c-0.59-0.34-1.22-0.54-1.86-0.63c-0.96-0.12-1.92,0.04-2.77,0.46   c-0.86,0.41-1.61,1.08-2.12,1.96c-0.34,0.59-0.55,1.23-0.63,1.86c-0.12,0.96,0.04,1.92,0.45,2.78   C516.27,104.08,516.64,104.58,517.1,105z M538.56,78.09c-0.06-0.86,0.12-1.74,0.59-2.54c0.31-0.53,0.71-0.97,1.18-1.32   c0.69-0.52,1.53-0.83,2.39-0.89c0.86-0.06,1.74,0.13,2.53,0.59c0.54,0.31,0.98,0.71,1.33,1.18c0.52,0.69,0.82,1.52,0.88,2.38   c0.06,0.86-0.12,1.74-0.59,2.54c-0.31,0.53-0.72,0.98-1.18,1.32c-0.69,0.52-1.53,0.83-2.39,0.89c-0.86,0.06-1.74-0.13-2.54-0.6   c-0.53-0.31-0.98-0.71-1.33-1.17C538.92,79.78,538.62,78.95,538.56,78.09z M518.07,99.99c0.19-0.33,0.44-0.6,0.73-0.82   c0.43-0.32,0.95-0.51,1.48-0.55c0.54-0.03,1.08,0.08,1.57,0.37c0.33,0.19,0.6,0.44,0.82,0.73c0.32,0.43,0.51,0.95,0.55,1.48   c0.03,0.54-0.08,1.07-0.37,1.57c-0.19,0.33-0.44,0.61-0.73,0.82c-0.43,0.32-0.95,0.51-1.48,0.55c-0.53,0.04-1.07-0.08-1.57-0.37   c-0.33-0.19-0.61-0.44-0.82-0.73c-0.33-0.42-0.51-0.94-0.55-1.48C517.67,101.03,517.78,100.49,518.07,99.99z"/>
	<path class="st0" d="M693.54,267.66c-0.87,0.28-1.64,0.73-2.29,1.3c-0.98,0.85-1.68,1.96-2.03,3.18c-0.26,0.9-0.33,1.86-0.18,2.82   l-117.59,38.35c0.89,0.47,1.76,0.95,2.63,1.43l115.64-37.71c0.24,0.47,0.54,0.9,0.87,1.29c0.85,0.98,1.97,1.68,3.19,2.02   c1.23,0.36,2.58,0.36,3.88-0.07c0.87-0.28,1.64-0.74,2.29-1.3c0.98-0.85,1.68-1.97,2.03-3.19c0.36-1.23,0.35-2.57-0.07-3.88   c-0.28-0.87-0.73-1.64-1.3-2.3c-0.84-0.97-1.96-1.68-3.18-2.03C696.2,267.23,694.85,267.23,693.54,267.66z M699.84,272.59   c0.19,0.59,0.26,1.18,0.21,1.76c-0.07,0.87-0.41,1.69-0.93,2.36c-0.53,0.68-1.25,1.21-2.13,1.5c-0.59,0.19-1.18,0.25-1.76,0.2   c-0.87-0.07-1.69-0.4-2.37-0.93c-0.68-0.53-1.21-1.25-1.49-2.13c-0.19-0.59-0.25-1.19-0.2-1.77c0.08-0.86,0.4-1.68,0.93-2.36   c0.53-0.68,1.25-1.21,2.13-1.5c0.59-0.19,1.19-0.25,1.76-0.2c0.87,0.07,1.69,0.4,2.37,0.93   C699.02,270.98,699.55,271.7,699.84,272.59z"/>
	<path class="st0" d="M615.93,115.96c0.97-1.02,0.93-2.64-0.08-3.61c-1.02-0.97-2.64-0.93-3.61,0.08c-0.97,1.02-0.94,2.64,0.08,3.61   C613.34,117.02,614.96,116.98,615.93,115.96z"/>
	<path class="st0" d="M619.53,143.31c0.13,0.92,0.46,1.83,0.99,2.64l-36.82,33.33l0.38-7.73l10.53-9.53   c0.24,0.17,0.49,0.32,0.76,0.44c0.88,0.4,1.84,0.54,2.79,0.41c0.94-0.14,1.86-0.55,2.61-1.23c0.5-0.45,0.89-0.99,1.16-1.57   c0.4-0.88,0.54-1.84,0.41-2.79c-0.13-0.94-0.54-1.86-1.23-2.62c-0.45-0.5-1-0.89-1.58-1.16c-0.87-0.41-1.84-0.55-2.78-0.41   c-0.94,0.13-1.86,0.54-2.61,1.22c-0.51,0.46-0.89,1-1.16,1.58c-0.41,0.87-0.55,1.84-0.41,2.79c0.08,0.59,0.28,1.18,0.59,1.72   l-11.19,10.13l-0.54,10.81l-25.88,23.43c0.35,0.66,0.69,1.34,1.01,2.02l24.72-22.38l-0.4,8.06l-22.04,19.96   c0.25,0.75,0.49,1.51,0.72,2.28l23.45-21.23l0.55-11.13l38.43-34.79c0.42,0.33,0.86,0.6,1.33,0.82c1.17,0.54,2.47,0.73,3.73,0.55   c1.27-0.18,2.5-0.73,3.51-1.65c0.68-0.61,1.2-1.34,1.56-2.12c0.55-1.17,0.73-2.47,0.56-3.74c-0.18-1.26-0.73-2.49-1.65-3.51   c-0.61-0.67-1.34-1.2-2.12-1.56c-1.18-0.54-2.47-0.73-3.74-0.55c-1.27,0.18-2.5,0.73-3.51,1.64c-0.68,0.61-1.2,1.34-1.56,2.12   C619.53,140.75,619.35,142.05,619.53,143.31z M594.76,157.33c0.13-0.52,0.4-1,0.83-1.39c0.28-0.25,0.61-0.44,0.94-0.56   c0.51-0.18,1.06-0.2,1.58-0.08c0.52,0.13,1,0.4,1.39,0.83c0.26,0.29,0.44,0.61,0.56,0.94c0.18,0.51,0.2,1.06,0.08,1.58   c-0.13,0.52-0.4,1-0.83,1.38c-0.29,0.26-0.6,0.45-0.94,0.56c-0.51,0.18-1.06,0.2-1.58,0.08c-0.52-0.13-1-0.4-1.38-0.83   c-0.26-0.29-0.45-0.6-0.56-0.94C594.65,158.39,594.63,157.85,594.76,157.33z M621.77,141.31c0.2-0.83,0.65-1.62,1.33-2.24   c0.46-0.41,0.98-0.71,1.52-0.9c0.82-0.29,1.71-0.33,2.54-0.12c0.83,0.2,1.61,0.65,2.23,1.33c0.42,0.46,0.72,0.98,0.91,1.53   c0.29,0.81,0.32,1.7,0.12,2.53c-0.21,0.84-0.65,1.62-1.33,2.24c-0.46,0.41-0.98,0.71-1.52,0.9c-0.82,0.29-1.71,0.32-2.54,0.12   c-0.83-0.2-1.61-0.65-2.24-1.34c-0.41-0.46-0.71-0.97-0.91-1.52C621.59,143.02,621.56,142.14,621.77,141.31z"/>
	<path class="st0" d="M522.6,180.62c0.78,0.17,1.55,0.36,2.3,0.56l44.1-58.2c1.56,0.6,3.38,0.13,4.44-1.26   c1.29-1.69,0.97-4.11-0.73-5.4s-4.11-0.97-5.4,0.73c-1.06,1.39-1.03,3.27-0.04,4.62L522.6,180.62z"/>
	<path class="st0" d="M627.75,144.2c1.01-0.91,1.09-2.47,0.17-3.48s-2.47-1.08-3.48-0.17c-1.01,0.91-1.09,2.47-0.18,3.48   S626.74,145.11,627.75,144.2z"/>
	<path class="st0" d="M506.94,86.51c0.13,0.1,0.28,0.18,0.43,0.25c0.16,0.07,0.31,0.12,0.47,0.16c0.16,0.04,0.32,0.06,0.48,0.06   c0.32,0.01,0.64-0.05,0.93-0.16c0.3-0.11,0.57-0.28,0.81-0.5c0.12-0.11,0.23-0.23,0.32-0.36s0.18-0.28,0.25-0.43   c0.35-0.77,0.26-1.63-0.15-2.31c-0.08-0.13-0.18-0.26-0.29-0.38c-0.22-0.24-0.48-0.43-0.79-0.57c-0.47-0.21-0.96-0.26-1.43-0.18   c-0.31,0.05-0.61,0.17-0.88,0.33s-0.51,0.38-0.7,0.65c-0.1,0.13-0.18,0.28-0.25,0.43c-0.42,0.93-0.22,1.99,0.44,2.69   C506.69,86.31,506.81,86.42,506.94,86.51z"/>
	<path class="st0" d="M541.77,79.93c1.18,0.68,2.69,0.28,3.37-0.89c0.68-1.18,0.28-2.69-0.89-3.37c-1.18-0.68-2.68-0.28-3.37,0.9   C540.19,77.73,540.59,79.24,541.77,79.93z"/>
	<path class="st0" d="M630.86,162.2c-0.61,1.14-0.86,2.43-0.74,3.7c0.08,0.93,0.37,1.85,0.85,2.69l-69.31,56.55   c0.11,0.85,0.2,1.71,0.28,2.58l70.41-57.44c0.39,0.35,0.83,0.65,1.28,0.89c1.15,0.6,2.44,0.85,3.71,0.74   c1.27-0.11,2.53-0.6,3.59-1.46c0.71-0.58,1.27-1.28,1.67-2.04c0.6-1.15,0.86-2.44,0.74-3.71c-0.11-1.27-0.6-2.53-1.47-3.59   c-0.58-0.71-1.27-1.27-2.04-1.68c-1.14-0.6-2.43-0.86-3.7-0.74c-1.27,0.11-2.53,0.6-3.59,1.47   C631.82,160.74,631.26,161.44,630.86,162.2z M633.9,161.85c0.48-0.39,1.02-0.66,1.57-0.82c0.83-0.24,1.72-0.23,2.55,0.01   c0.82,0.25,1.58,0.73,2.16,1.45c0.39,0.48,0.66,1.01,0.83,1.56c0.24,0.83,0.23,1.72-0.02,2.54c-0.25,0.82-0.73,1.58-1.45,2.17   c-0.48,0.39-1.01,0.66-1.57,0.82c-0.83,0.24-1.72,0.24-2.55-0.01c-0.82-0.25-1.58-0.73-2.16-1.45c-0.39-0.48-0.66-1.02-0.83-1.57   c-0.24-0.83-0.24-1.71,0.01-2.54C632.71,163.19,633.18,162.44,633.9,161.85z"/>
	<path class="st0" d="M693.28,228.16c1.24-0.56,1.79-2.03,1.22-3.27c-0.56-1.24-2.02-1.78-3.26-1.22c-1.24,0.56-1.79,2.02-1.23,3.26   C690.58,228.17,692.04,228.72,693.28,228.16z"/>
	<path class="st0" d="M608.59,118.32l-66.86,69.56l0.02,1.07c0.78,0.56,1.55,1.15,2.29,1.76l-0.04-1.95l66.21-68.88   c0.45,0.31,0.93,0.56,1.43,0.74c1.25,0.48,2.61,0.57,3.89,0.29c1.29-0.28,2.53-0.94,3.5-1.97c0.65-0.68,1.14-1.47,1.45-2.31   c0.47-1.26,0.56-2.61,0.29-3.9c-0.28-1.29-0.94-2.52-1.97-3.49c-0.68-0.65-1.47-1.14-2.31-1.45c-1.26-0.47-2.61-0.57-3.9-0.29   c-1.29,0.28-2.52,0.94-3.49,1.97c-0.65,0.68-1.14,1.47-1.45,2.31c-0.48,1.25-0.57,2.61-0.29,3.9   C607.58,116.61,607.99,117.52,608.59,118.32z M609.53,113.42c0.15-0.88,0.55-1.71,1.21-2.41c0.44-0.46,0.95-0.81,1.5-1.05   c0.82-0.36,1.74-0.46,2.62-0.31c0.88,0.15,1.71,0.55,2.41,1.21c0.46,0.44,0.81,0.95,1.05,1.5c0.36,0.82,0.47,1.73,0.32,2.61   c-0.15,0.88-0.55,1.71-1.21,2.41c-0.44,0.46-0.96,0.81-1.5,1.05c-0.82,0.36-1.73,0.47-2.61,0.32c-0.88-0.15-1.71-0.55-2.41-1.21   c-0.47-0.45-0.82-0.95-1.05-1.5C609.49,115.21,609.39,114.3,609.53,113.42z"/>
	<path class="st0" d="M634.01,251.44l2.72-7.25l12.92-5.88c0.17,0.23,0.37,0.46,0.59,0.65c0.71,0.65,1.59,1.08,2.53,1.24   c0.93,0.16,1.93,0.04,2.86-0.38c0.62-0.28,1.15-0.67,1.59-1.15c0.65-0.71,1.08-1.59,1.24-2.53c0.16-0.94,0.05-1.94-0.37-2.87   c-0.28-0.62-0.68-1.15-1.15-1.59c-0.71-0.65-1.59-1.08-2.53-1.23c-0.94-0.16-1.94-0.05-2.86,0.37c-0.62,0.28-1.16,0.68-1.59,1.15   c-0.65,0.71-1.08,1.59-1.24,2.53c-0.1,0.59-0.09,1.21,0.04,1.82l-13.74,6.25l-3.8,10.14l-80.34,36.55   c-0.36,0.96-0.72,1.92-1.1,2.89l80.36-36.56l-2.83,7.56l-80.68,36.7c-0.24,0.56-0.47,1.12-0.71,1.69c-0.01,0-0.01,0.02-0.02,0.04   c0.01,0,0.04,0,0.04,0c0.39,0.15,0.77,0.31,1.15,0.46l81.95-37.28l3.91-10.44l53.82-24.7c0.3,0.44,0.63,0.84,1.02,1.18   c0.95,0.87,2.13,1.45,3.39,1.66c1.26,0.22,2.61,0.07,3.85-0.51c0.83-0.38,1.55-0.91,2.13-1.54c0.88-0.95,1.45-2.13,1.67-3.39   c0.21-1.26,0.06-2.6-0.51-3.85c-0.38-0.83-0.91-1.55-1.54-2.13c-0.96-0.88-2.13-1.45-3.4-1.66c-1.26-0.22-2.6-0.07-3.85,0.5   c-0.83,0.38-1.55,0.91-2.13,1.54c-0.88,0.96-1.45,2.14-1.66,3.4c-0.16,0.92-0.12,1.89,0.14,2.82L634.01,251.44z M651.23,233.87   c0.28-0.45,0.69-0.83,1.21-1.07c0.35-0.16,0.71-0.23,1.06-0.25c0.54-0.01,1.07,0.13,1.53,0.41c0.46,0.28,0.83,0.69,1.07,1.21   c0.16,0.35,0.23,0.71,0.25,1.07c0.01,0.54-0.13,1.07-0.41,1.53c-0.28,0.46-0.69,0.83-1.21,1.07c-0.35,0.16-0.71,0.24-1.07,0.25   c-0.54,0.01-1.07-0.13-1.53-0.41c-0.45-0.28-0.83-0.69-1.07-1.21c-0.16-0.35-0.24-0.71-0.25-1.07   C650.8,234.86,650.95,234.33,651.23,233.87z M688.46,223.58c0.45-0.73,1.11-1.35,1.95-1.73c0.56-0.26,1.15-0.38,1.73-0.4   c0.87-0.02,1.72,0.21,2.46,0.66c0.73,0.45,1.34,1.11,1.72,1.95c0.26,0.57,0.39,1.15,0.4,1.73c0.03,0.86-0.21,1.72-0.66,2.45   c-0.45,0.74-1.11,1.35-1.95,1.73c-0.56,0.26-1.15,0.38-1.73,0.4c-0.87,0.02-1.73-0.21-2.46-0.66c-0.73-0.45-1.34-1.11-1.72-1.96   c-0.26-0.56-0.39-1.14-0.4-1.72C687.78,225.17,688.01,224.32,688.46,223.58z"/>
	<path class="st0" d="M602.86,239.81l-17.49-3.13l41.28-28.32c0.37,0.38,0.78,0.7,1.21,0.98c1.1,0.69,2.37,1.04,3.64,1.02   c1.27-0.02,2.57-0.41,3.69-1.19c0.75-0.52,1.36-1.17,1.82-1.9c0.69-1.09,1.04-2.36,1.02-3.64c-0.02-1.27-0.41-2.57-1.19-3.69   c-0.52-0.75-1.17-1.36-1.9-1.82c-1.09-0.69-2.36-1.04-3.64-1.03c-1.27,0.02-2.57,0.41-3.69,1.19c-0.75,0.52-1.36,1.17-1.82,1.9   c-0.69,1.09-1.04,2.36-1.03,3.64c0.01,0.93,0.23,1.87,0.64,2.75l-43.07,29.57l-11.61-2.08l-8.55,5.97   c-0.04,0.91-0.1,1.84-0.17,2.77l9.23-6.44l8.59,1.53l-18.68,13.05c-0.14,0.98-0.3,1.98-0.46,2.98l22.17-15.49l20.51,3.67   l68.21-47.06c0.42,0.47,0.89,0.88,1.41,1.2c1.1,0.69,2.37,1.04,3.64,1.02c1.27-0.02,2.57-0.41,3.69-1.19   c0.75-0.52,1.36-1.17,1.82-1.9c0.69-1.09,1.04-2.36,1.02-3.63c-0.01-1.28-0.41-2.57-1.19-3.7c-0.52-0.75-1.18-1.36-1.9-1.82   c-1.1-0.69-2.37-1.04-3.64-1.02c-1.27,0.02-2.57,0.41-3.69,1.19c-0.75,0.52-1.36,1.17-1.83,1.91c-0.69,1.1-1.04,2.36-1.02,3.64   c0.01,0.83,0.18,1.68,0.52,2.48L602.86,239.81z M627.25,202.12c0.31-0.81,0.85-1.52,1.61-2.05c0.51-0.36,1.06-0.59,1.62-0.71   c0.85-0.18,1.74-0.1,2.54,0.21c0.8,0.31,1.52,0.85,2.05,1.61c0.35,0.51,0.59,1.05,0.71,1.62c0.18,0.85,0.1,1.74-0.21,2.54   c-0.31,0.8-0.85,1.52-1.61,2.05c-0.51,0.35-1.05,0.59-1.62,0.7c-0.85,0.18-1.73,0.11-2.53-0.2c-0.8-0.31-1.52-0.85-2.05-1.61   c-0.35-0.51-0.59-1.06-0.7-1.63C626.87,203.8,626.94,202.92,627.25,202.12z M672.36,189.02c0.31-0.8,0.85-1.52,1.61-2.05   c0.51-0.35,1.05-0.59,1.62-0.7c0.85-0.18,1.73-0.11,2.53,0.2c0.81,0.31,1.52,0.85,2.05,1.61c0.35,0.51,0.58,1.06,0.7,1.62   c0.18,0.85,0.11,1.73-0.21,2.54c-0.31,0.8-0.85,1.52-1.61,2.04c-0.51,0.36-1.06,0.59-1.63,0.71c-0.85,0.18-1.73,0.1-2.53-0.21   c-0.8-0.31-1.52-0.85-2.05-1.61c-0.35-0.51-0.58-1.06-0.7-1.63C671.98,190.71,672.05,189.83,672.36,189.02z"/>
	<path class="st0" d="M37.76,334.3c-1.35-0.19-2.6,0.76-2.78,2.1s0.76,2.59,2.11,2.78c1.35,0.19,2.59-0.75,2.78-2.1   S39.11,334.48,37.76,334.3z"/>
	<path class="st0" d="M98.45,344.1l6.44-4.87l15.34,2.13c0.57-0.65,1.15-1.31,1.75-1.95l-17.68-2.45l-8.89,6.73l-51.35-7.12   c-0.02-0.53-0.09-1.05-0.22-1.54c-0.33-1.24-1.03-2.37-1.98-3.22c-0.95-0.86-2.17-1.45-3.52-1.63c-0.91-0.13-1.8-0.06-2.63,0.16   c-1.25,0.33-2.37,1.03-3.22,1.98c-0.85,0.95-1.44,2.16-1.63,3.52c-0.12,0.9-0.06,1.8,0.16,2.63c0.34,1.25,1.03,2.37,1.98,3.22   c0.95,0.86,2.16,1.45,3.52,1.64c0.91,0.13,1.8,0.06,2.63-0.16c1.25-0.34,2.37-1.03,3.22-1.98c0.62-0.69,1.11-1.53,1.39-2.45   l49.19,6.82l-6.18,4.67l-14.06-1.95c-0.02-0.29-0.07-0.58-0.15-0.86c-0.25-0.93-0.77-1.76-1.47-2.4c-0.71-0.63-1.61-1.07-2.62-1.21   c-0.67-0.09-1.33-0.05-1.95,0.12c-0.93,0.25-1.76,0.77-2.4,1.47c-0.64,0.71-1.08,1.61-1.22,2.62c-0.09,0.67-0.04,1.34,0.12,1.96   c0.25,0.93,0.76,1.76,1.47,2.39c0.71,0.64,1.61,1.08,2.62,1.22c0.68,0.09,1.34,0.04,1.96-0.13c0.93-0.25,1.76-0.76,2.4-1.47   c0.4-0.44,0.72-0.97,0.94-1.56l14.95,2.07l8.64-6.53l18.72,2.6c0.45-0.67,0.92-1.34,1.4-2L98.45,344.1z M41.84,337.35   c-0.08,0.61-0.29,1.17-0.58,1.67c-0.45,0.75-1.1,1.34-1.87,1.72c-0.77,0.38-1.66,0.54-2.58,0.42c-0.61-0.08-1.17-0.29-1.67-0.59   c-0.75-0.45-1.35-1.1-1.72-1.87c-0.38-0.77-0.54-1.65-0.41-2.57c0.09-0.62,0.29-1.18,0.59-1.68c0.44-0.74,1.1-1.34,1.87-1.72   c0.78-0.38,1.66-0.54,2.58-0.42c0.61,0.08,1.18,0.29,1.67,0.59c0.75,0.45,1.35,1.1,1.72,1.87S41.97,336.43,41.84,337.35z    M70.53,349.05c-0.05,0.38-0.18,0.73-0.36,1.04c-0.27,0.46-0.68,0.83-1.16,1.06c-0.48,0.23-1.03,0.34-1.6,0.26   c-0.38-0.05-0.73-0.18-1.03-0.36c-0.46-0.28-0.84-0.68-1.07-1.16c-0.23-0.48-0.34-1.03-0.26-1.6c0.05-0.38,0.18-0.73,0.36-1.04   c0.28-0.46,0.68-0.84,1.16-1.07c0.48-0.23,1.02-0.33,1.59-0.25c0.38,0.05,0.73,0.18,1.04,0.36c0.46,0.28,0.84,0.68,1.07,1.16   C70.51,347.94,70.61,348.48,70.53,349.05z"/>
	<path class="st0" d="M171.92,482.39c0.27-0.96,0.55-1.92,0.84-2.89l-61.9,32.42c-1.15-1.2-3-1.56-4.56-0.75   c-1.89,0.98-2.62,3.31-1.64,5.2c0.98,1.89,3.31,2.62,5.2,1.64c1.55-0.81,2.32-2.52,2-4.16L171.92,482.39z"/>
	<path class="st0" d="M113.31,236.23c0.34-1.63-0.42-3.36-1.97-4.18c-1.88-1-4.21-0.28-5.21,1.59s-0.28,4.21,1.59,5.21   c1.55,0.82,3.4,0.48,4.56-0.71l59.15,31.22c-0.26-0.96-0.5-1.91-0.74-2.85L113.31,236.23z"/>
	<path class="st0" d="M146.16,173.65c-0.21-0.92-0.69-1.81-1.44-2.51c-0.49-0.46-1.06-0.81-1.66-1.03   c-0.91-0.33-1.88-0.39-2.81-0.19c-0.93,0.21-1.81,0.69-2.51,1.43c-0.46,0.49-0.81,1.06-1.03,1.67c-0.34,0.9-0.4,1.88-0.18,2.81   c0.21,0.93,0.69,1.81,1.43,2.51c0.5,0.47,1.07,0.81,1.67,1.03c0.9,0.34,1.88,0.4,2.81,0.19c0.59-0.13,1.15-0.37,1.67-0.73   l10.99,10.35l7.89-0.23c0.08-0.74,0.2-1.47,0.35-2.19l-7.41,0.22l-10.34-9.73c0.15-0.25,0.28-0.52,0.38-0.79   C146.31,175.56,146.37,174.58,146.16,173.65z M144.07,175.19c-0.08,0.53-0.32,1.03-0.72,1.45c-0.26,0.28-0.57,0.49-0.9,0.64   c-0.49,0.22-1.03,0.29-1.56,0.2c-0.53-0.08-1.03-0.32-1.45-0.71c-0.28-0.26-0.49-0.57-0.63-0.89c-0.22-0.49-0.29-1.04-0.2-1.57   c0.09-0.53,0.32-1.03,0.71-1.45c0.26-0.28,0.57-0.49,0.9-0.64c0.49-0.22,1.04-0.29,1.57-0.2c0.53,0.09,1.03,0.32,1.45,0.72   c0.28,0.26,0.49,0.57,0.64,0.9C144.09,174.12,144.16,174.67,144.07,175.19z"/>
	<path class="st0" d="M167.55,531.35l-30.11,22.97c-1.34-0.99-3.22-1.03-4.62,0.03c-1.7,1.29-2.03,3.7-0.74,5.4   c1.29,1.7,3.7,2.03,5.4,0.74c1.39-1.06,1.87-2.88,1.27-4.44L168,533.75C167.83,532.96,167.69,532.16,167.55,531.35z"/>
	<path class="st0" d="M169.36,209.29l-11.74,1.3l-22.01-17.14c0.27-0.48,0.47-0.98,0.62-1.49c0.37-1.29,0.34-2.65-0.06-3.9   c-0.39-1.26-1.16-2.43-2.27-3.32c-0.74-0.59-1.57-1-2.42-1.25c-1.29-0.36-2.65-0.33-3.91,0.06c-1.26,0.39-2.43,1.16-3.31,2.26   c-0.59,0.74-1,1.57-1.25,2.42c-0.36,1.29-0.34,2.65,0.06,3.91c0.39,1.26,1.16,2.42,2.26,3.31c0.74,0.59,1.56,1.01,2.42,1.25   c1.29,0.37,2.65,0.34,3.91-0.05c0.92-0.29,1.79-0.77,2.54-1.44l22.74,17.72l11.75-1.31l1.22,0.97c0.25-0.75,0.52-1.5,0.8-2.23   L169.36,209.29z M134.23,190.47c-0.08,0.89-0.4,1.76-1,2.51c-0.4,0.5-0.88,0.9-1.4,1.18c-0.79,0.43-1.69,0.61-2.58,0.54   c-0.89-0.07-1.76-0.4-2.51-1c-0.5-0.4-0.89-0.87-1.18-1.4c-0.43-0.79-0.61-1.69-0.54-2.58s0.4-1.76,1-2.51   c0.4-0.5,0.87-0.89,1.41-1.17c0.79-0.43,1.69-0.62,2.57-0.55c0.89,0.08,1.76,0.4,2.51,1c0.5,0.4,0.89,0.88,1.17,1.41   C134.11,188.69,134.3,189.59,134.23,190.47z"/>
	<path class="st0" d="M131.22,188.1c-1.1-0.88-2.71-0.7-3.59,0.4s-0.7,2.71,0.4,3.59c1.1,0.88,2.71,0.7,3.59-0.4   S132.32,188.98,131.22,188.1z"/>
	<path class="st0" d="M549.92,619.51c1.27,1.71,3.68,2.06,5.39,0.79c1.71-1.27,2.06-3.68,0.79-5.39c-1.04-1.4-2.86-1.89-4.42-1.32   l-30.25-40.45c-0.78,0.16-1.59,0.3-2.39,0.44l30.9,41.31C548.93,616.22,548.87,618.1,549.92,619.51z"/>
	<path class="st0" d="M715.18,323.33c-0.91,0.11-1.75,0.4-2.5,0.82c-1.12,0.65-2.03,1.6-2.62,2.73c-0.43,0.83-0.69,1.76-0.73,2.73   l-49.32,5.85l4.79-6.08l14.1-1.67c0.09,0.28,0.22,0.55,0.36,0.8c0.48,0.84,1.19,1.51,2.03,1.95c0.84,0.43,1.83,0.63,2.84,0.51   c0.67-0.08,1.3-0.29,1.86-0.61c0.84-0.48,1.51-1.19,1.95-2.03c0.44-0.84,0.64-1.83,0.52-2.85c-0.08-0.67-0.3-1.3-0.62-1.87   c-0.47-0.84-1.18-1.51-2.03-1.94c-0.84-0.44-1.83-0.64-2.84-0.52c-0.68,0.08-1.31,0.3-1.87,0.62c-0.84,0.47-1.51,1.18-1.95,2.03   c-0.28,0.53-0.45,1.13-0.52,1.75l-14.99,1.78l-6.7,8.5l-48.24,5.72c0.57,0.66,1.12,1.33,1.66,1.99l44.68-5.3l-4.99,6.34   l-35.82,4.25c0.45,0.68,0.88,1.36,1.29,2.04l35.67-4.23l6.9-8.76l51.48-6.11c0.15,0.51,0.35,0.99,0.61,1.44   c0.64,1.12,1.59,2.03,2.73,2.61c1.13,0.59,2.46,0.85,3.82,0.69c0.91-0.11,1.76-0.39,2.5-0.82c1.13-0.64,2.03-1.59,2.62-2.73   c0.58-1.13,0.85-2.46,0.69-3.82c-0.11-0.9-0.4-1.75-0.82-2.5c-0.65-1.12-1.59-2.03-2.73-2.61   C717.86,323.43,716.54,323.17,715.18,323.33z M680.9,325.28c0.14-0.52,0.44-0.97,0.85-1.32c0.4-0.35,0.91-0.59,1.48-0.65   c0.38-0.04,0.75-0.01,1.09,0.09c0.52,0.15,0.98,0.45,1.33,0.85c0.35,0.41,0.59,0.91,0.65,1.48c0.05,0.38,0.01,0.75-0.09,1.1   c-0.15,0.52-0.45,0.98-0.85,1.33c-0.41,0.35-0.91,0.58-1.48,0.65c-0.38,0.05-0.75,0.01-1.1-0.09c-0.52-0.15-0.98-0.45-1.33-0.85   c-0.35-0.4-0.58-0.91-0.65-1.48C680.77,326,680.8,325.63,680.9,325.28z M720.39,329.39c0.07,0.62,0.02,1.21-0.14,1.77   c-0.24,0.83-0.72,1.57-1.37,2.14c-0.66,0.56-1.46,0.95-2.39,1.05c-0.61,0.07-1.21,0.01-1.76-0.15c-0.83-0.24-1.58-0.73-2.14-1.38   c-0.56-0.65-0.94-1.47-1.05-2.39c-0.07-0.61-0.02-1.21,0.14-1.76c0.24-0.83,0.73-1.57,1.38-2.14c0.65-0.56,1.46-0.94,2.39-1.05   c0.61-0.07,1.21-0.01,1.76,0.15c0.83,0.24,1.58,0.72,2.14,1.38C719.9,327.66,720.28,328.47,720.39,329.39z"/>
	<path class="st0" d="M631.5,495.84c1.95,0.86,4.22-0.02,5.08-1.96c0.86-1.95-0.02-4.22-1.96-5.08c-1.6-0.71-3.42-0.24-4.5,1.03   l-83.89-37.12c0.42,0.98,0.83,1.95,1.24,2.93l81.78,36.18C629.02,493.47,629.9,495.14,631.5,495.84z"/>
	<path class="st0" d="M715.67,327.47c-1.35,0.16-2.32,1.38-2.16,2.73s1.39,2.32,2.74,2.16c1.35-0.16,2.32-1.39,2.16-2.74   C718.25,328.27,717.02,327.31,715.67,327.47z"/>
	<path class="st0" d="M617.1,536.9c1.16,0.71,2.68,0.34,3.39-0.82c0.71-1.16,0.34-2.68-0.82-3.39c-1.16-0.71-2.68-0.34-3.39,0.82   C615.57,534.68,615.94,536.19,617.1,536.9z"/>
	<path class="st0" d="M239.43,573.38L231.02,586c-1.59-0.5-3.38,0.08-4.35,1.54c-1.18,1.77-0.7,4.16,1.07,5.34   c1.77,1.18,4.16,0.7,5.34-1.07c0.97-1.46,0.82-3.33-0.25-4.61l9.53-14.29C241.37,573.08,240.4,573.24,239.43,573.38z"/>
	<path class="st0" d="M109.41,274.12c-1.99-0.76-4.21,0.24-4.97,2.23c-0.76,1.99,0.24,4.21,2.23,4.97c1.64,0.62,3.43,0.05,4.44-1.27   l64.52,24.51c0.96-0.41,1.92-0.82,2.89-1.23l-66.65-25.32C112.01,276.35,111.04,274.74,109.41,274.12z"/>
	<path class="st0" d="M179.56,557.88l-22.52,20.8c-0.24-0.16-0.5-0.31-0.76-0.43c-0.88-0.4-1.85-0.52-2.79-0.38   c-0.94,0.15-1.85,0.56-2.6,1.25c-0.5,0.46-0.89,1.01-1.15,1.59c-0.4,0.88-0.52,1.85-0.38,2.79c0.15,0.94,0.56,1.85,1.26,2.6   c0.46,0.5,1,0.88,1.59,1.15c0.88,0.4,1.85,0.52,2.79,0.38c0.94-0.15,1.85-0.56,2.6-1.26c0.5-0.45,0.88-1,1.15-1.59   c0.4-0.88,0.52-1.85,0.38-2.79c-0.09-0.59-0.29-1.18-0.6-1.72l22.54-20.82C180.55,558.94,180.05,558.42,179.56,557.88z    M156.93,583.38c-0.13,0.52-0.39,1.01-0.81,1.4c-0.28,0.26-0.6,0.45-0.94,0.57c-0.51,0.18-1.06,0.21-1.58,0.09   c-0.52-0.13-1-0.39-1.39-0.82c-0.26-0.28-0.45-0.6-0.57-0.94c-0.19-0.5-0.22-1.05-0.09-1.58c0.12-0.52,0.39-1,0.82-1.39   c0.28-0.26,0.6-0.45,0.93-0.57c0.5-0.19,1.05-0.22,1.58-0.09c0.52,0.12,1.01,0.39,1.4,0.81c0.26,0.28,0.45,0.6,0.57,0.93   C157.02,582.31,157.05,582.87,156.93,583.38z"/>
	<path class="st0" d="M577.32,532.66c1.71,1.26,4.13,0.89,5.39-0.82s0.89-4.13-0.82-5.39c-1.41-1.04-3.29-0.97-4.62,0.04   l-15.03-11.05c0.02,0.92,0.03,1.82,0.03,2.72l13.71,10.08C575.41,529.81,575.91,531.62,577.32,532.66z"/>
	<path class="st0" d="M612.35,537.56c0.53,1.16,1.41,2.18,2.57,2.9c0.78,0.48,1.62,0.78,2.48,0.9c1.27,0.19,2.58,0,3.74-0.53   c1.16-0.53,2.19-1.41,2.9-2.58c0.48-0.78,0.78-1.62,0.9-2.48c0.19-1.28,0-2.58-0.53-3.74c-0.53-1.16-1.41-2.18-2.58-2.9   c-0.78-0.47-1.62-0.77-2.48-0.9c-1.28-0.19-2.58,0-3.74,0.53c-0.85,0.39-1.62,0.95-2.26,1.69l-19.09-11.66l-2.64-10.92   l-33.46-20.43c0.25,1,0.49,2,0.71,2.99l30.85,18.83l1.92,7.94l-31.21-19.05c0.17,0.95,0.31,1.89,0.46,2.83l31.48,19.22l5.19,21.46   l39.98,24.41c-0.43,1.61,0.22,3.37,1.71,4.28c1.82,1.11,4.19,0.53,5.3-1.28c1.11-1.82,0.53-4.19-1.29-5.3   c-1.49-0.91-3.36-0.69-4.59,0.44l-39.22-23.95l-4.46-18.46l17.24,10.52c-0.2,0.48-0.34,0.99-0.41,1.5   C611.63,535.1,611.82,536.4,612.35,537.56z M614.58,532.47c0.32-0.53,0.73-0.96,1.2-1.3c0.71-0.51,1.54-0.8,2.41-0.83   c0.86-0.04,1.73,0.17,2.52,0.65c0.53,0.32,0.97,0.73,1.3,1.21c0.5,0.7,0.79,1.54,0.83,2.4c0.04,0.86-0.16,1.74-0.65,2.53   c-0.32,0.53-0.74,0.96-1.21,1.3c-0.71,0.51-1.55,0.79-2.41,0.83c-0.86,0.04-1.73-0.17-2.52-0.65c-0.53-0.32-0.96-0.73-1.3-1.2   c-0.51-0.71-0.79-1.55-0.83-2.4C613.89,534.14,614.09,533.26,614.58,532.47z"/>
	<path class="st0" d="M554.74,278.14l34.23-19.43c1.2,1.16,3.06,1.44,4.58,0.58c1.85-1.05,2.5-3.4,1.45-5.25s-3.4-2.5-5.25-1.45   c-1.52,0.86-2.23,2.61-1.85,4.23l-32.21,18.28C555.39,276.11,555.06,277.13,554.74,278.14z"/>
	<path class="st0" d="M678.25,298.15c0.59,0.76,1.4,1.32,2.3,1.63c0.9,0.3,1.9,0.36,2.88,0.09c0.66-0.18,1.25-0.48,1.76-0.88   c0.76-0.59,1.32-1.4,1.63-2.3c0.3-0.9,0.36-1.9,0.09-2.89c-0.18-0.65-0.48-1.25-0.87-1.75c-0.59-0.76-1.4-1.32-2.3-1.63   c-0.9-0.3-1.9-0.36-2.89-0.09c-0.66,0.17-1.25,0.48-1.75,0.87c-0.76,0.59-1.32,1.4-1.63,2.3c-0.2,0.57-0.28,1.18-0.26,1.81   l-93.38,25.25c0.82,0.53,1.63,1.06,2.43,1.6l91.51-24.74C677.91,297.68,678.07,297.93,678.25,298.15z M679.4,294.74   c0.07-0.53,0.3-1.04,0.65-1.44c0.35-0.4,0.81-0.71,1.37-0.86c0.37-0.1,0.74-0.12,1.1-0.07c0.53,0.07,1.04,0.3,1.44,0.65   c0.4,0.35,0.7,0.81,0.85,1.37c0.1,0.37,0.12,0.74,0.07,1.1c-0.07,0.53-0.3,1.03-0.65,1.44c-0.35,0.4-0.81,0.7-1.37,0.85   c-0.37,0.1-0.74,0.12-1.09,0.07c-0.53-0.07-1.03-0.3-1.44-0.65c-0.4-0.35-0.71-0.81-0.86-1.37   C679.37,295.46,679.35,295.09,679.4,294.74z"/>
	<path class="st0" d="M672.95,271.51c2-0.73,3.03-2.94,2.3-4.94c-0.73-2-2.94-3.03-4.94-2.3c-1.64,0.6-2.63,2.2-2.52,3.87   l-107.44,39.63c0.93,0.43,1.85,0.87,2.75,1.3l105.44-38.89C669.52,271.52,671.31,272.11,672.95,271.51z"/>
	<path class="st0" d="M697.06,404.28c0.45,1.6,1.91,2.79,3.66,2.81c2.13,0.03,3.88-1.68,3.9-3.81c0.03-2.13-1.68-3.87-3.81-3.9   c-1.75-0.02-3.24,1.13-3.73,2.72l-45.95-0.55l-9.6-9.84c-0.46,0.56-0.95,1.1-1.45,1.62l10.14,10.38L697.06,404.28z"/>
	<path class="st0" d="M88.14,291.31c-0.11-0.96-0.51-1.85-1.12-2.59c-0.61-0.73-1.44-1.29-2.42-1.57c-0.66-0.19-1.32-0.24-1.96-0.16   c-0.96,0.11-1.85,0.51-2.59,1.12c-0.73,0.61-1.29,1.44-1.57,2.43c-0.19,0.65-0.24,1.31-0.16,1.95c0.11,0.96,0.51,1.85,1.12,2.59   c0.61,0.73,1.44,1.3,2.43,1.57c0.65,0.19,1.31,0.24,1.95,0.16c0.96-0.11,1.85-0.51,2.59-1.12c0.46-0.38,0.85-0.86,1.16-1.41   l68.51,19.71c0.91-0.49,1.83-0.98,2.75-1.47l-70.66-20.33C88.19,291.9,88.18,291.6,88.14,291.31z M85.9,292.67   c-0.1,0.36-0.28,0.69-0.5,0.97c-0.34,0.42-0.8,0.73-1.3,0.9c-0.51,0.16-1.06,0.19-1.62,0.03c-0.37-0.11-0.69-0.28-0.98-0.51   c-0.42-0.34-0.73-0.8-0.9-1.3c-0.16-0.51-0.18-1.06-0.02-1.61c0.11-0.37,0.28-0.7,0.51-0.98c0.33-0.42,0.79-0.73,1.3-0.9   c0.51-0.16,1.06-0.18,1.61-0.02c0.36,0.1,0.7,0.28,0.97,0.5c0.42,0.33,0.73,0.79,0.9,1.3C86.03,291.56,86.06,292.12,85.9,292.67z"/>
	<path class="st0" d="M663.92,454.2c2.06,0.52,4.16-0.72,4.68-2.79c0.52-2.06-0.72-4.16-2.79-4.68c-1.7-0.43-3.41,0.34-4.26,1.77   l-73.44-18.43c-0.79,0.55-1.6,1.09-2.41,1.64l75.32,18.9C661.08,452.27,662.22,453.77,663.92,454.2z"/>
	<path class="st0" d="M715.33,363.69c-1.08-0.69-2.37-1.07-3.74-1.03c-0.91,0.02-1.78,0.23-2.57,0.59c-1.18,0.53-2.17,1.4-2.85,2.48   c-0.5,0.79-0.84,1.69-0.97,2.65l-59.31,1.61c0.21,0.71,0.39,1.43,0.53,2.16l58.83-1.6c0.1,0.52,0.26,1.02,0.47,1.49   c0.54,1.18,1.41,2.17,2.48,2.85c1.08,0.69,2.37,1.07,3.74,1.04c0.91-0.02,1.78-0.24,2.57-0.59c1.18-0.54,2.17-1.41,2.85-2.48   c0.69-1.08,1.07-2.37,1.03-3.74c-0.02-0.91-0.23-1.78-0.59-2.57C717.27,365.37,716.4,364.37,715.33,363.69z M715.92,370.92   c-0.32,0.81-0.87,1.5-1.57,2c-0.7,0.5-1.54,0.81-2.47,0.83c-0.62,0.02-1.2-0.1-1.74-0.31c-0.81-0.32-1.51-0.86-2.01-1.57   c-0.5-0.7-0.8-1.54-0.83-2.47c-0.02-0.62,0.1-1.21,0.3-1.75c0.32-0.8,0.86-1.5,1.56-2c0.71-0.5,1.54-0.81,2.47-0.83   c0.62-0.02,1.21,0.1,1.74,0.31c0.81,0.32,1.51,0.87,2.01,1.57c0.5,0.7,0.8,1.54,0.83,2.47   C716.24,369.79,716.13,370.37,715.92,370.92z"/>
	<path class="st0" d="M707.73,436.52c0.27,1.26,0.9,2.42,1.8,3.32c0.9,0.91,2.09,1.56,3.43,1.82c0.9,0.17,1.79,0.16,2.63-0.02   c1.27-0.27,2.42-0.9,3.32-1.8c0.9-0.9,1.55-2.08,1.82-3.43c0.17-0.89,0.15-1.79-0.02-2.63c-0.27-1.27-0.9-2.42-1.81-3.32   c-0.9-0.91-2.08-1.56-3.42-1.82c-0.9-0.17-1.79-0.15-2.63,0.02c-1.27,0.27-2.42,0.91-3.32,1.81c-0.66,0.66-1.19,1.47-1.52,2.38   l-48.76-9.42l6.42-4.34l13.94,2.69c0.01,0.29,0.04,0.59,0.1,0.87c0.2,0.94,0.67,1.8,1.34,2.48c0.67,0.67,1.55,1.16,2.56,1.35   c0.67,0.13,1.33,0.12,1.96-0.02c0.94-0.2,1.8-0.67,2.48-1.34c0.67-0.67,1.16-1.55,1.36-2.55c0.13-0.67,0.11-1.33-0.02-1.96   c-0.2-0.94-0.67-1.8-1.35-2.47c-0.67-0.67-1.55-1.16-2.55-1.35c-0.67-0.13-1.34-0.11-1.96,0.02c-0.94,0.2-1.8,0.67-2.48,1.34   c-0.43,0.42-0.77,0.93-1.02,1.51l-14.82-2.86l-8.97,6.06l-48.79-9.42c-0.57,0.63-1.15,1.26-1.74,1.88l47.98,9.27l-6.69,4.52   l-46.28-8.94c-0.67,0.61-1.36,1.22-2.06,1.82l48.81,9.43l9.23-6.24l50.9,9.83C707.58,435.49,707.62,436.01,707.73,436.52z    M709.85,434.29c0.12-0.61,0.35-1.15,0.67-1.64c0.48-0.72,1.17-1.28,1.96-1.62c0.79-0.34,1.68-0.46,2.59-0.28   c0.61,0.12,1.15,0.35,1.64,0.67c0.72,0.48,1.29,1.17,1.62,1.96c0.34,0.79,0.45,1.68,0.27,2.59c-0.12,0.61-0.35,1.16-0.68,1.64   c-0.48,0.72-1.17,1.28-1.96,1.62c-0.8,0.34-1.68,0.46-2.59,0.28c-0.61-0.12-1.16-0.36-1.64-0.68c-0.72-0.48-1.29-1.17-1.62-1.96   C709.78,436.09,709.67,435.2,709.85,434.29z M681.82,421.08c0.07-0.38,0.21-0.72,0.42-1.02c0.29-0.45,0.72-0.79,1.21-1   c0.49-0.21,1.04-0.28,1.61-0.17c0.37,0.07,0.72,0.22,1.01,0.42c0.45,0.3,0.8,0.73,1.01,1.22c0.21,0.5,0.28,1.04,0.17,1.61   c-0.07,0.38-0.22,0.72-0.42,1.02c-0.3,0.45-0.73,0.8-1.22,1.01c-0.5,0.21-1.04,0.28-1.61,0.17c-0.38-0.07-0.72-0.21-1.02-0.42   c-0.45-0.3-0.8-0.73-1.01-1.22C681.78,422.2,681.71,421.65,681.82,421.08z"/>
	<path class="st0" d="M713.76,437.56c1.34,0.26,2.63-0.62,2.89-1.95s-0.62-2.63-1.96-2.88c-1.34-0.26-2.63,0.61-2.89,1.95   S712.42,437.3,713.76,437.56z"/>
	<path class="st0" d="M612.49,451.01c2.05,0.59,4.18-0.6,4.77-2.64c0.59-2.05-0.59-4.18-2.64-4.77c-1.68-0.48-3.42,0.23-4.32,1.64   l-31.68-9.09c-0.86,0.51-1.72,1.01-2.6,1.52l33.68,9.67C609.71,449,610.81,450.53,612.49,451.01z"/>
	<path class="st0" d="M138.04,454.97c-2.01,0.7-3.07,2.9-2.37,4.91c0.7,2.01,2.9,3.07,4.91,2.37c1.65-0.58,2.66-2.16,2.58-3.83   l30.13-10.49c-0.98-0.43-1.94-0.86-2.89-1.3l-27.95,9.73C141.47,455.02,139.7,454.4,138.04,454.97z"/>
	<path class="st0" d="M658.06,388.2c0.07,0.52,0.22,1.03,0.41,1.5c0.49,1.2,1.32,2.22,2.37,2.95c1.05,0.72,2.32,1.16,3.69,1.18   c0.91,0.01,1.79-0.16,2.59-0.49c1.19-0.49,2.22-1.32,2.94-2.36c0.73-1.05,1.17-2.33,1.18-3.7c0.02-0.91-0.16-1.79-0.49-2.59   c-0.49-1.2-1.32-2.22-2.36-2.95c-1.05-0.72-2.32-1.16-3.7-1.18c-0.91-0.01-1.78,0.17-2.59,0.49c-1.2,0.49-2.22,1.32-2.94,2.37   c-0.53,0.77-0.91,1.65-1.07,2.61l-13.04-0.16c-0.31,0.74-0.65,1.46-1.04,2.16L658.06,388.2z M660.53,385.41   c0.35-0.8,0.92-1.47,1.64-1.95c0.72-0.47,1.57-0.74,2.5-0.73c0.62,0.01,1.2,0.14,1.74,0.37c0.79,0.34,1.47,0.92,1.94,1.64   c0.47,0.72,0.75,1.57,0.74,2.5c-0.01,0.62-0.14,1.2-0.37,1.73c-0.35,0.8-0.93,1.47-1.64,1.95c-0.72,0.47-1.57,0.74-2.5,0.73   c-0.62-0.01-1.2-0.14-1.73-0.37c-0.8-0.35-1.47-0.93-1.94-1.64c-0.47-0.72-0.75-1.57-0.74-2.5   C660.17,386.52,660.3,385.94,660.53,385.41z"/>
	<path class="st0" d="M75.61,404.02c1.74-0.14,3.12-1.42,3.46-3.05l31.78-2.65c-0.35-0.7-0.67-1.4-0.99-2.1l-30.97,2.58   c-0.6-1.56-2.16-2.6-3.91-2.46c-2.12,0.17-3.7,2.03-3.53,4.15S73.49,404.19,75.61,404.02z"/>
	<path class="st0" d="M97.07,324.21c-2.1-0.36-4.09,1.05-4.45,3.15c-0.36,2.1,1.05,4.09,3.15,4.45c1.72,0.3,3.38-0.6,4.11-2.1   l27.12,4.65c0.67-0.62,1.35-1.24,2.04-1.86l-28.79-4.94C100.06,325.91,98.8,324.51,97.07,324.21z"/>
	<path class="st0" d="M44.48,385.5c-0.55-1.17-1.43-2.15-2.51-2.83c-1.08-0.68-2.38-1.05-3.75-1.01c-0.91,0.03-1.78,0.25-2.56,0.61   c-1.17,0.55-2.16,1.43-2.83,2.51c-0.68,1.08-1.05,2.38-1,3.75c0.03,0.91,0.25,1.78,0.61,2.57c0.54,1.17,1.42,2.15,2.5,2.83   c1.08,0.68,2.38,1.05,3.75,1c0.91-0.03,1.78-0.25,2.56-0.61c1.17-0.54,2.15-1.42,2.83-2.5c0.49-0.79,0.83-1.7,0.95-2.66l61.68-2.21   c-0.17-0.72-0.32-1.44-0.45-2.16l-61.3,2.19C44.86,386.46,44.7,385.97,44.48,385.5z M42.63,389.89c-0.31,0.8-0.85,1.51-1.54,2.02   c-0.7,0.51-1.54,0.82-2.47,0.85c-0.62,0.02-1.21-0.09-1.75-0.29c-0.81-0.31-1.52-0.85-2.02-1.55c-0.51-0.69-0.81-1.54-0.85-2.47   c-0.02-0.62,0.08-1.2,0.28-1.75c0.31-0.81,0.85-1.51,1.55-2.02c0.69-0.51,1.54-0.82,2.47-0.85c0.62-0.02,1.2,0.09,1.75,0.29   c0.81,0.31,1.52,0.85,2.02,1.55c0.51,0.69,0.81,1.54,0.85,2.46C42.95,388.76,42.84,389.35,42.63,389.89z"/>
	<path class="st0" d="M595.02,328.55c0.73,0.58,1.45,1.16,2.15,1.75l110.16-24.44c0.19,0.49,0.45,0.95,0.74,1.37   c0.75,1.05,1.79,1.86,2.98,2.32c1.19,0.47,2.53,0.61,3.87,0.31c0.89-0.2,1.71-0.57,2.41-1.07c1.05-0.75,1.87-1.79,2.33-2.98   c0.47-1.19,0.6-2.53,0.3-3.86c-0.2-0.89-0.57-1.71-1.07-2.41c-0.75-1.05-1.79-1.86-2.97-2.33c-1.19-0.47-2.53-0.61-3.87-0.3   c-0.89,0.19-1.71,0.57-2.41,1.07c-1.06,0.75-1.86,1.79-2.33,2.97c-0.34,0.87-0.51,1.82-0.45,2.79L595.02,328.55z M709.1,302.57   c0.16-0.85,0.56-1.64,1.15-2.26c0.6-0.63,1.36-1.09,2.27-1.29c0.61-0.13,1.21-0.14,1.77-0.03c0.85,0.16,1.65,0.57,2.27,1.16   s1.08,1.36,1.28,2.27c0.13,0.6,0.14,1.2,0.04,1.77c-0.16,0.85-0.57,1.64-1.16,2.26c-0.59,0.62-1.36,1.09-2.27,1.29   c-0.6,0.13-1.2,0.13-1.77,0.03c-0.85-0.16-1.64-0.56-2.27-1.16c-0.62-0.59-1.08-1.36-1.28-2.26C709,303.74,709,303.15,709.1,302.57   z"/>
	<path class="st0" d="M664.59,389.66c1.36,0.02,2.48-1.08,2.5-2.44c0.02-1.36-1.08-2.48-2.44-2.5c-1.36-0.02-2.47,1.08-2.49,2.44   C662.14,388.52,663.23,389.64,664.59,389.66z"/>
	<path class="st0" d="M509.24,178.93l33.19-49.99c0.27,0.1,0.56,0.19,0.84,0.24c0.95,0.18,1.92,0.07,2.8-0.29   c0.88-0.36,1.66-0.99,2.23-1.83c0.38-0.57,0.63-1.19,0.74-1.82c0.18-0.95,0.07-1.92-0.29-2.8c-0.36-0.88-0.99-1.66-1.84-2.23   c-0.56-0.37-1.18-0.62-1.81-0.74c-0.95-0.18-1.92-0.07-2.8,0.29c-0.88,0.36-1.67,0.98-2.23,1.84c-0.38,0.56-0.62,1.18-0.74,1.81   c-0.18,0.95-0.07,1.92,0.29,2.8c0.22,0.56,0.56,1.07,0.99,1.53l-33.96,51.14C507.53,178.89,508.39,178.9,509.24,178.93z    M541.89,122.79c0.21-0.32,0.48-0.58,0.78-0.78c0.45-0.3,0.98-0.46,1.51-0.46c0.54,0,1.07,0.15,1.55,0.47   c0.32,0.21,0.58,0.47,0.78,0.78c0.3,0.44,0.46,0.97,0.46,1.51c0,0.53-0.15,1.07-0.47,1.55c-0.21,0.32-0.47,0.58-0.77,0.77   c-0.44,0.3-0.97,0.46-1.51,0.46c-0.53,0-1.07-0.14-1.55-0.46c-0.32-0.21-0.58-0.48-0.77-0.77c-0.3-0.45-0.46-0.98-0.46-1.51   C541.42,123.81,541.57,123.27,541.89,122.79z"/>
	<path class="st0" d="M196.09,134.64c-0.06-0.95-0.39-1.89-1.01-2.7c-0.42-0.54-0.92-0.98-1.48-1.29c-0.84-0.48-1.79-0.69-2.74-0.64   c-0.95,0.06-1.89,0.39-2.71,1.01c-0.54,0.41-0.97,0.92-1.29,1.47c-0.48,0.84-0.69,1.79-0.64,2.74c0.06,0.95,0.39,1.9,1.01,2.71   c0.41,0.54,0.92,0.97,1.47,1.29c0.84,0.48,1.79,0.69,2.74,0.64c0.6-0.03,1.2-0.18,1.77-0.44l30.19,39.44   c0.92,0,1.84,0.02,2.78,0.05l-31.25-40.81c0.18-0.23,0.36-0.47,0.5-0.72C195.93,136.55,196.14,135.59,196.09,134.64z    M193.77,135.82c-0.17,0.5-0.48,0.97-0.94,1.32c-0.3,0.23-0.64,0.39-0.98,0.48c-0.52,0.13-1.07,0.11-1.58-0.05   c-0.51-0.17-0.97-0.48-1.32-0.94c-0.23-0.31-0.39-0.64-0.48-0.99c-0.13-0.52-0.11-1.07,0.05-1.58c0.17-0.51,0.49-0.96,0.94-1.31   c0.31-0.23,0.64-0.39,0.99-0.48c0.52-0.14,1.07-0.12,1.58,0.05c0.5,0.17,0.96,0.49,1.31,0.94c0.23,0.3,0.39,0.64,0.48,0.98   C193.97,134.76,193.95,135.31,193.77,135.82z"/>
	<path class="st0" d="M433.5,716.87c1.35-0.2,2.28-1.45,2.08-2.8c-0.2-1.35-1.44-2.28-2.79-2.09c-1.35,0.2-2.28,1.45-2.09,2.8   C430.9,716.13,432.15,717.06,433.5,716.87z"/>
	<path class="st0" d="M344.04,681.85c-0.43-0.42-0.95-0.75-1.53-0.98l2.47-14.89l-6.3-8.81l4.43-26.73   c-0.68-0.33-1.36-0.68-2.03-1.05l-4.19,25.28l-4.7-6.56l3.64-21.94c-0.66-0.45-1.32-0.91-1.98-1.39l-3.95,23.86l6.49,9.06   l-8.48,51.14c-0.53,0-1.05,0.06-1.55,0.18c-1.25,0.3-2.39,0.96-3.27,1.89c-0.88,0.93-1.51,2.13-1.72,3.48   c-0.15,0.9-0.11,1.79,0.09,2.63c0.3,1.26,0.96,2.39,1.89,3.27c0.93,0.87,2.12,1.5,3.48,1.72c0.9,0.15,1.8,0.11,2.63-0.09   c1.26-0.31,2.39-0.96,3.27-1.9c0.88-0.93,1.51-2.12,1.73-3.47c0.15-0.9,0.11-1.8-0.09-2.63c-0.31-1.26-0.97-2.39-1.9-3.28   c-0.68-0.64-1.5-1.15-2.42-1.46l8.12-49l4.51,6.3l-2.32,14.01c-0.29,0.01-0.59,0.05-0.87,0.12c-0.94,0.23-1.78,0.72-2.44,1.41   c-0.65,0.69-1.11,1.58-1.28,2.59c-0.11,0.67-0.08,1.33,0.07,1.96c0.23,0.94,0.72,1.78,1.41,2.44c0.69,0.66,1.58,1.12,2.59,1.29   c0.67,0.11,1.33,0.08,1.96-0.07c0.94-0.22,1.78-0.71,2.43-1.41c0.66-0.69,1.12-1.58,1.29-2.58c0.11-0.68,0.08-1.34-0.07-1.96   C345.23,683.35,344.74,682.51,344.04,681.85z M330.3,711.71c0.73,0.47,1.31,1.14,1.67,1.92c0.36,0.78,0.5,1.67,0.35,2.59   c-0.1,0.61-0.32,1.16-0.63,1.65c-0.47,0.73-1.13,1.32-1.92,1.67c-0.78,0.36-1.67,0.49-2.58,0.34c-0.62-0.1-1.17-0.32-1.66-0.63   c-0.73-0.46-1.31-1.13-1.67-1.91c-0.36-0.79-0.5-1.67-0.35-2.59c0.1-0.61,0.32-1.17,0.63-1.65c0.46-0.73,1.14-1.32,1.92-1.67   c0.78-0.36,1.67-0.49,2.58-0.34C329.25,711.19,329.81,711.4,330.3,711.71z M343.38,685.9c-0.06,0.37-0.2,0.72-0.39,1.02   c-0.29,0.45-0.71,0.82-1.19,1.04c-0.49,0.22-1.03,0.31-1.6,0.22c-0.38-0.06-0.72-0.2-1.03-0.39c-0.45-0.29-0.82-0.71-1.04-1.19   c-0.22-0.49-0.3-1.03-0.21-1.6c0.06-0.38,0.2-0.72,0.39-1.03c0.29-0.45,0.71-0.82,1.19-1.04c0.48-0.22,1.03-0.3,1.6-0.21   c0.38,0.06,0.72,0.2,1.03,0.39c0.46,0.28,0.81,0.7,1.03,1.19C343.38,684.78,343.47,685.33,343.38,685.9z"/>
	<path class="st0" d="M365.24,674.21c-0.76-0.59-1.66-1.03-2.64-1.25l1.45-28.79l-7.82-8.87l0.03-0.47   c-0.74-0.13-1.48-0.29-2.22-0.46l-0.11,1.72l7.81,8.87l-1.39,27.86c-0.54,0.06-1.07,0.17-1.57,0.35c-1.26,0.44-2.36,1.24-3.16,2.29   c-0.81,1.04-1.33,2.35-1.42,3.76c-0.06,0.94,0.08,1.86,0.37,2.7c0.45,1.26,1.25,2.36,2.29,3.17c1.05,0.8,2.34,1.32,3.75,1.41   c0.94,0.06,1.86-0.08,2.7-0.37c1.26-0.45,2.36-1.24,3.17-2.29c0.81-1.04,1.32-2.34,1.41-3.75c0.06-0.94-0.07-1.86-0.37-2.7   C367.08,676.12,366.28,675.02,365.24,674.21z M365.18,681.71c-0.4,0.8-1.03,1.47-1.8,1.92c-0.77,0.45-1.67,0.68-2.62,0.62   c-0.64-0.04-1.23-0.2-1.77-0.48c-0.8-0.39-1.47-1.03-1.92-1.79c-0.45-0.77-0.68-1.67-0.62-2.62c0.04-0.64,0.21-1.24,0.48-1.77   c0.4-0.8,1.03-1.47,1.79-1.92c0.77-0.45,1.67-0.68,2.62-0.62c0.64,0.04,1.24,0.2,1.77,0.47c0.8,0.4,1.47,1.03,1.92,1.8   c0.45,0.77,0.68,1.67,0.62,2.62C365.61,680.58,365.45,681.17,365.18,681.71z"/>
	<path class="st0" d="M325.48,715.08c-0.22,1.34,0.69,2.61,2.03,2.84c1.34,0.22,2.61-0.69,2.83-2.03c0.22-1.34-0.68-2.61-2.02-2.84   C326.97,712.83,325.7,713.74,325.48,715.08z"/>
	<path class="st0" d="M311.78,702.55c-0.65-0.67-1.46-1.2-2.36-1.54l16.76-82.64c-0.62-0.59-1.24-1.19-1.85-1.81l-17.04,84.01   c-0.53-0.02-1.05,0.02-1.55,0.12c-1.27,0.26-2.43,0.88-3.33,1.78c-0.91,0.89-1.58,2.07-1.85,3.41c-0.18,0.9-0.17,1.79,0,2.63   c0.26,1.27,0.88,2.43,1.78,3.34c0.89,0.91,2.07,1.57,3.41,1.85c0.9,0.18,1.79,0.18,2.64,0c1.26-0.26,2.43-0.88,3.33-1.77   c0.91-0.89,1.58-2.07,1.85-3.41c0.19-0.89,0.18-1.79,0-2.63C313.3,704.61,312.68,703.46,311.78,702.55z M311.43,708.09   c-0.12,0.61-0.37,1.16-0.69,1.63c-0.49,0.72-1.19,1.27-1.98,1.6s-1.69,0.43-2.6,0.25c-0.6-0.12-1.15-0.36-1.63-0.68   c-0.72-0.49-1.27-1.18-1.6-1.98c-0.33-0.79-0.44-1.69-0.25-2.6c0.12-0.6,0.36-1.15,0.69-1.63c0.49-0.72,1.18-1.28,1.98-1.6   c0.79-0.33,1.69-0.43,2.59-0.25c0.61,0.12,1.16,0.37,1.64,0.69c0.71,0.49,1.27,1.18,1.6,1.97   C311.5,706.29,311.61,707.18,311.43,708.09z"/>
	<path class="st0" d="M361.21,677.1c-1.41-0.09-2.62,0.98-2.71,2.39c-0.09,1.41,0.98,2.62,2.39,2.71s2.62-0.98,2.71-2.39   C363.68,678.4,362.61,677.19,361.21,677.1z"/>
	<path class="st0" d="M397.15,707.92c-0.8-0.48-1.72-0.79-2.68-0.89l-4.64-78.88c-0.7,0.42-1.4,0.83-2.11,1.21l4.58,77.79   c-0.52,0.11-1.01,0.29-1.47,0.51c-1.16,0.58-2.12,1.48-2.77,2.57c-0.66,1.1-1,2.4-0.92,3.77c0.05,0.91,0.29,1.77,0.67,2.55   c0.58,1.16,1.48,2.13,2.57,2.77c1.1,0.66,2.4,0.99,3.77,0.91c0.91-0.05,1.78-0.29,2.55-0.67c1.15-0.57,2.12-1.47,2.77-2.57   c0.66-1.1,1-2.4,0.91-3.77c-0.05-0.91-0.29-1.78-0.67-2.55C399.15,709.52,398.25,708.56,397.15,707.92z M397.97,715.11   c-0.29,0.82-0.82,1.53-1.5,2.06c-0.68,0.52-1.52,0.85-2.45,0.9c-0.62,0.04-1.2-0.05-1.75-0.24c-0.82-0.29-1.53-0.82-2.05-1.5   c-0.52-0.68-0.86-1.52-0.91-2.44c-0.04-0.62,0.06-1.21,0.25-1.75c0.29-0.82,0.81-1.53,1.5-2.06c0.68-0.52,1.52-0.85,2.44-0.9   c0.62-0.04,1.21,0.06,1.76,0.25c0.81,0.29,1.53,0.81,2.05,1.5c0.52,0.69,0.86,1.52,0.91,2.44   C398.26,713.98,398.17,714.57,397.97,715.11z"/>
	<path class="st0" d="M400.47,654.81l-2.94-32.02c-0.68,0.54-1.36,1.08-2.04,1.59l2.82,30.63c-1.55,0.61-2.58,2.19-2.42,3.93   c0.19,2.12,2.07,3.68,4.19,3.48c2.12-0.19,3.68-2.07,3.48-4.19C403.4,656.49,402.1,655.13,400.47,654.81z"/>
	<path class="st0" d="M382.23,728.05c-1.41-0.02-2.56,1.11-2.58,2.52c-0.02,1.41,1.11,2.56,2.52,2.58s2.56-1.11,2.58-2.52   C384.77,729.22,383.64,728.07,382.23,728.05z"/>
	<path class="st0" d="M386.11,724.95c-0.79-0.55-1.71-0.94-2.7-1.11l0.87-77.55l-8.26-8.45l0.04-3.8c-0.75,0.2-1.5,0.37-2.25,0.53   l-0.05,4.18l8.26,8.45l-0.86,76.61c-0.54,0.09-1.06,0.23-1.55,0.43c-1.24,0.5-2.29,1.36-3.04,2.45c-0.76,1.09-1.2,2.41-1.22,3.83   c-0.01,0.95,0.18,1.85,0.51,2.68c0.51,1.24,1.37,2.29,2.46,3.05c1.09,0.75,2.41,1.2,3.82,1.21c0.95,0.01,1.85-0.18,2.68-0.51   c1.24-0.51,2.29-1.36,3.05-2.46c0.76-1.09,1.2-2.41,1.21-3.82c0.01-0.95-0.17-1.85-0.51-2.68   C388.05,726.76,387.19,725.71,386.11,724.95z M386.44,732.44c-0.36,0.82-0.96,1.52-1.7,2.01s-1.63,0.77-2.59,0.76   c-0.64-0.01-1.24-0.14-1.79-0.38c-0.82-0.35-1.52-0.95-2.01-1.69c-0.49-0.75-0.77-1.63-0.76-2.59c0.01-0.64,0.15-1.25,0.38-1.79   c0.36-0.82,0.95-1.52,1.69-2.01c0.75-0.49,1.63-0.77,2.59-0.76c0.65,0.01,1.25,0.14,1.79,0.38c0.82,0.36,1.52,0.96,2.01,1.7   c0.49,0.74,0.77,1.63,0.76,2.59C386.81,731.29,386.67,731.89,386.44,732.44z"/>
	<path class="st0" d="M285.99,713.03c-0.6-0.75-1.37-1.39-2.27-1.84l23.04-74.05l-5.5-10.46l8.67-27.87   c-0.53-0.79-1.07-1.6-1.6-2.42l-9.5,30.52l5.49,10.46l-22.76,73.16c-0.54-0.07-1.08-0.09-1.61-0.03c-1.33,0.13-2.59,0.65-3.62,1.47   c-1.03,0.82-1.85,1.97-2.27,3.32c-0.28,0.9-0.36,1.83-0.28,2.71c0.14,1.33,0.66,2.59,1.48,3.62c0.83,1.03,1.96,1.84,3.31,2.26   c0.9,0.28,1.83,0.36,2.71,0.28c1.33-0.14,2.59-0.65,3.62-1.48c1.03-0.82,1.84-1.96,2.26-3.31c0.28-0.9,0.37-1.82,0.28-2.71   C287.33,715.32,286.81,714.07,285.99,713.03z M285.03,718.7c-0.19,0.61-0.49,1.15-0.87,1.61c-0.58,0.69-1.35,1.19-2.2,1.44   c-0.85,0.26-1.78,0.27-2.7-0.02c-0.61-0.19-1.15-0.49-1.61-0.88c-0.69-0.57-1.19-1.35-1.45-2.2c-0.25-0.86-0.27-1.78,0.02-2.7   c0.19-0.61,0.5-1.15,0.88-1.61c0.58-0.69,1.35-1.19,2.2-1.45c0.86-0.25,1.78-0.27,2.7,0.02c0.62,0.19,1.15,0.49,1.61,0.87   c0.69,0.58,1.19,1.35,1.44,2.2C285.3,716.85,285.32,717.78,285.03,718.7z"/>
	<path class="st0" d="M169.99,655.68l48.05-60.87l-1.38-11.74l6.65-8.42c-0.07,0-0.14,0-0.21,0c-0.88,0-1.75-0.02-2.62-0.05   l-6.16,7.81l1.38,11.73l-47.47,60.14c-0.48-0.26-0.98-0.47-1.49-0.61c-1.29-0.36-2.65-0.32-3.9,0.08c-1.26,0.4-2.43,1.17-3.31,2.29   c-0.59,0.74-0.99,1.57-1.23,2.43c-0.35,1.29-0.32,2.65,0.08,3.91c0.4,1.26,1.17,2.42,2.28,3.3c0.74,0.59,1.57,0.99,2.43,1.23   c1.29,0.35,2.65,0.32,3.91-0.08c1.26-0.4,2.42-1.17,3.3-2.28c0.59-0.74,1-1.57,1.23-2.43c0.36-1.29,0.32-2.65-0.08-3.91   C171.16,657.29,170.67,656.41,169.99,655.68z M169.51,660.64c-0.07,0.89-0.39,1.76-0.98,2.51c-0.4,0.5-0.87,0.9-1.39,1.19   c-0.79,0.43-1.69,0.62-2.58,0.56c-0.89-0.07-1.76-0.39-2.51-0.98c-0.5-0.4-0.9-0.87-1.18-1.4c-0.44-0.78-0.63-1.68-0.56-2.57   c0.07-0.89,0.39-1.76,0.98-2.51c0.4-0.5,0.88-0.9,1.4-1.18c0.79-0.43,1.68-0.63,2.57-0.56c0.89,0.07,1.76,0.39,2.51,0.98   c0.51,0.4,0.9,0.87,1.19,1.39C169.39,658.85,169.58,659.75,169.51,660.64z"/>
	<path class="st0" d="M166.49,658.29c-1.11-0.87-2.71-0.68-3.58,0.42c-0.87,1.11-0.68,2.71,0.42,3.58c1.11,0.87,2.71,0.68,3.58-0.42   C167.79,660.77,167.6,659.16,166.49,658.29z"/>
	<path class="st0" d="M502.35,81.78c-0.38,0.83-0.57,1.71-0.59,2.57c-0.03,1.29,0.31,2.56,0.98,3.64c0.49,0.79,1.15,1.5,1.96,2.03   l-43.91,97.06c0.94-0.31,1.87-0.61,2.8-0.9l43.1-95.27c0.51,0.14,1.03,0.21,1.54,0.23c1.3,0.03,2.56-0.32,3.65-0.99   c1.08-0.67,1.99-1.66,2.56-2.92c0.37-0.83,0.56-1.7,0.59-2.57c0.03-1.3-0.31-2.56-0.99-3.65c-0.67-1.09-1.66-2-2.91-2.57   c-0.83-0.38-1.71-0.56-2.57-0.59c-1.3-0.03-2.56,0.32-3.65,0.99C503.82,79.54,502.91,80.53,502.35,81.78z M507.64,80.12   c0.85-0.15,1.74-0.05,2.59,0.33c0.56,0.25,1.04,0.61,1.44,1.04c0.59,0.64,0.98,1.43,1.12,2.29c0.15,0.85,0.05,1.74-0.33,2.58   c-0.26,0.57-0.61,1.05-1.04,1.44c-0.63,0.59-1.43,0.97-2.28,1.12c-0.85,0.14-1.74,0.05-2.59-0.33c-0.56-0.25-1.05-0.61-1.44-1.04   c-0.59-0.64-0.98-1.43-1.12-2.29c-0.15-0.85-0.05-1.74,0.34-2.59c0.25-0.56,0.61-1.04,1.03-1.44   C506,80.65,506.8,80.27,507.64,80.12z"/>
	<path class="st0" d="M228.62,625.43c-1.2-0.65-2.7-0.2-3.34,0.99c-0.65,1.2-0.2,2.7,1,3.34s2.7,0.2,3.34-1   C230.27,627.57,229.82,626.08,228.62,625.43z"/>
	<path class="st0" d="M220.98,608.99l18.2-5.45l-9.59,17.78c-0.49-0.17-1.01-0.28-1.52-0.33c-1.29-0.12-2.58,0.14-3.71,0.73   c-1.13,0.59-2.11,1.52-2.76,2.73c-0.43,0.81-0.69,1.66-0.77,2.53c-0.12,1.28,0.14,2.58,0.73,3.7c0.59,1.13,1.52,2.12,2.73,2.76   c0.8,0.44,1.66,0.69,2.52,0.77c1.29,0.12,2.58-0.14,3.71-0.72c1.13-0.59,2.11-1.52,2.76-2.73c0.43-0.8,0.68-1.66,0.77-2.52   c0.12-1.29-0.14-2.58-0.73-3.71c-0.43-0.83-1.04-1.57-1.81-2.16l10.62-19.69l10.77-3.22l18.43-34.17c-1.01,0.35-2.02,0.7-3.03,1.03   l-16.89,31.31l-7.82,2.34l16.84-31.21c-0.98,0.28-1.94,0.55-2.91,0.81l-16.87,31.29l-21.15,6.33l-22.24,41.23   c-1.63-0.35-3.36,0.4-4.19,1.94c-1.01,1.87-0.31,4.21,1.56,5.22c1.87,1.01,4.21,0.31,5.22-1.57c0.83-1.54,0.51-3.39-0.68-4.56   L220.98,608.99z M231.89,627.16c0.09,0.85-0.08,1.74-0.51,2.55c-0.3,0.55-0.68,1-1.14,1.37c-0.67,0.54-1.49,0.87-2.35,0.96   c-0.86,0.08-1.74-0.07-2.56-0.51c-0.54-0.29-1-0.69-1.36-1.13c-0.54-0.68-0.88-1.5-0.96-2.36s0.07-1.74,0.52-2.56   c0.29-0.54,0.68-1,1.13-1.36c0.68-0.54,1.5-0.87,2.36-0.96c0.85-0.09,1.74,0.07,2.56,0.51c0.54,0.29,0.99,0.68,1.36,1.13   C231.47,625.48,231.81,626.3,231.89,627.16z"/>
	<path class="st0" d="M272.56,654.6l26.91-73.6c-0.45-0.87-0.9-1.76-1.35-2.65l-27.6,75.5c-1.66-0.11-3.27,0.87-3.87,2.51   c-0.74,2,0.29,4.21,2.28,4.95c2,0.74,4.21-0.29,4.95-2.28C274.48,657.39,273.9,655.6,272.56,654.6z"/>
	<path class="st0" d="M255.32,632.22l29.95-58.5c-0.71-0.2-1.41-0.43-2.09-0.7l-28.81,56.28l-2.48-7.68l26.26-51.31   c-0.6-0.43-1.19-0.88-1.75-1.36l-26.86,52.48l3.43,10.61l-23.62,46.15c-0.5-0.16-1.02-0.26-1.53-0.3   c-1.28-0.09-2.57,0.19-3.69,0.81c-1.12,0.61-2.08,1.57-2.7,2.79c-0.42,0.81-0.65,1.68-0.71,2.54c-0.1,1.29,0.19,2.57,0.8,3.69   c0.62,1.12,1.57,2.07,2.79,2.7c0.81,0.41,1.68,0.65,2.54,0.71c1.29,0.09,2.57-0.19,3.69-0.81c1.12-0.61,2.08-1.56,2.7-2.78   c0.42-0.81,0.65-1.68,0.71-2.54c0.09-1.29-0.2-2.58-0.81-3.7c-0.45-0.82-1.08-1.55-1.86-2.12l22.63-44.21l2.38,7.37l-6.47,12.64   c-0.28-0.08-0.57-0.13-0.86-0.14c-0.96-0.07-1.92,0.15-2.75,0.6c-0.83,0.46-1.54,1.17-2.01,2.08c-0.31,0.6-0.48,1.24-0.53,1.88   c-0.07,0.96,0.15,1.92,0.6,2.75c0.46,0.83,1.16,1.55,2.08,2.01c0.6,0.31,1.25,0.48,1.89,0.53c0.96,0.07,1.91-0.14,2.75-0.6   c0.83-0.46,1.55-1.16,2.01-2.07c0.31-0.61,0.48-1.25,0.53-1.89c0.07-0.96-0.14-1.91-0.6-2.75c-0.29-0.53-0.68-1-1.16-1.4   l6.88-13.44L255.32,632.22z M231.77,683.97c0.1,0.85-0.03,1.74-0.45,2.57c-0.28,0.55-0.66,1.01-1.1,1.38   c-0.67,0.56-1.48,0.91-2.34,1.01c-0.85,0.1-1.74-0.04-2.56-0.46c-0.55-0.28-1.02-0.66-1.39-1.11c-0.55-0.66-0.9-1.48-1.01-2.33   c-0.1-0.86,0.03-1.74,0.45-2.57c0.28-0.55,0.66-1.02,1.1-1.38c0.67-0.56,1.48-0.91,2.34-1.01c0.85-0.1,1.74,0.04,2.57,0.46   c0.55,0.28,1.01,0.66,1.39,1.1C231.32,682.3,231.66,683.12,231.77,683.97z M251.07,661.02c-0.17,0.34-0.41,0.63-0.68,0.85   c-0.41,0.34-0.92,0.56-1.45,0.63c-0.53,0.06-1.08-0.02-1.59-0.28c-0.34-0.18-0.63-0.41-0.86-0.68c-0.34-0.41-0.56-0.92-0.63-1.45   c-0.06-0.53,0.03-1.08,0.29-1.59c0.18-0.34,0.41-0.63,0.68-0.86c0.41-0.34,0.92-0.56,1.45-0.63c0.53-0.06,1.08,0.03,1.59,0.29   c0.34,0.18,0.63,0.41,0.86,0.68c0.35,0.41,0.56,0.91,0.62,1.45C251.41,659.96,251.33,660.51,251.07,661.02z"/>
	<path class="st0" d="M281.38,714.89c-1.35-0.42-2.78,0.33-3.2,1.68c-0.42,1.35,0.33,2.78,1.68,3.19s2.78-0.33,3.2-1.68   C283.48,716.74,282.73,715.31,281.38,714.89z"/>
	<path class="st0" d="M228.47,682.31c-1.21-0.62-2.7-0.14-3.32,1.07c-0.62,1.21-0.14,2.7,1.07,3.32s2.69,0.14,3.31-1.07   C230.15,684.42,229.68,682.93,228.47,682.31z"/>
	<path class="st0" d="M681.77,532.69c-1.2-0.65-2.69-0.22-3.34,0.98c-0.65,1.2-0.21,2.69,0.98,3.35c1.2,0.65,2.69,0.21,3.35-0.98   C683.41,534.84,682.97,533.34,681.77,532.69z"/>
	<path class="st0" d="M139.2,622.69c-0.96,0.97-0.95,2.53,0.01,3.49c0.97,0.96,2.52,0.95,3.48-0.02c0.96-0.97,0.96-2.52-0.01-3.48   S140.16,621.72,139.2,622.69z"/>
	<path class="st0" d="M623.04,615.04c-0.63-0.66-1.37-1.16-2.16-1.51c-1.19-0.51-2.5-0.66-3.76-0.45c-0.92,0.16-1.82,0.51-2.62,1.06   l-34.3-35.92l7.74,0.18l9.81,10.27c-0.16,0.24-0.31,0.5-0.42,0.77c-0.38,0.89-0.49,1.86-0.34,2.8c0.16,0.93,0.6,1.84,1.3,2.58   c0.47,0.49,1.02,0.87,1.6,1.12c0.89,0.38,1.86,0.49,2.8,0.34c0.94-0.16,1.84-0.59,2.58-1.3c0.49-0.47,0.86-1.02,1.12-1.61   c0.38-0.88,0.5-1.85,0.33-2.79c-0.16-0.94-0.59-1.84-1.29-2.58c-0.47-0.5-1.02-0.87-1.61-1.12c-0.88-0.38-1.85-0.5-2.8-0.34   c-0.59,0.1-1.17,0.31-1.71,0.64l-10.42-10.92l-10.82-0.25l-23.85-24.97c-0.39,0.64-0.79,1.27-1.21,1.89L575,575.92l-8.07-0.19   l-17.41-18.23c-0.48,0.55-0.97,1.08-1.48,1.6l17.94,18.78l11.14,0.26l35.8,37.49c-0.32,0.42-0.58,0.87-0.78,1.35   c-0.51,1.18-0.67,2.49-0.45,3.75c0.21,1.26,0.8,2.48,1.75,3.47c0.63,0.66,1.37,1.17,2.16,1.51c1.19,0.52,2.49,0.67,3.75,0.46   c1.26-0.22,2.47-0.8,3.47-1.75c0.66-0.63,1.16-1.37,1.51-2.16c0.51-1.19,0.67-2.49,0.45-3.75   C624.57,617.25,623.99,616.03,623.04,615.04z M599.17,590.8c0.11-0.52,0.38-1.01,0.79-1.41c0.28-0.27,0.59-0.46,0.93-0.59   c0.5-0.19,1.05-0.23,1.57-0.11c0.52,0.11,1.01,0.37,1.41,0.79c0.26,0.27,0.46,0.6,0.58,0.92c0.19,0.5,0.23,1.06,0.12,1.58   c-0.12,0.52-0.37,1.01-0.79,1.41c-0.28,0.27-0.6,0.46-0.93,0.59c-0.5,0.19-1.06,0.23-1.57,0.12c-0.52-0.12-1.01-0.38-1.41-0.79   c-0.27-0.28-0.46-0.59-0.59-0.93C599.09,591.88,599.05,591.32,599.17,590.8z M622.6,620.58c-0.18,0.84-0.61,1.63-1.27,2.27   c-0.45,0.43-0.96,0.74-1.5,0.95c-0.8,0.31-1.69,0.37-2.53,0.19c-0.84-0.19-1.64-0.6-2.28-1.27c-0.43-0.45-0.74-0.96-0.94-1.5   c-0.31-0.81-0.37-1.7-0.19-2.54c0.18-0.84,0.61-1.63,1.28-2.27c0.45-0.43,0.95-0.74,1.49-0.95c0.81-0.31,1.7-0.36,2.54-0.18   c0.84,0.18,1.64,0.6,2.28,1.27c0.43,0.45,0.74,0.96,0.94,1.5C622.72,618.85,622.78,619.74,622.6,620.58z"/>
	<path class="st0" d="M683.77,529.03c-0.8-0.44-1.66-0.69-2.52-0.78c-1.29-0.13-2.58,0.13-3.72,0.71c-0.83,0.43-1.58,1.04-2.17,1.8   l-43.59-23.79l7.43-2.18l12.46,6.8c-0.08,0.28-0.14,0.57-0.17,0.86c-0.09,0.96,0.09,1.92,0.53,2.77c0.44,0.84,1.13,1.57,2.02,2.06   c0.59,0.32,1.23,0.52,1.87,0.58c0.96,0.09,1.92-0.09,2.77-0.53c0.85-0.43,1.58-1.12,2.07-2.02c0.32-0.59,0.51-1.23,0.58-1.88   c0.1-0.96-0.09-1.92-0.53-2.76c-0.43-0.85-1.12-1.58-2.02-2.07c-0.6-0.33-1.24-0.51-1.88-0.58c-0.96-0.1-1.92,0.09-2.77,0.53   c-0.53,0.27-1.02,0.65-1.43,1.13l-13.25-7.23l-10.39,3.05l-78.89-43.06c0.4,1.05,0.81,2.09,1.19,3.13l74.74,40.8l-7.74,2.28   l-64.2-35.04c0.33,1.01,0.64,2,0.95,3l63,34.39l10.69-3.14l45.5,24.84c-0.17,0.5-0.29,1.01-0.34,1.52   c-0.13,1.28,0.12,2.58,0.71,3.71c0.58,1.14,1.51,2.12,2.72,2.77c0.8,0.44,1.66,0.7,2.52,0.78c1.29,0.13,2.58-0.12,3.71-0.71   c1.13-0.59,2.11-1.51,2.77-2.72c0.44-0.8,0.69-1.66,0.78-2.52c0.13-1.29-0.12-2.58-0.72-3.71   C685.9,530.66,684.97,529.68,683.77,529.03z M653.99,511.61c0.19-0.34,0.42-0.62,0.71-0.84c0.42-0.34,0.93-0.54,1.46-0.58   c0.53-0.05,1.08,0.05,1.58,0.32c0.33,0.18,0.62,0.43,0.84,0.7c0.33,0.42,0.54,0.94,0.59,1.46c0.05,0.54-0.05,1.08-0.32,1.58   c-0.19,0.34-0.43,0.62-0.71,0.84c-0.42,0.33-0.94,0.54-1.46,0.59c-0.54,0.05-1.07-0.05-1.58-0.33c-0.34-0.19-0.62-0.42-0.84-0.71   c-0.33-0.42-0.54-0.94-0.59-1.46C653.61,512.66,653.71,512.12,653.99,511.61z M684.51,536.99c-0.3,0.55-0.68,1-1.14,1.36   c-0.67,0.54-1.5,0.87-2.35,0.95c-0.86,0.08-1.74-0.08-2.56-0.52c-0.54-0.3-1-0.69-1.35-1.14c-0.54-0.68-0.87-1.51-0.95-2.36   c-0.08-0.86,0.08-1.74,0.53-2.55c0.3-0.54,0.68-0.99,1.13-1.36c0.68-0.54,1.5-0.86,2.36-0.94c0.86-0.08,1.74,0.08,2.56,0.52   c0.54,0.3,0.99,0.69,1.35,1.14c0.54,0.68,0.87,1.5,0.95,2.36C685.11,535.29,684.95,536.18,684.51,536.99z"/>
	<path class="st0" d="M648.11,599.87c-0.92,1.06-0.81,2.68,0.25,3.6c1.06,0.92,2.68,0.81,3.6-0.25c0.92-1.06,0.81-2.68-0.25-3.6   C650.65,598.7,649.03,598.81,648.11,599.87z"/>
	<path class="st0" d="M654.54,596.36c-0.71-0.62-1.52-1.07-2.37-1.34c-1.27-0.42-2.63-0.45-3.91-0.11c-0.93,0.25-1.82,0.7-2.59,1.34   l-58.55-50.85l-11.79,0.83l-14.52-12.61c-0.17,0.84-0.35,1.67-0.55,2.49l14.3,12.42l11.79-0.83l57.85,50.24   c-0.28,0.47-0.51,0.96-0.68,1.46c-0.42,1.27-0.45,2.63-0.1,3.9c0.34,1.28,1.06,2.48,2.13,3.41c0.71,0.62,1.53,1.07,2.37,1.34   c1.28,0.41,2.64,0.44,3.91,0.1c1.27-0.34,2.47-1.06,3.4-2.13c0.62-0.71,1.07-1.53,1.34-2.37c0.41-1.28,0.45-2.63,0.1-3.91   C656.33,598.48,655.61,597.29,654.54,596.36z M654.62,602.11c-0.11,0.88-0.47,1.74-1.1,2.46c-0.42,0.48-0.91,0.85-1.45,1.12   c-0.8,0.4-1.71,0.55-2.59,0.44c-0.89-0.11-1.74-0.47-2.46-1.1c-0.48-0.42-0.85-0.92-1.12-1.45c-0.4-0.81-0.55-1.71-0.44-2.59   c0.11-0.89,0.47-1.74,1.1-2.46c0.42-0.49,0.91-0.86,1.45-1.12c0.81-0.39,1.72-0.54,2.6-0.44c0.88,0.11,1.74,0.47,2.46,1.1   c0.48,0.42,0.85,0.91,1.12,1.45C654.58,600.32,654.73,601.23,654.62,602.11z"/>
	<path class="st0" d="M692.18,490.93c-0.85-0.33-1.74-0.46-2.6-0.42c-1.29,0.05-2.53,0.48-3.57,1.22c-0.76,0.54-1.42,1.25-1.9,2.09   l-125.47-47.29c-0.93,0.42-1.87,0.85-2.81,1.26l127.52,48.06c-0.11,0.52-0.15,1.04-0.13,1.55c0.06,1.3,0.49,2.54,1.22,3.58   c0.74,1.05,1.79,1.89,3.07,2.37c0.86,0.32,1.74,0.45,2.6,0.42c1.3-0.05,2.54-0.48,3.58-1.22c1.05-0.74,1.88-1.79,2.37-3.07   c0.32-0.86,0.46-1.74,0.42-2.61c-0.05-1.29-0.48-2.53-1.22-3.57C694.52,492.26,693.47,491.41,692.18,490.93z M694.01,498.72   c-0.22,0.58-0.54,1.08-0.94,1.5c-0.6,0.63-1.37,1.06-2.21,1.26c-0.84,0.2-1.74,0.16-2.6-0.16c-0.58-0.22-1.08-0.54-1.5-0.94   c-0.63-0.6-1.07-1.37-1.27-2.21c-0.2-0.84-0.16-1.73,0.17-2.6c0.22-0.58,0.55-1.08,0.94-1.51c0.6-0.62,1.36-1.06,2.2-1.26   c0.84-0.2,1.74-0.16,2.6,0.16c0.58,0.22,1.08,0.55,1.5,0.94c0.63,0.6,1.07,1.37,1.27,2.21   C694.38,496.95,694.34,497.85,694.01,498.72z"/>
	<path class="st0" d="M735.86,347.71c-0.58-1.21-1.49-2.21-2.63-2.9c-1.13-0.69-2.47-1.06-3.89-0.99c-0.95,0.04-1.84,0.28-2.64,0.66   c-1.21,0.58-2.21,1.49-2.9,2.62c-0.5,0.82-0.84,1.77-0.95,2.76l-77.47,3.63l-5.71,6.27c0.54,0.52,1.05,1.07,1.54,1.64l5.2-5.71   l76.53-3.59c0.12,0.53,0.29,1.05,0.52,1.53c0.58,1.21,1.49,2.21,2.62,2.9c1.13,0.69,2.48,1.06,3.89,1   c0.95-0.04,1.84-0.28,2.64-0.66c1.21-0.58,2.21-1.5,2.9-2.63c0.68-1.13,1.06-2.47,0.99-3.89   C736.48,349.41,736.24,348.51,735.86,347.71z M733.99,352.27c-0.3,0.84-0.86,1.58-1.57,2.11c-0.72,0.53-1.58,0.86-2.54,0.91   c-0.64,0.03-1.25-0.07-1.81-0.28c-0.84-0.31-1.58-0.86-2.11-1.57c-0.53-0.72-0.86-1.58-0.91-2.54c-0.03-0.64,0.07-1.25,0.27-1.81   c0.31-0.84,0.87-1.58,1.58-2.11s1.58-0.86,2.54-0.91c0.64-0.03,1.25,0.07,1.81,0.27c0.84,0.31,1.58,0.87,2.11,1.58   s0.86,1.58,0.91,2.54C734.3,351.09,734.2,351.7,733.99,352.27z"/>
	<path class="st0" d="M729.54,348.12c-1.41,0.07-2.5,1.26-2.43,2.67s1.26,2.5,2.67,2.43c1.41-0.07,2.5-1.26,2.43-2.67   C732.15,349.14,730.95,348.06,729.54,348.12z"/>
	<path class="st0" d="M719.53,479.67c-0.79-1.06-1.9-1.9-3.24-2.36c-0.89-0.31-1.81-0.43-2.7-0.37c-1.34,0.09-2.61,0.56-3.67,1.35   c-0.77,0.58-1.43,1.33-1.91,2.21l-73.26-25.43l-10.64,5.15l-54.66-18.97c-0.91,0.47-1.83,0.95-2.76,1.42l57.56,19.98l10.63-5.15   l72.38,25.13c-0.09,0.54-0.12,1.08-0.08,1.61c0.09,1.34,0.56,2.61,1.36,3.66c0.79,1.06,1.91,1.91,3.24,2.37   c0.89,0.31,1.81,0.42,2.7,0.37c1.34-0.09,2.61-0.57,3.67-1.36c1.05-0.79,1.9-1.9,2.36-3.24c0.31-0.89,0.42-1.81,0.37-2.7   C720.8,482,720.32,480.73,719.53,479.67z M718.4,485.3c-0.21,0.6-0.53,1.13-0.93,1.58c-0.6,0.67-1.38,1.14-2.24,1.37   c-0.87,0.23-1.79,0.21-2.69-0.1c-0.6-0.21-1.14-0.54-1.58-0.93c-0.67-0.6-1.14-1.38-1.37-2.24c-0.23-0.87-0.21-1.79,0.1-2.69   c0.21-0.61,0.53-1.14,0.93-1.58c0.6-0.67,1.39-1.14,2.25-1.37c0.86-0.23,1.79-0.21,2.7,0.1c0.6,0.21,1.13,0.53,1.58,0.93   c0.67,0.6,1.14,1.39,1.37,2.25C718.73,483.46,718.71,484.39,718.4,485.3z"/>
	<path class="st0" d="M714.88,481.38c-1.33-0.46-2.79,0.24-3.25,1.57c-0.46,1.33,0.24,2.79,1.57,3.25c1.33,0.46,2.79-0.24,3.25-1.57   C716.91,483.29,716.21,481.84,714.88,481.38z"/>
	<path class="st0" d="M496.5,707.04c-1.34,0.44-2.06,1.89-1.62,3.23c0.44,1.34,1.89,2.06,3.23,1.62c1.34-0.44,2.06-1.89,1.62-3.23   C499.28,707.32,497.84,706.59,496.5,707.04z"/>
	<path class="st0" d="M511.68,681.05c-0.93-0.9-2.1-1.49-3.36-1.73c-0.92-0.17-1.88-0.16-2.82,0.08l-49.31-114.57   c-0.93-0.33-1.86-0.66-2.8-1l50.11,116.43c-0.45,0.28-0.85,0.62-1.21,0.98c-0.89,0.94-1.49,2.11-1.73,3.36   c-0.24,1.26-0.12,2.6,0.42,3.86c0.36,0.84,0.88,1.57,1.5,2.17c0.94,0.89,2.11,1.5,3.36,1.73c1.26,0.24,2.6,0.12,3.85-0.43   c0.84-0.36,1.57-0.88,2.17-1.5c0.89-0.93,1.49-2.1,1.73-3.36c0.24-1.26,0.12-2.6-0.43-3.86   C512.82,682.38,512.3,681.65,511.68,681.05z M510.84,688.25c-0.46,0.72-1.14,1.32-1.99,1.68c-0.57,0.24-1.15,0.36-1.73,0.37   c-0.87,0-1.72-0.25-2.44-0.71c-0.72-0.46-1.32-1.14-1.69-1.99c-0.24-0.57-0.36-1.15-0.36-1.73c0-0.87,0.24-1.72,0.71-2.45   c0.46-0.72,1.14-1.32,1.98-1.68c0.57-0.25,1.16-0.36,1.74-0.36c0.86,0,1.71,0.24,2.44,0.71c0.73,0.47,1.32,1.14,1.69,1.99   c0.25,0.57,0.36,1.16,0.36,1.73C511.55,686.68,511.3,687.53,510.84,688.25z"/>
	<path class="st0" d="M502.46,704.93c-0.88-1.01-2.04-1.72-3.31-2.08c-0.93-0.26-1.93-0.33-2.92-0.17l-24.47-73.59l-10.57-5.29   l-21.72-65.33c-0.43,1.08-0.86,2.14-1.3,3.21l21.18,63.71l10.56,5.3l24.17,72.7c-0.48,0.26-0.93,0.56-1.33,0.91   c-1.01,0.88-1.72,2.04-2.08,3.31c-0.36,1.27-0.35,2.67,0.09,4.02c0.3,0.9,0.77,1.69,1.35,2.36c0.89,1.01,2.04,1.72,3.32,2.08   c1.27,0.35,2.66,0.35,4.01-0.1c0.9-0.3,1.69-0.77,2.36-1.35c1.01-0.89,1.72-2.04,2.08-3.32c0.36-1.27,0.35-2.66-0.1-4.01   C503.52,706.39,503.06,705.6,502.46,704.93z M500.96,712.28c-0.54,0.7-1.29,1.26-2.2,1.56c-0.61,0.2-1.22,0.27-1.82,0.22   c-0.89-0.06-1.75-0.4-2.46-0.94c-0.71-0.55-1.26-1.29-1.56-2.2c-0.2-0.61-0.27-1.23-0.22-1.82c0.07-0.9,0.4-1.75,0.94-2.46   c0.55-0.71,1.29-1.26,2.2-1.56c0.61-0.2,1.22-0.27,1.82-0.23c0.9,0.07,1.75,0.41,2.46,0.95c0.7,0.54,1.26,1.29,1.56,2.2   c0.2,0.61,0.27,1.22,0.23,1.82C501.84,710.71,501.5,711.57,500.96,712.28z"/>
	<path class="st0" d="M440.37,679.38c-0.5-0.82-1.22-1.48-2.08-1.89c-0.54-0.26-1.14-0.42-1.76-0.47l-2.18-14.94l-8.68-6.48   l-8.02-55.06c-0.6,0.87-1.21,1.72-1.82,2.56l7.38,50.65l-6.47-4.82l-5.76-39.57c-0.62,0.75-1.25,1.49-1.88,2.21l5.62,38.57   l8.94,6.66l7.47,51.3c-0.5,0.16-0.98,0.38-1.42,0.65c-1.1,0.67-1.99,1.65-2.54,2.79c-0.56,1.15-0.79,2.48-0.58,3.84   c0.13,0.91,0.44,1.74,0.89,2.48c0.67,1.11,1.65,1.99,2.8,2.54c1.15,0.55,2.48,0.78,3.84,0.58c0.9-0.13,1.74-0.45,2.48-0.89   c1.11-0.67,1.99-1.65,2.54-2.8c0.56-1.15,0.79-2.48,0.59-3.83c-0.13-0.91-0.45-1.74-0.89-2.48c-0.67-1.11-1.65-1.99-2.8-2.54   c-0.84-0.41-1.78-0.64-2.75-0.65l-7.16-49.15l6.21,4.63l2.05,14.05c-0.27,0.1-0.54,0.23-0.79,0.38c-0.82,0.5-1.48,1.23-1.9,2.08   c-0.41,0.85-0.58,1.84-0.43,2.86c0.1,0.67,0.33,1.29,0.66,1.84c0.5,0.82,1.23,1.48,2.08,1.89c0.86,0.42,1.85,0.59,2.86,0.44   c0.67-0.1,1.29-0.33,1.85-0.67c0.82-0.5,1.48-1.22,1.89-2.08c0.42-0.86,0.59-1.85,0.44-2.85   C440.93,680.55,440.7,679.92,440.37,679.38z M434.27,710.11c0.84,0.22,1.59,0.69,2.17,1.32c0.58,0.63,0.98,1.44,1.12,2.36   c0.09,0.61,0.05,1.21-0.1,1.77c-0.22,0.84-0.68,1.6-1.32,2.18c-0.64,0.58-1.44,0.98-2.35,1.11c-0.62,0.09-1.21,0.05-1.77-0.1   c-0.83-0.21-1.59-0.68-2.17-1.31c-0.58-0.64-0.98-1.44-1.12-2.36c-0.09-0.61-0.05-1.21,0.1-1.77c0.22-0.84,0.68-1.6,1.32-2.18   c0.63-0.58,1.44-0.98,2.36-1.11C433.11,709.92,433.71,709.96,434.27,710.11z M438.82,682.63c-0.14,0.52-0.42,0.99-0.82,1.35   c-0.4,0.36-0.89,0.61-1.46,0.69c-0.38,0.06-0.75,0.03-1.1-0.06c-0.52-0.14-0.99-0.42-1.35-0.82c-0.36-0.4-0.6-0.89-0.69-1.46   c-0.06-0.38-0.03-0.75,0.06-1.1c0.14-0.52,0.42-0.99,0.82-1.35c0.39-0.36,0.89-0.6,1.46-0.69c0.38-0.06,0.75-0.03,1.1,0.06   c0.52,0.13,0.99,0.42,1.35,0.82c0.36,0.39,0.61,0.89,0.69,1.46C438.93,681.91,438.91,682.29,438.82,682.63z"/>
	<path class="st0" d="M454.95,661.4l-23.8-84.07c-0.48,0.97-0.96,1.94-1.44,2.89l23.15,81.76c-1.41,0.88-2.14,2.62-1.67,4.31   c0.57,2.05,2.7,3.24,4.75,2.67c2.05-0.57,3.24-2.7,2.67-4.75C458.14,662.53,456.62,661.43,454.95,661.4z"/>
	<path class="st0" d="M531.99,679.21c-1.22,0.6-1.73,2.07-1.14,3.3c0.6,1.22,2.07,1.73,3.3,1.14c1.22-0.6,1.73-2.07,1.13-3.3   C534.69,679.13,533.21,678.62,531.99,679.21z"/>
	<path class="st0" d="M616.54,617.84c-0.99,0.94-1.02,2.5-0.08,3.49c0.94,0.99,2.5,1.02,3.49,0.08c0.99-0.94,1.02-2.5,0.08-3.48   C619.08,616.94,617.52,616.9,616.54,617.84z"/>
	<path class="st0" d="M599.55,628.48c-0.59-0.69-1.31-1.23-2.08-1.61c-1.16-0.57-2.46-0.79-3.72-0.64   c-0.93,0.11-1.84,0.42-2.67,0.93l-52.38-60.58c-0.63,0.38-1.27,0.75-1.92,1.11l52.66,60.9c-0.34,0.4-0.62,0.84-0.85,1.3   c-0.57,1.16-0.78,2.46-0.63,3.73c0.15,1.27,0.67,2.51,1.56,3.55c0.6,0.69,1.31,1.23,2.08,1.61c1.16,0.57,2.47,0.79,3.73,0.64   c1.27-0.15,2.51-0.67,3.54-1.57c0.69-0.6,1.23-1.31,1.62-2.09c0.57-1.16,0.79-2.46,0.64-3.72   C600.98,630.76,600.46,629.52,599.55,628.48z M598.84,633.99c-0.22,0.83-0.69,1.6-1.39,2.21c-0.47,0.4-0.99,0.69-1.54,0.87   c-0.83,0.27-1.71,0.28-2.54,0.06c-0.83-0.22-1.6-0.68-2.21-1.39c-0.4-0.47-0.69-0.99-0.87-1.54c-0.27-0.83-0.29-1.71-0.06-2.55   c0.22-0.83,0.69-1.6,1.38-2.2c0.47-0.41,1-0.69,1.55-0.87c0.82-0.26,1.71-0.28,2.54-0.06c0.83,0.23,1.6,0.68,2.21,1.39   c0.41,0.47,0.69,1,0.87,1.54C599.04,632.27,599.06,633.16,598.84,633.99z"/>
	<path class="st0" d="M562.07,654.39c-1.07-0.72-2.33-1.11-3.6-1.13c-0.93-0.01-1.88,0.17-2.77,0.56l-51.75-79.21   c-0.88-0.02-1.76-0.04-2.65-0.08l52.58,80.47c-0.39,0.35-0.73,0.75-1.02,1.18c-0.72,1.08-1.11,2.33-1.12,3.61   c-0.02,1.28,0.33,2.58,1.07,3.73c0.5,0.77,1.14,1.39,1.85,1.88c1.08,0.72,2.34,1.11,3.61,1.13c1.28,0.02,2.58-0.33,3.72-1.08   c0.77-0.5,1.4-1.13,1.88-1.85c0.72-1.07,1.11-2.33,1.13-3.6c0.02-1.28-0.33-2.58-1.08-3.73   C563.43,655.5,562.79,654.87,562.07,654.39z M562.48,661.63c-0.33,0.79-0.9,1.49-1.67,2c-0.52,0.34-1.07,0.55-1.64,0.66   c-0.85,0.15-1.73,0.05-2.53-0.28c-0.79-0.33-1.5-0.89-2.01-1.67c-0.34-0.52-0.55-1.07-0.65-1.65c-0.15-0.85-0.06-1.74,0.28-2.53   c0.33-0.79,0.9-1.49,1.67-2c0.52-0.34,1.08-0.55,1.65-0.66c0.85-0.15,1.73-0.05,2.52,0.28c0.8,0.34,1.5,0.89,2.01,1.67   c0.34,0.52,0.55,1.08,0.65,1.65C562.91,659.95,562.81,660.84,562.48,661.63z"/>
	<path class="st0" d="M537.44,676.43c-0.98-0.85-2.18-1.39-3.44-1.57c-0.92-0.13-1.89-0.07-2.82,0.21l-21.76-44.65l7.32,2.52   l6.22,12.76c-0.23,0.18-0.45,0.38-0.63,0.6c-0.63,0.73-1.03,1.62-1.17,2.56c-0.13,0.94,0.01,1.93,0.46,2.85   c0.3,0.61,0.7,1.13,1.19,1.55c0.73,0.63,1.62,1.04,2.56,1.17c0.94,0.14,1.94,0,2.86-0.45c0.61-0.3,1.13-0.71,1.56-1.2   c0.63-0.72,1.04-1.61,1.17-2.56c0.14-0.94,0-1.94-0.45-2.85c-0.3-0.62-0.71-1.14-1.2-1.56c-0.72-0.63-1.61-1.04-2.56-1.17   c-0.59-0.09-1.21-0.06-1.82,0.09l-6.61-13.57l-10.23-3.53l-27.19-55.8c-0.9-0.19-1.8-0.38-2.7-0.58l26.99,55.38l-7.63-2.63   l-26.58-54.55c-0.93-0.25-1.87-0.53-2.81-0.8l27.83,57.11l10.54,3.63l22.71,46.6c-0.43,0.31-0.82,0.66-1.16,1.05   c-0.85,0.97-1.39,2.17-1.57,3.43c-0.18,1.27,0,2.61,0.61,3.83c0.4,0.82,0.95,1.53,1.6,2.09c0.97,0.85,2.17,1.39,3.44,1.57   c1.26,0.18,2.6-0.01,3.83-0.61c0.82-0.4,1.53-0.95,2.09-1.6c0.85-0.98,1.39-2.17,1.57-3.44c0.18-1.27,0-2.6-0.6-3.83   C538.63,677.7,538.08,677,537.44,676.43z M523.66,648.18c0.27-0.46,0.67-0.84,1.18-1.1c0.35-0.17,0.7-0.26,1.06-0.28   c0.53-0.03,1.07,0.1,1.53,0.37c0.46,0.27,0.85,0.66,1.1,1.18c0.17,0.34,0.25,0.71,0.27,1.06c0.03,0.54-0.1,1.08-0.37,1.54   c-0.27,0.46-0.66,0.85-1.18,1.1c-0.35,0.17-0.71,0.25-1.06,0.28c-0.54,0.03-1.07-0.1-1.54-0.37c-0.46-0.27-0.84-0.67-1.1-1.18   c-0.17-0.35-0.26-0.7-0.28-1.06C523.26,649.18,523.39,648.64,523.66,648.18z M536.93,683.67c-0.43,0.74-1.07,1.37-1.9,1.77   c-0.56,0.27-1.14,0.42-1.72,0.45c-0.86,0.05-1.72-0.16-2.47-0.59c-0.75-0.44-1.37-1.07-1.78-1.91c-0.27-0.55-0.41-1.14-0.44-1.71   c-0.05-0.87,0.17-1.73,0.59-2.48c0.43-0.74,1.07-1.37,1.91-1.77c0.55-0.27,1.13-0.42,1.71-0.45c0.87-0.05,1.73,0.17,2.47,0.6   c0.74,0.43,1.37,1.07,1.78,1.91c0.27,0.55,0.41,1.13,0.44,1.71C537.57,682.06,537.36,682.92,536.93,683.67z"/>
	<path class="st0" d="M146.33,620.54l35-35.24l0.03,7.74l-10.01,10.07c-0.24-0.16-0.51-0.3-0.78-0.4c-0.9-0.36-1.87-0.44-2.8-0.26   c-0.93,0.19-1.82,0.64-2.54,1.37c-0.48,0.48-0.84,1.04-1.08,1.63c-0.36,0.9-0.44,1.87-0.26,2.8c0.18,0.93,0.64,1.83,1.36,2.55   c0.48,0.48,1.04,0.84,1.64,1.08c0.89,0.36,1.87,0.45,2.8,0.26c0.93-0.18,1.83-0.64,2.54-1.36c0.48-0.49,0.84-1.05,1.08-1.64   c0.36-0.89,0.45-1.87,0.26-2.8c-0.11-0.59-0.34-1.16-0.68-1.69l10.64-10.71l-0.03-10.83l13.13-13.22c-0.72-0.3-1.43-0.62-2.12-0.95   l-11.02,11.09l-0.03-8.07l5.83-5.87c-0.63-0.4-1.25-0.8-1.85-1.22l-6.16,6.2l0.04,11.15l-36.53,36.78   c-0.43-0.31-0.89-0.56-1.37-0.75c-1.2-0.48-2.51-0.6-3.76-0.35c-1.25,0.24-2.46,0.86-3.42,1.84c-0.64,0.65-1.13,1.4-1.45,2.2   c-0.48,1.2-0.6,2.51-0.36,3.76c0.25,1.25,0.86,2.45,1.84,3.42c0.64,0.64,1.4,1.13,2.2,1.45c1.2,0.48,2.51,0.6,3.76,0.35   c1.25-0.24,2.46-0.86,3.42-1.83c0.64-0.65,1.13-1.4,1.45-2.2c0.48-1.2,0.6-2.51,0.35-3.77   C147.27,622.22,146.9,621.33,146.33,620.54z M171.44,607.83c-0.1,0.52-0.35,1.02-0.75,1.43c-0.27,0.27-0.58,0.47-0.91,0.61   c-0.5,0.2-1.05,0.26-1.57,0.16c-0.53-0.1-1.02-0.35-1.43-0.75c-0.27-0.27-0.47-0.58-0.61-0.91c-0.2-0.5-0.26-1.05-0.16-1.57   c0.1-0.53,0.35-1.02,0.76-1.43c0.27-0.27,0.58-0.48,0.91-0.61c0.5-0.2,1.05-0.26,1.57-0.16c0.52,0.1,1.02,0.35,1.43,0.76   c0.27,0.27,0.48,0.58,0.61,0.91C171.49,606.76,171.54,607.3,171.44,607.83z M145.32,625.26c-0.16,0.84-0.56,1.65-1.21,2.31   c-0.43,0.44-0.94,0.76-1.47,0.98c-0.8,0.33-1.69,0.42-2.53,0.25c-0.84-0.16-1.65-0.56-2.3-1.21c-0.44-0.44-0.77-0.94-0.99-1.48   c-0.33-0.79-0.41-1.68-0.25-2.52c0.16-0.85,0.56-1.65,1.21-2.31c0.43-0.44,0.94-0.77,1.47-0.98c0.8-0.33,1.69-0.41,2.53-0.25   c0.84,0.16,1.65,0.56,2.3,1.22c0.44,0.43,0.77,0.93,0.99,1.47C145.41,623.53,145.48,624.41,145.32,625.26z"/>
	<path class="st0" d="M295.72,34.67c0.74,1.12,1.79,1.98,3,2.51c0.89,0.38,1.87,0.58,2.87,0.56l14.45,76.19l9.77,6.65l2.41,12.68   c0.65-0.58,1.31-1.13,1.97-1.67l-2.34-12.34l-9.76-6.65L303.8,37.31c0.51-0.19,1-0.43,1.44-0.73c1.12-0.74,1.98-1.79,2.5-3   c0.53-1.21,0.71-2.6,0.44-3.99c-0.18-0.93-0.54-1.78-1.03-2.52c-0.75-1.11-1.8-1.98-3.01-2.51c-1.21-0.52-2.59-0.7-3.99-0.44   c-0.93,0.18-1.78,0.54-2.52,1.03c-1.11,0.75-1.98,1.79-2.5,3.01c-0.53,1.21-0.7,2.59-0.44,3.99   C294.87,33.08,295.22,33.93,295.72,34.67z M296.92,29.9c0.19-0.88,0.64-1.68,1.27-2.31c0.63-0.63,1.44-1.07,2.39-1.25   c0.63-0.12,1.24-0.11,1.83,0.02c0.88,0.18,1.68,0.63,2.31,1.26c0.63,0.64,1.07,1.44,1.25,2.39c0.12,0.63,0.1,1.25-0.02,1.83   c-0.19,0.88-0.63,1.68-1.26,2.31c-0.64,0.63-1.44,1.07-2.39,1.25c-0.63,0.12-1.25,0.11-1.83-0.02c-0.88-0.19-1.68-0.64-2.31-1.27   c-0.63-0.63-1.07-1.44-1.25-2.39C296.79,31.1,296.8,30.49,296.92,29.9z"/>
	<path class="st0" d="M290.65,74.7l21.39,76.92c0.54-0.76,1.09-1.51,1.63-2.24l-20.93-75.26c1.42-0.88,2.15-2.61,1.68-4.3   c-0.57-2.05-2.69-3.25-4.74-2.69c-2.05,0.57-3.25,2.69-2.69,4.74C287.47,73.57,288.99,74.68,290.65,74.7z"/>
	<path class="st0" d="M253.13,60.8c1.28-0.47,1.93-1.89,1.46-3.17c-0.47-1.28-1.89-1.93-3.17-1.46c-1.28,0.47-1.93,1.89-1.45,3.17   C250.44,60.61,251.85,61.27,253.13,60.8z"/>
	<path class="st0" d="M301.91,33.38c1.38-0.26,2.29-1.6,2.03-2.98c-0.26-1.38-1.6-2.29-2.98-2.03c-1.38,0.26-2.29,1.6-2.03,2.98   C299.19,32.73,300.53,33.64,301.91,33.38z"/>
	<path class="st0" d="M323.14,91.17c0.69,1.09,1.69,1.95,2.85,2.48c0.85,0.39,1.79,0.6,2.76,0.6l5.69,34.06   c0.66-0.47,1.32-0.93,1.98-1.36l-5.52-33.05c0.5-0.17,0.97-0.4,1.41-0.67c1.09-0.7,1.95-1.69,2.48-2.85   c0.53-1.16,0.74-2.49,0.51-3.84c-0.15-0.9-0.48-1.73-0.94-2.46c-0.7-1.09-1.7-1.96-2.86-2.48c-1.16-0.53-2.49-0.73-3.84-0.5   c-0.9,0.15-1.73,0.48-2.47,0.94c-1.09,0.69-1.95,1.69-2.48,2.85c-0.53,1.16-0.74,2.49-0.5,3.85   C322.35,89.61,322.68,90.44,323.14,91.17z M324.4,86.58c0.2-0.84,0.65-1.61,1.27-2.21s1.42-1.01,2.33-1.16   c0.61-0.1,1.2-0.08,1.77,0.05c0.84,0.2,1.61,0.65,2.2,1.27c0.59,0.62,1.01,1.42,1.17,2.33c0.1,0.61,0.07,1.2-0.06,1.77   c-0.2,0.84-0.64,1.61-1.27,2.21c-0.62,0.59-1.42,1.01-2.33,1.16c-0.61,0.1-1.21,0.07-1.78-0.06c-0.84-0.2-1.61-0.64-2.2-1.27   c-0.59-0.63-1.01-1.42-1.17-2.33C324.24,87.74,324.27,87.14,324.4,86.58z"/>
	<path class="st0" d="M331.38,46.5c0.64,1.13,1.59,2.03,2.72,2.62c0.83,0.43,1.76,0.69,2.73,0.73l8.42,72.23   c0.69-0.31,1.39-0.59,2.09-0.86l-8.35-71.62c0.51-0.14,0.99-0.35,1.44-0.6c1.13-0.64,2.03-1.59,2.62-2.73   c0.59-1.13,0.86-2.45,0.7-3.81c-0.11-0.91-0.4-1.76-0.82-2.5c-0.64-1.13-1.6-2.04-2.73-2.62c-1.13-0.59-2.45-0.85-3.81-0.69   c-0.91,0.11-1.76,0.39-2.51,0.82c-1.12,0.64-2.03,1.59-2.62,2.72c-0.59,1.13-0.86,2.45-0.69,3.82   C330.66,44.9,330.95,45.75,331.38,46.5z M332.87,41.98c0.24-0.83,0.73-1.58,1.38-2.14c0.65-0.56,1.47-0.94,2.39-1.04   c0.61-0.07,1.21-0.02,1.76,0.14c0.83,0.24,1.57,0.73,2.13,1.38c0.56,0.65,0.94,1.47,1.05,2.39c0.07,0.61,0.01,1.21-0.15,1.76   c-0.24,0.83-0.72,1.58-1.38,2.14c-0.65,0.56-1.47,0.94-2.38,1.04c-0.62,0.07-1.21,0.01-1.77-0.15c-0.83-0.24-1.57-0.72-2.13-1.38   c-0.56-0.66-0.94-1.47-1.05-2.39C332.65,43.12,332.71,42.53,332.87,41.98z"/>
	<path class="st0" d="M222.01,109.31l43.97,77.14c1.02,0.33,2.05,0.67,3.08,1.02l-45.16-79.22c1.16-1.19,1.45-3.05,0.59-4.58   c-1.05-1.85-3.4-2.51-5.25-1.46s-2.51,3.4-1.46,5.25C218.65,108.97,220.39,109.68,222.01,109.31z"/>
	<path class="st0" d="M247.44,63.02c0.89,0.94,2.03,1.6,3.27,1.91c0.91,0.22,1.87,0.26,2.82,0.07l17.2,46.59l-7.03-3.24l-4.92-13.32   c0.25-0.16,0.48-0.34,0.69-0.54c0.7-0.66,1.19-1.51,1.42-2.43c0.22-0.92,0.18-1.93-0.17-2.89c-0.23-0.64-0.59-1.2-1.03-1.67   c-0.66-0.7-1.51-1.19-2.43-1.42c-0.92-0.23-1.93-0.19-2.89,0.16c-0.64,0.23-1.2,0.59-1.67,1.04c-0.7,0.66-1.19,1.5-1.41,2.43   c-0.23,0.92-0.19,1.93,0.16,2.88c0.24,0.64,0.6,1.2,1.04,1.67c0.66,0.7,1.5,1.19,2.43,1.42c0.58,0.15,1.2,0.18,1.82,0.09   l5.23,14.16l9.83,4.53l24.1,65.27c0.43-0.92,0.87-1.84,1.31-2.74l-22.61-61.24l7.33,3.38l18.81,50.94c0.46-0.86,0.92-1.7,1.38-2.54   l-18.46-50l-10.12-4.66l-17.96-48.63c0.46-0.26,0.88-0.57,1.25-0.93c0.94-0.88,1.6-2.02,1.9-3.26c0.31-1.24,0.26-2.59-0.22-3.88   c-0.32-0.86-0.79-1.61-1.38-2.24c-0.88-0.95-2.02-1.6-3.26-1.91c-1.24-0.3-2.59-0.25-3.88,0.22c-0.85,0.31-1.61,0.8-2.24,1.38   c-0.94,0.89-1.6,2.02-1.9,3.27c-0.31,1.24-0.26,2.59,0.22,3.87C246.37,61.64,246.85,62.39,247.44,63.02z M257.05,93.48   c-0.36,0.13-0.73,0.19-1.09,0.17c-0.53-0.02-1.05-0.2-1.49-0.52c-0.43-0.31-0.78-0.74-0.98-1.29c-0.13-0.36-0.18-0.73-0.17-1.08   c0.03-0.54,0.21-1.06,0.52-1.49c0.32-0.43,0.74-0.78,1.29-0.98c0.36-0.13,0.73-0.18,1.09-0.17c0.54,0.03,1.06,0.21,1.49,0.52   c0.43,0.32,0.77,0.75,0.97,1.29c0.13,0.36,0.19,0.73,0.17,1.09c-0.03,0.54-0.21,1.06-0.52,1.49   C258.02,92.94,257.59,93.28,257.05,93.48z M248.66,55.87c0.5-0.7,1.21-1.25,2.07-1.57c0.58-0.22,1.17-0.3,1.76-0.27   c0.86,0.04,1.7,0.33,2.4,0.83c0.7,0.51,1.26,1.2,1.58,2.07c0.21,0.58,0.3,1.18,0.27,1.75c-0.04,0.87-0.34,1.71-0.84,2.4   c-0.5,0.7-1.21,1.25-2.08,1.58c-0.58,0.21-1.17,0.3-1.75,0.28c-0.87-0.04-1.7-0.34-2.4-0.84c-0.7-0.5-1.26-1.2-1.58-2.07   c-0.21-0.58-0.29-1.17-0.27-1.75C247.87,57.41,248.16,56.57,248.66,55.87z"/>
	<path class="st0" d="M179.61,85.8c1.19-0.76,1.54-2.34,0.78-3.52c-0.76-1.19-2.34-1.54-3.52-0.78s-1.54,2.34-0.78,3.52   C176.85,86.21,178.42,86.56,179.61,85.8z"/>
	<path class="st0" d="M220.6,78.53c0.97,0.85,2.17,1.39,3.43,1.57c0.92,0.13,1.89,0.07,2.81-0.21l54.76,112.19   c1,0.4,2,0.8,3.01,1.21L228.8,78.93c0.43-0.3,0.82-0.66,1.16-1.04c0.85-0.98,1.39-2.18,1.56-3.44c0.18-1.27,0-2.6-0.6-3.83   c-0.4-0.82-0.96-1.52-1.6-2.09c-0.98-0.85-2.18-1.39-3.44-1.57c-1.27-0.18-2.6,0.01-3.83,0.61c-0.82,0.4-1.53,0.95-2.1,1.6   c-0.85,0.97-1.39,2.17-1.57,3.43c-0.18,1.27,0,2.6,0.61,3.83C219.39,77.26,219.94,77.96,220.6,78.53z M221.09,71.3   c0.43-0.74,1.07-1.37,1.91-1.78c0.55-0.27,1.13-0.42,1.71-0.45c0.87-0.05,1.73,0.17,2.47,0.6c0.74,0.43,1.38,1.07,1.78,1.91   c0.27,0.55,0.41,1.13,0.44,1.71c0.05,0.87-0.16,1.73-0.59,2.48c-0.43,0.74-1.07,1.37-1.9,1.77c-0.56,0.27-1.14,0.41-1.72,0.45   c-0.86,0.04-1.72-0.16-2.47-0.59c-0.75-0.43-1.38-1.07-1.78-1.91c-0.27-0.56-0.41-1.14-0.44-1.71   C220.45,72.9,220.67,72.04,221.09,71.3z"/>
	<path class="st0" d="M397.98,81.14l-3.78,47.07c0.69,0.49,1.38,0.99,2.06,1.52l3.89-48.4c1.63-0.34,2.92-1.71,3.06-3.45   c0.18-2.12-1.4-3.98-3.52-4.16s-3.98,1.4-4.16,3.52C395.38,78.98,396.42,80.54,397.98,81.14z"/>
	<path class="st0" d="M459.16,89.08c0.38,0.47,0.85,0.86,1.4,1.17l-27.06,90.82c0.46,0.99,0.92,2,1.37,3.02l27.78-93.21   c0.29,0.02,0.59,0.01,0.88-0.02c0.96-0.1,1.86-0.49,2.6-1.09c0.73-0.6,1.3-1.43,1.59-2.4c0.2-0.66,0.25-1.32,0.18-1.95   c-0.1-0.96-0.49-1.86-1.09-2.6c-0.6-0.73-1.43-1.3-2.41-1.6c-0.65-0.19-1.31-0.25-1.95-0.18c-0.96,0.1-1.86,0.49-2.6,1.09   c-0.73,0.6-1.31,1.43-1.59,2.41c-0.2,0.65-0.25,1.31-0.18,1.95C458.17,87.44,458.56,88.34,459.16,89.08z M460.32,85.16   c0.11-0.37,0.29-0.69,0.52-0.97c0.34-0.41,0.8-0.72,1.31-0.88c0.51-0.16,1.06-0.17,1.61-0.01c0.37,0.11,0.69,0.28,0.97,0.52   c0.42,0.34,0.72,0.8,0.88,1.31c0.16,0.51,0.17,1.06,0.01,1.61c-0.11,0.36-0.28,0.69-0.51,0.96c-0.34,0.42-0.8,0.72-1.31,0.88   c-0.51,0.16-1.06,0.18-1.62,0.01c-0.36-0.11-0.69-0.29-0.96-0.51c-0.41-0.34-0.72-0.8-0.88-1.31   C460.18,86.26,460.16,85.71,460.32,85.16z"/>
	<path class="st0" d="M363.38,28.6c0.8,0.54,1.72,0.92,2.71,1.08v77.55l8.36,8.36v3.48c0.75,0.17,1.5,0.36,2.24,0.57v-4.98   l-8.35-8.36V29.68c0.54-0.09,1.06-0.24,1.55-0.45c1.23-0.52,2.28-1.39,3.01-2.48c0.74-1.09,1.18-2.43,1.18-3.84   c0-0.95-0.2-1.85-0.54-2.67c-0.53-1.23-1.4-2.28-2.49-3.02c-1.09-0.74-2.42-1.17-3.83-1.17c-0.95,0-1.85,0.2-2.67,0.54   c-1.23,0.53-2.28,1.39-3.02,2.49c-0.74,1.09-1.17,2.42-1.17,3.84c0,0.95,0.19,1.85,0.54,2.67   C361.41,26.81,362.28,27.85,363.38,28.6z M362.96,21.11c0.35-0.83,0.94-1.54,1.68-2.03c0.74-0.5,1.62-0.79,2.58-0.79   c0.64,0,1.24,0.13,1.79,0.36c0.83,0.34,1.54,0.93,2.03,1.67c0.5,0.74,0.79,1.62,0.79,2.58c0,0.64-0.13,1.25-0.36,1.79   c-0.35,0.83-0.93,1.54-1.67,2.03c-0.74,0.5-1.62,0.79-2.58,0.79c-0.65,0-1.25-0.13-1.79-0.36c-0.83-0.35-1.54-0.94-2.03-1.68   c-0.5-0.74-0.79-1.62-0.79-2.58C362.6,22.27,362.73,21.66,362.96,21.11z"/>
	<path class="st0" d="M495.89,50.62l-28.84,71.99l4.65,10.87l-23.27,58.09c0.96-0.38,1.91-0.73,2.85-1.09l22.84-57.03l-4.64-10.86   l28.49-71.12c0.54,0.12,1.07,0.17,1.61,0.16c1.34-0.02,2.63-0.44,3.72-1.18c1.1-0.74,2-1.81,2.52-3.13   c0.35-0.88,0.51-1.79,0.49-2.68c-0.03-1.34-0.45-2.63-1.19-3.73c-0.74-1.09-1.81-1.99-3.12-2.51c-0.88-0.35-1.79-0.51-2.68-0.49   c-1.34,0.03-2.63,0.44-3.73,1.19c-1.1,0.74-1.99,1.81-2.51,3.12c-0.35,0.88-0.51,1.79-0.49,2.68c0.02,1.34,0.44,2.63,1.18,3.73   C494.31,49.4,495.03,50.1,495.89,50.62z M495.17,43.03c0.24-0.59,0.58-1.11,1-1.53c0.63-0.64,1.44-1.08,2.31-1.26   c0.87-0.19,1.8-0.13,2.69,0.23c0.59,0.24,1.1,0.58,1.53,1.01c0.64,0.63,1.08,1.44,1.27,2.3c0.19,0.88,0.13,1.8-0.23,2.69   c-0.24,0.59-0.59,1.11-1.01,1.53c-0.63,0.64-1.44,1.08-2.3,1.27c-0.88,0.19-1.8,0.13-2.69-0.23c-0.6-0.24-1.11-0.58-1.53-1   c-0.64-0.63-1.08-1.44-1.26-2.31C494.75,44.85,494.81,43.93,495.17,43.03z"/>
	<path class="st0" d="M498.5,47.12c1.31,0.52,2.79-0.11,3.32-1.42c0.52-1.31-0.11-2.79-1.42-3.32c-1.31-0.52-2.79,0.11-3.32,1.42   C496.56,45.11,497.2,46.59,498.5,47.12z"/>
	<path class="st0" d="M446.62,42.06c0.29-1.33-0.55-2.65-1.88-2.94c-1.33-0.29-2.64,0.55-2.93,1.88c-0.29,1.33,0.54,2.65,1.87,2.94   S446.33,43.39,446.62,42.06z"/>
	<path class="st0" d="M430.38,99.19L418.3,153.9c0.56,0.82,1.12,1.66,1.67,2.51l12.06-54.62l4.34,6.8l-12.09,54.78   c0.54,0.92,1.08,1.85,1.61,2.79l12.8-57.99l-6-9.4l11.18-50.62c0.53,0.03,1.05,0,1.56-0.1c1.27-0.23,2.44-0.84,3.36-1.71   c0.93-0.88,1.62-2.04,1.91-3.38c0.2-0.89,0.21-1.79,0.05-2.63c-0.23-1.27-0.84-2.44-1.71-3.37c-0.88-0.92-2.04-1.61-3.38-1.91   c-0.89-0.2-1.79-0.2-2.63-0.05c-1.27,0.24-2.44,0.84-3.36,1.72c-0.93,0.88-1.62,2.04-1.91,3.37c-0.2,0.89-0.2,1.79-0.05,2.63   c0.24,1.27,0.84,2.44,1.72,3.37c0.64,0.68,1.44,1.23,2.34,1.58l-10.71,48.5l-4.17-6.53l3.06-13.86c0.29,0,0.59-0.02,0.87-0.08   c0.95-0.18,1.82-0.63,2.51-1.28c0.69-0.65,1.2-1.52,1.42-2.52c0.15-0.66,0.15-1.33,0.04-1.96c-0.18-0.95-0.63-1.82-1.28-2.51   c-0.65-0.69-1.52-1.2-2.52-1.42c-0.66-0.15-1.33-0.15-1.96-0.03c-0.95,0.17-1.82,0.62-2.5,1.28c-0.69,0.65-1.2,1.52-1.42,2.51   c-0.15,0.67-0.15,1.33-0.03,1.96c0.17,0.95,0.62,1.82,1.28,2.51c0.41,0.44,0.91,0.8,1.48,1.06l-3.25,14.74L430.38,99.19z    M441.63,45.17c-0.71-0.5-1.25-1.21-1.56-2c-0.32-0.8-0.41-1.69-0.21-2.6c0.13-0.6,0.38-1.14,0.72-1.62   c0.5-0.71,1.2-1.26,2.01-1.57c0.8-0.32,1.69-0.4,2.59-0.21c0.61,0.13,1.15,0.38,1.62,0.72c0.7,0.5,1.25,1.2,1.56,2   c0.31,0.81,0.41,1.69,0.21,2.6c-0.13,0.6-0.39,1.15-0.72,1.62c-0.5,0.71-1.21,1.25-2.01,1.57c-0.8,0.32-1.69,0.4-2.6,0.2   C442.65,45.75,442.11,45.5,441.63,45.17z M427.34,71.87c-0.2-0.49-0.25-1.05-0.13-1.61c0.08-0.37,0.24-0.71,0.44-1   c0.31-0.44,0.75-0.78,1.24-0.98c0.5-0.19,1.05-0.25,1.61-0.13c0.38,0.08,0.71,0.24,1.01,0.44c0.44,0.31,0.78,0.75,0.98,1.24   c0.19,0.5,0.25,1.05,0.12,1.61c-0.08,0.38-0.23,0.71-0.44,1.01c-0.31,0.44-0.75,0.78-1.24,0.98c-0.49,0.2-1.05,0.25-1.61,0.12   c-0.38-0.08-0.71-0.23-1.01-0.44C427.87,72.8,427.53,72.37,427.34,71.87z"/>
	<path class="st0" d="M367.22,25.46c1.41,0,2.55-1.14,2.55-2.55c0-1.41-1.14-2.55-2.55-2.55c-1.41,0-2.55,1.14-2.55,2.55   C364.67,24.31,365.81,25.46,367.22,25.46z"/>
	<path class="st0" d="M174.35,89.3c1.1,0.76,2.4,1.17,3.72,1.21c0.96,0.02,1.95-0.15,2.87-0.55l41.75,65.35l11.54,2.54l15.42,24.15   c1.03,0.23,2.08,0.48,3.13,0.73l-17.16-26.87l-11.54-2.55l-41.25-64.57c0.41-0.37,0.76-0.77,1.06-1.21c0.76-1.1,1.17-2.4,1.2-3.71   c0.04-1.32-0.31-2.68-1.08-3.87c-0.51-0.8-1.16-1.45-1.89-1.96c-1.11-0.76-2.4-1.17-3.72-1.21c-1.32-0.03-2.67,0.32-3.86,1.08   c-0.8,0.51-1.45,1.16-1.96,1.89c-0.76,1.11-1.17,2.4-1.21,3.72c-0.04,1.32,0.32,2.67,1.08,3.86   C172.96,88.14,173.61,88.8,174.35,89.3z M174,81.81c0.35-0.82,0.94-1.53,1.75-2.05c0.54-0.34,1.11-0.56,1.71-0.66   c0.88-0.16,1.8-0.04,2.61,0.31c0.82,0.36,1.53,0.94,2.05,1.75c0.34,0.54,0.56,1.12,0.66,1.71c0.15,0.89,0.04,1.8-0.31,2.61   c-0.36,0.82-0.94,1.53-1.75,2.05c-0.54,0.35-1.12,0.57-1.71,0.66c-0.89,0.15-1.8,0.03-2.62-0.32c-0.82-0.35-1.53-0.94-2.05-1.75   c-0.34-0.54-0.56-1.11-0.67-1.7C173.54,83.54,173.65,82.63,174,81.81z"/>
	<path class="st0" d="M412.25,48.15c0.7,0.61,1.55,1.08,2.48,1.35l-10.54,87.19c0.65,0.65,1.3,1.31,1.95,1.99l10.75-88.92   c0.53-0.02,1.04-0.11,1.54-0.24c1.25-0.36,2.35-1.07,3.18-2.04c0.84-0.96,1.41-2.18,1.58-3.54c0.11-0.91,0.03-1.8-0.21-2.63   c-0.36-1.25-1.07-2.36-2.04-3.19c-0.96-0.84-2.19-1.4-3.54-1.57c-0.91-0.11-1.8-0.03-2.63,0.21c-1.24,0.36-2.35,1.07-3.18,2.03   c-0.84,0.96-1.41,2.18-1.57,3.55c-0.12,0.9-0.03,1.8,0.21,2.63C410.57,46.21,411.28,47.32,412.25,48.15z M412.16,42.6   c0.07-0.62,0.27-1.18,0.56-1.68c0.43-0.75,1.08-1.36,1.84-1.76c0.76-0.39,1.65-0.57,2.57-0.45c0.61,0.07,1.18,0.27,1.68,0.55   c0.75,0.43,1.36,1.08,1.75,1.84c0.39,0.76,0.57,1.65,0.46,2.57c-0.07,0.61-0.27,1.18-0.56,1.68c-0.43,0.75-1.07,1.37-1.84,1.76   c-0.76,0.39-1.65,0.57-2.56,0.46c-0.62-0.07-1.18-0.27-1.69-0.56c-0.75-0.43-1.36-1.07-1.75-1.84   C412.23,44.4,412.05,43.52,412.16,42.6z"/>
	<path class="st0" d="M121.63,260.95l7.61-2.68l45.38,21.73c-0.31-0.96-0.62-1.91-0.92-2.85l-44.33-21.23l-10.51,3.7L72.1,237.23   c0.15-0.51,0.23-1.02,0.26-1.54c0.06-1.29-0.26-2.57-0.91-3.66c-0.64-1.1-1.62-2.04-2.86-2.62c-0.82-0.4-1.69-0.61-2.55-0.64   c-1.29-0.06-2.57,0.26-3.67,0.9c-1.1,0.65-2.03,1.62-2.62,2.86c-0.39,0.82-0.6,1.7-0.64,2.55c-0.06,1.3,0.26,2.57,0.91,3.67   c0.64,1.1,1.62,2.04,2.85,2.63c0.83,0.4,1.7,0.6,2.55,0.64c1.3,0.06,2.57-0.27,3.67-0.91c0.8-0.47,1.52-1.12,2.07-1.91l44.79,21.45   l-7.3,2.57l-12.81-6.13c0.07-0.28,0.11-0.58,0.12-0.87c0.04-0.96-0.2-1.91-0.67-2.73c-0.48-0.82-1.21-1.51-2.13-1.95   c-0.61-0.29-1.26-0.45-1.9-0.48c-0.96-0.04-1.91,0.2-2.73,0.67c-0.82,0.48-1.52,1.21-1.96,2.13c-0.29,0.61-0.45,1.26-0.48,1.91   c-0.05,0.96,0.19,1.91,0.68,2.73c0.48,0.82,1.21,1.52,2.12,1.96c0.62,0.3,1.27,0.45,1.91,0.48c0.96,0.05,1.91-0.19,2.73-0.67   c0.52-0.3,0.99-0.71,1.37-1.2l13.61,6.52l10.21-3.59l59.64,28.56c-0.38-0.98-0.75-1.97-1.11-2.94L121.63,260.95z M69.75,237.31   c-0.27,0.56-0.63,1.03-1.06,1.42c-0.65,0.57-1.46,0.94-2.31,1.07c-0.85,0.13-1.74,0.01-2.58-0.39c-0.56-0.27-1.03-0.63-1.41-1.07   c-0.57-0.65-0.95-1.45-1.07-2.31c-0.13-0.85-0.01-1.74,0.39-2.57c0.27-0.56,0.63-1.04,1.07-1.42c0.64-0.57,1.45-0.94,2.3-1.07   c0.86-0.12,1.74-0.01,2.58,0.39c0.56,0.27,1.03,0.64,1.41,1.07c0.58,0.65,0.95,1.46,1.07,2.31   C70.26,235.58,70.15,236.47,69.75,237.31z M93.52,257.18c-0.17,0.35-0.39,0.64-0.66,0.88c-0.4,0.36-0.9,0.59-1.43,0.66   c-0.53,0.08-1.08,0.01-1.6-0.24c-0.34-0.16-0.64-0.4-0.87-0.66c-0.36-0.4-0.59-0.91-0.67-1.43c-0.08-0.53-0.01-1.08,0.24-1.6   c0.17-0.35,0.4-0.64,0.66-0.88c0.4-0.36,0.91-0.59,1.43-0.67c0.53-0.08,1.08,0,1.6,0.25c0.35,0.17,0.64,0.39,0.88,0.66   c0.36,0.4,0.59,0.91,0.67,1.43C93.84,256.11,93.77,256.66,93.52,257.18z"/>
	<path class="st0" d="M118.45,415.53l4.28-0.61c-0.63-0.67-1.25-1.33-1.85-2l-3.67,0.52l-7.1,9.44l-75.86,10.74   c-0.17-0.52-0.38-1.01-0.66-1.47c-0.69-1.15-1.69-2.06-2.88-2.64c-1.19-0.58-2.57-0.83-3.97-0.63c-0.94,0.13-1.8,0.45-2.57,0.91   c-1.15,0.69-2.06,1.7-2.64,2.89c-0.58,1.19-0.82,2.56-0.62,3.96c0.13,0.94,0.45,1.81,0.91,2.57c0.69,1.15,1.69,2.06,2.89,2.64   c1.19,0.58,2.56,0.82,3.96,0.62c0.94-0.13,1.81-0.45,2.57-0.91c1.15-0.69,2.06-1.69,2.64-2.88c0.42-0.87,0.67-1.84,0.69-2.84   l76.79-10.87L118.45,415.53z M32.17,436.86c-0.23,0.87-0.72,1.65-1.37,2.25c-0.66,0.6-1.49,1-2.44,1.14   c-0.63,0.09-1.25,0.05-1.83-0.1c-0.87-0.23-1.65-0.72-2.25-1.37s-1-1.49-1.14-2.44c-0.09-0.63-0.05-1.25,0.11-1.83   c0.22-0.87,0.71-1.65,1.37-2.25c0.67-0.6,1.49-1,2.44-1.14c0.63-0.09,1.25-0.04,1.83,0.11c0.87,0.23,1.65,0.71,2.25,1.37   c0.6,0.67,1,1.49,1.14,2.44C32.36,435.67,32.32,436.28,32.17,436.86z"/>
	<path class="st0" d="M45.7,461.48c-1.32,0.32-2.14,1.65-1.82,2.98s1.65,2.13,2.98,1.81c1.32-0.32,2.14-1.65,1.82-2.97   C48.35,461.98,47.02,461.16,45.7,461.48z"/>
	<path class="st0" d="M101.17,451.74l-4.04,6.61l-13.8,3.33c-0.13-0.26-0.28-0.52-0.45-0.75c-0.58-0.77-1.36-1.36-2.25-1.69   c-0.89-0.33-1.89-0.41-2.89-0.17c-0.66,0.16-1.26,0.44-1.77,0.83c-0.77,0.58-1.36,1.36-1.69,2.25c-0.34,0.89-0.41,1.89-0.17,2.89   c0.16,0.66,0.45,1.26,0.83,1.78c0.57,0.78,1.35,1.36,2.25,1.69c0.89,0.34,1.89,0.41,2.88,0.18c0.67-0.16,1.26-0.45,1.78-0.83   c0.78-0.57,1.36-1.35,1.69-2.25c0.21-0.56,0.32-1.17,0.31-1.8l14.67-3.54l5.65-9.24l50.6-12.22c-0.94-0.52-1.86-1.04-2.77-1.57   l-46.22,11.17l4.21-6.89l35.11-8.48c-0.84-0.54-1.69-1.09-2.5-1.63l-33.99,8.21l-5.81,9.51l-50.39,12.17   c-0.21-0.49-0.46-0.94-0.77-1.35c-0.77-1.04-1.82-1.83-3.02-2.27c-1.2-0.45-2.55-0.56-3.88-0.23c-0.89,0.21-1.7,0.6-2.39,1.11   c-1.04,0.77-1.83,1.82-2.28,3.02c-0.44,1.19-0.55,2.54-0.23,3.88c0.21,0.88,0.6,1.69,1.11,2.39c0.77,1.04,1.82,1.83,3.02,2.27   c1.2,0.45,2.54,0.56,3.87,0.24c0.89-0.21,1.69-0.6,2.39-1.11c1.04-0.77,1.82-1.83,2.27-3.02c0.33-0.87,0.47-1.83,0.4-2.79   L101.17,451.74z M81.63,464.32c-0.08,0.53-0.33,1.02-0.69,1.41c-0.36,0.39-0.83,0.69-1.39,0.82c-0.37,0.09-0.74,0.1-1.09,0.04   c-0.53-0.09-1.03-0.33-1.42-0.69c-0.4-0.36-0.69-0.83-0.82-1.39c-0.09-0.38-0.1-0.74-0.04-1.1c0.09-0.53,0.33-1.03,0.69-1.42   c0.36-0.39,0.83-0.68,1.39-0.82c0.38-0.09,0.74-0.1,1.1-0.04c0.53,0.09,1.03,0.33,1.42,0.69c0.39,0.36,0.68,0.83,0.82,1.39   C81.68,463.6,81.69,463.96,81.63,464.32z M50.68,464.6c-0.14,0.86-0.54,1.65-1.11,2.28c-0.58,0.63-1.34,1.11-2.24,1.33   c-0.6,0.14-1.2,0.16-1.77,0.06c-0.86-0.14-1.65-0.53-2.29-1.11c-0.64-0.58-1.11-1.34-1.32-2.24c-0.15-0.61-0.16-1.2-0.07-1.78   c0.14-0.85,0.53-1.65,1.11-2.28c0.59-0.64,1.34-1.11,2.24-1.33c0.6-0.14,1.2-0.16,1.77-0.06c0.86,0.14,1.66,0.53,2.29,1.11   c0.63,0.58,1.11,1.34,1.32,2.25C50.75,463.43,50.77,464.03,50.68,464.6z"/>
	<path class="st0" d="M25.25,382.78c1.25-0.48,2.32-1.32,3.09-2.4c0.56-0.78,0.97-1.7,1.15-2.68l76.17,2.11   c-0.05-0.75-0.08-1.5-0.09-2.25l-76.01-2.11c-0.08-0.54-0.21-1.06-0.41-1.56c-0.48-1.25-1.32-2.32-2.4-3.08   c-1.07-0.77-2.39-1.24-3.81-1.28c-0.95-0.03-1.86,0.14-2.69,0.47c-1.25,0.49-2.32,1.33-3.09,2.4c-0.77,1.07-1.24,2.39-1.28,3.8   c-0.03,0.95,0.15,1.86,0.47,2.69c0.49,1.25,1.32,2.32,2.4,3.09c1.07,0.77,2.39,1.24,3.8,1.28   C23.51,383.27,24.42,383.11,25.25,382.78z M18.86,378.86c-0.48-0.75-0.74-1.64-0.71-2.6c0.02-0.64,0.16-1.24,0.41-1.78   c0.37-0.82,0.97-1.51,1.72-1.99c0.76-0.48,1.64-0.74,2.6-0.71c0.64,0.02,1.24,0.17,1.78,0.41c0.82,0.37,1.51,0.97,1.99,1.72   c0.48,0.76,0.74,1.64,0.71,2.6c-0.02,0.64-0.16,1.24-0.41,1.78c-0.37,0.82-0.98,1.51-1.73,1.99c-0.75,0.48-1.64,0.74-2.6,0.71   c-0.64-0.02-1.24-0.16-1.78-0.41C20.03,380.21,19.33,379.61,18.86,378.86z"/>
	<path class="st0" d="M27.34,433.15c-1.4,0.2-2.37,1.49-2.17,2.88c0.2,1.4,1.49,2.37,2.88,2.17c1.4-0.2,2.37-1.49,2.17-2.88   S28.74,432.95,27.34,433.15z"/>
	<path class="st0" d="M73.38,559c-1.22,0.7-1.64,2.26-0.94,3.48c0.7,1.22,2.26,1.64,3.48,0.94c1.22-0.7,1.64-2.26,0.94-3.48   C76.16,558.72,74.6,558.3,73.38,559z"/>
	<path class="st0" d="M163.44,132.64l31.06,36.78c1.76,0.63,3.41,1.48,4.95,2.49l-34.35-40.67c0.92-1.39,0.87-3.27-0.25-4.61   c-1.37-1.63-3.8-1.85-5.43-0.48s-1.85,3.8-0.48,5.43C160.07,132.92,161.91,133.3,163.44,132.64z"/>
	<path class="st0" d="M168.68,496.25l-19.2,11.03l-3.09,11.4l-66.43,38.18c-0.35-0.42-0.73-0.8-1.16-1.12   c-1.06-0.81-2.34-1.28-3.65-1.38c-1.32-0.1-2.69,0.19-3.92,0.89c-0.82,0.47-1.51,1.09-2.05,1.8c-0.81,1.07-1.28,2.35-1.38,3.66   c-0.09,1.32,0.19,2.68,0.9,3.91c0.47,0.82,1.09,1.51,1.8,2.05c1.07,0.81,2.34,1.28,3.66,1.38c1.32,0.1,2.68-0.19,3.91-0.9   c0.82-0.47,1.51-1.09,2.05-1.8c0.81-1.06,1.28-2.34,1.38-3.66c0.07-0.96-0.06-1.95-0.42-2.89l67.24-38.64l3.08-11.41l16.76-9.63   C168.32,498.18,168.5,497.22,168.68,496.25z M78.79,563.25c-0.39,0.8-1.01,1.49-1.85,1.97c-0.55,0.32-1.14,0.51-1.73,0.58   c-0.89,0.11-1.8-0.05-2.6-0.44s-1.49-1.01-1.97-1.85c-0.32-0.55-0.51-1.14-0.58-1.74c-0.11-0.89,0.04-1.8,0.43-2.59   c0.4-0.8,1.01-1.49,1.85-1.97c0.55-0.32,1.15-0.51,1.74-0.58c0.89-0.11,1.8,0.04,2.59,0.43c0.8,0.4,1.49,1.01,1.97,1.85   c0.32,0.56,0.51,1.14,0.58,1.73C79.34,561.54,79.18,562.45,78.79,563.25z"/>
	<path class="st0" d="M70.84,493.29l41.48-19.76l17.9,6.35L112,488.56c-0.29-0.43-0.65-0.82-1.03-1.16   c-0.97-0.86-2.16-1.41-3.43-1.6c-1.26-0.19-2.6-0.02-3.83,0.57c-0.83,0.39-1.54,0.93-2.11,1.58c-0.86,0.96-1.41,2.16-1.6,3.42   c-0.19,1.26-0.02,2.61,0.58,3.84c0.39,0.83,0.93,1.54,1.58,2.11c0.97,0.86,2.16,1.41,3.42,1.61c1.26,0.19,2.6,0.02,3.84-0.58   c0.82-0.39,1.53-0.94,2.11-1.58c0.86-0.97,1.41-2.16,1.6-3.43c0.14-0.92,0.09-1.88-0.19-2.82l20.2-9.62l10.59,3.76l32.35-15.41   c0.34-0.96,0.69-1.93,1.04-2.91l-33.51,15.97l-7.7-2.73l44.23-21.07c0.4-0.99,0.81-1.99,1.23-2.99L133,478.55l-20.8-7.38   l-42.29,20.15c-1.11-1.24-2.95-1.66-4.52-0.91c-1.92,0.92-2.74,3.22-1.82,5.14c0.92,1.92,3.22,2.73,5.14,1.82   C70.28,496.62,71.11,494.93,70.84,493.29z M110.4,494.63c-0.44,0.74-1.09,1.36-1.92,1.76c-0.56,0.27-1.14,0.41-1.72,0.43   c-0.86,0.04-1.72-0.18-2.46-0.61c-0.74-0.44-1.36-1.08-1.76-1.92c-0.27-0.56-0.4-1.14-0.43-1.72c-0.04-0.87,0.18-1.73,0.62-2.47   c0.44-0.74,1.09-1.36,1.93-1.76c0.56-0.27,1.14-0.41,1.72-0.43c0.87-0.04,1.72,0.18,2.47,0.62s1.36,1.08,1.76,1.92   c0.27,0.56,0.4,1.14,0.43,1.72C111.06,493.03,110.84,493.89,110.4,494.63z"/>
	<path class="st0" d="M105.5,490.13c-1.23,0.59-1.75,2.06-1.17,3.29c0.59,1.23,2.06,1.75,3.29,1.17c1.22-0.58,1.75-2.06,1.16-3.29   C108.2,490.07,106.73,489.55,105.5,490.13z"/>
	<path class="st0" d="M25.31,376.45c0.04-1.41-1.07-2.58-2.48-2.62c-1.41-0.04-2.58,1.07-2.62,2.48s1.07,2.58,2.48,2.62   S25.27,377.86,25.31,376.45z"/>
	<path class="st0" d="M118.95,152.25c0.67,0.63,1.43,1.09,2.24,1.39c1.22,0.45,2.53,0.53,3.78,0.25c0.91-0.2,1.79-0.6,2.56-1.19   l35.88,33.79c0.18-0.81,0.4-1.59,0.66-2.37l-35.05-33.01c0.29-0.44,0.53-0.9,0.71-1.39c0.45-1.21,0.53-2.52,0.25-3.77   c-0.28-1.25-0.93-2.44-1.93-3.37c-0.67-0.63-1.43-1.09-2.24-1.39c-1.21-0.45-2.52-0.53-3.77-0.26c-1.24,0.28-2.43,0.93-3.37,1.93   c-0.62,0.66-1.09,1.43-1.39,2.24c-0.45,1.22-0.53,2.52-0.25,3.77C117.3,150.13,117.95,151.32,118.95,152.25z M119.1,146.7   c0.14-0.85,0.52-1.66,1.15-2.33c0.43-0.45,0.92-0.79,1.45-1.03c0.79-0.35,1.67-0.46,2.52-0.32c0.85,0.14,1.66,0.52,2.34,1.15   c0.45,0.42,0.79,0.92,1.02,1.45c0.35,0.8,0.46,1.68,0.32,2.53c-0.14,0.85-0.52,1.66-1.16,2.34c-0.42,0.45-0.91,0.79-1.44,1.03   c-0.8,0.35-1.67,0.45-2.52,0.32c-0.85-0.14-1.66-0.52-2.34-1.15c-0.45-0.42-0.78-0.92-1.02-1.45   C119.07,148.43,118.95,147.55,119.1,146.7z"/>
	<path class="st0" d="M82.01,180.53c1.15,0.82,2.74,0.56,3.56-0.59c0.82-1.15,0.56-2.74-0.59-3.56c-1.15-0.82-2.74-0.56-3.56,0.59   S80.87,179.71,82.01,180.53z"/>
	<path class="st0" d="M125.29,149.12c0.93-0.99,0.89-2.55-0.1-3.49c-0.99-0.93-2.55-0.89-3.49,0.1c-0.93,0.99-0.88,2.55,0.11,3.48   C122.8,150.15,124.36,150.11,125.29,149.12z"/>
	<path class="st0" d="M136.37,137.1c0.62,0.67,1.36,1.18,2.15,1.52c1.18,0.52,2.49,0.68,3.74,0.48c0.92-0.15,1.82-0.5,2.62-1.04   l30.72,32.61c0.68-0.35,1.37-0.67,2.09-0.96l-31.23-33.14c0.32-0.42,0.59-0.87,0.8-1.34c0.52-1.19,0.68-2.49,0.47-3.75   c-0.2-1.26-0.77-2.48-1.71-3.48c-0.63-0.67-1.36-1.17-2.15-1.52c-1.19-0.52-2.5-0.68-3.75-0.48c-1.26,0.2-2.48,0.78-3.47,1.72   c-0.67,0.63-1.18,1.36-1.53,2.16c-0.52,1.18-0.68,2.49-0.48,3.74C134.85,134.88,135.42,136.1,136.37,137.1z M136.84,131.57   c0.19-0.84,0.62-1.63,1.29-2.26c0.45-0.42,0.96-0.73,1.5-0.94c0.81-0.3,1.7-0.35,2.54-0.16c0.84,0.19,1.63,0.61,2.27,1.29   c0.42,0.45,0.73,0.96,0.93,1.5c0.3,0.81,0.36,1.7,0.17,2.54c-0.19,0.84-0.62,1.63-1.29,2.26c-0.45,0.43-0.97,0.73-1.51,0.94   c-0.81,0.3-1.69,0.36-2.53,0.17c-0.84-0.19-1.63-0.61-2.27-1.29c-0.43-0.45-0.73-0.97-0.93-1.5   C136.71,133.29,136.66,132.41,136.84,131.57z"/>
	<path class="st0" d="M30.19,304.16c1.37,0.34,2.75-0.5,3.09-1.87c0.34-1.37-0.5-2.75-1.87-3.09c-1.37-0.34-2.75,0.5-3.09,1.87   C27.98,302.45,28.82,303.83,30.19,304.16z"/>
	<path class="st0" d="M79.5,184.03c0.77,0.55,1.62,0.92,2.49,1.12c1.31,0.3,2.66,0.2,3.9-0.26c0.9-0.34,1.75-0.87,2.46-1.58   l63.06,45.14l11.66-1.93l3.65,2.61c0.06-0.87,0.14-1.74,0.23-2.59l-3.34-2.39l-11.66,1.92l-62.3-44.6c0.24-0.49,0.42-1,0.54-1.52   c0.3-1.31,0.2-2.66-0.26-3.9c-0.46-1.24-1.29-2.37-2.44-3.19c-0.77-0.55-1.62-0.92-2.49-1.12c-1.31-0.29-2.67-0.19-3.91,0.26   c-1.24,0.46-2.36,1.29-3.18,2.44c-0.55,0.77-0.92,1.62-1.12,2.49c-0.29,1.31-0.2,2.66,0.26,3.91   C77.52,182.09,78.35,183.21,79.5,184.03z M79.75,175.76c0.37-0.52,0.82-0.94,1.34-1.25c0.76-0.47,1.65-0.71,2.54-0.68   c0.89,0.03,1.77,0.3,2.55,0.86c0.52,0.37,0.94,0.83,1.25,1.34c0.47,0.77,0.71,1.65,0.68,2.54c-0.03,0.89-0.3,1.77-0.86,2.55   c-0.38,0.52-0.83,0.94-1.34,1.25c-0.77,0.47-1.66,0.7-2.55,0.68c-0.89-0.02-1.77-0.3-2.55-0.86c-0.52-0.37-0.94-0.83-1.25-1.34   c-0.47-0.77-0.7-1.66-0.68-2.55C78.91,177.43,79.19,176.55,79.75,175.76z"/>
	<path class="st0" d="M25.72,306.3c0.89,0.98,2.07,1.71,3.45,2.05c0.92,0.23,1.84,0.26,2.72,0.11c1.32-0.21,2.54-0.81,3.53-1.69   c0.71-0.65,1.3-1.46,1.69-2.38l75.32,18.46l10.11-6.13l20.57,5.04c0.85-0.56,1.71-1.12,2.58-1.68l-23.53-5.77l-10.1,6.12   l-74.42-18.24c0.04-0.55,0.02-1.08-0.07-1.61c-0.21-1.32-0.81-2.54-1.69-3.52c-0.89-0.98-2.08-1.72-3.45-2.06   c-0.92-0.23-1.84-0.25-2.72-0.11c-1.32,0.22-2.55,0.81-3.53,1.7c-0.98,0.89-1.71,2.07-2.05,3.45c-0.23,0.92-0.25,1.84-0.11,2.72   C24.24,304.1,24.83,305.32,25.72,306.3z M26.32,300.59c0.15-0.62,0.42-1.18,0.78-1.66c0.53-0.72,1.27-1.27,2.1-1.58   c0.84-0.31,1.76-0.38,2.69-0.15c0.62,0.15,1.18,0.43,1.66,0.78c0.72,0.54,1.27,1.27,1.58,2.1c0.31,0.84,0.38,1.76,0.15,2.69   c-0.15,0.63-0.42,1.18-0.77,1.66c-0.54,0.72-1.28,1.27-2.11,1.58c-0.83,0.31-1.76,0.38-2.69,0.15c-0.62-0.15-1.18-0.42-1.66-0.77   c-0.72-0.54-1.27-1.28-1.58-2.11S26.09,301.52,26.32,300.59z"/>
	<path class="st0" d="M125.41,593.52L174.52,551c-0.38-0.63-0.75-1.27-1.1-1.92l-49.43,42.8c-0.4-0.34-0.84-0.62-1.3-0.85   c-1.17-0.57-2.46-0.78-3.73-0.63c-1.27,0.15-2.51,0.67-3.55,1.57c-0.69,0.6-1.23,1.31-1.61,2.08c-0.57,1.17-0.79,2.47-0.63,3.73   c0.15,1.27,0.67,2.51,1.57,3.54c0.6,0.69,1.31,1.23,2.09,1.62c1.16,0.57,2.46,0.79,3.72,0.63c1.27-0.15,2.51-0.67,3.55-1.58   c0.69-0.59,1.23-1.31,1.61-2.08c0.57-1.16,0.79-2.46,0.63-3.72C126.23,595.26,125.92,594.35,125.41,593.52z M124.06,598.14   c-0.23,0.83-0.68,1.6-1.38,2.21c-0.47,0.41-1,0.69-1.54,0.87c-0.83,0.27-1.72,0.28-2.55,0.06c-0.83-0.22-1.6-0.69-2.21-1.39   c-0.4-0.47-0.69-0.99-0.87-1.54c-0.27-0.83-0.28-1.71-0.06-2.54c0.22-0.83,0.68-1.6,1.38-2.21c0.47-0.4,0.99-0.69,1.54-0.87   c0.83-0.27,1.71-0.29,2.55-0.06c0.83,0.22,1.6,0.69,2.2,1.38c0.41,0.47,0.69,1,0.87,1.55   C124.26,596.43,124.28,597.31,124.06,598.14z"/>
	<path class="st0" d="M64.66,237.6c1.23,0.59,2.7,0.08,3.29-1.15c0.59-1.23,0.07-2.7-1.16-3.29c-1.23-0.59-2.7-0.07-3.29,1.16   C62.91,235.55,63.43,237.01,64.66,237.6z"/>
</g>

</svg>