<svg xmlns="http://www.w3.org/2000/svg" xmlns:xlink="http://www.w3.org/1999/xlink" version="1.1" id="Layer_1" x="0px" y="0px" viewBox="0 0 746.66 754.56" style="enable-background:new 0 0 746.66 754.56;" xml:space="preserve">
<style type="text/css">
	.st0{fill:#AE8C45;}
</style>
<g>
	<path class="st0" d="M406.51,46.72c0.7,0.61,1.55,1.08,2.48,1.35l-15.44,127.69c0.7,0.26,1.4,0.52,2.1,0.78l15.51-128.21   c0.53-0.02,1.04-0.11,1.54-0.24c1.25-0.36,2.35-1.07,3.18-2.04c0.84-0.96,1.41-2.18,1.58-3.54c0.11-0.91,0.03-1.8-0.21-2.63   c-0.36-1.25-1.07-2.36-2.04-3.19c-0.96-0.84-2.19-1.4-3.54-1.57c-0.91-0.11-1.8-0.03-2.63,0.21c-1.24,0.36-2.35,1.07-3.18,2.03   c-0.84,0.96-1.41,2.18-1.57,3.55c-0.12,0.9-0.03,1.8,0.21,2.63C404.84,44.79,405.55,45.89,406.51,46.72z M406.43,41.18   c0.07-0.62,0.27-1.18,0.56-1.68c0.43-0.75,1.08-1.36,1.84-1.76c0.76-0.39,1.65-0.57,2.57-0.45c0.61,0.07,1.18,0.27,1.68,0.55   c0.75,0.43,1.36,1.08,1.75,1.84c0.39,0.76,0.57,1.65,0.46,2.57c-0.07,0.61-0.27,1.18-0.56,1.68c-0.43,0.75-1.07,1.37-1.84,1.76   c-0.76,0.39-1.65,0.57-2.56,0.46c-0.62-0.07-1.18-0.27-1.69-0.56c-0.75-0.43-1.36-1.07-1.75-1.84   C406.5,42.97,406.32,42.1,406.43,41.18z"/>
	<path class="st0" d="M440.89,40.63c0.29-1.33-0.55-2.65-1.88-2.94c-1.33-0.29-2.64,0.55-2.93,1.88c-0.29,1.33,0.54,2.65,1.87,2.94   S440.6,41.96,440.89,40.63z"/>
	<path class="st0" d="M501.64,85.34c0.31,0.14,0.63,0.21,0.95,0.22c0.96,0.02,1.89-0.52,2.31-1.45c0.35-0.77,0.26-1.63-0.15-2.31   c-0.25-0.4-0.62-0.74-1.08-0.95c-0.16-0.07-0.31-0.12-0.47-0.16c-0.16-0.04-0.32-0.06-0.48-0.06s-0.32,0.01-0.48,0.03   c-0.16,0.03-0.31,0.07-0.46,0.12c-0.59,0.22-1.1,0.67-1.38,1.29C499.85,83.32,500.4,84.78,501.64,85.34z"/>
	<path class="st0" d="M489.6,198.45l47.1-70.93c0.27,0.1,0.56,0.19,0.84,0.24c0.95,0.18,1.92,0.07,2.8-0.29   c0.88-0.36,1.66-0.99,2.23-1.83c0.38-0.57,0.63-1.19,0.74-1.82c0.18-0.95,0.07-1.92-0.29-2.8c-0.36-0.88-0.99-1.66-1.84-2.23   c-0.56-0.37-1.18-0.62-1.81-0.74c-0.95-0.18-1.92-0.07-2.8,0.29c-0.88,0.36-1.67,0.98-2.23,1.84c-0.38,0.56-0.62,1.18-0.74,1.81   c-0.18,0.95-0.07,1.92,0.29,2.8c0.22,0.56,0.56,1.07,0.99,1.53l-47.73,71.88C487.97,198.28,488.78,198.36,489.6,198.45z    M536.15,121.37c0.21-0.32,0.48-0.58,0.78-0.78c0.45-0.3,0.98-0.46,1.51-0.46c0.54,0,1.07,0.15,1.55,0.47   c0.32,0.21,0.58,0.47,0.78,0.78c0.3,0.44,0.46,0.97,0.46,1.51c0,0.53-0.15,1.07-0.47,1.55c-0.21,0.32-0.47,0.58-0.77,0.77   c-0.44,0.3-0.97,0.46-1.51,0.46c-0.53,0-1.07-0.14-1.55-0.46c-0.32-0.21-0.58-0.48-0.77-0.77c-0.3-0.45-0.46-0.98-0.46-1.51   C535.69,122.38,535.83,121.85,536.15,121.37z"/>
	<path class="st0" d="M453.43,87.66c0.38,0.47,0.85,0.86,1.4,1.17l-29.01,97.36c0.7,0.19,1.4,0.38,2.1,0.57l29-97.31   c0.29,0.02,0.59,0.01,0.88-0.02c0.96-0.1,1.86-0.49,2.6-1.09c0.73-0.6,1.3-1.43,1.59-2.4c0.2-0.66,0.25-1.32,0.18-1.95   c-0.1-0.96-0.49-1.86-1.09-2.6c-0.6-0.73-1.43-1.3-2.41-1.6c-0.65-0.19-1.31-0.25-1.95-0.18c-0.96,0.1-1.86,0.49-2.6,1.09   c-0.73,0.6-1.31,1.43-1.59,2.41c-0.2,0.65-0.25,1.31-0.18,1.95C452.44,86.02,452.83,86.92,453.43,87.66z M454.59,83.73   c0.11-0.37,0.29-0.69,0.52-0.97c0.34-0.41,0.8-0.72,1.31-0.88c0.51-0.16,1.06-0.17,1.61-0.01c0.37,0.11,0.69,0.28,0.97,0.52   c0.42,0.34,0.72,0.8,0.88,1.31c0.16,0.51,0.17,1.06,0.01,1.61c-0.11,0.36-0.28,0.69-0.51,0.96c-0.34,0.42-0.8,0.72-1.31,0.88   c-0.51,0.16-1.06,0.18-1.62,0.01c-0.36-0.11-0.69-0.29-0.96-0.51c-0.41-0.34-0.72-0.8-0.88-1.31   C454.44,84.83,454.42,84.28,454.59,83.73z"/>
	<path class="st0" d="M392.24,79.72l-7.45,92.69c0.7,0.28,1.41,0.55,2.12,0.83l7.5-93.34c1.63-0.34,2.92-1.71,3.06-3.45   c0.18-2.12-1.4-3.98-3.52-4.16c-2.12-0.18-3.98,1.4-4.16,3.52C389.65,77.55,390.69,79.12,392.24,79.72z"/>
	<path class="st0" d="M626.92,384.3l-51.1-0.61c-0.3,0.72-0.6,1.44-0.89,2.17l54.14,0.65l15.42,15.79l46.84,0.56   c0.45,1.6,1.91,2.79,3.66,2.81c2.13,0.03,3.88-1.68,3.9-3.81c0.03-2.13-1.68-3.87-3.81-3.9c-1.75-0.02-3.24,1.13-3.73,2.72   l-45.95-0.55l-13.27-13.59l20.19,0.24c0.08,0.52,0.22,1.03,0.41,1.5c0.49,1.2,1.32,2.22,2.37,2.95c1.05,0.72,2.32,1.16,3.69,1.18   c0.91,0.01,1.79-0.16,2.59-0.49c1.19-0.49,2.22-1.32,2.94-2.36c0.73-1.05,1.17-2.33,1.18-3.7c0.02-0.91-0.16-1.79-0.49-2.59   c-0.49-1.2-1.32-2.22-2.36-2.95c-1.05-0.72-2.32-1.16-3.7-1.18c-0.91-0.01-1.78,0.17-2.59,0.49c-1.2,0.49-2.22,1.32-2.94,2.37   c-0.53,0.77-0.91,1.65-1.07,2.61l-22.37-0.27l-7.85-8.04l-42.94-0.51c-0.32,0.72-0.63,1.44-0.94,2.16l42.95,0.51L626.92,384.3z    M654.8,383.98c0.35-0.8,0.92-1.47,1.64-1.95c0.72-0.47,1.57-0.74,2.5-0.73c0.62,0.01,1.2,0.14,1.74,0.37   c0.79,0.34,1.47,0.92,1.94,1.64c0.47,0.72,0.75,1.57,0.74,2.5c-0.01,0.62-0.14,1.2-0.37,1.73c-0.35,0.8-0.93,1.47-1.64,1.95   c-0.72,0.47-1.57,0.74-2.5,0.73c-0.62-0.01-1.2-0.14-1.73-0.37c-0.8-0.35-1.47-0.93-1.94-1.64c-0.47-0.72-0.75-1.57-0.74-2.5   C654.43,385.1,654.57,384.52,654.8,383.98z"/>
	<path class="st0" d="M511.37,103.58l-7.58,13.05l2.77,10.47l-39.62,68.23c0.77,0.13,1.53,0.25,2.3,0.37l38.11-65.63l2.07,7.8   l-34.12,58.76c0.77,0.11,1.55,0.22,2.32,0.33l34.13-58.78l-2.86-10.77l26.03-44.83c0.5,0.19,1,0.31,1.51,0.38   c1.28,0.16,2.58-0.05,3.73-0.61c1.15-0.55,2.16-1.46,2.84-2.64c0.46-0.79,0.74-1.64,0.85-2.49c0.17-1.28-0.05-2.58-0.61-3.73   c-0.56-1.15-1.45-2.15-2.64-2.84c-0.79-0.46-1.64-0.73-2.5-0.85c-1.29-0.16-2.58,0.05-3.73,0.62c-1.15,0.55-2.16,1.45-2.85,2.63   c-0.46,0.79-0.73,1.64-0.85,2.5c-0.16,1.29,0.06,2.58,0.61,3.73c0.41,0.84,1,1.61,1.74,2.22l-24.94,42.95l-1.99-7.49l7.13-12.28   c0.28,0.09,0.57,0.16,0.85,0.19c0.96,0.12,1.92-0.04,2.78-0.45c0.85-0.41,1.6-1.08,2.12-1.97c0.34-0.59,0.55-1.22,0.63-1.85   c0.12-0.96-0.04-1.92-0.45-2.78c-0.41-0.86-1.08-1.61-1.97-2.12c-0.59-0.34-1.22-0.54-1.86-0.63c-0.96-0.12-1.92,0.04-2.77,0.46   c-0.86,0.41-1.61,1.08-2.12,1.96c-0.34,0.59-0.55,1.23-0.63,1.86c-0.12,0.95,0.04,1.92,0.45,2.78   C510.54,102.65,510.91,103.15,511.37,103.58z M532.82,76.67c-0.06-0.86,0.12-1.74,0.59-2.54c0.31-0.53,0.71-0.97,1.18-1.32   c0.69-0.52,1.52-0.83,2.39-0.89c0.86-0.06,1.74,0.13,2.53,0.59c0.54,0.31,0.98,0.71,1.33,1.18c0.52,0.69,0.83,1.52,0.88,2.38   c0.06,0.86-0.12,1.74-0.59,2.54c-0.31,0.53-0.72,0.98-1.18,1.32c-0.69,0.52-1.53,0.83-2.39,0.89c-0.86,0.06-1.74-0.13-2.54-0.6   c-0.53-0.31-0.98-0.71-1.33-1.17C533.18,78.36,532.88,77.53,532.82,76.67z M512.33,98.56c0.19-0.33,0.44-0.6,0.73-0.82   c0.43-0.32,0.95-0.51,1.48-0.55c0.54-0.03,1.08,0.08,1.57,0.37c0.33,0.19,0.6,0.44,0.82,0.73c0.32,0.43,0.51,0.95,0.55,1.48   c0.03,0.54-0.08,1.07-0.37,1.57c-0.19,0.33-0.44,0.61-0.73,0.82c-0.43,0.32-0.95,0.51-1.48,0.55c-0.53,0.04-1.07-0.08-1.57-0.37   c-0.33-0.19-0.61-0.44-0.82-0.73c-0.33-0.42-0.51-0.94-0.55-1.48C511.93,99.61,512.04,99.06,512.33,98.56z"/>
	<path class="st0" d="M536.03,78.5c1.18,0.68,2.69,0.28,3.37-0.89c0.68-1.18,0.28-2.69-0.89-3.37c-1.18-0.68-2.68-0.28-3.37,0.9   C534.46,76.31,534.85,77.82,536.03,78.5z"/>
	<path class="st0" d="M492.77,45.69c1.31,0.52,2.79-0.11,3.32-1.42c0.52-1.31-0.11-2.79-1.42-3.32c-1.31-0.52-2.79,0.11-3.32,1.42   C490.83,43.68,491.46,45.17,492.77,45.69z"/>
	<path class="st0" d="M424.64,97.76l-18.22,82.52c0.69,0.23,1.38,0.46,2.08,0.69l17.8-80.61l4.34,6.8l-16.68,75.54   c0.7,0.22,1.39,0.44,2.08,0.65l16.91-76.61l-6-9.4l11.17-50.62c0.53,0.03,1.05,0,1.56-0.1c1.27-0.23,2.44-0.84,3.36-1.71   c0.93-0.88,1.62-2.04,1.91-3.38c0.2-0.89,0.21-1.79,0.05-2.63c-0.23-1.27-0.84-2.44-1.71-3.37c-0.88-0.92-2.04-1.61-3.38-1.91   c-0.89-0.2-1.79-0.2-2.63-0.05c-1.27,0.24-2.44,0.84-3.36,1.72c-0.93,0.88-1.62,2.04-1.91,3.37c-0.2,0.89-0.2,1.79-0.05,2.63   c0.24,1.27,0.84,2.44,1.72,3.37c0.64,0.68,1.44,1.23,2.34,1.58l-10.71,48.5l-4.17-6.53l3.06-13.86c0.29,0,0.59-0.02,0.87-0.08   c0.95-0.18,1.82-0.63,2.51-1.28c0.69-0.65,1.2-1.52,1.42-2.52c0.15-0.66,0.15-1.33,0.04-1.96c-0.18-0.95-0.63-1.82-1.28-2.51   c-0.65-0.69-1.52-1.2-2.52-1.42c-0.66-0.15-1.33-0.15-1.96-0.03c-0.95,0.17-1.82,0.62-2.5,1.28c-0.69,0.65-1.2,1.52-1.42,2.51   c-0.15,0.67-0.15,1.33-0.03,1.96c0.17,0.95,0.62,1.82,1.28,2.51c0.41,0.44,0.91,0.8,1.48,1.06l-3.25,14.74L424.64,97.76z    M435.9,43.75c-0.71-0.5-1.25-1.21-1.56-2c-0.32-0.8-0.41-1.69-0.21-2.6c0.13-0.6,0.38-1.14,0.72-1.62c0.5-0.71,1.2-1.26,2.01-1.57   c0.8-0.32,1.69-0.4,2.59-0.2c0.61,0.13,1.15,0.38,1.62,0.72c0.7,0.5,1.25,1.2,1.56,2c0.32,0.81,0.41,1.69,0.21,2.6   c-0.13,0.6-0.39,1.15-0.72,1.62c-0.5,0.71-1.21,1.25-2.01,1.57c-0.8,0.32-1.69,0.4-2.6,0.2C436.92,44.32,436.37,44.08,435.9,43.75z    M421.6,70.44c-0.2-0.49-0.25-1.05-0.13-1.61c0.08-0.37,0.24-0.71,0.44-1c0.31-0.44,0.75-0.78,1.24-0.98   c0.5-0.19,1.05-0.25,1.61-0.13c0.38,0.08,0.71,0.24,1.01,0.44c0.44,0.31,0.78,0.75,0.98,1.24c0.19,0.5,0.25,1.05,0.12,1.61   c-0.08,0.38-0.23,0.71-0.44,1.01c-0.31,0.44-0.75,0.78-1.24,0.98c-0.49,0.2-1.05,0.25-1.61,0.12c-0.38-0.08-0.71-0.23-1.01-0.44   C422.13,71.38,421.8,70.94,421.6,70.44z"/>
	<path class="st0" d="M646.29,513.79c0.44,0.84,1.13,1.57,2.02,2.06c0.59,0.32,1.23,0.52,1.87,0.58c0.96,0.09,1.92-0.09,2.77-0.53   c0.85-0.43,1.58-1.12,2.07-2.02c0.32-0.59,0.51-1.23,0.58-1.88c0.1-0.96-0.09-1.92-0.53-2.76c-0.43-0.85-1.12-1.58-2.02-2.07   c-0.6-0.33-1.24-0.51-1.88-0.58c-0.96-0.1-1.92,0.09-2.77,0.53c-0.53,0.27-1.02,0.65-1.43,1.13l-13.25-7.23l-10.39,3.05   l-71.65-39.11c-0.14,0.75-0.27,1.51-0.4,2.26l69.1,37.72l-7.74,2.28l-62.38-34.05c-0.12,0.76-0.25,1.52-0.37,2.28l62.5,34.11   l10.69-3.14l45.5,24.84c-0.17,0.5-0.29,1.01-0.34,1.52c-0.13,1.28,0.12,2.58,0.71,3.71c0.58,1.14,1.51,2.12,2.72,2.77   c0.8,0.44,1.66,0.7,2.52,0.78c1.29,0.13,2.58-0.12,3.71-0.71c1.13-0.59,2.11-1.51,2.77-2.72c0.44-0.8,0.69-1.66,0.78-2.52   c0.13-1.29-0.12-2.58-0.72-3.71c-0.58-1.14-1.51-2.12-2.71-2.78c-0.8-0.44-1.66-0.69-2.52-0.78c-1.29-0.13-2.58,0.13-3.72,0.71   c-0.83,0.43-1.58,1.04-2.17,1.8l-43.59-23.79l7.43-2.18l12.46,6.8c-0.08,0.28-0.14,0.57-0.17,0.86   C645.67,511.98,645.86,512.94,646.29,513.79z M648.26,510.19c0.19-0.34,0.42-0.62,0.71-0.84c0.42-0.34,0.93-0.54,1.46-0.58   c0.53-0.05,1.08,0.05,1.58,0.32c0.33,0.18,0.62,0.43,0.84,0.7c0.33,0.42,0.54,0.94,0.59,1.46c0.05,0.54-0.05,1.08-0.32,1.58   c-0.19,0.34-0.43,0.62-0.71,0.84c-0.42,0.33-0.94,0.54-1.46,0.59c-0.54,0.05-1.07-0.05-1.58-0.33c-0.34-0.19-0.62-0.42-0.84-0.71   c-0.33-0.42-0.54-0.94-0.59-1.46C647.88,511.24,647.98,510.69,648.26,510.19z M670.94,531.29c0.3-0.54,0.68-0.99,1.13-1.36   c0.68-0.54,1.51-0.86,2.36-0.94c0.86-0.08,1.74,0.08,2.56,0.52c0.54,0.3,0.99,0.69,1.35,1.14c0.54,0.68,0.87,1.5,0.95,2.36   c0.08,0.86-0.08,1.74-0.53,2.55c-0.3,0.55-0.68,1-1.14,1.36c-0.67,0.54-1.5,0.87-2.35,0.95c-0.86,0.08-1.74-0.08-2.56-0.52   c-0.54-0.3-1-0.69-1.35-1.14c-0.54-0.68-0.87-1.51-0.95-2.36C670.33,532.99,670.5,532.1,670.94,531.29z"/>
	<path class="st0" d="M490.15,49.19l-28.84,71.99l4.65,10.87l-23.4,58.41c0.74,0.17,1.47,0.35,2.21,0.52l23.61-58.96l-4.64-10.86   l28.49-71.12c0.54,0.12,1.07,0.17,1.61,0.16c1.34-0.02,2.63-0.44,3.72-1.18c1.1-0.74,2-1.81,2.52-3.13   c0.35-0.88,0.51-1.79,0.49-2.68c-0.03-1.34-0.45-2.63-1.19-3.73c-0.74-1.09-1.81-1.99-3.12-2.51c-0.88-0.35-1.79-0.51-2.68-0.49   c-1.34,0.03-2.63,0.44-3.73,1.19c-1.1,0.74-1.99,1.81-2.51,3.12c-0.35,0.88-0.51,1.79-0.49,2.68c0.02,1.34,0.44,2.63,1.18,3.73   C488.58,47.98,489.29,48.67,490.15,49.19z M489.44,41.61c0.24-0.59,0.58-1.11,1-1.53c0.63-0.64,1.44-1.08,2.31-1.26   s1.8-0.13,2.69,0.23c0.59,0.24,1.11,0.58,1.53,1.01c0.64,0.63,1.08,1.44,1.27,2.3c0.19,0.88,0.13,1.8-0.23,2.69   c-0.24,0.59-0.59,1.11-1.01,1.53c-0.63,0.64-1.44,1.08-2.3,1.27c-0.88,0.19-1.8,0.13-2.69-0.23c-0.6-0.24-1.11-0.58-1.53-1   c-0.64-0.63-1.08-1.44-1.26-2.31C489.02,43.43,489.08,42.5,489.44,41.61z"/>
	<path class="st0" d="M658.85,388.23c1.36,0.02,2.48-1.08,2.5-2.44c0.02-1.36-1.07-2.48-2.44-2.5c-1.36-0.02-2.47,1.08-2.49,2.44   C656.41,387.1,657.5,388.22,658.85,388.23z"/>
	<path class="st0" d="M605.71,325.71l95.9-21.28c0.19,0.49,0.45,0.95,0.74,1.37c0.75,1.05,1.79,1.86,2.98,2.32   c1.19,0.47,2.53,0.61,3.87,0.31c0.89-0.2,1.71-0.57,2.41-1.07c1.05-0.75,1.87-1.79,2.33-2.98c0.47-1.19,0.6-2.53,0.3-3.86   c-0.2-0.89-0.57-1.71-1.07-2.41c-0.75-1.05-1.79-1.86-2.97-2.33c-1.19-0.47-2.53-0.61-3.87-0.3c-0.89,0.19-1.71,0.57-2.41,1.07   c-1.06,0.75-1.86,1.79-2.33,2.97c-0.34,0.87-0.51,1.82-0.45,2.79l-93.78,20.81C606.81,323.98,606.25,324.84,605.71,325.71z    M703.37,301.15c0.16-0.85,0.56-1.64,1.15-2.26c0.6-0.63,1.36-1.09,2.27-1.29c0.61-0.13,1.21-0.14,1.77-0.03   c0.85,0.16,1.65,0.57,2.27,1.16s1.08,1.36,1.28,2.27c0.13,0.6,0.14,1.2,0.04,1.77c-0.16,0.85-0.57,1.64-1.16,2.26   c-0.59,0.62-1.36,1.09-2.27,1.29c-0.6,0.13-1.2,0.13-1.77,0.03c-0.85-0.16-1.64-0.56-2.27-1.16c-0.62-0.59-1.08-1.36-1.28-2.26   C703.26,302.32,703.26,301.72,703.37,301.15z"/>
	<path class="st0" d="M673.68,535.59c1.2,0.65,2.69,0.21,3.35-0.98c0.65-1.2,0.21-2.69-0.99-3.34c-1.2-0.65-2.69-0.22-3.34,0.98   C672.04,533.44,672.48,534.94,673.68,535.59z"/>
	<path class="st0" d="M496.61,80.36c-0.38,0.83-0.57,1.71-0.59,2.57c-0.03,1.29,0.31,2.56,0.98,3.64c0.49,0.79,1.15,1.5,1.96,2.03   l-47.01,103.92c0.73,0.15,1.46,0.29,2.19,0.44l46.8-103.46c0.51,0.14,1.03,0.21,1.54,0.23c1.3,0.03,2.56-0.32,3.65-0.99   c1.08-0.67,2-1.66,2.56-2.92c0.37-0.83,0.56-1.7,0.59-2.57c0.03-1.3-0.31-2.56-0.99-3.65c-0.67-1.09-1.66-2-2.91-2.57   c-0.83-0.38-1.71-0.56-2.57-0.59c-1.3-0.03-2.56,0.32-3.65,0.99C498.09,78.11,497.18,79.11,496.61,80.36z M501.91,78.7   c0.85-0.15,1.74-0.05,2.59,0.33c0.56,0.25,1.04,0.61,1.44,1.04c0.59,0.64,0.98,1.43,1.12,2.29c0.15,0.85,0.05,1.74-0.33,2.58   c-0.26,0.57-0.61,1.05-1.04,1.44c-0.63,0.59-1.43,0.97-2.28,1.12c-0.85,0.14-1.74,0.05-2.59-0.33c-0.56-0.25-1.05-0.61-1.44-1.04   c-0.59-0.64-0.98-1.43-1.12-2.29c-0.15-0.85-0.05-1.74,0.34-2.59c0.25-0.56,0.61-1.04,1.03-1.44   C500.26,79.23,501.06,78.84,501.91,78.7z"/>
	<path class="st0" d="M605.96,619.31c0.21,1.26,0.8,2.48,1.75,3.47c0.63,0.66,1.37,1.17,2.16,1.51c1.19,0.52,2.49,0.67,3.75,0.46   c1.26-0.22,2.47-0.8,3.47-1.75c0.66-0.63,1.16-1.37,1.51-2.16c0.51-1.19,0.67-2.49,0.45-3.75c-0.21-1.26-0.79-2.48-1.74-3.47   c-0.63-0.66-1.37-1.16-2.16-1.51c-1.19-0.51-2.5-0.66-3.76-0.45c-0.92,0.16-1.82,0.51-2.62,1.06l-34.3-35.92l7.74,0.18l9.81,10.27   c-0.16,0.24-0.31,0.5-0.42,0.77c-0.38,0.89-0.49,1.86-0.34,2.8c0.16,0.93,0.6,1.84,1.3,2.58c0.47,0.49,1.02,0.87,1.6,1.12   c0.89,0.38,1.86,0.49,2.8,0.34c0.94-0.16,1.84-0.59,2.58-1.3c0.49-0.47,0.86-1.02,1.12-1.61c0.38-0.88,0.5-1.85,0.33-2.79   c-0.16-0.94-0.59-1.84-1.29-2.58c-0.47-0.5-1.02-0.87-1.61-1.12c-0.88-0.38-1.85-0.5-2.8-0.34c-0.59,0.1-1.17,0.31-1.71,0.64   l-10.42-10.92l-10.82-0.25l-27.24-28.52c0.02,1.08,0.05,2.16,0.08,3.24l24.08,25.21l-8.07-0.19l-15.65-16.39   c0.06,1.11,0.11,2.22,0.18,3.34l14.52,15.21l11.14,0.26l35.8,37.49c-0.32,0.42-0.58,0.87-0.78,1.35   C605.9,616.75,605.75,618.06,605.96,619.31z M608.15,617.24c0.18-0.84,0.61-1.63,1.28-2.27c0.45-0.43,0.95-0.74,1.49-0.95   c0.81-0.31,1.7-0.36,2.54-0.18c0.84,0.18,1.64,0.6,2.28,1.27c0.43,0.45,0.74,0.96,0.94,1.5c0.31,0.81,0.37,1.7,0.19,2.54   c-0.18,0.84-0.61,1.63-1.27,2.27c-0.45,0.43-0.96,0.74-1.5,0.95c-0.8,0.31-1.69,0.37-2.53,0.19c-0.84-0.19-1.64-0.6-2.28-1.27   c-0.43-0.45-0.74-0.96-0.94-1.5C608.03,618.97,607.96,618.08,608.15,617.24z M593.43,589.38c0.11-0.52,0.38-1.01,0.79-1.41   c0.28-0.27,0.59-0.46,0.93-0.59c0.5-0.19,1.05-0.23,1.57-0.11c0.52,0.11,1.01,0.37,1.41,0.79c0.26,0.27,0.46,0.6,0.58,0.92   c0.19,0.5,0.23,1.06,0.12,1.58c-0.12,0.52-0.37,1.01-0.79,1.41c-0.28,0.27-0.6,0.46-0.93,0.59c-0.5,0.19-1.06,0.23-1.57,0.12   c-0.52-0.12-1.01-0.38-1.41-0.79c-0.27-0.28-0.46-0.59-0.59-0.93C593.36,590.45,593.32,589.9,593.43,589.38z"/>
	<path class="st0" d="M658.19,452.77c2.06,0.52,4.16-0.72,4.68-2.79c0.52-2.06-0.72-4.16-2.79-4.68c-1.7-0.43-3.41,0.34-4.26,1.77   l-94.13-23.62c-0.21,0.69-0.41,1.39-0.61,2.09l94.21,23.64C655.35,450.85,656.49,452.34,658.19,452.77z"/>
	<path class="st0" d="M708.02,436.13c1.34,0.26,2.63-0.62,2.89-1.95c0.26-1.34-0.62-2.63-1.96-2.88c-1.34-0.26-2.63,0.61-2.89,1.95   C705.81,434.58,706.69,435.87,708.02,436.13z"/>
	<path class="st0" d="M710.51,330.94c1.35-0.16,2.32-1.39,2.16-2.74s-1.39-2.31-2.74-2.15c-1.35,0.16-2.32,1.38-2.16,2.73   C707.93,330.13,709.16,331.1,710.51,330.94z"/>
	<path class="st0" d="M606.75,449.59c2.05,0.59,4.18-0.6,4.77-2.64c0.59-2.05-0.6-4.18-2.64-4.77c-1.68-0.48-3.42,0.23-4.32,1.64   l-45.01-12.92c-0.19,0.7-0.38,1.4-0.57,2.1l44.99,12.91C603.97,447.58,605.07,449.11,606.75,449.59z"/>
	<path class="st0" d="M709.59,362.27c-1.08-0.69-2.37-1.07-3.74-1.03c-0.91,0.02-1.78,0.23-2.57,0.59c-1.18,0.53-2.17,1.4-2.85,2.48   c-0.5,0.79-0.84,1.69-0.97,2.65l-117.72,3.2c-0.34,0.73-0.67,1.47-1,2.2l118.79-3.23c0.1,0.52,0.26,1.02,0.47,1.49   c0.54,1.18,1.41,2.17,2.48,2.85c1.08,0.69,2.37,1.07,3.74,1.04c0.91-0.02,1.78-0.24,2.57-0.59c1.18-0.54,2.17-1.41,2.85-2.48   c0.69-1.08,1.07-2.37,1.03-3.74c-0.02-0.91-0.23-1.78-0.59-2.57C711.54,363.94,710.67,362.95,709.59,362.27z M710.19,369.49   c-0.32,0.81-0.87,1.5-1.57,2c-0.7,0.5-1.54,0.81-2.47,0.83c-0.62,0.02-1.2-0.1-1.74-0.31c-0.81-0.32-1.51-0.86-2.01-1.57   c-0.5-0.7-0.8-1.54-0.83-2.47c-0.02-0.62,0.1-1.21,0.3-1.75c0.32-0.8,0.86-1.5,1.56-2c0.71-0.5,1.54-0.81,2.47-0.83   c0.62-0.02,1.21,0.1,1.74,0.31c0.81,0.32,1.51,0.87,2.01,1.57s0.8,1.54,0.83,2.47C710.5,368.36,710.4,368.95,710.19,369.49z"/>
	<path class="st0" d="M611.36,535.48c1.16,0.71,2.68,0.34,3.39-0.82c0.71-1.16,0.34-2.68-0.82-3.39c-1.16-0.71-2.68-0.34-3.39,0.82   C609.84,533.25,610.21,534.77,611.36,535.48z"/>
	<path class="st0" d="M672.52,296.73c0.59,0.76,1.4,1.32,2.3,1.63c0.9,0.3,1.9,0.36,2.88,0.09c0.66-0.18,1.25-0.48,1.76-0.88   c0.76-0.59,1.32-1.4,1.63-2.3c0.3-0.9,0.36-1.9,0.09-2.89c-0.18-0.65-0.48-1.25-0.87-1.75c-0.59-0.76-1.4-1.32-2.3-1.63   c-0.9-0.3-1.9-0.36-2.89-0.09c-0.66,0.17-1.25,0.48-1.75,0.87c-0.76,0.59-1.32,1.4-1.63,2.3c-0.2,0.57-0.28,1.18-0.26,1.81   l-54.45,14.72c-0.64,0.92-1.27,1.85-1.91,2.77L672.04,296C672.18,296.25,672.34,296.5,672.52,296.73z M673.66,293.32   c0.07-0.53,0.3-1.04,0.65-1.44c0.35-0.4,0.81-0.71,1.37-0.86c0.37-0.1,0.74-0.12,1.1-0.07c0.53,0.07,1.04,0.3,1.44,0.65   c0.4,0.35,0.7,0.81,0.85,1.37c0.1,0.37,0.12,0.74,0.07,1.1c-0.07,0.53-0.3,1.03-0.65,1.44c-0.35,0.4-0.81,0.7-1.37,0.85   c-0.37,0.1-0.74,0.12-1.09,0.07c-0.53-0.07-1.04-0.3-1.44-0.65c-0.4-0.35-0.71-0.81-0.86-1.37   C673.64,294.04,673.62,293.66,673.66,293.32z"/>
	<path class="st0" d="M571.59,531.23c1.71,1.26,4.13,0.89,5.39-0.82s0.89-4.13-0.82-5.39c-1.41-1.04-3.29-0.97-4.62,0.04   l-25.32-18.62c-0.07,0.86-0.12,1.71-0.18,2.57l24.21,17.8C569.68,528.38,570.18,530.2,571.59,531.23z"/>
	<path class="st0" d="M616.25,404.14c2.12,0.2,4-1.36,4.19-3.48s-1.36-4-3.48-4.19c-1.74-0.16-3.32,0.86-3.94,2.41l-41.72-3.87   c-0.27,0.7-0.52,1.41-0.78,2.11l42.3,3.92C613.14,402.68,614.5,403.98,616.25,404.14z"/>
	<path class="st0" d="M694.87,268.19c-0.84-0.97-1.96-1.68-3.18-2.03c-1.23-0.36-2.58-0.36-3.88,0.08c-0.87,0.28-1.64,0.73-2.29,1.3   c-0.98,0.85-1.68,1.96-2.03,3.18c-0.26,0.9-0.33,1.86-0.18,2.82l-53.1,17.32c-0.8,1.01-1.59,2.04-2.37,3.06l56.15-18.31   c0.24,0.47,0.54,0.9,0.87,1.29c0.85,0.98,1.97,1.68,3.19,2.02c1.23,0.36,2.58,0.36,3.88-0.07c0.87-0.28,1.64-0.74,2.29-1.3   c0.98-0.85,1.68-1.97,2.03-3.19c0.36-1.23,0.35-2.57-0.07-3.88C695.89,269.62,695.44,268.84,694.87,268.19z M693.38,275.28   c-0.53,0.68-1.25,1.21-2.13,1.5c-0.59,0.19-1.18,0.25-1.76,0.2c-0.87-0.07-1.69-0.4-2.37-0.93c-0.68-0.53-1.21-1.25-1.49-2.13   c-0.19-0.59-0.25-1.19-0.21-1.77c0.08-0.86,0.4-1.68,0.93-2.36c0.53-0.68,1.25-1.21,2.13-1.5c0.59-0.19,1.19-0.25,1.76-0.2   c0.87,0.07,1.69,0.4,2.37,0.93c0.68,0.53,1.21,1.25,1.5,2.14c0.19,0.59,0.26,1.18,0.21,1.76   C694.24,273.78,693.91,274.61,693.38,275.28z"/>
	<path class="st0" d="M582.85,628.46c-0.57,1.16-0.78,2.46-0.63,3.73c0.15,1.27,0.67,2.51,1.56,3.55c0.6,0.69,1.31,1.23,2.08,1.61   c1.16,0.57,2.47,0.79,3.73,0.64c1.27-0.15,2.51-0.67,3.54-1.57c0.69-0.6,1.23-1.31,1.62-2.09c0.57-1.16,0.79-2.46,0.64-3.72   c-0.15-1.27-0.67-2.51-1.57-3.55c-0.59-0.69-1.31-1.23-2.08-1.61c-1.16-0.57-2.46-0.79-3.72-0.64c-0.93,0.11-1.84,0.42-2.67,0.93   L547.53,582c0.15,1.29,0.31,2.58,0.47,3.87l35.7,41.28C583.36,627.56,583.08,628,582.85,628.46z M584.5,630.22   c0.22-0.83,0.69-1.6,1.39-2.2c0.47-0.41,1-0.69,1.55-0.87c0.82-0.26,1.71-0.28,2.54-0.06c0.83,0.23,1.6,0.68,2.21,1.39   c0.41,0.47,0.69,1,0.87,1.54c0.27,0.83,0.28,1.72,0.06,2.55c-0.22,0.83-0.69,1.6-1.39,2.21c-0.47,0.4-0.99,0.69-1.54,0.87   c-0.83,0.27-1.71,0.28-2.54,0.06c-0.83-0.22-1.6-0.68-2.21-1.39c-0.4-0.47-0.69-0.99-0.87-1.54   C584.29,631.94,584.27,631.06,584.5,630.22z"/>
	<path class="st0" d="M628.88,487.37c-1.6-0.71-3.42-0.24-4.5,1.03l-71.13-31.47c-0.15,0.73-0.29,1.46-0.43,2.19l70.68,31.27   c-0.22,1.65,0.66,3.32,2.26,4.02c1.95,0.86,4.22-0.02,5.08-1.96C631.71,490.51,630.83,488.23,628.88,487.37z"/>
	<path class="st0" d="M361.48,24.03c1.41,0,2.55-1.14,2.55-2.55c0-1.41-1.14-2.55-2.55-2.55c-1.41,0-2.55,1.14-2.55,2.55   C358.93,22.89,360.07,24.03,361.48,24.03z"/>
	<path class="st0" d="M667.22,270.08c2-0.73,3.03-2.94,2.3-4.94c-0.73-2-2.94-3.03-4.94-2.3c-1.64,0.6-2.63,2.2-2.52,3.87   l-16.87,6.22c-1.01,1.14-2.02,2.28-3.02,3.43l20.63-7.61C663.79,270.1,665.58,270.69,667.22,270.08z"/>
	<path class="st0" d="M702,435.09c0.27,1.26,0.9,2.42,1.8,3.32c0.9,0.91,2.09,1.56,3.43,1.82c0.9,0.17,1.79,0.16,2.63-0.02   c1.27-0.27,2.42-0.9,3.32-1.8c0.9-0.9,1.55-2.08,1.82-3.43c0.17-0.89,0.15-1.79-0.02-2.63c-0.27-1.27-0.9-2.42-1.81-3.32   c-0.9-0.91-2.08-1.56-3.42-1.82c-0.9-0.17-1.79-0.15-2.63,0.02c-1.27,0.27-2.42,0.91-3.32,1.81c-0.66,0.66-1.19,1.47-1.52,2.38   l-48.76-9.42l6.42-4.34l13.94,2.69c0.01,0.29,0.04,0.59,0.1,0.87c0.2,0.94,0.67,1.8,1.34,2.48c0.67,0.67,1.55,1.16,2.56,1.35   c0.67,0.13,1.33,0.12,1.96-0.02c0.94-0.2,1.8-0.67,2.48-1.34c0.67-0.67,1.16-1.55,1.36-2.55c0.13-0.67,0.11-1.33-0.02-1.96   c-0.2-0.94-0.67-1.8-1.35-2.47c-0.67-0.67-1.55-1.16-2.55-1.35c-0.67-0.13-1.34-0.11-1.96,0.02c-0.94,0.2-1.8,0.67-2.48,1.34   c-0.43,0.42-0.77,0.93-1.02,1.51l-14.82-2.86l-8.97,6.06l-82.96-16.02c-0.24,0.69-0.49,1.38-0.73,2.07l81.14,15.67l-6.68,4.52   l-76.27-14.73c-0.23,0.7-0.47,1.39-0.69,2.08l77.44,14.95l9.23-6.24l50.9,9.83C701.84,434.07,701.89,434.59,702,435.09z    M704.11,432.86c0.12-0.61,0.35-1.15,0.67-1.64c0.48-0.72,1.17-1.28,1.96-1.62c0.79-0.34,1.68-0.46,2.59-0.28   c0.61,0.12,1.15,0.35,1.64,0.67c0.72,0.48,1.29,1.17,1.62,1.96c0.34,0.79,0.45,1.68,0.27,2.59c-0.12,0.61-0.35,1.16-0.68,1.64   c-0.48,0.72-1.17,1.28-1.95,1.62c-0.8,0.34-1.68,0.46-2.59,0.28c-0.61-0.12-1.16-0.36-1.64-0.68c-0.72-0.48-1.29-1.17-1.62-1.96   C704.05,434.67,703.94,433.78,704.11,432.86z M676.08,419.66c0.07-0.38,0.21-0.72,0.42-1.02c0.29-0.45,0.72-0.79,1.21-1   c0.49-0.21,1.04-0.28,1.61-0.17c0.37,0.07,0.72,0.22,1.01,0.42c0.45,0.3,0.8,0.73,1.01,1.22c0.21,0.5,0.28,1.04,0.17,1.61   c-0.07,0.38-0.22,0.72-0.42,1.02c-0.3,0.45-0.73,0.8-1.22,1.01c-0.5,0.21-1.04,0.28-1.61,0.17c-0.38-0.07-0.72-0.21-1.02-0.42   c-0.45-0.3-0.8-0.73-1.01-1.22C676.04,420.78,675.98,420.22,676.08,419.66z"/>
	<path class="st0" d="M652.37,336.45l51.48-6.11c0.15,0.51,0.35,0.99,0.61,1.44c0.64,1.12,1.59,2.03,2.73,2.61   c1.13,0.59,2.46,0.85,3.82,0.69c0.91-0.11,1.76-0.39,2.5-0.82c1.13-0.64,2.03-1.59,2.62-2.73c0.58-1.13,0.85-2.46,0.69-3.82   c-0.11-0.9-0.4-1.75-0.82-2.5c-0.65-1.12-1.59-2.03-2.73-2.61c-1.13-0.59-2.46-0.86-3.82-0.69c-0.91,0.11-1.75,0.4-2.5,0.82   c-1.12,0.65-2.03,1.6-2.62,2.73c-0.43,0.83-0.69,1.76-0.73,2.73l-49.32,5.85l4.79-6.08l14.1-1.67c0.09,0.28,0.22,0.55,0.36,0.8   c0.48,0.84,1.19,1.51,2.03,1.95c0.84,0.43,1.83,0.63,2.84,0.51c0.67-0.08,1.3-0.29,1.86-0.61c0.84-0.48,1.51-1.19,1.95-2.03   c0.44-0.84,0.64-1.83,0.52-2.85c-0.08-0.67-0.3-1.3-0.62-1.87c-0.47-0.84-1.18-1.51-2.03-1.94c-0.84-0.44-1.83-0.64-2.84-0.52   c-0.68,0.08-1.31,0.3-1.87,0.62c-0.84,0.47-1.51,1.18-1.95,2.03c-0.28,0.53-0.45,1.13-0.52,1.75l-14.99,1.78l-6.7,8.5l-54.51,6.47   c-0.44,0.78-0.89,1.56-1.33,2.35l53.93-6.4l-4.99,6.34l-52.28,6.2c-0.41,0.77-0.81,1.56-1.22,2.34l54.66-6.49L652.37,336.45z    M705.93,327.25c0.24-0.83,0.73-1.57,1.38-2.14c0.65-0.56,1.46-0.94,2.39-1.05c0.61-0.07,1.21-0.01,1.76,0.15   c0.83,0.24,1.58,0.72,2.14,1.38c0.56,0.65,0.94,1.47,1.05,2.38c0.07,0.62,0.02,1.21-0.15,1.77c-0.24,0.83-0.72,1.57-1.37,2.14   c-0.66,0.56-1.46,0.95-2.39,1.05c-0.61,0.07-1.21,0.01-1.76-0.15c-0.83-0.24-1.58-0.73-2.14-1.38c-0.56-0.65-0.94-1.47-1.05-2.39   C705.72,328.4,705.77,327.81,705.93,327.25z M675.17,323.86c0.14-0.52,0.44-0.97,0.85-1.32c0.4-0.35,0.91-0.59,1.48-0.65   c0.38-0.04,0.75-0.01,1.09,0.09c0.52,0.15,0.98,0.45,1.33,0.85c0.35,0.41,0.59,0.91,0.65,1.48c0.05,0.38,0.01,0.75-0.09,1.1   c-0.15,0.52-0.45,0.98-0.85,1.33c-0.41,0.35-0.91,0.58-1.48,0.65c-0.38,0.05-0.75,0.01-1.1-0.09c-0.52-0.15-0.98-0.45-1.33-0.85   c-0.35-0.4-0.58-0.91-0.65-1.48C675.03,324.57,675.06,324.21,675.17,323.86z"/>
	<path class="st0" d="M602.86,116.89L536,186.45l0.28,11.82l-2.39,2.52c1.04,0,2.08,0,3.11-0.02l1.55-1.63l-0.27-11.81l66.21-68.88   c0.45,0.31,0.93,0.56,1.43,0.74c1.25,0.48,2.61,0.57,3.89,0.29c1.29-0.28,2.53-0.94,3.5-1.97c0.65-0.68,1.14-1.47,1.45-2.31   c0.47-1.26,0.56-2.61,0.29-3.9c-0.28-1.29-0.94-2.52-1.97-3.49c-0.68-0.65-1.47-1.14-2.31-1.45c-1.26-0.47-2.61-0.57-3.9-0.29   c-1.29,0.28-2.52,0.94-3.49,1.97c-0.65,0.68-1.14,1.47-1.45,2.31c-0.48,1.25-0.57,2.61-0.29,3.9   C601.85,115.18,602.25,116.09,602.86,116.89z M603.8,112c0.15-0.88,0.55-1.71,1.21-2.41c0.44-0.46,0.95-0.81,1.5-1.05   c0.82-0.36,1.74-0.46,2.62-0.31s1.71,0.55,2.41,1.21c0.46,0.44,0.81,0.95,1.05,1.5c0.36,0.82,0.47,1.73,0.32,2.61   c-0.15,0.88-0.55,1.71-1.21,2.41c-0.44,0.46-0.96,0.81-1.5,1.05c-0.82,0.36-1.73,0.47-2.61,0.32c-0.88-0.15-1.71-0.55-2.41-1.21   c-0.47-0.45-0.82-0.95-1.05-1.5C603.76,113.79,603.65,112.87,603.8,112z"/>
	<path class="st0" d="M610.2,114.54c0.97-1.02,0.93-2.64-0.08-3.61c-1.02-0.97-2.64-0.93-3.61,0.08c-0.97,1.02-0.94,2.64,0.08,3.61   C607.61,115.59,609.22,115.55,610.2,114.54z"/>
	<path class="st0" d="M580.75,122.22l-65.17,78.21c0.92,0.04,1.83,0.06,2.75,0.1l64.09-76.91c0.45,0.27,0.93,0.48,1.42,0.63   c1.24,0.37,2.56,0.37,3.78,0.02c1.23-0.35,2.37-1.07,3.25-2.12c0.59-0.7,1-1.5,1.25-2.32c0.37-1.24,0.38-2.56,0.02-3.78   c-0.35-1.23-1.07-2.37-2.12-3.24c-0.7-0.59-1.49-1-2.32-1.26c-1.23-0.37-2.55-0.38-3.77-0.02c-1.23,0.35-2.37,1.07-3.25,2.13   c-0.59,0.69-1,1.49-1.25,2.32c-0.38,1.24-0.38,2.55-0.02,3.77C579.66,120.64,580.11,121.49,580.75,122.22z M581.33,117.44   c0.09-0.86,0.41-1.69,1.01-2.41c0.4-0.48,0.87-0.84,1.38-1.11c0.77-0.4,1.65-0.56,2.5-0.47c0.85,0.09,1.69,0.42,2.4,1.01   c0.47,0.39,0.84,0.86,1.11,1.38c0.4,0.77,0.55,1.64,0.47,2.5c-0.09,0.85-0.41,1.69-1.01,2.41c-0.4,0.47-0.87,0.84-1.38,1.11   c-0.77,0.4-1.64,0.56-2.5,0.47c-0.85-0.09-1.69-0.42-2.4-1.01c-0.48-0.4-0.84-0.87-1.11-1.39   C581.41,119.17,581.25,118.3,581.33,117.44z"/>
	<path class="st0" d="M613.79,141.89c0.13,0.92,0.46,1.83,0.99,2.64l-36.82,33.33l0.38-7.73l10.53-9.53   c0.24,0.17,0.49,0.32,0.76,0.44c0.88,0.4,1.84,0.54,2.79,0.41c0.94-0.14,1.86-0.55,2.61-1.23c0.5-0.45,0.89-0.99,1.16-1.57   c0.4-0.88,0.54-1.84,0.41-2.79c-0.13-0.94-0.54-1.86-1.23-2.62c-0.46-0.5-1-0.89-1.58-1.16c-0.87-0.41-1.84-0.55-2.78-0.41   c-0.94,0.13-1.86,0.54-2.61,1.22c-0.51,0.46-0.89,1-1.16,1.58c-0.41,0.87-0.55,1.84-0.41,2.79c0.08,0.59,0.28,1.18,0.59,1.72   l-11.19,10.13l-0.54,10.81l-22.43,20.31c1.15-0.06,2.3-0.11,3.44-0.18l18.83-17.05l-0.4,8.06l-9.17,8.3c1.2-0.1,2.39-0.2,3.59-0.32   l7.71-6.98l0.55-11.13l38.43-34.79c0.42,0.33,0.86,0.6,1.33,0.82c1.17,0.54,2.47,0.73,3.73,0.55c1.27-0.18,2.5-0.73,3.51-1.65   c0.68-0.61,1.2-1.34,1.56-2.12c0.55-1.17,0.73-2.47,0.55-3.74c-0.18-1.26-0.73-2.49-1.65-3.51c-0.61-0.67-1.34-1.2-2.12-1.56   c-1.18-0.54-2.47-0.73-3.74-0.55c-1.27,0.18-2.5,0.73-3.51,1.64c-0.68,0.61-1.2,1.34-1.56,2.12   C613.8,139.32,613.62,140.62,613.79,141.89z M589.03,155.9c0.13-0.52,0.4-1,0.83-1.39c0.28-0.25,0.61-0.44,0.94-0.56   c0.51-0.18,1.06-0.2,1.58-0.08c0.52,0.13,1,0.4,1.39,0.83c0.26,0.29,0.44,0.61,0.56,0.94c0.18,0.51,0.2,1.06,0.08,1.58   c-0.13,0.52-0.4,1-0.83,1.38c-0.29,0.26-0.6,0.45-0.94,0.56c-0.51,0.18-1.06,0.2-1.58,0.08c-0.52-0.13-1-0.4-1.38-0.83   c-0.26-0.29-0.45-0.6-0.56-0.94C588.92,156.97,588.9,156.42,589.03,155.9z M616.03,139.88c0.2-0.83,0.65-1.62,1.33-2.24   c0.46-0.41,0.98-0.71,1.52-0.9c0.82-0.29,1.71-0.33,2.54-0.12c0.83,0.2,1.61,0.65,2.23,1.33c0.42,0.46,0.72,0.98,0.91,1.53   c0.29,0.81,0.32,1.7,0.12,2.53c-0.21,0.84-0.65,1.62-1.33,2.24c-0.46,0.41-0.98,0.71-1.52,0.9c-0.82,0.29-1.71,0.32-2.54,0.12   c-0.83-0.2-1.61-0.65-2.24-1.34c-0.41-0.46-0.71-0.97-0.91-1.52C615.86,141.6,615.83,140.71,616.03,139.88z"/>
	<path class="st0" d="M501.42,199.57c0.86,0.07,1.73,0.12,2.59,0.18l59.25-78.2c1.56,0.6,3.38,0.13,4.44-1.26   c1.29-1.69,0.97-4.11-0.73-5.4c-1.69-1.29-4.11-0.97-5.4,0.73c-1.06,1.39-1.03,3.27-0.04,4.62L501.42,199.57z"/>
	<path class="st0" d="M606.62,536.13c0.53,1.16,1.41,2.18,2.57,2.9c0.78,0.48,1.62,0.78,2.48,0.9c1.27,0.19,2.58,0,3.74-0.53   c1.16-0.53,2.19-1.41,2.9-2.58c0.48-0.78,0.78-1.62,0.9-2.48c0.19-1.28,0-2.58-0.53-3.74c-0.53-1.16-1.41-2.18-2.58-2.9   c-0.78-0.47-1.62-0.77-2.48-0.9c-1.28-0.19-2.58,0-3.74,0.53c-0.85,0.39-1.62,0.95-2.26,1.69l-19.09-11.66l-2.64-10.92   l-37.23-22.73c-0.11,0.79-0.21,1.57-0.32,2.36L584,507.84l1.92,7.94l-38.34-23.41c-0.09,0.8-0.17,1.6-0.25,2.39l39.32,24.01   l5.19,21.46l39.98,24.41c-0.43,1.61,0.22,3.37,1.71,4.28c1.82,1.11,4.19,0.53,5.3-1.28c1.11-1.82,0.53-4.19-1.29-5.3   c-1.49-0.91-3.36-0.69-4.59,0.44l-39.22-23.95l-4.47-18.46l17.24,10.52c-0.2,0.48-0.34,0.99-0.41,1.5   C605.9,533.67,606.09,534.97,606.62,536.13z M608.84,531.05c0.32-0.53,0.74-0.96,1.2-1.3c0.71-0.51,1.54-0.8,2.41-0.83   c0.86-0.04,1.73,0.17,2.52,0.65c0.53,0.32,0.97,0.73,1.3,1.21c0.5,0.7,0.79,1.54,0.83,2.4c0.04,0.86-0.16,1.74-0.65,2.53   c-0.32,0.53-0.74,0.96-1.2,1.3c-0.71,0.51-1.55,0.79-2.41,0.83s-1.73-0.17-2.52-0.65c-0.53-0.32-0.96-0.73-1.3-1.2   c-0.51-0.71-0.79-1.55-0.83-2.4S608.36,531.84,608.84,531.05z"/>
	<path class="st0" d="M614.21,619.98c0.99-0.94,1.02-2.5,0.08-3.48c-0.94-0.99-2.5-1.03-3.48-0.09c-0.99,0.94-1.02,2.5-0.08,3.49   C611.66,620.89,613.22,620.92,614.21,619.98z"/>
	<path class="st0" d="M625.13,160.78c-0.61,1.14-0.86,2.43-0.74,3.7c0.08,0.93,0.37,1.85,0.85,2.69l-36.24,29.56   c1.41-0.2,2.81-0.41,4.22-0.63l33.4-27.25c0.39,0.35,0.83,0.65,1.28,0.89c1.15,0.6,2.44,0.85,3.71,0.74   c1.27-0.11,2.53-0.6,3.59-1.46c0.71-0.58,1.27-1.28,1.67-2.04c0.6-1.15,0.86-2.44,0.74-3.71c-0.11-1.27-0.6-2.53-1.47-3.59   c-0.58-0.71-1.27-1.27-2.04-1.68c-1.14-0.6-2.43-0.86-3.7-0.74c-1.27,0.11-2.53,0.6-3.59,1.47   C626.09,159.31,625.53,160.02,625.13,160.78z M628.17,160.42c0.48-0.39,1.02-0.66,1.57-0.82c0.83-0.24,1.72-0.23,2.55,0.01   s1.58,0.73,2.16,1.45c0.39,0.48,0.66,1.01,0.83,1.56c0.24,0.83,0.23,1.72-0.02,2.54c-0.25,0.82-0.73,1.58-1.45,2.17   c-0.48,0.39-1.01,0.66-1.57,0.82c-0.83,0.24-1.72,0.24-2.55-0.01c-0.82-0.25-1.58-0.73-2.16-1.45c-0.39-0.48-0.66-1.02-0.83-1.57   c-0.24-0.83-0.24-1.71,0.01-2.54C626.97,161.77,627.45,161.01,628.17,160.42z"/>
	<path class="st0" d="M637.67,601.89c0.34,1.28,1.06,2.48,2.13,3.41c0.71,0.62,1.53,1.07,2.37,1.34c1.28,0.41,2.64,0.44,3.91,0.1   c1.27-0.34,2.47-1.06,3.4-2.13c0.62-0.71,1.07-1.53,1.34-2.37c0.41-1.28,0.45-2.63,0.1-3.91c-0.34-1.28-1.06-2.47-2.13-3.4   c-0.71-0.62-1.52-1.07-2.37-1.34c-1.27-0.42-2.63-0.45-3.91-0.11c-0.93,0.25-1.82,0.7-2.59,1.34l-58.55-50.85l-11.79,0.83   l-24.33-21.13c-0.03,0.96-0.07,1.92-0.1,2.88l23.66,20.55l11.79-0.82l57.85,50.24c-0.29,0.47-0.51,0.96-0.68,1.46   C637.36,599.26,637.33,600.62,637.67,601.89z M639.72,599.56c0.11-0.89,0.47-1.74,1.1-2.46c0.42-0.49,0.91-0.86,1.45-1.12   c0.81-0.39,1.72-0.54,2.6-0.44c0.88,0.11,1.74,0.47,2.46,1.1c0.48,0.42,0.85,0.91,1.12,1.45c0.39,0.81,0.54,1.72,0.44,2.6   c-0.11,0.88-0.47,1.74-1.1,2.46c-0.42,0.48-0.91,0.85-1.45,1.12c-0.8,0.4-1.71,0.55-2.59,0.44c-0.89-0.11-1.74-0.47-2.46-1.1   c-0.48-0.42-0.85-0.92-1.12-1.45C639.77,601.34,639.61,600.44,639.72,599.56z"/>
	<path class="st0" d="M646.23,601.79c0.92-1.06,0.81-2.68-0.25-3.6c-1.06-0.92-2.68-0.81-3.6,0.25c-0.92,1.06-0.81,2.68,0.25,3.6   C643.69,602.97,645.31,602.86,646.23,601.79z"/>
	<path class="st0" d="M622.02,142.77c1.01-0.91,1.09-2.47,0.17-3.48s-2.47-1.08-3.48-0.17c-1.01,0.91-1.09,2.47-0.18,3.48   S621.01,143.69,622.02,142.77z"/>
	<path class="st0" d="M319.75,713.66c-0.22,1.34,0.69,2.61,2.03,2.84c1.34,0.22,2.61-0.69,2.83-2.03c0.22-1.34-0.68-2.61-2.02-2.84   C321.24,711.4,319.97,712.31,319.75,713.66z"/>
	<path class="st0" d="M160.76,656.86c-1.11-0.87-2.71-0.68-3.58,0.42c-0.87,1.11-0.68,2.71,0.42,3.58s2.71,0.68,3.58-0.42   C162.05,659.34,161.86,657.74,160.76,656.86z"/>
	<path class="st0" d="M215.25,607.57l18.2-5.45l-9.59,17.78c-0.49-0.17-1.01-0.28-1.52-0.33c-1.29-0.12-2.58,0.14-3.71,0.73   c-1.13,0.59-2.11,1.52-2.76,2.73c-0.43,0.81-0.69,1.66-0.77,2.53c-0.12,1.28,0.14,2.58,0.73,3.7c0.59,1.13,1.52,2.12,2.73,2.76   c0.8,0.44,1.66,0.69,2.52,0.77c1.29,0.12,2.58-0.14,3.71-0.72c1.13-0.59,2.11-1.52,2.76-2.73c0.43-0.8,0.68-1.66,0.77-2.52   c0.12-1.29-0.14-2.58-0.73-3.71c-0.43-0.83-1.04-1.57-1.81-2.16l10.62-19.69l10.77-3.22l23.33-43.26   c-0.76-0.12-1.52-0.25-2.27-0.36l-22.54,41.8l-7.82,2.34l24.28-45.01c-0.77-0.11-1.54-0.21-2.3-0.31l-24.92,46.2l-21.15,6.33   l-22.24,41.23c-1.63-0.35-3.36,0.4-4.19,1.94c-1.01,1.87-0.31,4.21,1.56,5.22s4.21,0.31,5.22-1.57c0.83-1.54,0.51-3.39-0.68-4.56   L215.25,607.57z M226.15,625.74c0.09,0.85-0.08,1.74-0.51,2.55c-0.3,0.55-0.68,1-1.14,1.37c-0.67,0.54-1.49,0.87-2.35,0.96   c-0.86,0.08-1.74-0.07-2.56-0.51c-0.54-0.29-1-0.69-1.36-1.13c-0.54-0.68-0.88-1.5-0.96-2.36c-0.09-0.85,0.08-1.74,0.52-2.56   c0.29-0.54,0.68-1,1.13-1.36c0.68-0.54,1.5-0.87,2.36-0.96c0.85-0.09,1.74,0.07,2.56,0.51c0.54,0.29,0.99,0.68,1.36,1.13   C225.74,624.06,226.07,624.88,226.15,625.74z"/>
	<path class="st0" d="M222.88,624c-1.2-0.65-2.7-0.2-3.34,0.99c-0.65,1.2-0.2,2.7,1,3.34s2.7,0.2,3.34-1   C224.53,626.15,224.08,624.65,222.88,624z"/>
	<path class="st0" d="M306.05,701.12c-0.65-0.67-1.46-1.2-2.36-1.54l26.5-130.63c-0.69-0.22-1.39-0.43-2.09-0.65l-26.54,130.85   c-0.53-0.02-1.05,0.02-1.55,0.12c-1.27,0.26-2.43,0.88-3.33,1.78c-0.91,0.89-1.58,2.07-1.85,3.41c-0.18,0.9-0.17,1.79,0,2.63   c0.26,1.27,0.88,2.43,1.78,3.34c0.89,0.91,2.07,1.57,3.41,1.85c0.9,0.18,1.79,0.18,2.64,0c1.26-0.26,2.43-0.88,3.33-1.77   c0.91-0.89,1.58-2.07,1.85-3.41c0.19-0.89,0.18-1.79,0-2.63C307.56,703.19,306.94,702.03,306.05,701.12z M305.69,706.66   c-0.12,0.61-0.37,1.16-0.69,1.63c-0.49,0.72-1.19,1.27-1.98,1.6c-0.79,0.33-1.69,0.43-2.6,0.25c-0.6-0.12-1.15-0.36-1.63-0.68   c-0.72-0.49-1.27-1.18-1.6-1.98c-0.33-0.79-0.44-1.69-0.25-2.6c0.12-0.6,0.36-1.15,0.69-1.63c0.49-0.72,1.18-1.28,1.98-1.6   c0.79-0.33,1.69-0.43,2.59-0.25c0.61,0.12,1.16,0.37,1.64,0.69c0.71,0.49,1.27,1.18,1.6,1.97   C305.77,704.86,305.88,705.75,305.69,706.66z"/>
	<path class="st0" d="M222.73,680.89c-1.21-0.62-2.7-0.14-3.32,1.07c-0.62,1.21-0.14,2.7,1.07,3.32s2.69,0.14,3.31-1.07   C224.42,682.99,223.95,681.51,222.73,680.89z"/>
	<path class="st0" d="M275.65,713.46c-1.35-0.42-2.78,0.33-3.2,1.68c-0.42,1.35,0.33,2.78,1.68,3.2c1.35,0.42,2.78-0.33,3.2-1.68   C277.75,715.31,277,713.88,275.65,713.46z"/>
	<path class="st0" d="M249.59,630.8l37.4-73.07c-0.74-0.15-1.48-0.29-2.22-0.44l-36.13,70.58l-2.48-7.68l32.76-64   c-0.75-0.13-1.49-0.27-2.24-0.4L243.82,620l3.42,10.61l-23.62,46.15c-0.5-0.16-1.02-0.26-1.53-0.3c-1.28-0.09-2.57,0.19-3.69,0.81   c-1.12,0.61-2.08,1.57-2.7,2.79c-0.42,0.81-0.65,1.68-0.71,2.54c-0.1,1.29,0.19,2.57,0.8,3.69c0.62,1.12,1.57,2.07,2.79,2.7   c0.81,0.41,1.68,0.65,2.54,0.71c1.29,0.09,2.57-0.19,3.69-0.81c1.12-0.61,2.08-1.56,2.7-2.78c0.42-0.81,0.65-1.68,0.71-2.54   c0.09-1.29-0.2-2.58-0.81-3.7c-0.45-0.82-1.08-1.55-1.86-2.12l22.63-44.21l2.38,7.37l-6.47,12.64c-0.28-0.08-0.57-0.13-0.86-0.14   c-0.96-0.07-1.92,0.15-2.75,0.6c-0.83,0.46-1.54,1.17-2.01,2.08c-0.31,0.6-0.48,1.24-0.53,1.88c-0.07,0.96,0.15,1.92,0.6,2.75   c0.46,0.83,1.16,1.55,2.08,2.01c0.6,0.31,1.25,0.48,1.89,0.53c0.96,0.07,1.91-0.14,2.75-0.6c0.83-0.46,1.55-1.16,2.01-2.07   c0.31-0.61,0.48-1.25,0.53-1.89c0.07-0.96-0.14-1.91-0.6-2.75c-0.29-0.53-0.68-1-1.16-1.4l6.88-13.44L249.59,630.8z M226.03,682.54   c0.1,0.85-0.03,1.74-0.45,2.57c-0.28,0.55-0.66,1.01-1.1,1.38c-0.67,0.56-1.48,0.91-2.34,1.01c-0.85,0.1-1.74-0.04-2.56-0.46   c-0.55-0.28-1.02-0.66-1.39-1.11c-0.55-0.66-0.9-1.48-1.01-2.33c-0.1-0.86,0.03-1.74,0.45-2.57c0.28-0.55,0.66-1.02,1.1-1.38   c0.67-0.56,1.48-0.91,2.34-1.01c0.85-0.1,1.74,0.04,2.57,0.46c0.55,0.28,1.01,0.66,1.39,1.1   C225.58,680.88,225.93,681.69,226.03,682.54z M245.33,659.59c-0.17,0.34-0.41,0.63-0.68,0.85c-0.41,0.34-0.92,0.56-1.45,0.63   c-0.53,0.06-1.08-0.02-1.59-0.28c-0.34-0.18-0.63-0.41-0.86-0.68c-0.34-0.41-0.56-0.92-0.63-1.45c-0.06-0.53,0.03-1.08,0.29-1.59   c0.18-0.34,0.41-0.63,0.68-0.86c0.41-0.34,0.92-0.56,1.45-0.63c0.53-0.06,1.08,0.03,1.59,0.29c0.34,0.18,0.63,0.41,0.86,0.68   c0.35,0.41,0.56,0.91,0.62,1.45C245.68,658.53,245.6,659.08,245.33,659.59z"/>
	<path class="st0" d="M280.25,711.61c-0.6-0.75-1.37-1.39-2.27-1.84l23.04-74.05l-5.5-10.46l18.97-60.97   c-0.72-0.2-1.44-0.4-2.17-0.59l-19.22,61.78l5.49,10.46l-22.76,73.16c-0.54-0.07-1.08-0.09-1.61-0.03   c-1.33,0.13-2.59,0.65-3.62,1.47c-1.03,0.82-1.85,1.97-2.27,3.32c-0.28,0.9-0.36,1.83-0.28,2.71c0.14,1.33,0.66,2.59,1.48,3.62   c0.83,1.03,1.96,1.84,3.31,2.26c0.9,0.28,1.83,0.36,2.71,0.28c1.33-0.14,2.59-0.65,3.62-1.48c1.03-0.82,1.84-1.96,2.26-3.31   c0.28-0.9,0.37-1.82,0.28-2.71C281.59,713.9,281.07,712.64,280.25,711.61z M279.3,717.27c-0.19,0.61-0.49,1.15-0.87,1.61   c-0.58,0.69-1.35,1.19-2.2,1.44c-0.85,0.26-1.78,0.27-2.7-0.02c-0.61-0.19-1.15-0.49-1.61-0.88c-0.69-0.57-1.19-1.35-1.45-2.2   c-0.25-0.86-0.27-1.78,0.02-2.7c0.19-0.61,0.5-1.15,0.88-1.61c0.58-0.69,1.35-1.19,2.2-1.45c0.86-0.25,1.78-0.27,2.7,0.02   c0.62,0.19,1.15,0.49,1.61,0.87c0.69,0.58,1.19,1.35,1.44,2.2C279.57,715.42,279.58,716.35,279.3,717.27z"/>
	<path class="st0" d="M266.82,653.18l33.8-92.45c-0.71-0.17-1.42-0.34-2.13-0.5l-33.7,92.2c-1.66-0.11-3.27,0.87-3.87,2.51   c-0.74,2,0.29,4.21,2.28,4.95c2,0.74,4.21-0.29,4.95-2.28C268.75,655.96,268.16,654.17,266.82,653.18z"/>
	<path class="st0" d="M164.26,654.25l48.05-60.87l-1.38-11.74l24.36-30.86c-0.9-0.06-1.81-0.13-2.71-0.19l-23.99,30.39l1.38,11.73   l-47.47,60.14c-0.48-0.26-0.98-0.47-1.49-0.61c-1.29-0.36-2.65-0.32-3.9,0.08c-1.26,0.4-2.43,1.17-3.3,2.29   c-0.59,0.74-0.99,1.57-1.23,2.43c-0.35,1.29-0.32,2.65,0.08,3.91c0.4,1.26,1.17,2.42,2.28,3.3c0.74,0.59,1.57,0.99,2.43,1.23   c1.29,0.35,2.65,0.32,3.91-0.08c1.26-0.4,2.42-1.17,3.3-2.28c0.59-0.74,1-1.57,1.23-2.43c0.36-1.29,0.32-2.65-0.08-3.91   C165.42,655.86,164.93,654.99,164.26,654.25z M163.78,659.21c-0.07,0.89-0.39,1.76-0.98,2.51c-0.4,0.5-0.87,0.9-1.39,1.19   c-0.79,0.43-1.69,0.62-2.57,0.56s-1.76-0.39-2.51-0.98c-0.5-0.4-0.9-0.87-1.18-1.4c-0.44-0.78-0.63-1.68-0.56-2.57   c0.07-0.89,0.39-1.76,0.98-2.51c0.4-0.5,0.88-0.9,1.4-1.18c0.79-0.43,1.68-0.63,2.57-0.56c0.89,0.07,1.76,0.39,2.51,0.98   c0.51,0.4,0.9,0.87,1.19,1.39C163.65,657.43,163.84,658.33,163.78,659.21z"/>
	<path class="st0" d="M24.46,302.74c1.37,0.34,2.75-0.5,3.09-1.87c0.34-1.37-0.5-2.75-1.87-3.09c-1.37-0.34-2.75,0.5-3.09,1.87   C22.25,301.02,23.09,302.4,24.46,302.74z"/>
	<path class="st0" d="M19.98,304.87c0.89,0.98,2.07,1.71,3.45,2.05c0.92,0.23,1.84,0.26,2.72,0.11c1.32-0.21,2.54-0.81,3.53-1.69   c0.71-0.65,1.3-1.46,1.69-2.38l75.32,18.46l10.11-6.13l61.51,15.08c0.22-0.72,0.44-1.43,0.66-2.15l-62.54-15.33l-10.1,6.12   l-74.42-18.24c0.04-0.55,0.02-1.09-0.07-1.61c-0.21-1.32-0.81-2.54-1.69-3.52c-0.89-0.98-2.08-1.72-3.45-2.06   c-0.92-0.23-1.84-0.25-2.72-0.11c-1.32,0.22-2.55,0.81-3.53,1.7c-0.98,0.89-1.71,2.07-2.05,3.45c-0.23,0.92-0.25,1.84-0.11,2.72   C18.5,302.67,19.09,303.89,19.98,304.87z M20.58,299.16c0.15-0.62,0.42-1.18,0.78-1.66c0.53-0.72,1.27-1.27,2.1-1.58   c0.84-0.31,1.76-0.38,2.69-0.15c0.62,0.15,1.18,0.43,1.66,0.78c0.72,0.54,1.27,1.27,1.58,2.1c0.31,0.84,0.38,1.76,0.15,2.69   c-0.15,0.63-0.42,1.18-0.77,1.66c-0.54,0.72-1.28,1.27-2.11,1.58c-0.83,0.31-1.76,0.38-2.69,0.15c-0.62-0.15-1.18-0.42-1.66-0.77   c-0.72-0.54-1.27-1.28-1.58-2.11C20.42,301.02,20.36,300.09,20.58,299.16z"/>
	<path class="st0" d="M249.84,62.82c0.46-0.26,0.88-0.57,1.25-0.93c0.94-0.88,1.6-2.02,1.9-3.26c0.31-1.24,0.26-2.59-0.22-3.88   c-0.32-0.86-0.79-1.62-1.38-2.24c-0.88-0.95-2.02-1.6-3.26-1.91c-1.24-0.3-2.59-0.25-3.88,0.22c-0.85,0.31-1.61,0.8-2.24,1.38   c-0.94,0.89-1.6,2.02-1.9,3.27c-0.31,1.24-0.26,2.59,0.22,3.87c0.32,0.86,0.8,1.61,1.38,2.24c0.89,0.94,2.03,1.6,3.27,1.91   c0.91,0.22,1.87,0.26,2.82,0.07l10.29,27.88c1.18,1.12,2.36,2.23,3.55,3.34L249.84,62.82z M248.09,61.24   c-0.58,0.21-1.17,0.3-1.75,0.28c-0.87-0.04-1.7-0.34-2.4-0.84c-0.7-0.5-1.26-1.2-1.58-2.07c-0.21-0.58-0.29-1.17-0.27-1.75   c0.04-0.87,0.33-1.7,0.84-2.4c0.5-0.7,1.21-1.25,2.07-1.57c0.58-0.22,1.17-0.3,1.76-0.27c0.86,0.04,1.7,0.33,2.4,0.83   c0.7,0.51,1.26,1.2,1.58,2.07c0.21,0.58,0.3,1.18,0.27,1.75c-0.04,0.87-0.34,1.71-0.84,2.4C249.66,60.36,248.96,60.92,248.09,61.24   z"/>
	<path class="st0" d="M177.76,581.7l31.61-31.83c-1.02,0-2.05,0-3.07,0l-28.55,28.75l-0.03-8.07l20.42-20.56   c-1.06,0.03-2.12,0.07-3.17,0.11l-19.42,19.56l0.04,11.15l-36.53,36.78c-0.43-0.31-0.89-0.56-1.37-0.75   c-1.19-0.48-2.51-0.6-3.76-0.35c-1.25,0.24-2.46,0.86-3.42,1.84c-0.64,0.65-1.13,1.4-1.45,2.2c-0.48,1.2-0.6,2.51-0.36,3.76   c0.25,1.25,0.86,2.45,1.84,3.42c0.64,0.64,1.4,1.13,2.2,1.45c1.2,0.48,2.51,0.6,3.76,0.35c1.25-0.24,2.46-0.86,3.42-1.83   c0.64-0.65,1.13-1.4,1.45-2.2c0.48-1.2,0.6-2.51,0.35-3.77c-0.18-0.91-0.56-1.8-1.13-2.59l35-35.24l0.03,7.74l-10.01,10.07   c-0.24-0.16-0.51-0.3-0.78-0.4c-0.9-0.36-1.87-0.44-2.8-0.26c-0.93,0.19-1.82,0.64-2.54,1.37c-0.48,0.48-0.84,1.04-1.08,1.63   c-0.36,0.9-0.44,1.87-0.26,2.8c0.18,0.93,0.64,1.83,1.36,2.55c0.48,0.48,1.04,0.84,1.64,1.08c0.89,0.36,1.87,0.45,2.8,0.26   c0.93-0.18,1.83-0.64,2.54-1.36c0.48-0.49,0.84-1.05,1.08-1.64c0.36-0.89,0.45-1.87,0.26-2.8c-0.11-0.59-0.34-1.16-0.68-1.69   l10.64-10.71L177.76,581.7z M139.59,623.83c-0.16,0.84-0.56,1.65-1.21,2.31c-0.43,0.44-0.94,0.76-1.47,0.98   c-0.8,0.33-1.69,0.42-2.53,0.25c-0.84-0.16-1.65-0.56-2.3-1.21c-0.44-0.44-0.77-0.94-0.99-1.48c-0.33-0.79-0.41-1.68-0.25-2.52   c0.17-0.85,0.56-1.65,1.21-2.31c0.43-0.44,0.94-0.77,1.47-0.98c0.8-0.33,1.69-0.41,2.53-0.25c0.84,0.16,1.65,0.56,2.3,1.22   c0.44,0.43,0.77,0.93,0.99,1.47C139.67,622.11,139.75,622.99,139.59,623.83z M165.71,606.4c-0.1,0.52-0.35,1.02-0.75,1.43   c-0.27,0.27-0.58,0.47-0.91,0.61c-0.5,0.2-1.05,0.26-1.57,0.16c-0.53-0.1-1.02-0.35-1.43-0.75c-0.27-0.27-0.47-0.58-0.61-0.91   c-0.2-0.5-0.26-1.05-0.16-1.57c0.1-0.53,0.35-1.02,0.76-1.43c0.27-0.27,0.58-0.48,0.91-0.61c0.5-0.2,1.05-0.26,1.57-0.16   c0.52,0.1,1.02,0.35,1.43,0.76c0.27,0.27,0.48,0.58,0.61,0.91C165.76,605.33,165.81,605.88,165.71,606.4z"/>
	<path class="st0" d="M16.95,377.51c1.41,0.04,2.58-1.07,2.62-2.48c0.04-1.41-1.07-2.58-2.48-2.62c-1.41-0.04-2.58,1.07-2.62,2.48   C14.43,376.3,15.54,377.47,16.95,377.51z"/>
	<path class="st0" d="M13.03,380.54c1.07,0.77,2.39,1.24,3.8,1.28c0.95,0.03,1.86-0.14,2.69-0.47c1.25-0.48,2.32-1.32,3.09-2.4   c0.56-0.78,0.97-1.7,1.15-2.68l77.52,2.15l8.59-8.12l53.23,1.47c0.32-0.74,0.65-1.47,0.96-2.22L109,368.03l-8.58,8.12l-76.59-2.12   c-0.08-0.54-0.21-1.06-0.41-1.56c-0.48-1.25-1.32-2.32-2.4-3.08c-1.07-0.77-2.39-1.24-3.81-1.28c-0.95-0.03-1.86,0.15-2.69,0.47   c-1.25,0.49-2.32,1.33-3.09,2.4c-0.77,1.07-1.24,2.39-1.28,3.8c-0.03,0.95,0.15,1.86,0.47,2.69   C11.12,378.7,11.95,379.77,13.03,380.54z M12.82,373.05c0.37-0.82,0.97-1.51,1.72-1.99c0.76-0.48,1.64-0.74,2.6-0.71   c0.64,0.02,1.24,0.17,1.78,0.41c0.82,0.37,1.51,0.97,1.99,1.72c0.48,0.76,0.74,1.64,0.71,2.6c-0.02,0.64-0.16,1.24-0.41,1.78   c-0.37,0.82-0.98,1.51-1.73,1.99c-0.75,0.48-1.64,0.74-2.6,0.71c-0.64-0.02-1.24-0.16-1.78-0.41c-0.82-0.37-1.51-0.98-1.99-1.73   c-0.48-0.75-0.74-1.64-0.71-2.6C12.43,374.19,12.57,373.59,12.82,373.05z"/>
	<path class="st0" d="M133.46,621.26c-0.96,0.97-0.95,2.53,0.01,3.49c0.97,0.96,2.52,0.95,3.48-0.02c0.96-0.97,0.96-2.52-0.01-3.48   C135.98,620.29,134.42,620.29,133.46,621.26z"/>
	<path class="st0" d="M119.68,592.1l46.11-39.92c-1.27,0.14-2.55,0.28-3.82,0.43l-43.72,37.85c-0.4-0.34-0.84-0.62-1.3-0.85   c-1.17-0.57-2.46-0.78-3.73-0.63c-1.27,0.15-2.51,0.67-3.55,1.57c-0.69,0.6-1.23,1.31-1.61,2.08c-0.57,1.17-0.79,2.47-0.63,3.73   c0.15,1.27,0.67,2.51,1.57,3.54c0.6,0.69,1.31,1.23,2.09,1.62c1.16,0.57,2.46,0.79,3.72,0.63c1.27-0.15,2.51-0.67,3.55-1.58   c0.69-0.59,1.23-1.31,1.61-2.08c0.57-1.16,0.79-2.46,0.63-3.72C120.49,593.84,120.18,592.92,119.68,592.1z M118.33,596.72   c-0.23,0.83-0.68,1.6-1.38,2.21c-0.47,0.41-1,0.69-1.54,0.87c-0.83,0.27-1.72,0.28-2.55,0.06c-0.83-0.22-1.6-0.69-2.21-1.39   c-0.4-0.47-0.69-0.99-0.87-1.54c-0.27-0.83-0.28-1.71-0.06-2.54c0.22-0.83,0.68-1.6,1.38-2.21c0.47-0.4,0.99-0.69,1.54-0.87   c0.83-0.27,1.71-0.29,2.55-0.06c0.83,0.22,1.6,0.69,2.2,1.38c0.41,0.47,0.69,1,0.87,1.55C118.53,595,118.55,595.89,118.33,596.72z"/>
	<path class="st0" d="M490.77,705.61c-1.34,0.44-2.06,1.89-1.62,3.23c0.44,1.34,1.89,2.06,3.23,1.62s2.06-1.89,1.62-3.23   C493.55,705.89,492.1,705.17,490.77,705.61z"/>
	<path class="st0" d="M338.31,680.43c-0.43-0.42-0.95-0.75-1.53-0.98l2.47-14.89l-6.3-8.81l13.46-81.22   c-0.69-0.25-1.38-0.52-2.08-0.77l-13.17,79.49l-4.7-6.56l12.41-74.85c-0.69-0.24-1.39-0.48-2.09-0.71l-12.61,76.1l6.49,9.06   l-8.48,51.14c-0.53,0-1.05,0.06-1.55,0.18c-1.25,0.3-2.39,0.96-3.27,1.89c-0.88,0.93-1.51,2.13-1.72,3.48   c-0.15,0.9-0.11,1.79,0.09,2.63c0.3,1.26,0.96,2.39,1.89,3.27c0.93,0.87,2.12,1.5,3.48,1.72c0.9,0.15,1.8,0.11,2.63-0.09   c1.26-0.31,2.39-0.96,3.27-1.9c0.88-0.93,1.51-2.12,1.73-3.47c0.15-0.9,0.11-1.8-0.09-2.63c-0.31-1.26-0.97-2.39-1.9-3.28   c-0.68-0.64-1.5-1.15-2.42-1.46l8.12-49l4.51,6.3l-2.32,14.01c-0.29,0.01-0.59,0.05-0.87,0.12c-0.94,0.23-1.78,0.72-2.44,1.41   c-0.65,0.69-1.11,1.58-1.28,2.59c-0.11,0.67-0.08,1.33,0.07,1.96c0.23,0.94,0.72,1.78,1.41,2.44c0.69,0.66,1.58,1.12,2.59,1.29   c0.67,0.11,1.33,0.08,1.96-0.07c0.94-0.22,1.78-0.71,2.43-1.41c0.66-0.69,1.12-1.58,1.29-2.58c0.11-0.68,0.08-1.34-0.07-1.96   C339.49,681.93,339,681.08,338.31,680.43z M324.56,710.28c0.73,0.47,1.31,1.14,1.67,1.92c0.36,0.78,0.5,1.67,0.35,2.59   c-0.1,0.61-0.32,1.16-0.63,1.65c-0.47,0.73-1.13,1.32-1.92,1.67c-0.78,0.36-1.67,0.49-2.58,0.34c-0.62-0.1-1.17-0.32-1.66-0.63   c-0.73-0.46-1.31-1.13-1.67-1.91c-0.36-0.79-0.5-1.67-0.35-2.59c0.1-0.61,0.32-1.17,0.63-1.65c0.47-0.73,1.14-1.32,1.92-1.67   c0.78-0.36,1.67-0.49,2.58-0.34C323.52,709.76,324.07,709.98,324.56,710.28z M337.64,684.47c-0.06,0.37-0.2,0.72-0.39,1.02   c-0.29,0.45-0.71,0.82-1.19,1.04c-0.49,0.22-1.03,0.31-1.6,0.22c-0.38-0.06-0.72-0.2-1.03-0.39c-0.45-0.29-0.82-0.71-1.04-1.19   c-0.22-0.49-0.3-1.03-0.21-1.6c0.06-0.38,0.2-0.72,0.39-1.03c0.29-0.45,0.71-0.82,1.19-1.04c0.48-0.22,1.03-0.3,1.6-0.21   c0.38,0.06,0.72,0.2,1.03,0.39c0.45,0.28,0.81,0.7,1.03,1.19C337.65,683.35,337.74,683.9,337.64,684.47z"/>
	<path class="st0" d="M686.44,489.51c-0.85-0.33-1.74-0.46-2.6-0.42c-1.29,0.05-2.53,0.48-3.57,1.22c-0.76,0.54-1.42,1.25-1.9,2.09   l-122.72-46.25c-0.17,0.71-0.34,1.42-0.5,2.14l122.45,46.15c-0.11,0.52-0.15,1.04-0.13,1.55c0.05,1.3,0.49,2.54,1.22,3.58   c0.74,1.05,1.79,1.89,3.07,2.37c0.86,0.32,1.74,0.45,2.6,0.42c1.3-0.05,2.54-0.48,3.58-1.22c1.05-0.74,1.88-1.79,2.37-3.07   c0.32-0.86,0.46-1.74,0.42-2.61c-0.05-1.29-0.48-2.53-1.22-3.57C688.78,490.83,687.73,489.99,686.44,489.51z M688.28,497.29   c-0.22,0.58-0.54,1.08-0.94,1.5c-0.6,0.63-1.37,1.06-2.21,1.26c-0.84,0.2-1.73,0.16-2.6-0.16c-0.58-0.22-1.08-0.54-1.5-0.94   c-0.63-0.6-1.07-1.37-1.27-2.21c-0.2-0.84-0.16-1.73,0.17-2.6c0.22-0.58,0.55-1.08,0.94-1.51c0.6-0.62,1.36-1.06,2.2-1.26   c0.84-0.2,1.74-0.16,2.6,0.16c0.58,0.22,1.08,0.55,1.5,0.94c0.63,0.6,1.07,1.37,1.27,2.21   C688.64,495.52,688.6,496.42,688.28,497.29z"/>
	<path class="st0" d="M247.4,59.37c1.28-0.47,1.93-1.89,1.46-3.17c-0.47-1.28-1.89-1.93-3.17-1.46c-1.28,0.47-1.93,1.89-1.45,3.17   C244.71,59.19,246.12,59.84,247.4,59.37z"/>
	<path class="st0" d="M713.79,478.24c-0.79-1.06-1.9-1.9-3.24-2.36c-0.89-0.31-1.81-0.43-2.7-0.37c-1.34,0.09-2.61,0.56-3.67,1.35   c-0.77,0.58-1.43,1.33-1.91,2.21l-73.26-25.43l-10.64,5.15l-60.66-21.06c-0.19,0.73-0.37,1.46-0.55,2.18l61.36,21.3l10.63-5.15   l72.38,25.13c-0.09,0.54-0.12,1.08-0.08,1.61c0.09,1.34,0.56,2.61,1.36,3.66c0.79,1.06,1.91,1.91,3.24,2.37   c0.89,0.31,1.81,0.42,2.7,0.37c1.34-0.09,2.61-0.57,3.67-1.36c1.05-0.79,1.9-1.9,2.36-3.24c0.31-0.89,0.42-1.81,0.37-2.7   C715.06,480.57,714.59,479.3,713.79,478.24z M712.66,483.87c-0.21,0.6-0.53,1.13-0.93,1.58c-0.6,0.67-1.38,1.14-2.24,1.37   c-0.87,0.23-1.79,0.21-2.7-0.1c-0.6-0.21-1.14-0.54-1.58-0.93c-0.67-0.6-1.14-1.38-1.37-2.24c-0.23-0.87-0.21-1.79,0.1-2.69   c0.21-0.61,0.53-1.14,0.93-1.58c0.6-0.67,1.39-1.14,2.25-1.37c0.86-0.23,1.79-0.21,2.69,0.1c0.6,0.21,1.13,0.53,1.58,0.93   c0.67,0.6,1.14,1.39,1.37,2.25C713,482.04,712.98,482.97,712.66,483.87z"/>
	<path class="st0" d="M723.81,346.7c-1.41,0.07-2.5,1.26-2.43,2.67s1.26,2.5,2.67,2.43c1.41-0.07,2.5-1.26,2.43-2.67   C726.41,347.72,725.22,346.63,723.81,346.7z"/>
	<path class="st0" d="M727.49,343.38c-1.13-0.69-2.47-1.06-3.89-0.99c-0.95,0.04-1.84,0.28-2.64,0.66c-1.21,0.58-2.21,1.49-2.9,2.62   c-0.5,0.82-0.84,1.77-0.95,2.76l-77.47,3.63l-7.96,8.74l-46.58,2.18c-0.37,0.76-0.73,1.53-1.09,2.3l48.71-2.28l7.96-8.73   l76.53-3.59c0.12,0.53,0.29,1.05,0.52,1.53c0.58,1.21,1.49,2.21,2.62,2.9c1.13,0.69,2.48,1.06,3.89,1   c0.95-0.04,1.84-0.28,2.64-0.66c1.21-0.58,2.21-1.5,2.9-2.63c0.68-1.13,1.06-2.47,0.99-3.89c-0.04-0.95-0.28-1.84-0.66-2.64   C729.54,345.07,728.63,344.07,727.49,343.38z M728.26,350.84c-0.3,0.84-0.86,1.58-1.57,2.11c-0.72,0.53-1.58,0.86-2.54,0.91   c-0.64,0.03-1.25-0.07-1.81-0.28c-0.84-0.31-1.58-0.86-2.11-1.57c-0.53-0.72-0.86-1.58-0.91-2.54c-0.03-0.64,0.07-1.25,0.27-1.81   c0.31-0.84,0.87-1.58,1.58-2.11s1.58-0.86,2.54-0.91c0.64-0.03,1.25,0.07,1.81,0.27c0.84,0.31,1.58,0.87,2.11,1.58   s0.86,1.58,0.91,2.54C728.57,349.67,728.47,350.28,728.26,350.84z"/>
	<path class="st0" d="M449.22,659.98l-10.48-37.01c-0.94-0.66-1.88-1.32-2.82-1.97l11.2,39.56c-1.41,0.88-2.14,2.62-1.67,4.31   c0.57,2.05,2.7,3.24,4.75,2.67s3.24-2.7,2.67-4.75C452.41,661.11,450.88,660,449.22,659.98z"/>
	<path class="st0" d="M709.14,479.95c-1.33-0.46-2.79,0.24-3.25,1.57c-0.46,1.33,0.24,2.79,1.57,3.25c1.33,0.46,2.79-0.24,3.25-1.57   S710.47,480.41,709.14,479.95z"/>
	<path class="st0" d="M496.73,703.5c-0.88-1.01-2.04-1.72-3.31-2.08c-0.93-0.26-1.93-0.33-2.92-0.17l-16.78-50.45   c-1.12-1-2.23-1.99-3.36-2.98l18,54.14c-0.48,0.26-0.93,0.56-1.33,0.91c-1.01,0.88-1.72,2.04-2.08,3.31   c-0.36,1.27-0.35,2.67,0.09,4.02c0.3,0.9,0.77,1.69,1.35,2.36c0.89,1.01,2.04,1.72,3.32,2.08c1.27,0.35,2.66,0.35,4.01-0.1   c0.9-0.3,1.69-0.77,2.36-1.35c1.01-0.89,1.72-2.04,2.08-3.32c0.36-1.27,0.35-2.66-0.1-4.01   C497.79,704.97,497.32,704.17,496.73,703.5z M495.23,710.85c-0.54,0.7-1.29,1.26-2.2,1.56c-0.61,0.2-1.22,0.27-1.82,0.22   c-0.89-0.06-1.75-0.4-2.46-0.94c-0.71-0.55-1.26-1.29-1.56-2.2c-0.2-0.61-0.27-1.23-0.22-1.82c0.07-0.9,0.4-1.75,0.94-2.46   c0.55-0.71,1.29-1.26,2.2-1.56c0.61-0.2,1.22-0.27,1.82-0.23c0.9,0.07,1.75,0.41,2.46,0.95c0.7,0.54,1.26,1.29,1.56,2.2   c0.2,0.61,0.27,1.22,0.23,1.82C496.11,709.29,495.77,710.15,495.23,710.85z"/>
	<path class="st0" d="M376.5,726.63c-1.41-0.02-2.56,1.11-2.58,2.52c-0.02,1.41,1.11,2.56,2.52,2.58c1.41,0.02,2.56-1.11,2.58-2.52   C379.03,727.8,377.9,726.64,376.5,726.63z"/>
	<path class="st0" d="M359.5,672.78c-0.76-0.59-1.66-1.03-2.64-1.25l1.45-28.79l-7.82-8.87l3.55-56.46   c-0.73-0.29-1.46-0.58-2.19-0.86l-3.66,58.11l7.81,8.87l-1.39,27.86c-0.54,0.06-1.07,0.17-1.57,0.35   c-1.26,0.44-2.36,1.24-3.16,2.29c-0.81,1.04-1.33,2.35-1.42,3.76c-0.06,0.94,0.08,1.86,0.37,2.7c0.45,1.26,1.25,2.36,2.29,3.17   c1.05,0.8,2.34,1.32,3.75,1.41c0.94,0.06,1.86-0.08,2.7-0.37c1.26-0.45,2.36-1.24,3.17-2.29c0.81-1.04,1.32-2.34,1.41-3.75   c0.06-0.94-0.07-1.86-0.37-2.7C361.35,674.69,360.55,673.6,359.5,672.78z M359.45,680.28c-0.4,0.8-1.03,1.47-1.8,1.92   s-1.67,0.68-2.62,0.62c-0.64-0.04-1.23-0.2-1.77-0.48c-0.8-0.39-1.47-1.03-1.92-1.79c-0.45-0.77-0.68-1.67-0.62-2.62   c0.04-0.64,0.21-1.24,0.48-1.77c0.4-0.8,1.03-1.47,1.79-1.92c0.77-0.45,1.67-0.68,2.62-0.62c0.64,0.04,1.24,0.2,1.77,0.47   c0.8,0.4,1.47,1.03,1.92,1.8c0.45,0.77,0.68,1.67,0.62,2.62C359.88,679.15,359.71,679.75,359.45,680.28z"/>
	<path class="st0" d="M380.37,723.53c-0.79-0.55-1.71-0.94-2.7-1.11l0.87-77.55l-8.26-8.45l0.58-52.01   c-0.74-0.33-1.49-0.64-2.23-0.97l-0.6,53.89l8.26,8.45l-0.86,76.61c-0.54,0.09-1.06,0.23-1.55,0.43c-1.24,0.5-2.29,1.36-3.04,2.45   c-0.76,1.09-1.2,2.41-1.22,3.83c-0.01,0.95,0.18,1.85,0.51,2.68c0.51,1.24,1.37,2.29,2.45,3.05c1.09,0.75,2.41,1.2,3.82,1.21   c0.95,0.01,1.85-0.18,2.68-0.51c1.24-0.51,2.29-1.36,3.05-2.46c0.76-1.09,1.2-2.41,1.21-3.82c0.01-0.95-0.17-1.85-0.51-2.68   C382.32,725.34,381.46,724.28,380.37,723.53z M380.7,731.02c-0.36,0.82-0.96,1.52-1.7,2.01s-1.63,0.77-2.59,0.76   c-0.64-0.01-1.24-0.14-1.79-0.38c-0.82-0.35-1.52-0.95-2.01-1.69c-0.49-0.75-0.77-1.63-0.76-2.59c0.01-0.64,0.15-1.25,0.38-1.79   c0.36-0.82,0.95-1.52,1.69-2.01c0.75-0.49,1.63-0.77,2.59-0.76c0.65,0.01,1.25,0.14,1.79,0.38c0.82,0.36,1.52,0.96,2.01,1.7   c0.49,0.74,0.77,1.63,0.76,2.59C381.07,729.87,380.94,730.47,380.7,731.02z"/>
	<path class="st0" d="M355.47,675.68c-1.41-0.09-2.62,0.98-2.71,2.39c-0.09,1.41,0.98,2.62,2.39,2.71s2.62-0.98,2.71-2.39   C357.95,676.98,356.88,675.77,355.47,675.68z"/>
	<path class="st0" d="M434.63,677.95c-0.5-0.82-1.22-1.48-2.08-1.9c-0.54-0.26-1.14-0.42-1.76-0.47l-2.18-14.94l-8.68-6.48   l-6.98-47.96c-0.8-0.48-1.6-0.95-2.41-1.42l6.92,47.54l-6.47-4.82l-6.75-46.33c-0.8-0.45-1.59-0.9-2.39-1.34l7.12,48.88l8.94,6.66   l7.47,51.3c-0.5,0.16-0.98,0.38-1.42,0.65c-1.1,0.67-1.99,1.65-2.54,2.79c-0.56,1.15-0.79,2.48-0.58,3.84   c0.13,0.91,0.44,1.74,0.89,2.48c0.67,1.11,1.65,1.99,2.8,2.54c1.15,0.55,2.48,0.78,3.84,0.58c0.9-0.13,1.74-0.45,2.48-0.89   c1.11-0.67,1.99-1.65,2.54-2.8c0.56-1.15,0.79-2.48,0.59-3.83c-0.13-0.91-0.45-1.74-0.89-2.48c-0.67-1.11-1.65-1.99-2.8-2.54   c-0.84-0.41-1.78-0.64-2.75-0.65l-7.16-49.15l6.21,4.63l2.05,14.05c-0.27,0.1-0.54,0.23-0.79,0.38c-0.82,0.5-1.48,1.23-1.9,2.08   c-0.41,0.85-0.58,1.84-0.43,2.86c0.1,0.67,0.33,1.29,0.66,1.84c0.5,0.82,1.23,1.48,2.08,1.89c0.86,0.42,1.85,0.59,2.86,0.44   c0.67-0.1,1.29-0.33,1.85-0.67c0.82-0.5,1.48-1.22,1.89-2.08c0.42-0.86,0.59-1.85,0.44-2.85   C435.2,679.12,434.97,678.5,434.63,677.95z M428.53,708.68c0.84,0.22,1.59,0.69,2.17,1.32c0.58,0.63,0.98,1.44,1.12,2.36   c0.09,0.61,0.05,1.21-0.1,1.77c-0.22,0.84-0.68,1.6-1.32,2.18c-0.63,0.58-1.44,0.98-2.35,1.11c-0.62,0.09-1.21,0.05-1.77-0.1   c-0.83-0.21-1.59-0.68-2.17-1.31c-0.58-0.64-0.98-1.44-1.12-2.36c-0.09-0.61-0.05-1.21,0.1-1.77c0.22-0.84,0.68-1.6,1.32-2.18   c0.63-0.58,1.44-0.98,2.36-1.11C427.38,708.5,427.97,708.54,428.53,708.68z M433.09,681.2c-0.14,0.52-0.42,0.99-0.82,1.35   c-0.4,0.36-0.89,0.61-1.46,0.69c-0.38,0.06-0.75,0.03-1.1-0.06c-0.52-0.14-0.99-0.42-1.35-0.82c-0.36-0.4-0.6-0.89-0.69-1.46   c-0.06-0.38-0.03-0.75,0.06-1.1c0.14-0.52,0.42-0.99,0.82-1.35c0.39-0.36,0.89-0.6,1.46-0.69c0.38-0.06,0.75-0.03,1.1,0.06   c0.52,0.13,0.99,0.42,1.34,0.82c0.36,0.39,0.61,0.89,0.69,1.46C433.2,680.49,433.17,680.86,433.09,681.2z"/>
	<path class="st0" d="M427.76,715.44c1.35-0.2,2.28-1.45,2.08-2.8c-0.2-1.35-1.44-2.28-2.79-2.09c-1.35,0.2-2.28,1.45-2.09,2.8   C425.16,714.7,426.42,715.64,427.76,715.44z"/>
	<path class="st0" d="M394.73,653.38l-5.54-60.25c-0.76-0.38-1.53-0.76-2.29-1.14l5.66,61.59c-1.55,0.61-2.58,2.19-2.42,3.93   c0.19,2.12,2.07,3.68,4.19,3.48s3.68-2.07,3.48-4.19C397.67,655.07,396.37,653.7,394.73,653.38z"/>
	<path class="st0" d="M391.42,706.49c-0.8-0.48-1.72-0.79-2.68-0.89l-6.83-116.07c-0.75-0.36-1.49-0.71-2.24-1.07l6.9,117.26   c-0.52,0.11-1.01,0.29-1.47,0.51c-1.16,0.58-2.12,1.48-2.77,2.57c-0.66,1.1-1,2.4-0.92,3.77c0.05,0.91,0.29,1.77,0.67,2.55   c0.58,1.16,1.48,2.13,2.57,2.77c1.1,0.66,2.4,0.99,3.77,0.91c0.91-0.05,1.78-0.29,2.55-0.67c1.15-0.57,2.12-1.47,2.77-2.57   c0.66-1.1,1-2.4,0.91-3.77c-0.05-0.91-0.29-1.78-0.67-2.55C393.41,708.1,392.51,707.14,391.42,706.49z M392.24,713.69   c-0.29,0.82-0.82,1.54-1.5,2.06c-0.68,0.52-1.52,0.85-2.45,0.9c-0.62,0.04-1.2-0.05-1.75-0.24c-0.82-0.29-1.53-0.82-2.05-1.5   c-0.52-0.68-0.86-1.52-0.91-2.44c-0.04-0.62,0.06-1.21,0.25-1.75c0.29-0.82,0.81-1.53,1.5-2.06c0.68-0.52,1.52-0.85,2.44-0.9   c0.62-0.04,1.21,0.06,1.76,0.25c0.81,0.29,1.53,0.81,2.05,1.5c0.52,0.69,0.86,1.52,0.91,2.44   C392.53,712.56,392.43,713.15,392.24,713.69z"/>
	<path class="st0" d="M57.12,239.94c0.83,0.4,1.7,0.6,2.55,0.64c1.3,0.06,2.57-0.27,3.67-0.91c0.8-0.47,1.52-1.12,2.07-1.91   l44.79,21.45l-7.3,2.57l-12.81-6.13c0.07-0.28,0.11-0.58,0.12-0.87c0.04-0.96-0.2-1.91-0.67-2.73c-0.48-0.82-1.21-1.51-2.13-1.95   c-0.61-0.29-1.26-0.45-1.9-0.48c-0.96-0.04-1.91,0.2-2.73,0.67c-0.82,0.48-1.52,1.21-1.96,2.13c-0.29,0.61-0.45,1.26-0.48,1.91   c-0.05,0.96,0.19,1.91,0.68,2.73c0.48,0.82,1.21,1.52,2.12,1.96c0.62,0.3,1.27,0.45,1.91,0.48c0.96,0.05,1.91-0.19,2.73-0.67   c0.52-0.3,0.99-0.71,1.37-1.2l13.61,6.52l10.21-3.59l74.2,35.53c0.16-0.73,0.32-1.46,0.47-2.19l-71.77-34.37l7.61-2.68l65.3,31.27   c0.14-0.74,0.28-1.47,0.42-2.21l-65.6-31.41l-10.51,3.7L66.36,235.8c0.15-0.51,0.23-1.02,0.26-1.54c0.06-1.29-0.26-2.57-0.91-3.66   c-0.64-1.1-1.62-2.04-2.86-2.62c-0.83-0.4-1.69-0.61-2.55-0.64c-1.29-0.06-2.57,0.26-3.67,0.9c-1.1,0.65-2.03,1.62-2.62,2.86   c-0.39,0.82-0.6,1.7-0.64,2.55c-0.06,1.3,0.26,2.57,0.91,3.67C54.91,238.42,55.89,239.35,57.12,239.94z M87.79,255.75   c-0.17,0.35-0.39,0.64-0.66,0.88c-0.4,0.36-0.9,0.59-1.43,0.66c-0.53,0.08-1.08,0.01-1.6-0.24c-0.34-0.16-0.64-0.4-0.87-0.66   c-0.36-0.4-0.59-0.91-0.67-1.43c-0.08-0.53-0.01-1.08,0.24-1.6c0.17-0.35,0.4-0.64,0.66-0.88c0.4-0.36,0.91-0.59,1.43-0.67   c0.53-0.08,1.08,0,1.6,0.25c0.35,0.17,0.64,0.39,0.88,0.66c0.36,0.4,0.59,0.91,0.67,1.43C88.11,254.68,88.03,255.23,87.79,255.75z    M55.97,232.03c0.27-0.56,0.63-1.04,1.07-1.42c0.64-0.57,1.45-0.94,2.3-1.07c0.86-0.12,1.74-0.01,2.58,0.39   c0.56,0.27,1.03,0.64,1.41,1.07c0.57,0.65,0.95,1.46,1.07,2.31c0.13,0.85,0.01,1.74-0.39,2.58c-0.27,0.56-0.63,1.03-1.06,1.42   c-0.65,0.57-1.46,0.94-2.31,1.07c-0.85,0.13-1.74,0.01-2.58-0.39c-0.56-0.27-1.03-0.63-1.41-1.07c-0.57-0.65-0.95-1.45-1.07-2.31   C55.45,233.75,55.57,232.86,55.97,232.03z"/>
	<path class="st0" d="M73.77,182.61c0.77,0.55,1.62,0.92,2.49,1.12c1.31,0.3,2.66,0.2,3.9-0.26c0.9-0.34,1.75-0.87,2.46-1.58   l63.06,45.14l11.66-1.93l36.77,26.33c0.08-0.87,0.15-1.73,0.23-2.6l-36.46-26.1l-11.66,1.92l-62.3-44.6c0.24-0.49,0.42-1,0.54-1.52   c0.3-1.31,0.2-2.66-0.26-3.9c-0.46-1.24-1.29-2.37-2.44-3.19c-0.77-0.55-1.62-0.92-2.49-1.12c-1.31-0.29-2.67-0.19-3.91,0.26   c-1.24,0.46-2.36,1.29-3.18,2.44c-0.55,0.77-0.92,1.62-1.12,2.49c-0.29,1.31-0.2,2.66,0.26,3.91   C71.79,180.66,72.61,181.78,73.77,182.61z M74.01,174.34c0.37-0.52,0.82-0.94,1.34-1.25c0.76-0.47,1.65-0.71,2.54-0.68   c0.89,0.03,1.77,0.3,2.55,0.86c0.52,0.37,0.94,0.83,1.25,1.34c0.47,0.77,0.71,1.65,0.68,2.54c-0.03,0.89-0.3,1.77-0.86,2.55   c-0.38,0.52-0.83,0.94-1.34,1.25c-0.77,0.47-1.66,0.7-2.55,0.68c-0.89-0.02-1.77-0.3-2.56-0.86c-0.52-0.37-0.94-0.83-1.25-1.34   c-0.47-0.77-0.7-1.66-0.68-2.55C73.17,176.01,73.45,175.12,74.01,174.34z"/>
	<path class="st0" d="M115.96,144.31c-0.93,0.99-0.88,2.55,0.11,3.48c0.99,0.93,2.55,0.89,3.48-0.1c0.93-0.99,0.89-2.55-0.1-3.49   C118.46,143.27,116.9,143.32,115.96,144.31z"/>
	<path class="st0" d="M195.93,210.28c-0.01-1.01-0.03-2.02-0.04-3.03l-23.73-22.35l-11.14,0.33l-37.74-35.54   c0.29-0.44,0.53-0.9,0.71-1.39c0.45-1.21,0.53-2.52,0.25-3.77c-0.28-1.25-0.93-2.44-1.93-3.37c-0.67-0.63-1.43-1.09-2.24-1.39   c-1.21-0.45-2.52-0.53-3.77-0.26c-1.24,0.28-2.43,0.93-3.37,1.93c-0.62,0.66-1.09,1.43-1.39,2.24c-0.45,1.22-0.53,2.52-0.25,3.77   c0.28,1.25,0.92,2.43,1.92,3.37c0.67,0.63,1.43,1.09,2.24,1.39c1.22,0.45,2.53,0.53,3.78,0.25c0.91-0.2,1.79-0.6,2.56-1.19   l36.15,34.05l-7.74,0.23l-10.34-9.73c0.15-0.25,0.28-0.52,0.38-0.79c0.33-0.91,0.39-1.88,0.19-2.81c-0.21-0.92-0.69-1.81-1.44-2.51   c-0.49-0.46-1.06-0.81-1.66-1.03c-0.91-0.33-1.88-0.39-2.81-0.19c-0.93,0.21-1.81,0.69-2.51,1.43c-0.46,0.49-0.81,1.06-1.03,1.67   c-0.34,0.9-0.4,1.88-0.18,2.81c0.21,0.93,0.69,1.81,1.43,2.51c0.5,0.47,1.07,0.81,1.67,1.03c0.9,0.34,1.88,0.4,2.81,0.19   c0.59-0.13,1.15-0.37,1.67-0.73l10.99,10.35l10.82-0.32l35.68,33.6c0.02-0.98,0.04-1.96,0.05-2.94l-32.66-30.76l8.07-0.24   L195.93,210.28z M122.16,146.72c-0.14,0.85-0.52,1.66-1.16,2.34c-0.42,0.45-0.91,0.79-1.44,1.03c-0.79,0.35-1.67,0.45-2.52,0.32   c-0.85-0.14-1.66-0.52-2.34-1.15c-0.45-0.42-0.78-0.92-1.02-1.45c-0.35-0.79-0.46-1.67-0.32-2.53c0.14-0.85,0.52-1.66,1.15-2.33   c0.43-0.45,0.92-0.79,1.45-1.03c0.79-0.35,1.67-0.46,2.52-0.32c0.85,0.14,1.66,0.52,2.34,1.15c0.45,0.42,0.79,0.92,1.02,1.45   C122.19,144.99,122.3,145.87,122.16,146.72z M138.34,173.77c-0.08,0.53-0.32,1.03-0.72,1.45c-0.26,0.28-0.57,0.49-0.9,0.64   c-0.49,0.22-1.03,0.29-1.56,0.2c-0.52-0.08-1.03-0.32-1.45-0.71c-0.28-0.26-0.49-0.57-0.63-0.89c-0.22-0.49-0.29-1.04-0.2-1.57   c0.09-0.53,0.32-1.03,0.71-1.45c0.26-0.28,0.57-0.49,0.9-0.64c0.49-0.22,1.04-0.29,1.57-0.2c0.53,0.09,1.03,0.32,1.45,0.72   c0.28,0.26,0.49,0.57,0.64,0.9C138.35,172.69,138.42,173.24,138.34,173.77z"/>
	<path class="st0" d="M76.28,179.1c1.15,0.82,2.74,0.56,3.56-0.59c0.82-1.15,0.56-2.74-0.59-3.56c-1.15-0.82-2.74-0.56-3.56,0.59   C74.87,176.69,75.13,178.28,76.28,179.1z"/>
	<path class="st0" d="M103.67,272.69c-1.99-0.76-4.21,0.24-4.97,2.23c-0.76,1.99,0.24,4.21,2.23,4.97c1.64,0.62,3.43,0.05,4.44-1.27   l78.95,29.99c0.17-0.71,0.35-1.42,0.52-2.13l-78.69-29.89C106.28,274.93,105.31,273.31,103.67,272.69z"/>
	<path class="st0" d="M159.34,239.28c-1.8-1.14-4.18-0.6-5.32,1.2c-1.14,1.8-0.6,4.18,1.2,5.32c1.48,0.94,3.35,0.74,4.6-0.36   l32.58,20.6c0.11-0.79,0.2-1.59,0.3-2.38l-31.73-20.06C161.45,241.99,160.82,240.22,159.34,239.28z"/>
	<path class="st0" d="M140.74,135.14c0.32-0.42,0.59-0.87,0.8-1.34c0.52-1.19,0.68-2.49,0.47-3.75c-0.2-1.26-0.77-2.48-1.71-3.48   c-0.63-0.67-1.37-1.17-2.15-1.52c-1.19-0.52-2.5-0.68-3.75-0.48c-1.26,0.2-2.48,0.78-3.47,1.72c-0.67,0.63-1.18,1.36-1.53,2.16   c-0.52,1.18-0.68,2.49-0.48,3.74c0.2,1.26,0.77,2.48,1.72,3.48c0.62,0.67,1.36,1.18,2.15,1.52c1.18,0.52,2.49,0.68,3.74,0.48   c0.92-0.15,1.82-0.5,2.62-1.04l56.43,59.89c-0.05-1.12-0.11-2.23-0.16-3.35L140.74,135.14z M139.81,132.11   c-0.19,0.84-0.62,1.63-1.29,2.26c-0.45,0.43-0.97,0.73-1.51,0.94c-0.81,0.3-1.69,0.36-2.53,0.17c-0.84-0.19-1.63-0.61-2.27-1.29   c-0.43-0.45-0.73-0.97-0.93-1.5c-0.3-0.81-0.36-1.7-0.17-2.54c0.19-0.84,0.62-1.63,1.29-2.26c0.45-0.42,0.96-0.73,1.5-0.94   c0.81-0.3,1.7-0.35,2.54-0.16c0.84,0.19,1.63,0.61,2.27,1.29c0.42,0.45,0.73,0.96,0.93,1.5C139.94,130.39,140,131.27,139.81,132.11   z"/>
	<path class="st0" d="M159.37,129.81c0.92-1.39,0.87-3.27-0.25-4.61c-1.37-1.63-3.8-1.85-5.43-0.48c-1.63,1.37-1.85,3.8-0.48,5.43   c1.12,1.34,2.97,1.72,4.49,1.06l36.3,42.98c-0.13-1.29-0.27-2.57-0.41-3.85L159.37,129.81z"/>
	<path class="st0" d="M39.96,460.06c-1.32,0.32-2.14,1.65-1.82,2.98s1.65,2.13,2.98,1.81c1.32-0.32,2.14-1.65,1.82-2.97   C42.62,460.55,41.29,459.74,39.96,460.06z"/>
	<path class="st0" d="M69.25,394.92c-2.12,0.17-3.7,2.03-3.53,4.15s2.03,3.7,4.15,3.53c1.74-0.14,3.12-1.42,3.46-3.05l79.92-6.65   c0.38-0.76,0.76-1.52,1.14-2.28l-81.22,6.76C72.56,395.82,71,394.77,69.25,394.92z"/>
	<path class="st0" d="M152.78,578.85l30.52-28.19c-1.16,0.07-2.31,0.16-3.47,0.24l-28.53,26.35c-0.24-0.16-0.5-0.31-0.76-0.43   c-0.88-0.4-1.85-0.52-2.79-0.38c-0.94,0.15-1.85,0.56-2.6,1.25c-0.5,0.46-0.89,1.01-1.15,1.59c-0.4,0.88-0.52,1.85-0.38,2.79   c0.15,0.94,0.56,1.85,1.26,2.6c0.46,0.5,1,0.88,1.59,1.15c0.88,0.4,1.85,0.52,2.79,0.38c0.94-0.15,1.85-0.56,2.6-1.26   c0.5-0.45,0.88-1,1.15-1.59c0.4-0.88,0.52-1.85,0.38-2.79C153.3,579.98,153.09,579.4,152.78,578.85z M151.2,581.96   c-0.13,0.52-0.39,1.01-0.81,1.4c-0.28,0.26-0.6,0.45-0.94,0.57c-0.51,0.18-1.06,0.21-1.58,0.09c-0.52-0.13-1-0.39-1.39-0.82   c-0.26-0.28-0.45-0.6-0.57-0.94c-0.19-0.5-0.22-1.05-0.09-1.58c0.12-0.52,0.39-1,0.82-1.39c0.28-0.26,0.6-0.45,0.93-0.57   c0.5-0.19,1.05-0.22,1.58-0.09c0.52,0.12,1.01,0.39,1.4,0.81c0.26,0.28,0.45,0.6,0.57,0.93   C151.29,580.89,151.32,581.44,151.2,581.96z"/>
	<path class="st0" d="M66.98,346.83c-0.02-0.29-0.07-0.58-0.15-0.86c-0.25-0.93-0.77-1.76-1.47-2.4c-0.71-0.63-1.61-1.07-2.62-1.21   c-0.67-0.09-1.33-0.05-1.95,0.12c-0.93,0.25-1.76,0.77-2.4,1.47c-0.64,0.71-1.08,1.61-1.22,2.62c-0.09,0.67-0.04,1.34,0.12,1.96   c0.25,0.93,0.76,1.76,1.47,2.39c0.71,0.64,1.61,1.08,2.62,1.22c0.68,0.09,1.34,0.04,1.96-0.13c0.93-0.25,1.76-0.76,2.4-1.47   c0.4-0.44,0.72-0.97,0.94-1.56l14.95,2.07l8.64-6.53l79.43,11.01c0.26-0.69,0.52-1.39,0.78-2.09l-77.75-10.78l6.44-4.87   l73.32,10.16c0.25-0.7,0.49-1.4,0.74-2.09l-74.65-10.35l-8.89,6.73l-51.35-7.12c-0.02-0.53-0.09-1.05-0.22-1.54   c-0.33-1.24-1.03-2.37-1.98-3.22c-0.95-0.86-2.17-1.45-3.52-1.63c-0.91-0.13-1.8-0.06-2.63,0.16c-1.25,0.33-2.37,1.03-3.22,1.98   c-0.85,0.95-1.44,2.16-1.63,3.52c-0.12,0.9-0.06,1.8,0.16,2.63c0.34,1.25,1.03,2.37,1.98,3.22c0.95,0.86,2.16,1.45,3.52,1.64   c0.91,0.13,1.8,0.06,2.63-0.16c1.25-0.34,2.37-1.03,3.22-1.98c0.62-0.69,1.11-1.53,1.39-2.45l49.19,6.82l-6.18,4.67L66.98,346.83z    M64.79,347.63c-0.05,0.38-0.18,0.73-0.36,1.04c-0.27,0.46-0.68,0.83-1.16,1.06c-0.48,0.23-1.03,0.34-1.6,0.26   c-0.38-0.05-0.73-0.18-1.03-0.36c-0.46-0.28-0.84-0.68-1.07-1.16c-0.23-0.48-0.34-1.03-0.26-1.6c0.05-0.38,0.18-0.73,0.36-1.04   c0.28-0.46,0.68-0.84,1.16-1.07c0.48-0.23,1.02-0.33,1.59-0.25c0.38,0.05,0.73,0.18,1.04,0.36c0.46,0.28,0.84,0.68,1.07,1.16   C64.78,346.51,64.87,347.06,64.79,347.63z M36.1,335.93c-0.08,0.61-0.29,1.17-0.58,1.67c-0.45,0.75-1.1,1.34-1.87,1.72   c-0.77,0.38-1.66,0.54-2.58,0.42c-0.61-0.08-1.17-0.29-1.67-0.59c-0.75-0.45-1.35-1.1-1.72-1.87c-0.38-0.77-0.54-1.65-0.41-2.57   c0.09-0.62,0.29-1.18,0.59-1.68c0.44-0.74,1.1-1.34,1.87-1.72c0.78-0.38,1.66-0.54,2.58-0.42c0.61,0.08,1.18,0.29,1.67,0.59   c0.75,0.45,1.35,1.1,1.72,1.87C36.07,334.12,36.23,335.01,36.1,335.93z"/>
	<path class="st0" d="M247.16,551.76l-21.88,32.81c-1.59-0.5-3.38,0.08-4.35,1.54c-1.18,1.77-0.7,4.16,1.07,5.34s4.16,0.7,5.34-1.07   c0.97-1.46,0.82-3.33-0.25-4.61l22.51-33.76C248.79,551.93,247.98,551.84,247.16,551.76z"/>
	<path class="st0" d="M32.03,332.87c-1.35-0.19-2.6,0.76-2.78,2.1s0.76,2.59,2.11,2.78c1.35,0.19,2.59-0.75,2.78-2.1   S33.38,333.06,32.03,332.87z"/>
	<path class="st0" d="M91.4,456.92l-13.8,3.33c-0.13-0.26-0.28-0.52-0.45-0.75c-0.58-0.77-1.36-1.36-2.25-1.69   c-0.89-0.33-1.89-0.41-2.89-0.17c-0.66,0.16-1.26,0.44-1.77,0.83c-0.77,0.58-1.36,1.36-1.69,2.25c-0.34,0.89-0.41,1.89-0.17,2.89   c0.16,0.66,0.45,1.26,0.83,1.78c0.57,0.78,1.35,1.36,2.25,1.69c0.89,0.34,1.89,0.41,2.88,0.18c0.67-0.16,1.26-0.45,1.78-0.83   c0.78-0.57,1.36-1.35,1.69-2.25c0.21-0.56,0.32-1.17,0.31-1.8l14.67-3.54l5.65-9.24l24.32-5.87c0.63-0.89,1.26-1.79,1.89-2.69   l-24.6,5.94l4.21-6.89L129.4,434c0.59-0.89,1.19-1.77,1.77-2.67l-28.32,6.84l-5.81,9.51l-50.39,12.17   c-0.21-0.49-0.46-0.94-0.77-1.35c-0.77-1.04-1.82-1.83-3.02-2.27c-1.2-0.45-2.55-0.56-3.88-0.23c-0.89,0.21-1.7,0.6-2.39,1.11   c-1.04,0.77-1.83,1.82-2.28,3.02c-0.44,1.19-0.55,2.54-0.23,3.88c0.21,0.88,0.6,1.69,1.11,2.39c0.77,1.04,1.82,1.83,3.02,2.27   c1.2,0.45,2.54,0.56,3.87,0.24c0.89-0.21,1.69-0.6,2.39-1.11c1.04-0.77,1.82-1.83,2.27-3.02c0.33-0.87,0.47-1.83,0.4-2.79   l48.28-11.66L91.4,456.92z M75.9,462.89c-0.08,0.53-0.33,1.02-0.69,1.41c-0.36,0.39-0.83,0.69-1.39,0.82   c-0.37,0.09-0.74,0.1-1.09,0.04c-0.53-0.09-1.03-0.33-1.42-0.69c-0.4-0.36-0.69-0.83-0.82-1.39c-0.09-0.38-0.1-0.74-0.04-1.1   c0.09-0.53,0.33-1.03,0.69-1.42c0.36-0.39,0.83-0.68,1.39-0.82c0.38-0.09,0.74-0.1,1.1-0.04c0.53,0.09,1.03,0.33,1.42,0.69   c0.39,0.36,0.68,0.83,0.82,1.39C75.95,462.17,75.96,462.54,75.9,462.89z M44.95,463.18c-0.14,0.86-0.54,1.65-1.11,2.28   s-1.34,1.11-2.24,1.33c-0.6,0.14-1.2,0.16-1.77,0.06c-0.86-0.14-1.65-0.53-2.29-1.11c-0.63-0.58-1.11-1.34-1.32-2.24   c-0.15-0.61-0.16-1.2-0.07-1.78c0.14-0.85,0.53-1.65,1.11-2.28c0.59-0.64,1.34-1.11,2.24-1.33c0.6-0.14,1.2-0.16,1.77-0.06   c0.86,0.14,1.66,0.53,2.29,1.11c0.63,0.58,1.11,1.34,1.32,2.25C45.02,462.01,45.04,462.6,44.95,463.18z"/>
	<path class="st0" d="M100.06,472.8L64.17,489.9c-1.11-1.24-2.95-1.66-4.52-0.91c-1.92,0.92-2.74,3.22-1.82,5.14   c0.92,1.92,3.22,2.73,5.14,1.82c1.58-0.75,2.41-2.44,2.15-4.09l31.37-14.95C97.68,475.55,98.87,474.18,100.06,472.8z"/>
	<path class="st0" d="M125.48,186.68c-1.1-0.88-2.71-0.7-3.59,0.4s-0.7,2.71,0.4,3.59c1.1,0.88,2.71,0.7,3.59-0.4   C126.76,189.17,126.58,187.56,125.48,186.68z"/>
	<path class="st0" d="M21.01,427.45c-0.94,0.13-1.81,0.45-2.57,0.91c-1.15,0.69-2.06,1.7-2.64,2.89c-0.58,1.19-0.82,2.56-0.62,3.96   c0.13,0.94,0.45,1.81,0.91,2.57c0.69,1.15,1.69,2.06,2.89,2.64c1.19,0.58,2.56,0.82,3.96,0.62c0.94-0.13,1.81-0.45,2.57-0.91   c1.15-0.69,2.06-1.69,2.64-2.88c0.42-0.87,0.67-1.84,0.69-2.84l76.78-10.87l7.1-9.45l31.61-4.47c0.46-0.82,0.94-1.64,1.39-2.46   l-34.24,4.85l-7.1,9.44l-75.86,10.74c-0.17-0.52-0.38-1.01-0.66-1.47c-0.69-1.15-1.69-2.06-2.88-2.64   C23.79,427.5,22.41,427.26,21.01,427.45z M26.54,433.6c0.09,0.64,0.05,1.25-0.1,1.83c-0.23,0.87-0.72,1.65-1.37,2.25   c-0.66,0.6-1.49,1-2.44,1.14c-0.63,0.09-1.25,0.05-1.83-0.1c-0.87-0.23-1.65-0.72-2.25-1.37c-0.6-0.66-1-1.49-1.14-2.44   c-0.09-0.63-0.05-1.25,0.11-1.83c0.22-0.87,0.71-1.65,1.37-2.25c0.67-0.6,1.49-1,2.44-1.14c0.63-0.09,1.25-0.04,1.83,0.11   c0.87,0.23,1.65,0.71,2.25,1.37C25.99,431.83,26.4,432.65,26.54,433.6z"/>
	<path class="st0" d="M284.92,73.28l14.59,52.48c0.94,0.67,1.87,1.35,2.82,2.01L287.02,72.7c1.42-0.88,2.15-2.61,1.68-4.3   c-0.57-2.05-2.69-3.25-4.74-2.69c-2.05,0.57-3.25,2.69-2.69,4.74C281.74,72.14,283.25,73.25,284.92,73.28z"/>
	<path class="st0" d="M354.31,131.83l1.69,27.82c0.75,0.37,1.5,0.73,2.25,1.1l-1.77-29.05c1.57-0.57,2.64-2.11,2.54-3.86   c-0.13-2.12-1.96-3.74-4.08-3.61c-2.12,0.13-3.74,1.96-3.61,4.08C351.43,130.05,352.69,131.45,354.31,131.83z"/>
	<path class="st0" d="M21.61,431.72c-1.4,0.2-2.37,1.49-2.17,2.88c0.2,1.4,1.49,2.37,2.88,2.17c1.4-0.2,2.37-1.49,2.17-2.88   S23.01,431.53,21.61,431.72z"/>
	<path class="st0" d="M38.75,384.08c-0.55-1.17-1.43-2.15-2.51-2.83c-1.08-0.68-2.38-1.05-3.75-1.01c-0.91,0.03-1.78,0.25-2.56,0.61   c-1.17,0.55-2.16,1.43-2.83,2.51c-0.68,1.08-1.05,2.38-1,3.75c0.03,0.91,0.25,1.78,0.61,2.57c0.54,1.17,1.42,2.15,2.5,2.83   c1.08,0.68,2.38,1.05,3.75,1c0.91-0.03,1.78-0.25,2.56-0.61c1.17-0.54,2.15-1.42,2.83-2.5c0.49-0.79,0.83-1.7,0.95-2.66   l118.52-4.24c0.35-0.74,0.69-1.47,1.03-2.21l-119.63,4.28C39.13,385.04,38.96,384.54,38.75,384.08z M36.9,388.47   c-0.31,0.8-0.85,1.51-1.54,2.02c-0.7,0.51-1.54,0.82-2.47,0.85c-0.62,0.02-1.21-0.09-1.75-0.29c-0.81-0.31-1.52-0.85-2.02-1.55   c-0.51-0.69-0.81-1.54-0.85-2.47c-0.02-0.62,0.08-1.2,0.28-1.75c0.31-0.81,0.85-1.51,1.55-2.02c0.69-0.51,1.54-0.82,2.47-0.85   c0.62-0.02,1.2,0.09,1.75,0.29c0.81,0.31,1.52,0.85,2.02,1.55c0.51,0.69,0.81,1.54,0.85,2.46C37.21,387.34,37.1,387.93,36.9,388.47   z"/>
	<path class="st0" d="M130.44,186.63c-0.39-1.26-1.16-2.43-2.27-3.32c-0.74-0.59-1.57-1-2.42-1.25c-1.29-0.36-2.65-0.33-3.91,0.06   c-1.26,0.39-2.43,1.16-3.31,2.26c-0.59,0.74-1,1.57-1.25,2.42c-0.36,1.29-0.34,2.65,0.06,3.91c0.39,1.26,1.16,2.43,2.26,3.31   c0.74,0.59,1.56,1.01,2.42,1.25c1.29,0.37,2.65,0.34,3.91-0.05c0.92-0.29,1.79-0.77,2.54-1.44l22.73,17.72l11.75-1.31l32.32,25.85   c0.05-0.92,0.1-1.84,0.15-2.76l-31.8-25.42l-11.74,1.3l-22.01-17.14c0.27-0.48,0.48-0.98,0.62-1.49   C130.86,189.25,130.84,187.89,130.44,186.63z M128.49,189.05c-0.08,0.89-0.4,1.76-1,2.51c-0.4,0.5-0.88,0.9-1.4,1.18   c-0.79,0.43-1.69,0.61-2.58,0.54c-0.89-0.07-1.76-0.4-2.51-1c-0.5-0.4-0.89-0.87-1.18-1.4c-0.43-0.79-0.61-1.69-0.54-2.58   s0.4-1.76,1-2.51c0.4-0.5,0.87-0.89,1.41-1.17c0.78-0.43,1.69-0.62,2.57-0.55c0.89,0.08,1.76,0.4,2.51,1   c0.5,0.4,0.89,0.88,1.17,1.41C128.37,187.27,128.56,188.16,128.49,189.05z"/>
	<path class="st0" d="M289.99,33.25c0.74,1.12,1.79,1.98,3,2.51c0.89,0.38,1.87,0.58,2.87,0.56l14.45,76.19l9.77,6.65l4.39,23.16   c0.86,0.52,1.72,1.05,2.58,1.57l-4.95-26.07l-9.76-6.65l-14.28-75.28c0.51-0.19,1-0.43,1.44-0.73c1.12-0.74,1.98-1.79,2.5-3   c0.53-1.21,0.71-2.6,0.44-3.99c-0.18-0.93-0.54-1.78-1.03-2.52c-0.75-1.11-1.8-1.98-3.01-2.51c-1.21-0.52-2.59-0.7-3.99-0.44   c-0.93,0.18-1.78,0.54-2.52,1.03c-1.11,0.75-1.98,1.79-2.5,3.01c-0.53,1.21-0.7,2.59-0.44,3.99   C289.14,31.65,289.49,32.51,289.99,33.25z M291.19,28.47c0.19-0.88,0.64-1.68,1.27-2.31c0.63-0.63,1.44-1.07,2.39-1.25   c0.63-0.12,1.24-0.11,1.83,0.02c0.88,0.18,1.68,0.63,2.31,1.26c0.63,0.64,1.07,1.44,1.25,2.39c0.12,0.63,0.1,1.25-0.02,1.83   c-0.19,0.88-0.63,1.68-1.26,2.31c-0.64,0.63-1.44,1.07-2.39,1.25c-0.63,0.12-1.25,0.11-1.83-0.02c-0.88-0.19-1.68-0.64-2.31-1.27   c-0.63-0.63-1.07-1.44-1.25-2.39C291.05,29.68,291.06,29.06,291.19,28.47z"/>
	<path class="st0" d="M325.65,45.07c0.64,1.13,1.59,2.03,2.72,2.62c0.83,0.43,1.76,0.69,2.73,0.73l12.21,104.69   c0.78,0.42,1.55,0.84,2.34,1.25L333.26,48.17c0.51-0.14,0.99-0.35,1.44-0.6c1.13-0.64,2.03-1.59,2.62-2.73   c0.59-1.13,0.86-2.45,0.7-3.81c-0.11-0.91-0.4-1.76-0.82-2.5c-0.64-1.13-1.6-2.04-2.73-2.62c-1.13-0.59-2.45-0.85-3.81-0.7   c-0.91,0.11-1.76,0.39-2.51,0.82c-1.12,0.64-2.03,1.59-2.62,2.72c-0.59,1.13-0.86,2.45-0.69,3.82   C324.93,43.47,325.22,44.32,325.65,45.07z M327.13,40.55c0.24-0.83,0.73-1.58,1.38-2.14s1.47-0.94,2.39-1.04   c0.61-0.07,1.21-0.02,1.76,0.14c0.83,0.24,1.57,0.73,2.13,1.38c0.56,0.65,0.94,1.47,1.05,2.39c0.07,0.61,0.01,1.21-0.15,1.76   c-0.24,0.83-0.72,1.58-1.38,2.14c-0.65,0.56-1.47,0.94-2.38,1.04c-0.62,0.07-1.21,0.01-1.77-0.15c-0.83-0.24-1.57-0.72-2.13-1.38   c-0.56-0.66-0.94-1.47-1.05-2.39C326.91,41.7,326.97,41.1,327.13,40.55z"/>
	<path class="st0" d="M317.41,89.74c0.69,1.09,1.69,1.95,2.85,2.48c0.85,0.39,1.79,0.6,2.76,0.6l9.03,54.01   c0.81,0.47,1.63,0.93,2.44,1.39l-9.32-55.77c0.5-0.17,0.97-0.4,1.41-0.67c1.09-0.7,1.95-1.69,2.48-2.85   c0.53-1.16,0.74-2.49,0.51-3.84c-0.15-0.9-0.48-1.73-0.94-2.46c-0.7-1.09-1.7-1.96-2.86-2.48c-1.16-0.53-2.49-0.73-3.84-0.5   c-0.9,0.15-1.73,0.48-2.47,0.94c-1.09,0.69-1.95,1.69-2.48,2.85c-0.53,1.16-0.74,2.49-0.5,3.85   C316.61,88.18,316.94,89.02,317.41,89.74z M318.67,85.16c0.2-0.84,0.65-1.61,1.27-2.21c0.62-0.59,1.42-1.01,2.33-1.16   c0.61-0.1,1.2-0.08,1.77,0.05c0.84,0.2,1.61,0.65,2.2,1.27c0.59,0.62,1.01,1.42,1.17,2.33c0.1,0.61,0.07,1.2-0.06,1.77   c-0.2,0.84-0.64,1.61-1.27,2.21c-0.62,0.59-1.42,1.01-2.33,1.16c-0.61,0.1-1.21,0.07-1.78-0.06c-0.84-0.2-1.61-0.64-2.2-1.27   c-0.59-0.63-1.01-1.42-1.17-2.33C318.5,86.31,318.53,85.71,318.67,85.16z"/>
	<path class="st0" d="M296.18,31.95c1.38-0.26,2.29-1.6,2.03-2.98c-0.26-1.38-1.6-2.29-2.98-2.03c-1.38,0.26-2.29,1.6-2.03,2.98   C293.46,31.3,294.79,32.21,296.18,31.95z"/>
	<path class="st0" d="M102,237.43c1.55,0.82,3.4,0.48,4.56-0.71l83.58,44.11c0.13-0.75,0.26-1.5,0.38-2.26l-82.94-43.77   c0.34-1.63-0.42-3.36-1.97-4.18c-1.88-1-4.21-0.28-5.21,1.59S100.12,236.43,102,237.43z"/>
	<path class="st0" d="M58.93,236.18c1.23,0.59,2.7,0.08,3.29-1.15c0.59-1.23,0.07-2.7-1.16-3.29c-1.23-0.59-2.7-0.07-3.29,1.16   C57.18,234.12,57.7,235.59,58.93,236.18z"/>
	<path class="st0" d="M73.72,293.65c0.61,0.73,1.44,1.3,2.43,1.57c0.65,0.19,1.31,0.24,1.95,0.16c0.96-0.11,1.85-0.51,2.59-1.12   c0.46-0.38,0.85-0.86,1.16-1.41l99.12,28.51c0.2-0.7,0.38-1.4,0.57-2.1l-99.1-28.51c0.01-0.29,0.01-0.59-0.03-0.88   c-0.11-0.96-0.51-1.85-1.12-2.59c-0.61-0.73-1.44-1.29-2.42-1.57c-0.66-0.19-1.32-0.24-1.96-0.16c-0.96,0.11-1.85,0.51-2.59,1.12   c-0.73,0.61-1.29,1.44-1.57,2.43c-0.19,0.65-0.24,1.31-0.16,1.95C72.71,292.02,73.11,292.92,73.72,293.65z M74.85,289.72   c0.11-0.37,0.28-0.7,0.51-0.98c0.33-0.42,0.79-0.73,1.3-0.9c0.51-0.16,1.06-0.18,1.61-0.02c0.36,0.1,0.7,0.28,0.97,0.5   c0.42,0.33,0.73,0.79,0.9,1.3c0.16,0.51,0.19,1.06,0.03,1.62c-0.1,0.36-0.28,0.69-0.5,0.97c-0.34,0.42-0.8,0.73-1.3,0.9   c-0.51,0.16-1.06,0.19-1.62,0.03c-0.37-0.11-0.69-0.28-0.98-0.51c-0.42-0.34-0.73-0.8-0.9-1.3   C74.71,290.82,74.69,290.27,74.85,289.72z"/>
	<path class="st0" d="M357.64,27.17c0.8,0.54,1.72,0.92,2.71,1.08v77.55l8.36,8.36v51.46c0.75,0.34,1.49,0.67,2.24,1v-53.39   l-8.35-8.36V28.25c0.54-0.09,1.06-0.24,1.55-0.45c1.23-0.52,2.28-1.39,3.01-2.48c0.74-1.09,1.18-2.43,1.18-3.84   c0-0.95-0.2-1.85-0.54-2.67c-0.53-1.23-1.4-2.28-2.49-3.02c-1.09-0.74-2.42-1.17-3.83-1.17c-0.95,0-1.85,0.2-2.67,0.54   c-1.23,0.53-2.28,1.39-3.02,2.49c-0.74,1.09-1.17,2.42-1.17,3.84c0,0.95,0.19,1.85,0.54,2.67   C355.68,25.38,356.55,26.43,357.64,27.17z M357.23,19.68c0.35-0.83,0.94-1.54,1.68-2.03c0.74-0.5,1.62-0.79,2.58-0.79   c0.64,0,1.24,0.13,1.79,0.36c0.83,0.34,1.54,0.93,2.03,1.67c0.5,0.74,0.79,1.62,0.79,2.58c0,0.64-0.13,1.25-0.36,1.79   c-0.35,0.83-0.93,1.54-1.67,2.03c-0.74,0.5-1.62,0.79-2.58,0.79c-0.65,0-1.25-0.13-1.79-0.36c-0.83-0.35-1.54-0.94-2.03-1.68   c-0.5-0.74-0.79-1.62-0.79-2.58C356.87,20.84,357,20.24,357.23,19.68z"/>
	<path class="st0" d="M91.34,322.79c-2.1-0.36-4.09,1.05-4.45,3.15c-0.36,2.1,1.05,4.09,3.15,4.45c1.73,0.3,3.38-0.6,4.11-2.1   l80.39,13.8c0.24-0.69,0.46-1.39,0.69-2.09l-80.71-13.86C94.32,324.48,93.06,323.08,91.34,322.79z"/>
</g>

</svg>