<?xml version="1.0" encoding="utf-8"?>
<!-- Generator: Adobe Illustrator 24.3.2, SVG Export Plug-In . SVG Version: 6.00 Build 0)  -->
<svg version="1.1" id="Layer_1" xmlns="http://www.w3.org/2000/svg" xmlns:xlink="http://www.w3.org/1999/xlink" x="0px" y="0px"
	 viewBox="0 0 28.06 29.25" style="enable-background:new 0 0 28.06 29.25;" xml:space="preserve">
<style type="text/css">
	.st0{filter:url(#Adobe_OpacityMaskFilter);}
	.st1{fill:#020203;}
	.st2{mask:url(#SVGID_1_);}
	.st3{fill:#E6E6E6;}
	.st4{fill:#4E4D4D;}
	.st5{filter:url(#Adobe_OpacityMaskFilter_1_);}
	.st6{mask:url(#SVGID_2_);fill:#448332;}
	.st7{filter:url(#Adobe_OpacityMaskFilter_2_);}
	.st8{mask:url(#SVGID_3_);fill:#448332;}
	.st9{fill:#9A9999;}
	.st10{fill:url(#SVGID_4_);}
	.st11{opacity:0;fill:#3D3D3D;}
	.st12{opacity:0.0323;fill:#434343;}
	.st13{opacity:0.0645;fill:#484848;}
	.st14{opacity:0.0968;fill:#4D4D4D;}
	.st15{opacity:0.129;fill:#535353;}
	.st16{opacity:0.1613;fill:#585858;}
	.st17{opacity:0.1935;fill:#5E5E5E;}
	.st18{opacity:0.2258;fill:#636363;}
	.st19{opacity:0.2581;fill:#696969;}
	.st20{opacity:0.2903;fill:#6E6E6E;}
	.st21{opacity:0.3226;fill:#737373;}
	.st22{opacity:0.3548;fill:#797979;}
	.st23{opacity:0.3871;fill:#7E7E7E;}
	.st24{opacity:0.4194;fill:#848484;}
	.st25{opacity:0.4516;fill:#898989;}
	.st26{opacity:0.4839;fill:#8F8F8F;}
	.st27{opacity:0.5161;fill:#949494;}
	.st28{opacity:0.5484;fill:#999999;}
	.st29{opacity:0.5806;fill:#9F9F9F;}
	.st30{opacity:0.6129;fill:#A4A4A4;}
	.st31{opacity:0.6452;fill:#AAAAAA;}
	.st32{opacity:0.6774;fill:#AFAFAF;}
	.st33{opacity:0.7097;fill:#B5B5B5;}
	.st34{opacity:0.7419;fill:#BABABA;}
	.st35{opacity:0.7742;fill:#BFBFBF;}
	.st36{opacity:0.8065;fill:#C5C5C5;}
	.st37{opacity:0.8387;fill:#CACACA;}
	.st38{opacity:0.871;fill:#D0D0D0;}
	.st39{opacity:0.9032;fill:#D5D5D5;}
	.st40{opacity:0.9355;fill:#DBDBDB;}
	.st41{opacity:0.9677;fill:#E0E0E0;}
	.st42{opacity:0.5;}
	.st43{opacity:0;fill:#FFFFFF;}
	.st44{opacity:0.0476;fill:#FFFFFF;}
	.st45{opacity:0.0952;fill:#FFFFFF;}
	.st46{opacity:0.1429;fill:#FFFFFF;}
	.st47{opacity:0.1905;fill:#FFFFFF;}
	.st48{opacity:0.2381;fill:#FFFFFF;}
	.st49{opacity:0.2857;fill:#FFFFFF;}
	.st50{opacity:0.3333;fill:#FFFFFF;}
	.st51{opacity:0.381;fill:#FFFFFF;}
	.st52{opacity:0.4286;fill:#FFFFFF;}
	.st53{opacity:0.4762;fill:#FFFFFF;}
	.st54{opacity:0.5238;fill:#FFFFFF;}
	.st55{opacity:0.5714;fill:#FFFFFF;}
	.st56{opacity:0.619;fill:#FFFFFF;}
	.st57{opacity:0.6667;fill:#FFFFFF;}
	.st58{opacity:0.7143;fill:#FFFFFF;}
	.st59{opacity:0.7619;fill:#FFFFFF;}
	.st60{opacity:0.8095;fill:#FFFFFF;}
	.st61{opacity:0.8571;fill:#FFFFFF;}
	.st62{opacity:0.9048;fill:#FFFFFF;}
	.st63{opacity:0.9524;fill:#FFFFFF;}
	.st64{fill:#FFFFFF;}
	.st65{fill:url(#SVGID_5_);}
</style>
<g>
	<defs>
		<filter id="Adobe_OpacityMaskFilter" filterUnits="userSpaceOnUse" x="2.37" y="4.13" width="24.51" height="24.51">
			<feFlood  style="flood-color:white;flood-opacity:1" result="back"/>
			<feBlend  in="SourceGraphic" in2="back" mode="normal"/>
		</filter>
	</defs>
	<mask maskUnits="userSpaceOnUse" x="2.37" y="4.13" width="24.51" height="24.51" id="SVGID_1_">
		<g class="st0">
			<path class="st1" d="M27.43,15.22c0,7.42-6.01,13.43-13.43,13.43S0.57,22.63,0.57,15.22C0.57,7.8,6.58,1.78,14,1.78
				S27.43,7.8,27.43,15.22z"/>
		</g>
	</mask>
	<g class="st2">
		<path class="st3" d="M26.88,16.38c0,6.77-5.49,12.26-12.26,12.26c-6.77,0-12.26-5.49-12.26-12.26c0-6.77,5.49-12.26,12.26-12.26
			C21.4,4.13,26.88,9.61,26.88,16.38z"/>
	</g>
	<circle class="st1" cx="14" cy="15.22" r="11.53"/>
	<path class="st4" d="M14,25.91c-2.86,0-5.54-1.11-7.57-3.13c-2.02-2.02-3.13-4.71-3.13-7.57c0-2.86,1.11-5.54,3.13-7.56
		C8.46,5.63,11.14,4.52,14,4.52c2.86,0,5.54,1.11,7.56,3.13c2.02,2.02,3.13,4.71,3.13,7.56c0,2.86-1.11,5.54-3.13,7.57
		C19.55,24.8,16.86,25.91,14,25.91z M14,4.55c-2.85,0-5.53,1.11-7.54,3.12c-2.01,2.01-3.12,4.69-3.12,7.54s1.11,5.53,3.12,7.54
		c2.01,2.01,4.69,3.12,7.54,3.12c2.85,0,5.53-1.11,7.54-3.12c2.01-2.01,3.12-4.69,3.12-7.54s-1.11-5.53-3.12-7.54
		C19.53,5.66,16.85,4.55,14,4.55z"/>
	<defs>
		<filter id="Adobe_OpacityMaskFilter_1_" filterUnits="userSpaceOnUse" x="3.71" y="4.93" width="20.58" height="20.58">
			<feFlood  style="flood-color:white;flood-opacity:1" result="back"/>
			<feBlend  in="SourceGraphic" in2="back" mode="normal"/>
		</filter>
	</defs>
	<mask maskUnits="userSpaceOnUse" x="3.71" y="4.93" width="20.58" height="20.58" id="SVGID_2_">
		<g class="st5">
			
				<rect x="13.57" y="2.74" transform="matrix(0.9812 -0.1929 0.1929 0.9812 -2.6387 3.088)" class="st1" width="1.94" height="24.72"/>
			
				<rect x="13.57" y="2.74" transform="matrix(0.6065 -0.7951 0.7951 0.6065 -6.2808 17.5018)" class="st1" width="1.94" height="24.72"/>
			
				<rect x="12.69" y="2.74" transform="matrix(-0.738 -0.6748 0.6748 -0.738 15.0843 36.0483)" class="st1" width="3.7" height="24.72"/>
		</g>
	</mask>
	<path class="st6" d="M14,25.5c-5.67,0-10.29-4.62-10.29-10.29S8.33,4.93,14,4.93c5.67,0,10.29,4.62,10.29,10.29S19.67,25.5,14,25.5
		z M14,5.55c-5.33,0-9.66,4.34-9.66,9.66s4.34,9.66,9.66,9.66s9.66-4.34,9.66-9.66S19.33,5.55,14,5.55z"/>
	<defs>
		<filter id="Adobe_OpacityMaskFilter_2_" filterUnits="userSpaceOnUse" x="4.88" y="6.1" width="18.24" height="18.23">
			<feFlood  style="flood-color:white;flood-opacity:1" result="back"/>
			<feBlend  in="SourceGraphic" in2="back" mode="normal"/>
		</filter>
	</defs>
	<mask maskUnits="userSpaceOnUse" x="4.88" y="6.1" width="18.24" height="18.23" id="SVGID_3_">
		<g class="st7">
			
				<rect x="14.19" y="4.24" transform="matrix(0.4618 0.887 -0.887 0.4618 21.4609 -4.5199)" class="st1" width="0.52" height="22.36"/>
			
				<rect x="14.19" y="4.24" transform="matrix(0.2429 0.9701 -0.9701 0.2429 25.9069 -2.344)" class="st1" width="0.52" height="22.36"/>
			
				<rect x="14.19" y="4.24" transform="matrix(-1.836970e-16 1 -1 -1.836970e-16 29.8794 0.9695)" class="st1" width="0.52" height="22.36"/>
			
				<rect x="12.73" y="4.24" transform="matrix(-0.732 0.6813 -0.6813 -0.732 35.5447 16.8681)" class="st1" width="3.44" height="22.36"/>
		</g>
	</mask>
	<path class="st8" d="M13.99,24.33c-1.93,0-3.86-0.61-5.51-1.86C6.54,21,5.29,18.86,4.97,16.44c-0.33-2.41,0.3-4.81,1.78-6.75
		c1.47-1.94,3.62-3.19,6.03-3.51c2.41-0.33,4.81,0.3,6.75,1.78c1.94,1.47,3.19,3.62,3.51,6.03c0.33,2.41-0.3,4.81-1.78,6.75
		C19.47,23.09,16.74,24.33,13.99,24.33z M14.02,6.28c-0.4,0-0.81,0.03-1.22,0.08c-2.36,0.32-4.46,1.54-5.91,3.44
		c-1.44,1.9-2.06,4.25-1.74,6.61c0.32,2.36,1.54,4.46,3.44,5.91c3.92,2.98,9.53,2.22,12.52-1.7c1.44-1.9,2.06-4.25,1.74-6.61
		c-0.32-2.36-1.54-4.46-3.44-5.91C17.84,6.91,15.96,6.28,14.02,6.28z"/>
	<path class="st9" d="M14.03,28.8c-3.62,0-7.03-1.41-9.59-3.97c-2.56-2.56-3.97-5.97-3.97-9.59c0-3.62,1.41-7.03,3.97-9.59
		s5.97-3.97,9.59-3.97s7.03,1.41,9.59,3.97c2.56,2.56,3.97,5.97,3.97,9.59c0,3.62-1.41,7.03-3.97,9.59
		C21.06,27.39,17.65,28.8,14.03,28.8z M14.03,2.01c-7.3,0-13.24,5.94-13.24,13.24c0,7.3,5.94,13.23,13.24,13.23
		s13.24-5.94,13.24-13.23C27.27,7.94,21.33,2.01,14.03,2.01z"/>
	<linearGradient id="SVGID_4_" gradientUnits="userSpaceOnUse" x1="14.0017" y1="28.709" x2="14.0017" y2="1.7222">
		<stop  offset="0" style="stop-color:#EEEBE8"/>
		<stop  offset="0" style="stop-color:#E7E3E0"/>
		<stop  offset="0.0255" style="stop-color:#D3CFCE"/>
		<stop  offset="0.0745" style="stop-color:#A4A0A1"/>
		<stop  offset="0.1419" style="stop-color:#625F63"/>
		<stop  offset="0.2244" style="stop-color:#1D1E22"/>
		<stop  offset="0.264" style="stop-color:#020203"/>
		<stop  offset="0.2673" style="stop-color:#040507"/>
		<stop  offset="0.3068" style="stop-color:#414046"/>
		<stop  offset="0.3417" style="stop-color:#7F7D81"/>
		<stop  offset="0.3708" style="stop-color:#B5B4B6"/>
		<stop  offset="0.3928" style="stop-color:#DBDADA"/>
		<stop  offset="0.4053" style="stop-color:#E9E9E9"/>
		<stop  offset="0.4442" style="stop-color:#DCDCDC"/>
		<stop  offset="0.5098" style="stop-color:#BBB9BC"/>
		<stop  offset="0.594" style="stop-color:#89878C"/>
		<stop  offset="0.6935" style="stop-color:#504E54"/>
		<stop  offset="0.8047" style="stop-color:#16171C"/>
		<stop  offset="0.852" style="stop-color:#020203"/>
		<stop  offset="1" style="stop-color:#D9DBDB"/>
		<stop  offset="1" style="stop-color:#B2B4B4"/>
	</linearGradient>
	<path class="st10" d="M14,28.71c-3.6,0-6.99-1.4-9.54-3.95c-2.55-2.55-3.95-5.94-3.95-9.54c0-3.6,1.4-6.99,3.95-9.54
		C7.01,3.13,10.4,1.72,14,1.72c3.6,0,6.99,1.4,9.54,3.95c2.55,2.55,3.95,5.94,3.95,9.54c0,3.6-1.4,6.99-3.95,9.54
		C20.99,27.31,17.61,28.71,14,28.71z M14,1.85c-3.57,0-6.93,1.39-9.45,3.92c-2.53,2.53-3.92,5.88-3.92,9.45s1.39,6.93,3.92,9.45
		c2.52,2.52,5.88,3.92,9.45,3.92s6.93-1.39,9.45-3.92c2.53-2.52,3.92-5.88,3.92-9.45s-1.39-6.93-3.92-9.45
		C20.93,3.24,17.57,1.85,14,1.85z"/>
	<g>
		<path class="st11" d="M13.31,0.56c2.06-0.08,3.65,1.78,3.68,2.05c0.05,0.29-1.27-0.11-3.3-0.15c-0.99-0.07-2.82,0.14-4.26,0.77
			c-1.47,0.56-2.55,1.53-2.56,1.4C6.84,4.56,7.83,3.18,9.21,2.2C10.56,1.17,12.31,0.53,13.31,0.56z"/>
		<path class="st12" d="M13.32,0.59c2-0.08,3.56,1.71,3.59,1.97c0.05,0.28-1.24-0.09-3.22-0.13c-0.96-0.07-2.73,0.13-4.14,0.71
			c-1.43,0.52-2.49,1.44-2.5,1.3c-0.03-0.07,0.94-1.37,2.28-2.3C10.65,1.18,12.35,0.57,13.32,0.59z"/>
		<path class="st13" d="M13.32,0.63c1.94-0.07,3.47,1.64,3.49,1.89c0.04,0.27-1.22-0.07-3.14-0.1c-0.93-0.07-2.65,0.12-4.02,0.67
			C8.27,3.57,7.23,4.42,7.22,4.29c-0.03-0.07,0.93-1.3,2.23-2.18C10.74,1.18,12.38,0.61,13.32,0.63z"/>
		<path class="st14" d="M13.33,0.66c1.89-0.07,3.37,1.56,3.4,1.81c0.04,0.26-1.19-0.05-3.06-0.08c-0.91-0.06-2.57,0.11-3.9,0.62
			C8.43,3.46,7.41,4.26,7.4,4.13C7.37,4.06,8.31,2.9,9.57,2.07C10.83,1.19,12.41,0.64,13.33,0.66z"/>
		<path class="st15" d="M13.34,0.7c1.83-0.07,3.28,1.49,3.31,1.73c0.04,0.25-1.16-0.03-2.97-0.06c-0.88-0.06-2.48,0.1-3.78,0.57
			C8.59,3.36,7.59,4.1,7.58,3.98C7.55,3.91,8.47,2.81,9.7,2.03C10.91,1.2,12.45,0.68,13.34,0.7z"/>
		<path class="st16" d="M13.35,0.73c1.77-0.06,3.18,1.42,3.21,1.65c0.04,0.24-1.14-0.02-2.89-0.05c-0.86-0.05-2.4,0.09-3.65,0.53
			C8.75,3.26,7.77,3.94,7.76,3.83c-0.02-0.07,0.87-1.1,2.06-1.84C11,1.21,12.48,0.71,13.35,0.73z"/>
		<path class="st17" d="M13.35,0.77c1.71-0.06,3.09,1.36,3.12,1.58c0.04,0.23-1.11,0-2.81-0.03c-0.83-0.05-2.32,0.08-3.53,0.49
			C8.91,3.16,7.96,3.79,7.95,3.69c-0.02-0.07,0.85-1.03,2-1.73C11.09,1.22,12.51,0.75,13.35,0.77z"/>
		<path class="st18" d="M13.36,0.8c1.66-0.05,2.99,1.29,3.02,1.5c0.04,0.22-1.08,0.01-2.72-0.01c-0.8-0.05-2.24,0.08-3.41,0.45
			c-1.18,0.33-2.1,0.91-2.11,0.81c-0.02-0.06,0.82-0.97,1.94-1.63C11.17,1.23,12.55,0.79,13.36,0.8z"/>
		<path class="st19" d="M13.37,0.84c1.6-0.05,2.9,1.22,2.92,1.42c0.04,0.21-1.05,0.02-2.64,0c-0.78-0.04-2.15,0.07-3.28,0.41
			c-1.14,0.3-2.03,0.84-2.04,0.74C8.3,3.35,9.12,2.5,10.2,1.89C11.26,1.24,12.58,0.82,13.37,0.84z"/>
		<path class="st20" d="M13.37,0.87c1.54-0.05,2.8,1.16,2.83,1.35c0.03,0.2-1.02,0.04-2.55,0.01c-0.75-0.04-2.07,0.06-3.16,0.37
			c-1.1,0.28-1.96,0.76-1.97,0.67c-0.02-0.06,0.77-0.85,1.81-1.43C11.35,1.25,12.62,0.86,13.37,0.87z"/>
		<path class="st21" d="M13.38,0.91c1.49-0.04,2.7,1.1,2.73,1.28c0.03,0.2-0.99,0.05-2.47,0.03c-0.73-0.04-1.99,0.05-3.04,0.34
			c-1.05,0.25-1.89,0.7-1.9,0.6C8.69,3.1,9.45,2.36,10.45,1.83C11.43,1.26,12.65,0.89,13.38,0.91z"/>
		<path class="st22" d="M13.39,0.94c1.43-0.04,2.61,1.03,2.63,1.21c0.03,0.19-0.96,0.06-2.38,0.04c-0.7-0.03-1.91,0.05-2.91,0.31
			C9.71,2.72,8.91,3.12,8.9,3.04C8.88,2.98,9.62,2.3,10.57,1.8C11.52,1.27,12.68,0.93,13.39,0.94z"/>
		<path class="st23" d="M13.39,0.98c1.38-0.03,2.51,0.97,2.53,1.14c0.03,0.18-0.93,0.06-2.3,0.05c-0.67-0.03-1.83,0.04-2.79,0.27
			c-0.97,0.2-1.74,0.57-1.75,0.48c-0.02-0.06,0.69-0.69,1.6-1.15C11.61,1.29,12.72,0.97,13.39,0.98z"/>
		<path class="st24" d="M13.4,1.01c1.32-0.03,2.41,0.91,2.43,1.07c0.03,0.17-0.9,0.07-2.21,0.06c-0.65-0.03-1.75,0.04-2.66,0.24
			C10.04,2.57,9.3,2.89,9.29,2.81c-0.02-0.06,0.66-0.63,1.53-1.06C11.69,1.3,12.75,1,13.4,1.01z"/>
		<path class="st25" d="M13.41,1.05c1.26-0.03,2.31,0.85,2.33,1c0.03,0.16-0.87,0.08-2.12,0.06C13,2.09,11.95,2.15,11.08,2.33
			C10.2,2.49,9.5,2.78,9.49,2.71c-0.02-0.05,0.63-0.58,1.46-0.98C11.78,1.31,12.78,1.04,13.41,1.05z"/>
		<path class="st26" d="M13.42,1.08c1.21-0.03,2.21,0.8,2.23,0.94c0.03,0.15-0.83,0.08-2.03,0.07c-0.59-0.02-1.59,0.03-2.42,0.19
			c-0.83,0.14-1.5,0.4-1.51,0.33C9.64,2.39,12.21,0.96,13.42,1.08z"/>
		<path class="st27" d="M13.42,1.12c1.15-0.02,2.11,0.74,2.13,0.87c0.02,0.14-0.8,0.09-1.94,0.07c-1.15-0.15-3.72,0.47-3.72,0.45
			C9.85,2.32,12.27,1,13.42,1.12z"/>
		<path class="st28" d="M13.43,1.15c1.1-0.02,2.01,0.68,2.03,0.81c0.02,0.13-0.77,0.09-1.86,0.08c-1.09-0.14-3.51,0.41-3.52,0.38
			C10.05,2.24,12.33,1.05,13.43,1.15z"/>
		<path class="st29" d="M13.44,1.19c1.04-0.02,1.91,0.63,1.93,0.75c0.02,0.12-0.73,0.09-1.77,0.08c-1.03-0.12-3.3,0.35-3.31,0.32
			C10.26,2.17,12.4,1.1,13.44,1.19z"/>
		<path class="st30" d="M13.44,1.22c0.98-0.02,1.81,0.58,1.83,0.69c0.02,0.11-0.7,0.09-1.68,0.08c-0.98-0.1-3.09,0.3-3.1,0.27
			C10.46,2.11,12.46,1.15,13.44,1.22z"/>
		<path class="st31" d="M13.45,1.26c0.93-0.01,1.71,0.53,1.73,0.63c0.02,0.1-0.66,0.09-1.59,0.08c-0.92-0.09-2.88,0.26-2.9,0.22
			C10.67,2.05,12.52,1.19,13.45,1.26z"/>
		<path class="st32" d="M13.46,1.29c0.87-0.01,1.61,0.47,1.63,0.57c0.02,0.1-0.63,0.09-1.5,0.08c-0.87-0.08-2.67,0.21-2.69,0.17
			C10.88,1.99,12.59,1.24,13.46,1.29z"/>
		<path class="st33" d="M13.46,1.33c0.82-0.01,1.51,0.42,1.52,0.51C15,1.92,14.4,1.92,13.58,1.91c-0.81-0.06-2.47,0.17-2.48,0.13
			C11.08,1.94,12.65,1.28,13.46,1.33z"/>
		<path class="st34" d="M13.47,1.36c0.76-0.01,1.41,0.38,1.42,0.45c0.01,0.08-0.55,0.08-1.32,0.07c-0.76-0.05-2.26,0.14-2.27,0.1
			C11.29,1.89,12.71,1.32,13.47,1.36z"/>
		<path class="st35" d="M13.48,1.4c0.71-0.01,1.3,0.33,1.32,0.4c0.01,0.07-0.52,0.07-1.22,0.07c-0.7-0.04-2.05,0.11-2.06,0.07
			C11.5,1.85,12.77,1.37,13.48,1.4z"/>
		<path class="st36" d="M13.49,1.43c0.65-0.01,1.2,0.28,1.21,0.34c0.01,0.06-0.48,0.07-1.13,0.06c-0.65-0.03-1.84,0.08-1.85,0.04
			C11.7,1.81,12.84,1.41,13.49,1.43z"/>
		<path class="st37" d="M13.49,1.47c0.6,0,1.1,0.24,1.11,0.29c0.01,0.05-0.44,0.06-1.04,0.06c-0.59-0.03-1.63,0.06-1.64,0.02
			C11.91,1.78,12.9,1.45,13.49,1.47z"/>
		<path class="st38" d="M13.5,1.5c0.54,0,1,0.2,1,0.24c0.01,0.05-0.41,0.05-0.95,0.05c-0.54-0.02-1.42,0.04-1.43,0.01
			C12.12,1.75,12.96,1.49,13.5,1.5z"/>
		<path class="st39" d="M13.51,1.54c0.49,0,0.89,0.15,0.9,0.19c0.01,0.04-0.37,0.04-0.85,0.04c-0.49-0.01-1.21,0.03-1.22,0
			C12.32,1.72,13.02,1.53,13.51,1.54z"/>
		<path class="st40" d="M13.51,1.57c0.43,0,0.79,0.11,0.8,0.14c0.01,0.03-0.33,0.03-0.76,0.03c-0.43-0.01-1,0.02-1.01-0.01
			C12.53,1.7,13.08,1.57,13.51,1.57z"/>
		<path class="st41" d="M13.52,1.61c0.38,0,0.69,0.07,0.69,0.09c0,0.02-0.29,0.02-0.67,0.01c-0.38,0-0.8,0.01-0.8-0.01
			C12.74,1.68,13.14,1.6,13.52,1.61z"/>
		<path class="st3" d="M13.53,1.64c0.32,0,0.58,0.03,0.58,0.05c0,0.01-0.25,0-0.58,0c-0.32,0-0.59,0.01-0.59,0
			C12.94,1.67,13.21,1.64,13.53,1.64z"/>
	</g>
	<g class="st42">
		<path class="st43" d="M10.43,28.07c-0.13-0.36,2.84,1.09,7.46-0.45c4.63-1.44,7.79-5.43,7.8-5.22c0.13,0.11-2.84,4.48-7.46,6.08
			C13.6,30.17,10.44,28.34,10.43,28.07z"/>
		<path class="st44" d="M10.7,28.18c-0.12-0.35,2.8,0.94,7.25-0.57c4.46-1.42,7.55-5.19,7.56-4.99c0.12,0.11-2.78,4.25-7.23,5.82
			C13.82,30.1,10.72,28.44,10.7,28.18z"/>
		<path class="st45" d="M10.98,28.28c-0.12-0.33,2.74,0.8,7.04-0.67c4.3-1.39,7.3-4.95,7.32-4.76c0.11,0.11-2.71,4.03-7,5.55
			C14.03,30.02,11,28.53,10.98,28.28z"/>
		<path class="st46" d="M11.26,28.37c-0.11-0.31,2.69,0.67,6.81-0.76c4.13-1.36,7.05-4.72,7.07-4.53c0.11,0.11-2.64,3.81-6.76,5.3
			C14.25,29.94,11.28,28.61,11.26,28.37z"/>
		<path class="st47" d="M11.55,28.46c-0.1-0.3,2.62,0.55,6.59-0.85c3.97-1.33,6.79-4.49,6.82-4.31c0.1,0.11-2.56,3.6-6.52,5.04
			C14.46,29.86,11.57,28.68,11.55,28.46z"/>
		<path class="st48" d="M11.84,28.53c-0.1-0.28,2.56,0.44,6.36-0.93c3.81-1.3,6.54-4.26,6.57-4.09c0.1,0.11-2.49,3.39-6.29,4.79
			C14.67,29.78,11.87,28.74,11.84,28.53z"/>
		<path class="st49" d="M12.13,28.59c-0.09-0.27,2.48,0.33,6.12-0.99c3.64-1.27,6.28-4.04,6.31-3.88c0.09,0.11-2.41,3.19-6.04,4.55
			C14.88,29.69,12.16,28.79,12.13,28.59z"/>
		<path class="st50" d="M12.43,28.64c-0.09-0.25,2.41,0.23,5.88-1.05c3.48-1.23,6.02-3.83,6.06-3.66c0.08,0.11-2.32,2.99-5.8,4.31
			C15.09,29.61,12.46,28.84,12.43,28.64z"/>
		<path class="st51" d="M12.73,28.69c-0.08-0.24,2.33,0.14,5.64-1.1c3.32-1.19,5.77-3.61,5.8-3.46c0.08,0.1-2.24,2.8-5.55,4.07
			C15.3,29.52,12.77,28.87,12.73,28.69z"/>
		<path class="st52" d="M13.04,28.72c-0.08-0.22,2.24,0.06,5.4-1.14c3.16-1.15,5.5-3.4,5.54-3.25c0.07,0.1-2.15,2.61-5.31,3.84
			C15.51,29.44,13.07,28.9,13.04,28.72z"/>
		<path class="st53" d="M13.35,28.75c-0.07-0.21,2.15-0.02,5.15-1.17c3-1.11,5.24-3.2,5.28-3.06c0.07,0.1-2.06,2.43-5.06,3.61
			C15.72,29.35,13.38,28.91,13.35,28.75z"/>
		<path class="st54" d="M13.66,28.76c-0.07-0.19,2.06-0.09,4.89-1.19c2.84-1.07,4.98-2.99,5.02-2.86c0.06,0.1-1.97,2.25-4.8,3.38
			C15.93,29.26,13.7,28.92,13.66,28.76z"/>
		<path class="st55" d="M13.97,28.77c-0.06-0.18,1.96-0.15,4.64-1.21c2.68-1.03,4.72-2.8,4.75-2.67c0.06,0.09-1.88,2.08-4.55,3.16
			C16.14,29.17,14.01,28.91,13.97,28.77z"/>
		<path class="st56" d="M14.29,28.76c-0.06-0.17,1.86-0.2,4.38-1.21c2.52-0.98,4.45-2.6,4.49-2.48c0.06,0.09-1.78,1.92-4.3,2.95
			C16.34,29.08,14.33,28.9,14.29,28.76z"/>
		<path class="st57" d="M14.61,28.75c-0.06-0.15,1.76-0.25,4.12-1.21c2.36-0.93,4.18-2.41,4.22-2.3c0.05,0.09-1.68,1.76-4.04,2.74
			C16.55,28.98,14.65,28.88,14.61,28.75z"/>
		<path class="st58" d="M14.93,28.73c-0.05-0.14,1.65-0.28,3.86-1.19c2.21-0.89,3.91-2.23,3.95-2.12c0.05,0.08-1.58,1.61-3.78,2.53
			C16.76,28.89,14.97,28.85,14.93,28.73z"/>
		<path class="st59" d="M15.26,28.7c-0.05-0.13,1.55-0.31,3.59-1.17c2.05-0.83,3.65-2.04,3.68-1.95c0.04,0.08-1.48,1.46-3.53,2.32
			C16.96,28.79,15.29,28.81,15.26,28.7z"/>
		<path class="st60" d="M15.58,28.66c-0.04-0.12,1.44-0.34,3.33-1.14c1.89-0.78,3.38-1.87,3.41-1.77c0.04,0.07-1.38,1.31-3.27,2.12
			C17.17,28.7,15.62,28.76,15.58,28.66z"/>
		<path class="st61" d="M15.91,28.61c-0.04-0.11,1.33-0.35,3.06-1.09c1.74-0.73,3.1-1.69,3.14-1.61c0.04,0.07-1.27,1.18-3,1.93
			C17.37,28.6,15.94,28.7,15.91,28.61z"/>
		<path class="st62" d="M16.24,28.55c-0.04-0.1,1.21-0.36,2.79-1.04c1.58-0.67,2.83-1.52,2.86-1.44c0.03,0.06-1.16,1.04-2.74,1.73
			C17.57,28.5,16.27,28.63,16.24,28.55z"/>
		<path class="st63" d="M16.57,28.48c-0.03-0.08,1.1-0.36,2.52-0.98c1.42-0.61,2.56-1.35,2.59-1.28c0.03,0.06-1.06,0.92-2.48,1.55
			C17.78,28.4,16.6,28.55,16.57,28.48z"/>
		<path class="st64" d="M16.9,28.4c-0.03-0.07,0.98-0.35,2.25-0.91c1.27-0.55,2.29-1.19,2.31-1.13c0.03,0.05-0.95,0.8-2.21,1.36
			C17.98,28.29,16.93,28.47,16.9,28.4z"/>
	</g>
	
		<linearGradient id="SVGID_5_" gradientUnits="userSpaceOnUse" x1="-3.0575" y1="24.5199" x2="-8.5537" y2="50.2007" gradientTransform="matrix(0.992 0.1259 -0.1259 0.992 18.7869 -23.1099)">
		<stop  offset="0" style="stop-color:#262626"/>
		<stop  offset="0.0638" style="stop-color:#212121"/>
		<stop  offset="0.3412" style="stop-color:#101010"/>
		<stop  offset="0.6408" style="stop-color:#050506"/>
		<stop  offset="1" style="stop-color:#020203"/>
	</linearGradient>
	<path class="st65" d="M15.82,1.92C8.47,0.98,1.74,6.19,0.81,13.55c-0.86,6.79,3.51,13.04,9.97,14.7c0,0,1.54-7.84,3.8-13.82
		c2.42-6.38,3.76-9.66,3.76-9.66l-0.07-0.2l0.6-1.89C17.91,2.31,16.89,2.05,15.82,1.92z"/>
</g>
</svg>
