<?xml version="1.0" standalone="no"?>
<!DOCTYPE svg PUBLIC "-//W3C//DTD SVG 1.1//EN" "http://www.w3.org/Graphics/SVG/1.1/DTD/svg11.dtd" >
<svg xmlns="http://www.w3.org/2000/svg" xmlns:xlink="http://www.w3.org/1999/xlink" version="1.1">
<metadata>
Created by FontForge 20201107 at Thu Jul  2 05:29:10 2020
 By Jimmy Wärting
Copyright \(c\) 2020 by Andriansyah MK. All rights reserved.
</metadata>
<defs>
<font id="Landasans-UltraLight" horiz-adv-x="311" >
  <font-face 
    font-family="Landasans Ultra Light"
    font-weight="200"
    font-stretch="condensed"
    units-per-em="1000"
    panose-1="0 0 3 6 0 0 0 0 0 0"
    ascent="800"
    descent="-200"
    x-height="517"
    cap-height="696"
    bbox="-184 -200 599 853"
    underline-thickness="50"
    underline-position="-100"
    stemh="35"
    stemv="37"
    unicode-range="U+0020-FB02"
  />
<missing-glyph horiz-adv-x="500" 
d="M410 800v-1000h-317v1000h317zM333 733h-165v-33h65v-37h-66v-33h166v33h-66v37h66v33zM267 604h-100v-104h166v34h-66v70zM233 570v-36h-33v36h33zM333 473h-166v-33h66v-37h-66v-33h100v70h66v33zM333 413h-33v-66h-133v-34h166v100zM333 291h-100v-56h34v23h33v-47
h-100v80h-33v-113h166v113zM333 118h-166v-113h166v113zM300 85v-47h-100v47h100zM333 -18h-166v-33h70l-70 -47v-33h166v33h-102l70 47h32v33z" />
    <glyph glyph-name="f_f_i" unicode="ffi" horiz-adv-x="518" 
d="M470 517v-517h-37v485h-143v-485h-36v485h-139v-485h-37v485h-51v32h51v63c0 73 42 116 108 116h18v-32h-13c-38 0 -76 -20 -76 -84v-63h139v63c0 73 41 116 107 116h18v-32h-13c-38 0 -76 -20 -76 -84v-63h180z" />
    <glyph glyph-name="fi" unicode="fi" horiz-adv-x="348" 
d="M300 517v-517h-36v483h-145v-483h-36v483h-56v34h56v63c0 73 41 116 107 116h39v-32h-34c-38 0 -76 -20 -76 -84v-63h181z" />
    <glyph glyph-name="fl" unicode="fl" horiz-adv-x="348" 
d="M300 696v-696h-36v664h-69c-38 0 -76 -20 -76 -84v-63h89v-34h-89v-483h-36v483h-56v34h56v63c0 73 41 116 107 116h110z" />
    <glyph glyph-name=".notdef" horiz-adv-x="500" 
d="M410 800v-1000h-317v1000h317zM333 733h-165v-33h65v-37h-66v-33h166v33h-66v37h66v33zM267 604h-100v-104h166v34h-66v70zM233 570v-36h-33v36h33zM333 473h-166v-33h66v-37h-66v-33h100v70h66v33zM333 413h-33v-66h-133v-34h166v100zM333 291h-100v-56h34v23h33v-47
h-100v80h-33v-113h166v113zM333 118h-166v-113h166v113zM300 85v-47h-100v47h100zM333 -18h-166v-33h70l-70 -47v-33h166v33h-102l70 47h32v33z" />
    <glyph glyph-name="A" unicode="A" horiz-adv-x="298" 
d="M238 0l-22 170h-130l-22 -170h-36l92 696h60l94 -696h-36zM91 206h120l-59 454h-3z" />
    <glyph glyph-name="Aacute" unicode="&#xc1;" horiz-adv-x="288" 
d="M126 726l43 112h41l-61 -112h-23zM28 0l88 696h61l88 -696h-37l-21 173h-121l-22 -173h-36zM89 209h114l-55 443h-3z" />
    <glyph glyph-name="Abreve" unicode="&#x102;" horiz-adv-x="298" 
d="M150 723c-50 0 -84 32 -78 100h29c-6 -50 14 -72 49 -72c36 0 56 22 51 72h29c5 -68 -29 -100 -80 -100zM238 0l-21 162h-132l-21 -162h-36l92 696h60l94 -696h-36zM89 197h123l-60 463h-3z" />
    <glyph glyph-name="Acircumflex" unicode="&#xc2;" horiz-adv-x="288" 
d="M148 808l-48 -82h-26l53 112h41l53 -112h-26zM177 696l88 -696h-37l-21 173h-121l-22 -173h-36l88 696h61zM89 209h114l-55 443h-3z" />
    <glyph glyph-name="Adieresis" unicode="&#xc4;" horiz-adv-x="288" 
d="M98 732v42h34v-42h-34zM159 732v42h35v-42h-35zM28 0l88 696h61l88 -696h-37l-21 173h-121l-22 -173h-36zM89 209h114l-55 443h-3z" />
    <glyph glyph-name="Agrave" unicode="&#xc0;" horiz-adv-x="288" 
d="M166 727h-23l-61 113h41zM28 0l88 696h61l88 -696h-37l-21 173h-121l-22 -173h-36zM89 209h114l-55 443h-3z" />
    <glyph glyph-name="Amacron" unicode="&#x100;" horiz-adv-x="298" 
d="M219 758v-31h-136v31h136zM238 0l-21 162h-132l-21 -162h-36l92 696h60l94 -696h-36zM89 197h123l-60 463h-3z" />
    <glyph glyph-name="Aogonek" unicode="&#x104;" horiz-adv-x="298" 
d="M218 -70c0 -13 20 -30 46 -6v-32c-38 -25 -81 2 -81 36c0 28 18 47 55 72l-21 162h-132l-21 -162h-36l92 696h60l94 -696c-46 -39 -56 -46 -56 -70zM89 197h123l-60 463h-3z" />
    <glyph glyph-name="Aring" unicode="&#xc5;" horiz-adv-x="288" 
d="M147 710c-33 0 -61 28 -61 61s28 60 61 60s60 -27 60 -60s-27 -61 -60 -61zM147 735c20 0 35 14 35 36c0 20 -15 35 -35 35c-21 0 -36 -15 -36 -35c0 -21 15 -36 36 -36zM28 0l88 696h61l88 -696h-37l-21 173h-121l-22 -173h-36zM89 209h114l-55 443h-3z" />
    <glyph glyph-name="Atilde" unicode="&#xc3;" horiz-adv-x="288" 
d="M92 729l-27 11c14 42 54 42 91 25c14 -5 41 -22 52 13l26 -11c-14 -44 -51 -44 -89 -26c-14 5 -43 21 -53 -12zM28 0l88 696h61l88 -696h-37l-21 173h-121l-22 -173h-36zM89 209h114l-55 443h-3z" />
    <glyph glyph-name="AE" unicode="&#xc6;" horiz-adv-x="390" 
d="M367 664h-143v-271h122v-34h-122v-326h143v-32h-180v172h-101l-22 -173h-36l88 696l72 1h179v-33zM89 209h98l1 455l-43 -1z" />
    <glyph glyph-name="B" unicode="B" horiz-adv-x="306" 
d="M215 370c35 -16 50 -53 50 -101v-163c0 -73 -41 -105 -108 -105h-109l1 696h104c68 0 108 -35 108 -107v-123c0 -44 -17 -79 -46 -97zM85 661v-276h66c36 0 74 22 74 84v117c0 62 -38 75 -73 75h-67zM228 112v154c0 62 -33 83 -67 83h-76v-313h70c35 0 73 13 73 76z" />
    <glyph glyph-name="C" unicode="C" horiz-adv-x="305" 
d="M150 -10c-67 0 -109 42 -109 119v477c0 75 42 118 109 118h5c67 0 109 -43 109 -119v-110h-37v111c0 63 -38 85 -74 85h-1c-36 0 -74 -22 -74 -85v-477c0 -63 38 -83 73 -83h3c35 0 73 20 73 83v140h37v-140c0 -77 -42 -119 -109 -119h-5z" />
    <glyph glyph-name="Cacute" unicode="&#x106;" horiz-adv-x="305" 
d="M121 726l43 112h41l-61 -112h-23zM150 -10c-67 0 -109 42 -109 119v477c0 75 42 118 109 118h5c67 0 109 -43 109 -119v-110h-37v111c0 63 -38 85 -74 85h-1c-36 0 -74 -22 -74 -85v-477c0 -63 38 -83 73 -83h3c35 0 73 20 73 83v140h37v-140c0 -77 -42 -119 -109 -119
h-5z" />
    <glyph glyph-name="Ccaron" unicode="&#x10c;" horiz-adv-x="305" 
d="M131 726l-53 112h26l48 -82l48 82h25l-53 -112h-41zM264 475h-37v111c0 63 -38 85 -74 85h-1c-36 0 -74 -22 -74 -85v-477c0 -63 38 -83 73 -83h3c35 0 73 20 73 83v140h37v-140c0 -77 -42 -119 -109 -119h-5c-67 0 -109 42 -109 119v477c0 75 42 118 109 118h5
c67 0 109 -43 109 -119v-110z" />
    <glyph glyph-name="Ccedilla" unicode="&#xc7;" horiz-adv-x="305" 
d="M264 475h-37v111c0 63 -38 85 -74 85h-1c-36 0 -74 -22 -74 -85v-475c0 -63 38 -83 73 -83h3c35 0 73 20 73 83v138h37v-138c0 -77 -41 -118 -108 -119l-16 -35h18c41 0 55 -22 55 -55c0 -31 -22 -55 -63 -55c-5 0 -16 0 -21 1v27c5 -1 10 -1 15 -1c28 0 42 11 42 28
c0 21 -3 32 -32 32h-42v22l17 37c-55 9 -88 49 -88 118v475c0 75 42 118 109 118h5c67 0 109 -43 109 -119v-110z" />
    <glyph glyph-name="Cdotaccent" unicode="&#x10a;" horiz-adv-x="305" 
d="M134 732v42h35v-42h-35zM150 -10c-67 0 -109 42 -109 119v477c0 75 42 118 109 118h5c67 0 109 -43 109 -119v-110h-37v111c0 63 -38 85 -74 85h-1c-36 0 -74 -22 -74 -85v-477c0 -63 38 -83 73 -83h3c35 0 73 20 73 83v140h37v-140c0 -77 -42 -119 -109 -119h-5z" />
    <glyph glyph-name="D" unicode="D" horiz-adv-x="307" 
d="M48 0v696h109c68 0 109 -32 109 -107v-483c0 -77 -41 -106 -109 -106h-109zM85 35h71c36 0 74 13 74 76v476c0 61 -38 75 -73 75h-72v-627z" />
    <glyph glyph-name="Eth" unicode="&#xd0;" horiz-adv-x="323" 
d="M173 696c67 0 109 -44 109 -118v-460c0 -77 -42 -118 -109 -118h-115v286h-47v30h47v380h115zM245 118v460c0 62 -37 84 -72 84h-78v-346h108v-30h-108v-253h77c36 0 73 22 73 85z" />
    <glyph glyph-name="Dcaron" unicode="&#x10e;" horiz-adv-x="307" 
d="M129 726l-53 112h26l48 -82l48 82h25l-52 -112h-42zM157 696c68 0 109 -44 109 -118v-460c0 -77 -41 -118 -109 -118h-109v696h109zM230 119v459c0 62 -38 84 -73 84h-72v-627h71c36 0 74 22 74 84z" />
    <glyph glyph-name="Dcroat" unicode="&#x110;" horiz-adv-x="323" 
d="M173 696c67 0 109 -44 109 -118v-460c0 -77 -42 -118 -109 -118h-115v286h-47v30h47v380h115zM245 118v460c0 62 -37 84 -72 84h-78v-346h108v-30h-108v-253h77c36 0 73 22 73 85z" />
    <glyph glyph-name="E" unicode="E" horiz-adv-x="251" 
d="M48 0l1 696h179v-35h-143v-267h122v-35h-122v-323h143v-36h-180z" />
    <glyph glyph-name="Eacute" unicode="&#xc9;" horiz-adv-x="251" 
d="M109 726l43 112h41l-61 -112h-23zM48 1l1 696h179v-33h-143v-271h122v-34h-122v-326h143v-32h-180z" />
    <glyph glyph-name="Ecaron" unicode="&#x11a;" horiz-adv-x="251" 
d="M115 726l-53 112h25l48 -82l48 82h26l-53 -112h-41zM228 662h-143v-268h122v-35h-122v-322h143v-36h-180l1 696h179v-35z" />
    <glyph glyph-name="Ecircumflex" unicode="&#xca;" horiz-adv-x="251" 
d="M137 809l-48 -82h-26l53 112h42l52 -112h-25zM228 664h-143v-271h122v-34h-122v-326h143v-32h-180l1 696h179v-33z" />
    <glyph glyph-name="Edieresis" unicode="&#xcb;" horiz-adv-x="251" 
d="M92 732v42h34v-42h-34zM153 732v42h35v-42h-35zM48 1l1 696h179v-33h-143v-271h122v-34h-122v-326h143v-32h-180z" />
    <glyph glyph-name="Edotaccent" unicode="&#x116;" horiz-adv-x="251" 
d="M121 732v42h34v-42h-34zM48 1l1 696h179v-35h-143v-268h122v-35h-122v-322h143v-36h-180z" />
    <glyph glyph-name="Egrave" unicode="&#xc8;" horiz-adv-x="251" 
d="M163 727h-23l-61 113h41zM48 1l1 696h179v-33h-143v-271h122v-34h-122v-326h143v-32h-180z" />
    <glyph glyph-name="Emacron" unicode="&#x112;" horiz-adv-x="251" 
d="M74 755h135v-28h-135v28zM48 0l1 696h179v-35h-143v-268h122v-35h-122v-322h143v-36h-180z" />
    <glyph glyph-name="Eogonek" unicode="&#x118;" horiz-adv-x="251" 
d="M228 661h-143v-268h122v-35h-122v-322h143v-36h-27c-46 -39 -56 -46 -56 -70c0 -13 20 -30 46 -6v-32c-38 -25 -81 2 -81 36c0 28 18 47 55 72h-117l1 696h179v-35z" />
    <glyph glyph-name="F" unicode="F" horiz-adv-x="251" 
d="M48 0l1 696h179v-34h-143v-268h122v-35h-122v-359h-37z" />
    <glyph glyph-name="G" unicode="G" horiz-adv-x="306" 
d="M264 477h-36v109c0 63 -38 85 -75 85h-1c-36 0 -74 -22 -74 -85v-477c0 -63 38 -83 73 -83h3c37 0 75 20 75 83v199h-78v35h113v-233c0 -77 -42 -120 -109 -120h-5c-67 0 -109 43 -109 120v475c0 76 42 119 109 119h5c67 0 109 -43 109 -119v-108z" />
    <glyph glyph-name="Gbreve" unicode="&#x11e;" horiz-adv-x="306" 
d="M151 723c-51 0 -84 32 -78 100h29c-6 -50 13 -72 49 -72c35 0 56 22 50 72h29c6 -68 -28 -100 -79 -100zM264 477h-36v109c0 63 -38 85 -75 85h-1c-36 0 -74 -22 -74 -85v-477c0 -63 38 -83 73 -83h3c37 0 75 20 75 83v199h-78v35h113v-233c0 -77 -42 -120 -109 -120h-5
c-67 0 -109 43 -109 120v475c0 76 42 119 109 119h5c67 0 109 -43 109 -119v-108z" />
    <glyph glyph-name="uni0122" unicode="&#x122;" horiz-adv-x="306" 
d="M264 477h-36v109c0 63 -38 85 -75 85h-1c-36 0 -74 -22 -74 -85v-477c0 -63 38 -83 73 -83h3c37 0 75 20 75 83v199h-78v35h113v-233c0 -77 -42 -120 -109 -120h-5c-67 0 -109 43 -109 120v475c0 76 42 119 109 119h5c67 0 109 -43 109 -119v-108zM136 -99v59h36v-59
l-15 -47h-17l14 47h-18z" />
    <glyph glyph-name="Gdotaccent" unicode="&#x120;" horiz-adv-x="306" 
d="M169 774v-42h-34v42h34zM264 477h-36v109c0 63 -38 85 -75 85h-1c-36 0 -74 -22 -74 -85v-477c0 -63 38 -83 73 -83h3c37 0 75 20 75 83v199h-78v35h113v-233c0 -77 -42 -120 -109 -120h-5c-67 0 -109 43 -109 120v475c0 76 42 119 109 119h5c67 0 109 -43 109 -119v-108
z" />
    <glyph glyph-name="H" unicode="H" horiz-adv-x="315" 
d="M48 1v696h37v-321h145v321h37v-696h-37v340h-145v-340h-37z" />
    <glyph glyph-name="Hbar" unicode="&#x126;" horiz-adv-x="296" 
d="M290 543v-30h-33v-513h-36v340h-146v-340h-36v513h-34v30h34v153h36v-153h146v153h36v-153h33zM221 376v137h-146v-137h146z" />
    <glyph glyph-name="I" unicode="I" horiz-adv-x="133" 
d="M48 0v696h36v-696h-36z" />
    <glyph glyph-name="Iacute" unicode="&#xcd;" horiz-adv-x="145" 
d="M51 726l43 112h41l-61 -112h-23zM48 0v696h36v-696h-36z" />
    <glyph glyph-name="Icircumflex" unicode="&#xce;" horiz-adv-x="190" 
d="M120 845l46 -126h-26l-44 104l-45 -104h-26l46 126h49zM77 0v696h37v-696h-37z" />
    <glyph glyph-name="Idieresis" unicode="&#xcf;" horiz-adv-x="109" 
d="M6 725v50h35v-50h-35zM68 725v50h34v-50h-34zM36 0v696h36v-696h-36z" />
    <glyph glyph-name="Idotaccent" unicode="&#x130;" horiz-adv-x="112" 
d="M39 732v42h34v-42h-34zM38 0v696h36v-696h-36z" />
    <glyph glyph-name="Igrave" unicode="&#xcc;" horiz-adv-x="121" 
d="M67 727h-20l-69 126h43zM36 0v696h36v-696h-36z" />
    <glyph glyph-name="Imacron" unicode="&#x12a;" horiz-adv-x="126" 
d="M-5 758h136v-31h-136v31zM45 0v696h37v-696h-37z" />
    <glyph glyph-name="Iogonek" unicode="&#x12e;" horiz-adv-x="122" 
d="M74 0c-46 -39 -56 -46 -56 -70c0 -13 20 -30 46 -6v-32c-38 -25 -81 2 -81 36c0 28 18 47 55 72v696h36v-696z" />
    <glyph glyph-name="J" unicode="J" horiz-adv-x="296" 
d="M148 -10c-67 0 -107 41 -107 119v124h37v-124c0 -62 38 -83 70 -83s70 21 70 83v587h37v-587c0 -75 -39 -119 -107 -119z" />
    <glyph glyph-name="K" unicode="K" horiz-adv-x="279" 
d="M48 0v696h37l-1 -325l2 -8l127 333h39l-127 -336l131 -360h-37l-116 315l-19 -56l1 -259h-37z" />
    <glyph glyph-name="uni0136" unicode="&#x136;" horiz-adv-x="279" 
d="M48 0v696h37l-1 -325l2 -8l127 333h39l-127 -336l131 -360h-37l-116 315l-19 -56l1 -259h-37zM124 -99v59h36v-59l-15 -47h-17l14 47h-18z" />
    <glyph glyph-name="L" unicode="L" horiz-adv-x="246" 
d="M48 1v695h37v-659h138v-36h-175z" />
    <glyph glyph-name="Lacute" unicode="&#x139;" horiz-adv-x="229" 
d="M46 726l43 112h41l-61 -112h-23zM38 1v695h36v-659h138v-36h-174z" />
    <glyph glyph-name="Lcaron" unicode="&#x13d;" horiz-adv-x="246" 
d="M115 726l-53 112h26l48 -82l48 82h25l-53 -112h-41zM85 37h138v-36h-175v695h37v-659z" />
    <glyph glyph-name="uni013B" unicode="&#x13b;" horiz-adv-x="246" 
d="M48 1v695h37v-659h138v-36h-175zM117 -99v59h36v-59l-15 -47h-17l14 47h-18z" />
    <glyph glyph-name="Lslash" unicode="&#x141;" horiz-adv-x="232" 
d="M73 33h141v-32h-178v296l-58 -30v36l58 30v363h37v-344l101 52v-35l-101 -53v-283z" />
    <glyph glyph-name="M" unicode="M" horiz-adv-x="360" 
d="M261 696h51v-696h-36v616l-80 -616h-32l-79 615l-1 -615h-36v696h49l83 -596z" />
    <glyph glyph-name="N" unicode="N" horiz-adv-x="315" 
d="M230 696h37v-696h-37l-145 555v-555h-37v696h37l145 -567v567z" />
    <glyph glyph-name="Nacute" unicode="&#x143;" horiz-adv-x="294" 
d="M194 838l-61 -112h-24l43 112h42zM220 696h36v-696h-36l-146 558v-558h-36v696h36l146 -571v571z" />
    <glyph glyph-name="Ncaron" unicode="&#x147;" horiz-adv-x="315" 
d="M137 726l-53 112h25l48 -82l48 82h26l-53 -112h-41zM230 696h37v-696h-37l-145 555v-555h-37v696h37l145 -567v567z" />
    <glyph glyph-name="uni0145" unicode="&#x145;" horiz-adv-x="315" 
d="M230 696h37v-696h-37l-145 555v-555h-37v696h37l145 -567v567zM135 -99v59h36v-59l-15 -47h-16l13 47h-18z" />
    <glyph glyph-name="Eng" unicode="&#x14a;" horiz-adv-x="315" 
d="M230 696h37v-725c0 -73 -30 -115 -97 -115h-31v31h30c34 0 61 13 61 83v30l-145 555v-555h-37v696h37l145 -567v567z" />
    <glyph glyph-name="Ntilde" unicode="&#xd1;" horiz-adv-x="324" 
d="M154 741c-14 5 -43 21 -53 -12l-26 11c14 42 53 42 90 25c14 -5 42 -22 52 13l26 -11c-14 -44 -51 -44 -89 -26zM239 696h37v-696h-37l-154 570v-570h-37v696h37l154 -570v570z" />
    <glyph glyph-name="O" unicode="O" 
d="M152 -10c-69 0 -111 42 -111 119v478c0 76 42 117 111 117h5c70 0 112 -41 112 -118v-477c0 -77 -42 -119 -112 -119h-5zM153 26h3c37 0 75 18 75 82v480c0 62 -38 83 -76 83h-1c-36 0 -74 -21 -74 -83v-480c0 -64 38 -82 73 -82z" />
    <glyph glyph-name="Oacute" unicode="&#xd3;" horiz-adv-x="291" 
d="M123 726l42 112h42l-61 -112h-23zM135 -10c-66 0 -108 42 -108 119v476c0 76 42 119 108 119h5c68 0 110 -43 110 -119v-476c0 -77 -42 -119 -110 -119h-5zM136 24h3c35 0 73 22 73 85v477c0 63 -38 85 -74 85h-1c-34 0 -72 -22 -72 -85v-477c0 -63 38 -85 71 -85z" />
    <glyph glyph-name="Ocircumflex" unicode="&#xd4;" horiz-adv-x="306" 
d="M152 809l-48 -83h-26l53 112h42l53 -112h-26zM155 704c67 0 109 -43 109 -119v-476c0 -77 -42 -119 -109 -119h-5c-67 0 -109 42 -109 119v476c0 76 42 119 109 119h5zM226 109v477c0 63 -38 85 -73 85h-1c-34 0 -72 -22 -72 -85v-477c0 -63 38 -85 71 -85h3
c34 0 72 22 72 85z" />
    <glyph glyph-name="Odieresis" unicode="&#xd6;" horiz-adv-x="291" 
d="M90 732v42h34v-42h-34zM151 732v42h35v-42h-35zM135 -10c-66 0 -108 42 -108 119v476c0 76 42 119 108 119h5c68 0 110 -43 110 -119v-476c0 -77 -42 -119 -110 -119h-5zM136 24h3c35 0 73 22 73 85v477c0 63 -38 85 -74 85h-1c-34 0 -72 -22 -72 -85v-477
c0 -63 38 -85 71 -85z" />
    <glyph glyph-name="Ograve" unicode="&#xd2;" horiz-adv-x="291" 
d="M132 727l-61 113h42l43 -113h-24zM135 -10c-66 0 -108 42 -108 119v476c0 76 42 119 108 119h5c68 0 110 -43 110 -119v-476c0 -77 -42 -119 -110 -119h-5zM136 24h3c35 0 73 22 73 85v477c0 63 -38 85 -74 85h-1c-34 0 -72 -22 -72 -85v-477c0 -63 38 -85 71 -85z" />
    <glyph glyph-name="Ohungarumlaut" unicode="&#x150;" 
d="M97 726l43 112h42l-62 -112h-23zM165 726l43 112h41l-61 -112h-23zM152 -10c-69 0 -111 42 -111 119v476c0 76 42 119 111 119h5c70 0 112 -43 112 -119v-476c0 -77 -42 -119 -112 -119h-5zM153 26h3c37 0 75 20 75 83v477c0 63 -38 85 -76 85h-1c-36 0 -74 -22 -74 -85
v-477c0 -63 38 -83 73 -83z" />
    <glyph glyph-name="Omacron" unicode="&#x14c;" 
d="M88 758h136v-31h-136v31zM152 -10c-69 0 -111 42 -111 119v476c0 76 42 119 111 119h5c70 0 112 -43 112 -119v-476c0 -77 -42 -119 -112 -119h-5zM153 26h3c37 0 75 20 75 83v477c0 63 -38 85 -76 85h-1c-36 0 -74 -22 -74 -85v-477c0 -63 38 -83 73 -83z" />
    <glyph glyph-name="Oslash" unicode="&#xd8;" horiz-adv-x="306" 
d="M217 689c31 -19 47 -54 47 -104v-476c0 -77 -42 -119 -109 -119h-5c-16 0 -30 2 -43 7l-30 -98l16 104c-33 18 -52 54 -52 106v476c0 76 42 119 109 119h5c20 0 37 -3 51 -10l23 74zM80 109c0 -29 8 -49 19 -62l90 591l6 20c-12 9 -27 13 -42 13h-1
c-34 0 -72 -22 -72 -85v-477zM226 109v477c0 25 -6 44 -16 57l-92 -610c10 -6 22 -8 33 -8h3c34 0 72 21 72 84z" />
    <glyph glyph-name="Otilde" unicode="&#xd5;" horiz-adv-x="306" 
d="M98 729l-26 11c14 42 53 42 90 25c14 -5 42 -22 52 13l26 -11c-14 -44 -50 -44 -89 -26c-14 5 -43 21 -53 -12zM150 -10c-67 0 -109 42 -109 119v476c0 76 42 119 109 119h5c67 0 109 -43 109 -119v-476c0 -77 -42 -119 -109 -119h-5zM151 24h3c34 0 72 22 72 85v477
c0 63 -38 85 -73 85h-1c-34 0 -72 -22 -72 -85v-477c0 -63 38 -85 71 -85z" />
    <glyph glyph-name="OE" unicode="&#x152;" horiz-adv-x="432" 
d="M408 662h-143v-268h122v-34h-122v-325h143v-34h-179v14c-18 -16 -44 -25 -74 -25h-5c-67 0 -109 42 -109 119v476c0 76 42 119 109 119h5c31 0 56 -9 75 -26v19h178v-35zM229 109v477c0 62 -38 85 -74 85l-1 -1c-36 0 -74 -22 -74 -84v-477c0 -63 38 -85 73 -85h2
c36 0 74 22 74 85z" />
    <glyph glyph-name="P" unicode="P" horiz-adv-x="289" 
d="M148 696c67 0 107 -31 107 -103v-195c0 -77 -39 -107 -107 -106h-63v-292h-37v696h100zM220 402v188c0 62 -39 73 -74 73h-61v-335h62c44 0 73 11 73 74z" />
    <glyph glyph-name="Thorn" unicode="&#xde;" horiz-adv-x="290" 
d="M141 569c67 0 108 -44 108 -116v-174c0 -77 -40 -116 -108 -115h-68v-227h-37v822h37v-190h68zM213 282v170c0 62 -38 84 -73 84h-67v-338h66c45 0 74 21 74 84z" />
    <glyph glyph-name="Q" unicode="Q" horiz-adv-x="308" 
d="M264 109c0 -71 -36 -113 -95 -118v-8c0 -70 31 -83 65 -83h30v-32h-31c-67 0 -97 43 -97 115v8c-59 5 -95 47 -95 118v476c0 76 42 119 109 119h5c67 0 109 -43 109 -119v-476zM80 109c0 -63 35 -83 71 -83h3c37 0 72 20 72 83v477c0 63 -35 85 -73 85h-1
c-37 0 -72 -22 -72 -85v-477z" />
    <glyph glyph-name="R" unicode="R" horiz-adv-x="299" 
d="M181 286l77 -285h-37l-74 281h-62v-282h-37v696h99c68 0 109 -32 109 -104v-202c0 -69 -31 -100 -75 -104zM85 319h63c44 0 73 11 73 74v197c0 62 -39 73 -73 73h-63v-344z" />
    <glyph glyph-name="Racute" unicode="&#x154;" horiz-adv-x="281" 
d="M193 838l-61 -112h-24l43 112h42zM170 286l77 -285h-36l-75 281h-62v-282h-36v696h99c67 0 109 -32 109 -104v-202c0 -69 -32 -100 -76 -104zM74 319h62c45 0 73 11 73 74v196c0 62 -39 74 -73 74h-62v-344z" />
    <glyph glyph-name="Rcaron" unicode="&#x158;" horiz-adv-x="299" 
d="M122 726l-52 112h25l48 -82l48 82h26l-53 -112h-42zM181 286l77 -285h-37l-74 281h-62v-282h-37v696h99c68 0 109 -32 109 -104v-202c0 -69 -31 -100 -75 -104zM85 319h62c44 0 73 11 73 74v196c0 62 -39 74 -74 74h-61v-344z" />
    <glyph glyph-name="uni0156" unicode="&#x156;" horiz-adv-x="299" 
d="M181 286l77 -285h-37l-74 281h-62v-282h-37v696h99c68 0 109 -32 109 -104v-202c0 -69 -31 -100 -75 -104zM85 319h62c44 0 73 11 73 74v196c0 62 -39 74 -74 74h-61v-344zM142 -84v29l15 -12l-7 -43l-5 -25h-17l10 51h4z" />
    <glyph glyph-name="S" unicode="S" horiz-adv-x="301" 
d="M148 -10c-62 0 -108 40 -108 118v121h36v-120c0 -63 38 -83 73 -83h3c35 0 73 20 73 83v112c0 132 -185 141 -185 295v73c0 76 46 115 109 115h5c64 0 107 -41 107 -116v-111h-36v109c0 63 -38 85 -74 85h-1c-36 0 -74 -22 -74 -85v-66c0 -131 185 -140 185 -297v-115
c0 -78 -44 -118 -108 -118h-5z" />
    <glyph glyph-name="Sacute" unicode="&#x15a;" horiz-adv-x="276" 
d="M110 726l43 112h41l-61 -112h-23zM136 -10c-63 0 -109 40 -109 118v123h36v-122c0 -63 38 -83 74 -83h3c34 0 72 20 72 83v112c0 132 -185 141 -185 295v73c0 76 46 115 110 115h5c63 0 107 -41 107 -116v-113h-36v111c0 63 -38 85 -74 85h-1c-36 0 -75 -22 -75 -85v-66
c0 -131 186 -140 186 -297v-115c0 -78 -45 -118 -108 -118h-5z" />
    <glyph glyph-name="Scaron" unicode="&#x160;" horiz-adv-x="301" 
d="M130 726l-53 112h26l48 -82l47 82h26l-53 -112h-41zM261 475h-36v111c0 63 -38 85 -74 85h-1c-36 0 -74 -22 -74 -85v-66c0 -131 185 -140 185 -297v-115c0 -78 -44 -118 -108 -118h-5c-62 0 -108 40 -108 118v123h36v-122c0 -63 38 -83 73 -83h3c35 0 73 20 73 83v112
c0 132 -185 141 -185 295v73c0 76 46 115 109 115h5c64 0 107 -41 107 -116v-113z" />
    <glyph glyph-name="Scedilla" unicode="&#x15e;" horiz-adv-x="276" 
d="M249 475h-36v111c0 63 -38 85 -74 85h-1c-36 0 -75 -22 -75 -85v-66c0 -131 186 -140 186 -297v-115c0 -78 -44 -118 -107 -118l-14 -32h18c41 0 55 -22 55 -54c0 -31 -23 -56 -64 -56c-4 0 -16 0 -20 1v27c4 -1 10 -1 14 -1c29 0 43 12 43 29c0 20 -4 31 -33 31h-42v22
l16 35c-52 7 -88 47 -88 116v123h36v-122c0 -63 38 -83 74 -83h3c34 0 72 20 72 83v112c0 132 -185 141 -185 295v73c0 76 46 115 110 115h5c63 0 107 -41 107 -116v-113z" />
    <glyph glyph-name="uni0218" unicode="&#x218;" horiz-adv-x="276" 
d="M136 -10c-63 0 -109 40 -109 118v123h36v-122c0 -63 38 -83 74 -83h3c34 0 72 20 72 83v112c0 132 -185 141 -185 295v73c0 76 46 115 110 115h5c63 0 107 -41 107 -116v-113h-36v111c0 63 -38 85 -74 85h-1c-36 0 -75 -22 -75 -85v-66c0 -131 186 -140 186 -297v-115
c0 -78 -45 -118 -108 -118h-5zM124 -146l14 47h-18v59h36v-59l-15 -47h-17z" />
    <glyph glyph-name="T" unicode="T" horiz-adv-x="282" 
d="M125 1v660h-98v35h232v-35h-98v-661z" />
    <glyph glyph-name="Tbar" unicode="&#x166;" horiz-adv-x="282" 
d="M259 661h-98v-95h68v-29h-68v-537l-36 1v536h-68v29h68v95h-98v35h232v-35z" />
    <glyph glyph-name="Tcaron" unicode="&#x164;" horiz-adv-x="282" 
d="M122 726l-53 112h26l48 -82l48 82h25l-52 -112h-42zM27 696h232v-35h-98v-661l-36 1v660h-98v35z" />
    <glyph glyph-name="uni0162" unicode="&#x162;" horiz-adv-x="263" 
d="M149 0h-5l-20 -42h18c41 0 55 -22 55 -54c0 -31 -23 -56 -64 -56c-4 0 -16 0 -20 1v27c4 -1 10 -1 14 -1c29 0 43 12 43 29c0 20 -4 31 -33 31h-42v22l21 43h-4v661h-97v35h232v-35h-98v-661z" />
    <glyph glyph-name="uni021A" unicode="&#x21a;" horiz-adv-x="263" 
d="M112 1v660h-97v35h232v-35h-98v-661zM117 -146l14 47h-19v59h36v-59l-14 -47h-17z" />
    <glyph glyph-name="U" unicode="U" 
d="M152 -10c-69 0 -111 42 -111 119v587h37v-587c0 -63 38 -83 75 -83h3c39 0 77 20 77 83v587h36v-587c0 -77 -42 -119 -112 -119h-5z" />
    <glyph glyph-name="Uacute" unicode="&#xda;" horiz-adv-x="309" 
d="M121 719l46 126h43l-69 -126h-20zM152 -10c-69 0 -111 43 -111 120v586h39v-587c0 -63 38 -85 73 -85h2c36 0 74 22 74 85v587h39v-586c0 -77 -42 -120 -111 -120h-5z" />
    <glyph glyph-name="Ucircumflex" unicode="&#xdb;" horiz-adv-x="295" 
d="M137 823l-45 -105h-26l46 126h50l46 -126h-26zM215 696h38v-586c0 -77 -42 -120 -111 -120h-5c-68 0 -110 43 -110 120v586h39v-587c0 -63 38 -85 72 -85h3c36 0 74 22 74 85v587z" />
    <glyph glyph-name="Udieresis" unicode="&#xdc;" horiz-adv-x="309" 
d="M109 759v51h35v-51h-35zM171 759v51h34v-51h-34zM152 -10c-69 0 -111 43 -111 120v586h39v-587c0 -63 38 -85 73 -85h2c36 0 74 22 74 85v587h39v-586c0 -77 -42 -120 -111 -120h-5z" />
    <glyph glyph-name="Ugrave" unicode="&#xd9;" horiz-adv-x="309" 
d="M180 727h-21l-68 126h43zM152 -10c-69 0 -111 43 -111 120v586h39v-587c0 -63 38 -85 73 -85h2c36 0 74 22 74 85v587h39v-586c0 -77 -42 -120 -111 -120h-5z" />
    <glyph glyph-name="Uhungarumlaut" unicode="&#x170;" 
d="M97 726l43 112h42l-62 -112h-23zM165 726l43 112h41l-61 -112h-23zM152 -10c-69 0 -111 42 -111 119v587h37v-587c0 -63 38 -83 75 -83h3c39 0 77 20 77 83v587h36v-587c0 -77 -42 -119 -112 -119h-5z" />
    <glyph glyph-name="Umacron" unicode="&#x16a;" 
d="M88 758h135v-31h-135v31zM152 -10c-69 0 -111 42 -111 119v587h37v-587c0 -63 38 -83 75 -83h3c39 0 77 20 77 83v587h36v-587c0 -77 -42 -119 -112 -119h-5z" />
    <glyph glyph-name="Uogonek" unicode="&#x172;" 
d="M233 696h36v-587c0 -65 -30 -105 -81 -116c-40 -33 -48 -41 -48 -63c0 -13 20 -30 46 -6v-32c-38 -25 -81 2 -81 36c0 24 14 41 41 62c-65 2 -105 44 -105 119v587h37v-587c0 -63 38 -83 75 -83h3c39 0 77 20 77 83v587z" />
    <glyph glyph-name="Uring" unicode="&#x16e;" horiz-adv-x="295" 
d="M147 710c-33 0 -61 28 -61 61s28 60 61 60s61 -27 61 -60s-28 -61 -61 -61zM147 735c21 0 36 14 36 36c0 20 -16 35 -36 35c-21 0 -36 -15 -36 -35c0 -21 15 -36 36 -36zM144 -10c-69 0 -111 42 -111 119v587h37v-587c0 -63 38 -83 75 -83h3c38 0 76 20 76 83v587h37
v-587c0 -77 -42 -119 -112 -119h-5z" />
    <glyph glyph-name="V" unicode="V" horiz-adv-x="296" 
d="M120 0l-93 696h36l86 -661h2l86 661h36l-93 -696h-60z" />
    <glyph glyph-name="W" unicode="W" horiz-adv-x="429" 
d="M370 696h36l-82 -696h-51l-57 538l-56 -538h-52l-81 696h36l71 -636l66 636h33l65 -636z" />
    <glyph glyph-name="Wacute" unicode="&#x1e82;" horiz-adv-x="429" 
d="M288 838l-62 -112h-23l43 112h42zM370 696h36l-80 -696h-53l-57 538l-56 -538h-53l-80 696h36l72 -649l65 649h33l65 -644z" />
    <glyph glyph-name="Wcircumflex" unicode="&#x174;" horiz-adv-x="429" 
d="M215 808l-48 -82h-26l53 112h41l53 -112h-26zM370 696h36l-80 -696h-53l-57 538l-56 -538h-53l-80 696h36l72 -649l65 649h33l65 -644z" />
    <glyph glyph-name="Wdieresis" unicode="&#x1e84;" horiz-adv-x="429" 
d="M203 774v-42h-35v42h35zM264 774v-42h-34v42h34zM370 696h36l-80 -696h-53l-57 538l-56 -538h-53l-80 696h36l72 -649l65 649h33l65 -644z" />
    <glyph glyph-name="Wgrave" unicode="&#x1e80;" horiz-adv-x="429" 
d="M226 727h-23l-61 113h41zM370 696h36l-80 -696h-53l-57 538l-56 -538h-53l-80 696h36l72 -649l65 649h33l65 -644z" />
    <glyph glyph-name="X" unicode="X" horiz-adv-x="272" 
d="M27 0l88 362l-88 334h36l75 -289l74 289h36l-88 -334l88 -362h-36l-74 315l-75 -315h-36z" />
    <glyph glyph-name="Y" unicode="Y" horiz-adv-x="275" 
d="M216 696h36l-93 -412v-284h-37v284l-95 412h36l77 -349z" />
    <glyph glyph-name="Yacute" unicode="&#xdd;" horiz-adv-x="295" 
d="M213 838l-61 -112h-23l43 112h41zM236 696h36l-103 -414v-282h-36l-1 282l-105 414h36l87 -354z" />
    <glyph glyph-name="Ycircumflex" unicode="&#x176;" horiz-adv-x="295" 
d="M150 808l-48 -82h-26l53 112h41l53 -112h-26zM236 696h36l-103 -414v-282h-36l-1 282l-105 414h36l87 -354z" />
    <glyph glyph-name="Ydieresis" unicode="&#x178;" horiz-adv-x="295" 
d="M137 774v-42h-34v42h34zM199 774v-42h-34v42h34zM236 696h36l-103 -414v-282h-36l-1 282l-105 414h36l87 -354z" />
    <glyph glyph-name="Ygrave" unicode="&#x1ef2;" horiz-adv-x="295" 
d="M168 726h-23l-62 112h42zM236 696h36l-103 -414v-282h-36l-1 282l-105 414h36l87 -354z" />
    <glyph glyph-name="Z" unicode="Z" horiz-adv-x="300" 
d="M27 0v36l205 623h-182v37h223v-34l-205 -626h209v-36h-250z" />
    <glyph glyph-name="Zacute" unicode="&#x179;" horiz-adv-x="300" 
d="M130 726l43 112h41l-61 -112h-23zM27 0v36l195 623h-172v37h213v-34l-195 -626h209v-36h-250z" />
    <glyph glyph-name="Zcaron" unicode="&#x17d;" horiz-adv-x="286" 
d="M136 726l-53 112h26l48 -82l47 82h26l-53 -112h-41zM263 696v-34l-195 -626h180v-36h-221v36l195 623h-172v37h213z" />
    <glyph glyph-name="Zdotaccent" unicode="&#x17b;" horiz-adv-x="300" 
d="M144 732v42h34v-42h-34zM27 0v36l195 623h-172v37h213v-34l-195 -626h209v-36h-250z" />
    <glyph glyph-name="J.ss01" horiz-adv-x="211" 
d="M27 36h35c33 0 71 21 71 83v577h36v-577c0 -75 -38 -119 -107 -119h-35v36z" />
    <glyph glyph-name="a" unicode="a" horiz-adv-x="289" 
d="M146 528c60 0 100 -29 101 -95v-433h-31v31c-15 -27 -45 -41 -86 -41c-68 0 -105 33 -105 109v68c0 123 185 110 185 201v64c0 55 -30 65 -63 65s-65 -10 -65 -65v-96h-37v96c0 65 42 96 101 96zM211 101v200c-48 -49 -149 -60 -149 -134v-67c0 -61 29 -78 74 -78
c39 0 75 17 75 79z" />
    <glyph glyph-name="aacute" unicode="&#xe1;" horiz-adv-x="290" 
d="M211 683l-61 -113h-23l42 113h42zM146 528c60 0 102 -29 103 -95v-433h-34v32c-16 -28 -48 -42 -85 -42c-68 0 -105 34 -105 111v66c0 123 185 110 185 201v64c0 55 -30 65 -63 65s-65 -10 -65 -65v-96h-37v96c0 65 42 96 101 96zM211 101v200
c-48 -49 -149 -60 -149 -134v-67c0 -61 29 -78 74 -78c39 0 75 17 75 79z" />
    <glyph glyph-name="abreve" unicode="&#x103;" horiz-adv-x="290" 
d="M149 576c-50 0 -84 32 -78 100h29c-6 -50 14 -73 49 -73c36 0 56 23 51 73h29c5 -68 -29 -100 -80 -100zM146 528c60 0 102 -29 103 -95v-433h-34v32c-16 -28 -48 -42 -85 -42c-68 0 -105 34 -105 111v66c0 123 185 110 185 201v64c0 55 -30 65 -63 65s-65 -10 -65 -65
v-96h-37v96c0 65 42 96 101 96zM211 101v200c-48 -49 -149 -60 -149 -134v-67c0 -61 29 -78 74 -78c39 0 75 17 75 79z" />
    <glyph glyph-name="acircumflex" unicode="&#xe2;" horiz-adv-x="290" 
d="M149 653l-48 -83h-26l53 113h42l53 -113h-26zM146 528c60 0 102 -29 103 -95v-433h-34v32c-16 -28 -48 -42 -85 -42c-68 0 -105 34 -105 111v66c0 123 185 110 185 201v64c0 55 -30 65 -63 65s-65 -10 -65 -65v-96h-37v96c0 65 42 96 101 96zM211 101v200
c-48 -49 -149 -60 -149 -134v-67c0 -61 29 -78 74 -78c39 0 75 17 75 79z" />
    <glyph glyph-name="adieresis" unicode="&#xe4;" horiz-adv-x="290" 
d="M134 625v-50h-34v50h34zM196 625v-50h-35v50h35zM146 528c60 0 102 -29 103 -95v-433h-34v32c-16 -28 -48 -42 -85 -42c-68 0 -105 34 -105 111v66c0 123 185 110 185 201v64c0 55 -30 65 -63 65s-65 -10 -65 -65v-96h-37v96c0 65 42 96 101 96zM211 101v200
c-48 -49 -149 -60 -149 -134v-67c0 -61 29 -78 74 -78c39 0 75 17 75 79z" />
    <glyph glyph-name="agrave" unicode="&#xe0;" horiz-adv-x="290" 
d="M167 570h-24l-61 113h42zM146 528c60 0 102 -29 103 -95v-433h-34v32c-16 -28 -48 -42 -85 -42c-68 0 -105 34 -105 111v66c0 123 185 110 185 201v64c0 55 -30 65 -63 65s-65 -10 -65 -65v-96h-37v96c0 65 42 96 101 96zM211 101v200c-48 -49 -149 -60 -149 -134v-67
c0 -61 29 -78 74 -78c39 0 75 17 75 79z" />
    <glyph glyph-name="amacron" unicode="&#x101;" horiz-adv-x="290" 
d="M213 625v-30h-135v30h135zM146 528c60 0 102 -29 103 -95v-433h-34v32c-16 -28 -48 -42 -85 -42c-68 0 -105 34 -105 111v66c0 123 185 110 185 201v64c0 55 -30 65 -63 65s-65 -10 -65 -65v-96h-37v96c0 65 42 96 101 96zM211 101v200c-48 -49 -149 -60 -149 -134v-67
c0 -61 29 -78 74 -78c39 0 75 17 75 79z" />
    <glyph glyph-name="aogonek" unicode="&#x105;" horiz-adv-x="290" 
d="M249 0c-46 -39 -56 -46 -56 -70c0 -13 20 -30 46 -6v-32c-38 -25 -81 2 -81 36c0 28 20 47 57 72v30c-16 -26 -47 -40 -84 -40c-69 0 -106 34 -106 111v66c0 123 186 110 186 201v64c0 55 -31 65 -64 65c-32 0 -64 -10 -64 -65v-96h-37v96c0 65 42 96 100 96
c61 0 102 -29 103 -95v-433zM211 101v200c-48 -49 -148 -60 -148 -134v-67c0 -61 29 -78 74 -78c39 0 74 17 74 79z" />
    <glyph glyph-name="aring" unicode="&#xe5;" horiz-adv-x="290" 
d="M149 553c-34 0 -61 27 -61 61c0 33 27 60 61 60c33 0 60 -27 60 -60s-27 -61 -60 -61zM149 649c-21 0 -36 -15 -36 -35c0 -21 15 -36 36 -36c20 0 35 14 35 36c0 20 -15 35 -35 35zM146 528c60 0 102 -29 103 -95v-433h-34v32c-16 -28 -48 -42 -85 -42
c-68 0 -105 34 -105 111v66c0 123 185 110 185 201v64c0 55 -30 65 -63 65s-65 -10 -65 -65v-96h-37v96c0 65 42 96 101 96zM211 101v200c-48 -49 -149 -60 -149 -134v-67c0 -61 29 -78 74 -78c39 0 75 17 75 79z" />
    <glyph glyph-name="atilde" unicode="&#xe3;" horiz-adv-x="290" 
d="M142 584c-14 6 -43 20 -54 -13l-24 11c14 42 51 41 88 23c15 -5 42 -20 53 15l24 -11c-14 -44 -49 -42 -87 -25zM146 528c60 0 102 -29 103 -95v-433h-34v32c-16 -28 -48 -42 -85 -42c-68 0 -105 34 -105 111v66c0 123 185 110 185 201v64c0 55 -30 65 -63 65
s-65 -10 -65 -65v-96h-37v96c0 65 42 96 101 96zM211 101v200c-48 -49 -149 -60 -149 -134v-67c0 -61 29 -78 74 -78c39 0 75 17 75 79z" />
    <glyph glyph-name="ae" unicode="&#xe6;" horiz-adv-x="452" 
d="M425 245h-175v-138c0 -62 40 -84 71 -84h1c31 0 67 22 67 84v10h36v-12c0 -71 -39 -115 -101 -115h-5c-44 0 -78 22 -95 59c-14 -38 -57 -59 -101 -59c-63 0 -97 42 -97 111v65c0 68 40 108 104 108h81v135c0 61 -38 88 -70 88c-40 0 -69 -27 -69 -88v-12h-36v14
c0 70 41 117 103 117c40 0 72 -17 90 -47c18 30 49 47 88 47h5c62 0 103 -43 103 -115v-168zM319 496c-31 0 -69 -23 -69 -85v-136h139v136c0 62 -38 85 -69 85h-1zM211 104v142h-79c-31 0 -69 -22 -69 -84v-58c0 -57 30 -84 66 -84c41 0 82 22 82 84z" />
    <glyph glyph-name="b" unicode="b" 
d="M48 0v696h37v-218c15 30 47 50 83 50c67 0 101 -46 101 -115v-312c0 -67 -36 -111 -101 -111c-42 0 -76 19 -90 54v-44h-30zM85 107c0 -62 40 -84 76 -84c41 0 72 28 72 84v300c0 57 -31 88 -72 88c-36 0 -76 -26 -76 -88v-300z" />
    <glyph glyph-name="c" unicode="c" horiz-adv-x="297" 
d="M148 -10c-65 0 -107 43 -107 115v308c0 71 42 115 107 115c70 0 108 -44 108 -115v-84h-36v83c0 62 -38 83 -71 83s-71 -21 -71 -83v-305c0 -63 38 -85 71 -85s71 22 71 85v93h36v-95c0 -74 -40 -115 -108 -115z" />
    <glyph glyph-name="cacute" unicode="&#x107;" horiz-adv-x="297" 
d="M130 570l43 113h42l-62 -113h-23zM148 -10c-65 0 -107 43 -107 115v308c0 71 42 115 107 115c70 0 108 -44 108 -115v-84h-36v83c0 62 -38 83 -71 83s-71 -21 -71 -83v-305c0 -63 38 -85 71 -85s71 22 71 85v93h36v-95c0 -74 -40 -115 -108 -115z" />
    <glyph glyph-name="ccaron" unicode="&#x10d;" horiz-adv-x="297" 
d="M127 570l-53 113h26l48 -83l48 83h25l-52 -113h-42zM256 329h-36v83c0 62 -38 83 -71 83s-71 -21 -71 -83v-305c0 -63 38 -83 71 -83s71 20 71 83v93h36v-95c0 -74 -40 -115 -108 -115c-65 0 -107 43 -107 115v308c0 71 42 115 107 115c70 0 108 -44 108 -115v-84z" />
    <glyph glyph-name="ccedilla" unicode="&#xe7;" horiz-adv-x="297" 
d="M256 329h-36v83c0 62 -38 83 -71 83s-71 -21 -71 -83v-301c0 -62 38 -84 71 -84s71 22 71 84v89h36v-91c0 -71 -37 -112 -101 -115l-16 -36h17c41 0 55 -22 55 -54c0 -31 -22 -56 -63 -56c-4 0 -16 0 -20 1v27l14 -1c29 0 43 12 43 29c0 20 -4 31 -33 31h-42v22l18 38
c-53 8 -87 50 -87 114v304c0 71 42 115 107 115c70 0 108 -44 108 -115v-84z" />
    <glyph glyph-name="cdotaccent" unicode="&#x10b;" horiz-adv-x="297" 
d="M131 573v50h34v-50h-34zM148 -10c-65 0 -107 43 -107 115v308c0 71 42 115 107 115c70 0 108 -44 108 -115v-84h-36v83c0 62 -38 83 -71 83s-71 -21 -71 -83v-305c0 -63 38 -83 71 -83s71 20 71 83v93h36v-95c0 -74 -40 -115 -108 -115z" />
    <glyph glyph-name="d" unicode="d" horiz-adv-x="294" 
d="M219 696h37v-696h-30v44c-15 -35 -48 -54 -90 -54c-65 0 -102 44 -102 117v303c0 75 34 118 102 118c38 0 68 -18 83 -47v215zM219 107v304c0 62 -40 85 -77 85c-41 0 -71 -29 -71 -86v-303c0 -56 30 -84 71 -84c37 0 77 22 77 84z" />
    <glyph glyph-name="eth" unicode="&#xf0;" horiz-adv-x="300" 
d="M287 633v-30h-31v-603h-30v44c-15 -35 -48 -54 -90 -54c-65 0 -102 44 -102 111v312c0 69 35 111 102 111c36 0 68 -16 83 -46v125h-49v30h49v63h37v-63h31zM219 107v300c0 62 -40 84 -77 84c-41 0 -71 -27 -71 -84v-300c0 -56 30 -84 71 -84c37 0 77 22 77 84z" />
    <glyph glyph-name="dcaron" unicode="&#x10f;" horiz-adv-x="338" 
d="M219 481v215h37v-696h-30v44c-15 -35 -48 -54 -90 -54c-65 0 -102 44 -102 117v303c0 75 34 118 102 118c38 0 68 -18 83 -47zM278 696h36v-60l-15 -47h-16l13 47h-18v60zM219 107v304c0 62 -40 85 -77 85c-41 0 -71 -29 -71 -86v-303c0 -56 30 -83 71 -83
c37 0 77 21 77 83z" />
    <glyph glyph-name="dcroat" unicode="&#x111;" horiz-adv-x="326" 
d="M287 633v-30h-31v-603h-30v44c-14 -35 -48 -54 -90 -54c-65 0 -101 44 -101 111v312c0 69 34 111 101 111c36 0 68 -16 84 -46v125h-91v30h91v63h36v-63h31zM220 107v300c0 62 -41 84 -77 84c-41 0 -72 -27 -72 -84v-300c0 -56 31 -84 72 -84c36 0 77 22 77 84z" />
    <glyph glyph-name="e" unicode="e" horiz-adv-x="296" 
d="M255 228h-177v-121c0 -62 36 -84 72 -84h1c36 0 68 22 68 84v19h36v-20c0 -72 -37 -116 -102 -116h-5c-66 0 -107 44 -107 115v308c0 72 39 115 105 115h5c65 0 104 -43 104 -115v-185zM148 495c-36 0 -70 -22 -70 -84v-152h141v152c0 62 -36 84 -70 84h-1z" />
    <glyph glyph-name="eacute" unicode="&#xe9;" horiz-adv-x="296" 
d="M223 683l-61 -113h-24l43 113h42zM255 228h-177v-121c0 -62 36 -84 72 -84h1c36 0 68 22 68 84v19h36v-20c0 -72 -37 -116 -102 -116h-5c-66 0 -107 44 -107 115v308c0 72 39 115 105 115h5c65 0 104 -43 104 -115v-185zM148 495c-36 0 -70 -22 -70 -84v-152h141v152
c0 62 -36 84 -70 84h-1z" />
    <glyph glyph-name="ecaron" unicode="&#x11b;" horiz-adv-x="296" 
d="M130 570l-53 113h25l48 -83l48 83h26l-53 -113h-41zM255 228h-177v-121c0 -62 36 -84 72 -84h1c36 0 68 22 68 84v19h36v-20c0 -72 -37 -116 -102 -116h-5c-66 0 -107 44 -107 115v308c0 72 39 115 105 115h5c65 0 104 -43 104 -115v-185zM148 495c-36 0 -70 -22 -70 -84
v-152h141v152c0 62 -36 84 -70 84h-1z" />
    <glyph glyph-name="ecircumflex" unicode="&#xea;" horiz-adv-x="296" 
d="M149 653l-48 -83h-26l53 113h41l53 -113h-25zM255 228h-177v-121c0 -62 36 -84 72 -84h1c36 0 68 22 68 84v19h36v-20c0 -72 -37 -116 -102 -116h-5c-66 0 -107 44 -107 115v308c0 72 39 115 105 115h5c65 0 104 -43 104 -115v-185zM148 495c-36 0 -70 -22 -70 -84v-152
h141v152c0 62 -36 84 -70 84h-1z" />
    <glyph glyph-name="edieresis" unicode="&#xeb;" horiz-adv-x="296" 
d="M134 625v-50h-35v50h35zM195 625v-50h-34v50h34zM255 228h-177v-121c0 -62 36 -84 72 -84h1c36 0 68 22 68 84v19h36v-20c0 -72 -37 -116 -102 -116h-5c-66 0 -107 44 -107 115v308c0 72 39 115 105 115h5c65 0 104 -43 104 -115v-185zM148 495c-36 0 -70 -22 -70 -84
v-152h141v152c0 62 -36 84 -70 84h-1z" />
    <glyph glyph-name="edotaccent" unicode="&#x117;" horiz-adv-x="296" 
d="M163 623v-50h-34v50h34zM255 228h-177v-121c0 -62 36 -84 72 -84h1c36 0 68 22 68 84v19h36v-20c0 -72 -37 -116 -102 -116h-5c-66 0 -107 44 -107 115v308c0 72 39 115 105 115h5c65 0 104 -43 104 -115v-185zM148 495c-36 0 -70 -22 -70 -84v-152h141v152
c0 62 -36 84 -70 84h-1z" />
    <glyph glyph-name="egrave" unicode="&#xe8;" horiz-adv-x="296" 
d="M162 570h-23l-61 113h41zM255 228h-177v-121c0 -62 36 -84 72 -84h1c36 0 68 22 68 84v19h36v-20c0 -72 -37 -116 -102 -116h-5c-66 0 -107 44 -107 115v308c0 72 39 115 105 115h5c65 0 104 -43 104 -115v-185zM148 495c-36 0 -70 -22 -70 -84v-152h141v152
c0 62 -36 84 -70 84h-1z" />
    <glyph glyph-name="emacron" unicode="&#x113;" horiz-adv-x="296" 
d="M212 625v-30h-136v30h136zM255 228h-177v-121c0 -62 36 -84 72 -84h1c36 0 68 22 68 84v19h36v-20c0 -72 -37 -116 -102 -116h-5c-66 0 -107 44 -107 115v308c0 72 39 115 105 115h5c65 0 104 -43 104 -115v-185zM148 495c-36 0 -70 -22 -70 -84v-152h141v152
c0 62 -36 84 -70 84h-1z" />
    <glyph glyph-name="eogonek" unicode="&#x119;" horiz-adv-x="296" 
d="M255 228h-177v-121c0 -62 36 -84 72 -84h1c36 0 68 22 68 84v19h36v-20c0 -59 -24 -99 -68 -111c-41 -35 -50 -42 -50 -65c0 -13 20 -30 46 -6v-32c-38 -25 -81 2 -81 36c0 24 15 42 43 62c-64 1 -104 45 -104 115v308c0 72 39 115 105 115h5c65 0 104 -43 104 -115v-185
zM148 495c-36 0 -70 -22 -70 -84v-152h141v152c0 62 -36 84 -70 84h-1z" />
    <glyph glyph-name="f" unicode="f" horiz-adv-x="232" 
d="M195 664c-38 0 -76 -20 -76 -84v-63h89v-32h-89v-485h-36v485h-56v32h56v63c0 73 41 116 107 116h18v-32h-13z" />
    <glyph glyph-name="g" unicode="g" horiz-adv-x="285" 
d="M218 517h28v-550c0 -72 -33 -115 -105 -115c-76 0 -107 44 -107 115v10h37c0 -65 24 -93 69 -93c44 0 70 28 70 84v109c-15 -29 -45 -46 -76 -46c-71 0 -100 44 -100 111v275c0 69 29 111 100 111c34 0 64 -16 78 -48zM140 64c24 0 70 22 70 84v263c0 62 -34 84 -70 84
c-43 0 -69 -27 -69 -84v-263c0 -55 26 -84 69 -84z" />
    <glyph glyph-name="gbreve" unicode="&#x11f;" horiz-adv-x="285" 
d="M146 576c-50 0 -84 32 -78 100h29c-6 -50 14 -73 49 -73c36 0 56 23 51 73h29c5 -68 -29 -100 -80 -100zM218 517h28v-542c0 -72 -33 -115 -105 -115c-76 0 -107 45 -107 115v10h37c0 -64 24 -92 69 -92c44 0 70 28 70 84v100c-15 -29 -45 -46 -76 -46
c-71 0 -100 44 -100 111v275c0 69 29 111 100 111c34 0 64 -16 78 -48zM140 65c24 0 70 21 70 83v263c0 62 -34 83 -70 83c-43 0 -69 -26 -69 -83v-263c0 -55 26 -83 69 -83z" />
    <glyph glyph-name="uni0123" unicode="&#x123;" horiz-adv-x="285" 
d="M159 662v-60h-37v60l15 46h17l-14 -46h19zM218 517h28v-542c0 -72 -33 -115 -105 -115c-76 0 -107 45 -107 115v10h37c0 -64 24 -92 69 -92c44 0 70 28 70 84v100c-15 -29 -45 -46 -76 -46c-71 0 -100 44 -100 111v275c0 69 29 111 100 111c34 0 64 -16 78 -48zM140 65
c24 0 70 21 70 83v263c0 62 -34 83 -70 83c-43 0 -69 -26 -69 -83v-263c0 -55 26 -83 69 -83z" />
    <glyph glyph-name="gdotaccent" unicode="&#x121;" horiz-adv-x="285" 
d="M160 623v-50h-34v50h34zM218 517h28v-542c0 -72 -33 -115 -105 -115c-76 0 -107 45 -107 115v10h37c0 -64 24 -92 69 -92c44 0 70 28 70 84v100c-15 -29 -45 -46 -76 -46c-71 0 -100 44 -100 111v275c0 69 29 111 100 111c34 0 64 -16 78 -48zM140 65c24 0 70 21 70 83
v263c0 62 -34 83 -70 83c-43 0 -69 -26 -69 -83v-263c0 -55 26 -83 69 -83z" />
    <glyph glyph-name="h" unicode="h" 
d="M181 527c63 0 88 -41 88 -110v-417h-36v414c0 54 -22 81 -60 81c-39 0 -88 -22 -88 -84v-411h-37v696h37v-218c18 32 56 49 96 49z" />
    <glyph glyph-name="hbar" unicode="&#x127;" horiz-adv-x="300" 
d="M170 527c63 0 89 -41 89 -110v-417h-36v414c0 54 -22 81 -61 81s-88 -22 -88 -84v-411h-36v599h-38v29h38v68h36v-68h98v-29h-98v-121c18 32 57 49 96 49z" />
    <glyph glyph-name="i" unicode="i" horiz-adv-x="133" 
d="M48 594v102h37v-102h-37zM48 0v517h37v-517h-37z" />
    <glyph glyph-name="dotlessi" unicode="&#x131;" horiz-adv-x="133" 
d="M48 0v517h37v-517h-37z" />
    <glyph glyph-name="iacute" unicode="&#xed;" horiz-adv-x="129" 
d="M50 570l43 113h41l-61 -113h-23zM51 0v517h36v-517h-36z" />
    <glyph glyph-name="icircumflex" unicode="&#xee;" horiz-adv-x="120" 
d="M80 683l53 -113h-25l-48 83l-48 -83h-26l53 113h41zM42 0v517h37v-517h-37z" />
    <glyph glyph-name="idieresis" unicode="&#xef;" horiz-adv-x="136" 
d="M20 575v50h35v-50h-35zM82 575v50h34v-50h-34zM51 0v517h36v-517h-36z" />
    <glyph glyph-name="i.loclTRK" horiz-adv-x="133" 
d="M49 575v50h34v-50h-34zM48 0v517h37v-517h-37z" />
    <glyph glyph-name="igrave" unicode="&#xec;" horiz-adv-x="127" 
d="M74 570h-23l-61 113h41zM42 0v517h37v-517h-37z" />
    <glyph glyph-name="imacron" unicode="&#x12b;" horiz-adv-x="119" 
d="M-8 627h135v-31h-135v31zM42 0v517h36v-517h-36z" />
    <glyph glyph-name="iogonek" unicode="&#x12f;" horiz-adv-x="127" 
d="M78 696v-102h-36v102h36zM79 0c-47 -39 -56 -46 -56 -70c0 -13 20 -30 46 -6v-32c-38 -25 -81 2 -81 36c0 28 17 47 54 72v517h37v-517z" />
    <glyph glyph-name="j" unicode="j" horiz-adv-x="122" 
d="M37 594v102h37v-102h-37zM-52 -148v33h13c38 0 76 20 76 84v548h37v-549c0 -74 -42 -116 -108 -116h-18z" />
    <glyph glyph-name="k" unicode="k" horiz-adv-x="273" 
d="M48 0v696h37l-1 -391h2l122 212h38l-122 -216l126 -301h-36l-114 262l-17 -27l1 -235h-36z" />
    <glyph glyph-name="uni0137" unicode="&#x137;" horiz-adv-x="273" 
d="M48 0v696h37l-1 -391h2l122 212h38l-122 -216l126 -301h-36l-114 262l-17 -27l1 -235h-36zM131 -146l14 47h-18v59h36v-59l-15 -47h-17z" />
    <glyph glyph-name="l" unicode="l" horiz-adv-x="133" 
d="M48 0v696h37v-696h-37z" />
    <glyph glyph-name="lacute" unicode="&#x13a;" horiz-adv-x="138" 
d="M49 726l43 112l41 1l-61 -112zM49 0v696h36v-696h-36z" />
    <glyph glyph-name="lcaron" unicode="&#x13e;" horiz-adv-x="129" 
d="M112 838h26l-53 -112h-41l-53 112h26l48 -82zM46 0v696h37v-696h-37z" />
    <glyph glyph-name="uni013C" unicode="&#x13c;" horiz-adv-x="134" 
d="M49 0v696h36v-696h-36zM51 -135l9 51h5v29l15 -12l-7 -43l-5 -25h-17z" />
    <glyph glyph-name="lslash" unicode="&#x142;" horiz-adv-x="111" 
d="M174 406v-36l-100 -52v-318h-36v300l-60 -31v36l60 31v360h36v-342z" />
    <glyph glyph-name="m" unicode="m" horiz-adv-x="494" 
d="M350 528c77 0 103 -33 103 -102v-426h-36v420c0 58 -23 75 -73 75c-27 0 -75 -22 -75 -84v-411h-36v420c0 58 -24 75 -65 75c-44 0 -83 -22 -83 -84v-411h-37v517h27l3 -43c15 35 50 54 97 54c50 0 77 -18 88 -55c16 36 54 55 87 55z" />
    <glyph glyph-name="n" unicode="n" 
d="M175 527c67 0 94 -32 94 -101v-426h-36v420c0 58 -18 75 -62 75c-37 0 -86 -22 -86 -84v-411h-37v517h34v-39c17 32 55 49 93 49z" />
    <glyph glyph-name="nacute" unicode="&#x144;" 
d="M221 683l-62 -113h-23l43 113h42zM177 528c68 0 92 -33 92 -102v-426h-36v420c0 58 -18 75 -62 75c-37 0 -86 -22 -86 -84v-411h-37v517h26l3 -48c16 38 57 59 100 59z" />
    <glyph glyph-name="ncaron" unicode="&#x148;" 
d="M138 570l-53 113h25l48 -83l48 83h26l-53 -113h-41zM177 528c68 0 92 -33 92 -102v-426h-36v420c0 58 -18 75 -62 75c-37 0 -86 -22 -86 -84v-411h-37v517h26l3 -48c16 38 57 59 100 59z" />
    <glyph glyph-name="uni0146" unicode="&#x146;" 
d="M177 528c68 0 92 -33 92 -102v-426h-36v420c0 58 -18 75 -62 75c-37 0 -86 -22 -86 -84v-411h-37v517h26l3 -48c16 38 57 59 100 59zM140 -99v59h36v-59l-15 -47h-16l13 47h-18z" />
    <glyph glyph-name="eng" unicode="&#x14b;" 
d="M177 528c68 0 92 -33 92 -102v-443c0 -72 -29 -115 -96 -115h-31v32h30c34 0 61 13 61 83v437c0 58 -18 75 -62 75c-37 0 -86 -22 -86 -84v-411h-37v517h26l3 -48c16 38 57 59 100 59z" />
    <glyph glyph-name="ntilde" unicode="&#xf1;" 
d="M151 584c-14 6 -43 20 -53 -13l-25 11c14 42 52 41 89 23c14 -5 42 -20 52 15l25 -11c-14 -44 -49 -42 -88 -25zM177 524c68 0 92 -33 92 -102v-422h-36v416c0 57 -21 75 -62 75c-37 0 -86 -22 -86 -84v-407h-37v517h33v-45c18 34 57 52 96 52z" />
    <glyph glyph-name="o" unicode="o" horiz-adv-x="301" 
d="M147 -10c-66 0 -106 44 -106 116v305c0 72 40 117 106 117h5c67 0 108 -45 108 -117v-305c0 -72 -40 -116 -108 -116h-5zM149 23h2c36 0 74 21 74 84v304c0 62 -38 84 -75 84h-1c-35 0 -73 -22 -73 -84v-304c0 -63 38 -84 73 -84z" />
    <glyph glyph-name="oacute" unicode="&#xf3;" horiz-adv-x="301" 
d="M132 570l42 113h42l-61 -113h-23zM147 -10c-66 0 -106 44 -106 116v305c0 72 40 117 106 117h5c68 0 108 -45 108 -117v-305c0 -72 -40 -116 -108 -116h-5zM149 23h2c36 0 74 21 74 84v304c0 62 -38 84 -75 84h-1c-35 0 -73 -22 -73 -84v-304c0 -63 38 -84 73 -84z" />
    <glyph glyph-name="ocircumflex" unicode="&#xf4;" horiz-adv-x="301" 
d="M150 653l-48 -83h-25l52 113h42l53 -113h-26zM152 528c68 0 108 -45 108 -117v-305c0 -72 -40 -116 -108 -116h-5c-66 0 -106 44 -106 116v305c0 72 40 117 106 117h5zM225 107v304c0 62 -38 84 -75 84h-1c-35 0 -73 -22 -73 -84v-304c0 -63 38 -84 73 -84h2
c36 0 74 21 74 84z" />
    <glyph glyph-name="odieresis" unicode="&#xf6;" horiz-adv-x="301" 
d="M103 573v50h34v-50h-34zM165 573v50h34v-50h-34zM147 -10c-66 0 -106 44 -106 116v305c0 72 40 117 106 117h5c68 0 108 -45 108 -117v-305c0 -72 -40 -116 -108 -116h-5zM149 23h2c36 0 74 21 74 84v304c0 62 -38 84 -75 84h-1c-35 0 -73 -22 -73 -84v-304
c0 -63 38 -84 73 -84z" />
    <glyph glyph-name="ograve" unicode="&#xf2;" horiz-adv-x="301" 
d="M147 570l-61 113h41l43 -113h-23zM147 -10c-66 0 -106 44 -106 116v305c0 72 40 117 106 117h5c68 0 108 -45 108 -117v-305c0 -72 -40 -116 -108 -116h-5zM149 23h2c36 0 74 21 74 84v304c0 62 -38 84 -75 84h-1c-35 0 -73 -22 -73 -84v-304c0 -63 38 -84 73 -84z" />
    <glyph glyph-name="ohungarumlaut" unicode="&#x151;" horiz-adv-x="303" 
d="M92 570l43 113h41l-61 -113h-23zM159 570l43 113h42l-61 -113h-24zM147 -10c-66 0 -106 44 -106 116v305c0 72 40 117 106 117h5c68 0 108 -45 108 -117v-305c0 -72 -40 -116 -108 -116h-5zM149 23h2c36 0 74 21 74 84v304c0 62 -38 84 -75 84h-1c-35 0 -73 -22 -73 -84
v-304c0 -63 38 -84 73 -84z" />
    <glyph glyph-name="omacron" unicode="&#x14d;" horiz-adv-x="301" 
d="M83 614l109 11l26 -18l-109 -12zM147 -10c-66 0 -106 44 -106 116v305c0 72 40 117 106 117h5c68 0 108 -45 108 -117v-305c0 -72 -40 -116 -108 -116h-5zM149 23h2c36 0 74 21 74 84v304c0 62 -38 84 -75 84h-1c-35 0 -73 -22 -73 -84v-304c0 -63 38 -84 73 -84z" />
    <glyph glyph-name="oslash" unicode="&#xf8;" horiz-adv-x="301" 
d="M192 522c43 -14 68 -54 68 -111v-305c0 -72 -40 -116 -108 -116h-5c-10 0 -19 1 -27 3l-12 -86h-20l12 92c-37 16 -59 54 -59 107v305c0 72 40 117 106 117h5c7 0 13 0 19 -1l10 72h21zM76 107c0 -36 12 -58 29 -71l62 457c-6 1 -11 2 -17 2h-1c-35 0 -73 -22 -73 -84
v-304zM225 107v304c0 41 -16 64 -38 76l-63 -460c8 -3 17 -4 25 -4h2c36 0 74 21 74 84z" />
    <glyph glyph-name="otilde" unicode="&#xf5;" horiz-adv-x="301" 
d="M93 571l-24 11c14 42 51 41 88 23c15 -5 42 -20 53 15l24 -11c-14 -44 -49 -42 -87 -25c-14 6 -43 20 -54 -13zM147 -10c-66 0 -106 44 -106 116v305c0 72 40 117 106 117h5c68 0 108 -45 108 -117v-305c0 -72 -40 -116 -108 -116h-5zM149 23h2c36 0 74 21 74 84v304
c0 62 -38 84 -75 84h-1c-35 0 -73 -22 -73 -84v-304c0 -63 38 -84 73 -84z" />
    <glyph glyph-name="oe" unicode="&#x153;" horiz-adv-x="471" 
d="M430 228h-169v-121c0 -62 37 -82 68 -84h1c32 0 64 22 64 84v19h36v-20c0 -72 -37 -116 -98 -116h-5c-38 0 -67 16 -85 45c-18 -29 -49 -45 -90 -45h-5c-66 0 -106 44 -106 116v305c0 72 40 117 106 117h5c41 0 72 -16 90 -45c16 29 45 45 83 45h5c61 0 100 -43 100 -115
v-185zM327 496c-31 0 -66 -23 -66 -85v-150h133v150c0 62 -35 85 -66 85h-1zM151 23c36 0 74 21 74 84v304c0 62 -38 84 -75 84h-1c-35 0 -73 -22 -73 -84v-304c0 -63 38 -84 73 -84h2z" />
    <glyph glyph-name="p" unicode="p" 
d="M48 -142v659h35l-5 -44c14 35 48 54 90 54c65 0 101 -43 101 -115v-293c0 -74 -34 -115 -101 -115c-36 0 -68 15 -83 45v-191h-37zM85 121c0 -62 40 -85 76 -85c41 0 72 27 72 85v290c0 56 -31 85 -72 85c-36 0 -76 -23 -76 -85v-290z" />
    <glyph glyph-name="thorn" unicode="&#xfe;" horiz-adv-x="302" 
d="M153 569c67 0 108 -44 108 -116v-174c0 -77 -40 -116 -108 -115h-68v-164h-37v696h37v-127h68zM225 282v170c0 62 -38 84 -73 84h-67v-338h66c45 0 74 21 74 84z" />
    <glyph glyph-name="q" unicode="q" horiz-adv-x="294" 
d="M34 115v301c0 68 37 111 102 111c42 0 75 -19 90 -54l-5 44h35v-659h-37v191c-15 -30 -47 -45 -83 -45c-67 0 -102 41 -102 111zM71 121c0 -58 30 -85 71 -85c37 0 77 23 77 85v289c0 62 -40 85 -77 85c-41 0 -71 -29 -71 -85v-289z" />
    <glyph glyph-name="r" unicode="r" horiz-adv-x="191" 
d="M168 517h11v-34h-17c-36 0 -77 -22 -77 -75v-408h-37v517h31l1 -51c15 33 48 51 88 51z" />
    <glyph glyph-name="racute" unicode="&#x155;" horiz-adv-x="180" 
d="M133 683l-61 -113h-23l43 113h41zM158 517h10v-32h-16c-37 0 -78 -23 -78 -76v-409h-36v517h32v-48c16 31 49 48 88 48z" />
    <glyph glyph-name="rcaron" unicode="&#x159;" horiz-adv-x="180" 
d="M78 570l-53 113h26l48 -83l48 83h25l-52 -113h-42zM70 469c16 31 49 48 88 48h10v-32h-16c-37 0 -78 -23 -78 -76v-409h-36v517h32v-48z" />
    <glyph glyph-name="uni0157" unicode="&#x157;" horiz-adv-x="191" 
d="M169 517h10v-32h-16c-36 0 -78 -23 -78 -76v-409h-36v517h32v-50c15 33 49 50 88 50zM49 -99v59h36v-59l-15 -47h-16l13 47h-18z" />
    <glyph glyph-name="s" unicode="s" horiz-adv-x="293" 
d="M146 -8c-62 0 -104 33 -104 106v95h34v-91c0 -61 33 -78 70 -78c42 0 70 17 70 77v64c0 99 -174 85 -174 203v66c0 66 48 94 104 94c47 0 96 -28 96 -94v-99h-35v98c0 56 -40 64 -61 64c-31 0 -70 -9 -70 -64v-63c0 -92 175 -78 175 -202v-67c0 -76 -40 -109 -105 -109z
" />
    <glyph glyph-name="sacute" unicode="&#x15b;" horiz-adv-x="260" 
d="M107 570l43 113h42l-62 -113h-23zM129 -10c-62 0 -104 33 -104 107v95h35v-91c0 -62 32 -79 69 -79c43 0 71 17 71 78v65c0 99 -175 85 -175 203v67c0 65 47 93 105 93c45 0 95 -28 95 -93v-99h-35v97c0 56 -40 64 -60 64c-31 0 -70 -9 -70 -64v-63
c0 -92 175 -78 175 -202v-69c0 -76 -41 -109 -106 -109z" />
    <glyph glyph-name="scaron" unicode="&#x161;" horiz-adv-x="294" 
d="M126 570l-52 113h25l48 -83l48 83h26l-53 -113h-42zM252 335h-35v98c0 55 -49 62 -70 62c-22 0 -70 -8 -70 -62v-63c0 -92 175 -78 175 -202v-64c0 -77 -49 -109 -105 -109c-53 0 -106 32 -106 106v94h36v-90c0 -62 41 -79 70 -79c34 0 70 17 70 78v61
c0 99 -174 85 -174 203v67c0 65 55 93 104 93c47 0 105 -28 105 -93v-100z" />
    <glyph glyph-name="scedilla" unicode="&#x15f;" horiz-adv-x="260" 
d="M60 370c0 -92 175 -78 175 -202v-69c0 -76 -41 -109 -106 -109h-1l-15 -32h18c41 0 55 -22 55 -54c0 -31 -23 -56 -64 -56c-4 0 -16 0 -20 1v27c4 -1 10 -1 14 -1c29 0 43 12 43 29c0 20 -4 31 -33 31h-42v22l17 36c-46 9 -76 42 -76 104v95h35v-91c0 -62 32 -79 69 -79
c43 0 71 17 71 78v65c0 99 -175 85 -175 203v67c0 65 47 93 105 93c45 0 95 -28 95 -93v-99h-35v97c0 56 -40 64 -60 64c-31 0 -70 -9 -70 -64v-63z" />
    <glyph glyph-name="uni0219" unicode="&#x219;" horiz-adv-x="260" 
d="M129 -10c-62 0 -104 33 -104 107v95h35v-91c0 -62 32 -79 69 -79c43 0 71 17 71 78v65c0 99 -175 85 -175 203v67c0 65 47 93 105 93c45 0 95 -28 95 -93v-99h-35v97c0 56 -40 64 -60 64c-31 0 -70 -9 -70 -64v-63c0 -92 175 -78 175 -202v-69c0 -76 -41 -109 -106 -109z
M110 -99v59h36v-59l-14 -47h-17l14 47h-19z" />
    <glyph glyph-name="germandbls" unicode="&#xdf;" horiz-adv-x="263" 
d="M185 363c24 -9 55 -33 55 -96v-154c0 -71 -37 -114 -113 -114h-33v33l34 -1c46 0 77 31 77 84l1 150c0 74 -55 79 -91 79h-21v35h20c36 0 85 9 85 80v131c0 68 -36 83 -72 83c-32 0 -68 -21 -68 -83v-591h-35v593c0 75 38 115 103 115c72 0 108 -42 108 -115v-135
c0 -50 -27 -82 -50 -94z" />
    <glyph glyph-name="t" unicode="t" horiz-adv-x="232" 
d="M208 485h-89v-391c0 -67 9 -61 89 -56v-36l-61 -2c-57 -4 -64 33 -64 74v411h-56v32h56v179h36v-179h89v-32z" />
    <glyph glyph-name="tbar" unicode="&#x167;" horiz-adv-x="219" 
d="M196 485h-89v-105h89v-29h-89v-256c0 -67 9 -61 89 -57v-35l-61 -2c-57 -4 -64 33 -64 74v276h-56v29h56v105h-56v32h56v179h36v-179h89v-32z" />
    <glyph glyph-name="tcaron" unicode="&#x165;" horiz-adv-x="232" 
d="M80 726l-53 112h26l48 -82l48 82h25l-52 -112h-42zM208 485h-89v-390c0 -67 9 -61 89 -57v-35l-61 -2c-57 -4 -64 33 -64 74v410h-56v32h56v179h36v-179h89v-32z" />
    <glyph glyph-name="uni0163" unicode="&#x163;" horiz-adv-x="232" 
d="M208 485h-89v-390c0 -67 9 -61 89 -57v-35l-61 -2h-7l-19 -43h17c41 0 55 -22 55 -54c0 -31 -22 -56 -63 -56c-4 0 -16 0 -20 1v27c4 -1 10 -1 14 -1c29 0 43 12 43 29c0 20 -4 31 -33 31h-42v22l22 48c-27 10 -31 39 -31 70v410h-56v32h56v179h36v-179h89v-32z" />
    <glyph glyph-name="uni021B" unicode="&#x21b;" horiz-adv-x="232" 
d="M208 485h-89v-390c0 -67 9 -61 89 -57v-35l-61 -2c-57 -4 -64 33 -64 74v410h-56v32h56v179h36v-179h89v-32zM107 -99v59h36v-59l-15 -47h-17l14 47h-18z" />
    <glyph glyph-name="u" unicode="u" horiz-adv-x="294" 
d="M219 517h37v-517h-25l-3 50c-13 -38 -48 -60 -90 -60c-70 0 -104 42 -104 111v416h37v-410c0 -58 30 -85 71 -85c37 0 77 23 77 85v410z" />
    <glyph glyph-name="uacute" unicode="&#xfa;" horiz-adv-x="294" 
d="M210 683l-61 -113h-23l42 113h42zM219 517h37v-517h-30v49c-14 -36 -48 -55 -88 -55c-70 0 -104 42 -104 111v412h37v-406c0 -57 30 -84 71 -84c37 0 77 22 77 84v406z" />
    <glyph glyph-name="ucircumflex" unicode="&#xfb;" horiz-adv-x="294" 
d="M148 656l-47 -86h-25l50 113h43l50 -113h-25zM219 517h37v-517h-30v49c-14 -36 -48 -55 -88 -55c-70 0 -104 42 -104 111v412h37v-406c0 -57 30 -84 71 -84c37 0 77 22 77 84v406z" />
    <glyph glyph-name="udieresis" unicode="&#xfc;" horiz-adv-x="294" 
d="M131 623v-50h-34v50h34zM193 623v-50h-34v50h34zM219 517h37v-517h-30v49c-14 -36 -48 -55 -88 -55c-70 0 -104 42 -104 111v412h37v-406c0 -57 30 -84 71 -84c37 0 77 22 77 84v406z" />
    <glyph glyph-name="ugrave" unicode="&#xf9;" horiz-adv-x="294" 
d="M151 588l-5 -18l-59 96l15 17zM219 517h37v-517h-30v49c-14 -36 -48 -55 -88 -55c-70 0 -104 42 -104 111v412h37v-406c0 -57 30 -84 71 -84c37 0 77 22 77 84v406z" />
    <glyph glyph-name="uhungarumlaut" unicode="&#x171;" horiz-adv-x="294" 
d="M169 683l-62 -113h-23l43 113h42zM175 570h-23l43 113h41zM219 517h37v-517h-25l-3 50c-13 -38 -48 -60 -90 -60c-70 0 -104 42 -104 111v416h37v-410c0 -57 30 -83 71 -83c37 0 77 21 77 83v410z" />
    <glyph glyph-name="umacron" unicode="&#x16b;" horiz-adv-x="294" 
d="M213 625v-30h-135v30h135zM219 517h37v-517h-25l-3 50c-13 -38 -48 -60 -90 -60c-70 0 -104 42 -104 111v416h37v-410c0 -57 30 -83 71 -83c37 0 77 21 77 83v410z" />
    <glyph glyph-name="uogonek" unicode="&#x173;" horiz-adv-x="295" 
d="M256 0c-46 -39 -56 -46 -56 -70c0 -13 20 -30 46 -6v-32c-38 -25 -81 2 -81 36c0 28 27 49 66 72l-3 50c-13 -38 -48 -60 -90 -60c-70 0 -104 42 -104 111v416h37v-410c0 -57 30 -83 71 -83c37 0 77 21 77 83v410h37v-517z" />
    <glyph glyph-name="uring" unicode="&#x16f;" horiz-adv-x="293" 
d="M148 553c-33 0 -61 27 -61 61c0 33 28 60 61 60s60 -27 60 -60s-27 -61 -60 -61zM148 649c-21 0 -36 -15 -36 -35c0 -21 15 -36 36 -36c20 0 35 14 35 36c0 20 -15 35 -35 35zM219 517h37v-517h-25l-3 50c-13 -38 -48 -60 -90 -60c-70 0 -103 42 -103 111v416h36v-410
c0 -57 31 -83 72 -83c36 0 76 21 76 83v410z" />
    <glyph glyph-name="v" unicode="v" horiz-adv-x="282" 
d="M223 517h36l-87 -517h-59l-86 517h35l81 -489z" />
    <glyph glyph-name="w" unicode="w" horiz-adv-x="429" 
d="M370 517h36l-77 -517h-51l-62 439l-62 -439h-51l-76 517h36l67 -479l70 479h33l70 -482z" />
    <glyph glyph-name="wacute" unicode="&#x1e83;" horiz-adv-x="429" 
d="M287 683l-62 -113h-23l43 113h42zM370 517h36l-77 -517h-51l-62 422l-62 -422h-51l-76 517h36l67 -479l70 479h33l70 -482z" />
    <glyph glyph-name="wcircumflex" unicode="&#x175;" horiz-adv-x="429" 
d="M215 653l-48 -83h-26l53 113h41l53 -113h-26zM370 517h36l-77 -517h-51l-62 422l-62 -422h-51l-76 517h36l67 -479l70 479h33l70 -482z" />
    <glyph glyph-name="wdieresis" unicode="&#x1e85;" horiz-adv-x="429" 
d="M202 623v-50h-35v50h35zM263 623v-50h-34v50h34zM370 517h36l-77 -517h-51l-62 422l-62 -422h-51l-76 517h36l67 -479l70 479h33l70 -482z" />
    <glyph glyph-name="wgrave" unicode="&#x1e81;" horiz-adv-x="429" 
d="M227 570h-23l-61 113h42zM370 517h36l-77 -517h-51l-62 422l-62 -422h-51l-76 517h36l67 -479l70 479h33l70 -482z" />
    <glyph glyph-name="x" unicode="x" horiz-adv-x="266" 
d="M27 0l81 254l-81 263h34l70 -227l68 227h35l-81 -263l90 -254h-35l-77 221l-70 -221h-34z" />
    <glyph glyph-name="y" unicode="y" horiz-adv-x="292" 
d="M217 517h36v-550c0 -83 -42 -115 -108 -115c-64 0 -104 38 -104 115v10h37c0 -69 25 -93 68 -93c36 0 72 15 72 84v108c-15 -29 -48 -45 -79 -45c-63 0 -98 44 -98 111v375h37v-369c0 -55 30 -84 67 -84c31 0 72 22 72 84v369z" />
    <glyph glyph-name="yacute" unicode="&#xfd;" horiz-adv-x="292" 
d="M208 683l-62 -113h-23l43 113h42zM217 517h36v-542c0 -75 -42 -115 -108 -115c-64 0 -104 45 -104 115v10h37c0 -64 28 -92 68 -92c33 0 71 22 71 84v97c-15 -28 -47 -43 -78 -43c-63 0 -98 44 -98 111v375h37v-369c0 -55 30 -84 67 -84c31 0 72 22 72 84v369z" />
    <glyph glyph-name="ycircumflex" unicode="&#x177;" horiz-adv-x="292" 
d="M148 653l-48 -83h-26l53 113h42l53 -113h-26zM217 517h36v-542c0 -75 -42 -115 -108 -115c-64 0 -104 45 -104 115v10h37c0 -64 28 -92 68 -92c33 0 71 22 71 84v97c-15 -28 -47 -43 -78 -43c-63 0 -98 44 -98 111v375h37v-369c0 -55 30 -84 67 -84c31 0 72 22 72 84v369
z" />
    <glyph glyph-name="ydieresis" unicode="&#xff;" horiz-adv-x="292" 
d="M131 633v-50h-34v50h34zM193 633v-50h-35v50h35zM217 517h36v-542c0 -75 -42 -115 -108 -115c-64 0 -104 45 -104 115v10h37c0 -64 28 -92 68 -92c33 0 71 22 71 84v97c-15 -28 -47 -43 -78 -43c-63 0 -98 44 -98 111v375h37v-369c0 -55 30 -84 67 -84c31 0 72 22 72 84
v369z" />
    <glyph glyph-name="ygrave" unicode="&#x1ef3;" horiz-adv-x="292" 
d="M165 570h-23l-62 113h42zM217 517h36v-542c0 -75 -42 -115 -108 -115c-64 0 -104 45 -104 115v10h37c0 -64 28 -92 68 -92c33 0 71 22 71 84v97c-15 -28 -47 -43 -78 -43c-63 0 -98 44 -98 111v375h37v-369c0 -55 30 -84 67 -84c31 0 72 22 72 84v369z" />
    <glyph glyph-name="z" unicode="z" horiz-adv-x="238" 
d="M27 0l5 36l140 447h-131v34h174l-5 -33l-140 -450h140v-34h-183z" />
    <glyph glyph-name="zacute" unicode="&#x17a;" horiz-adv-x="237" 
d="M99 570l43 113h42l-62 -113h-23zM27 0l5 36l140 447h-131v34h172l-4 -33l-141 -450h140v-34h-181z" />
    <glyph glyph-name="zcaron" unicode="&#x17e;" horiz-adv-x="237" 
d="M107 570l-53 113h26l48 -83l48 83h25l-53 -113h-41zM213 517l-4 -33l-141 -450h140v-34h-181l5 36l140 447h-131v34h172z" />
    <glyph glyph-name="zdotaccent" unicode="&#x17c;" horiz-adv-x="237" 
d="M102 573v50h35v-50h-35zM27 0l5 36l140 447h-131v34h172l-4 -33l-141 -450h140v-34h-181z" />
    <glyph glyph-name="L_A" horiz-adv-x="406" 
d="M85 696v-659h298v-36h-335v695h37zM195 242l-22 -149h-36l92 603h60l94 -603h-36l-23 149h-129zM258 660l-57 -383h118l-58 383h-3z" />
    <glyph glyph-name="L_E" horiz-adv-x="339" 
d="M48 1v695h37v-659h231v-36h-268zM137 93l1 603h178v-35h-143v-257h122v-34h-122v-241h143v-36h-179z" />
    <glyph glyph-name="L_U" horiz-adv-x="422" 
d="M48 1v695h37v-659h296v-36h-333zM264 93c-69 0 -112 42 -112 119v484h37v-484c0 -63 38 -83 76 -83h2c39 0 77 20 77 83v484h37v-484c0 -77 -43 -119 -112 -119h-5z" />
    <glyph glyph-name="L_o" horiz-adv-x="416" 
d="M261 86c-67 0 -108 43 -108 116v383c0 72 41 117 108 117h5c67 0 108 -45 108 -117v-383c0 -73 -41 -116 -108 -116h-5zM48 1v695h37v-659h289v-36h-326zM262 118h3c35 0 73 23 73 86v379c0 62 -38 86 -74 86h-1c-36 0 -74 -24 -74 -86v-379c0 -63 38 -86 73 -86z" />
    <glyph glyph-name="N_N" horiz-adv-x="497" 
d="M412 696h37v-696h-37l-145 555v-555h-37l-145 555v-555h-37v696h37l145 -567v567h37l145 -567v567z" />
    <glyph glyph-name="N_o" horiz-adv-x="601" 
d="M451 702c68 0 109 -45 109 -116v-374c0 -73 -41 -116 -109 -116h-5c-66 0 -107 43 -107 116v374c0 71 41 116 107 116h5zM230 129v567h37v-696h-37l-145 555v-555h-37v696h37zM524 214v370c0 62 -38 86 -75 86h-1c-35 0 -73 -24 -73 -86v-370c0 -63 38 -86 73 -86h2
c36 0 74 23 74 86zM339 0v36h221v-36h-221z" />
    <glyph glyph-name="c_t" horiz-adv-x="512" 
d="M489 485h-89v-390c0 -67 9 -61 89 -57v-35l-61 -2c-57 -4 -64 33 -64 74v410h-55v32h55v172c0 53 -12 84 -53 84c-40 0 -52 -31 -52 -84v-360h-36v82c0 62 -38 85 -73 85c-34 0 -72 -23 -72 -85v-302c0 -62 38 -85 72 -85c35 0 73 23 73 85v91h36v-93
c0 -74 -40 -115 -109 -115c-67 0 -109 43 -109 115v306c0 72 42 115 109 115c31 0 55 -8 73 -23v183c0 63 21 115 88 115c68 0 89 -50 89 -115v-171h89v-32z" />
    <glyph glyph-name="f_h" horiz-adv-x="525" 
d="M395 528c64 0 89 -42 89 -111v-417h-37v414c0 54 -22 81 -60 81c-39 0 -88 -22 -88 -84v-411h-37v664h-67c-38 0 -76 -20 -76 -84v-63h89v-32h-89v-485h-36v485h-56v32h56v63c0 73 41 116 107 116h109v-218c18 32 56 50 96 50z" />
    <glyph glyph-name="s_t" horiz-adv-x="495" 
d="M472 485h-89v-390c0 -67 9 -61 89 -57v-35l-61 -2c-58 -4 -65 33 -65 74v410h-54v32h54v172c0 53 -11 84 -52 84s-52 -31 -52 -84v-353h-35v97c0 56 -40 64 -60 64c-31 0 -70 -9 -70 -64v-63c0 -92 175 -78 175 -202v-67c0 -76 -41 -109 -106 -109
c-61 0 -104 33 -104 106v94h35v-90c0 -61 32 -78 69 -78c43 0 71 17 71 77v64c0 99 -175 85 -175 203v67c0 65 47 93 105 93c21 0 43 -6 60 -18v178c0 63 20 115 87 115s89 -50 89 -115v-171h89v-32z" />
    <glyph glyph-name="ordfeminine" unicode="&#xaa;" horiz-adv-x="140" 
d="M73 706c24 0 49 -12 50 -41v-168h-22v16c-6 -13 -19 -19 -36 -19c-30 0 -48 13 -48 52v18c0 50 82 52 82 88v7c0 18 -13 26 -25 26c-13 0 -26 -8 -26 -26v-29h-23v34c0 30 26 42 48 42zM99 545v70c-19 -19 -58 -25 -58 -54v-18c0 -23 11 -27 29 -27c15 0 29 6 29 29z" />
    <glyph glyph-name="ordmasculine" unicode="&#xba;" horiz-adv-x="162" 
d="M68 491c-27 0 -52 19 -52 50v115c0 30 25 49 52 49h5c27 0 52 -19 52 -49v-115c0 -31 -25 -50 -52 -50h-5zM70 514h1c16 0 31 9 31 36v97c0 26 -16 36 -31 36h-1c-14 0 -31 -10 -31 -36v-97c0 -27 17 -36 31 -36z" />
    <glyph glyph-name="zero" unicode="0" horiz-adv-x="291" 
d="M143 -9c-60 0 -102 41 -102 118v477c0 77 42 118 102 118h5c60 0 102 -41 102 -118v-477c0 -77 -42 -118 -102 -118h-5zM144 22h3c29 0 67 22 67 84v483c0 62 -38 84 -68 84h-1c-30 0 -68 -22 -68 -84v-483c0 -62 38 -84 67 -84z" />
    <glyph glyph-name="one" unicode="1" horiz-adv-x="145" 
d="M97 696v-696h-36v664h-50v32h86z" />
    <glyph glyph-name="two" unicode="2" horiz-adv-x="287" 
d="M41 0v189c0 153 168 143 168 270v141c0 55 -39 74 -66 74c-26 0 -65 -19 -65 -75v-85h-36v86c0 64 39 105 101 105c63 0 102 -41 102 -105v-142c0 -154 -167 -143 -167 -271v-152h131v121h37v-156h-205z" />
    <glyph glyph-name="three" unicode="3" horiz-adv-x="300" 
d="M202 371c25 -8 57 -32 57 -96v-171c0 -70 -38 -114 -113 -114c-69 0 -105 42 -105 114v86h37l-1 -84c0 -56 27 -83 69 -83c47 0 77 27 77 83l1 168c0 74 -54 79 -91 79h-33v34h32c37 0 85 10 85 81v122c0 68 -36 84 -71 84c-32 0 -67 -22 -67 -84v-73h-36v75
c0 75 37 115 102 115c72 0 108 -42 108 -115v-126c0 -52 -28 -83 -51 -95z" />
    <glyph glyph-name="four" unicode="4" horiz-adv-x="274" 
d="M226 696v-696h-37v207h-178v35l171 454h44zM47 242h142v379z" />
    <glyph glyph-name="five" unicode="5" horiz-adv-x="296" 
d="M154 483c62 0 101 -42 101 -114l-1 -274c0 -65 -42 -105 -106 -105c-66 0 -107 41 -107 105v94h37v-92c0 -56 39 -74 70 -74s70 18 70 74v271c0 62 -38 85 -69 85c-32 0 -70 -23 -70 -85v-11h-36l-2 339h213v-37h-176l1 -215c13 26 41 39 75 39z" />
    <glyph glyph-name="six" unicode="6" horiz-adv-x="303" 
d="M261 521h-36v68c0 62 -38 84 -74 84c-35 0 -73 -22 -73 -84v-143c16 27 47 37 79 37c66 0 104 -42 104 -114v-262c0 -72 -41 -114 -108 -114c-74 0 -112 44 -112 114v482c0 75 41 115 110 115s110 -45 110 -115v-68zM152 453c-36 0 -74 -23 -74 -85v-259
c0 -53 28 -84 74 -84c35 0 73 22 73 84v259c0 62 -38 85 -73 85z" />
    <glyph glyph-name="seven" unicode="7" horiz-adv-x="251" 
d="M27 659v37h201v-37l-114 -659h-37l112 659h-162z" />
    <glyph glyph-name="eight" unicode="8" horiz-adv-x="306" 
d="M207 375c33 -15 58 -49 58 -100v-169c0 -72 -34 -114 -112 -114c-76 0 -112 42 -112 114v169c0 51 21 85 54 100c-29 17 -49 50 -49 97v117c0 72 35 115 106 115c74 0 107 -47 107 -115v-117c0 -47 -24 -80 -52 -97zM82 589v-115c0 -63 31 -84 71 -84c35 0 70 32 70 84
v115c0 62 -28 84 -70 84c-43 0 -71 -22 -71 -84zM228 108v166c0 61 -39 83 -75 83c-37 0 -75 -22 -75 -83v-166c0 -62 31 -83 75 -83s75 21 75 83z" />
    <glyph glyph-name="nine" unicode="9" horiz-adv-x="294" 
d="M146 704c75 0 106 -44 106 -115v-483c0 -74 -36 -114 -105 -114c-71 0 -106 41 -106 114v56h37v-54c0 -61 33 -83 69 -83c35 0 69 22 69 83v142c-16 -27 -47 -36 -79 -36c-58 0 -96 41 -96 114v261c0 72 35 115 105 115zM142 244c36 0 74 22 74 84v259
c0 53 -23 84 -69 84c-45 0 -69 -21 -69 -84v-259c0 -62 37 -84 64 -84z" />
    <glyph glyph-name="fraction" unicode="&#x2044;" horiz-adv-x="272" 
d="M219 696h36l-203 -696h-35z" />
    <glyph glyph-name="period" unicode="." horiz-adv-x="78" 
d="M22 59h34v-59h-34v59z" />
    <glyph glyph-name="comma" unicode="," horiz-adv-x="79" 
d="M21 0v59h37v-59l-15 -48h-17l14 48h-19z" />
    <glyph glyph-name="colon" unicode=":" horiz-adv-x="77" 
d="M22 293v59h34v-59h-34zM22 0v59h34v-59h-34z" />
    <glyph glyph-name="semicolon" unicode=";" horiz-adv-x="79" 
d="M22 293v59h34v-59h-34zM26 -48l14 48h-19v59h37v-59l-15 -48h-17z" />
    <glyph glyph-name="ellipsis" unicode="&#x2026;" horiz-adv-x="177" 
d="M15 59h35v-59h-35v59zM70 59h35v-59h-35v59zM127 59h34v-59h-34v59z" />
    <glyph glyph-name="exclam" unicode="!" horiz-adv-x="133" 
d="M56 111l-8 129v456h37v-456l-8 -129h-21zM49 0v59h35v-59h-35z" />
    <glyph glyph-name="exclamdown" unicode="&#xa1;" horiz-adv-x="134" 
d="M48 587h37v-60h-37v60zM56 459h21l8 -149v-418h-36v418z" />
    <glyph glyph-name="question" unicode="?" horiz-adv-x="243" 
d="M96 111v136c0 151 89 100 89 229v122c0 56 -38 74 -63 74s-63 -19 -63 -74v-89h-37v93c0 64 39 104 100 104s99 -40 99 -104v-123c0 -154 -88 -100 -88 -232v-136h-37zM96 0v59h37v-59h-37z" />
    <glyph glyph-name="questiondown" unicode="&#xbf;" horiz-adv-x="243" 
d="M110 528v59h37v-59h-37zM122 -119c-62 0 -100 40 -100 104v123c0 154 88 100 88 232v119h37v-119c0 -151 -89 -99 -89 -229v-122c0 -56 38 -74 64 -74c24 0 62 19 62 75v88h37v-93c0 -64 -39 -104 -99 -104z" />
    <glyph glyph-name="periodcentered" unicode="&#xb7;" horiz-adv-x="94" 
d="M22 336h50v-50h-50v50z" />
    <glyph glyph-name="bullet" unicode="&#x2022;" horiz-adv-x="117" 
d="M59 324c-21 0 -37 8 -37 37c0 28 16 36 37 36c20 0 36 -8 36 -36c0 -29 -16 -37 -36 -37z" />
    <glyph glyph-name="asterisk" unicode="*" horiz-adv-x="178" 
d="M104 646l19 -18l20 -26l-22 -17l-20 26l-12 21l-11 -21l-20 -26l-22 17l20 26l18 18l-24 3l-30 10l7 26l32 -10l20 -10l-4 26v33h28v-33l-4 -26l20 10l32 10l8 -26l-31 -10z" />
    <glyph glyph-name="numbersign" unicode="#" horiz-adv-x="444" 
d="M421 483h-88l-35 -249h89l-5 -37h-89l-28 -197h-36l28 197h-116l-28 -197h-35l28 197h-88l5 37h88l35 249h-89l5 36h89l25 177h36l-25 -177h115l25 177h36l-25 -177h88zM262 234l35 249h-115l-36 -249h116z" />
    <glyph glyph-name="slash" unicode="/" horiz-adv-x="200" 
d="M11 0l143 749h34l-144 -749h-33z" />
    <glyph glyph-name="backslash" unicode="\" horiz-adv-x="200" 
d="M45 749l143 -749h-33l-144 749h34z" />
    <glyph glyph-name="parenleft" unicode="(" horiz-adv-x="155" 
d="M22 -38v689c0 94 36 131 97 131h24v-33h-23c-65 0 -62 -80 -62 -112v-661c0 -32 -3 -112 62 -112h23v-33h-24c-61 0 -97 37 -97 131z" />
    <glyph glyph-name="parenright" unicode=")" horiz-adv-x="155" 
d="M12 -169v33h24c64 0 61 80 61 112v661c0 32 3 112 -61 112h-24v33h24c62 0 97 -37 97 -131v-689c0 -94 -35 -131 -97 -131h-24z" />
    <glyph glyph-name="braceleft" unicode="{" horiz-adv-x="186" 
d="M115 399c0 -46 -18 -68 -38 -77c20 -9 38 -30 38 -76v-329c0 -52 19 -54 38 -54h21v-32h-21c-62 0 -74 37 -74 122v296c0 49 -17 57 -58 57v32c43 0 58 11 58 59v287c0 50 12 106 74 106h21v-32h-21c-19 0 -38 -16 -38 -58v-301z" />
    <glyph glyph-name="braceright" unicode="}" horiz-adv-x="186" 
d="M106 397c0 -48 16 -59 59 -59v-32c-41 0 -59 -8 -59 -57v-293c0 -86 -11 -125 -73 -125h-21v32h20c20 0 39 2 39 54v329c0 46 18 67 38 76c-20 9 -38 31 -38 77v301c0 42 -19 58 -39 58h-20v32h21c62 0 73 -56 73 -106v-287z" />
    <glyph glyph-name="bracketleft" unicode="[" horiz-adv-x="190" 
d="M48 -170l1 952h122v-29h-88v-894h95v-29h-130z" />
    <glyph glyph-name="bracketright" unicode="]" horiz-adv-x="190" 
d="M142 -170h-130v29h95v894h-88v29h122z" />
    <glyph glyph-name="hyphen" unicode="-" horiz-adv-x="244" 
d="M20 318h204v-30h-204v30z" />
    <glyph glyph-name="endash" unicode="&#x2013;" horiz-adv-x="387" 
d="M20 320h346v-32h-346v32z" />
    <glyph glyph-name="emdash" unicode="&#x2014;" horiz-adv-x="481" 
d="M20 320h440v-32h-440v32z" />
    <glyph glyph-name="underscore" unicode="_" horiz-adv-x="314" 
d="M20 30h274v-30h-274v30z" />
    <glyph glyph-name="quotesinglbase" unicode="&#x201a;" horiz-adv-x="78" 
 />
    <glyph glyph-name="quotedblbase" unicode="&#x201e;" horiz-adv-x="78" 
 />
    <glyph glyph-name="quotedblleft" unicode="&#x201c;" horiz-adv-x="148" 
d="M29 625v61l15 46h17l-14 -46h18v-61h-36zM83 625v61l15 46h17l-14 -46h18v-61h-36z" />
    <glyph glyph-name="quotedblright" unicode="&#x201d;" horiz-adv-x="148" 
d="M29 696h36v-60l-15 -47h-16l13 47h-18v60zM83 696h36v-60l-15 -47h-16l13 47h-18v60z" />
    <glyph glyph-name="quoteleft" unicode="&#x2018;" horiz-adv-x="79" 
d="M58 625h-37v61l15 46h17l-14 -46h19v-61z" />
    <glyph glyph-name="quoteright" unicode="&#x2019;" horiz-adv-x="79" 
d="M21 696h37v-60l-15 -47h-17l14 47h-19v60z" />
    <glyph glyph-name="guillemotleft" unicode="&#xab;" horiz-adv-x="328" 
d="M187 124l-167 154l167 153h44l-167 -153l167 -154h-44zM270 124l-167 154l167 153h43l-167 -153l167 -154h-43z" />
    <glyph glyph-name="guillemotright" unicode="&#xbb;" horiz-adv-x="324" 
d="M11 124l167 154l-167 153h43l167 -153l-167 -154h-43zM93 124l167 154l-167 153h43l167 -153l-167 -154h-43z" />
    <glyph glyph-name="guilsinglleft" unicode="&#x2039;" horiz-adv-x="242" 
d="M187 124l-167 154l167 153h44l-167 -153l167 -154h-44z" />
    <glyph glyph-name="guilsinglright" unicode="&#x203a;" horiz-adv-x="242" 
d="M11 124l167 154l-167 153h43l167 -153l-167 -154h-43z" />
    <glyph glyph-name="quotedbl" unicode="&#x22;" horiz-adv-x="133" 
d="M21 696h37v-60l-15 -46h-17l14 46h-19v60zM75 696h37v-60l-15 -46h-17l14 46h-19v60z" />
    <glyph glyph-name="quotesingle" unicode="'" horiz-adv-x="80" 
d="M21 636v60h37v-60l-15 -47h-17l14 47h-19z" />
    <glyph glyph-name="space" unicode=" " horiz-adv-x="122" 
 />
    <glyph glyph-name="cent" unicode="&#xa2;" horiz-adv-x="300" 
d="M259 273h-36v78c0 62 -38 85 -73 85c-34 0 -72 -23 -72 -85v-240c0 -62 38 -84 72 -84c35 0 73 22 73 84v85h36v-86c0 -69 -35 -109 -95 -114v-73h-29v73c-58 6 -94 48 -94 114v243c0 66 36 108 94 114v73h29v-73c62 -5 95 -48 95 -114v-80z" />
    <glyph glyph-name="currency" unicode="&#xa4;" horiz-adv-x="289" 
d="M20 65l-20 20l60 59c-18 19 -26 46 -26 80v85c0 33 9 60 25 79l-59 59l20 20l60 -60c16 11 37 17 61 17h5c25 0 46 -6 63 -17l60 60l20 -20l-59 -60c16 -19 25 -46 25 -78v-85c0 -33 -9 -60 -26 -79l60 -60l-20 -20l-61 60c-17 -10 -38 -16 -62 -16h-5
c-23 0 -44 5 -61 15zM142 141h3c36 0 74 22 74 85v81c0 62 -38 84 -75 84h-1c-35 0 -73 -22 -73 -84v-81c0 -63 38 -85 72 -85z" />
    <glyph glyph-name="dollar" unicode="$" horiz-adv-x="280" 
d="M241 434h-36v91c0 54 -33 73 -60 73c-28 0 -61 -18 -61 -73v-109c0 -125 157 -59 157 -209v-99c0 -69 -32 -111 -85 -118v-77h-30v77c-54 6 -86 48 -86 118v85h35v-85c0 -61 29 -87 65 -87s65 26 65 87v98c0 125 -155 59 -155 210v109c0 58 26 96 76 104v67h30v-66
c55 -5 85 -44 85 -105v-91z" />
    <glyph glyph-name="Euro" unicode="&#x20ac;" horiz-adv-x="275" 
d="M253 435h-35v78c0 61 -38 83 -74 83c-35 0 -73 -22 -73 -83v-132h137v-31h-137v-66h137v-30h-137v-144c0 -61 38 -83 73 -83c36 0 74 22 74 83v84h35v-82c0 -76 -39 -117 -109 -117c-68 0 -108 43 -108 117v142h-36v30h36v66h-36v31h36v133c0 70 40 113 108 113
c72 0 109 -43 109 -113v-79z" />
    <glyph glyph-name="sterling" unicode="&#xa3;" horiz-adv-x="319" 
d="M280 434h-35v79c0 61 -38 83 -74 83s-73 -22 -73 -83v-227h137v-33h-137v-217h182v-36h-253v36h36v217h-36v33h36v228c0 70 40 113 108 113c71 0 109 -43 109 -113v-80z" />
    <glyph glyph-name="yen" unicode="&#xa5;" horiz-adv-x="282" 
d="M160 256v-4h88v-30h-88v-58h88v-30h-88v-134h-35l-1 134h-84v30h84v58h-84v30h84v4l-104 375h35l87 -320l84 320h35z" />
    <glyph glyph-name="plus" unicode="+" horiz-adv-x="244" 
d="M224 271v-33h-85v-85h-33v85h-86v33h85v85h34v-85h85z" />
    <glyph glyph-name="minus" unicode="&#x2212;" horiz-adv-x="297" 
d="M12 374h273v-30h-273v30z" />
    <glyph glyph-name="multiply" unicode="&#xd7;" horiz-adv-x="241" 
d="M227 442l-86 -86l86 -86l-21 -21l-86 86l-86 -86l-21 21l86 86l-85 86l20 21l86 -86l86 86z" />
    <glyph glyph-name="divide" unicode="&#xf7;" horiz-adv-x="297" 
d="M120 404h50v-51h-50v51zM12 266h273v-30h-273v30zM120 148h50v-50h-50v50z" />
    <glyph glyph-name="equal" unicode="=" horiz-adv-x="314" 
d="M20 324h274v-30h-274v30zM20 204h274v-30h-274v30z" />
    <glyph glyph-name="notequal" unicode="&#x2260;" horiz-adv-x="297" 
d="M285 344h-107l-22 -100h129v-30h-136l-31 -145h-35l31 145h-102v30h108l21 100h-129v30h136l25 119h37l-26 -119h101v-30z" />
    <glyph glyph-name="greater" unicode="&#x3e;" horiz-adv-x="226" 
d="M10 124l167 154l-167 153h44l167 -153l-167 -154h-44z" />
    <glyph glyph-name="less" unicode="&#x3c;" horiz-adv-x="232" 
d="M223 124h-45l-167 154l167 153h45l-167 -153z" />
    <glyph glyph-name="greaterequal" unicode="&#x2265;" horiz-adv-x="233" 
d="M11 124l167 154l-167 153h43l167 -153l-167 -154h-43zM12 30h198v-30h-198v30z" />
    <glyph glyph-name="lessequal" unicode="&#x2264;" horiz-adv-x="233" 
d="M222 124h-43l-167 154l167 153h43l-167 -153zM221 30v-30h-198v30h198z" />
    <glyph glyph-name="plusminus" unicode="&#xb1;" horiz-adv-x="244" 
d="M139 271h85v-33h-85v-85h-33v85h-86v33h85v85h34v-85zM20 0v30h204v-30h-204z" />
    <glyph glyph-name="approxequal" unicode="&#x2248;" horiz-adv-x="426" 
d="M205 325c-79 34 -155 55 -155 -12h-30c0 101 103 81 194 39c78 -36 163 -36 163 32h29c0 -102 -113 -100 -201 -59zM205 231c-79 34 -155 56 -155 -12h-30c0 101 103 81 194 39c78 -35 163 -35 163 32h29c0 -101 -113 -99 -201 -59z" />
    <glyph glyph-name="asciitilde" unicode="~" horiz-adv-x="222" 
d="M52 288l-26 11c14 42 53 42 90 25c14 -5 42 -22 52 13l27 -11c-14 -44 -51 -44 -90 -26c-14 5 -43 21 -53 -12z" />
    <glyph glyph-name="logicalnot" unicode="&#xac;" horiz-adv-x="227" 
d="M215 271v-118h-33v85h-170v33h203z" />
    <glyph glyph-name="asciicircum" unicode="^" horiz-adv-x="158" 
d="M114 515l-31 147h-8l-32 -147h-31l44 181h46l44 -181h-32z" />
    <glyph glyph-name="infinity" unicode="&#x221e;" horiz-adv-x="466" 
d="M336 372c98 0 117 -35 117 -80s-19 -79 -117 -79c-56 0 -87 13 -102 33c-15 -20 -46 -33 -105 -33c-93 0 -117 34 -117 79s24 80 117 80c59 0 90 -13 105 -33c15 20 46 33 102 33zM129 242c73 0 91 20 91 50c0 31 -18 52 -91 52c-69 0 -91 -21 -91 -52
c0 -30 22 -50 91 -50zM336 242c74 0 92 20 92 50c0 31 -18 52 -92 52c-69 0 -90 -21 -90 -52c0 -30 21 -50 90 -50z" />
    <glyph glyph-name="emptyset" unicode="&#x2205;" horiz-adv-x="326" 
d="M318 697l-51 -130v-456c0 -77 -42 -119 -104 -119h-5c-43 0 -77 20 -93 59l-20 -51h-36l45 115v470c0 76 42 119 104 119h5c45 0 80 -23 95 -65l23 58h37zM92 586v-373l137 351v22c0 63 -38 85 -68 85h-1c-30 0 -68 -22 -68 -85zM229 111v359l-137 -350v-9
c0 -63 38 -85 67 -85h2c30 0 68 22 68 85z" />
    <glyph glyph-name="integral" unicode="&#x222b;" horiz-adv-x="178" 
d="M179 774h18v-30h-15c-38 0 -76 -22 -76 -86v-721c0 -73 -40 -116 -106 -116h-18v30h13c38 0 76 23 76 86v721c0 74 41 116 108 116z" />
    <glyph glyph-name="product" unicode="&#x220f;" horiz-adv-x="489" 
d="M441 774v-965h-31v937l-330 -1v-936h-32v965h393z" />
    <glyph glyph-name="summation" unicode="&#x2211;" horiz-adv-x="424" 
d="M410 774v-29l-370 -1v30h370zM40 -160l177 452l-177 452h36l178 -452l-178 -452h334v-29l-370 -1v30z" />
    <glyph glyph-name="radical" unicode="&#x221a;" horiz-adv-x="440" 
d="M394 800h33l-214 -1000h-32l-98 456l-69 -1v30h96l87 -410z" />
    <glyph glyph-name="partialdiff" unicode="&#x2202;" horiz-adv-x="320" 
d="M230 704c69 0 101 -40 87 -115l-94 -482c-14 -70 -60 -114 -134 -114c-67 0 -100 42 -86 114l51 262c14 72 60 114 127 114c32 0 61 -10 71 -37l29 143c11 62 -22 84 -58 84c-35 0 -78 -22 -90 -84l-13 -68h-36l13 68c13 70 64 115 133 115zM238 368c12 62 -22 85 -58 85
s-78 -23 -90 -85l-50 -259c-12 -62 22 -84 56 -84c46 0 81 31 91 84z" />
    <glyph glyph-name="percent" unicode="%" horiz-adv-x="435" 
d="M121 421c-62 0 -83 42 -83 112v61c0 69 21 112 83 112h5c62 0 84 -43 84 -112v-61c0 -70 -22 -112 -84 -112h-5zM23 0l352 696h36l-353 -696h-35zM122 449h3c34 0 55 21 55 83v63c0 61 -21 83 -56 83h-1c-35 0 -55 -22 -55 -83v-63c0 -62 20 -83 54 -83zM313 -10
c-63 0 -83 42 -83 112v60c0 70 20 112 83 112h5c64 0 84 -42 84 -112v-60c0 -70 -20 -112 -84 -112h-5zM314 18h3c35 0 55 21 55 83v63c0 61 -20 83 -56 83h-1c-35 0 -55 -22 -55 -83v-63c0 -62 20 -83 54 -83z" />
    <glyph glyph-name="perthousand" unicode="&#x2030;" horiz-adv-x="620" 
d="M121 421c-62 0 -83 42 -83 112v61c0 69 21 112 83 112h5c62 0 84 -43 84 -112v-61c0 -70 -22 -112 -84 -112h-5zM23 0l352 696h36l-353 -696h-35zM122 449h3c34 0 55 21 55 83v63c0 61 -21 83 -56 83h-1c-35 0 -55 -22 -55 -83v-63c0 -62 20 -83 54 -83zM313 -10
c-63 0 -83 42 -83 112v60c0 70 20 112 83 112h5c64 0 84 -42 84 -112v-60c0 -70 -20 -112 -84 -112h-5zM510 -10c-63 0 -83 42 -83 112v60c0 70 20 112 83 112h5c64 0 84 -42 84 -112v-60c0 -70 -20 -112 -84 -112h-5zM314 18h3c35 0 55 21 55 83v63c0 61 -20 83 -56 83h-1
c-35 0 -55 -22 -55 -83v-63c0 -62 20 -83 54 -83zM511 18h3c35 0 55 21 55 83v63c0 61 -20 83 -56 83h-1c-34 0 -55 -22 -55 -83v-63c0 -62 21 -83 54 -83z" />
    <glyph glyph-name="at" unicode="@" horiz-adv-x="421" 
d="M300 515v-268c0 -63 9 -84 36 -84c34 0 29 52 29 84v322c0 79 -58 99 -155 99c-98 0 -154 -20 -154 -99v-427c0 -80 63 -111 161 -111h179v-31h-179c-123 0 -193 45 -193 142v421c0 102 64 136 186 136s186 -34 186 -136v-316c0 -58 -4 -110 -57 -110
c-38 0 -51 20 -55 55c-12 -33 -40 -55 -79 -55c-60 0 -94 42 -94 110v177c0 67 34 109 93 109c31 0 60 -21 72 -45v27h24zM270 247v176c0 61 -33 83 -64 83c-32 0 -65 -22 -65 -83v-176c0 -61 33 -83 65 -84c31 0 64 23 64 84z" />
    <glyph glyph-name="ampersand" unicode="&#x26;" horiz-adv-x="300" 
d="M276 33h8v-33h-8c-31 0 -54 16 -66 39c-15 -29 -43 -47 -84 -47c-73 0 -111 45 -111 116v155c0 67 37 88 61 94c-24 10 -55 40 -55 96v138c0 73 36 114 105 114c62 0 100 -39 100 -114v-156h-36v154c0 62 -34 83 -64 83c-35 0 -69 -15 -69 -83v-133c0 -71 46 -80 82 -80
h140v-34h-53v-233c0 -40 19 -76 50 -76zM125 26c42 0 67 30 67 83l-1 233h-53c-35 0 -88 -5 -88 -80l1 -153c0 -53 30 -83 74 -83z" />
    <glyph glyph-name="paragraph" unicode="&#xb6;" horiz-adv-x="259" 
d="M124 0v291h-5c-44 0 -99 13 -99 118v174c0 105 55 113 99 113h118v-28h-28v-668h-28v669h-30v-669h-27z" />
    <glyph glyph-name="section" unicode="&#xa7;" horiz-adv-x="260" 
d="M236 506h-36v63c0 56 -49 63 -70 63c-22 0 -70 -8 -70 -63v-46c0 -91 175 -77 175 -201v-65c0 -62 -33 -96 -76 -106c40 -22 76 -50 76 -106v-39c0 -77 -49 -109 -105 -109c-54 0 -106 32 -106 106v60h35v-56c0 -62 42 -79 71 -79c34 0 70 17 70 78v36
c0 96 -165 85 -175 192c0 6 -1 13 -1 20v40h1v17c0 66 56 93 105 93c-48 27 -104 51 -104 117v50c0 66 55 94 104 94c47 0 106 -28 106 -94v-65zM200 257v52c0 56 -50 63 -70 63c-22 0 -70 -8 -70 -63v-51c0 -26 7 -44 18 -56c3 -3 5 -5 9 -8c13 -10 29 -14 43 -14
c34 0 70 17 70 77z" />
    <glyph glyph-name="copyright" unicode="&#xa9;" horiz-adv-x="398" 
d="M199 49c-104 0 -175 58 -175 257c0 204 71 256 175 256c105 0 175 -52 175 -256c0 -199 -70 -257 -175 -257zM199 76c91 0 149 48 149 230c0 188 -58 229 -149 229s-149 -41 -149 -229c0 -182 58 -230 149 -230zM200 128c-57 0 -90 41 -90 107v154c0 66 33 107 90 107
c59 0 90 -42 90 -107v-38h-28v37c0 59 -33 81 -62 81s-62 -22 -62 -81v-152c0 -60 33 -81 62 -81s62 21 62 81v42h28v-43c0 -69 -33 -107 -90 -107z" />
    <glyph glyph-name="registered" unicode="&#xae;" horiz-adv-x="398" 
d="M199 49c-104 0 -175 58 -175 257c0 204 71 256 175 256c105 0 175 -52 175 -256c0 -199 -70 -257 -175 -257zM199 76c91 0 149 48 149 230c0 188 -58 229 -149 229s-149 -41 -149 -229c0 -182 58 -230 149 -230zM133 137v352h76c52 0 71 -22 71 -76v-66
c0 -43 -11 -73 -53 -79l53 -131h-29l-52 130h-38v-130h-28zM161 292h46c34 0 44 14 44 57v63c0 49 -19 52 -43 52h-47v-172z" />
    <glyph glyph-name="trademark" unicode="&#x2122;" horiz-adv-x="316" 
d="M15 671v25h104v-25h-40v-288h-25v288h-39zM268 696v-313h-25v211l-27 -211h-22l-29 221v-221h-25v313h35l30 -245l29 245h34z" />
    <glyph glyph-name="degree" unicode="&#xb0;" horiz-adv-x="199" 
d="M100 483c-45 0 -80 24 -80 116c0 98 35 117 80 117c46 0 79 -19 79 -117c0 -92 -33 -116 -79 -116zM100 509c30 0 51 21 51 90c0 74 -21 92 -51 92c-31 0 -51 -18 -51 -92c0 -69 20 -90 51 -90z" />
    <glyph glyph-name="bar" unicode="|" horiz-adv-x="127" 
d="M48 -200v1000h31v-1000h-31z" />
    <glyph glyph-name="brokenbar" unicode="&#xa6;" horiz-adv-x="130" 
d="M48 415v385h34v-385h-34zM82 185v-385h-34v385h34z" />
    <glyph glyph-name="dagger" unicode="&#x2020;" horiz-adv-x="436" 
d="M416 511v-34h-180v-617h-34v617h-182v34h182v201h34v-201h180z" />
    <glyph glyph-name="daggerdbl" unicode="&#x2021;" horiz-adv-x="436" 
d="M416 477h-180v-425h180v-33h-180v-159h-34v159h-182v33h182v425h-182v34h182v201h34v-201h180v-34z" />
    <glyph glyph-name="uni0308" unicode="&#x308;" horiz-adv-x="0" 
d="M-123 732v42h35v-42h-35zM-61 732v42h34v-42h-34z" />
    <glyph glyph-name="uni0307" unicode="&#x307;" horiz-adv-x="0" 
d="M-48 732v42h34v-42h-34z" />
    <glyph glyph-name="gravecomb" unicode="&#x300;" horiz-adv-x="0" 
d="M-10 726h-23l-61 112h42z" />
    <glyph glyph-name="acutecomb" unicode="&#x301;" horiz-adv-x="0" 
d="M-103 726l43 112h42l-61 -112h-24z" />
    <glyph glyph-name="uni030B" unicode="&#x30b;" horiz-adv-x="0" 
d="M-173 726l43 112h42l-62 -112h-23zM-105 726l43 112h41l-61 -112h-23z" />
    <glyph glyph-name="uni0302" unicode="&#x302;" horiz-adv-x="0" 
d="M-8 726h-26l-48 82l-48 -82h-25l53 112h41z" />
    <glyph glyph-name="uni030C" unicode="&#x30c;" horiz-adv-x="0" 
d="M-35 838h26l-53 -112h-42l-53 112h26l48 -83z" />
    <glyph glyph-name="uni0306" unicode="&#x306;" horiz-adv-x="0" 
d="M-104 723c-51 0 -84 32 -79 100h30c-6 -50 13 -72 49 -72c35 0 56 22 50 72h29c6 -68 -29 -100 -79 -100z" />
    <glyph glyph-name="uni030A" unicode="&#x30a;" horiz-adv-x="0" 
d="M-88 710c-33 0 -60 28 -60 61s27 60 60 60c34 0 61 -27 61 -60s-27 -61 -61 -61zM-88 735c21 0 36 14 36 36c0 20 -15 35 -36 35c-20 0 -35 -15 -35 -35c0 -21 15 -36 35 -36z" />
    <glyph glyph-name="tildecomb" unicode="&#x303;" horiz-adv-x="0" 
d="M-158 729l-26 11c14 42 53 42 91 25c14 -5 41 -22 52 13l26 -11c-14 -44 -51 -44 -89 -26c-14 5 -43 21 -54 -12z" />
    <glyph glyph-name="uni0304" unicode="&#x304;" horiz-adv-x="0" 
d="M-179 758h135v-31h-135v31z" />
    <glyph glyph-name="uni0312" unicode="&#x312;" horiz-adv-x="0" 
d="M-21 650v-61h-37v61l15 46h17l-14 -46h19z" />
    <glyph glyph-name="uni0326" unicode="&#x326;" horiz-adv-x="0" 
d="M-54 -99v59h36v-59l-15 -47h-17l14 47h-18z" />
    <glyph glyph-name="uni0327" unicode="&#x327;" horiz-adv-x="0" 
d="M-122 -65v22l21 44h27l-19 -43h17c41 0 55 -22 55 -54c0 -31 -22 -56 -63 -56c-4 0 -16 0 -20 1v27c4 -1 10 -1 14 -1c29 0 43 12 43 29c0 20 -4 31 -33 31h-42z" />
    <glyph glyph-name="uni0328" unicode="&#x328;" horiz-adv-x="0" 
d="M-1 0c-46 -39 -56 -46 -56 -70c0 -13 20 -30 46 -6v-32c-38 -25 -81 2 -81 36c0 28 18 47 55 72h36z" />
    <glyph glyph-name="acute" unicode="&#xb4;" horiz-adv-x="128" 
d="M21 726l43 112h42l-62 -112h-23z" />
    <glyph glyph-name="breve" unicode="&#x2d8;" horiz-adv-x="211" 
d="M107 723c-51 0 -84 32 -79 100h30c-6 -50 13 -72 49 -72c35 0 56 22 50 72h29c6 -68 -29 -100 -79 -100z" />
    <glyph glyph-name="caron" unicode="&#x2c7;" horiz-adv-x="181" 
d="M130 838h26l-53 -112h-41l-53 112h25l48 -82z" />
    <glyph glyph-name="cedilla" unicode="&#xb8;" horiz-adv-x="143" 
d="M21 -65v22l20 44h28l-20 -43h18c41 0 55 -22 55 -54c0 -31 -23 -56 -64 -56c-4 0 -16 0 -20 1v27c4 -1 10 -1 14 -1c29 0 43 12 43 29c0 20 -4 31 -32 31h-42z" />
    <glyph glyph-name="circumflex" unicode="&#x2c6;" horiz-adv-x="164" 
d="M132 821l-37 -55l15 -23l-34 -17l-10 17h-1v1l-46 77l29 17l42 -65l41 48h1z" />
    <glyph glyph-name="dieresis" unicode="&#xa8;" horiz-adv-x="171" 
d="M27 732v42h35v-42h-35zM89 732v42h34v-42h-34z" />
    <glyph glyph-name="dotaccent" unicode="&#x2d9;" horiz-adv-x="56" 
d="M11 732v42h34v-42h-34z" />
    <glyph glyph-name="grave" unicode="`" horiz-adv-x="128" 
d="M109 725h-20l-70 126h42z" />
    <glyph glyph-name="hungarumlaut" unicode="&#x2dd;" horiz-adv-x="191" 
d="M21 726l43 112h42l-62 -112h-23zM89 726l43 112h41l-61 -112h-23z" />
    <glyph glyph-name="macron" unicode="&#xaf;" horiz-adv-x="223" 
d="M44 758h135v-31h-135v31z" />
    <glyph glyph-name="ogonek" unicode="&#x2db;" horiz-adv-x="93" 
d="M92 0c-46 -39 -56 -46 -56 -70c0 -13 20 -30 46 -6v-32c-38 -25 -81 2 -81 36c0 28 18 47 55 72h36z" />
    <glyph glyph-name="ring" unicode="&#x2da;" horiz-adv-x="191" 
d="M94 710c-33 0 -61 28 -61 61s28 60 61 60s61 -27 61 -60s-28 -61 -61 -61zM94 735c21 0 36 14 36 36c0 20 -15 35 -36 35s-35 -15 -35 -35c0 -21 14 -36 35 -36z" />
    <glyph glyph-name="tilde" unicode="&#x2dc;" horiz-adv-x="215" 
d="M47 729l-26 11c14 42 53 42 91 25c14 -5 41 -22 52 13l26 -11c-14 -44 -51 -44 -89 -26c-14 5 -43 21 -54 -12z" />
    </font>
</defs>
</svg>
