<?xml version="1.0" standalone="no"?>
<!DOCTYPE svg PUBLIC "-//W3C//DTD SVG 1.1//EN" "http://www.w3.org/Graphics/SVG/1.1/DTD/svg11.dtd" >
<svg xmlns="http://www.w3.org/2000/svg" xmlns:xlink="http://www.w3.org/1999/xlink" version="1.1">
<metadata>
Created by FontForge 20201107 at Thu Jul  2 05:29:11 2020
 By Jimmy Wärting
Copyright \(c\) 2020 by Andriansyah MK. All rights reserved.
</metadata>
<defs>
<font id="Landasans-Medium" horiz-adv-x="352" >
  <font-face 
    font-family="Landasans Medium"
    font-weight="500"
    font-stretch="condensed"
    units-per-em="1000"
    panose-1="0 0 6 6 0 0 0 0 0 0"
    ascent="800"
    descent="-200"
    x-height="524"
    cap-height="704"
    bbox="-241 -200 688 867"
    underline-thickness="50"
    underline-position="-100"
    stemh="78"
    stemv="81"
    unicode-range="U+0020-FB02"
  />
<missing-glyph horiz-adv-x="500" 
d="M410 800v-1000h-317v1000h317zM333 733h-165v-33h65v-37h-66v-33h166v33h-66v37h66v33zM267 604h-100v-104h166v34h-66v70zM233 570v-36h-33v36h33zM333 473h-166v-33h66v-37h-66v-33h100v70h66v33zM333 413h-33v-66h-133v-34h166v100zM333 291h-100v-56h34v23h33v-47
h-100v80h-33v-113h166v113zM333 118h-166v-113h166v113zM300 85v-47h-100v47h100zM333 -18h-166v-33h70l-70 -47v-33h166v33h-102l70 47h32v33z" />
    <glyph glyph-name="f_f_i" unicode="ffi" horiz-adv-x="616" 
d="M577 524v-524h-79v453h-133v-453h-79v453h-130v-453h-79v453h-57v71h57v40c0 96 57 140 136 140h30v-60h-15c-43 0 -72 -23 -72 -80v-40h130v40c0 96 57 140 136 140h30v-60h-15c-42 0 -72 -23 -72 -80v-40h212z" />
    <glyph glyph-name="fi" unicode="fi" horiz-adv-x="414" 
d="M374 524v-524h-79v452h-137v-452h-79v452h-59v72h59v40c0 96 57 140 136 140h49v-60h-34c-42 0 -72 -23 -72 -80v-40h216z" />
    <glyph glyph-name="fl" unicode="fl" horiz-adv-x="414" 
d="M374 704v-704h-79v644h-65c-42 0 -72 -23 -72 -80v-40h87v-72h-87v-452h-79v452h-59v72h59v40c0 96 57 140 136 140h159z" />
    <glyph glyph-name=".notdef" horiz-adv-x="500" 
d="M410 800v-1000h-317v1000h317zM333 733h-165v-33h65v-37h-66v-33h166v33h-66v37h66v33zM267 604h-100v-104h166v34h-66v70zM233 570v-36h-33v36h33zM333 473h-166v-33h66v-37h-66v-33h100v70h66v33zM333 413h-33v-66h-133v-34h166v100zM333 291h-100v-56h34v23h33v-47
h-100v80h-33v-113h166v113zM333 118h-166v-113h166v113zM300 85v-47h-100v47h100zM333 -18h-166v-33h70l-70 -47v-33h166v33h-102l70 47h32v33z" />
    <glyph glyph-name="A" unicode="A" horiz-adv-x="344" 
d="M247 0l-17 144h-111l-15 -144h-80l86 704h126l90 -704h-79zM127 220h95l-47 405h-5z" />
    <glyph glyph-name="Aacute" unicode="&#xc1;" horiz-adv-x="336" 
d="M140 735l52 117h70l-74 -117h-48zM24 0l85 704h128l81 -704h-79l-17 151h-102l-16 -151h-80zM126 229h91l-42 397h-5z" />
    <glyph glyph-name="Abreve" unicode="&#x102;" horiz-adv-x="344" 
d="M173 733c-62 0 -106 38 -103 113h56c-2 -39 10 -63 47 -63c36 0 50 24 47 63h56c3 -75 -41 -113 -103 -113zM247 0l-16 140h-112l-15 -140h-80l86 704h126l90 -704h-79zM127 216h95l-47 409h-5z" />
    <glyph glyph-name="Acircumflex" unicode="&#xc2;" horiz-adv-x="336" 
d="M173 804l-48 -69h-49l62 117h70l62 -117h-49zM237 704l81 -704h-79l-17 151h-102l-16 -151h-80l85 704h128zM126 229h91l-42 397h-5z" />
    <glyph glyph-name="Adieresis" unicode="&#xc4;" horiz-adv-x="336" 
d="M79 742v73h72v-73h-72zM194 742v73h71v-73h-71zM24 0l85 704h128l81 -704h-79l-17 151h-102l-16 -151h-80zM126 229h91l-42 397h-5z" />
    <glyph glyph-name="Agrave" unicode="&#xc0;" horiz-adv-x="336" 
d="M203 741h-48l-74 116h70zM24 0l85 704h128l81 -704h-79l-17 151h-102l-16 -151h-80zM126 229h91l-42 397h-5z" />
    <glyph glyph-name="Amacron" unicode="&#x100;" horiz-adv-x="344" 
d="M253 797v-56h-160v56h160zM247 0l-16 140h-112l-15 -140h-80l86 704h126l90 -704h-79zM127 216h95l-47 409h-5z" />
    <glyph glyph-name="Aogonek" unicode="&#x104;" horiz-adv-x="344" 
d="M262 -70c0 -13 28 -23 54 1v-55c-38 -25 -122 -16 -122 47c0 32 16 50 53 77l-16 140h-112l-15 -140h-80l86 704h126l90 -704c-49 -39 -64 -48 -64 -70zM127 216h95l-47 409h-5z" />
    <glyph glyph-name="Aring" unicode="&#xc5;" horiz-adv-x="336" 
d="M173 716c-40 0 -72 32 -72 72c0 39 32 72 72 72c39 0 72 -33 72 -72s-33 -72 -72 -72zM173 754c20 0 35 14 35 34c0 19 -16 35 -35 35s-34 -16 -34 -35s15 -34 34 -34zM24 0l85 704h128l81 -704h-79l-17 151h-102l-16 -151h-80zM126 229h91l-42 397h-5z" />
    <glyph glyph-name="Atilde" unicode="&#xc3;" horiz-adv-x="336" 
d="M111 732l-44 22c20 49 77 59 124 33c18 -9 41 -24 55 19l46 -22c-20 -54 -69 -64 -121 -36c-16 9 -45 21 -60 -16zM24 0l85 704h128l81 -704h-79l-17 151h-102l-16 -151h-80zM126 229h91l-42 397h-5z" />
    <glyph glyph-name="AE" unicode="&#xc6;" horiz-adv-x="462" 
d="M444 635h-152v-229h128v-76h-128v-259h152v-71h-232v151h-92l-16 -151h-80l85 704h335v-69zM126 229h86l1 406l-42 -1z" />
    <glyph glyph-name="B" unicode="B" horiz-adv-x="349" 
d="M266 368c35 -18 50 -58 50 -103v-140c0 -92 -57 -125 -137 -125h-139l1 704h138c80 0 132 -40 132 -131v-105c0 -41 -16 -80 -45 -100zM119 630v-226h55c30 0 59 19 59 73v84c0 53 -29 69 -58 69h-56zM233 144v106c0 53 -26 73 -55 73h-59v-248h55c30 0 59 15 59 69z" />
    <glyph glyph-name="C" unicode="C" 
d="M173 -10c-80 0 -140 41 -140 152v425c0 104 60 146 140 146h5c80 0 141 -42 141 -152v-93h-81v99c0 54 -29 75 -62 75h-1c-32 0 -61 -21 -61 -75v-425c0 -55 29 -74 60 -74h2c33 0 62 19 62 74v123h81v-123c0 -111 -61 -152 -141 -152h-5z" />
    <glyph glyph-name="Cacute" unicode="&#x106;" 
d="M136 735l51 117h71l-74 -117h-48zM173 -10c-80 0 -140 41 -140 152v425c0 104 60 146 140 146h5c80 0 141 -42 141 -152v-93h-81v99c0 54 -29 75 -62 75h-1c-32 0 -61 -21 -61 -75v-425c0 -55 29 -74 60 -74h2c33 0 62 19 62 74v123h81v-123c0 -111 -61 -152 -141 -152
h-5z" />
    <glyph glyph-name="Ccaron" unicode="&#x10c;" 
d="M139 735l-61 117h49l48 -69l47 69h49l-61 -117h-71zM319 468h-81v99c0 54 -29 75 -62 75h-1c-32 0 -61 -21 -61 -75v-425c0 -55 29 -74 60 -74h2c33 0 62 19 62 74v123h81v-123c0 -111 -61 -152 -141 -152h-5c-80 0 -140 41 -140 152v425c0 104 60 146 140 146h5
c80 0 141 -42 141 -152v-93z" />
    <glyph glyph-name="Ccedilla" unicode="&#xc7;" 
d="M319 468h-81v99c0 54 -29 75 -62 75h-1c-32 0 -61 -21 -61 -75v-423c0 -55 29 -74 60 -74h2c33 0 62 19 62 74v121h81v-121c0 -104 -54 -147 -126 -152l-18 -39h17c44 0 64 -22 64 -62c0 -33 -25 -66 -69 -66c-4 0 -43 0 -47 1v42c4 -1 19 -1 23 -1c31 0 45 10 45 24
c0 17 -3 27 -34 27h-45v34l19 41c-67 9 -115 52 -115 151v423c0 104 60 146 140 146h5c80 0 141 -42 141 -152v-93z" />
    <glyph glyph-name="Cdotaccent" unicode="&#x10a;" 
d="M139 742v73h71v-73h-71zM173 -10c-80 0 -140 41 -140 152v425c0 104 60 146 140 146h5c80 0 141 -42 141 -152v-93h-81v99c0 54 -29 75 -62 75h-1c-32 0 -61 -21 -61 -75v-425c0 -55 29 -74 60 -74h2c33 0 62 19 62 74v123h81v-123c0 -111 -61 -152 -141 -152h-5z" />
    <glyph glyph-name="D" unicode="D" horiz-adv-x="347" 
d="M40 0v704h137c79 0 137 -29 137 -131v-442c0 -110 -58 -131 -137 -131h-137zM119 75h56c31 0 59 15 59 68v418c0 53 -28 69 -58 69h-57v-555z" />
    <glyph glyph-name="Eth" unicode="&#xd0;" horiz-adv-x="384" 
d="M213 704c80 0 137 -45 137 -147v-410c0 -110 -57 -147 -137 -147h-151v283h-51v59h51v362h151zM271 147v410c0 52 -29 73 -58 73h-72v-288h91v-59h-91v-209h71c30 0 59 19 59 73z" />
    <glyph glyph-name="Dcaron" unicode="&#x10e;" horiz-adv-x="347" 
d="M138 735l-61 117h48l48 -69l48 69h49l-62 -117h-70zM177 704c79 0 137 -45 137 -147v-410c0 -110 -58 -147 -137 -147h-137v704h137zM234 148v409c0 52 -28 73 -58 73h-57v-555h56c31 0 59 19 59 73z" />
    <glyph glyph-name="Dcroat" unicode="&#x110;" horiz-adv-x="384" 
d="M213 704c80 0 137 -45 137 -147v-410c0 -110 -57 -147 -137 -147h-151v283h-51v59h51v362h151zM271 147v410c0 52 -29 73 -58 73h-72v-288h91v-59h-91v-209h71c30 0 59 19 59 73z" />
    <glyph glyph-name="E" unicode="E" horiz-adv-x="290" 
d="M40 0l1 704h231v-78h-152v-219h128v-75h-128v-253h152v-79h-232z" />
    <glyph glyph-name="Eacute" unicode="&#xc9;" horiz-adv-x="290" 
d="M111 735l51 117h71l-75 -117h-47zM40 0l1 704h231v-69h-152v-229h128v-76h-128v-259h152v-71h-232z" />
    <glyph glyph-name="Ecaron" unicode="&#x11a;" horiz-adv-x="290" 
d="M119 735l-61 117h49l48 -69l47 69h49l-61 -117h-71zM272 626h-152v-219h128v-75h-128v-252h152v-80h-232l1 704h231v-78z" />
    <glyph glyph-name="Ecircumflex" unicode="&#xca;" horiz-adv-x="290" 
d="M154 808l-48 -69h-48l61 117h70l62 -117h-49zM272 635h-152v-229h128v-76h-128v-259h152v-71h-232l1 704h231v-69z" />
    <glyph glyph-name="Edieresis" unicode="&#xcb;" horiz-adv-x="290" 
d="M64 742v73h72v-73h-72zM179 742v73h71v-73h-71zM40 0l1 704h231v-69h-152v-229h128v-76h-128v-259h152v-71h-232z" />
    <glyph glyph-name="Edotaccent" unicode="&#x116;" horiz-adv-x="290" 
d="M120 742v73h72v-73h-72zM40 0l1 704h231v-78h-152v-219h128v-75h-128v-252h152v-80h-232z" />
    <glyph glyph-name="Egrave" unicode="&#xc8;" horiz-adv-x="290" 
d="M200 741h-47l-75 116h71zM40 0l1 704h231v-69h-152v-229h128v-76h-128v-259h152v-71h-232z" />
    <glyph glyph-name="Emacron" unicode="&#x112;" horiz-adv-x="290" 
d="M78 796h161v-56h-161v56zM40 0l1 704h231v-78h-152v-219h128v-75h-128v-253h152v-79h-232z" />
    <glyph glyph-name="Eogonek" unicode="&#x118;" horiz-adv-x="290" 
d="M272 626h-152v-219h128v-75h-128v-253h152v-79h-27c-50 -39 -65 -48 -65 -70c0 -13 29 -23 55 1v-55c-38 -25 -123 -16 -123 47c0 32 20 50 57 77h-129l1 704h231v-78z" />
    <glyph glyph-name="F" unicode="F" horiz-adv-x="290" 
d="M40 0l1 704h231v-78h-152v-219h128v-75h-128v-332h-80z" />
    <glyph glyph-name="G" unicode="G" 
d="M319 469h-81v98c0 54 -29 75 -62 75h-1c-31 0 -60 -21 -60 -75v-425c0 -55 29 -74 59 -74h3c38 0 67 19 67 74v159h-70v79h145v-232c0 -111 -60 -158 -141 -158h-5c-79 0 -140 47 -140 158v413c0 110 61 152 140 152h5c81 0 141 -42 141 -152v-92z" />
    <glyph glyph-name="Gbreve" unicode="&#x11e;" 
d="M174 733c-61 0 -105 38 -103 113h57c-3 -39 10 -63 46 -63c37 0 50 24 48 63h56c2 -75 -42 -113 -104 -113zM319 469h-81v98c0 54 -29 75 -62 75h-1c-31 0 -60 -21 -60 -75v-425c0 -55 29 -74 59 -74h3c38 0 67 19 67 74v159h-70v79h145v-232c0 -111 -60 -158 -141 -158
h-5c-79 0 -140 47 -140 158v413c0 110 61 152 140 152h5c81 0 141 -42 141 -152v-92z" />
    <glyph glyph-name="uni0122" unicode="&#x122;" 
d="M319 469h-81v98c0 54 -29 75 -62 75h-1c-31 0 -60 -21 -60 -75v-425c0 -55 29 -74 59 -74h3c38 0 67 19 67 74v159h-70v79h145v-232c0 -111 -60 -158 -141 -158h-5c-79 0 -140 47 -140 158v413c0 110 61 152 140 152h5c81 0 141 -42 141 -152v-92zM140 -122v82h73v-82
l-27 -64h-33l21 64h-34z" />
    <glyph glyph-name="Gdotaccent" unicode="&#x120;" 
d="M212 815v-73h-71v73h71zM319 469h-81v98c0 54 -29 75 -62 75h-1c-31 0 -60 -21 -60 -75v-425c0 -55 29 -74 59 -74h3c38 0 67 19 67 74v159h-70v79h145v-232c0 -111 -60 -158 -141 -158h-5c-79 0 -140 47 -140 158v413c0 110 61 152 140 152h5c81 0 141 -42 141 -152v-92
z" />
    <glyph glyph-name="H" unicode="H" horiz-adv-x="359" 
d="M40 0v704h79v-305h121v305h79v-704h-79v320h-121v-320h-79z" />
    <glyph glyph-name="Hbar" unicode="&#x126;" horiz-adv-x="343" 
d="M352 566v-61h-41v-505h-79v320h-121v-320h-79v505h-41v61h41v138h79v-138h121v138h79v-138h41zM232 398v107h-121v-107h121z" />
    <glyph glyph-name="I" unicode="I" horiz-adv-x="158" 
d="M40 0v704h79v-704h-79z" />
    <glyph glyph-name="Iacute" unicode="&#xcd;" horiz-adv-x="170" 
d="M47 735l51 117h71l-75 -117h-47zM40 0v704h79v-704h-79z" />
    <glyph glyph-name="Icircumflex" unicode="&#xce;" horiz-adv-x="182" 
d="M133 864l46 -126h-44l-43 89l-43 -89h-44l46 126h82zM52 0v704h78v-704h-78z" />
    <glyph glyph-name="Idieresis" unicode="&#xcf;" horiz-adv-x="141" 
d="M-22 742v78h71v-78h-71zM92 742v78h71v-78h-71zM31 0v704h79v-704h-79z" />
    <glyph glyph-name="Idotaccent" unicode="&#x130;" horiz-adv-x="141" 
d="M35 742v73h72v-73h-72zM31 0v704h79v-704h-79z" />
    <glyph glyph-name="Igrave" unicode="&#xcc;" horiz-adv-x="149" 
d="M93 741h-47l-72 126h73zM31 0v704h79v-704h-79z" />
    <glyph glyph-name="Imacron" unicode="&#x12a;" horiz-adv-x="134" 
d="M-13 797h161v-56h-161v56zM29 0v704h78v-704h-78z" />
    <glyph glyph-name="Iogonek" unicode="&#x12e;" horiz-adv-x="150" 
d="M110 0c-50 -39 -64 -48 -64 -70c0 -13 28 -23 54 1v-55c-38 -25 -122 -16 -122 47c0 32 19 50 56 77h-3v704h79v-704z" />
    <glyph glyph-name="J" unicode="J" horiz-adv-x="341" 
d="M171 -8c-88 0 -138 44 -138 151v115h79v-115c0 -53 29 -73 58 -73c30 0 59 20 59 73v561h79v-561c0 -105 -47 -151 -137 -151z" />
    <glyph glyph-name="K" unicode="K" horiz-adv-x="332" 
d="M40 0v704h79v-281l5 -4l102 285h87l-124 -334l125 -370h-79l-94 269l-23 -66l1 -203h-79z" />
    <glyph glyph-name="uni0136" unicode="&#x136;" horiz-adv-x="332" 
d="M40 0v704h79v-281l5 -4l102 285h87l-124 -334l125 -370h-79l-94 269l-23 -66l1 -203h-79zM135 -122v82h72v-82l-26 -64h-34l22 64h-34z" />
    <glyph glyph-name="L" unicode="L" horiz-adv-x="271" 
d="M40 0v704h79v-624h133v-80h-212z" />
    <glyph glyph-name="Lacute" unicode="&#x139;" horiz-adv-x="258" 
d="M61 735l51 117h71l-74 -117h-48zM31 0v704h80v-624h133v-80h-213z" />
    <glyph glyph-name="Lcaron" unicode="&#x13d;" horiz-adv-x="271" 
d="M111 735l-61 117h49l48 -69l47 69h49l-61 -117h-71zM119 80h133v-80h-212v704h79v-624z" />
    <glyph glyph-name="uni013B" unicode="&#x13b;" horiz-adv-x="271" 
d="M40 0v704h79v-624h133v-80h-212zM106 -122v82h73v-82l-27 -64h-33l21 64h-34z" />
    <glyph glyph-name="Lslash" unicode="&#x141;" horiz-adv-x="273" 
d="M110 71h145v-71h-224v304l-67 -30v77l67 30v323h79v-288l92 41v-78l-92 -41v-267z" />
    <glyph glyph-name="M" unicode="M" horiz-adv-x="420" 
d="M274 704h106v-704h-79v507l-61 -507h-57l-64 510v-510h-79v704h101l70 -455z" />
    <glyph glyph-name="N" unicode="N" horiz-adv-x="359" 
d="M240 704h80v-704h-80l-120 422v-422h-80v704h80l120 -462v462z" />
    <glyph glyph-name="Nacute" unicode="&#x143;" horiz-adv-x="343" 
d="M235 852l-74 -117h-47l51 117h70zM231 704h80v-704h-80l-120 422v-422h-80v704h80l120 -459v459z" />
    <glyph glyph-name="Ncaron" unicode="&#x147;" horiz-adv-x="359" 
d="M144 735l-61 117h49l48 -69l47 69h49l-61 -117h-71zM240 704h80v-704h-80l-120 422v-422h-80v704h80l120 -462v462z" />
    <glyph glyph-name="uni0145" unicode="&#x145;" horiz-adv-x="359" 
d="M240 704h80v-704h-80l-120 422v-422h-80v704h80l120 -462v462zM142 -122v82h72v-82l-26 -64h-34l22 64h-34z" />
    <glyph glyph-name="Eng" unicode="&#x14a;" horiz-adv-x="359" 
d="M240 704h80v-758c0 -92 -46 -136 -129 -136h-39v67h37c30 0 51 15 51 67v56l-120 422v-422h-80v704h80l120 -462v462z" />
    <glyph glyph-name="Ntilde" unicode="&#xd1;" horiz-adv-x="366" 
d="M175 748c-16 9 -45 21 -60 -16l-45 22c20 49 78 59 124 33c19 -9 41 -24 56 19l45 -22c-20 -54 -68 -64 -120 -36zM247 704h79v-704h-79l-127 456v-456h-80v704h80l127 -456v456z" />
    <glyph glyph-name="O" unicode="O" horiz-adv-x="355" 
d="M175 -10c-81 0 -142 41 -142 152v426c0 109 61 145 142 145h5c81 0 142 -37 142 -146v-425c0 -111 -61 -152 -142 -152h-5zM176 68h2c28 0 57 13 57 68v436c0 55 -29 70 -57 70h-1c-28 0 -57 -15 -57 -70v-436c0 -55 29 -68 56 -68z" />
    <glyph glyph-name="Oacute" unicode="&#xd3;" horiz-adv-x="343" 
d="M139 735l52 117h70l-74 -117h-48zM164 -10c-80 0 -141 41 -141 152v420c0 110 61 151 141 151h5c80 0 140 -42 140 -152v-419c0 -111 -60 -152 -140 -152h-5zM165 67h2c27 0 56 20 56 75v425c0 54 -29 75 -56 75h-1c-26 0 -55 -21 -55 -75v-425c0 -55 29 -75 54 -75z" />
    <glyph glyph-name="Ocircumflex" unicode="&#xd4;" 
d="M176 804l-48 -69h-49l62 117h70l61 -117h-49zM178 713c81 0 141 -42 141 -152v-419c0 -111 -60 -152 -141 -152h-5c-79 0 -140 41 -140 152v420c0 110 61 151 140 151h5zM233 142v425c0 54 -29 75 -57 75h-1c-26 0 -55 -21 -55 -75v-425c0 -55 29 -75 54 -75h3
c27 0 56 20 56 75z" />
    <glyph glyph-name="Odieresis" unicode="&#xd6;" horiz-adv-x="343" 
d="M74 742v73h71v-73h-71zM188 742v73h71v-73h-71zM164 -10c-80 0 -141 41 -141 152v420c0 110 61 151 141 151h5c80 0 140 -42 140 -152v-419c0 -111 -60 -152 -140 -152h-5zM165 67h2c27 0 56 20 56 75v425c0 54 -29 75 -56 75h-1c-26 0 -55 -21 -55 -75v-425
c0 -55 29 -75 54 -75z" />
    <glyph glyph-name="Ograve" unicode="&#xd2;" horiz-adv-x="343" 
d="M155 741l-74 116h70l51 -116h-47zM164 -10c-80 0 -141 41 -141 152v420c0 110 61 151 141 151h5c80 0 140 -42 140 -152v-419c0 -111 -60 -152 -140 -152h-5zM165 67h2c27 0 56 20 56 75v425c0 54 -29 75 -56 75h-1c-26 0 -55 -21 -55 -75v-425c0 -55 29 -75 54 -75z" />
    <glyph glyph-name="Ohungarumlaut" unicode="&#x150;" horiz-adv-x="357" 
d="M89 735l51 117h70l-74 -117h-47zM191 735l52 117h70l-74 -117h-48zM175 -10c-81 0 -142 41 -142 152v420c0 110 61 151 142 151h5c81 0 142 -42 142 -152v-419c0 -111 -61 -152 -142 -152h-5zM176 68h2c28 0 57 19 57 74v425c0 54 -29 75 -57 75h-1
c-28 0 -57 -21 -57 -75v-425c0 -55 29 -74 56 -74z" />
    <glyph glyph-name="Omacron" unicode="&#x14c;" horiz-adv-x="355" 
d="M98 797h160v-56h-160v56zM175 -10c-81 0 -142 41 -142 152v420c0 110 61 151 142 151h5c81 0 142 -42 142 -152v-419c0 -111 -61 -152 -142 -152h-5zM176 68h2c28 0 57 19 57 74v425c0 54 -29 75 -57 75h-1c-28 0 -57 -21 -57 -75v-425c0 -55 29 -74 56 -74z" />
    <glyph glyph-name="Oslash" unicode="&#xd8;" 
d="M247 700c44 -20 72 -63 72 -139v-418c0 -110 -60 -152 -141 -152h-5c-12 0 -24 1 -35 3l-21 -100l8 103c-54 15 -92 60 -92 146v419c0 110 61 151 140 151h5c22 0 42 -3 59 -9l17 80zM120 143c0 -23 5 -39 12 -51l14 172l74 355c-11 16 -28 23 -44 23l-1 -2
c-26 0 -55 -19 -55 -73v-424zM177 68c27 0 56 20 56 75v382l-9 -111l-70 -341c6 -4 13 -5 20 -5h3z" />
    <glyph glyph-name="Otilde" unicode="&#xd5;" 
d="M112 732l-44 22c20 49 77 59 124 33c18 -9 41 -24 56 19l45 -22c-20 -54 -69 -64 -120 -36c-17 9 -46 21 -61 -16zM173 -10c-79 0 -140 41 -140 152v420c0 110 61 151 140 151h5c81 0 141 -42 141 -152v-419c0 -111 -60 -152 -141 -152h-5zM174 67h3c27 0 56 20 56 75
v425c0 54 -29 75 -57 75h-1c-26 0 -55 -21 -55 -75v-425c0 -55 29 -75 54 -75z" />
    <glyph glyph-name="OE" unicode="&#x152;" horiz-adv-x="493" 
d="M475 626h-152v-219h128v-75h-128v-253h152v-79h-232v3c-19 -8 -41 -12 -65 -12h-5c-79 0 -140 42 -140 152v419c0 110 61 151 140 151h5c24 0 47 -4 66 -12v3h231v-78zM243 140v426c0 53 -29 73 -60 73l-1 -1c-30 0 -59 -19 -59 -72v-426c0 -53 29 -73 58 -73h3
c30 0 59 20 59 73z" />
    <glyph glyph-name="P" unicode="P" horiz-adv-x="330" 
d="M171 704c80 0 134 -23 134 -115v-190c0 -96 -54 -133 -134 -133h-52v-266h-79v704h131zM228 412v164c0 53 -34 58 -63 58h-46v-290h50c37 0 59 15 59 68z" />
    <glyph glyph-name="Thorn" unicode="&#xde;" horiz-adv-x="339" 
d="M169 585c80 0 137 -44 137 -136v-167c0 -96 -56 -136 -137 -136h-59v-217h-79v846h79v-190h59zM227 295v147c0 53 -29 73 -58 73h-59v-294h58c36 0 59 20 59 74z" />
    <glyph glyph-name="Q" unicode="Q" horiz-adv-x="354" 
d="M319 143c0 -94 -44 -139 -108 -149v-6c0 -52 30 -67 60 -67h38v-67h-39c-83 0 -129 44 -129 136v4c-63 10 -108 54 -108 149v419c0 110 61 151 140 151h5c81 0 141 -42 141 -152v-418zM120 143c0 -55 28 -74 54 -74h3c28 0 56 19 56 74v424c0 54 -28 75 -57 75h-1
c-27 0 -55 -21 -55 -75v-424z" />
    <glyph glyph-name="R" unicode="R" horiz-adv-x="346" 
d="M234 274l79 -274h-79l-73 259h-42v-259h-79v704h130c80 0 138 -29 138 -121v-187c0 -72 -28 -109 -74 -122zM175 340c37 0 59 15 59 68v168c0 53 -34 58 -64 58h-51v-294h56z" />
    <glyph glyph-name="Racute" unicode="&#x154;" horiz-adv-x="331" 
d="M231 852l-74 -117h-47l51 117h70zM225 274l80 -274h-80l-72 259h-42v-259h-80v704h130c80 0 138 -29 138 -121v-187c0 -72 -28 -109 -74 -122zM161 340c36 0 59 15 59 68v162c0 53 -34 64 -64 64h-45v-294h50z" />
    <glyph glyph-name="Rcaron" unicode="&#x158;" horiz-adv-x="346" 
d="M133 735l-62 117h49l48 -69l48 69h48l-61 -117h-70zM234 274l79 -274h-79l-73 259h-42v-259h-79v704h130c80 0 138 -29 138 -121v-187c0 -72 -28 -109 -74 -122zM169 340c37 0 59 15 59 68v162c0 53 -34 64 -63 64h-46v-294h50z" />
    <glyph glyph-name="uni0156" unicode="&#x156;" horiz-adv-x="346" 
d="M234 274l79 -274h-79l-73 259h-42v-259h-79v704h130c80 0 138 -29 138 -121v-187c0 -72 -28 -109 -74 -122zM169 340c37 0 59 15 59 68v162c0 53 -34 64 -63 64h-46v-294h50zM138 -140l5 78h57v-38l-12 -46l-29 -22l12 28h-33z" />
    <glyph glyph-name="S" unicode="S" horiz-adv-x="345" 
d="M170 -10c-60 0 -138 36 -138 146v109h78v-103c0 -55 29 -74 62 -74h2c30 0 59 19 59 74v87c0 125 -201 102 -201 274v75c0 110 76 135 142 135h5c67 0 135 -37 135 -141v-103h-78v98c0 54 -29 75 -63 75h-1c-30 0 -61 -21 -61 -75v-51c0 -126 203 -98 203 -277v-103
c0 -110 -72 -146 -139 -146h-5z" />
    <glyph glyph-name="Sacute" unicode="&#x15a;" horiz-adv-x="328" 
d="M115 735l52 117h70l-74 -117h-48zM161 -10c-60 0 -138 36 -138 146v115h78v-109c0 -55 29 -74 62 -74h2c30 0 59 19 59 74v87c0 125 -201 102 -201 274v75c0 110 76 135 142 135h5c67 0 135 -37 135 -141v-108h-78v103c0 54 -29 75 -63 75h-1c-30 0 -61 -21 -61 -75v-51
c0 -126 203 -98 203 -277v-103c0 -110 -72 -146 -139 -146h-5z" />
    <glyph glyph-name="Scaron" unicode="&#x160;" horiz-adv-x="345" 
d="M138 735l-62 117h49l48 -69l48 69h49l-62 -117h-70zM314 464h-78v103c0 54 -29 75 -63 75h-1c-30 0 -61 -21 -61 -75v-51c0 -126 203 -98 203 -277v-103c0 -110 -72 -146 -139 -146h-5c-60 0 -138 36 -138 146v115h78v-109c0 -55 29 -74 62 -74h2c30 0 59 19 59 74v87
c0 125 -201 102 -201 274v75c0 110 76 135 142 135h5c67 0 135 -37 135 -141v-108z" />
    <glyph glyph-name="Scedilla" unicode="&#x15e;" horiz-adv-x="328" 
d="M305 464h-78v103c0 54 -29 75 -63 75h-1c-30 0 -61 -21 -61 -75v-51c0 -126 203 -98 203 -277v-103c0 -102 -62 -140 -124 -145l-15 -32h17c44 0 64 -22 64 -63c0 -33 -24 -65 -68 -65c-5 0 -43 0 -48 1v42c5 -1 19 -1 24 -1c31 0 45 9 45 23c0 18 -3 28 -34 28h-45v34
l16 34c-55 9 -114 48 -114 144v115h78v-109c0 -55 29 -74 62 -74h2c30 0 59 19 59 74v87c0 125 -201 102 -201 274v75c0 110 76 135 142 135h5c67 0 135 -37 135 -141v-108z" />
    <glyph glyph-name="uni0218" unicode="&#x218;" horiz-adv-x="328" 
d="M161 -10c-60 0 -138 36 -138 146v115h78v-109c0 -55 29 -74 62 -74h2c30 0 59 19 59 74v87c0 125 -201 102 -201 274v75c0 110 76 135 142 135h5c67 0 135 -37 135 -141v-108h-78v103c0 54 -29 75 -63 75h-1c-30 0 -61 -21 -61 -75v-51c0 -126 203 -98 203 -277v-103
c0 -110 -72 -146 -139 -146h-5zM140 -186l22 64h-34v82h72v-82l-26 -64h-34z" />
    <glyph glyph-name="T" unicode="T" horiz-adv-x="324" 
d="M123 0v626h-103v78h286v-78h-104v-626h-79z" />
    <glyph glyph-name="Tbar" unicode="&#x166;" horiz-adv-x="324" 
d="M306 626h-104v-78h74v-55h-74v-493h-79v493h-73v55h73v78h-103v78h286v-78z" />
    <glyph glyph-name="Tcaron" unicode="&#x164;" horiz-adv-x="324" 
d="M128 735l-61 117h48l48 -69l48 69h49l-62 -117h-70zM20 704h286v-78h-104v-626h-79v626h-103v78z" />
    <glyph glyph-name="uni0162" unicode="&#x162;" horiz-adv-x="313" 
d="M196 0h-24l-18 -41h17c44 0 64 -22 64 -63c0 -33 -24 -65 -68 -65c-5 0 -43 0 -48 1v42c5 -1 19 -1 24 -1c30 0 44 9 44 23c0 18 -2 28 -33 28h-46v34l19 42h-10v626h-104v78h286v-78h-103v-626z" />
    <glyph glyph-name="uni021A" unicode="&#x21a;" horiz-adv-x="313" 
d="M117 0v626h-104v78h286v-78h-103v-626h-79zM131 -186l22 64h-34v82h73v-82l-27 -64h-34z" />
    <glyph glyph-name="U" unicode="U" horiz-adv-x="355" 
d="M175 -10c-81 0 -142 41 -142 152v562h82v-562c0 -55 29 -74 61 -74h2c34 0 63 19 63 74v562h81v-562c0 -111 -61 -152 -142 -152h-5z" />
    <glyph glyph-name="Uacute" unicode="&#xda;" horiz-adv-x="366" 
d="M147 736l46 126h73l-72 -126h-47zM180 -10c-86 0 -147 47 -147 158v556h90v-564c0 -53 29 -73 58 -73h3c30 0 59 20 59 73v564h90v-556c0 -111 -61 -158 -148 -158h-5z" />
    <glyph glyph-name="Ucircumflex" unicode="&#xdb;" horiz-adv-x="357" 
d="M171 824l-42 -89h-44l46 126h81l46 -126h-44zM234 704h90v-556c0 -111 -61 -158 -148 -158h-5c-86 0 -147 47 -147 158v556h90v-564c0 -53 29 -73 58 -73h3c30 0 59 20 59 73v564z" />
    <glyph glyph-name="Udieresis" unicode="&#xdc;" horiz-adv-x="366" 
d="M93 761v77h71v-77h-71zM207 761v77h71v-77h-71zM180 -10c-86 0 -147 47 -147 158v556h90v-564c0 -53 29 -73 58 -73h3c30 0 59 20 59 73v564h90v-556c0 -111 -61 -158 -148 -158h-5z" />
    <glyph glyph-name="Ugrave" unicode="&#xd9;" horiz-adv-x="366" 
d="M216 741h-46l-73 126h73zM180 -10c-86 0 -147 47 -147 158v556h90v-564c0 -53 29 -73 58 -73h3c30 0 59 20 59 73v564h90v-556c0 -111 -61 -158 -148 -158h-5z" />
    <glyph glyph-name="Uhungarumlaut" unicode="&#x170;" horiz-adv-x="357" 
d="M89 735l51 117h70l-74 -117h-47zM191 735l52 117h70l-74 -117h-48zM175 -10c-81 0 -142 41 -142 152v562h82v-562c0 -55 29 -74 61 -74h2c34 0 63 19 63 74v562h81v-562c0 -111 -61 -152 -142 -152h-5z" />
    <glyph glyph-name="Umacron" unicode="&#x16a;" horiz-adv-x="355" 
d="M97 797h161v-56h-161v56zM175 -10c-81 0 -142 41 -142 152v562h82v-562c0 -55 29 -74 61 -74h2c34 0 63 19 63 74v562h81v-562c0 -111 -61 -152 -142 -152h-5z" />
    <glyph glyph-name="Uogonek" unicode="&#x172;" horiz-adv-x="355" 
d="M241 704h81v-561c0 -88 -39 -133 -97 -147c-45 -36 -59 -45 -59 -66c0 -13 28 -23 54 1v-55c-38 -25 -122 -16 -122 47c0 29 16 46 47 70c-66 10 -112 54 -112 150v561h82v-561c0 -55 29 -74 61 -74h2c34 0 63 19 63 74v561z" />
    <glyph glyph-name="Uring" unicode="&#x16e;" horiz-adv-x="342" 
d="M170 716c-39 0 -71 32 -71 72c0 39 32 72 71 72c40 0 72 -33 72 -72s-32 -72 -72 -72zM170 754c20 0 35 14 35 34c0 19 -15 35 -35 35c-19 0 -33 -16 -33 -35s14 -34 33 -34zM168 -10c-81 0 -142 41 -142 152v562h82v-562c0 -55 29 -74 61 -74h2c34 0 63 19 63 74v562h81
v-562c0 -111 -61 -152 -142 -152h-5z" />
    <glyph glyph-name="V" unicode="V" horiz-adv-x="340" 
d="M108 0l-88 704h79l69 -625h6l68 625h80l-88 -704h-126z" />
    <glyph glyph-name="W" unicode="W" horiz-adv-x="492" 
d="M398 704h76l-86 -704h-92l-49 453l-50 -453h-91l-86 704h79l57 -540l58 540h65l60 -540z" />
    <glyph glyph-name="Wacute" unicode="&#x1e82;" horiz-adv-x="492" 
d="M340 852l-74 -117h-47l51 117h70zM398 704h76l-80 -704h-98l-49 453l-50 -453h-97l-80 704h79l56 -582l59 582h65l60 -586z" />
    <glyph glyph-name="Wcircumflex" unicode="&#x174;" horiz-adv-x="492" 
d="M246 804l-48 -69h-49l62 117h70l62 -117h-49zM398 704h76l-80 -704h-98l-49 453l-50 -453h-97l-80 704h79l56 -582l59 582h65l60 -586z" />
    <glyph glyph-name="Wdieresis" unicode="&#x1e84;" horiz-adv-x="492" 
d="M226 815v-73h-71v73h71zM340 815v-73h-71v73h71zM398 704h76l-80 -704h-98l-49 453l-50 -453h-97l-80 704h79l56 -582l59 582h65l60 -586z" />
    <glyph glyph-name="Wgrave" unicode="&#x1e80;" horiz-adv-x="492" 
d="M272 741h-47l-75 116h71zM398 704h76l-80 -704h-98l-49 453l-50 -453h-97l-80 704h79l56 -582l59 582h65l60 -586z" />
    <glyph glyph-name="X" unicode="X" horiz-adv-x="330" 
d="M20 0l99 359l-99 345h79l67 -256l67 256h79l-99 -345l99 -359h-79l-67 268l-67 -268h-79z" />
    <glyph glyph-name="Y" unicode="Y" horiz-adv-x="328" 
d="M230 704h80l-104 -413v-291h-79l-2 291l-105 413h79l67 -299z" />
    <glyph glyph-name="Yacute" unicode="&#xdd;" horiz-adv-x="348" 
d="M266 852l-74 -117h-48l51 117h71zM250 704h80l-113 -418v-286h-79l-4 286l-114 418h79l77 -307z" />
    <glyph glyph-name="Ycircumflex" unicode="&#x176;" horiz-adv-x="348" 
d="M175 804l-48 -69h-49l62 117h70l62 -117h-49zM250 704h80l-113 -418v-286h-79l-4 286l-114 418h79l77 -307z" />
    <glyph glyph-name="Ydieresis" unicode="&#x178;" horiz-adv-x="348" 
d="M156 815v-73h-71v73h71zM270 815v-73h-71v73h71zM250 704h80l-113 -418v-286h-79l-4 286l-114 418h79l77 -307z" />
    <glyph glyph-name="Ygrave" unicode="&#x1ef2;" horiz-adv-x="348" 
d="M206 735h-48l-74 117h70zM250 704h80l-113 -418v-286h-79l-4 286l-114 418h79l77 -307z" />
    <glyph glyph-name="Z" unicode="Z" horiz-adv-x="330" 
d="M20 0v79l208 546h-191v79h272v-78l-209 -546l212 -1v-79h-292z" />
    <glyph glyph-name="Zacute" unicode="&#x179;" horiz-adv-x="330" 
d="M123 735l52 117h70l-74 -117h-48zM20 0v79l198 546h-181v79h262v-78l-199 -546l212 -1v-79h-292z" />
    <glyph glyph-name="Zcaron" unicode="&#x17d;" horiz-adv-x="317" 
d="M135 735l-62 117h49l48 -69l48 69h49l-62 -117h-70zM299 704v-78l-199 -546l188 -1v-79h-268v79l198 546h-181v79h262z" />
    <glyph glyph-name="Zdotaccent" unicode="&#x17b;" horiz-adv-x="330" 
d="M139 742v73h71v-73h-71zM20 0v79l198 546h-181v79h262v-78l-199 -546l212 -1v-79h-292z" />
    <glyph glyph-name="J.ss01" horiz-adv-x="242" 
d="M20 78h52c29 0 58 20 58 73v553h79v-553c0 -105 -47 -151 -136 -151c-6 0 -48 0 -53 1v77z" />
    <glyph glyph-name="a" unicode="a" horiz-adv-x="332" 
d="M165 536c70 0 134 -23 134 -111v-425h-64l-2 34c-17 -28 -51 -44 -97 -44c-75 0 -115 30 -115 128v60c0 138 198 106 198 197v43c0 46 -23 55 -49 55c-25 0 -50 -9 -50 -55v-68h-81v69c0 88 68 117 126 117zM221 123v153c-47 -32 -119 -43 -119 -98v-59
c0 -46 25 -61 60 -61c30 0 59 15 59 65z" />
    <glyph glyph-name="aacute" unicode="&#xe1;" horiz-adv-x="337" 
d="M259 697l-74 -116h-48l52 116h70zM165 536c70 0 139 -23 139 -111v-425h-75v34c-21 -28 -58 -44 -93 -44c-75 0 -115 36 -115 134v54c0 138 198 106 198 197v43c0 46 -23 55 -49 55c-25 0 -50 -9 -50 -55v-68h-81v69c0 88 68 117 126 117zM221 123v153
c-47 -32 -119 -43 -119 -98v-59c0 -46 25 -61 60 -61c30 0 59 15 59 65z" />
    <glyph glyph-name="abreve" unicode="&#x103;" horiz-adv-x="337" 
d="M175 581c-62 0 -106 38 -103 113h56c-2 -39 10 -62 47 -62c36 0 50 23 47 62h56c3 -75 -41 -113 -103 -113zM165 536c70 0 139 -23 139 -111v-425h-75v34c-21 -28 -58 -44 -93 -44c-75 0 -115 36 -115 134v54c0 138 198 106 198 197v43c0 46 -23 55 -49 55
c-25 0 -50 -9 -50 -55v-68h-81v69c0 88 68 117 126 117zM221 123v153c-47 -32 -119 -43 -119 -98v-59c0 -46 25 -61 60 -61c30 0 59 15 59 65z" />
    <glyph glyph-name="acircumflex" unicode="&#xe2;" horiz-adv-x="337" 
d="M176 649l-48 -68h-49l62 116h70l61 -116h-49zM165 536c70 0 139 -23 139 -111v-425h-75v34c-21 -28 -58 -44 -93 -44c-75 0 -115 36 -115 134v54c0 138 198 106 198 197v43c0 46 -23 55 -49 55c-25 0 -50 -9 -50 -55v-68h-81v69c0 88 68 117 126 117zM221 123v153
c-47 -32 -119 -43 -119 -98v-59c0 -46 25 -61 60 -61c30 0 59 15 59 65z" />
    <glyph glyph-name="adieresis" unicode="&#xe4;" horiz-adv-x="337" 
d="M152 669v-78h-71v78h71zM266 669v-78h-71v78h71zM165 536c70 0 139 -23 139 -111v-425h-75v34c-21 -28 -58 -44 -93 -44c-75 0 -115 36 -115 134v54c0 138 198 106 198 197v43c0 46 -23 55 -49 55c-25 0 -50 -9 -50 -55v-68h-81v69c0 88 68 117 126 117zM221 123v153
c-47 -32 -119 -43 -119 -98v-59c0 -46 25 -61 60 -61c30 0 59 15 59 65z" />
    <glyph glyph-name="agrave" unicode="&#xe0;" horiz-adv-x="337" 
d="M210 581h-47l-74 116h70zM165 536c70 0 139 -23 139 -111v-425h-75v34c-21 -28 -58 -44 -93 -44c-75 0 -115 36 -115 134v54c0 138 198 106 198 197v43c0 46 -23 55 -49 55c-25 0 -50 -9 -50 -55v-68h-81v69c0 88 68 117 126 117zM221 123v153c-47 -32 -119 -43 -119 -98
v-59c0 -46 25 -61 60 -61c30 0 59 15 59 65z" />
    <glyph glyph-name="amacron" unicode="&#x101;" horiz-adv-x="337" 
d="M251 648v-57h-161v57h161zM165 536c70 0 139 -23 139 -111v-425h-75v34c-21 -28 -58 -44 -93 -44c-75 0 -115 36 -115 134v54c0 138 198 106 198 197v43c0 46 -23 55 -49 55c-25 0 -50 -9 -50 -55v-68h-81v69c0 88 68 117 126 117zM221 123v153
c-47 -32 -119 -43 -119 -98v-59c0 -46 25 -61 60 -61c30 0 59 15 59 65z" />
    <glyph glyph-name="aogonek" unicode="&#x105;" horiz-adv-x="340" 
d="M307 0c-50 -39 -65 -48 -65 -70c0 -13 29 -23 55 1v-55c-38 -25 -123 -16 -123 47c0 32 20 50 57 77v34c-21 -28 -58 -44 -93 -44c-75 0 -114 36 -114 134v54c0 138 197 106 197 197v43c0 46 -22 55 -49 55c-25 0 -50 -9 -50 -55v-68h-81v69c0 88 68 117 127 117
c69 0 138 -23 139 -111v-425zM224 123v153c-48 -32 -120 -43 -120 -98v-59c0 -46 25 -61 60 -61c30 0 60 15 60 65z" />
    <glyph glyph-name="aring" unicode="&#xe5;" horiz-adv-x="337" 
d="M174 558c-39 0 -72 33 -72 72c0 40 33 72 72 72c40 0 72 -32 72 -72c0 -39 -32 -72 -72 -72zM174 665c-19 0 -33 -15 -33 -35c0 -19 14 -33 33 -33c20 0 35 14 35 33c0 20 -15 35 -35 35zM165 536c70 0 139 -23 139 -111v-425h-75v34c-21 -28 -58 -44 -93 -44
c-75 0 -115 36 -115 134v54c0 138 198 106 198 197v43c0 46 -23 55 -49 55c-25 0 -50 -9 -50 -55v-68h-81v69c0 88 68 117 126 117zM221 123v153c-47 -32 -119 -43 -119 -98v-59c0 -46 25 -61 60 -61c30 0 59 15 59 65z" />
    <glyph glyph-name="atilde" unicode="&#xe3;" horiz-adv-x="337" 
d="M167 600c-16 9 -45 20 -60 -17l-44 22c20 49 77 58 124 32c18 -9 41 -23 55 20l45 -22c-20 -54 -68 -63 -120 -35zM165 536c70 0 139 -23 139 -111v-425h-75v34c-21 -28 -58 -44 -93 -44c-75 0 -115 36 -115 134v54c0 138 198 106 198 197v43c0 46 -23 55 -49 55
c-25 0 -50 -9 -50 -55v-68h-81v69c0 88 68 117 126 117zM221 123v153c-47 -32 -119 -43 -119 -98v-59c0 -46 25 -61 60 -61c30 0 59 15 59 65z" />
    <glyph glyph-name="ae" unicode="&#xe6;" horiz-adv-x="529" 
d="M505 237h-193v-102c0 -53 30 -74 58 -74h1c27 0 55 21 55 74v9h79v-17c0 -92 -56 -136 -132 -136h-5c-53 0 -97 21 -119 64c-15 -40 -63 -64 -116 -64c-74 0 -109 47 -109 120v69c0 77 52 109 126 109h71v109c0 53 -29 76 -56 76c-33 0 -55 -23 -55 -76v-16h-76v27
c0 85 57 127 130 127c39 0 76 -11 102 -37c25 26 60 39 101 39h5c76 0 133 -45 133 -136v-165zM369 467c-28 0 -57 -20 -57 -73v-105h114v105c0 53 -29 73 -56 73h-1zM221 123v114h-61c-28 0 -57 -21 -57 -73v-41c0 -50 24 -74 55 -74c32 0 63 21 63 74z" />
    <glyph glyph-name="b" unicode="b" 
d="M40 0v704h79v-217c17 30 49 49 87 49c73 0 113 -49 113 -121v-306c0 -71 -46 -119 -113 -119c-53 0 -88 22 -103 61v-51h-63zM119 133c0 -53 31 -73 62 -73c35 0 59 25 59 73v258c0 50 -24 76 -59 76c-31 0 -62 -23 -62 -76v-258z" />
    <glyph glyph-name="c" unicode="c" horiz-adv-x="332" 
d="M165 -10c-75 0 -132 42 -132 136v274c0 92 57 136 132 136c85 0 134 -50 134 -136v-82h-80v77c0 53 -29 71 -54 71c-24 0 -53 -18 -53 -71v-262c0 -55 29 -73 54 -73c24 0 53 18 53 73v78h80v-85c0 -90 -51 -136 -134 -136z" />
    <glyph glyph-name="cacute" unicode="&#x107;" horiz-adv-x="332" 
d="M128 581l51 116h70l-74 -116h-47zM165 -10c-75 0 -132 42 -132 136v274c0 92 57 136 132 136c85 0 134 -50 134 -136v-82h-80v77c0 53 -29 71 -54 71c-24 0 -53 -18 -53 -71v-262c0 -55 29 -73 54 -73c24 0 53 18 53 73v78h80v-85c0 -90 -51 -136 -134 -136z" />
    <glyph glyph-name="ccaron" unicode="&#x10d;" horiz-adv-x="332" 
d="M130 581l-61 116h48l48 -68l48 68h49l-62 -116h-70zM299 318h-80v77c0 53 -29 71 -54 71c-24 0 -53 -18 -53 -71v-262c0 -55 29 -72 54 -72c24 0 53 17 53 72v78h80v-85c0 -90 -51 -136 -134 -136c-75 0 -132 42 -132 136v274c0 92 57 136 132 136c85 0 134 -50 134 -136
v-82z" />
    <glyph glyph-name="ccedilla" unicode="&#xe7;" horiz-adv-x="332" 
d="M299 318h-80v77c0 53 -29 71 -54 71c-24 0 -53 -18 -53 -71v-259c0 -56 29 -74 54 -74c24 0 53 18 53 74v75h80v-83c0 -86 -46 -131 -122 -136l-15 -33h17c44 0 64 -22 64 -63c0 -33 -25 -65 -69 -65c-4 0 -43 0 -47 1v42c2 3 19 -1 23 -1c31 0 45 9 45 23
c0 18 -3 28 -33 28h-46v34l17 37c-59 11 -100 53 -100 133v272c0 92 57 136 132 136c85 0 134 -50 134 -136v-82z" />
    <glyph glyph-name="cdotaccent" unicode="&#x10b;" horiz-adv-x="332" 
d="M127 582v78h72v-78h-72zM165 -10c-75 0 -132 42 -132 136v274c0 92 57 136 132 136c85 0 134 -50 134 -136v-82h-80v77c0 53 -29 71 -54 71c-24 0 -53 -18 -53 -71v-262c0 -55 29 -72 54 -72c24 0 53 17 53 72v78h80v-85c0 -90 -51 -136 -134 -136z" />
    <glyph glyph-name="d" unicode="d" horiz-adv-x="344" 
d="M229 704h79v-704h-62v51c-15 -39 -51 -61 -103 -61c-67 0 -113 48 -113 143v254c0 97 33 149 113 149c44 0 71 -21 86 -48v216zM229 133v261c0 53 -31 73 -62 73c-34 0 -58 -29 -58 -79v-255c0 -48 24 -73 58 -73c31 0 62 20 62 73z" />
    <glyph glyph-name="eth" unicode="&#xf0;" horiz-adv-x="372" 
d="M360 645v-53h-52v-592h-62v51c-15 -39 -51 -61 -103 -61c-67 0 -113 48 -113 119v306c0 72 39 119 113 119c37 0 69 -17 86 -47v105h-61v53h61v59h79v-59h52zM229 133v258c0 53 -31 74 -62 74c-34 0 -58 -24 -58 -74v-258c0 -48 24 -73 58 -73c31 0 62 20 62 73z" />
    <glyph glyph-name="dcaron" unicode="&#x10f;" horiz-adv-x="417" 
d="M229 488v216h79v-704h-62v51c-15 -39 -51 -61 -103 -61c-67 0 -113 48 -113 143v254c0 97 33 149 113 149c44 0 71 -21 86 -48zM327 704h72v-88l-26 -58h-34l22 58h-34v88zM229 133v261c0 53 -31 73 -62 73c-34 0 -58 -29 -58 -79v-255c0 -48 24 -72 58 -72
c31 0 62 19 62 72z" />
    <glyph glyph-name="dcroat" unicode="&#x111;" horiz-adv-x="396" 
d="M361 645v-53h-52v-592h-62v51c-15 -39 -50 -61 -103 -61c-67 0 -113 48 -113 119v306c0 72 39 119 113 119c38 0 70 -17 86 -47v105h-107v53h107v59h79v-59h52zM230 133v258c0 53 -31 74 -62 74c-34 0 -58 -24 -58 -74v-258c0 -48 24 -73 58 -73c31 0 62 20 62 73z" />
    <glyph glyph-name="e" unicode="e" horiz-adv-x="333" 
d="M300 228h-188v-93c0 -53 25 -74 55 -74h1c30 0 53 21 53 74v13l79 1v-21c0 -92 -54 -138 -130 -138h-5c-75 0 -132 45 -132 137v275c0 91 56 134 132 134h5c74 0 130 -43 130 -134v-174zM167 466c-30 0 -55 -20 -55 -73v-106h109v106c0 53 -29 73 -53 73h-1z" />
    <glyph glyph-name="eacute" unicode="&#xe9;" horiz-adv-x="333" 
d="M267 697l-74 -116h-47l51 116h70zM300 228h-188v-93c0 -53 25 -74 55 -74h1c30 0 53 21 53 74v13l79 1v-21c0 -92 -54 -138 -130 -138h-5c-75 0 -132 45 -132 137v275c0 91 56 134 132 134h5c74 0 130 -43 130 -134v-174zM167 466c-30 0 -55 -20 -55 -73v-106h109v106
c0 53 -29 73 -53 73h-1z" />
    <glyph glyph-name="ecaron" unicode="&#x11b;" horiz-adv-x="333" 
d="M134 581l-61 116h49l48 -68l47 68h49l-61 -116h-71zM300 228h-188v-93c0 -53 25 -74 55 -74h1c30 0 53 21 53 74v13l79 1v-21c0 -92 -54 -138 -130 -138h-5c-75 0 -132 45 -132 137v275c0 91 56 134 132 134h5c74 0 130 -43 130 -134v-174zM167 466
c-30 0 -55 -20 -55 -73v-106h109v106c0 53 -29 73 -53 73h-1z" />
    <glyph glyph-name="ecircumflex" unicode="&#xea;" horiz-adv-x="333" 
d="M169 649l-48 -68h-49l61 116h71l61 -116h-49zM300 228h-188v-93c0 -53 25 -74 55 -74h1c30 0 53 21 53 74v13l79 1v-21c0 -92 -54 -138 -130 -138h-5c-75 0 -132 45 -132 137v275c0 91 56 134 132 134h5c74 0 130 -43 130 -134v-174zM167 466c-30 0 -55 -20 -55 -73v-106
h109v106c0 53 -29 73 -53 73h-1z" />
    <glyph glyph-name="edieresis" unicode="&#xeb;" horiz-adv-x="333" 
d="M144 669v-78h-71v78h71zM259 669v-78h-72v78h72zM300 228h-188v-93c0 -53 25 -74 55 -74h1c30 0 53 21 53 74v13l79 1v-21c0 -92 -54 -138 -130 -138h-5c-75 0 -132 45 -132 137v275c0 91 56 134 132 134h5c74 0 130 -43 130 -134v-174zM167 466c-30 0 -55 -20 -55 -73
v-106h109v106c0 53 -29 73 -53 73h-1z" />
    <glyph glyph-name="edotaccent" unicode="&#x117;" horiz-adv-x="333" 
d="M200 660v-78h-71v78h71zM300 228h-188v-93c0 -53 25 -74 55 -74h1c30 0 53 21 53 74v13l79 1v-21c0 -92 -54 -138 -130 -138h-5c-75 0 -132 45 -132 137v275c0 91 56 134 132 134h5c74 0 130 -43 130 -134v-174zM167 466c-30 0 -55 -20 -55 -73v-106h109v106
c0 53 -29 73 -53 73h-1z" />
    <glyph glyph-name="egrave" unicode="&#xe8;" horiz-adv-x="333" 
d="M198 581h-48l-74 116h71zM300 228h-188v-93c0 -53 25 -74 55 -74h1c30 0 53 21 53 74v13l79 1v-21c0 -92 -54 -138 -130 -138h-5c-75 0 -132 45 -132 137v275c0 91 56 134 132 134h5c74 0 130 -43 130 -134v-174zM167 466c-30 0 -55 -20 -55 -73v-106h109v106
c0 53 -29 73 -53 73h-1z" />
    <glyph glyph-name="emacron" unicode="&#x113;" horiz-adv-x="333" 
d="M246 648v-57h-160v57h160zM300 228h-188v-93c0 -53 25 -74 55 -74h1c30 0 53 21 53 74v13l79 1v-21c0 -92 -54 -138 -130 -138h-5c-75 0 -132 45 -132 137v275c0 91 56 134 132 134h5c74 0 130 -43 130 -134v-174zM167 466c-30 0 -55 -20 -55 -73v-106h109v106
c0 53 -29 73 -53 73h-1z" />
    <glyph glyph-name="eogonek" unicode="&#x119;" horiz-adv-x="333" 
d="M300 228h-188v-93c0 -53 25 -74 55 -74h1c30 0 53 21 53 74v13l79 1v-21c0 -73 -34 -117 -86 -132c-45 -36 -59 -45 -59 -66c0 -13 28 -23 54 1v-55c-38 -25 -122 -16 -122 47c0 29 16 47 47 70c-59 11 -101 55 -101 134v275c0 91 56 134 132 134h5
c74 0 130 -43 130 -134v-174zM167 466c-30 0 -55 -20 -55 -73v-106h109v106c0 53 -29 73 -53 73h-1z" />
    <glyph glyph-name="f" unicode="f" horiz-adv-x="263" 
d="M230 644c-42 0 -72 -23 -72 -80v-40h87v-71h-87v-453h-79v453h-59v71h59v40c0 96 57 140 136 140h30v-60h-15z" />
    <glyph glyph-name="g" unicode="g" horiz-adv-x="337" 
d="M238 524h64v-550c0 -92 -54 -136 -136 -136c-91 0 -136 51 -136 136v11h79c0 -48 12 -82 57 -82c43 0 57 34 57 79v100c-15 -31 -48 -50 -82 -50c-75 0 -111 48 -111 120v265c0 73 36 119 111 119c42 0 76 -25 89 -63zM166 102c23 0 57 21 57 74v217c0 53 -27 74 -57 74
c-35 0 -57 -24 -57 -74v-217c0 -49 22 -74 57 -74z" />
    <glyph glyph-name="gbreve" unicode="&#x11f;" horiz-adv-x="337" 
d="M172 581c-62 0 -106 38 -103 113h56c-2 -39 10 -62 47 -62c36 0 50 23 47 62h56c3 -75 -41 -113 -103 -113zM238 524h64v-545c0 -93 -54 -136 -136 -136c-91 0 -136 50 -136 136v10h79c0 -48 12 -82 57 -82c43 0 57 34 57 79v96c-15 -31 -48 -50 -82 -50
c-75 0 -111 48 -111 120v265c0 73 36 119 111 119c42 0 76 -25 89 -63zM166 103c23 0 57 20 57 73v217c0 53 -27 73 -57 73c-35 0 -57 -23 -57 -73v-217c0 -49 22 -73 57 -73z" />
    <glyph glyph-name="uni0123" unicode="&#x123;" horiz-adv-x="337" 
d="M205 696v-88h-72v88l26 58h34l-22 -58h34zM238 524h64v-545c0 -93 -54 -136 -136 -136c-91 0 -136 50 -136 136v10h79c0 -48 12 -82 57 -82c43 0 57 34 57 79v96c-15 -31 -48 -50 -82 -50c-75 0 -111 48 -111 120v265c0 73 36 119 111 119c42 0 76 -25 89 -63zM166 103
c23 0 57 20 57 73v217c0 53 -27 73 -57 73c-35 0 -57 -23 -57 -73v-217c0 -49 22 -73 57 -73z" />
    <glyph glyph-name="gdotaccent" unicode="&#x121;" horiz-adv-x="337" 
d="M204 660v-78h-71v78h71zM238 524h64v-545c0 -93 -54 -136 -136 -136c-91 0 -136 50 -136 136v10h79c0 -48 12 -82 57 -82c43 0 57 34 57 79v96c-15 -31 -48 -50 -82 -50c-75 0 -111 48 -111 120v265c0 73 36 119 111 119c42 0 76 -25 89 -63zM166 103c23 0 57 20 57 73
v217c0 53 -27 73 -57 73c-35 0 -57 -23 -57 -73v-217c0 -49 22 -73 57 -73z" />
    <glyph glyph-name="h" unicode="h" 
d="M218 534c67 0 101 -44 101 -117v-417h-79v394c0 49 -20 73 -54 73c-32 0 -67 -21 -67 -74v-393h-79v704h79v-220c20 31 58 50 99 50z" />
    <glyph glyph-name="hbar" unicode="&#x127;" horiz-adv-x="343" 
d="M210 534c67 0 100 -44 100 -117v-417h-79v394c0 49 -20 73 -53 73c-32 0 -67 -21 -67 -74v-393h-80v591h-38v55h38v58h80v-58h108v-55h-108v-107c20 31 58 50 99 50z" />
    <glyph glyph-name="i" unicode="i" horiz-adv-x="159" 
d="M40 596v108h79v-108h-79zM40 0v524h79v-524h-79z" />
    <glyph glyph-name="dotlessi" unicode="&#x131;" horiz-adv-x="159" 
d="M40 0v524h79v-524h-79z" />
    <glyph glyph-name="iacute" unicode="&#xed;" horiz-adv-x="158" 
d="M47 581l51 116h71l-74 -116h-48zM41 0v524h80v-524h-80z" />
    <glyph glyph-name="icircumflex" unicode="&#xee;" horiz-adv-x="145" 
d="M109 697l61 -116h-49l-47 68l-48 -68h-49l61 116h71zM34 0v524h79v-524h-79z" />
    <glyph glyph-name="idieresis" unicode="&#xef;" horiz-adv-x="155" 
d="M-15 591v78h71v-78h-71zM99 591v78h72v-78h-72zM38 0v524h80v-524h-80z" />
    <glyph glyph-name="i.loclTRK" horiz-adv-x="159" 
d="M44 591v78h71v-78h-71zM40 0v524h79v-524h-79z" />
    <glyph glyph-name="igrave" unicode="&#xec;" horiz-adv-x="153" 
d="M102 581h-48l-74 116h70zM35 0v524h79v-524h-79z" />
    <glyph glyph-name="imacron" unicode="&#x12b;" horiz-adv-x="145" 
d="M-8 653h161v-56h-161v56zM33 0v524h79v-524h-79z" />
    <glyph glyph-name="iogonek" unicode="&#x12f;" horiz-adv-x="153" 
d="M34 704h79v-108h-79v108zM34 0v524h79v-524c-49 -39 -64 -48 -64 -70c0 -13 28 -23 54 1v-55c-38 -25 -122 -16 -122 47c0 32 16 50 53 77z" />
    <glyph glyph-name="j" unicode="j" horiz-adv-x="154" 
d="M35 596v108h79v-108h-79zM-52 -162v66h15c43 0 72 22 72 79v541h79v-546c0 -96 -57 -140 -136 -140h-30z" />
    <glyph glyph-name="k" unicode="k" horiz-adv-x="323" 
d="M40 0v704h79v-372h2l101 192h80l-114 -217l117 -307h-81l-90 225l-18 -30l1 -195h-77z" />
    <glyph glyph-name="uni0137" unicode="&#x137;" horiz-adv-x="323" 
d="M40 0v704h79v-372h2l101 192h80l-114 -217l117 -307h-81l-90 225l-18 -30l1 -195h-77zM150 -186l21 64h-34v82h73v-82l-27 -64h-33z" />
    <glyph glyph-name="l" unicode="l" horiz-adv-x="159" 
d="M40 0v704h79v-704h-79z" />
    <glyph glyph-name="lacute" unicode="&#x13a;" horiz-adv-x="162" 
d="M43 735l51 117h71l-74 -117h-48zM41 0v704h79v-704h-79z" />
    <glyph glyph-name="lcaron" unicode="&#x13e;" horiz-adv-x="150" 
d="M40 735l-62 117h49l48 -69l48 69h49l-62 -117h-70zM36 0v704h79v-704h-79z" />
    <glyph glyph-name="uni013C" unicode="&#x13c;" horiz-adv-x="160" 
d="M41 0v704h79v-704h-79zM45 -140l5 78h56v-38l-11 -46l-29 -22l12 28h-33z" />
    <glyph glyph-name="lslash" unicode="&#x142;" horiz-adv-x="151" 
d="M205 458v-78l-88 -39v-341h-80v305l-70 -31v78l70 31v321h80v-285z" />
    <glyph glyph-name="m" unicode="m" horiz-adv-x="547" 
d="M402 536c83 0 112 -40 112 -112v-424h-80v400c0 49 -18 67 -57 67c-24 0 -61 -21 -61 -74v-393h-79v400c0 49 -18 67 -53 67s-65 -21 -65 -74v-393h-79v524h58l4 -49c17 38 58 61 107 61c53 0 83 -18 97 -52c20 32 58 52 96 52z" />
    <glyph glyph-name="n" unicode="n" 
d="M204 534c75 0 115 -38 115 -110v-424h-79v400c0 49 -16 67 -53 67c-30 0 -68 -21 -68 -74v-393h-79v524h70l-3 -45c17 34 54 55 97 55z" />
    <glyph glyph-name="nacute" unicode="&#x144;" 
d="M264 697l-74 -116h-47l51 116h70zM212 536c79 0 107 -40 107 -112v-424h-79v400c0 49 -16 67 -53 67c-30 0 -68 -21 -68 -74v-393h-79v524h54l5 -58c15 43 59 70 113 70z" />
    <glyph glyph-name="ncaron" unicode="&#x148;" 
d="M142 581l-61 116h49l48 -68l47 68h49l-61 -116h-71zM212 536c79 0 107 -40 107 -112v-424h-79v400c0 49 -16 67 -53 67c-30 0 -68 -21 -68 -74v-393h-79v524h54l5 -58c15 43 59 70 113 70z" />
    <glyph glyph-name="uni0146" unicode="&#x146;" 
d="M212 536c79 0 107 -40 107 -112v-424h-79v400c0 49 -16 67 -53 67c-30 0 -68 -21 -68 -74v-393h-79v524h54l5 -58c15 43 59 70 113 70zM144 -122v82h72v-82l-26 -64h-34l22 64h-34z" />
    <glyph glyph-name="eng" unicode="&#x14b;" 
d="M212 536c79 0 107 -40 107 -112v-434c0 -92 -47 -136 -129 -136h-40v67h38c30 0 52 15 52 67v412c0 49 -16 67 -53 67c-30 0 -68 -21 -68 -74v-393h-79v524h54l5 -58c15 43 59 70 113 70z" />
    <glyph glyph-name="ntilde" unicode="&#xf1;" 
d="M173 600c-17 9 -46 20 -61 -17l-43 22c20 49 76 58 123 32c18 -9 41 -23 56 20l44 -22c-20 -54 -68 -63 -119 -35zM212 534c79 0 107 -41 107 -113v-421h-79v397c0 50 -18 68 -53 68c-30 0 -68 -21 -68 -74v-391h-79v524h66v-46c20 35 61 56 106 56z" />
    <glyph glyph-name="o" unicode="o" horiz-adv-x="333" 
d="M164 -10c-79 0 -131 49 -131 142v263c0 92 52 141 131 141h5c79 0 131 -49 131 -141v-263c0 -93 -52 -142 -131 -142h-5zM165 60h2c31 0 60 20 60 73v260c0 53 -29 74 -60 74h-1c-30 0 -59 -21 -59 -74v-260c0 -53 29 -73 58 -73z" />
    <glyph glyph-name="oacute" unicode="&#xf3;" horiz-adv-x="333" 
d="M133 581l52 116h70l-74 -116h-48zM164 -10c-79 0 -131 49 -131 142v263c0 92 52 141 131 141h5c79 0 131 -49 131 -141v-263c0 -93 -52 -142 -131 -142h-5zM165 60h2c31 0 60 20 60 73v260c0 53 -29 74 -60 74h-1c-30 0 -59 -21 -59 -74v-260c0 -53 29 -73 58 -73z" />
    <glyph glyph-name="ocircumflex" unicode="&#xf4;" horiz-adv-x="333" 
d="M166 649l-48 -68h-49l62 116h70l61 -116h-48zM169 536c79 0 131 -49 131 -141v-263c0 -93 -52 -142 -131 -142h-5c-79 0 -131 49 -131 142v263c0 92 52 141 131 141h5zM227 133v260c0 53 -29 74 -60 74h-1c-30 0 -59 -21 -59 -74v-260c0 -53 29 -73 58 -73h2
c31 0 60 20 60 73z" />
    <glyph glyph-name="odieresis" unicode="&#xf6;" horiz-adv-x="333" 
d="M74 582v78h71v-78h-71zM188 582v78h71v-78h-71zM164 -10c-79 0 -131 49 -131 142v263c0 92 52 141 131 141h5c79 0 131 -49 131 -141v-263c0 -93 -52 -142 -131 -142h-5zM165 60h2c31 0 60 20 60 73v260c0 53 -29 74 -60 74h-1c-30 0 -59 -21 -59 -74v-260
c0 -53 29 -73 58 -73z" />
    <glyph glyph-name="ograve" unicode="&#xf2;" horiz-adv-x="333" 
d="M154 581l-75 116h71l51 -116h-47zM164 -10c-79 0 -131 49 -131 142v263c0 92 52 141 131 141h5c79 0 131 -49 131 -141v-263c0 -93 -52 -142 -131 -142h-5zM165 60h2c31 0 60 20 60 73v260c0 53 -29 74 -60 74h-1c-30 0 -59 -21 -59 -74v-260c0 -53 29 -73 58 -73z" />
    <glyph glyph-name="ohungarumlaut" unicode="&#x151;" horiz-adv-x="343" 
d="M76 581l51 116h71l-75 -116h-47zM179 581l51 116h70l-74 -116h-47zM164 -10c-79 0 -131 49 -131 142v263c0 92 52 141 131 141h5c79 0 131 -49 131 -141v-263c0 -93 -52 -142 -131 -142h-5zM165 60h2c31 0 60 20 60 73v260c0 53 -29 74 -60 74h-1c-30 0 -59 -21 -59 -74
v-260c0 -53 29 -73 58 -73z" />
    <glyph glyph-name="omacron" unicode="&#x14d;" horiz-adv-x="333" 
d="M85 601l54 47l107 -10l-55 -47zM164 -10c-79 0 -131 49 -131 142v263c0 92 52 141 131 141h5c79 0 131 -49 131 -141v-263c0 -93 -52 -142 -131 -142h-5zM165 60h2c31 0 60 20 60 73v260c0 53 -29 74 -60 74h-1c-30 0 -59 -21 -59 -74v-260c0 -53 29 -73 58 -73z" />
    <glyph glyph-name="oslash" unicode="&#xf8;" horiz-adv-x="333" 
d="M216 529c52 -16 84 -62 84 -134v-263c0 -93 -52 -142 -131 -142h-5c-7 0 -15 0 -21 1l-13 -92h-30l13 99c-49 17 -80 63 -80 134v263c0 92 52 141 131 141h5c6 0 11 0 17 -1l11 84h31zM107 133c0 -26 7 -44 17 -55l52 388c-3 1 -6 1 -9 1h-1c-30 0 -59 -21 -59 -74v-260z
M227 133v260c0 29 -9 48 -22 60l-53 -392c4 -1 9 -1 13 -1h2c31 0 60 20 60 73z" />
    <glyph glyph-name="otilde" unicode="&#xf5;" horiz-adv-x="333" 
d="M103 583l-44 22c20 49 77 58 124 32c18 -9 41 -23 55 20l45 -22c-20 -54 -68 -63 -120 -35c-16 9 -45 20 -60 -17zM164 -10c-79 0 -131 49 -131 142v263c0 92 52 141 131 141h5c79 0 131 -49 131 -141v-263c0 -93 -52 -142 -131 -142h-5zM165 60h2c31 0 60 20 60 73v260
c0 53 -29 74 -60 74h-1c-30 0 -59 -21 -59 -74v-260c0 -53 29 -73 58 -73z" />
    <glyph glyph-name="oe" unicode="&#x153;" horiz-adv-x="524" 
d="M491 228h-185v-92c0 -53 26 -73 54 -74h1c27 0 50 21 50 74v13h80v-21c0 -92 -55 -137 -128 -137h-5c-37 0 -71 12 -94 35c-23 -24 -56 -36 -95 -36h-5c-79 0 -131 49 -131 142v263c0 92 52 141 131 141h5c39 0 71 -12 94 -34c23 23 56 34 94 34h5c73 0 129 -43 129 -134
v-174zM167 60c31 0 60 20 60 73v260c0 53 -29 74 -60 74h-1c-30 0 -59 -21 -59 -74v-260c0 -53 29 -73 58 -73h2zM359 467c-28 0 -53 -20 -53 -73v-102h105v102c0 53 -27 73 -51 73h-1z" />
    <glyph glyph-name="p" unicode="p" 
d="M40 -154v678h68l-5 -50c15 38 50 60 103 60c67 0 113 -49 113 -136v-262c0 -89 -40 -136 -113 -136c-38 0 -70 17 -87 47v-201h-79zM119 143c0 -53 31 -73 62 -73c35 0 59 24 59 73v251c0 48 -24 73 -59 73c-31 0 -62 -20 -62 -73v-251z" />
    <glyph glyph-name="thorn" unicode="&#xfe;" horiz-adv-x="348" 
d="M178 585c80 0 137 -44 137 -136v-167c0 -96 -56 -136 -137 -136h-59v-146h-79v704h79v-119h59zM236 295v147c0 53 -29 73 -58 73h-59v-294h58c36 0 59 20 59 74z" />
    <glyph glyph-name="q" unicode="q" horiz-adv-x="344" 
d="M30 119v296c0 70 46 119 113 119c52 0 88 -22 103 -60l-5 50h67v-678h-79v201c-17 -30 -49 -47 -86 -47c-75 0 -113 47 -113 119zM109 143c0 -49 24 -73 58 -73c31 0 62 20 62 73v248c0 53 -31 73 -62 73c-34 0 -58 -25 -58 -73v-248z" />
    <glyph glyph-name="r" unicode="r" horiz-adv-x="228" 
d="M208 524h8v-75h-33c-31 0 -64 -21 -64 -70v-379h-79v524h59l2 -64c15 40 54 64 107 64z" />
    <glyph glyph-name="racute" unicode="&#x155;" horiz-adv-x="220" 
d="M170 697l-74 -116h-48l52 116h70zM199 524h9v-70h-34c-30 0 -63 -20 -63 -69v-385h-80v524h62v-63c15 39 54 63 106 63z" />
    <glyph glyph-name="rcaron" unicode="&#x159;" horiz-adv-x="220" 
d="M84 581l-61 116h48l48 -68l48 68h49l-62 -116h-70zM93 461c15 39 54 63 106 63h9v-70h-34c-30 0 -63 -20 -63 -69v-385h-80v524h62v-63z" />
    <glyph glyph-name="uni0157" unicode="&#x157;" horiz-adv-x="229" 
d="M208 524h9v-70h-34c-30 0 -63 -20 -63 -69v-385h-79v524h61v-63c15 39 54 63 106 63zM43 -122v82h73v-82l-27 -64h-34l22 64h-34z" />
    <glyph glyph-name="s" unicode="s" horiz-adv-x="325" 
d="M161 -9c-68 0 -126 30 -126 117v77h73v-61c0 -51 24 -65 53 -65c32 0 56 14 56 61v46c0 90 -183 58 -183 201v57c0 88 67 112 127 112c58 0 122 -24 122 -112v-80h-72v75c0 46 -28 54 -50 54c-24 0 -54 -8 -54 -54v-44c0 -90 185 -58 185 -196v-60
c0 -98 -61 -128 -131 -128z" />
    <glyph glyph-name="sacute" unicode="&#x15b;" horiz-adv-x="309" 
d="M120 581l51 116h70l-74 -116h-47zM154 -10c-67 0 -128 30 -128 117v72h75v-56c0 -50 25 -65 53 -65c32 0 56 15 56 61v47c0 90 -185 58 -185 201v58c0 89 65 113 130 113c55 0 120 -24 120 -113v-75h-72v69c0 46 -29 54 -48 54c-24 0 -55 -8 -55 -54v-44
c0 -90 185 -58 185 -196v-61c0 -98 -60 -128 -131 -128z" />
    <glyph glyph-name="scaron" unicode="&#x161;" horiz-adv-x="329" 
d="M131 581l-62 116h49l48 -68l48 68h48l-61 -116h-70zM296 344h-75v72c0 46 -37 54 -55 54c-21 0 -55 -8 -55 -54v-41c0 -90 185 -58 185 -196v-59c0 -98 -65 -127 -132 -127c-63 0 -131 29 -131 116v85h75v-69c0 -50 32 -65 56 -65c28 0 57 15 57 61v45
c0 90 -186 58 -186 201v58c0 89 70 113 131 113c57 0 130 -24 130 -113v-81z" />
    <glyph glyph-name="scedilla" unicode="&#x15f;" horiz-adv-x="309" 
d="M100 375c0 -90 185 -58 185 -196v-61c0 -95 -57 -126 -125 -128l-14 -31h17c44 0 64 -22 64 -63c0 -33 -24 -65 -68 -65c-5 0 -43 0 -48 1v42c5 -1 19 -1 24 -1c30 0 44 9 44 23c0 18 -2 28 -33 28h-46v34l16 36c-50 10 -90 43 -90 113v72h75v-56c0 -50 25 -65 53 -65
c32 0 56 15 56 61v47c0 90 -185 58 -185 201v58c0 89 65 113 130 113c55 0 120 -24 120 -113v-75h-72v69c0 46 -29 54 -48 54c-24 0 -55 -8 -55 -54v-44z" />
    <glyph glyph-name="uni0219" unicode="&#x219;" horiz-adv-x="309" 
d="M154 -10c-67 0 -128 30 -128 117v72h75v-56c0 -50 25 -65 53 -65c32 0 56 15 56 61v47c0 90 -185 58 -185 201v58c0 89 65 113 130 113c55 0 120 -24 120 -113v-75h-72v69c0 46 -29 54 -48 54c-24 0 -55 -8 -55 -54v-44c0 -90 185 -58 185 -196v-61
c0 -98 -60 -128 -131 -128zM117 -122v82h73v-82l-27 -64h-34l22 64h-34z" />
    <glyph glyph-name="germandbls" unicode="&#xdf;" horiz-adv-x="327" 
d="M246 363c28 -13 58 -44 58 -100v-135c0 -84 -49 -134 -142 -134h-28v71h29c37 0 62 23 62 70l1 121c0 58 -38 69 -70 69h-22v71h21c29 0 67 13 67 69v111c0 54 -31 71 -60 71c-33 0 -60 -20 -60 -71v-582h-74v590c0 91 56 133 133 133c89 0 137 -48 137 -133v-126
c0 -45 -26 -77 -52 -95z" />
    <glyph glyph-name="t" unicode="t" horiz-adv-x="263" 
d="M245 453h-87v-323c0 -59 16 -63 87 -46v-74l-51 -9c-75 -17 -115 14 -115 94v358h-59v71h59v180h79v-180h87v-71z" />
    <glyph glyph-name="tbar" unicode="&#x167;" horiz-adv-x="257" 
d="M239 453h-88v-87h88v-55h-88v-179c0 -59 16 -63 88 -45v-75l-52 -9c-75 -17 -115 14 -115 94v214h-59v55h59v87h-59v71h59v180h79v-180h88v-71z" />
    <glyph glyph-name="tcaron" unicode="&#x165;" horiz-adv-x="263" 
d="M83 735l-61 117h48l48 -69l48 69h49l-62 -117h-70zM245 453h-87v-321c0 -59 16 -63 87 -45v-75l-51 -9c-75 -17 -115 14 -115 94v356h-59v71h59v180h79v-180h87v-71z" />
    <glyph glyph-name="uni0163" unicode="&#x163;" horiz-adv-x="263" 
d="M245 453h-87v-321c0 -59 16 -63 87 -45v-75l-51 -9c-12 -3 -22 -4 -32 -4l-18 -40h17c44 0 64 -22 64 -63c0 -33 -25 -65 -69 -65c-4 0 -43 0 -47 1v42c4 -1 19 -1 23 -1c31 0 45 9 45 23c0 18 -3 28 -33 28h-46v34l22 48c-27 13 -41 43 -41 91v356h-59v71h59v180h79
v-180h87v-71z" />
    <glyph glyph-name="uni021B" unicode="&#x21b;" horiz-adv-x="263" 
d="M245 453h-87v-321c0 -59 16 -63 87 -45v-75l-51 -9c-75 -17 -115 14 -115 94v356h-59v71h59v180h79v-180h87v-71zM106 -122v82h72v-82l-26 -64h-34l22 64h-34z" />
    <glyph glyph-name="u" unicode="u" horiz-adv-x="344" 
d="M229 524h79v-524h-55l-5 56c-14 -40 -50 -66 -98 -66c-86 0 -120 47 -120 119v415h79v-391c0 -49 24 -73 59 -73c30 0 61 20 61 73v391z" />
    <glyph glyph-name="uacute" unicode="&#xfa;" horiz-adv-x="344" 
d="M255 697l-74 -116h-48l52 116h70zM229 524h79v-524h-63v49c-16 -35 -51 -57 -95 -57c-86 0 -120 47 -120 120v412h79v-388c0 -50 24 -74 59 -74c30 0 61 21 61 74v388z" />
    <glyph glyph-name="ucircumflex" unicode="&#xfb;" horiz-adv-x="344" 
d="M170 660l-44 -82h-43l48 119h78l48 -119h-43zM229 524h79v-524h-63v49c-16 -35 -51 -57 -95 -57c-86 0 -120 47 -120 120v412h79v-388c0 -50 24 -74 59 -74c30 0 61 21 61 74v388z" />
    <glyph glyph-name="udieresis" unicode="&#xfc;" horiz-adv-x="344" 
d="M147 660v-78h-71v78h71zM261 660v-78h-71v78h71zM229 524h79v-524h-63v49c-16 -35 -51 -57 -95 -57c-86 0 -120 47 -120 120v412h79v-388c0 -50 24 -74 59 -74c30 0 61 21 61 74v388z" />
    <glyph glyph-name="ugrave" unicode="&#xf9;" horiz-adv-x="344" 
d="M189 581l-65 47l-36 69l73 -47zM229 524h79v-524h-63v49c-16 -35 -51 -57 -95 -57c-86 0 -120 47 -120 120v412h79v-388c0 -50 24 -74 59 -74c30 0 61 21 61 74v388z" />
    <glyph glyph-name="uhungarumlaut" unicode="&#x171;" horiz-adv-x="344" 
d="M192 697l-74 -116h-48l52 116h70zM221 581h-48l51 116h71zM229 524h79v-524h-55l-5 56c-14 -40 -50 -65 -98 -65c-86 0 -120 47 -120 120v413h79v-389c0 -50 24 -73 59 -73c30 0 61 20 61 73v389z" />
    <glyph glyph-name="umacron" unicode="&#x16b;" horiz-adv-x="344" 
d="M250 648v-57h-161v57h161zM229 524h79v-524h-55l-5 56c-14 -40 -50 -65 -98 -65c-86 0 -120 47 -120 120v413h79v-389c0 -50 24 -73 59 -73c30 0 61 20 61 73v389z" />
    <glyph glyph-name="uogonek" unicode="&#x173;" horiz-adv-x="345" 
d="M245 -70c0 -13 28 -23 54 1v-55c-38 -25 -122 -16 -122 47c0 32 28 57 76 77l-5 56c-14 -40 -50 -65 -98 -65c-86 0 -120 47 -120 120v413h79v-389c0 -50 24 -73 59 -73c30 0 61 20 61 73v389h79v-524h1c-49 -39 -64 -48 -64 -70z" />
    <glyph glyph-name="uring" unicode="&#x16f;" horiz-adv-x="340" 
d="M171 558c-40 0 -72 33 -72 72c0 40 32 72 72 72c39 0 72 -32 72 -72c0 -39 -33 -72 -72 -72zM171 665c-19 0 -34 -15 -34 -35c0 -19 15 -33 34 -33c20 0 35 14 35 33c0 20 -16 35 -35 35zM230 524h79v-524h-55l-5 56c-14 -40 -50 -65 -98 -65c-86 0 -121 47 -121 120v413
h79v-389c0 -50 24 -73 59 -73c31 0 62 20 62 73v389z" />
    <glyph glyph-name="v" unicode="v" horiz-adv-x="319" 
d="M100 0l-80 524h76l63 -458h3l63 458h75l-79 -524h-121z" />
    <glyph glyph-name="w" unicode="w" horiz-adv-x="492" 
d="M398 524h76l-80 -524h-92l-55 380l-55 -380h-92l-80 524h79l52 -437l63 437h65l64 -436z" />
    <glyph glyph-name="wacute" unicode="&#x1e83;" horiz-adv-x="492" 
d="M343 697l-74 -116h-48l52 116h70zM398 524h76l-80 -524h-92l-55 372l-55 -372h-92l-80 524h79l52 -437l63 437h65l64 -436z" />
    <glyph glyph-name="wcircumflex" unicode="&#x175;" horiz-adv-x="492" 
d="M246 650l-48 -69h-49l62 116h70l62 -116h-49zM398 524h76l-80 -524h-92l-55 372l-55 -372h-92l-80 524h79l52 -437l63 437h65l64 -436z" />
    <glyph glyph-name="wdieresis" unicode="&#x1e85;" horiz-adv-x="492" 
d="M227 660v-78h-71v78h71zM342 660v-78h-72v78h72zM398 524h76l-80 -524h-92l-55 372l-55 -372h-92l-80 524h79l52 -437l63 437h65l64 -436z" />
    <glyph glyph-name="wgrave" unicode="&#x1e81;" horiz-adv-x="492" 
d="M271 581h-48l-74 116h70zM398 524h76l-80 -524h-92l-55 372l-55 -372h-92l-80 524h79l52 -437l63 437h65l64 -436z" />
    <glyph glyph-name="x" unicode="x" horiz-adv-x="312" 
d="M20 0l89 259l-89 265h73l61 -188l61 188h72l-89 -265l95 -259h-72l-67 186l-61 -186h-73z" />
    <glyph glyph-name="y" unicode="y" horiz-adv-x="336" 
d="M226 524h79v-550c0 -97 -57 -136 -137 -136c-85 0 -135 47 -135 136v11h79c1 -50 14 -82 57 -82c42 0 59 27 59 79v91c-16 -28 -50 -41 -85 -41c-71 0 -110 48 -110 120v372h79v-348c0 -49 24 -74 56 -74c28 0 58 21 58 74v348z" />
    <glyph glyph-name="yacute" unicode="&#xfd;" horiz-adv-x="336" 
d="M261 697l-74 -116h-48l52 116h70zM226 524h79v-545c0 -95 -57 -136 -137 -136c-85 0 -135 50 -135 136v10h79c1 -52 23 -77 57 -77c29 0 57 21 57 74v93c-15 -30 -48 -47 -83 -47c-71 0 -110 48 -110 120v372h79v-348c0 -49 24 -74 56 -74c28 0 58 21 58 74v348z" />
    <glyph glyph-name="ycircumflex" unicode="&#x177;" horiz-adv-x="336" 
d="M170 649l-48 -68h-49l61 116h70l62 -116h-49zM226 524h79v-545c0 -95 -57 -136 -137 -136c-85 0 -135 50 -135 136v10h79c1 -52 23 -77 57 -77c29 0 57 21 57 74v93c-15 -30 -48 -47 -83 -47c-71 0 -110 48 -110 120v372h79v-348c0 -49 24 -74 56 -74c28 0 58 21 58 74
v348z" />
    <glyph glyph-name="ydieresis" unicode="&#xff;" horiz-adv-x="336" 
d="M146 665v-78h-71v78h71zM260 665v-78h-71v78h71zM226 524h79v-545c0 -95 -57 -136 -137 -136c-85 0 -135 50 -135 136v10h79c1 -52 23 -77 57 -77c29 0 57 21 57 74v93c-15 -30 -48 -47 -83 -47c-71 0 -110 48 -110 120v372h79v-348c0 -49 24 -74 56 -74
c28 0 58 21 58 74v348z" />
    <glyph glyph-name="ygrave" unicode="&#x1ef3;" horiz-adv-x="336" 
d="M203 581h-47l-74 116h70zM226 524h79v-545c0 -95 -57 -136 -137 -136c-85 0 -135 50 -135 136v10h79c1 -52 23 -77 57 -77c29 0 57 21 57 74v93c-15 -30 -48 -47 -83 -47c-71 0 -110 48 -110 120v372h79v-348c0 -49 24 -74 56 -74c28 0 58 21 58 74v348z" />
    <glyph glyph-name="z" unicode="z" horiz-adv-x="275" 
d="M20 0l2 77l145 371h-137v76h225l-2 -75l-145 -372l146 -1v-76h-234z" />
    <glyph glyph-name="zacute" unicode="&#x17a;" horiz-adv-x="269" 
d="M94 581l51 116h70l-74 -116h-47zM20 0l2 77l145 371h-137v76h220l-3 -75l-145 -373l147 -1v-75h-229z" />
    <glyph glyph-name="zcaron" unicode="&#x17e;" horiz-adv-x="269" 
d="M106 581l-61 116h49l48 -68l47 68h49l-61 -116h-71zM247 449l-145 -373l147 -1v-75h-229l2 77l145 371h-137v76h220z" />
    <glyph glyph-name="zdotaccent" unicode="&#x17c;" horiz-adv-x="269" 
d="M100 582v78h71v-78h-71zM20 0l2 77l145 371h-137v76h220l-3 -75l-145 -373l147 -1v-75h-229z" />
    <glyph glyph-name="L_A" horiz-adv-x="491" 
d="M119 704v-624h354v-80h-433v704h79zM266 251l-16 -118h-79l86 571h126l90 -571h-79l-17 118h-111zM322 625h-5l-41 -298h90z" />
    <glyph glyph-name="L_E" horiz-adv-x="422" 
d="M40 0v704h79v-624h285v-80h-364zM172 133l1 571h231v-78h-152v-172h128v-76h-128v-166h152v-79h-232z" />
    <glyph glyph-name="L_U" horiz-adv-x="496" 
d="M40 0v704h79v-624h344v-80h-423zM316 124c-81 0 -141 42 -141 152v428h81v-428c0 -55 29 -74 61 -74h3c33 0 62 19 62 74v428h81v-428c0 -110 -60 -152 -142 -152h-5z" />
    <glyph glyph-name="L_o" horiz-adv-x="489" 
d="M314 120c-79 0 -136 50 -136 142v306c0 92 57 142 136 142h5c79 0 137 -50 137 -142v-306c0 -92 -58 -142 -137 -142h-5zM40 0v704h79v-624h337v-80h-416zM315 191h2c31 0 60 25 60 78v292c0 53 -29 79 -60 79h-1c-30 0 -59 -26 -59 -79v-292c0 -53 29 -78 58 -78z" />
    <glyph glyph-name="N_N" horiz-adv-x="559" 
d="M440 704h80v-704h-80l-120 422v-422h-80l-120 422v-422h-80v704h80l120 -462v462h80l120 -462v462z" />
    <glyph glyph-name="N_o" horiz-adv-x="692" 
d="M522 711c79 0 137 -50 137 -142v-297c0 -92 -58 -142 -137 -142h-5c-79 0 -137 50 -137 142v297c0 92 58 142 137 142h5zM240 242v462h80v-704h-80l-120 422v-422h-80v704h80zM580 279v283c0 53 -29 79 -60 79h-1c-30 0 -59 -26 -59 -79v-283c0 -53 29 -78 58 -78h2
c31 0 60 25 60 78zM382 0v80h277v-80h-277z" />
    <glyph glyph-name="c_t" horiz-adv-x="595" 
d="M577 453h-88v-321c0 -59 16 -63 88 -45v-75l-52 -9c-75 -17 -115 14 -115 94v356h-53v71h53v155c0 49 -16 73 -50 73s-50 -24 -50 -73v-360h-79v75c0 53 -29 73 -60 73c-30 0 -59 -20 -59 -73v-259c0 -53 29 -73 60 -73c30 0 59 20 59 73v77h79v-84
c0 -88 -50 -136 -140 -136c-80 0 -137 44 -137 136v274c0 91 57 136 137 136c23 0 43 -3 61 -9v146c0 87 49 136 129 136s129 -43 129 -136v-151h88v-71z" />
    <glyph glyph-name="f_h" horiz-adv-x="602" 
d="M469 536c73 0 100 -46 100 -119v-417h-79v394c0 49 -19 73 -53 73c-32 0 -67 -21 -67 -74v-393h-79v644h-61c-42 0 -72 -23 -72 -80v-40h87v-71h-87v-453h-79v453h-59v71h59v40c0 96 57 140 136 140h155v-220c20 32 58 52 99 52z" />
    <glyph glyph-name="s_t" horiz-adv-x="568" 
d="M549 453h-87v-321c0 -59 16 -63 87 -45v-75l-51 -9c-75 -17 -115 14 -115 94v356h-53v71h53v106h1v49c0 49 -17 73 -50 73c-34 0 -51 -24 -51 -73v-329h-72v69c0 46 -28 54 -47 54c-25 0 -55 -8 -55 -54v-44c0 -90 185 -58 185 -196v-60c0 -98 -61 -128 -131 -128
c-68 0 -128 30 -128 117v71h75v-55c0 -51 24 -65 53 -65c32 0 56 14 56 61v46c0 90 -185 58 -185 201v58c0 89 65 113 130 113c15 0 32 -2 47 -7v144c0 87 42 136 123 136c80 0 129 -43 129 -136v-82h-1v-69h87v-71z" />
    <glyph glyph-name="ordfeminine" unicode="&#xaa;" horiz-adv-x="164" 
d="M83 714c28 0 61 -10 62 -48v-171h-36v16c-8 -13 -24 -20 -39 -20c-33 0 -51 14 -51 59v19c0 56 85 46 85 84v8c0 17 -9 22 -20 22c-10 0 -20 -5 -20 -22v-24h-37v27c0 38 32 50 56 50zM106 550v57c-20 -13 -49 -18 -49 -40v-20c0 -19 11 -23 24 -23c12 0 25 5 25 26z" />
    <glyph glyph-name="ordmasculine" unicode="&#xba;" horiz-adv-x="177" 
d="M78 490c-31 0 -59 21 -59 59v103c0 38 28 60 59 60h11c31 0 59 -22 59 -60v-103c0 -38 -28 -59 -59 -59h-11zM83 528h1c13 0 25 9 25 31v84c0 22 -12 31 -25 31h-1c-13 0 -25 -9 -25 -31v-84c0 -22 12 -31 25 -31z" />
    <glyph glyph-name="zero" unicode="0" horiz-adv-x="331" 
d="M162 -10c-68 0 -129 35 -129 146v431c0 109 61 146 129 146h5c70 0 131 -37 131 -146v-431c0 -111 -61 -146 -131 -146h-5zM164 53h2c26 0 55 19 55 73v451c0 53 -29 73 -56 73h-1c-25 0 -54 -20 -54 -73v-451c0 -54 29 -73 54 -73z" />
    <glyph glyph-name="one" unicode="1" horiz-adv-x="190" 
d="M150 704v-704h-79v636h-60v68h139z" />
    <glyph glyph-name="two" unicode="2" horiz-adv-x="337" 
d="M33 0v206c0 168 189 151 189 260v119c0 48 -26 64 -53 64c-26 0 -53 -20 -53 -67v-87h-82v92c0 80 46 125 135 125s135 -45 135 -125v-123c0 -170 -188 -151 -188 -263v-126h106v115h82v-190h-271z" />
    <glyph glyph-name="three" unicode="3" horiz-adv-x="344" 
d="M254 368c28 -14 57 -45 57 -100v-144c0 -85 -49 -134 -142 -134c-81 0 -136 43 -136 134v88h79v-81c0 -49 23 -71 58 -71c37 0 63 22 63 71v129c0 58 -38 69 -69 69h-44v72l42 -1c29 0 64 13 64 69v107c0 54 -28 71 -57 71c-27 0 -55 -20 -55 -71v-70h-79v78
c0 91 56 133 133 133c89 0 137 -48 137 -133v-122c0 -44 -25 -77 -51 -94z" />
    <glyph glyph-name="four" unicode="4" horiz-adv-x="331" 
d="M291 704v-704h-79v183h-200v73l171 448h108zM90 256h122v325z" />
    <glyph glyph-name="five" unicode="5" horiz-adv-x="337" 
d="M185 484c75 0 119 -36 119 -131v-234c0 -87 -57 -129 -134 -129c-87 0 -137 48 -137 129v87h79v-80c0 -48 30 -66 57 -66s56 18 56 66v225c0 53 -28 74 -55 74s-56 -21 -56 -74v-13h-79l-2 366h268v-79h-189l2 -170c13 18 36 29 71 29z" />
    <glyph glyph-name="six" unicode="6" horiz-adv-x="341" 
d="M308 524h-79v54c0 51 -30 71 -59 71s-58 -20 -58 -71v-123c14 20 41 29 74 29c77 0 122 -36 122 -131v-227c0 -90 -57 -134 -135 -134c-91 0 -140 50 -140 134v452c0 92 57 134 136 134c88 0 139 -50 139 -134v-54zM171 425c-29 0 -58 -21 -58 -74l-1 -217
c0 -47 25 -71 59 -71c29 0 58 19 58 71v217c0 53 -29 74 -58 74z" />
    <glyph glyph-name="seven" unicode="7" horiz-adv-x="295" 
d="M20 625v79h257v-79l-128 -625h-82l127 625h-174z" />
    <glyph glyph-name="eight" unicode="8" horiz-adv-x="347" 
d="M256 370c30 -16 58 -47 58 -102v-142c0 -85 -46 -134 -142 -134c-85 0 -139 43 -139 134v142c0 56 26 86 56 101c-28 17 -52 47 -52 96v113c0 90 54 134 134 134c90 0 137 -51 137 -134v-113c0 -48 -25 -78 -52 -95zM116 578v-106c0 -51 25 -71 56 -71c29 0 57 25 57 71
v106c0 51 -24 71 -57 71c-32 0 -56 -20 -56 -71zM235 133v127c0 52 -30 71 -62 71c-31 0 -61 -19 -61 -71v-127c0 -52 26 -71 61 -71c36 0 62 19 62 71z" />
    <glyph glyph-name="nine" unicode="9" horiz-adv-x="335" 
d="M165 712c91 0 137 -50 137 -134v-452c0 -92 -55 -134 -134 -134c-88 0 -135 48 -135 134v49h79v-42c0 -51 28 -71 55 -71c29 0 56 20 56 71v119c-14 -21 -39 -30 -72 -30c-73 0 -118 37 -118 131v225c0 91 54 134 132 134zM164 281c29 0 58 21 58 74l1 216
c0 47 -22 71 -56 71c-33 0 -55 -20 -55 -71v-216c0 -53 29 -74 52 -74z" />
    <glyph glyph-name="fraction" unicode="&#x2044;" horiz-adv-x="301" 
d="M225 704h62l-212 -704h-61z" />
    <glyph glyph-name="period" unicode="." horiz-adv-x="115" 
d="M22 82h71v-82h-71v82z" />
    <glyph glyph-name="comma" unicode="," horiz-adv-x="113" 
d="M20 0v82h72v-82l-26 -64h-34l22 64h-34z" />
    <glyph glyph-name="colon" unicode=":" horiz-adv-x="112" 
d="M22 301v82h71v-82h-71zM22 0v82h71v-82h-71z" />
    <glyph glyph-name="semicolon" unicode=";" horiz-adv-x="113" 
d="M22 301v82h71v-82h-71zM32 -64l22 64h-34v82h72v-82l-26 -64h-34z" />
    <glyph glyph-name="ellipsis" unicode="&#x2026;" horiz-adv-x="347" 
d="M28 82h71v-82h-71v82zM137 82h71v-82h-71v82zM248 82h71v-82h-71v82z" />
    <glyph glyph-name="exclam" unicode="!" horiz-adv-x="159" 
d="M55 140l-15 153v411h79v-411l-17 -153h-47zM44 0v82h71v-82h-71z" />
    <glyph glyph-name="exclamdown" unicode="&#xa1;" horiz-adv-x="162" 
d="M40 594h83v-88h-83v88zM57 445h49l15 -173v-381h-79v381z" />
    <glyph glyph-name="question" unicode="?" horiz-adv-x="313" 
d="M109 140v90c0 157 100 124 100 245v101c0 47 -27 64 -53 64c-24 0 -51 -20 -51 -68v-64h-83v83c0 80 46 125 134 125c89 0 135 -45 135 -125v-101c0 -170 -99 -130 -99 -259v-91h-83zM109 0v82h83v-82h-83z" />
    <glyph glyph-name="questiondown" unicode="&#xbf;" horiz-adv-x="313" 
d="M121 512v82h82v-82h-82zM156 -123c-88 0 -134 46 -134 126v101c0 169 99 129 99 259v82h82v-82c0 -156 -99 -124 -99 -244v-101c0 -48 26 -65 52 -65c25 0 52 21 52 68v65h83v-83c0 -80 -47 -126 -135 -126z" />
    <glyph glyph-name="periodcentered" unicode="&#xb7;" horiz-adv-x="123" 
d="M22 377h79v-78h-79v78z" />
    <glyph glyph-name="bullet" unicode="&#x2022;" horiz-adv-x="172" 
d="M87 299c-36 0 -65 14 -65 64c0 49 29 64 65 64c35 0 63 -15 63 -64c0 -50 -28 -64 -63 -64z" />
    <glyph glyph-name="asterisk" unicode="*" horiz-adv-x="203" 
d="M130 635l17 -14l26 -32l-34 -29l-27 32l-11 24l-10 -24l-27 -32l-34 29l26 32l17 14l-22 3l-39 12l13 42l39 -12l20 -11l-5 24v41h44v-41l-5 -24l20 11l39 12l13 -42l-39 -12z" />
    <glyph glyph-name="numbersign" unicode="#" horiz-adv-x="491" 
d="M464 452h-79l-27 -195h83l-12 -81h-83l-25 -176h-79l25 176h-98l-25 -176h-76l25 176h-76l11 81h76l28 195h-82l10 78h83l24 174h77l-25 -174h98l25 174h79l-25 -174h78zM279 257l27 195h-98l-27 -195h98z" />
    <glyph glyph-name="slash" unicode="/" horiz-adv-x="245" 
d="M11 0l157 774h66l-158 -774h-65z" />
    <glyph glyph-name="backslash" unicode="\" horiz-adv-x="245" 
d="M77 774l157 -774h-65l-158 774h66z" />
    <glyph glyph-name="parenleft" unicode="(" horiz-adv-x="187" 
d="M24 -33v679c0 119 57 153 127 153h24v-64h-23c-43 0 -51 -49 -51 -87v-683c0 -38 8 -87 51 -87h23v-64h-24c-70 0 -127 34 -127 153z" />
    <glyph glyph-name="parenright" unicode=")" horiz-adv-x="187" 
d="M12 -186v64h23c43 0 51 49 51 87v683c0 38 -8 87 -51 87h-23v64h24c70 0 127 -34 127 -153v-679c0 -119 -57 -153 -127 -153h-24z" />
    <glyph glyph-name="braceleft" unicode="{" horiz-adv-x="227" 
d="M154 427c0 -50 -23 -86 -46 -103c23 -16 46 -52 46 -101v-287c0 -48 20 -59 40 -59h21v-63h-22c-71 0 -116 34 -116 149v270c0 51 -17 59 -61 59v64c46 0 61 11 61 60v246c0 97 45 141 116 141h22v-64h-21c-20 0 -40 -17 -40 -59v-253z" />
    <glyph glyph-name="braceright" unicode="}" horiz-adv-x="227" 
d="M150 416c0 -49 15 -60 61 -60v-64c-44 0 -61 -8 -61 -59v-259c0 -114 -45 -160 -116 -160h-22v63h21c20 0 40 11 40 59v287c0 49 23 85 46 101c-23 17 -46 53 -46 103v253c0 42 -20 59 -40 59h-21v64h22c71 0 116 -44 116 -141v-246z" />
    <glyph glyph-name="bracketleft" unicode="[" horiz-adv-x="241" 
d="M40 -190l1 989h185v-55h-112v-881h116v-53h-190z" />
    <glyph glyph-name="bracketright" unicode="]" horiz-adv-x="240" 
d="M201 -190h-190v53h116v881h-112v55h185z" />
    <glyph glyph-name="hyphen" unicode="-" horiz-adv-x="298" 
d="M16 343h266v-59h-266v59z" />
    <glyph glyph-name="endash" unicode="&#x2013;" horiz-adv-x="394" 
d="M16 345h363v-60h-363v60z" />
    <glyph glyph-name="emdash" unicode="&#x2014;" horiz-adv-x="471" 
d="M16 345h440v-60h-440v60z" />
    <glyph glyph-name="underscore" unicode="_" horiz-adv-x="368" 
d="M16 59h336v-59h-336v59z" />
    <glyph glyph-name="quotesinglbase" unicode="&#x201a;" horiz-adv-x="109" 
 />
    <glyph glyph-name="quotedblbase" unicode="&#x201e;" horiz-adv-x="109" 
 />
    <glyph glyph-name="quotedblleft" unicode="&#x201c;" horiz-adv-x="216" 
d="M24 576v87l26 59h34l-22 -59h34v-87h-72zM120 576v87l26 59h34l-22 -59h34v-87h-72z" />
    <glyph glyph-name="quotedblright" unicode="&#x201d;" horiz-adv-x="216" 
d="M24 704h72v-88l-26 -58h-34l22 58h-34v88zM120 704h72v-88l-26 -58h-34l22 58h-34v88z" />
    <glyph glyph-name="quoteleft" unicode="&#x2018;" horiz-adv-x="112" 
d="M92 576h-72v87l26 59h34l-22 -59h34v-87z" />
    <glyph glyph-name="quoteright" unicode="&#x2019;" horiz-adv-x="112" 
d="M20 704h72v-88l-26 -58h-34l22 58h-34v88z" />
    <glyph glyph-name="guillemotleft" unicode="&#xab;" horiz-adv-x="413" 
d="M183 122l-167 164l167 165h83l-167 -165l167 -164h-83zM316 122l-167 164l167 165h83l-167 -165l167 -164h-83z" />
    <glyph glyph-name="guillemotright" unicode="&#xbb;" horiz-adv-x="410" 
d="M11 122l167 164l-167 165h83l167 -165l-167 -164h-83zM145 122l167 164l-167 165h83l167 -165l-167 -164h-83z" />
    <glyph glyph-name="guilsinglleft" unicode="&#x2039;" horiz-adv-x="277" 
d="M183 122l-167 164l167 165h83l-167 -165l167 -164h-83z" />
    <glyph glyph-name="guilsinglright" unicode="&#x203a;" horiz-adv-x="277" 
d="M11 122l167 164l-167 165h83l167 -165l-167 -164h-83z" />
    <glyph glyph-name="quotedbl" unicode="&#x22;" horiz-adv-x="208" 
d="M20 705h72v-88l-26 -58h-34l22 58h-34v88zM116 705h72v-88l-26 -58h-34l22 58h-34v88z" />
    <glyph glyph-name="quotesingle" unicode="'" horiz-adv-x="116" 
d="M20 616v88h72v-88l-26 -58h-34l22 58h-34z" />
    <glyph glyph-name="space" unicode=" " horiz-adv-x="152" 
 />
    <glyph glyph-name="cent" unicode="&#xa2;" horiz-adv-x="343" 
d="M310 277h-79v57c0 53 -29 73 -60 73c-30 0 -59 -20 -59 -73v-197c0 -53 29 -74 60 -74c30 0 59 21 59 74v58h79v-66c0 -80 -41 -127 -116 -135v-76h-51v77c-66 9 -110 53 -110 134v213c0 80 44 125 110 134v77h51v-76c76 -8 116 -57 116 -135v-65z" />
    <glyph glyph-name="currency" unicode="&#xa4;" horiz-adv-x="377" 
d="M36 48l-36 36l67 68c-12 19 -19 44 -19 74v88c0 29 6 54 18 72l-66 66l36 36l62 -62c23 17 53 24 86 24h5c35 0 65 -7 89 -25l63 63l36 -36l-68 -68c11 -18 17 -42 17 -70v-88c0 -29 -6 -54 -18 -73l69 -69l-36 -36l-65 66c-24 -16 -53 -24 -87 -24h-5
c-32 0 -61 8 -84 23zM186 161h2c30 0 59 19 59 73v73c0 53 -29 74 -60 74h-1c-30 0 -59 -21 -59 -74v-73c0 -54 29 -73 59 -73z" />
    <glyph glyph-name="dollar" unicode="$" horiz-adv-x="316" 
d="M285 432h-76v76c0 45 -22 64 -47 64c-26 0 -49 -16 -49 -61v-75c0 -104 172 -75 172 -230v-79c0 -88 -34 -128 -101 -136v-83h-51v83c-66 8 -101 49 -101 136v73h75v-73c0 -49 22 -69 52 -69c29 0 50 20 50 69v74c0 107 -169 75 -169 232v78c0 75 30 118 93 127v66h51
v-65c67 -7 101 -50 101 -131v-76z" />
    <glyph glyph-name="Euro" unicode="&#x20ac;" horiz-adv-x="323" 
d="M301 451h-74v54c0 50 -28 70 -58 70c-29 0 -57 -20 -57 -70v-102h123v-55h-123v-50h123v-55h-123v-112c0 -50 28 -69 58 -69c29 0 57 19 57 69v58h74v-52c0 -97 -46 -144 -132 -144c-79 0 -131 44 -131 144v106h-38v55h38v50h-38v55h38v109c0 85 52 126 131 126
c87 0 132 -47 132 -126v-61z" />
    <glyph glyph-name="sterling" unicode="&#xa3;" 
d="M321 445h-74v60c0 50 -28 70 -58 70c-29 0 -57 -20 -57 -70v-181h123v-72h-123v-173h189v-79h-301v79h38v173h-38v72h38v188c0 85 52 126 130 126c88 0 133 -47 133 -126v-67z" />
    <glyph glyph-name="yen" unicode="&#xa5;" horiz-adv-x="322" 
d="M307 641l-104 -372h77v-55h-80v-46h80v-55h-80v-113h-73l-1 113h-81v55h80v46h-80v55h76l-105 372h73l73 -279l72 279h73z" />
    <glyph glyph-name="plus" unicode="+" horiz-adv-x="298" 
d="M282 310v-66h-100v-101h-66v101h-100v66h100v101h66v-101h100z" />
    <glyph glyph-name="minus" unicode="&#x2212;" horiz-adv-x="359" 
d="M11 388h337v-59h-337v59z" />
    <glyph glyph-name="multiply" unicode="&#xd7;" horiz-adv-x="315" 
d="M298 445l-98 -98l98 -98l-43 -41l-97 97l-98 -97l-42 42l98 97l-98 98l42 42l98 -98l98 98z" />
    <glyph glyph-name="divide" unicode="&#xf7;" horiz-adv-x="359" 
d="M139 465h78v-77h-78v77zM11 289h337v-59h-337v59zM139 126h78v-77h-78v77z" />
    <glyph glyph-name="equal" unicode="=" horiz-adv-x="368" 
d="M16 368h336v-59h-336v59zM16 215h336v-60h-336v60z" />
    <glyph glyph-name="notequal" unicode="&#x2260;" horiz-adv-x="359" 
d="M348 329h-121l-21 -99h142v-59h-155l-29 -137h-77l29 137h-105v59h118l21 99h-139v59h152l23 109h77l-23 -109h108v-59z" />
    <glyph glyph-name="greater" unicode="&#x3e;" horiz-adv-x="269" 
d="M5 122l167 164l-167 165h89l167 -165l-167 -164h-89z" />
    <glyph glyph-name="less" unicode="&#x3c;" horiz-adv-x="272" 
d="M267 122h-89l-167 164l167 165h89l-167 -165z" />
    <glyph glyph-name="greaterequal" unicode="&#x2265;" horiz-adv-x="276" 
d="M11 122l167 164l-167 165h83l167 -165l-167 -164h-83zM11 59h248v-59h-248v59z" />
    <glyph glyph-name="lessequal" unicode="&#x2264;" horiz-adv-x="276" 
d="M265 122h-84l-167 164l167 165h84l-167 -165zM264 59v-59h-247v59h247z" />
    <glyph glyph-name="plusminus" unicode="&#xb1;" horiz-adv-x="298" 
d="M182 310h100v-66h-100v-101h-66v101h-100v66h100v101h66v-101zM16 0v59h266v-59h-266z" />
    <glyph glyph-name="approxequal" unicode="&#x2248;" horiz-adv-x="461" 
d="M227 329c-79 37 -160 62 -160 -14h-51c0 136 126 116 215 68c78 -36 163 -51 163 24h51c0 -135 -131 -124 -218 -78zM227 197c-79 37 -160 62 -160 -14h-51c0 136 126 116 215 68c78 -36 163 -51 163 25h51c0 -136 -131 -125 -218 -79z" />
    <glyph glyph-name="asciitilde" unicode="~" horiz-adv-x="307" 
d="M82 276l-45 22c20 49 78 59 125 33c18 -9 40 -24 55 19l45 -22c-20 -54 -68 -64 -120 -36c-16 9 -45 21 -60 -16z" />
    <glyph glyph-name="logicalnot" unicode="&#xac;" horiz-adv-x="289" 
d="M278 310v-167h-66l-1 101h-200v66h267z" />
    <glyph glyph-name="asciicircum" unicode="^" horiz-adv-x="211" 
d="M137 507l-28 144h-7l-28 -144h-60l56 197h72l55 -197h-60z" />
    <glyph glyph-name="infinity" unicode="&#x221e;" horiz-adv-x="501" 
d="M358 395c109 0 130 -41 130 -94s-21 -93 -130 -93c-55 0 -88 11 -107 30c-18 -19 -51 -30 -109 -30c-103 0 -128 40 -128 93s25 94 128 94c58 0 91 -11 109 -30c19 19 52 30 107 30zM142 261c73 0 87 16 87 40c0 25 -14 41 -87 41c-68 0 -85 -16 -85 -41
c0 -24 17 -40 85 -40zM358 261c72 0 86 16 86 40c0 25 -14 41 -86 41c-69 0 -86 -16 -86 -41c0 -24 17 -40 86 -40z" />
    <glyph glyph-name="emptyset" unicode="&#x2205;" horiz-adv-x="418" 
d="M413 708l-66 -137v-11v-416c0 -111 -60 -152 -138 -152h-5c-47 0 -87 15 -112 52l-21 -44h-67l63 131v13v417c0 110 60 151 137 151h5c48 0 89 -16 113 -53l24 49h67zM154 566v-255l107 221v34c0 54 -29 74 -54 74h-1c-23 0 -52 -20 -52 -74zM261 144v249l-107 -221v-28
c0 -55 29 -75 51 -75h3c24 0 53 20 53 75z" />
    <glyph glyph-name="integral" unicode="&#x222b;" horiz-adv-x="215" 
d="M204 787h30v-59h-20c-43 0 -73 -23 -73 -81v-696c0 -97 -51 -140 -130 -140h-30v59h15c42 0 72 23 72 81v696c0 96 57 140 136 140z" />
    <glyph glyph-name="product" unicode="&#x220f;" horiz-adv-x="541" 
d="M502 787v-983h-67v928l-329 -1v-927h-66v983h462z" />
    <glyph glyph-name="summation" unicode="&#x2211;" horiz-adv-x="437" 
d="M410 787v-55l-370 -1v56h370zM40 -132l169 431l-169 432h71l168 -432l-168 -431h299v-55l-370 -3v58z" />
    <glyph glyph-name="radical" unicode="&#x221a;" horiz-adv-x="520" 
d="M432 800h66l-214 -1000h-65l-92 430l-100 -1v56h154l71 -332z" />
    <glyph glyph-name="partialdiff" unicode="&#x2202;" horiz-adv-x="370" 
d="M256 712c80 0 128 -42 110 -134l-88 -452c-16 -84 -75 -134 -166 -134c-77 0 -126 44 -108 134l43 227c19 95 71 131 148 131c34 0 58 -9 68 -30l24 124c10 51 -15 71 -44 71s-63 -20 -72 -71l-11 -54h-79l11 54c16 84 76 134 164 134zM242 351c10 53 -15 74 -44 74
s-61 -21 -71 -74l-43 -217c-10 -52 15 -71 44 -71c34 0 63 24 73 71z" />
    <glyph glyph-name="percent" unicode="%" horiz-adv-x="479" 
d="M123 411c-62 0 -99 40 -99 123v56c0 83 37 124 99 124h5c62 0 99 -41 99 -124v-56c0 -83 -37 -123 -99 -123h-5zM25 0l361 704h62l-362 -704h-61zM124 461h2c29 0 47 18 47 68v67c0 49 -18 68 -47 68h-1c-28 0 -47 -19 -47 -68v-67c0 -50 19 -68 46 -68zM353 -10
c-68 0 -99 40 -99 123v57c0 82 31 123 99 123h5c67 0 99 -41 99 -123v-57c0 -83 -32 -123 -99 -123h-5zM354 40h2c28 0 47 18 47 68v67c0 49 -19 68 -47 68h-1c-28 0 -47 -19 -47 -68v-67c0 -50 19 -68 46 -68z" />
    <glyph glyph-name="perthousand" unicode="&#x2030;" horiz-adv-x="703" 
d="M123 411c-62 0 -99 40 -99 123v56c0 83 37 124 99 124h5c62 0 99 -41 99 -124v-56c0 -83 -37 -123 -99 -123h-5zM25 0l361 704h62l-362 -704h-61zM124 461h2c29 0 47 18 47 68v67c0 49 -18 68 -47 68h-1c-28 0 -47 -19 -47 -68v-67c0 -50 19 -68 46 -68zM353 -10
c-68 0 -99 40 -99 123v57c0 82 31 123 99 123h5c67 0 99 -41 99 -123v-57c0 -83 -32 -123 -99 -123h-5zM583 -10c-67 0 -98 40 -98 123v57c0 82 31 123 98 123h5c68 0 100 -41 100 -123v-57c0 -83 -32 -123 -100 -123h-5zM354 40h2c28 0 47 18 47 68v67c0 49 -19 68 -47 68
h-1c-28 0 -47 -19 -47 -68v-67c0 -50 19 -68 46 -68zM585 40h2c28 0 47 18 47 68v67c0 49 -19 68 -48 68h-1c-28 0 -46 -19 -46 -68v-67c0 -50 18 -68 46 -68z" />
    <glyph glyph-name="at" unicode="@" horiz-adv-x="513" 
d="M354 538v-289c0 -46 11 -63 34 -63c29 0 29 33 29 63v291c0 106 -79 115 -163 115s-163 -9 -163 -115v-358c0 -107 82 -122 169 -122h217v-60h-217c-148 0 -228 45 -228 180v361c0 137 78 175 222 175c143 0 223 -38 223 -175v-295c0 -64 -15 -105 -74 -105
c-48 0 -69 17 -77 48c-12 -27 -38 -48 -79 -48c-59 0 -99 36 -99 105v198c0 70 40 105 94 105c36 0 65 -22 77 -46v35h35zM300 249v191c0 45 -21 61 -49 61c-29 0 -49 -16 -49 -61v-191c0 -45 20 -63 49 -63c28 0 49 18 49 63z" />
    <glyph glyph-name="ampersand" unicode="&#x26;" horiz-adv-x="362" 
d="M329 70h14v-69l-13 -1c-33 0 -64 17 -82 40c-18 -28 -52 -48 -94 -48c-89 0 -138 54 -138 138v131c0 60 32 87 60 100c-26 14 -54 46 -54 94v123c0 86 48 134 133 134c73 0 129 -42 129 -134v-123h-80v116c0 51 -22 70 -50 70s-53 -16 -53 -70v-102c0 -56 30 -70 60 -70
l180 1v-71h-61v-192c0 -41 20 -67 49 -67zM207 138v191h-47c-29 0 -66 -12 -66 -69l1 -122c0 -47 26 -71 58 -71c36 0 54 24 54 71z" />
    <glyph glyph-name="paragraph" unicode="&#xb6;" horiz-adv-x="309" 
d="M137 -1v287h-4c-53 0 -117 12 -117 114v186c0 101 64 118 117 118h152v-47h-36v-657h-44v658h-24v-659h-44z" />
    <glyph glyph-name="section" unicode="&#xa7;" horiz-adv-x="312" 
d="M288 490h-75v55c0 46 -36 53 -55 53c-20 0 -55 -8 -55 -53v-32c0 -91 184 -59 184 -197v-59c0 -57 -22 -91 -53 -108c30 -20 53 -47 53 -96v-46c0 -98 -66 -127 -132 -127c-63 0 -131 29 -131 116v68h75v-52c0 -50 32 -65 56 -65c28 0 56 15 56 61v32
c0 90 -185 58 -185 202v58c0 55 27 85 62 100c-33 20 -60 50 -60 105v49c0 88 69 112 130 112c58 0 130 -24 130 -112v-64zM211 290c0 46 -36 54 -55 54c-20 0 -55 -8 -55 -54v-27c0 -51 32 -66 56 -66c28 0 54 15 54 62v31z" />
    <glyph glyph-name="copyright" unicode="&#xa9;" horiz-adv-x="459" 
d="M230 39c-134 0 -206 76 -206 278c0 200 72 278 206 278c132 0 205 -78 205 -278c0 -202 -73 -278 -205 -278zM230 86c107 0 160 56 160 231c0 173 -53 231 -160 231c-108 0 -161 -58 -161 -231c0 -175 53 -231 161 -231zM229 139c-52 0 -93 35 -93 104v154
c0 68 41 103 93 103c61 0 95 -38 95 -103v-44h-49v39c0 44 -22 60 -46 60c-21 0 -44 -16 -44 -60v-144c0 -44 23 -61 45 -61c23 0 45 17 45 61v41h49v-46c0 -67 -36 -104 -95 -104z" />
    <glyph glyph-name="registered" unicode="&#xae;" horiz-adv-x="459" 
d="M230 39c-134 0 -206 76 -206 278c0 200 72 278 206 278c132 0 205 -78 205 -278c0 -202 -73 -278 -205 -278zM230 86c107 0 160 56 160 231c0 173 -53 231 -160 231c-108 0 -161 -58 -161 -231c0 -175 53 -231 161 -231zM155 147v351h86c49 0 76 -23 76 -77v-69
c0 -41 -14 -67 -46 -76l47 -129h-48l-46 125h-23v-125h-46zM201 314h36c24 0 33 11 33 44v59c0 36 -14 42 -33 42h-36v-145z" />
    <glyph glyph-name="trademark" unicode="&#x2122;" horiz-adv-x="363" 
d="M13 664v40h129v-40h-44v-276h-40v276h-45zM323 704v-316h-40v185l-27 -185h-27l-28 188v-188h-40v316h55l26 -220l28 220h53z" />
    <glyph glyph-name="degree" unicode="&#xb0;" horiz-adv-x="218" 
d="M110 468c-53 0 -94 25 -94 129c0 109 41 130 94 130c52 0 92 -21 92 -130c0 -104 -40 -129 -92 -129zM110 511c24 0 39 17 39 86c0 72 -15 86 -39 86c-25 0 -42 -14 -42 -86c0 -69 17 -86 42 -86z" />
    <glyph glyph-name="bar" unicode="|" horiz-adv-x="137" 
d="M40 -200v1000h58v-1000h-58z" />
    <glyph glyph-name="brokenbar" unicode="&#xa6;" horiz-adv-x="147" 
d="M40 405v395h67v-395h-67zM107 195v-395h-67v395h67z" />
    <glyph glyph-name="dagger" unicode="&#x2020;" horiz-adv-x="424" 
d="M410 527v-67h-164v-600h-67v600h-165v67h165v185h67v-185h164z" />
    <glyph glyph-name="daggerdbl" unicode="&#x2021;" horiz-adv-x="424" 
d="M410 460h-164v-383h164v-68h-164v-149h-67v149h-165v68h165v383h-165v67h165v185h67v-185h164v-67z" />
    <glyph glyph-name="uni0308" unicode="&#x308;" horiz-adv-x="0" 
d="M-205 742v73h71v-73h-71zM-91 742v73h72v-73h-72z" />
    <glyph glyph-name="uni0307" unicode="&#x307;" horiz-adv-x="0" 
d="M-89 742v73h72v-73h-72z" />
    <glyph glyph-name="gravecomb" unicode="&#x300;" horiz-adv-x="0" 
d="M-5 735h-48l-74 117h70z" />
    <glyph glyph-name="acutecomb" unicode="&#x301;" horiz-adv-x="0" 
d="M-131 735l51 117h70l-74 -117h-47z" />
    <glyph glyph-name="uni030B" unicode="&#x30b;" horiz-adv-x="0" 
d="M-240 735l52 117h70l-74 -117h-48zM-137 735l51 117h71l-74 -117h-48z" />
    <glyph glyph-name="uni0302" unicode="&#x302;" horiz-adv-x="0" 
d="M0 735h-49l-47 69l-48 -69h-49l61 117h71z" />
    <glyph glyph-name="uni030C" unicode="&#x30c;" horiz-adv-x="0" 
d="M-54 852h49l-62 -117h-70l-61 117h49l48 -69z" />
    <glyph glyph-name="uni0306" unicode="&#x306;" horiz-adv-x="0" 
d="M-113 733c-62 0 -106 38 -103 113h56c-2 -39 10 -63 47 -63s50 24 47 63h56c3 -75 -41 -113 -103 -113z" />
    <glyph glyph-name="uni030A" unicode="&#x30a;" horiz-adv-x="0" 
d="M-97 716c-40 0 -72 32 -72 72c0 39 32 72 72 72c39 0 72 -33 72 -72s-33 -72 -72 -72zM-97 754c20 0 35 14 35 34c0 19 -16 35 -35 35c-20 0 -34 -16 -34 -35s14 -34 34 -34z" />
    <glyph glyph-name="tildecomb" unicode="&#x303;" horiz-adv-x="0" 
d="M-196 732l-45 22c20 49 78 59 124 33c18 -9 41 -24 56 19l45 -22c-20 -54 -68 -64 -120 -36c-17 9 -46 21 -60 -16z" />
    <glyph glyph-name="uni0304" unicode="&#x304;" horiz-adv-x="0" 
d="M-205 797h161v-56h-161v56z" />
    <glyph glyph-name="uni0312" unicode="&#x312;" horiz-adv-x="0" 
d="M-20 645v-87h-72v87l26 59h34l-22 -59h34z" />
    <glyph glyph-name="uni0326" unicode="&#x326;" horiz-adv-x="0" 
d="M-93 -122v82h73v-82l-27 -64h-33l21 64h-34z" />
    <glyph glyph-name="uni0327" unicode="&#x327;" horiz-adv-x="0" 
d="M-143 -76v34l22 48h45l-21 -47h17c44 0 64 -22 64 -63c0 -33 -25 -65 -69 -65c-4 0 -43 0 -47 1v42c4 -1 19 -1 23 -1c31 0 45 9 45 23c0 18 -3 28 -33 28h-46z" />
    <glyph glyph-name="uni0328" unicode="&#x328;" horiz-adv-x="0" 
d="M-1 0c-49 -39 -64 -48 -64 -70c0 -13 28 -23 54 1v-55c-38 -25 -122 -16 -122 47c0 32 19 50 56 77h76z" />
    <glyph glyph-name="acute" unicode="&#xb4;" horiz-adv-x="150" 
d="M16 735l52 117h70l-74 -117h-48z" />
    <glyph glyph-name="breve" unicode="&#x2d8;" horiz-adv-x="228" 
d="M115 733c-62 0 -106 38 -103 113h56c-2 -39 10 -63 47 -63s50 24 47 63h56c3 -75 -41 -113 -103 -113z" />
    <glyph glyph-name="caron" unicode="&#x2c7;" horiz-adv-x="204" 
d="M146 852h49l-61 -117h-71l-61 117h49l48 -69z" />
    <glyph glyph-name="cedilla" unicode="&#xb8;" horiz-adv-x="159" 
d="M16 -76v34l23 48h44l-21 -47h17c44 0 64 -22 64 -63c0 -33 -24 -65 -68 -65c-5 0 -43 0 -48 1v42c5 -1 19 -1 24 -1c31 0 45 9 45 23c0 18 -3 28 -34 28h-46z" />
    <glyph glyph-name="circumflex" unicode="&#x2c6;" horiz-adv-x="195" 
d="M105 852l67 -48l-52 -69l-78 48l13 15l-18 6h24z" />
    <glyph glyph-name="dieresis" unicode="&#xa8;" horiz-adv-x="245" 
d="M19 742v73h71v-73h-71zM133 742v73h72v-73h-72z" />
    <glyph glyph-name="dotaccent" unicode="&#x2d9;" horiz-adv-x="93" 
d="M11 742v73h71v-73h-71z" />
    <glyph glyph-name="grave" unicode="`" horiz-adv-x="150" 
d="M140 735h-47l-78 123h71z" />
    <glyph glyph-name="hungarumlaut" unicode="&#x2dd;" horiz-adv-x="249" 
d="M16 735l52 117h70l-74 -117h-48zM119 735l51 117h71l-74 -117h-48z" />
    <glyph glyph-name="macron" unicode="&#xaf;" horiz-adv-x="249" 
d="M44 797h161v-56h-161v56z" />
    <glyph glyph-name="ogonek" unicode="&#x2db;" horiz-adv-x="134" 
d="M133 0c-49 -39 -64 -48 -64 -70c0 -13 28 -23 54 1v-55c-38 -25 -122 -16 -122 47c0 32 19 50 56 77h76z" />
    <glyph glyph-name="ring" unicode="&#x2da;" horiz-adv-x="198" 
d="M97 716c-40 0 -72 32 -72 72c0 39 32 72 72 72s72 -33 72 -72s-32 -72 -72 -72zM97 754c20 0 35 14 35 34c0 19 -16 35 -35 35s-34 -16 -34 -35s15 -34 34 -34z" />
    <glyph glyph-name="tilde" unicode="&#x2dc;" horiz-adv-x="280" 
d="M70 732l-45 22c20 49 78 59 124 33c18 -9 41 -24 56 19l45 -22c-20 -54 -68 -64 -120 -36c-17 9 -46 21 -60 -16z" />
    </font>
</defs>
</svg>
